M48
;Layer_Color=9474304
;FILE_FORMAT=4:4
METRIC,LZ
;TYPE=PLATED
T1F00S00C0.3000
T2F00S00C0.9000
T3F00S00C1.4000
%
T01
X0047275Y00398
X0051075Y0038775
Y0037875
X00521125
Y0038775
X005315
Y0037875
X0052225Y005305
X005585Y00518
X0057875Y00517
X00574669Y00565803
X00585866Y00566
X00489643Y0056475
X00478446Y00564553
X004575Y005115
X0045725Y00494
Y00485
X00446875
Y00494
X004365
Y00485
X0042175Y0053075
X00393419Y0056475
X00382223Y00564553
X003655Y0051775
X003255Y0052825
X00297196Y0056475
X00285999Y00564553
X002725Y005125
X0024775Y0049175
Y0048275
X00237375
Y0049175
X00227
Y0048275
X0022945Y0053175
X00200973Y0056475
X00189776Y00564553
X001765Y0050575
X0013425Y0053175
X0010475Y0056475
X00093553Y00564553
X00092Y005105
X00064Y0049525
Y0048625
X00053625
Y0049525
X00104Y0039575
Y0038675
X00114375
Y0039575
X0012475
Y0038675
X0014775Y003465
X0017775Y00357
X00259Y0035475
X0030875Y0038075
Y0038975
X00319125
Y0038075
X003295
Y0038975
X0035175Y0035575
X003805
X0004325Y0048625
Y0049525
X0006475Y0068575
X000735Y0067875
X0011825Y006675
X00112804Y0064925
X0013075Y00686
X0016225Y00685
X001705Y0067825
X0022325Y006795
X0021495Y006675
X00209027Y0064925
X0025875Y0068575
X0026675Y0067775
X0031325Y00682
X0032825Y006825
X0031115Y006675
X0030525Y0064925
X0036375Y00685
X0037975Y0068625
X0040735Y006675
X00403Y00650777
X00395019Y00780034
X0043975Y0081925
X00427Y0089
X00418018Y00889424
X004075Y0087725
X0038925Y0088
X003805Y0089475
X00406Y0091575
X0041425Y0092325
X0031525Y0092425
Y0091275
X0030225
Y0092425
X0029
Y0091275
X00313Y0089325
X002425Y0088275
X0023075Y0088325
X0022025Y00883
X0021025Y0088325
X00174Y008715
X001645Y008765
X0016925Y008365
X00176697Y008295
X00199862Y00824138
X00219Y0082325
X00206Y0077675
X00213Y0076825
X001705Y0077325
X001555Y007665
X0015175Y0078875
X001155Y007775
X001025Y0082375
X0008875
X0007475
X0024975Y0078625
X00262Y0077925
X00447765Y00762515
X004685Y0077575
X0047875Y0078025
X00523Y0078725
X00525Y007665
X005135Y00681
X0050355Y006675
X00497696Y0064925
X0047625Y0068625
X0046225Y0068475
X0056275Y006855
X0057575Y0068525
X0059975Y006675
X00593919Y006505
X0046425Y0082325
X00461875Y00877375
X004545Y0088675
X004585Y008965
X0045375Y0092725
Y00942
X00452154Y00953154
X0048225Y009475
X00495Y009325
X0050075Y00869
X00481Y00868775
X00498201Y0104565
X005425Y0104175
X0043175Y0103375
T02
X00083Y009555
X001084
Y009809
X00083
Y010063
Y010317
X001084
Y010063
X0016115Y009948
Y009694
Y010202
X0023735
Y009948
Y009694
X0029315
Y009948
Y010202
X0036935
Y009948
Y009694
X003758Y0084
X003504
X00325
X002996
X002742
X0027445Y008045
X0029985
X0032525
X0035065
X0037605
X0056135Y009554
Y009808
X0058675
Y010062
Y010316
X0056135
Y010062
X0058675Y009554
Y01057
X0056135
X0036935Y010456
X0029315
X0023735
X0016115
X001084Y010571
X00083
T03
X0002925Y0004025
X0006425
X0009925
X0013425
X0016925
X0020425
X0023925
X0027425
X0030925
X0034425
X0037925
X0041425
X0044925
X0048425
X0051925
X0055425
M30
