M48
;Layer_Color=9474304
;FILE_FORMAT=4:4
METRIC,LZ
;TYPE=PLATED
T1F00S00C0.3000
T2F00S00C0.9000
T3F00S00C1.4000
%
T01
X0047275Y00398
X0051075Y0038775
Y0037875
X00521125
Y0038775
X005315
Y0037875
X0052225Y005305
X005585Y00518
X0057875Y00517
X00574669Y00565803
X00585866Y00566
X0052175Y005945
X0051275
Y00604875
X0052175
Y0061525
X0051275
X00489643Y0056475
X00478446Y00564553
X004725Y005175
X0045725Y00494
Y00485
X00446875
Y00494
X004365
Y00485
X0042175Y0053075
X00393419Y0056475
X00382223Y00564553
X003655Y0051775
X003255Y0052825
X0027Y0052
X0024775Y0049175
Y0048275
X00237375
Y0049175
X00227
Y0048275
X0022945Y0053175
X0024175Y005795
X00233Y0059425
X00224
Y00604625
X00233
Y00615
X00224
X00200973Y0056475
X00189776Y00564553
X001785Y00521
X0013425Y0053175
X0010475Y0056475
X00093553Y00564553
X00092Y005105
X00064Y0049525
Y0048625
X00053625
Y0049525
X00104Y0039575
Y0038675
X00114375
Y0039575
X0012475
Y0038675
X0014725Y0039525
X0018325Y003945
X0025925Y00394
X0030875Y0038975
Y0038075
X00319125
Y0038975
X003295
Y0038075
X0035225Y0039625
X0038325Y0039575
X00416Y005945
X00425
Y00604875
X00416
Y0061525
X00425
X00328
X00319
Y00604875
X00328
Y005945
X00319
X00297196Y0056475
X00285999Y00564553
X0013825Y0059475
X0012925
Y00605125
X0013825
Y006155
X0012925
X0004325Y0049525
Y0048625
X0013025Y0064575
X0022675Y006455
X0032325Y0064575
X0042
X0042625Y007695
X0043975Y0081925
X0043525Y0087075
X0041875Y0087475
X0040625Y0086955
X0041375Y0088975
X00432Y00894
X003855Y008945
X00391Y0095025
X00405Y0095
X00358Y009505
X0034375Y0095075
X0028275Y0097375
Y0098525
X0026975
Y0097375
X002575
Y0098525
X0024475Y008855
X0022875Y00886
X0019875Y0088575
X001795Y0089575
X0014825Y00889
X0015475Y0087775
X001545Y008685
X0015175Y0078875
X001005Y0077675
X0009975Y0076425
X00206Y0077675
X00215388Y00774388
X00254Y0078675
X00268Y0077675
X00219Y0082325
X00199862Y00824138
X0027375Y008885
X00152906Y00961344
X0015275Y0100075
X00367Y0076025
X0047325Y0076275
X004685Y0077575
X0047875Y0078025
X005095Y0077
X0046425Y0082325
X004675Y00879
X0045375Y0087725
X004715Y008925
X00484291Y008805
X005015Y00881
X00506Y0089375
X00532Y008815
X0058875Y008945
Y00906
X0060175
Y008945
X0061325Y00646
X0051675Y00647
X00497Y0104975
X00438Y0104925
T02
X000746Y009354
X001
Y009608
X000746
Y009862
X001
Y010116
X000746
X0023115Y0101635
X0025655
X0028195
X0030735
Y0094015
X0028195
X0025655
X0023115
X002742Y0084
X002996
X00325
X003504
X003758
X0037605Y008045
X0035065
X0032525
X0029985
X0027445
X00541Y009354
Y009608
X005664
Y009862
Y010116
X00541
Y009862
X005664Y009354
Y01037
X00541
X001
X000746
T03
X0002925Y0008025
X0006425
X0009925
X0013425
X0016925
X0020425
X0023925
X0027425
X0030925
X0034425
X0037925
X0041425
X0044925
X0048425
X0051925
X0055425
M30
