G04*
G04 #@! TF.GenerationSoftware,Altium Limited,Altium Designer,20.0.13 (296)*
G04*
G04 Layer_Color=8421504*
%FSLAX44Y44*%
%MOMM*%
G71*
G01*
G75*
%ADD21R,0.4100X1.5600*%
%ADD22R,0.8000X1.0000*%
%ADD23R,0.6000X0.5000*%
%ADD24R,0.5000X0.6000*%
G04:AMPARAMS|DCode=25|XSize=2.33mm|YSize=1.55mm|CornerRadius=0.3875mm|HoleSize=0mm|Usage=FLASHONLY|Rotation=270.000|XOffset=0mm|YOffset=0mm|HoleType=Round|Shape=RoundedRectangle|*
%AMROUNDEDRECTD25*
21,1,2.3300,0.7750,0,0,270.0*
21,1,1.5550,1.5500,0,0,270.0*
1,1,0.7750,-0.3875,-0.7775*
1,1,0.7750,-0.3875,0.7775*
1,1,0.7750,0.3875,0.7775*
1,1,0.7750,0.3875,-0.7775*
%
%ADD25ROUNDEDRECTD25*%
%ADD26R,2.6500X1.7500*%
%ADD27R,1.0000X0.8000*%
%ADD28R,2.7940X3.8100*%
%ADD29R,1.1000X0.8000*%
%ADD30R,3.5000X2.1500*%
%ADD31R,1.1000X1.2500*%
%ADD32R,1.2500X1.1000*%
%ADD33R,2.5000X2.6000*%
%ADD34R,3.8100X2.7940*%
%ADD35R,7.0000X4.0000*%
%ADD36R,3.2000X1.0500*%
%ADD37R,8.3000X10.4500*%
%ADD38R,0.5334X1.9812*%
%ADD39R,2.1500X3.2500*%
%ADD40R,2.1500X0.9500*%
G36*
X39750Y327000D02*
X20750D01*
Y352000D01*
X39750D01*
Y363000D01*
X52750D01*
Y352000D01*
X64750D01*
Y327000D01*
X52750D01*
Y316000D01*
X39750D01*
Y327000D01*
D02*
G37*
G36*
X115750D02*
X103750D01*
Y352000D01*
X115750D01*
Y363000D01*
X128750D01*
Y352000D01*
X147750D01*
Y327000D01*
X128750D01*
Y316000D01*
X115750D01*
Y327000D01*
D02*
G37*
G36*
X39750Y488250D02*
X20750D01*
Y513250D01*
X39750D01*
Y524250D01*
X52750D01*
Y513250D01*
X64750D01*
Y488250D01*
X52750D01*
Y477250D01*
X39750D01*
Y488250D01*
D02*
G37*
G36*
X115750D02*
X103750D01*
Y513250D01*
X115750D01*
Y524250D01*
X128750D01*
Y513250D01*
X147750D01*
Y488250D01*
X128750D01*
Y477250D01*
X115750D01*
Y488250D01*
D02*
G37*
G36*
X432500Y722500D02*
X444500D01*
Y697500D01*
X432500D01*
Y686500D01*
X419500D01*
Y697500D01*
X400500D01*
Y722500D01*
X419500D01*
Y733500D01*
X432500D01*
Y722500D01*
D02*
G37*
G36*
X508500D02*
X527500D01*
Y697500D01*
X508500D01*
Y686500D01*
X495500D01*
Y697500D01*
X483500D01*
Y722500D01*
X495500D01*
Y733500D01*
X508500D01*
Y722500D01*
D02*
G37*
G36*
X432500Y838000D02*
X444500D01*
Y813000D01*
X432500D01*
Y802000D01*
X419500D01*
Y813000D01*
X400500D01*
Y838000D01*
X419500D01*
Y849000D01*
X432500D01*
Y838000D01*
D02*
G37*
G36*
X508500D02*
X527500D01*
Y813000D01*
X508500D01*
Y802000D01*
X495500D01*
Y813000D01*
X483500D01*
Y838000D01*
X495500D01*
Y849000D01*
X508500D01*
Y838000D01*
D02*
G37*
D21*
X671800Y947450D02*
D03*
X678300D02*
D03*
X684800D02*
D03*
X691300D02*
D03*
X697800D02*
D03*
X704300D02*
D03*
X710800D02*
D03*
X717300D02*
D03*
X723800D02*
D03*
X730300D02*
D03*
Y1005050D02*
D03*
X723800D02*
D03*
X717300D02*
D03*
X710800D02*
D03*
X704300D02*
D03*
X697800D02*
D03*
X691300D02*
D03*
X684800D02*
D03*
X678300D02*
D03*
X671800D02*
D03*
X447750Y946700D02*
D03*
X454250D02*
D03*
X460750D02*
D03*
X467250D02*
D03*
X473750D02*
D03*
X480250D02*
D03*
X486750D02*
D03*
X493250D02*
D03*
X499750D02*
D03*
X506250D02*
D03*
Y1004300D02*
D03*
X499750D02*
D03*
X493250D02*
D03*
X486750D02*
D03*
X480250D02*
D03*
X473750D02*
D03*
X467250D02*
D03*
X460750D02*
D03*
X454250D02*
D03*
X447750D02*
D03*
D22*
X774300Y957500D02*
D03*
X758300D02*
D03*
X774675Y991125D02*
D03*
X758675D02*
D03*
X759500Y1015500D02*
D03*
X775500D02*
D03*
X550250Y955250D02*
D03*
X534250D02*
D03*
X550250Y990750D02*
D03*
X534250D02*
D03*
X535000Y1015500D02*
D03*
X551000D02*
D03*
X160000Y863250D02*
D03*
X144000D02*
D03*
X183000D02*
D03*
X199000D02*
D03*
X180500Y719250D02*
D03*
X196500D02*
D03*
X162250Y719000D02*
D03*
X146250D02*
D03*
X239500Y548250D02*
D03*
X223500D02*
D03*
X360000Y548200D02*
D03*
X344000D02*
D03*
X485000D02*
D03*
X469000D02*
D03*
X610000D02*
D03*
X594000D02*
D03*
X735000D02*
D03*
X719000D02*
D03*
X858500D02*
D03*
X842500D02*
D03*
D23*
X654225Y1007250D02*
D03*
Y997250D02*
D03*
X639300Y997250D02*
D03*
Y1007250D02*
D03*
X430258Y1007250D02*
D03*
Y997250D02*
D03*
X415000Y997250D02*
D03*
Y1007250D02*
D03*
X186670Y134750D02*
D03*
Y124750D02*
D03*
X235250Y135000D02*
D03*
Y125000D02*
D03*
X210000Y134750D02*
D03*
Y124750D02*
D03*
X259250Y134750D02*
D03*
Y124750D02*
D03*
X544500Y836750D02*
D03*
Y846750D02*
D03*
X601262Y836750D02*
D03*
Y846750D02*
D03*
X601000Y775000D02*
D03*
Y785000D02*
D03*
X544000Y775000D02*
D03*
Y785000D02*
D03*
X726762Y833250D02*
D03*
Y843250D02*
D03*
X670000Y833250D02*
D03*
Y843250D02*
D03*
X729250Y775000D02*
D03*
Y785000D02*
D03*
X672250Y775000D02*
D03*
Y785000D02*
D03*
X858012Y829750D02*
D03*
Y839750D02*
D03*
X858750Y773500D02*
D03*
Y783500D02*
D03*
X801250Y829750D02*
D03*
Y839750D02*
D03*
X801750Y773500D02*
D03*
Y783500D02*
D03*
D24*
X639050Y943000D02*
D03*
X649050D02*
D03*
X674300Y920000D02*
D03*
X664300D02*
D03*
X687550D02*
D03*
X697550D02*
D03*
X649050Y957000D02*
D03*
X639050D02*
D03*
X415000Y942250D02*
D03*
X425000D02*
D03*
X463250Y919250D02*
D03*
X473250D02*
D03*
X450250D02*
D03*
X440250D02*
D03*
X425000Y956250D02*
D03*
X415000D02*
D03*
X45250Y147500D02*
D03*
X55250D02*
D03*
X283403Y1043750D02*
D03*
X293403D02*
D03*
X259250D02*
D03*
X269250D02*
D03*
X269250Y1027500D02*
D03*
X259250D02*
D03*
X293151D02*
D03*
X283151D02*
D03*
X167250Y1043000D02*
D03*
X157250D02*
D03*
X142000D02*
D03*
X132000D02*
D03*
X207250D02*
D03*
X217250D02*
D03*
X181750D02*
D03*
X191750D02*
D03*
D25*
X145250Y78650D02*
D03*
Y121350D02*
D03*
D26*
X628500Y522450D02*
D03*
X585500D02*
D03*
X753500D02*
D03*
X710500D02*
D03*
X877000D02*
D03*
X834000D02*
D03*
X503500D02*
D03*
X460500D02*
D03*
X378500D02*
D03*
X335500D02*
D03*
X258000D02*
D03*
X215000D02*
D03*
D27*
X805750Y515000D02*
D03*
Y531000D02*
D03*
X559750Y515000D02*
D03*
Y531000D02*
D03*
X433500Y515000D02*
D03*
Y531000D02*
D03*
X307250Y515000D02*
D03*
Y531000D02*
D03*
X189500Y515000D02*
D03*
Y531000D02*
D03*
X682500D02*
D03*
Y515000D02*
D03*
D28*
X891435Y222750D02*
D03*
X820065D02*
D03*
X777085D02*
D03*
X705715D02*
D03*
X662735D02*
D03*
X591365D02*
D03*
X548385D02*
D03*
X477015D02*
D03*
X434035D02*
D03*
X362665D02*
D03*
X319685D02*
D03*
X248315D02*
D03*
D29*
X840750Y774000D02*
D03*
Y793000D02*
D03*
X818250Y783500D02*
D03*
X840250Y830250D02*
D03*
Y849250D02*
D03*
X817750Y839750D02*
D03*
X711250Y775500D02*
D03*
Y794500D02*
D03*
X688750Y785000D02*
D03*
X709000Y833750D02*
D03*
Y852750D02*
D03*
X686500Y843250D02*
D03*
X583500Y775500D02*
D03*
Y794500D02*
D03*
X561000Y785000D02*
D03*
X583500Y837250D02*
D03*
Y856250D02*
D03*
X561000Y846750D02*
D03*
D30*
X355500Y944250D02*
D03*
Y979250D02*
D03*
D31*
X259500Y84750D02*
D03*
Y107750D02*
D03*
X210000Y84750D02*
D03*
Y107750D02*
D03*
X186670D02*
D03*
Y84750D02*
D03*
X235425Y108000D02*
D03*
Y85000D02*
D03*
D32*
X99000Y147500D02*
D03*
X76000D02*
D03*
D33*
X635250Y840600D02*
D03*
Y772000D02*
D03*
X764500Y846600D02*
D03*
Y778000D02*
D03*
X895000Y845600D02*
D03*
Y777000D02*
D03*
D34*
X220500Y758315D02*
D03*
Y829685D02*
D03*
Y611315D02*
D03*
Y682685D02*
D03*
D35*
X325500Y859250D02*
D03*
Y759250D02*
D03*
Y695250D02*
D03*
Y595250D02*
D03*
D36*
X157250Y757750D02*
D03*
Y774750D02*
D03*
Y791750D02*
D03*
Y808750D02*
D03*
Y825750D02*
D03*
X158750Y610500D02*
D03*
Y627500D02*
D03*
Y644500D02*
D03*
Y661500D02*
D03*
Y678500D02*
D03*
D37*
X62750Y791750D02*
D03*
X64250Y644500D02*
D03*
D38*
X817550Y729480D02*
D03*
X830250D02*
D03*
X842950D02*
D03*
X855650D02*
D03*
X868350D02*
D03*
X881050D02*
D03*
X893750D02*
D03*
X906450D02*
D03*
Y635500D02*
D03*
X893750D02*
D03*
X881050D02*
D03*
X868350D02*
D03*
X855650D02*
D03*
X842950D02*
D03*
X830250D02*
D03*
X817550D02*
D03*
X552550D02*
D03*
X565250D02*
D03*
X577950D02*
D03*
X590650D02*
D03*
X603350D02*
D03*
X616050D02*
D03*
X628750D02*
D03*
X641450D02*
D03*
Y729480D02*
D03*
X628750D02*
D03*
X616050D02*
D03*
X603350D02*
D03*
X590650D02*
D03*
X577950D02*
D03*
X565250D02*
D03*
X552550D02*
D03*
X686050Y635500D02*
D03*
X698750D02*
D03*
X711450D02*
D03*
X724150D02*
D03*
X736850D02*
D03*
X749550D02*
D03*
X762250D02*
D03*
X774950D02*
D03*
Y729480D02*
D03*
X762250D02*
D03*
X749550D02*
D03*
X736850D02*
D03*
X724150D02*
D03*
X711450D02*
D03*
X698750D02*
D03*
X686050D02*
D03*
D39*
X313000Y964000D02*
D03*
D40*
X255000Y941000D02*
D03*
Y964000D02*
D03*
Y987000D02*
D03*
M02*
