G04*
G04 #@! TF.GenerationSoftware,Altium Limited,Altium Designer,20.0.13 (296)*
G04*
G04 Layer_Color=65535*
%FSLAX44Y44*%
%MOMM*%
G71*
G01*
G75*
%ADD10C,0.6000*%
%ADD11C,0.2500*%
%ADD12C,0.2000*%
%ADD13C,0.1500*%
%ADD14C,0.6096*%
%ADD15C,0.1524*%
%ADD16C,0.1270*%
%ADD17C,0.3000*%
%ADD18C,0.1520*%
%ADD19C,0.2540*%
D10*
X226500Y1039750D02*
G03*
X226500Y1039750I-3000J0D01*
G01*
D11*
X203150Y1049350D02*
G03*
X203150Y1049350I-1250J0D01*
G01*
X397250Y630750D02*
G03*
X397250Y630750I-1250J0D01*
G01*
X265750D02*
G03*
X265750Y630750I-1250J0D01*
G01*
D12*
X233650Y1049750D02*
G03*
X246350Y1049750I6350J0D01*
G01*
X671500Y909250D02*
G03*
X671500Y909250I-1000J0D01*
G01*
X15250Y346250D02*
G03*
X15250Y346250I-1000J0D01*
G01*
X19000Y571750D02*
G03*
X19000Y571750I-1000J0D01*
G01*
X493750Y818500D02*
G03*
X493750Y818500I-1000J0D01*
G01*
X178750Y797750D02*
G03*
X178750Y797750I-1000J0D01*
G01*
X519000Y622500D02*
G03*
X519000Y622500I-50000J0D01*
G01*
X122750Y859000D02*
G03*
X122750Y859000I-50000J0D01*
G01*
X127250Y209750D02*
G03*
X127250Y209750I-50000J0D01*
G01*
X774900Y464650D02*
G03*
X774900Y464650I-1000J0D01*
G01*
X656250D02*
G03*
X656250Y464650I-1000J0D01*
G01*
X537600D02*
G03*
X537600Y464650I-1000J0D01*
G01*
X418950D02*
G03*
X418950Y464650I-1000J0D01*
G01*
X300300D02*
G03*
X300300Y464650I-1000J0D01*
G01*
X181650D02*
G03*
X181650Y464650I-1000J0D01*
G01*
X129250Y436000D02*
G03*
X129250Y436000I-50000J0D01*
G01*
X435750Y824250D02*
G03*
X435750Y824250I-1000J0D01*
G01*
X551750Y909250D02*
G03*
X551750Y909250I-1000J0D01*
G01*
X213500Y946750D02*
X266500D01*
X246350Y1049750D02*
X266500D01*
X213500D02*
X233650D01*
X266500Y946750D02*
Y1049750D01*
X213500Y946750D02*
Y1049750D01*
X590000Y1028050D02*
Y1053450D01*
X463000Y1028050D02*
X590000D01*
X463000Y1053450D02*
X590000D01*
X463000Y1028050D02*
Y1053450D01*
X726150Y1028050D02*
Y1053450D01*
X599150Y1028050D02*
X726150D01*
X599150Y1053450D02*
X726150D01*
X599150Y1028050D02*
Y1053450D01*
X160500Y947727D02*
X180500D01*
X160500Y936727D02*
Y947727D01*
Y936727D02*
X180500D01*
Y947727D01*
X160500Y983318D02*
X180500D01*
X160500Y972318D02*
Y983318D01*
Y972318D02*
X180500D01*
Y983318D01*
X160500Y1019000D02*
X180500D01*
X160500Y1008000D02*
Y1019000D01*
Y1008000D02*
X180500D01*
Y1019000D01*
X394153Y950000D02*
Y961000D01*
X374153Y950000D02*
X394153D01*
X374153D02*
Y961000D01*
X394153D01*
X370000Y950000D02*
Y961000D01*
X350000Y950000D02*
X370000D01*
X350000D02*
Y961000D01*
X370000D01*
X443500D02*
X463500D01*
X443500Y950000D02*
Y961000D01*
Y950000D02*
X463500D01*
Y961000D01*
X467401D02*
X487401D01*
X467401Y950000D02*
Y961000D01*
Y950000D02*
X487401D01*
Y961000D01*
X302250Y1020250D02*
X322250D01*
X302250Y1009250D02*
Y1020250D01*
Y1009250D02*
X322250D01*
Y1020250D01*
X634750Y933750D02*
X654750D01*
X634750Y922750D02*
Y933750D01*
Y922750D02*
X654750D01*
Y933750D01*
X543750Y882500D02*
Y902500D01*
Y882500D02*
X554750D01*
Y902500D01*
X543750D02*
X554750D01*
X610750Y999750D02*
Y1019750D01*
X599750D02*
X610750D01*
X599750Y999750D02*
Y1019750D01*
Y999750D02*
X610750D01*
X716500Y998000D02*
Y1018000D01*
Y998000D02*
X727500D01*
Y1018000D01*
X716500D02*
X727500D01*
X501000Y877750D02*
Y883750D01*
X534000Y877750D02*
Y883750D01*
X781750Y898250D02*
X801750D01*
X781750Y887250D02*
Y898250D01*
Y887250D02*
X801750D01*
Y898250D01*
X356000Y1027250D02*
X366000D01*
X405500D02*
X415500D01*
X439330Y982000D02*
Y1002000D01*
X428330D02*
X439330D01*
X428330Y982000D02*
Y1002000D01*
Y982000D02*
X439330D01*
X390750Y981750D02*
Y1001750D01*
X379750D02*
X390750D01*
X379750Y981750D02*
Y1001750D01*
Y981750D02*
X390750D01*
X416000Y982000D02*
Y1002000D01*
X405000D02*
X416000D01*
X405000Y982000D02*
Y1002000D01*
Y982000D02*
X416000D01*
X366750D02*
Y1002000D01*
X355750D02*
X366750D01*
X355750Y982000D02*
Y1002000D01*
Y982000D02*
X366750D01*
X180000Y101250D02*
Y111250D01*
X589000Y879750D02*
Y899750D01*
X578000D02*
X589000D01*
X578000Y879750D02*
Y899750D01*
Y879750D02*
X589000D01*
X277500Y917500D02*
X297500D01*
Y928500D01*
X277500D02*
X297500D01*
X277500Y917500D02*
Y928500D01*
X781750Y913125D02*
X801750D01*
X781750Y902125D02*
Y913125D01*
Y902125D02*
X801750D01*
Y913125D01*
X302250Y1050850D02*
X322250D01*
X302250Y1039850D02*
Y1050850D01*
Y1039850D02*
X322250D01*
Y1050850D01*
X160500D02*
X180500D01*
X160500Y1039850D02*
Y1050850D01*
Y1039850D02*
X180500D01*
Y1050850D01*
X779500Y822000D02*
Y842000D01*
X768500D02*
X779500D01*
X768500Y822000D02*
Y842000D01*
Y822000D02*
X779500D01*
X836262D02*
Y842000D01*
X825262D02*
X836262D01*
X825262Y822000D02*
Y842000D01*
Y822000D02*
X836262D01*
X756500D02*
Y842000D01*
X745500D02*
X756500D01*
X745500Y822000D02*
Y842000D01*
Y822000D02*
X756500D01*
X699500D02*
Y842000D01*
X688500D02*
X699500D01*
X688500Y822000D02*
Y842000D01*
Y822000D02*
X699500D01*
X836262Y686500D02*
Y706500D01*
X825262D02*
X836262D01*
X825262Y686500D02*
Y706500D01*
Y686500D02*
X836262D01*
X779500D02*
Y706500D01*
X768500D02*
X779500D01*
X768500Y686500D02*
Y706500D01*
Y686500D02*
X779500D01*
X756500D02*
Y706500D01*
X745500D02*
X756500D01*
X745500Y686500D02*
Y706500D01*
Y686500D02*
X756500D01*
X699500D02*
Y706500D01*
X688500D02*
X699500D01*
X688500Y686500D02*
Y706500D01*
Y686500D02*
X699500D01*
X836262Y554750D02*
Y574750D01*
X825262D02*
X836262D01*
X825262Y554750D02*
Y574750D01*
Y554750D02*
X836262D01*
X756500D02*
Y574750D01*
X745500D02*
X756500D01*
X745500Y554750D02*
Y574750D01*
Y554750D02*
X756500D01*
X779500D02*
Y574750D01*
X768500D02*
X779500D01*
X768500Y554750D02*
Y574750D01*
Y554750D02*
X779500D01*
X699500D02*
Y574750D01*
X688500D02*
X699500D01*
X688500Y554750D02*
Y574750D01*
Y554750D02*
X699500D01*
X410250Y619000D02*
Y626000D01*
X406750Y622500D02*
X413750D01*
X403250Y581750D02*
Y604250D01*
X299250D02*
X403250D01*
X299250Y581750D02*
Y604250D01*
X419250Y622250D02*
Y822250D01*
X519000Y622250D02*
Y822250D01*
X271750Y808750D02*
Y909000D01*
X419250Y822250D02*
X519000D01*
X271750Y581750D02*
Y604250D01*
X167750D02*
X271750D01*
X167750Y581750D02*
Y604250D01*
X69250Y800250D02*
X76250D01*
X72750Y796750D02*
Y803750D01*
X18500Y206250D02*
Y213250D01*
X15000Y209750D02*
X22000D01*
X428830Y1027250D02*
X438830D01*
X380075Y1027000D02*
X390075D01*
X322250Y937977D02*
Y948977D01*
X302250Y937977D02*
X322250D01*
X302250D02*
Y948977D01*
X322250D01*
Y973500D02*
Y984500D01*
X302250Y973500D02*
X322250D01*
X302250D02*
Y984500D01*
X322250D01*
X714750Y576750D02*
Y584750D01*
X723750D01*
X714750Y554750D02*
Y562750D01*
Y554750D02*
X723750D01*
X794750Y576750D02*
Y584750D01*
X803750D01*
X794750Y554750D02*
Y562750D01*
Y554750D02*
X803750D01*
X714750Y708500D02*
Y716500D01*
X723750D01*
X714750Y686500D02*
Y694500D01*
Y686500D02*
X723750D01*
X794750Y708500D02*
Y716500D01*
X803750D01*
X794750Y686500D02*
Y694500D01*
Y686500D02*
X803750D01*
X179100Y65250D02*
Y76250D01*
X199100D01*
Y65250D02*
Y76250D01*
X179100Y65250D02*
X199100D01*
X714750Y844000D02*
Y852000D01*
X723750D01*
X714750Y822000D02*
Y830000D01*
Y822000D02*
X723750D01*
X794750Y844000D02*
Y852000D01*
X803750D01*
X794750Y822000D02*
Y830000D01*
Y822000D02*
X803750D01*
X29250Y636000D02*
X129500D01*
X17000Y436000D02*
X24000D01*
X20500Y432500D02*
Y439500D01*
X761650Y922700D02*
X812450D01*
X761650Y1049700D02*
X812450D01*
Y922700D02*
Y1049700D01*
X761650Y922700D02*
Y1049700D01*
X812450Y922700D02*
X901350D01*
Y1049700D01*
X812450D02*
X901350D01*
X33734Y1041234D02*
X67600D01*
X29500Y1037000D02*
X33734Y1041234D01*
X29500Y1037000D02*
X33734Y1032767D01*
X67600D01*
X80300Y1049700D02*
X131100D01*
X80300Y922700D02*
X131100D01*
X80300D02*
Y1049700D01*
X131100Y922700D02*
Y1049700D01*
X29500Y935400D02*
X33734Y931167D01*
X29500Y935400D02*
X33734Y939634D01*
Y956567D02*
X67600D01*
X29500Y960800D02*
X33734Y956567D01*
X29500Y960800D02*
X33734Y965034D01*
X67600D01*
X33734Y939634D02*
X67600D01*
X33734Y931167D02*
X67600D01*
X29500Y986200D02*
X33734Y981967D01*
X29500Y986200D02*
X33734Y990434D01*
Y1007367D02*
X67600D01*
X29500Y1011600D02*
X33734Y1007367D01*
X29500Y1011600D02*
X33734Y1015834D01*
X67600D01*
X33734Y990434D02*
X67600D01*
X33734Y981967D02*
X67600D01*
Y922700D02*
X80300D01*
X67600D02*
Y1049700D01*
X80300D01*
X238500Y1068666D02*
X237167Y1069999D01*
X234501D01*
X233168Y1068666D01*
Y1067333D01*
X234501Y1066000D01*
X237167D01*
X238500Y1064667D01*
Y1063334D01*
X237167Y1062001D01*
X234501D01*
X233168Y1063334D01*
X241166Y1062001D02*
X243832D01*
X242499D01*
Y1069999D01*
X241166Y1068666D01*
X519585Y1069749D02*
X524917Y1061751D01*
Y1069749D02*
X519585Y1061751D01*
X532915D02*
X527583D01*
X532915Y1067083D01*
Y1068416D01*
X531582Y1069749D01*
X528916D01*
X527583Y1068416D01*
X658418Y1068749D02*
X663750Y1060751D01*
Y1068749D02*
X658418Y1060751D01*
X666416D02*
X669082D01*
X667749D01*
Y1068749D01*
X666416Y1067416D01*
X164587Y953251D02*
Y961249D01*
X168585D01*
X169918Y959916D01*
Y957250D01*
X168585Y955917D01*
X164587D01*
X167253D02*
X169918Y953251D01*
X177916D02*
X172584D01*
X177916Y958583D01*
Y959916D01*
X176583Y961249D01*
X173917D01*
X172584Y959916D01*
X184580Y953251D02*
Y961249D01*
X180582Y957250D01*
X185913D01*
X164837Y988501D02*
Y996499D01*
X168836D01*
X170168Y995166D01*
Y992500D01*
X168836Y991167D01*
X164837D01*
X167503D02*
X170168Y988501D01*
X178166D02*
X172834D01*
X178166Y993833D01*
Y995166D01*
X176833Y996499D01*
X174167D01*
X172834Y995166D01*
X180832D02*
X182164Y996499D01*
X184830D01*
X186163Y995166D01*
Y993833D01*
X184830Y992500D01*
X183497D01*
X184830D01*
X186163Y991167D01*
Y989834D01*
X184830Y988501D01*
X182164D01*
X180832Y989834D01*
X164587Y1024501D02*
Y1032499D01*
X168585D01*
X169918Y1031166D01*
Y1028500D01*
X168585Y1027167D01*
X164587D01*
X167253D02*
X169918Y1024501D01*
X177916D02*
X172584D01*
X177916Y1029833D01*
Y1031166D01*
X176583Y1032499D01*
X173917D01*
X172584Y1031166D01*
X185913Y1024501D02*
X180582D01*
X185913Y1029833D01*
Y1031166D01*
X184580Y1032499D01*
X181915D01*
X180582Y1031166D01*
X376836Y966001D02*
Y973999D01*
X380834D01*
X382167Y972666D01*
Y970000D01*
X380834Y968667D01*
X376836D01*
X379501D02*
X382167Y966001D01*
X384833Y972666D02*
X386166Y973999D01*
X388832D01*
X390164Y972666D01*
Y971333D01*
X388832Y970000D01*
X390164Y968667D01*
Y967334D01*
X388832Y966001D01*
X386166D01*
X384833Y967334D01*
Y968667D01*
X386166Y970000D01*
X384833Y971333D01*
Y972666D01*
X386166Y970000D02*
X388832D01*
X353086Y966251D02*
Y974249D01*
X357084D01*
X358417Y972916D01*
Y970250D01*
X357084Y968917D01*
X353086D01*
X355751D02*
X358417Y966251D01*
X366414Y974249D02*
X361083D01*
Y970250D01*
X363749Y971583D01*
X365082D01*
X366414Y970250D01*
Y967584D01*
X365082Y966251D01*
X362416D01*
X361083Y967584D01*
X447085Y967751D02*
Y975749D01*
X451084D01*
X452417Y974416D01*
Y971750D01*
X451084Y970417D01*
X447085D01*
X449751D02*
X452417Y967751D01*
X455083Y974416D02*
X456416Y975749D01*
X459082D01*
X460415Y974416D01*
Y973083D01*
X459082Y971750D01*
X457749D01*
X459082D01*
X460415Y970417D01*
Y969084D01*
X459082Y967751D01*
X456416D01*
X455083Y969084D01*
X472336Y967251D02*
Y975249D01*
X476334D01*
X477667Y973916D01*
Y971250D01*
X476334Y969917D01*
X472336D01*
X475001D02*
X477667Y967251D01*
X480333Y975249D02*
X485664D01*
Y973916D01*
X480333Y968584D01*
Y967251D01*
X518417Y999666D02*
X517084Y1000999D01*
X514418D01*
X513086Y999666D01*
Y994334D01*
X514418Y993001D01*
X517084D01*
X518417Y994334D01*
X521083Y999666D02*
X522416Y1000999D01*
X525082D01*
X526414Y999666D01*
Y998333D01*
X525082Y997000D01*
X523749D01*
X525082D01*
X526414Y995667D01*
Y994334D01*
X525082Y993001D01*
X522416D01*
X521083Y994334D01*
X519417Y926916D02*
X518084Y928249D01*
X515418D01*
X514086Y926916D01*
Y921584D01*
X515418Y920251D01*
X518084D01*
X519417Y921584D01*
X526082Y920251D02*
Y928249D01*
X522083Y924250D01*
X527415D01*
X38242Y127013D02*
Y119016D01*
X42241D01*
X43574Y120349D01*
Y125681D01*
X42241Y127013D01*
X38242D01*
X51571Y125681D02*
X50238Y127013D01*
X47572D01*
X46239Y125681D01*
Y120349D01*
X47572Y119016D01*
X50238D01*
X51571Y120349D01*
Y123015D01*
X48905D01*
X54237Y119016D02*
X56903D01*
X55570D01*
Y127013D01*
X54237Y125681D01*
X786413Y122251D02*
Y130249D01*
X782414D01*
X781081Y128916D01*
Y123584D01*
X782414Y122251D01*
X786413D01*
X773084Y123584D02*
X774417Y122251D01*
X777083D01*
X778416Y123584D01*
Y128916D01*
X777083Y130249D01*
X774417D01*
X773084Y128916D01*
Y126250D01*
X775750D01*
X765087Y130249D02*
X770418D01*
X765087Y124917D01*
Y123584D01*
X766420Y122251D01*
X769085D01*
X770418Y123584D01*
X783724Y870171D02*
Y864840D01*
X786390Y862174D01*
X789056Y864840D01*
Y870171D01*
X791721D02*
X797053D01*
X794387D01*
Y862174D01*
X805051Y870171D02*
X802385Y868839D01*
X799719Y866173D01*
Y863507D01*
X801052Y862174D01*
X803718D01*
X805051Y863507D01*
Y864840D01*
X803718Y866173D01*
X799719D01*
X703660Y869957D02*
Y864626D01*
X706326Y861960D01*
X708992Y864626D01*
Y869957D01*
X711657D02*
X716989D01*
X714323D01*
Y861960D01*
X724986Y869957D02*
X719655D01*
Y865959D01*
X722321Y867292D01*
X723654D01*
X724986Y865959D01*
Y863293D01*
X723654Y861960D01*
X720988D01*
X719655Y863293D01*
X783748Y734539D02*
Y729208D01*
X786414Y726542D01*
X789080Y729208D01*
Y734539D01*
X791745D02*
X797077D01*
X794411D01*
Y726542D01*
X803742D02*
Y734539D01*
X799743Y730541D01*
X805074D01*
X703676Y734525D02*
Y729194D01*
X706342Y726528D01*
X709008Y729194D01*
Y734525D01*
X711673D02*
X717005D01*
X714339D01*
Y726528D01*
X719671Y733193D02*
X721004Y734525D01*
X723670D01*
X725003Y733193D01*
Y731860D01*
X723670Y730527D01*
X722337D01*
X723670D01*
X725003Y729194D01*
Y727861D01*
X723670Y726528D01*
X721004D01*
X719671Y727861D01*
X783682Y602863D02*
Y597532D01*
X786348Y594866D01*
X789014Y597532D01*
Y602863D01*
X791679D02*
X797011D01*
X794345D01*
Y594866D01*
X805008D02*
X799677D01*
X805008Y600198D01*
Y601530D01*
X803676Y602863D01*
X801010D01*
X799677Y601530D01*
X703722Y602871D02*
Y597540D01*
X706388Y594874D01*
X709054Y597540D01*
Y602871D01*
X711719D02*
X717051D01*
X714385D01*
Y594874D01*
X719717D02*
X722383D01*
X721050D01*
Y602871D01*
X719717Y601539D01*
X177587Y128499D02*
Y123167D01*
X180253Y120501D01*
X182918Y123167D01*
Y128499D01*
X185584D02*
Y120501D01*
X189583D01*
X190916Y121834D01*
Y127166D01*
X189583Y128499D01*
X185584D01*
X198913D02*
X193582D01*
Y124500D01*
X196247Y125833D01*
X197580D01*
X198913Y124500D01*
Y121834D01*
X197580Y120501D01*
X194914D01*
X193582Y121834D01*
X616825Y812999D02*
Y806334D01*
X618158Y805001D01*
X620824D01*
X622157Y806334D01*
Y812999D01*
X630154D02*
X624823D01*
Y809000D01*
X627489Y810333D01*
X628822D01*
X630154Y809000D01*
Y806334D01*
X628822Y805001D01*
X626156D01*
X624823Y806334D01*
X210324Y413022D02*
Y421019D01*
X214323D01*
X215656Y419687D01*
Y417021D01*
X214323Y415688D01*
X210324D01*
X212990D02*
X215656Y413022D01*
X223653Y421019D02*
X218321D01*
Y417021D01*
X220987Y418354D01*
X222320D01*
X223653Y417021D01*
Y414355D01*
X222320Y413022D01*
X219654D01*
X218321Y414355D01*
X231650Y421019D02*
X226319D01*
Y417021D01*
X228985Y418354D01*
X230317D01*
X231650Y417021D01*
Y414355D01*
X230317Y413022D01*
X227652D01*
X226319Y414355D01*
X573249Y870087D02*
X565251D01*
Y874085D01*
X566584Y875418D01*
X569250D01*
X570583Y874085D01*
Y870087D01*
Y872753D02*
X573249Y875418D01*
X565251Y883416D02*
Y878084D01*
X569250D01*
X567917Y880750D01*
Y882083D01*
X569250Y883416D01*
X571916D01*
X573249Y882083D01*
Y879417D01*
X571916Y878084D01*
X573249Y890080D02*
X565251D01*
X569250Y886082D01*
Y891413D01*
X829163Y912499D02*
Y904501D01*
X825164D01*
X823832Y905834D01*
Y908500D01*
X825164Y909833D01*
X829163D01*
X826497D02*
X823832Y912499D01*
X815834Y904501D02*
X821166D01*
Y908500D01*
X818500Y907167D01*
X817167D01*
X815834Y908500D01*
Y911166D01*
X817167Y912499D01*
X819833D01*
X821166Y911166D01*
X813168Y905834D02*
X811835Y904501D01*
X809170D01*
X807837Y905834D01*
Y907167D01*
X809170Y908500D01*
X810503D01*
X809170D01*
X807837Y909833D01*
Y911166D01*
X809170Y912499D01*
X811835D01*
X813168Y911166D01*
X158999Y437337D02*
X151001D01*
Y441335D01*
X152334Y442668D01*
X155000D01*
X156333Y441335D01*
Y437337D01*
Y440003D02*
X158999Y442668D01*
X151001Y450666D02*
Y445334D01*
X155000D01*
X153667Y448000D01*
Y449333D01*
X155000Y450666D01*
X157666D01*
X158999Y449333D01*
Y446667D01*
X157666Y445334D01*
X158999Y458663D02*
Y453332D01*
X153667Y458663D01*
X152334D01*
X151001Y457330D01*
Y454664D01*
X152334Y453332D01*
X835011Y848420D02*
X827013D01*
Y852418D01*
X828346Y853751D01*
X831012D01*
X832345Y852418D01*
Y848420D01*
Y851086D02*
X835011Y853751D01*
X827013Y861749D02*
Y856417D01*
X831012D01*
X829679Y859083D01*
Y860416D01*
X831012Y861749D01*
X833678D01*
X835011Y860416D01*
Y857750D01*
X833678Y856417D01*
X835011Y864415D02*
Y867080D01*
Y865748D01*
X827013D01*
X828346Y864415D01*
X778249Y846587D02*
X770251D01*
Y850585D01*
X771584Y851918D01*
X774250D01*
X775583Y850585D01*
Y846587D01*
Y849253D02*
X778249Y851918D01*
X770251Y859916D02*
Y854584D01*
X774250D01*
X772917Y857250D01*
Y858583D01*
X774250Y859916D01*
X776916D01*
X778249Y858583D01*
Y855917D01*
X776916Y854584D01*
X771584Y862582D02*
X770251Y863915D01*
Y866580D01*
X771584Y867913D01*
X776916D01*
X778249Y866580D01*
Y863915D01*
X776916Y862582D01*
X771584D01*
X304837Y918251D02*
Y926249D01*
X308836D01*
X310168Y924916D01*
Y922250D01*
X308836Y920917D01*
X304837D01*
X307503D02*
X310168Y918251D01*
X316833D02*
Y926249D01*
X312834Y922250D01*
X318166D01*
X320832Y919584D02*
X322164Y918251D01*
X324830D01*
X326163Y919584D01*
Y924916D01*
X324830Y926249D01*
X322164D01*
X320832Y924916D01*
Y923583D01*
X322164Y922250D01*
X326163D01*
X828913Y896499D02*
Y888501D01*
X824914D01*
X823582Y889834D01*
Y892500D01*
X824914Y893833D01*
X828913D01*
X826247D02*
X823582Y896499D01*
X816917D02*
Y888501D01*
X820916Y892500D01*
X815584D01*
X812918Y889834D02*
X811585Y888501D01*
X808920D01*
X807587Y889834D01*
Y891167D01*
X808920Y892500D01*
X807587Y893833D01*
Y895166D01*
X808920Y896499D01*
X811585D01*
X812918Y895166D01*
Y893833D01*
X811585Y892500D01*
X812918Y891167D01*
Y889834D01*
X811585Y892500D02*
X808920D01*
X289124Y589837D02*
X281126D01*
Y593835D01*
X282459Y595168D01*
X285125D01*
X286458Y593835D01*
Y589837D01*
Y592503D02*
X289124Y595168D01*
Y601833D02*
X281126D01*
X285125Y597834D01*
Y603166D01*
X281126Y605832D02*
Y611163D01*
X282459D01*
X287791Y605832D01*
X289124D01*
X277249Y695837D02*
X269251D01*
Y699836D01*
X270584Y701168D01*
X273250D01*
X274583Y699836D01*
Y695837D01*
Y698503D02*
X277249Y701168D01*
Y707833D02*
X269251D01*
X273250Y703834D01*
Y709166D01*
X269251Y717163D02*
X270584Y714498D01*
X273250Y711832D01*
X275916D01*
X277249Y713165D01*
Y715830D01*
X275916Y717163D01*
X274583D01*
X273250Y715830D01*
Y711832D01*
X328016Y413042D02*
Y421039D01*
X332015D01*
X333348Y419706D01*
Y417041D01*
X332015Y415708D01*
X328016D01*
X330682D02*
X333348Y413042D01*
X340012D02*
Y421039D01*
X336013Y417041D01*
X341345D01*
X349342Y421039D02*
X344011D01*
Y417041D01*
X346677Y418374D01*
X348009D01*
X349342Y417041D01*
Y414375D01*
X348009Y413042D01*
X345344D01*
X344011Y414375D01*
X755112Y847069D02*
X747114D01*
Y851068D01*
X748447Y852401D01*
X751113D01*
X752446Y851068D01*
Y847069D01*
Y849735D02*
X755112Y852401D01*
Y859065D02*
X747114D01*
X751113Y855066D01*
Y860398D01*
X755112Y867063D02*
X747114D01*
X751113Y863064D01*
Y868395D01*
X697999Y793587D02*
X690001D01*
Y797586D01*
X691334Y798918D01*
X694000D01*
X695333Y797586D01*
Y793587D01*
Y796253D02*
X697999Y798918D01*
Y805583D02*
X690001D01*
X694000Y801584D01*
Y806916D01*
X691334Y809582D02*
X690001Y810915D01*
Y813580D01*
X691334Y814913D01*
X692667D01*
X694000Y813580D01*
Y812247D01*
Y813580D01*
X695333Y814913D01*
X696666D01*
X697999Y813580D01*
Y810915D01*
X696666Y809582D01*
X278399Y436087D02*
X270401D01*
Y440085D01*
X271734Y441418D01*
X274400D01*
X275733Y440085D01*
Y436087D01*
Y438753D02*
X278399Y441418D01*
Y448083D02*
X270401D01*
X274400Y444084D01*
Y449416D01*
X278399Y457413D02*
Y452082D01*
X273067Y457413D01*
X271734D01*
X270401Y456080D01*
Y453414D01*
X271734Y452082D01*
X179976Y84306D02*
Y92303D01*
X183975D01*
X185308Y90970D01*
Y88305D01*
X183975Y86972D01*
X179976D01*
X182642D02*
X185308Y84306D01*
X191972D02*
Y92303D01*
X187973Y88305D01*
X193305D01*
X195971Y84306D02*
X198637D01*
X197304D01*
Y92303D01*
X195971Y90970D01*
X154624Y591087D02*
X146626D01*
Y595085D01*
X147959Y596418D01*
X150625D01*
X151958Y595085D01*
Y591087D01*
Y593753D02*
X154624Y596418D01*
Y603083D02*
X146626D01*
X150625Y599084D01*
Y604416D01*
X147959Y607082D02*
X146626Y608414D01*
Y611080D01*
X147959Y612413D01*
X153291D01*
X154624Y611080D01*
Y608414D01*
X153291Y607082D01*
X147959D01*
X179749Y699337D02*
X171751D01*
Y703335D01*
X173084Y704668D01*
X175750D01*
X177083Y703335D01*
Y699337D01*
Y702003D02*
X179749Y704668D01*
X173084Y707334D02*
X171751Y708667D01*
Y711333D01*
X173084Y712666D01*
X174417D01*
X175750Y711333D01*
Y710000D01*
Y711333D01*
X177083Y712666D01*
X178416D01*
X179749Y711333D01*
Y708667D01*
X178416Y707334D01*
Y715332D02*
X179749Y716665D01*
Y719330D01*
X178416Y720663D01*
X173084D01*
X171751Y719330D01*
Y716665D01*
X173084Y715332D01*
X174417D01*
X175750Y716665D01*
Y720663D01*
X445704Y413050D02*
Y421047D01*
X449703D01*
X451036Y419715D01*
Y417049D01*
X449703Y415716D01*
X445704D01*
X448370D02*
X451036Y413050D01*
X453701Y419715D02*
X455034Y421047D01*
X457700D01*
X459033Y419715D01*
Y418382D01*
X457700Y417049D01*
X456367D01*
X457700D01*
X459033Y415716D01*
Y414383D01*
X457700Y413050D01*
X455034D01*
X453701Y414383D01*
X461699Y419715D02*
X463032Y421047D01*
X465698D01*
X467030Y419715D01*
Y418382D01*
X465698Y417049D01*
X467030Y415716D01*
Y414383D01*
X465698Y413050D01*
X463032D01*
X461699Y414383D01*
Y415716D01*
X463032Y417049D01*
X461699Y418382D01*
Y419715D01*
X463032Y417049D02*
X465698D01*
X396299Y435337D02*
X388301D01*
Y439336D01*
X389634Y440668D01*
X392300D01*
X393633Y439336D01*
Y435337D01*
Y438003D02*
X396299Y440668D01*
X389634Y443334D02*
X388301Y444667D01*
Y447333D01*
X389634Y448666D01*
X390967D01*
X392300Y447333D01*
Y446000D01*
Y447333D01*
X393633Y448666D01*
X394966D01*
X396299Y447333D01*
Y444667D01*
X394966Y443334D01*
X388301Y451332D02*
Y456663D01*
X389634D01*
X394966Y451332D01*
X396299D01*
X834249Y712337D02*
X826251D01*
Y716336D01*
X827584Y717668D01*
X830250D01*
X831583Y716336D01*
Y712337D01*
Y715003D02*
X834249Y717668D01*
X827584Y720334D02*
X826251Y721667D01*
Y724333D01*
X827584Y725666D01*
X828917D01*
X830250Y724333D01*
Y723000D01*
Y724333D01*
X831583Y725666D01*
X832916D01*
X834249Y724333D01*
Y721667D01*
X832916Y720334D01*
X826251Y733663D02*
X827584Y730997D01*
X830250Y728332D01*
X832916D01*
X834249Y729665D01*
Y732330D01*
X832916Y733663D01*
X831583D01*
X830250Y732330D01*
Y728332D01*
X778249Y711837D02*
X770251D01*
Y715835D01*
X771584Y717168D01*
X774250D01*
X775583Y715835D01*
Y711837D01*
Y714503D02*
X778249Y717168D01*
X771584Y719834D02*
X770251Y721167D01*
Y723833D01*
X771584Y725166D01*
X772917D01*
X774250Y723833D01*
Y722500D01*
Y723833D01*
X775583Y725166D01*
X776916D01*
X778249Y723833D01*
Y721167D01*
X776916Y719834D01*
X770251Y733163D02*
Y727832D01*
X774250D01*
X772917Y730497D01*
Y731830D01*
X774250Y733163D01*
X776916D01*
X778249Y731830D01*
Y729165D01*
X776916Y727832D01*
X563578Y413066D02*
Y421063D01*
X567577D01*
X568910Y419730D01*
Y417065D01*
X567577Y415732D01*
X563578D01*
X566244D02*
X568910Y413066D01*
X571575Y419730D02*
X572908Y421063D01*
X575574D01*
X576907Y419730D01*
Y418398D01*
X575574Y417065D01*
X574241D01*
X575574D01*
X576907Y415732D01*
Y414399D01*
X575574Y413066D01*
X572908D01*
X571575Y414399D01*
X583572Y413066D02*
Y421063D01*
X579573Y417065D01*
X584904D01*
X756249Y712087D02*
X748251D01*
Y716086D01*
X749584Y717418D01*
X752250D01*
X753583Y716086D01*
Y712087D01*
Y714753D02*
X756249Y717418D01*
X749584Y720084D02*
X748251Y721417D01*
Y724083D01*
X749584Y725416D01*
X750917D01*
X752250Y724083D01*
Y722750D01*
Y724083D01*
X753583Y725416D01*
X754916D01*
X756249Y724083D01*
Y721417D01*
X754916Y720084D01*
X749584Y728082D02*
X748251Y729415D01*
Y732080D01*
X749584Y733413D01*
X750917D01*
X752250Y732080D01*
Y730747D01*
Y732080D01*
X753583Y733413D01*
X754916D01*
X756249Y732080D01*
Y729415D01*
X754916Y728082D01*
X697499Y712587D02*
X689501D01*
Y716585D01*
X690834Y717918D01*
X693500D01*
X694833Y716585D01*
Y712587D01*
Y715253D02*
X697499Y717918D01*
X690834Y720584D02*
X689501Y721917D01*
Y724583D01*
X690834Y725916D01*
X692167D01*
X693500Y724583D01*
Y723250D01*
Y724583D01*
X694833Y725916D01*
X696166D01*
X697499Y724583D01*
Y721917D01*
X696166Y720584D01*
X697499Y733913D02*
Y728582D01*
X692167Y733913D01*
X690834D01*
X689501Y732580D01*
Y729914D01*
X690834Y728582D01*
X514949Y435170D02*
X506951D01*
Y439168D01*
X508284Y440501D01*
X510950D01*
X512283Y439168D01*
Y435170D01*
Y437836D02*
X514949Y440501D01*
X508284Y443167D02*
X506951Y444500D01*
Y447166D01*
X508284Y448499D01*
X509617D01*
X510950Y447166D01*
Y445833D01*
Y447166D01*
X512283Y448499D01*
X513616D01*
X514949Y447166D01*
Y444500D01*
X513616Y443167D01*
X514949Y451165D02*
Y453830D01*
Y452497D01*
X506951D01*
X508284Y451165D01*
X681200Y412998D02*
Y420995D01*
X685199D01*
X686532Y419663D01*
Y416997D01*
X685199Y415664D01*
X681200D01*
X683866D02*
X686532Y412998D01*
X694529D02*
X689197D01*
X694529Y418330D01*
Y419663D01*
X693196Y420995D01*
X690530D01*
X689197Y419663D01*
X697195D02*
X698528Y420995D01*
X701193D01*
X702526Y419663D01*
Y418330D01*
X701193Y416997D01*
X702526Y415664D01*
Y414331D01*
X701193Y412998D01*
X698528D01*
X697195Y414331D01*
Y415664D01*
X698528Y416997D01*
X697195Y418330D01*
Y419663D01*
X698528Y416997D02*
X701193D01*
X633849Y435837D02*
X625851D01*
Y439836D01*
X627184Y441168D01*
X629850D01*
X631183Y439836D01*
Y435837D01*
Y438503D02*
X633849Y441168D01*
Y449166D02*
Y443834D01*
X628517Y449166D01*
X627184D01*
X625851Y447833D01*
Y445167D01*
X627184Y443834D01*
X625851Y451832D02*
Y457163D01*
X627184D01*
X632516Y451832D01*
X633849D01*
X835249Y579337D02*
X827251D01*
Y583335D01*
X828584Y584668D01*
X831250D01*
X832583Y583335D01*
Y579337D01*
Y582002D02*
X835249Y584668D01*
Y592666D02*
Y587334D01*
X829917Y592666D01*
X828584D01*
X827251Y591333D01*
Y588667D01*
X828584Y587334D01*
X827251Y600663D02*
X828584Y597997D01*
X831250Y595332D01*
X833916D01*
X835249Y596665D01*
Y599330D01*
X833916Y600663D01*
X832583D01*
X831250Y599330D01*
Y595332D01*
X776999Y582837D02*
X769001D01*
Y586836D01*
X770334Y588168D01*
X773000D01*
X774333Y586836D01*
Y582837D01*
Y585503D02*
X776999Y588168D01*
Y596166D02*
Y590834D01*
X771667Y596166D01*
X770334D01*
X769001Y594833D01*
Y592167D01*
X770334Y590834D01*
X769001Y604163D02*
Y598832D01*
X773000D01*
X771667Y601497D01*
Y602830D01*
X773000Y604163D01*
X775666D01*
X776999Y602830D01*
Y600165D01*
X775666Y598832D01*
X166420Y1056501D02*
Y1064499D01*
X170418D01*
X171751Y1063166D01*
Y1060500D01*
X170418Y1059167D01*
X166420D01*
X169086D02*
X171751Y1056501D01*
X179749D02*
X174417D01*
X179749Y1061833D01*
Y1063166D01*
X178416Y1064499D01*
X175750D01*
X174417Y1063166D01*
X182414Y1056501D02*
X185080D01*
X183747D01*
Y1064499D01*
X182414Y1063166D01*
X798910Y412998D02*
Y420995D01*
X802909D01*
X804241Y419663D01*
Y416997D01*
X802909Y415664D01*
X798910D01*
X801576D02*
X804241Y412998D01*
X812239D02*
X806907D01*
X812239Y418330D01*
Y419663D01*
X810906Y420995D01*
X808240D01*
X806907Y419663D01*
X814905D02*
X816238Y420995D01*
X818904D01*
X820236Y419663D01*
Y414331D01*
X818904Y412998D01*
X816238D01*
X814905Y414331D01*
Y419663D01*
X754499Y580753D02*
X746501D01*
Y584752D01*
X747834Y586085D01*
X750500D01*
X751833Y584752D01*
Y580753D01*
Y583419D02*
X754499Y586085D01*
Y588751D02*
Y591417D01*
Y590084D01*
X746501D01*
X747834Y588751D01*
X753166Y595415D02*
X754499Y596748D01*
Y599414D01*
X753166Y600747D01*
X747834D01*
X746501Y599414D01*
Y596748D01*
X747834Y595415D01*
X749167D01*
X750500Y596748D01*
Y600747D01*
X697999Y580253D02*
X690001D01*
Y584252D01*
X691334Y585585D01*
X694000D01*
X695333Y584252D01*
Y580253D01*
Y582919D02*
X697999Y585585D01*
Y588251D02*
Y590916D01*
Y589584D01*
X690001D01*
X691334Y588251D01*
Y594915D02*
X690001Y596248D01*
Y598914D01*
X691334Y600247D01*
X692667D01*
X694000Y598914D01*
X695333Y600247D01*
X696666D01*
X697999Y598914D01*
Y596248D01*
X696666Y594915D01*
X695333D01*
X694000Y596248D01*
X692667Y594915D01*
X691334D01*
X694000Y596248D02*
Y598914D01*
X303336Y957070D02*
Y965067D01*
X307335D01*
X308668Y963735D01*
Y961069D01*
X307335Y959736D01*
X303336D01*
X306002D02*
X308668Y957070D01*
X311333D02*
X313999D01*
X312666D01*
Y965067D01*
X311333Y963735D01*
X317998Y965067D02*
X323330D01*
Y963735D01*
X317998Y958403D01*
Y957070D01*
X303148Y992562D02*
Y1000560D01*
X307147D01*
X308480Y999227D01*
Y996561D01*
X307147Y995228D01*
X303148D01*
X305814D02*
X308480Y992562D01*
X311145D02*
X313811D01*
X312478D01*
Y1000560D01*
X311145Y999227D01*
X323142Y1000560D02*
X320476Y999227D01*
X317810Y996561D01*
Y993895D01*
X319143Y992562D01*
X321809D01*
X323142Y993895D01*
Y995228D01*
X321809Y996561D01*
X317810D01*
X303003Y1026251D02*
Y1034249D01*
X307002D01*
X308335Y1032916D01*
Y1030250D01*
X307002Y1028917D01*
X303003D01*
X305669D02*
X308335Y1026251D01*
X311001D02*
X313666D01*
X312334D01*
Y1034249D01*
X311001Y1032916D01*
X322997Y1034249D02*
X317665D01*
Y1030250D01*
X320331Y1031583D01*
X321664D01*
X322997Y1030250D01*
Y1027584D01*
X321664Y1026251D01*
X318998D01*
X317665Y1027584D01*
X303003Y1057351D02*
Y1065349D01*
X307002D01*
X308335Y1064016D01*
Y1061350D01*
X307002Y1060017D01*
X303003D01*
X305669D02*
X308335Y1057351D01*
X311001D02*
X313666D01*
X312334D01*
Y1065349D01*
X311001Y1064016D01*
X321664Y1057351D02*
Y1065349D01*
X317665Y1061350D01*
X322997D01*
X753249Y437003D02*
X745251D01*
Y441002D01*
X746584Y442335D01*
X749250D01*
X750583Y441002D01*
Y437003D01*
Y439669D02*
X753249Y442335D01*
Y445001D02*
Y447666D01*
Y446334D01*
X745251D01*
X746584Y445001D01*
Y451665D02*
X745251Y452998D01*
Y455664D01*
X746584Y456997D01*
X747917D01*
X749250Y455664D01*
Y454331D01*
Y455664D01*
X750583Y456997D01*
X751916D01*
X753249Y455664D01*
Y452998D01*
X751916Y451665D01*
X553249Y862336D02*
X545251D01*
Y866334D01*
X546584Y867667D01*
X549250D01*
X550583Y866334D01*
Y862336D01*
Y865001D02*
X553249Y867667D01*
X545251Y875665D02*
X546584Y872999D01*
X549250Y870333D01*
X551916D01*
X553249Y871666D01*
Y874332D01*
X551916Y875665D01*
X550583D01*
X549250Y874332D01*
Y870333D01*
X637836Y908251D02*
Y916249D01*
X641834D01*
X643167Y914916D01*
Y912250D01*
X641834Y910917D01*
X637836D01*
X640501D02*
X643167Y908251D01*
X649832D02*
Y916249D01*
X645833Y912250D01*
X651164D01*
X624749Y1003085D02*
X616751D01*
Y1007084D01*
X618084Y1008417D01*
X620750D01*
X622083Y1007084D01*
Y1003085D01*
Y1005751D02*
X624749Y1008417D01*
Y1016414D02*
Y1011083D01*
X619417Y1016414D01*
X618084D01*
X616751Y1015082D01*
Y1012416D01*
X618084Y1011083D01*
X739501Y995332D02*
X747499D01*
Y991333D01*
X746166Y990000D01*
X743500D01*
X742167Y991333D01*
Y995332D01*
Y992666D02*
X739501Y990000D01*
Y987334D02*
Y984668D01*
Y986001D01*
X747499D01*
X746166Y987334D01*
X166378Y481791D02*
Y473794D01*
X170377D01*
X171710Y475127D01*
Y480458D01*
X170377Y481791D01*
X166378D01*
X174375Y473794D02*
X177041D01*
X175708D01*
Y481791D01*
X174375Y480458D01*
X185039Y473794D02*
Y481791D01*
X181040Y477793D01*
X186372D01*
X285018Y481773D02*
Y473776D01*
X289017D01*
X290350Y475109D01*
Y480440D01*
X289017Y481773D01*
X285018D01*
X293015Y473776D02*
X295681D01*
X294348D01*
Y481773D01*
X293015Y480440D01*
X299680Y473776D02*
X302346D01*
X301013D01*
Y481773D01*
X299680Y480440D01*
X403618Y481783D02*
Y473786D01*
X407617D01*
X408950Y475119D01*
Y480451D01*
X407617Y481783D01*
X403618D01*
X411615Y480451D02*
X412948Y481783D01*
X415614D01*
X416947Y480451D01*
Y479118D01*
X415614Y477785D01*
X416947Y476452D01*
Y475119D01*
X415614Y473786D01*
X412948D01*
X411615Y475119D01*
Y476452D01*
X412948Y477785D01*
X411615Y479118D01*
Y480451D01*
X412948Y477785D02*
X415614D01*
X522414Y481839D02*
Y473842D01*
X526413D01*
X527746Y475175D01*
Y480507D01*
X526413Y481839D01*
X522414D01*
X535743D02*
X533077Y480507D01*
X530411Y477841D01*
Y475175D01*
X531744Y473842D01*
X534410D01*
X535743Y475175D01*
Y476508D01*
X534410Y477841D01*
X530411D01*
X640912Y481789D02*
Y473792D01*
X644911D01*
X646244Y475125D01*
Y480457D01*
X644911Y481789D01*
X640912D01*
X652908Y473792D02*
Y481789D01*
X648909Y477791D01*
X654241D01*
X759634Y481781D02*
Y473784D01*
X763633D01*
X764966Y475117D01*
Y480448D01*
X763633Y481781D01*
X759634D01*
X772963Y473784D02*
X767631D01*
X772963Y479116D01*
Y480448D01*
X771630Y481781D01*
X768964D01*
X767631Y480448D01*
X465251Y755666D02*
X463918Y756999D01*
X461253D01*
X459920Y755666D01*
Y750334D01*
X461253Y749001D01*
X463918D01*
X465251Y750334D01*
X473249Y749001D02*
X467917D01*
X473249Y754333D01*
Y755666D01*
X471916Y756999D01*
X469250D01*
X467917Y755666D01*
X475914Y749001D02*
X478580D01*
X477247D01*
Y756999D01*
X475914Y755666D01*
X74335Y360916D02*
X73002Y362249D01*
X70336D01*
X69003Y360916D01*
Y355584D01*
X70336Y354251D01*
X73002D01*
X74335Y355584D01*
X77001Y354251D02*
X79666D01*
X78334D01*
Y362249D01*
X77001Y360916D01*
X83665Y355584D02*
X84998Y354251D01*
X87664D01*
X88997Y355584D01*
Y360916D01*
X87664Y362249D01*
X84998D01*
X83665Y360916D01*
Y359583D01*
X84998Y358250D01*
X88997D01*
X819834Y502085D02*
X818501Y500752D01*
Y498086D01*
X819834Y496753D01*
X825166D01*
X826499Y498086D01*
Y500752D01*
X825166Y502085D01*
X826499Y504751D02*
Y507416D01*
Y506083D01*
X818501D01*
X819834Y504751D01*
X818501Y511415D02*
Y516747D01*
X819834D01*
X825166Y511415D01*
X826499D01*
X201665Y858834D02*
X202998Y857501D01*
X205664D01*
X206997Y858834D01*
Y864166D01*
X205664Y865499D01*
X202998D01*
X201665Y864166D01*
X198999Y865499D02*
X196334D01*
X197666D01*
Y857501D01*
X198999Y858834D01*
X187003Y857501D02*
X192335D01*
Y861500D01*
X189669Y860167D01*
X188336D01*
X187003Y861500D01*
Y864166D01*
X188336Y865499D01*
X191002D01*
X192335Y864166D01*
X84916Y558165D02*
X86249Y559498D01*
Y562164D01*
X84916Y563497D01*
X79584D01*
X78251Y562164D01*
Y559498D01*
X79584Y558165D01*
X78251Y555499D02*
Y552834D01*
Y554166D01*
X86249D01*
X84916Y555499D01*
X78251Y543503D02*
Y548835D01*
X83583Y543503D01*
X84916D01*
X86249Y544836D01*
Y547502D01*
X84916Y548835D01*
X514668Y842666D02*
X513335Y843999D01*
X510669D01*
X509336Y842666D01*
Y837334D01*
X510669Y836001D01*
X513335D01*
X514668Y837334D01*
X517334Y836001D02*
X519999D01*
X518666D01*
Y843999D01*
X517334Y842666D01*
X523998Y836001D02*
X526664D01*
X525331D01*
Y843999D01*
X523998Y842666D01*
X819584Y772085D02*
X818251Y770752D01*
Y768086D01*
X819584Y766753D01*
X824916D01*
X826249Y768086D01*
Y770752D01*
X824916Y772085D01*
X826249Y774751D02*
Y777417D01*
Y776084D01*
X818251D01*
X819584Y774751D01*
Y781415D02*
X818251Y782748D01*
Y785414D01*
X819584Y786747D01*
X824916D01*
X826249Y785414D01*
Y782748D01*
X824916Y781415D01*
X819584D01*
X818334Y641917D02*
X817001Y640584D01*
Y637918D01*
X818334Y636586D01*
X823666D01*
X824999Y637918D01*
Y640584D01*
X823666Y641917D01*
X818334Y644583D02*
X817001Y645916D01*
Y648582D01*
X818334Y649914D01*
X819667D01*
X821000Y648582D01*
X822333Y649914D01*
X823666D01*
X824999Y648582D01*
Y645916D01*
X823666Y644583D01*
X822333D01*
X821000Y645916D01*
X819667Y644583D01*
X818334D01*
X821000Y645916D02*
Y648582D01*
X740916Y1053833D02*
X742249Y1055166D01*
Y1057832D01*
X740916Y1059165D01*
X735584D01*
X734251Y1057832D01*
Y1055166D01*
X735584Y1053833D01*
X742249Y1045835D02*
X740916Y1048501D01*
X738250Y1051167D01*
X735584D01*
X734251Y1049834D01*
Y1047168D01*
X735584Y1045835D01*
X736917D01*
X738250Y1047168D01*
Y1051167D01*
X540167Y1012666D02*
X538834Y1013999D01*
X536168D01*
X534836Y1012666D01*
Y1007334D01*
X536168Y1006001D01*
X538834D01*
X540167Y1007334D01*
X548164Y1013999D02*
X542833D01*
Y1010000D01*
X545499Y1011333D01*
X546832D01*
X548164Y1010000D01*
Y1007334D01*
X546832Y1006001D01*
X544166D01*
X542833Y1007334D01*
X644417Y876166D02*
X643084Y877499D01*
X640418D01*
X639086Y876166D01*
Y870834D01*
X640418Y869501D01*
X643084D01*
X644417Y870834D01*
X652414Y869501D02*
X647083D01*
X652414Y874833D01*
Y876166D01*
X651082Y877499D01*
X648416D01*
X647083Y876166D01*
X655500Y1014416D02*
X654167Y1015749D01*
X651501D01*
X650168Y1014416D01*
Y1009084D01*
X651501Y1007751D01*
X654167D01*
X655500Y1009084D01*
X658166Y1007751D02*
X660832D01*
X659499D01*
Y1015749D01*
X658166Y1014416D01*
X737501Y912668D02*
X744166D01*
X745499Y914001D01*
Y916667D01*
X744166Y918000D01*
X737501D01*
X745499Y920666D02*
Y923332D01*
Y921999D01*
X737501D01*
X738834Y920666D01*
X619826Y546249D02*
Y539584D01*
X621158Y538251D01*
X623824D01*
X625157Y539584D01*
Y546249D01*
X627823Y544916D02*
X629156Y546249D01*
X631822D01*
X633154Y544916D01*
Y543583D01*
X631822Y542250D01*
X630489D01*
X631822D01*
X633154Y540917D01*
Y539584D01*
X631822Y538251D01*
X629156D01*
X627823Y539584D01*
X206417Y257084D02*
Y262416D01*
X205084Y263749D01*
X202418D01*
X201085Y262416D01*
Y257084D01*
X202418Y255751D01*
X205084D01*
X203751Y258417D02*
X206417Y255751D01*
X205084D02*
X206417Y257084D01*
X214415Y263749D02*
X211749Y262416D01*
X209083Y259750D01*
Y257084D01*
X210416Y255751D01*
X213082D01*
X214415Y257084D01*
Y258417D01*
X213082Y259750D01*
X209083D01*
X322167Y253584D02*
Y258916D01*
X320834Y260249D01*
X318168D01*
X316835Y258916D01*
Y253584D01*
X318168Y252251D01*
X320834D01*
X319501Y254917D02*
X322167Y252251D01*
X320834D02*
X322167Y253584D01*
X330164Y260249D02*
X324833D01*
Y256250D01*
X327499Y257583D01*
X328832D01*
X330164Y256250D01*
Y253584D01*
X328832Y252251D01*
X326166D01*
X324833Y253584D01*
X437417Y249834D02*
Y255166D01*
X436084Y256499D01*
X433418D01*
X432085Y255166D01*
Y249834D01*
X433418Y248501D01*
X436084D01*
X434751Y251167D02*
X437417Y248501D01*
X436084D02*
X437417Y249834D01*
X444082Y248501D02*
Y256499D01*
X440083Y252500D01*
X445415D01*
X553917Y250334D02*
Y255666D01*
X552584Y256999D01*
X549918D01*
X548586Y255666D01*
Y250334D01*
X549918Y249001D01*
X552584D01*
X551251Y251667D02*
X553917Y249001D01*
X552584D02*
X553917Y250334D01*
X556583Y255666D02*
X557916Y256999D01*
X560582D01*
X561914Y255666D01*
Y254333D01*
X560582Y253000D01*
X559249D01*
X560582D01*
X561914Y251667D01*
Y250334D01*
X560582Y249001D01*
X557916D01*
X556583Y250334D01*
X679417Y254084D02*
Y259416D01*
X678084Y260749D01*
X675418D01*
X674085Y259416D01*
Y254084D01*
X675418Y252751D01*
X678084D01*
X676751Y255417D02*
X679417Y252751D01*
X678084D02*
X679417Y254084D01*
X687414Y252751D02*
X682083D01*
X687414Y258083D01*
Y259416D01*
X686082Y260749D01*
X683416D01*
X682083Y259416D01*
X801750Y249334D02*
Y254666D01*
X800417Y255999D01*
X797751D01*
X796418Y254666D01*
Y249334D01*
X797751Y248001D01*
X800417D01*
X799084Y250667D02*
X801750Y248001D01*
X800417D02*
X801750Y249334D01*
X804416Y248001D02*
X807082D01*
X805749D01*
Y255999D01*
X804416Y254666D01*
X338501Y815335D02*
X346499D01*
Y820667D01*
Y828664D02*
Y823333D01*
X341167Y828664D01*
X339834D01*
X338501Y827332D01*
Y824666D01*
X339834Y823333D01*
X87749Y734582D02*
X79751D01*
Y729250D01*
Y726584D02*
Y723918D01*
Y725251D01*
X87749D01*
X86416Y726584D01*
X282751Y499837D02*
X290749D01*
Y503835D01*
X289416Y505168D01*
X284084D01*
X282751Y503835D01*
Y499837D01*
Y507834D02*
X290749D01*
Y511833D01*
X289416Y513166D01*
X284084D01*
X282751Y511833D01*
Y507834D01*
X290749Y521163D02*
Y515832D01*
X285417Y521163D01*
X284084D01*
X282751Y519830D01*
Y517164D01*
X284084Y515832D01*
X406751Y499920D02*
X414749D01*
Y503918D01*
X413416Y505251D01*
X408084D01*
X406751Y503918D01*
Y499920D01*
Y507917D02*
X414749D01*
Y511916D01*
X413416Y513249D01*
X408084D01*
X406751Y511916D01*
Y507917D01*
X414749Y515914D02*
Y518580D01*
Y517248D01*
X406751D01*
X408084Y515914D01*
X346249Y719247D02*
X338251D01*
Y715248D01*
X339584Y713915D01*
X344916D01*
X346249Y715248D01*
Y719247D01*
X338251Y711249D02*
Y708584D01*
Y709917D01*
X346249D01*
X344916Y711249D01*
X338251Y699253D02*
Y704585D01*
X343583Y699253D01*
X344916D01*
X346249Y700586D01*
Y703252D01*
X344916Y704585D01*
X228414Y713001D02*
Y720999D01*
X224416D01*
X223083Y719666D01*
Y714334D01*
X224416Y713001D01*
X228414D01*
X220417Y719666D02*
X219084Y720999D01*
X216418D01*
X215085Y719666D01*
Y714334D01*
X216418Y713001D01*
X219084D01*
X220417Y714334D01*
Y715667D01*
X219084Y717000D01*
X215085D01*
X144416Y182665D02*
X145749Y183998D01*
Y186664D01*
X144416Y187997D01*
X139084D01*
X137751Y186664D01*
Y183998D01*
X139084Y182665D01*
X137751Y179999D02*
Y177334D01*
Y178666D01*
X145749D01*
X144416Y179999D01*
Y173335D02*
X145749Y172002D01*
Y169336D01*
X144416Y168003D01*
X143083D01*
X141750Y169336D01*
Y170669D01*
Y169336D01*
X140417Y168003D01*
X139084D01*
X137751Y169336D01*
Y172002D01*
X139084Y173335D01*
X109086Y910999D02*
X114417Y903001D01*
Y910999D02*
X109086Y903001D01*
X121082D02*
Y910999D01*
X117083Y907000D01*
X122415D01*
X823836Y1064749D02*
X829167Y1056751D01*
Y1064749D02*
X823836Y1056751D01*
X831833Y1063416D02*
X833166Y1064749D01*
X835832D01*
X837165Y1063416D01*
Y1062083D01*
X835832Y1060750D01*
X834499D01*
X835832D01*
X837165Y1059417D01*
Y1058084D01*
X835832Y1056751D01*
X833166D01*
X831833Y1058084D01*
X618825Y675249D02*
Y668584D01*
X620158Y667251D01*
X622824D01*
X624157Y668584D01*
Y675249D01*
X630822Y667251D02*
Y675249D01*
X626823Y671250D01*
X632155D01*
X620001Y915335D02*
X626666D01*
X627999Y916668D01*
Y919334D01*
X626666Y920667D01*
X620001D01*
X627999Y928664D02*
Y923333D01*
X622667Y928664D01*
X621334D01*
X620001Y927332D01*
Y924666D01*
X621334Y923333D01*
X446920Y874499D02*
Y869167D01*
X449585Y866501D01*
X452251Y869167D01*
Y874499D01*
X454917Y866501D02*
Y874499D01*
X458916D01*
X460249Y873166D01*
Y870500D01*
X458916Y869167D01*
X454917D01*
X457583D02*
X460249Y866501D01*
X462915D02*
X465580D01*
X464247D01*
Y874499D01*
X462915Y873166D01*
X76584Y431335D02*
X75251Y430002D01*
Y427336D01*
X76584Y426003D01*
X81916D01*
X83249Y427336D01*
Y430002D01*
X81916Y431335D01*
X83249Y434001D02*
Y436666D01*
Y435334D01*
X75251D01*
X76584Y434001D01*
Y440665D02*
X75251Y441998D01*
Y444664D01*
X76584Y445997D01*
X77917D01*
X79250Y444664D01*
X80583Y445997D01*
X81916D01*
X83249Y444664D01*
Y441998D01*
X81916Y440665D01*
X80583D01*
X79250Y441998D01*
X77917Y440665D01*
X76584D01*
X79250Y441998D02*
Y444664D01*
X68085Y861666D02*
X66752Y862999D01*
X64086D01*
X62753Y861666D01*
Y856334D01*
X64086Y855001D01*
X66752D01*
X68085Y856334D01*
X70751Y855001D02*
X73416D01*
X72084D01*
Y862999D01*
X70751Y861666D01*
X81414Y855001D02*
Y862999D01*
X77415Y859000D01*
X82747D01*
X474082Y595584D02*
X475414Y594251D01*
X478080D01*
X479413Y595584D01*
Y600916D01*
X478080Y602249D01*
X475414D01*
X474082Y600916D01*
X466084Y602249D02*
X471416D01*
X466084Y596917D01*
Y595584D01*
X467417Y594251D01*
X470083D01*
X471416Y595584D01*
X463418D02*
X462085Y594251D01*
X459420D01*
X458087Y595584D01*
Y600916D01*
X459420Y602249D01*
X462085D01*
X463418Y600916D01*
Y595584D01*
D13*
X536404Y970488D02*
G03*
X536300Y986400I-12168J7877D01*
G01*
X505295Y986513D02*
G03*
X505400Y970600I12168J-7877D01*
G01*
X536404Y935987D02*
G03*
X536300Y951900I-12168J7877D01*
G01*
X505295Y952012D02*
G03*
X505400Y936100I12168J-7877D01*
G01*
X692405Y866738D02*
G03*
X692300Y882650I-12168J7877D01*
G01*
X661295Y882763D02*
G03*
X661400Y866850I12168J-7877D01*
G01*
X700655Y1003737D02*
G03*
X700550Y1019650I-12168J7877D01*
G01*
X669546Y1019762D02*
G03*
X669650Y1003850I12168J-7877D01*
G01*
X558596Y1018262D02*
G03*
X558700Y1002350I12168J-7877D01*
G01*
X589705Y1002237D02*
G03*
X589600Y1018150I-12168J7877D01*
G01*
X747513Y1036655D02*
G03*
X731600Y1036550I-7877J-12168D01*
G01*
X731488Y1005546D02*
G03*
X747400Y1005650I7877J12168D01*
G01*
X505500Y986500D02*
X536250D01*
X505500Y970500D02*
X536250D01*
X522400Y975800D02*
Y981100D01*
X519600Y975800D02*
Y981100D01*
X505500Y952000D02*
X536250D01*
X505500Y936000D02*
X536250D01*
X522400Y941300D02*
Y946600D01*
X519600Y941300D02*
Y946600D01*
X661500Y882750D02*
X692250D01*
X661500Y866750D02*
X692250D01*
X678400Y872050D02*
Y877350D01*
X675600Y872050D02*
Y877350D01*
X669750Y1019750D02*
X700500D01*
X669750Y1003750D02*
X700500D01*
X686650Y1009050D02*
Y1014350D01*
X683850Y1009050D02*
Y1014350D01*
X558750Y1002250D02*
X589500D01*
X558750Y1018250D02*
X589500D01*
X572600Y1007650D02*
Y1012950D01*
X575400Y1007650D02*
Y1012950D01*
X731500Y1005750D02*
Y1036500D01*
X747500Y1005750D02*
Y1036500D01*
X736900Y1022650D02*
X742200D01*
X736900Y1019850D02*
X742200D01*
X281750Y660500D02*
Y691250D01*
X265750D02*
X281750D01*
X265750Y660500D02*
Y691250D01*
Y660500D02*
X281750D01*
X271500Y673750D02*
X275750D01*
X271500D02*
Y677750D01*
X275750D01*
Y673750D02*
Y677750D01*
X277125Y618250D02*
Y649000D01*
Y618250D02*
X293125D01*
Y649000D01*
X277125D02*
X293125D01*
X283125Y635750D02*
X287375D01*
Y631750D02*
Y635750D01*
X283125Y631750D02*
X287375D01*
X283125D02*
Y635750D01*
X142625Y618250D02*
Y649000D01*
Y618250D02*
X158625D01*
Y649000D01*
X142625D02*
X158625D01*
X148625Y635750D02*
X152875D01*
Y631750D02*
Y635750D01*
X148625Y631750D02*
X152875D01*
X148625D02*
Y635750D01*
X184000Y660500D02*
Y691250D01*
X168000D02*
X184000D01*
X168000Y660500D02*
Y691250D01*
Y660500D02*
X184000D01*
X173750Y673750D02*
X178000D01*
X173750D02*
Y677750D01*
X178000D01*
Y673750D02*
Y677750D01*
X784500Y798160D02*
X796500D01*
Y794160D02*
Y798160D01*
X784500Y754160D02*
X796500D01*
Y758160D01*
X722500Y798160D02*
X729500D01*
X722500Y794160D02*
Y798160D01*
Y754160D02*
X729500D01*
X722500D02*
Y758160D01*
X784500Y664660D02*
X796500D01*
Y660660D02*
Y664660D01*
X784500Y620660D02*
X796500D01*
Y624660D01*
X722500Y664660D02*
X729500D01*
X722500Y660660D02*
Y664660D01*
Y620660D02*
X729500D01*
X722500D02*
Y624660D01*
X784500Y533160D02*
X796500D01*
Y529160D02*
Y533160D01*
X784500Y489160D02*
X796500D01*
Y493160D01*
X722500Y533160D02*
X729500D01*
X722500Y529160D02*
Y533160D01*
Y489160D02*
X729500D01*
X722500D02*
Y493160D01*
X146500Y399750D02*
Y430500D01*
Y399750D02*
X162500D01*
Y430500D01*
X146500D02*
X162500D01*
X152500Y417250D02*
X156750D01*
Y413250D02*
Y417250D01*
X152500Y413250D02*
X156750D01*
X152500D02*
Y417250D01*
X265400Y399750D02*
Y430500D01*
Y399750D02*
X281400D01*
Y430500D01*
X265400D02*
X281400D01*
X271400Y417250D02*
X275650D01*
Y413250D02*
Y417250D01*
X271400Y413250D02*
X275650D01*
X271400D02*
Y417250D01*
X384300Y399750D02*
Y430500D01*
Y399750D02*
X400300D01*
Y430500D01*
X384300D02*
X400300D01*
X390300Y417250D02*
X394550D01*
Y413250D02*
Y417250D01*
X390300Y413250D02*
X394550D01*
X390300D02*
Y417250D01*
X503200Y399750D02*
Y430500D01*
Y399750D02*
X519200D01*
Y430500D01*
X503200D02*
X519200D01*
X509200Y417250D02*
X513450D01*
Y413250D02*
Y417250D01*
X509200Y413250D02*
X513450D01*
X509200D02*
Y417250D01*
X622100Y399750D02*
Y430500D01*
Y399750D02*
X638100D01*
Y430500D01*
X622100D02*
X638100D01*
X628100Y417250D02*
X632350D01*
Y413250D02*
Y417250D01*
X628100Y413250D02*
X632350D01*
X628100D02*
Y417250D01*
X741000Y399750D02*
Y430500D01*
Y399750D02*
X757000D01*
Y430500D01*
X741000D02*
X757000D01*
X747000Y417250D02*
X751250D01*
Y413250D02*
Y417250D01*
X747000Y413250D02*
X751250D01*
X747000D02*
Y417250D01*
X811000Y395250D02*
X815000D01*
Y399500D01*
X811000D02*
X815000D01*
X811000Y395250D02*
Y399500D01*
X797750Y389250D02*
Y405250D01*
X828500D01*
Y389250D02*
Y405250D01*
X797750Y389250D02*
X828500D01*
X693250Y395250D02*
X697250D01*
Y399500D01*
X693250D02*
X697250D01*
X693250Y395250D02*
Y399500D01*
X680000Y389250D02*
Y405250D01*
X710750D01*
Y389250D02*
Y405250D01*
X680000Y389250D02*
X710750D01*
X575500Y395250D02*
X579500D01*
Y399500D01*
X575500D02*
X579500D01*
X575500Y395250D02*
Y399500D01*
X562250Y389250D02*
Y405250D01*
X593000D01*
Y389250D02*
Y405250D01*
X562250Y389250D02*
X593000D01*
X457750Y395250D02*
X461750D01*
Y399500D01*
X457750D02*
X461750D01*
X457750Y395250D02*
Y399500D01*
X444500Y389250D02*
Y405250D01*
X475250D01*
Y389250D02*
Y405250D01*
X444500Y389250D02*
X475250D01*
X340000Y395250D02*
X344000D01*
Y399500D01*
X340000D02*
X344000D01*
X340000Y395250D02*
Y399500D01*
X326750Y389250D02*
Y405250D01*
X357500D01*
Y389250D02*
Y405250D01*
X326750Y389250D02*
X357500D01*
X222250Y395250D02*
X226250D01*
Y399500D01*
X222250D02*
X226250D01*
X222250Y395250D02*
Y399500D01*
X209000Y389250D02*
Y405250D01*
X239750D01*
Y389250D02*
Y405250D01*
X209000Y389250D02*
X239750D01*
D14*
X387930Y683330D02*
G03*
X387930Y683330I-1500J0D01*
G01*
X200080Y675820D02*
G03*
X200080Y675820I-1500J0D01*
G01*
D15*
X619192Y594828D02*
G03*
X625288Y594828I3048J0D01*
G01*
X619192Y859828D02*
G03*
X625288Y859828I3048J0D01*
G01*
X619192Y726328D02*
G03*
X625288Y726328I3048J0D01*
G01*
X409250Y758500D02*
Y888500D01*
X279250Y758500D02*
Y888500D01*
X584140Y592796D02*
Y594828D01*
X619192D01*
X625288D01*
X660340D01*
Y489672D02*
Y491704D01*
X584140Y489672D02*
X660340D01*
X584140D02*
Y491704D01*
X660340Y592796D02*
Y594828D01*
Y857796D02*
Y859828D01*
X584140Y754672D02*
Y756704D01*
Y754672D02*
X660340D01*
Y756704D01*
X625288Y859828D02*
X660340D01*
X619192D02*
X625288D01*
X584140D02*
X619192D01*
X584140Y857796D02*
Y859828D01*
X18000Y792000D02*
X148000D01*
X18000Y662000D02*
X148000D01*
X660340Y724296D02*
Y726328D01*
X584140Y621172D02*
Y623204D01*
Y621172D02*
X660340D01*
Y623204D01*
X625288Y726328D02*
X660340D01*
X619192D02*
X625288D01*
X584140D02*
X619192D01*
X584140Y724296D02*
Y726328D01*
D16*
X36750Y38340D02*
X114130D01*
Y111300D01*
X36750D02*
X114130D01*
X36750Y38340D02*
Y111300D01*
X227750Y38340D02*
Y111300D01*
X795350D01*
Y38340D02*
Y111300D01*
X227750Y38340D02*
X795350Y38340D01*
X733500Y928750D02*
Y973750D01*
X667500Y928750D02*
Y973750D01*
X308950Y680800D02*
X377550D01*
X308950Y739200D02*
X377550D01*
X25750Y291750D02*
X43750Y273750D01*
X128750D01*
X43750Y376750D02*
X128750D01*
X25750Y358750D02*
X43750Y376750D01*
X25750Y340950D02*
Y358750D01*
Y291750D02*
Y309550D01*
X128750Y340950D02*
Y376750D01*
Y273750D02*
Y309550D01*
X29500Y517250D02*
X47500Y499250D01*
X132500D01*
X47500Y602250D02*
X132500D01*
X29500Y584250D02*
X47500Y602250D01*
X29500Y566450D02*
Y584250D01*
Y517250D02*
Y535050D01*
X132500Y566450D02*
Y602250D01*
Y499250D02*
Y535050D01*
X420250Y789000D02*
X438250Y807000D01*
X420250Y704000D02*
Y789000D01*
X523250Y704000D02*
Y789000D01*
X505250Y807000D02*
X523250Y789000D01*
X487450Y807000D02*
X505250D01*
X438250D02*
X456050D01*
X487450Y704000D02*
X523250D01*
X420250D02*
X456050D01*
X232250Y809250D02*
X250250Y827250D01*
Y912250D01*
X147250Y827250D02*
Y912250D01*
Y827250D02*
X165250Y809250D01*
X183050D01*
X214450D02*
X232250D01*
X147250Y912250D02*
X183050D01*
X214450D02*
X250250D01*
X196050Y684700D02*
Y753300D01*
X254450Y684700D02*
Y753300D01*
X787625Y398375D02*
Y442125D01*
X760375Y398375D02*
Y442125D01*
X786000D02*
X787625D01*
X760375D02*
X762000D01*
X786000Y398375D02*
X787625D01*
X760375D02*
X762000D01*
X668975D02*
Y442125D01*
X641725Y398375D02*
Y442125D01*
X667350D02*
X668975D01*
X641725D02*
X643350D01*
X667350Y398375D02*
X668975D01*
X641725D02*
X643350D01*
X550325D02*
Y442125D01*
X523075Y398375D02*
Y442125D01*
X548700D02*
X550325D01*
X523075D02*
X524700D01*
X548700Y398375D02*
X550325D01*
X523075D02*
X524700D01*
X431675D02*
Y442125D01*
X404425Y398375D02*
Y442125D01*
X430050D02*
X431675D01*
X404425D02*
X406050D01*
X430050Y398375D02*
X431675D01*
X404425D02*
X406050D01*
X313025D02*
Y442125D01*
X285775Y398375D02*
Y442125D01*
X311400D02*
X313025D01*
X285775D02*
X287400D01*
X311400Y398375D02*
X313025D01*
X285775D02*
X287400D01*
X194375D02*
Y442125D01*
X167125Y398375D02*
Y442125D01*
X192750D02*
X194375D01*
X167125D02*
X168750D01*
X192750Y398375D02*
X194375D01*
X167125D02*
X168750D01*
X490250Y852750D02*
Y887750D01*
X477850D02*
X490250D01*
X425250Y852750D02*
Y887750D01*
X437650D01*
X613750Y928750D02*
Y973750D01*
X547750Y928750D02*
Y973750D01*
D17*
X155660Y142160D02*
Y303450D01*
Y142160D02*
X262340D01*
Y303450D01*
X155660D02*
X262340D01*
X273610Y142160D02*
Y303450D01*
Y142160D02*
X380290D01*
Y303450D01*
X273610D02*
X380290D01*
X391560Y142160D02*
Y303450D01*
Y142160D02*
X498240D01*
Y303450D01*
X391560D02*
X498240D01*
X509510Y142160D02*
Y303450D01*
Y142160D02*
X616190D01*
Y303450D01*
X509510D02*
X616190D01*
X627460Y142160D02*
Y303450D01*
Y142160D02*
X734140D01*
Y303450D01*
X627460D02*
X734140D01*
X745410Y142160D02*
Y303450D01*
Y142160D02*
X852090D01*
Y303450D01*
X745410D02*
X852090D01*
X744500Y762160D02*
Y790160D01*
Y628660D02*
Y656660D01*
Y497160D02*
Y525160D01*
D18*
X382350Y888270D02*
X409250D01*
Y888500D01*
X279250Y888270D02*
X306150D01*
X279250D02*
Y888500D01*
X382350Y758730D02*
X409250D01*
Y758500D02*
Y758730D01*
X279250D02*
X306150D01*
X279250Y758500D02*
Y758730D01*
Y758500D02*
Y758730D01*
X18230Y765100D02*
Y792000D01*
X18000D02*
X18230D01*
Y662000D02*
Y688900D01*
X18000Y662000D02*
X18230D01*
X147770Y765100D02*
Y792000D01*
X148000D01*
X147770Y662000D02*
Y688900D01*
Y662000D02*
X148000D01*
X147770D02*
X148000D01*
D19*
X138040Y950790D02*
Y957455D01*
X141372Y960787D01*
X144705Y957455D01*
Y950790D01*
Y955788D01*
X138040D01*
X153035Y950790D02*
Y960787D01*
X148037Y955788D01*
X154701D01*
X138040Y978457D02*
Y985121D01*
X141372Y988453D01*
X144705Y985121D01*
Y978457D01*
Y983455D01*
X138040D01*
X148037Y986787D02*
X149703Y988453D01*
X153035D01*
X154701Y986787D01*
Y985121D01*
X153035Y983455D01*
X151369D01*
X153035D01*
X154701Y981789D01*
Y980123D01*
X153035Y978457D01*
X149703D01*
X148037Y980123D01*
X138040Y1006123D02*
Y1012788D01*
X141372Y1016120D01*
X144705Y1012788D01*
Y1006123D01*
Y1011122D01*
X138040D01*
X154701Y1006123D02*
X148037D01*
X154701Y1012788D01*
Y1014454D01*
X153035Y1016120D01*
X149703D01*
X148037Y1014454D01*
X141372Y1033790D02*
Y1040454D01*
X144705Y1043787D01*
X148037Y1040454D01*
Y1033790D01*
Y1038788D01*
X141372D01*
X151369Y1033790D02*
X154701D01*
X153035D01*
Y1043787D01*
X151369Y1042121D01*
X714540Y890540D02*
Y900537D01*
X717872Y897205D01*
X721205Y900537D01*
Y890540D01*
X731201D02*
X724537D01*
X731201Y897205D01*
Y898871D01*
X729535Y900537D01*
X726203D01*
X724537Y898871D01*
X601790Y890540D02*
Y900537D01*
X605122Y897205D01*
X608455Y900537D01*
Y890540D01*
X611787D02*
X615119D01*
X613453D01*
Y900537D01*
X611787Y898871D01*
X354290Y912540D02*
X357622D01*
X355956D01*
Y922537D01*
X354290Y920871D01*
X451540Y915540D02*
X454872D01*
X453206D01*
Y925537D01*
X451540Y923871D01*
X478790Y924371D02*
X480456Y926037D01*
X483788D01*
X485454Y924371D01*
Y917706D01*
X483788Y916040D01*
X480456D01*
X478790Y917706D01*
Y924371D01*
X383290Y920621D02*
X384956Y922287D01*
X388288D01*
X389954Y920621D01*
Y913956D01*
X388288Y912290D01*
X384956D01*
X383290Y913956D01*
Y920621D01*
X598040Y1066038D02*
X604705D01*
X601372Y1069371D02*
Y1062706D01*
X608037Y1069371D02*
X609703Y1071037D01*
X613035D01*
X614701Y1069371D01*
Y1067704D01*
X613035Y1066038D01*
X611369D01*
X613035D01*
X614701Y1064372D01*
Y1062706D01*
X613035Y1061040D01*
X609703D01*
X608037Y1062706D01*
X618034Y1067704D02*
X621366Y1061040D01*
X624698Y1067704D01*
X463790Y1065788D02*
X470454D01*
X467122Y1069121D02*
Y1062456D01*
X473787Y1069121D02*
X475453Y1070787D01*
X478785D01*
X480451Y1069121D01*
Y1067455D01*
X478785Y1065788D01*
X477119D01*
X478785D01*
X480451Y1064122D01*
Y1062456D01*
X478785Y1060790D01*
X475453D01*
X473787Y1062456D01*
X483784Y1067455D02*
X487116Y1060790D01*
X490448Y1067455D01*
X711290D02*
Y1060790D01*
Y1064122D01*
X712956Y1065788D01*
X714622Y1067455D01*
X716288D01*
X576290Y1068204D02*
Y1061540D01*
Y1064872D01*
X577956Y1066538D01*
X579622Y1068204D01*
X581288D01*
X444290Y932956D02*
Y942953D01*
X447622Y939621D01*
X450955Y942953D01*
Y932956D01*
X460951D02*
X454287D01*
X460951Y939621D01*
Y941287D01*
X459285Y942953D01*
X455953D01*
X454287Y941287D01*
X464284Y931290D02*
X470948D01*
X474280Y932956D02*
Y939621D01*
X477613Y942953D01*
X480945Y939621D01*
Y932956D01*
Y937954D01*
X474280D01*
X484277Y941287D02*
X485943Y942953D01*
X489276D01*
X490942Y941287D01*
Y934622D01*
X489276Y932956D01*
X485943D01*
X484277Y934622D01*
Y941287D01*
X350040Y932956D02*
Y942953D01*
X353372Y939621D01*
X356704Y942953D01*
Y932956D01*
X360037D02*
X363369D01*
X361703D01*
Y942953D01*
X360037Y941287D01*
X368367Y931290D02*
X375032D01*
X378364Y932956D02*
Y939621D01*
X381696Y942953D01*
X385029Y939621D01*
Y932956D01*
Y937954D01*
X378364D01*
X388361Y941287D02*
X390027Y942953D01*
X393359D01*
X395025Y941287D01*
Y934622D01*
X393359Y932956D01*
X390027D01*
X388361Y934622D01*
Y941287D01*
M02*
