G04*
G04 #@! TF.GenerationSoftware,Altium Limited,Altium Designer,20.0.13 (296)*
G04*
G04 Layer_Color=8421504*
%FSLAX44Y44*%
%MOMM*%
G71*
G01*
G75*
%ADD20R,0.5000X0.6000*%
%ADD21R,0.8000X1.0000*%
%ADD22R,0.4100X1.5600*%
%ADD23R,1.0000X0.8000*%
%ADD24R,0.6000X0.5000*%
%ADD25R,3.5000X2.1500*%
%ADD26R,1.1000X1.2500*%
%ADD27R,1.2500X1.1000*%
%ADD28R,2.6000X2.5000*%
%ADD29R,2.7940X3.8100*%
%ADD30R,7.0000X4.0000*%
%ADD31R,1.0500X3.2000*%
%ADD32R,10.4500X8.3000*%
%ADD33R,1.9812X0.5334*%
%ADD34R,4.0000X7.0000*%
%ADD35R,3.8100X2.7940*%
%ADD36R,1.7500X2.6500*%
%ADD37R,1.1000X0.8000*%
%ADD38R,3.2500X2.1500*%
%ADD39R,0.9500X2.1500*%
G36*
X45750Y337750D02*
X57750D01*
Y312750D01*
X45750D01*
Y301750D01*
X32750D01*
Y312750D01*
X13750D01*
Y337750D01*
X32750D01*
Y348750D01*
X45750D01*
Y337750D01*
D02*
G37*
G36*
X121750D02*
X140750D01*
Y312750D01*
X121750D01*
Y301750D01*
X108750D01*
Y312750D01*
X96750D01*
Y337750D01*
X108750D01*
Y348750D01*
X121750D01*
Y337750D01*
D02*
G37*
G36*
X49500Y563250D02*
X61500D01*
Y538250D01*
X49500D01*
Y527250D01*
X36500D01*
Y538250D01*
X17500D01*
Y563250D01*
X36500D01*
Y574250D01*
X49500D01*
Y563250D01*
D02*
G37*
G36*
X125500D02*
X144500D01*
Y538250D01*
X125500D01*
Y527250D01*
X112500D01*
Y538250D01*
X100500D01*
Y563250D01*
X112500D01*
Y574250D01*
X125500D01*
Y563250D01*
D02*
G37*
G36*
X186250Y829250D02*
Y841250D01*
X211250D01*
Y829250D01*
X222250D01*
Y816250D01*
X211250D01*
Y797250D01*
X186250D01*
Y816250D01*
X175250D01*
Y829250D01*
X186250D01*
D02*
G37*
G36*
Y905250D02*
Y924250D01*
X211250D01*
Y905250D01*
X222250D01*
Y892250D01*
X211250D01*
Y880250D01*
X186250D01*
Y892250D01*
X175250D01*
Y905250D01*
X186250D01*
D02*
G37*
G36*
X484250Y711000D02*
Y692000D01*
X459250D01*
Y711000D01*
X448250D01*
Y724000D01*
X459250D01*
Y736000D01*
X484250D01*
Y724000D01*
X495250D01*
Y711000D01*
X484250D01*
D02*
G37*
G36*
Y787000D02*
Y775000D01*
X459250D01*
Y787000D01*
X448250D01*
Y800000D01*
X459250D01*
Y819000D01*
X484250D01*
Y800000D01*
X495250D01*
Y787000D01*
X484250D01*
D02*
G37*
D20*
X175500Y942227D02*
D03*
X165500D02*
D03*
X175500Y977818D02*
D03*
X165500D02*
D03*
X175500Y1013500D02*
D03*
X165500D02*
D03*
X379153Y955500D02*
D03*
X389153D02*
D03*
X355000D02*
D03*
X365000D02*
D03*
X458500D02*
D03*
X448500D02*
D03*
X482401D02*
D03*
X472401D02*
D03*
X317250Y1014750D02*
D03*
X307250D02*
D03*
X649750Y928250D02*
D03*
X639750D02*
D03*
X796750Y892750D02*
D03*
X786750D02*
D03*
X282500Y923000D02*
D03*
X292500D02*
D03*
X796750Y907625D02*
D03*
X786750D02*
D03*
X317250Y1045350D02*
D03*
X307250D02*
D03*
X175500D02*
D03*
X165500D02*
D03*
X307250Y943476D02*
D03*
X317250D02*
D03*
X307250Y979000D02*
D03*
X317250D02*
D03*
X194100Y70750D02*
D03*
X184100D02*
D03*
D21*
X529000Y978500D02*
D03*
X513000D02*
D03*
X529000Y944000D02*
D03*
X513000D02*
D03*
X685000Y874750D02*
D03*
X669000D02*
D03*
X693250Y1011750D02*
D03*
X677250D02*
D03*
X566000Y1010250D02*
D03*
X582000D02*
D03*
X821000Y397250D02*
D03*
X805000D02*
D03*
X703250D02*
D03*
X687250D02*
D03*
X585500D02*
D03*
X569500D02*
D03*
X467750D02*
D03*
X451750D02*
D03*
X350000D02*
D03*
X334000D02*
D03*
X232250D02*
D03*
X216250D02*
D03*
D22*
X671250Y980050D02*
D03*
X677750D02*
D03*
X684250D02*
D03*
X690750D02*
D03*
X697250D02*
D03*
X703750D02*
D03*
X710250D02*
D03*
X716750D02*
D03*
X723250D02*
D03*
X729750D02*
D03*
Y922450D02*
D03*
X723250D02*
D03*
X716750D02*
D03*
X710250D02*
D03*
X703750D02*
D03*
X697250D02*
D03*
X690750D02*
D03*
X684250D02*
D03*
X677750D02*
D03*
X671250D02*
D03*
X551500Y980050D02*
D03*
X558000D02*
D03*
X564500D02*
D03*
X571000D02*
D03*
X577500D02*
D03*
X584000D02*
D03*
X590500D02*
D03*
X597000D02*
D03*
X603500D02*
D03*
X610000D02*
D03*
Y922450D02*
D03*
X603500D02*
D03*
X597000D02*
D03*
X590500D02*
D03*
X584000D02*
D03*
X577500D02*
D03*
X571000D02*
D03*
X564500D02*
D03*
X558000D02*
D03*
X551500D02*
D03*
D23*
X739500Y1029250D02*
D03*
Y1013250D02*
D03*
X273750Y667750D02*
D03*
Y683750D02*
D03*
X285125Y641750D02*
D03*
Y625750D02*
D03*
X150625Y641750D02*
D03*
Y625750D02*
D03*
X176000Y667750D02*
D03*
Y683750D02*
D03*
X154500Y423250D02*
D03*
Y407250D02*
D03*
X273400Y423250D02*
D03*
Y407250D02*
D03*
X392300Y423250D02*
D03*
Y407250D02*
D03*
X511200Y423250D02*
D03*
Y407250D02*
D03*
X630100Y423250D02*
D03*
Y407250D02*
D03*
X749000Y423250D02*
D03*
Y407250D02*
D03*
D24*
X549250Y897500D02*
D03*
Y887500D02*
D03*
X605250Y1004750D02*
D03*
Y1014750D02*
D03*
X722000Y1013000D02*
D03*
Y1003000D02*
D03*
X433830Y987000D02*
D03*
Y997000D02*
D03*
X385250Y986750D02*
D03*
Y996750D02*
D03*
X410500Y987000D02*
D03*
Y997000D02*
D03*
X361250Y987000D02*
D03*
Y997000D02*
D03*
X583500Y884750D02*
D03*
Y894750D02*
D03*
X774000Y827000D02*
D03*
Y837000D02*
D03*
X830762Y827000D02*
D03*
Y837000D02*
D03*
X751000Y827000D02*
D03*
Y837000D02*
D03*
X694000Y827000D02*
D03*
Y837000D02*
D03*
X830762Y691500D02*
D03*
Y701500D02*
D03*
X774000Y691500D02*
D03*
Y701500D02*
D03*
X751000Y691500D02*
D03*
Y701500D02*
D03*
X694000Y691500D02*
D03*
Y701500D02*
D03*
X830762Y559750D02*
D03*
Y569750D02*
D03*
X751000Y559750D02*
D03*
Y569750D02*
D03*
X774000Y559750D02*
D03*
Y569750D02*
D03*
X694000Y559750D02*
D03*
Y569750D02*
D03*
D25*
X517500Y863250D02*
D03*
Y898250D02*
D03*
D26*
X361000Y1037000D02*
D03*
Y1014000D02*
D03*
X410500Y1037000D02*
D03*
Y1014000D02*
D03*
X433830D02*
D03*
Y1037000D02*
D03*
X385075Y1013750D02*
D03*
Y1036750D02*
D03*
D27*
X170250Y106250D02*
D03*
X193250D02*
D03*
D28*
X794100Y776160D02*
D03*
X725500D02*
D03*
X794100Y642660D02*
D03*
X725500D02*
D03*
X794100Y511160D02*
D03*
X725500D02*
D03*
D29*
X378935Y710000D02*
D03*
X307565D02*
D03*
D30*
X344250Y873500D02*
D03*
Y773500D02*
D03*
D31*
X385250Y630750D02*
D03*
X368250D02*
D03*
X351250D02*
D03*
X334250D02*
D03*
X317250D02*
D03*
X253750D02*
D03*
X236750D02*
D03*
X219750D02*
D03*
X202750D02*
D03*
X185750D02*
D03*
D32*
X351250Y536250D02*
D03*
X219750D02*
D03*
D33*
X669230Y586700D02*
D03*
Y574000D02*
D03*
Y561300D02*
D03*
Y548600D02*
D03*
Y535900D02*
D03*
Y523200D02*
D03*
Y510500D02*
D03*
Y497800D02*
D03*
X575250D02*
D03*
Y510500D02*
D03*
Y523200D02*
D03*
Y535900D02*
D03*
Y548600D02*
D03*
Y561300D02*
D03*
Y574000D02*
D03*
Y586700D02*
D03*
Y851700D02*
D03*
Y839000D02*
D03*
Y826300D02*
D03*
Y813600D02*
D03*
Y800900D02*
D03*
Y788200D02*
D03*
Y775500D02*
D03*
Y762800D02*
D03*
X669230D02*
D03*
Y775500D02*
D03*
Y788200D02*
D03*
Y800900D02*
D03*
Y813600D02*
D03*
Y826300D02*
D03*
Y839000D02*
D03*
Y851700D02*
D03*
X575250Y718200D02*
D03*
Y705500D02*
D03*
Y692800D02*
D03*
Y680100D02*
D03*
Y667400D02*
D03*
Y654700D02*
D03*
Y642000D02*
D03*
Y629300D02*
D03*
X669230D02*
D03*
Y642000D02*
D03*
Y654700D02*
D03*
Y667400D02*
D03*
Y680100D02*
D03*
Y692800D02*
D03*
Y705500D02*
D03*
Y718200D02*
D03*
D34*
X33000Y727000D02*
D03*
X133000D02*
D03*
D35*
X225250Y683315D02*
D03*
Y754685D02*
D03*
D36*
X774000Y398750D02*
D03*
Y441750D02*
D03*
X655350Y398750D02*
D03*
Y441750D02*
D03*
X536700Y398750D02*
D03*
Y441750D02*
D03*
X418050Y398750D02*
D03*
Y441750D02*
D03*
X299400Y398750D02*
D03*
Y441750D02*
D03*
X180750Y398750D02*
D03*
Y441750D02*
D03*
D37*
X710500Y569750D02*
D03*
X733000Y579250D02*
D03*
Y560250D02*
D03*
X790500Y569750D02*
D03*
X813000Y579250D02*
D03*
Y560250D02*
D03*
X710500Y701500D02*
D03*
X733000Y711000D02*
D03*
Y692000D02*
D03*
X790500Y701500D02*
D03*
X813000Y711000D02*
D03*
Y692000D02*
D03*
X710500Y837000D02*
D03*
X733000Y846500D02*
D03*
Y827500D02*
D03*
X790500Y837000D02*
D03*
X813000Y846500D02*
D03*
Y827500D02*
D03*
D38*
X457750Y899250D02*
D03*
D39*
X480750Y841250D02*
D03*
X457750D02*
D03*
X434750D02*
D03*
M02*
