G04*
G04 #@! TF.GenerationSoftware,Altium Limited,Altium Designer,20.0.13 (296)*
G04*
G04 Layer_Physical_Order=4*
G04 Layer_Color=16711680*
%FSLAX44Y44*%
%MOMM*%
G71*
G01*
G75*
%ADD11C,0.2500*%
%ADD12C,0.2000*%
%ADD35R,3.8100X2.7940*%
%ADD70C,3.0000*%
%ADD71C,2.0000*%
%ADD74C,0.4000*%
%ADD75C,1.0000*%
%ADD76C,0.5000*%
%ADD77C,1.5000*%
%ADD78R,1.5000X1.5000*%
%ADD79O,1.9304X3.8608*%
%ADD80O,1.5240X3.0480*%
%ADD81R,1.5240X3.0480*%
%ADD82C,3.1750*%
%ADD83C,1.4000*%
%ADD84R,1.4000X1.4000*%
%ADD85R,1.4000X1.4000*%
%ADD86R,1.5000X1.5000*%
%ADD87C,0.7000*%
%ADD88C,0.8000*%
%ADD89C,2.5000*%
G36*
X860182Y3569D02*
X3569D01*
Y1076431D01*
X860181D01*
X860182Y3569D01*
D02*
G37*
%LPC*%
G36*
X663920Y1050709D02*
Y1042020D01*
X672609D01*
X672432Y1043371D01*
X671420Y1045813D01*
X669811Y1047911D01*
X667713Y1049520D01*
X665271Y1050532D01*
X663920Y1050709D01*
D02*
G37*
G36*
X527770Y1050709D02*
Y1042020D01*
X536459D01*
X536282Y1043371D01*
X535270Y1045813D01*
X533661Y1047911D01*
X531563Y1049520D01*
X529121Y1050532D01*
X527770Y1050709D01*
D02*
G37*
G36*
X525230Y1050709D02*
X523879Y1050532D01*
X521437Y1049520D01*
X519339Y1047911D01*
X517730Y1045813D01*
X516718Y1043371D01*
X516541Y1042020D01*
X525230D01*
Y1050709D01*
D02*
G37*
G36*
X661380Y1050709D02*
X660029Y1050532D01*
X657587Y1049520D01*
X655489Y1047911D01*
X653880Y1045813D01*
X652868Y1043371D01*
X652691Y1042020D01*
X661380D01*
Y1050709D01*
D02*
G37*
G36*
X688050Y1050332D02*
X685570Y1050005D01*
X683259Y1049048D01*
X681275Y1047525D01*
X679752Y1045541D01*
X678795Y1043230D01*
X678468Y1040750D01*
X678795Y1038270D01*
X679752Y1035959D01*
X681275Y1033975D01*
X683259Y1032452D01*
X685570Y1031495D01*
X688050Y1031168D01*
X690530Y1031495D01*
X692841Y1032452D01*
X694826Y1033975D01*
X696348Y1035959D01*
X697306Y1038270D01*
X697632Y1040750D01*
X697306Y1043230D01*
X696348Y1045541D01*
X694826Y1047525D01*
X692841Y1049048D01*
X690530Y1050005D01*
X688050Y1050332D01*
D02*
G37*
G36*
X637250D02*
X634770Y1050005D01*
X632459Y1049048D01*
X630475Y1047525D01*
X628952Y1045541D01*
X627995Y1043230D01*
X627668Y1040750D01*
X627995Y1038270D01*
X628952Y1035959D01*
X630475Y1033975D01*
X632459Y1032452D01*
X634770Y1031495D01*
X637250Y1031168D01*
X639730Y1031495D01*
X642041Y1032452D01*
X644025Y1033975D01*
X645548Y1035959D01*
X646506Y1038270D01*
X646832Y1040750D01*
X646506Y1043230D01*
X645548Y1045541D01*
X644025Y1047525D01*
X642041Y1049048D01*
X639730Y1050005D01*
X637250Y1050332D01*
D02*
G37*
G36*
X551900D02*
X549420Y1050005D01*
X547109Y1049048D01*
X545125Y1047525D01*
X543602Y1045541D01*
X542645Y1043230D01*
X542318Y1040750D01*
X542645Y1038270D01*
X543602Y1035959D01*
X545125Y1033975D01*
X547109Y1032452D01*
X549420Y1031495D01*
X551900Y1031168D01*
X554380Y1031495D01*
X556691Y1032452D01*
X558675Y1033975D01*
X560198Y1035959D01*
X561155Y1038270D01*
X561482Y1040750D01*
X561155Y1043230D01*
X560198Y1045541D01*
X558675Y1047525D01*
X556691Y1049048D01*
X554380Y1050005D01*
X551900Y1050332D01*
D02*
G37*
G36*
X501100D02*
X498620Y1050005D01*
X496309Y1049048D01*
X494324Y1047525D01*
X492802Y1045541D01*
X491844Y1043230D01*
X491518Y1040750D01*
X491844Y1038270D01*
X492802Y1035959D01*
X494324Y1033975D01*
X496309Y1032452D01*
X498620Y1031495D01*
X501100Y1031168D01*
X503580Y1031495D01*
X505891Y1032452D01*
X507875Y1033975D01*
X509398Y1035959D01*
X510355Y1038270D01*
X510682Y1040750D01*
X510355Y1043230D01*
X509398Y1045541D01*
X507875Y1047525D01*
X505891Y1049048D01*
X503580Y1050005D01*
X501100Y1050332D01*
D02*
G37*
G36*
X672609Y1039480D02*
X663920D01*
Y1030791D01*
X665271Y1030968D01*
X667713Y1031980D01*
X669811Y1033589D01*
X671420Y1035687D01*
X672432Y1038129D01*
X672609Y1039480D01*
D02*
G37*
G36*
X525230D02*
X516541D01*
X516718Y1038129D01*
X517730Y1035687D01*
X519339Y1033589D01*
X521437Y1031980D01*
X523879Y1030968D01*
X525230Y1030791D01*
Y1039480D01*
D02*
G37*
G36*
X536459D02*
X527770D01*
Y1030790D01*
X529121Y1030968D01*
X531563Y1031980D01*
X533661Y1033589D01*
X535270Y1035687D01*
X536282Y1038129D01*
X536459Y1039480D01*
D02*
G37*
G36*
X661380D02*
X652691D01*
X652868Y1038129D01*
X653880Y1035687D01*
X655489Y1033589D01*
X657587Y1031980D01*
X660029Y1030968D01*
X661380Y1030790D01*
Y1039480D01*
D02*
G37*
G36*
X783850Y1046500D02*
X764850D01*
Y1027500D01*
X783850D01*
Y1046500D01*
D02*
G37*
G36*
X799750Y1046582D02*
X797270Y1046255D01*
X794959Y1045298D01*
X792974Y1043775D01*
X791452Y1041791D01*
X790495Y1039480D01*
X790168Y1037000D01*
X790495Y1034520D01*
X791452Y1032209D01*
X792974Y1030225D01*
X794959Y1028702D01*
X797270Y1027745D01*
X799750Y1027418D01*
X802230Y1027745D01*
X804541Y1028702D01*
X806525Y1030225D01*
X808048Y1032209D01*
X809005Y1034520D01*
X809332Y1037000D01*
X809005Y1039480D01*
X808048Y1041791D01*
X806525Y1043775D01*
X804541Y1045298D01*
X802230Y1046255D01*
X799750Y1046582D01*
D02*
G37*
G36*
X118400D02*
X115920Y1046255D01*
X113609Y1045298D01*
X111624Y1043775D01*
X110102Y1041791D01*
X109144Y1039480D01*
X108818Y1037000D01*
X109144Y1034520D01*
X110102Y1032209D01*
X111624Y1030225D01*
X113609Y1028702D01*
X115920Y1027745D01*
X118400Y1027418D01*
X120880Y1027745D01*
X123191Y1028702D01*
X125175Y1030225D01*
X126698Y1032209D01*
X127655Y1034520D01*
X127982Y1037000D01*
X127655Y1039480D01*
X126698Y1041791D01*
X125175Y1043775D01*
X123191Y1045298D01*
X120880Y1046255D01*
X118400Y1046582D01*
D02*
G37*
G36*
X93000D02*
X90520Y1046255D01*
X88209Y1045298D01*
X86224Y1043775D01*
X84702Y1041791D01*
X83744Y1039480D01*
X83418Y1037000D01*
X83744Y1034520D01*
X84702Y1032209D01*
X86224Y1030225D01*
X88209Y1028702D01*
X90520Y1027745D01*
X93000Y1027418D01*
X95480Y1027745D01*
X97791Y1028702D01*
X99775Y1030225D01*
X101298Y1032209D01*
X102255Y1034520D01*
X102582Y1037000D01*
X102255Y1039480D01*
X101298Y1041791D01*
X99775Y1043775D01*
X97791Y1045298D01*
X95480Y1046255D01*
X93000Y1046582D01*
D02*
G37*
G36*
X211400Y1045850D02*
X192400D01*
Y1026850D01*
X211400D01*
Y1045850D01*
D02*
G37*
G36*
X278100Y1045932D02*
X275620Y1045605D01*
X273309Y1044648D01*
X271325Y1043125D01*
X269802Y1041141D01*
X268845Y1038830D01*
X268518Y1036350D01*
X268845Y1033870D01*
X269802Y1031559D01*
X271325Y1029575D01*
X273309Y1028052D01*
X275620Y1027094D01*
X278100Y1026768D01*
X280580Y1027094D01*
X282891Y1028052D01*
X284876Y1029575D01*
X286398Y1031559D01*
X287355Y1033870D01*
X287682Y1036350D01*
X287355Y1038830D01*
X286398Y1041141D01*
X284876Y1043125D01*
X282891Y1044648D01*
X280580Y1045605D01*
X278100Y1045932D01*
D02*
G37*
G36*
X801020Y1021559D02*
Y1012870D01*
X809709D01*
X809532Y1014221D01*
X808520Y1016663D01*
X806911Y1018761D01*
X804813Y1020370D01*
X802371Y1021382D01*
X801020Y1021559D01*
D02*
G37*
G36*
X775620D02*
Y1012870D01*
X784309D01*
X784132Y1014221D01*
X783120Y1016663D01*
X781511Y1018761D01*
X779413Y1020370D01*
X776971Y1021382D01*
X775620Y1021559D01*
D02*
G37*
G36*
X798480D02*
X797129Y1021382D01*
X794687Y1020370D01*
X792589Y1018761D01*
X790980Y1016663D01*
X789968Y1014221D01*
X789791Y1012870D01*
X798480D01*
Y1021559D01*
D02*
G37*
G36*
X773080D02*
X771729Y1021382D01*
X769287Y1020370D01*
X767189Y1018761D01*
X765580Y1016663D01*
X764568Y1014221D01*
X764391Y1012870D01*
X773080D01*
Y1021559D01*
D02*
G37*
G36*
X119670D02*
Y1012870D01*
X128359D01*
X128182Y1014221D01*
X127170Y1016663D01*
X125561Y1018761D01*
X123463Y1020370D01*
X121021Y1021382D01*
X119670Y1021559D01*
D02*
G37*
G36*
X94270D02*
Y1012870D01*
X102959D01*
X102782Y1014221D01*
X101770Y1016663D01*
X100161Y1018761D01*
X98063Y1020370D01*
X95621Y1021382D01*
X94270Y1021559D01*
D02*
G37*
G36*
X117130D02*
X115779Y1021382D01*
X113337Y1020370D01*
X111239Y1018761D01*
X109630Y1016663D01*
X108618Y1014221D01*
X108441Y1012870D01*
X117130D01*
Y1021559D01*
D02*
G37*
G36*
X91730D02*
X90379Y1021382D01*
X87937Y1020370D01*
X85839Y1018761D01*
X84230Y1016663D01*
X83218Y1014221D01*
X83041Y1012870D01*
X91730D01*
Y1021559D01*
D02*
G37*
G36*
X128359Y1010330D02*
X119670D01*
Y1001641D01*
X121021Y1001818D01*
X123463Y1002830D01*
X125561Y1004439D01*
X127170Y1006537D01*
X128182Y1008979D01*
X128359Y1010330D01*
D02*
G37*
G36*
X102959D02*
X94270D01*
Y1001641D01*
X95621Y1001818D01*
X98063Y1002830D01*
X100161Y1004439D01*
X101770Y1006537D01*
X102782Y1008979D01*
X102959Y1010330D01*
D02*
G37*
G36*
X809709Y1010330D02*
X801020D01*
Y1001641D01*
X802371Y1001818D01*
X804813Y1002830D01*
X806911Y1004439D01*
X808520Y1006537D01*
X809532Y1008979D01*
X809709Y1010330D01*
D02*
G37*
G36*
X784309D02*
X775620D01*
Y1001641D01*
X776971Y1001818D01*
X779413Y1002830D01*
X781511Y1004439D01*
X783120Y1006537D01*
X784132Y1008979D01*
X784309Y1010330D01*
D02*
G37*
G36*
X798480D02*
X789790D01*
X789968Y1008979D01*
X790980Y1006537D01*
X792589Y1004439D01*
X794687Y1002830D01*
X797129Y1001818D01*
X798480Y1001641D01*
Y1010330D01*
D02*
G37*
G36*
X773080D02*
X764390D01*
X764568Y1008979D01*
X765580Y1006537D01*
X767189Y1004439D01*
X769287Y1002830D01*
X771729Y1001818D01*
X773080Y1001641D01*
Y1010330D01*
D02*
G37*
G36*
X117130Y1010330D02*
X108441D01*
X108618Y1008979D01*
X109630Y1006537D01*
X111239Y1004439D01*
X113337Y1002830D01*
X115779Y1001818D01*
X117130Y1001641D01*
Y1010330D01*
D02*
G37*
G36*
X91730D02*
X83041D01*
X83218Y1008979D01*
X84230Y1006537D01*
X85839Y1004439D01*
X87937Y1002830D01*
X90379Y1001818D01*
X91730Y1001641D01*
Y1010330D01*
D02*
G37*
G36*
X278100Y1020532D02*
X275620Y1020206D01*
X273309Y1019248D01*
X271325Y1017725D01*
X269802Y1015741D01*
X268845Y1013430D01*
X268518Y1010950D01*
X268845Y1008470D01*
X269802Y1006159D01*
X271325Y1004174D01*
X273309Y1002652D01*
X275620Y1001694D01*
X278100Y1001368D01*
X280580Y1001694D01*
X282891Y1002652D01*
X284876Y1004174D01*
X286398Y1006159D01*
X287355Y1008470D01*
X287682Y1010950D01*
X287355Y1013430D01*
X286398Y1015741D01*
X284876Y1017725D01*
X282891Y1019248D01*
X280580Y1020206D01*
X278100Y1020532D01*
D02*
G37*
G36*
X201900D02*
X199420Y1020206D01*
X197109Y1019248D01*
X195125Y1017725D01*
X193602Y1015741D01*
X192645Y1013430D01*
X192318Y1010950D01*
X192645Y1008470D01*
X193602Y1006159D01*
X195125Y1004174D01*
X197109Y1002652D01*
X199420Y1001694D01*
X201900Y1001368D01*
X204380Y1001694D01*
X206691Y1002652D01*
X208675Y1004174D01*
X210198Y1006159D01*
X211155Y1008470D01*
X211482Y1010950D01*
X211155Y1013430D01*
X210198Y1015741D01*
X208675Y1017725D01*
X206691Y1019248D01*
X204380Y1020206D01*
X201900Y1020532D01*
D02*
G37*
G36*
X591100Y1068560D02*
X496450D01*
X494623Y1068320D01*
X492920Y1067615D01*
X491458Y1066492D01*
X475236Y1050271D01*
X473220Y1050005D01*
X470909Y1049048D01*
X468924Y1047525D01*
X467402Y1045541D01*
X466445Y1043230D01*
X466118Y1040750D01*
X466445Y1038270D01*
X467402Y1035959D01*
X468640Y1034346D01*
Y1002550D01*
X468880Y1000723D01*
X469585Y999020D01*
X470708Y997558D01*
X488940Y979325D01*
Y929000D01*
Y874500D01*
X489180Y872673D01*
X489885Y870970D01*
X491008Y869508D01*
X520008Y840508D01*
X521470Y839386D01*
X523173Y838680D01*
X525000Y838440D01*
X713826D01*
X745508Y806758D01*
X746970Y805636D01*
X748673Y804930D01*
X749215Y804859D01*
Y685836D01*
X748623Y684949D01*
X748196Y682803D01*
X748623Y680657D01*
X749838Y678838D01*
X751657Y677622D01*
X752704Y677414D01*
X770412Y659706D01*
Y595150D01*
X748006Y572744D01*
X747011Y571256D01*
X746662Y569500D01*
Y551033D01*
X746069Y550146D01*
X745642Y548000D01*
X746069Y545854D01*
X747285Y544035D01*
X749104Y542819D01*
X751200Y542402D01*
X751785Y542011D01*
X753541Y541662D01*
X827717D01*
X828604Y541069D01*
X830750Y540642D01*
X832896Y541069D01*
X834715Y542285D01*
X835931Y544104D01*
X836139Y545150D01*
X846244Y555256D01*
X847239Y556744D01*
X847588Y558500D01*
Y611500D01*
X847239Y613256D01*
X846244Y614744D01*
X835338Y625650D01*
Y675217D01*
X835931Y676104D01*
X836139Y677150D01*
X847244Y688256D01*
X848239Y689744D01*
X848588Y691500D01*
Y749250D01*
X848239Y751006D01*
X847244Y752494D01*
X835088Y764650D01*
Y808217D01*
X835681Y809104D01*
X836108Y811250D01*
X835681Y813396D01*
X834465Y815215D01*
X832646Y816431D01*
X830500Y816858D01*
X828354Y816431D01*
X826535Y815215D01*
X825319Y813396D01*
X824892Y811250D01*
X825319Y809104D01*
X825912Y808217D01*
Y762750D01*
X826261Y760994D01*
X827256Y759506D01*
X839412Y747349D01*
Y693400D01*
X829650Y683639D01*
X828604Y683431D01*
X826785Y682215D01*
X825569Y680396D01*
X825142Y678250D01*
X825569Y676104D01*
X826162Y675217D01*
Y623750D01*
X826511Y621994D01*
X827506Y620506D01*
X838412Y609599D01*
Y560401D01*
X829650Y551639D01*
X828604Y551431D01*
X827717Y550838D01*
X755968D01*
X755838Y551033D01*
Y567599D01*
X778244Y590006D01*
X779239Y591494D01*
X779588Y593250D01*
Y661607D01*
X779239Y663362D01*
X778244Y664851D01*
X759192Y683903D01*
X758984Y684949D01*
X758391Y685836D01*
Y807905D01*
X758042Y809661D01*
X757410Y810608D01*
X757560Y811750D01*
X757320Y813577D01*
X756615Y815280D01*
X755492Y816742D01*
X724085Y848149D01*
X734273Y858337D01*
X735250Y858142D01*
X737396Y858569D01*
X739215Y859785D01*
X740431Y861604D01*
X740858Y863750D01*
X740431Y865896D01*
X739215Y867715D01*
X737396Y868931D01*
X735250Y869358D01*
X733104Y868931D01*
X731285Y867715D01*
X730069Y865896D01*
X729642Y863750D01*
X729754Y863190D01*
X718794Y852230D01*
X718577Y852320D01*
X716750Y852560D01*
X527924D01*
X503060Y877424D01*
Y929000D01*
Y982250D01*
X502820Y984077D01*
X502114Y985780D01*
X500992Y987243D01*
X482760Y1005474D01*
Y1034346D01*
X483998Y1035959D01*
X484955Y1038270D01*
X485221Y1040286D01*
X499375Y1054440D01*
X588176D01*
X602329Y1040286D01*
X602595Y1038270D01*
X603552Y1035959D01*
X605075Y1033975D01*
X607059Y1032452D01*
X609370Y1031495D01*
X611850Y1031168D01*
X613365Y1031367D01*
X630866Y1013866D01*
X630866Y1013866D01*
X649616Y995116D01*
X650939Y994232D01*
X652500Y993922D01*
X652500Y993922D01*
X702432D01*
X702655Y993902D01*
X702756Y993887D01*
X704354Y992819D01*
X706500Y992392D01*
X708646Y992819D01*
X710465Y994035D01*
X711681Y995854D01*
X712108Y998000D01*
X711681Y1000146D01*
X710465Y1001965D01*
X708646Y1003181D01*
X706500Y1003608D01*
X704354Y1003181D01*
X702756Y1002113D01*
X702673Y1002101D01*
X702352Y1002078D01*
X654189D01*
X636634Y1019634D01*
X636634Y1019634D01*
X620195Y1036072D01*
X621105Y1038270D01*
X621432Y1040750D01*
X621105Y1043230D01*
X620148Y1045541D01*
X618625Y1047525D01*
X616641Y1049048D01*
X614330Y1050005D01*
X612314Y1050271D01*
X596092Y1066492D01*
X594630Y1067615D01*
X592927Y1068320D01*
X591100Y1068560D01*
D02*
G37*
G36*
X453500Y1003358D02*
X451354Y1002931D01*
X449535Y1001715D01*
X448319Y999896D01*
X447892Y997750D01*
X448319Y995604D01*
X449535Y993785D01*
X451354Y992569D01*
X453500Y992142D01*
X455646Y992569D01*
X457465Y993785D01*
X458681Y995604D01*
X459108Y997750D01*
X458681Y999896D01*
X457465Y1001715D01*
X455646Y1002931D01*
X453500Y1003358D01*
D02*
G37*
G36*
X736250Y1001858D02*
X734104Y1001431D01*
X732285Y1000215D01*
X731069Y998396D01*
X730642Y996250D01*
X731069Y994104D01*
X732285Y992285D01*
X734104Y991069D01*
X736250Y990642D01*
X738396Y991069D01*
X740215Y992285D01*
X741431Y994104D01*
X741858Y996250D01*
X741431Y998396D01*
X740215Y1000215D01*
X738396Y1001431D01*
X736250Y1001858D01*
D02*
G37*
G36*
X617500Y1001358D02*
X615354Y1000931D01*
X613535Y999715D01*
X612319Y997896D01*
X611892Y995750D01*
X612319Y993604D01*
X613535Y991785D01*
X615354Y990569D01*
X617500Y990142D01*
X619646Y990569D01*
X621465Y991785D01*
X622681Y993604D01*
X623108Y995750D01*
X622681Y997896D01*
X621465Y999715D01*
X619646Y1000931D01*
X617500Y1001358D01*
D02*
G37*
G36*
X397500Y991858D02*
X395354Y991431D01*
X393535Y990215D01*
X392319Y988396D01*
X391892Y986250D01*
X392319Y984104D01*
X393535Y982285D01*
X395354Y981069D01*
X397500Y980642D01*
X399646Y981069D01*
X401465Y982285D01*
X402681Y984104D01*
X403108Y986250D01*
X402681Y988396D01*
X401465Y990215D01*
X399646Y991431D01*
X397500Y991858D01*
D02*
G37*
G36*
X799750Y995782D02*
X797270Y995455D01*
X794959Y994498D01*
X792974Y992975D01*
X791452Y990991D01*
X790495Y988680D01*
X790168Y986200D01*
X790495Y983720D01*
X791452Y981409D01*
X792974Y979425D01*
X794959Y977902D01*
X797270Y976945D01*
X799750Y976618D01*
X802230Y976945D01*
X804541Y977902D01*
X806525Y979425D01*
X808048Y981409D01*
X809005Y983720D01*
X809332Y986200D01*
X809005Y988680D01*
X808048Y990991D01*
X806525Y992975D01*
X804541Y994498D01*
X802230Y995455D01*
X799750Y995782D01*
D02*
G37*
G36*
X774350D02*
X771870Y995455D01*
X769559Y994498D01*
X767574Y992975D01*
X766052Y990991D01*
X765095Y988680D01*
X764768Y986200D01*
X765095Y983720D01*
X766052Y981409D01*
X767574Y979425D01*
X769559Y977902D01*
X771870Y976945D01*
X774350Y976618D01*
X776830Y976945D01*
X779141Y977902D01*
X781125Y979425D01*
X782648Y981409D01*
X783605Y983720D01*
X783932Y986200D01*
X783605Y988680D01*
X782648Y990991D01*
X781125Y992975D01*
X779141Y994498D01*
X776830Y995455D01*
X774350Y995782D01*
D02*
G37*
G36*
X118400D02*
X115920Y995455D01*
X113609Y994498D01*
X111624Y992975D01*
X110102Y990991D01*
X109144Y988680D01*
X108818Y986200D01*
X109144Y983720D01*
X110102Y981409D01*
X111624Y979425D01*
X113609Y977902D01*
X115920Y976945D01*
X118400Y976618D01*
X120880Y976945D01*
X123191Y977902D01*
X125175Y979425D01*
X126698Y981409D01*
X127655Y983720D01*
X127982Y986200D01*
X127655Y988680D01*
X126698Y990991D01*
X125175Y992975D01*
X123191Y994498D01*
X120880Y995455D01*
X118400Y995782D01*
D02*
G37*
G36*
X93000D02*
X90520Y995455D01*
X88209Y994498D01*
X86224Y992975D01*
X84702Y990991D01*
X83744Y988680D01*
X83418Y986200D01*
X83744Y983720D01*
X84702Y981409D01*
X86224Y979425D01*
X88209Y977902D01*
X90520Y976945D01*
X93000Y976618D01*
X95480Y976945D01*
X97791Y977902D01*
X99775Y979425D01*
X101298Y981409D01*
X102255Y983720D01*
X102582Y986200D01*
X102255Y988680D01*
X101298Y990991D01*
X99775Y992975D01*
X97791Y994498D01*
X95480Y995455D01*
X93000Y995782D01*
D02*
G37*
G36*
X278100Y995132D02*
X275620Y994806D01*
X273309Y993848D01*
X271325Y992325D01*
X269802Y990341D01*
X268845Y988030D01*
X268518Y985550D01*
X268845Y983070D01*
X269802Y980759D01*
X271325Y978774D01*
X273309Y977252D01*
X275620Y976294D01*
X278100Y975968D01*
X280580Y976294D01*
X282891Y977252D01*
X284876Y978774D01*
X286398Y980759D01*
X287355Y983070D01*
X287682Y985550D01*
X287355Y988030D01*
X286398Y990341D01*
X284876Y992325D01*
X282891Y993848D01*
X280580Y994806D01*
X278100Y995132D01*
D02*
G37*
G36*
X201900D02*
X199420Y994806D01*
X197109Y993848D01*
X195125Y992325D01*
X193602Y990341D01*
X192645Y988030D01*
X192318Y985550D01*
X192645Y983070D01*
X193602Y980759D01*
X195125Y978774D01*
X197109Y977252D01*
X199420Y976294D01*
X201900Y975968D01*
X204380Y976294D01*
X206691Y977252D01*
X208675Y978774D01*
X210198Y980759D01*
X211155Y983070D01*
X211482Y985550D01*
X211155Y988030D01*
X210198Y990341D01*
X208675Y992325D01*
X206691Y993848D01*
X204380Y994806D01*
X201900Y995132D01*
D02*
G37*
G36*
X361000Y979358D02*
X358854Y978931D01*
X357035Y977715D01*
X355819Y975896D01*
X355392Y973750D01*
X355819Y971604D01*
X357035Y969785D01*
X358854Y968569D01*
X361000Y968142D01*
X363146Y968569D01*
X364965Y969785D01*
X366181Y971604D01*
X366608Y973750D01*
X366181Y975896D01*
X364965Y977715D01*
X363146Y978931D01*
X361000Y979358D01*
D02*
G37*
G36*
X410500Y979108D02*
X408354Y978681D01*
X406535Y977465D01*
X405319Y975646D01*
X404892Y973500D01*
X405319Y971354D01*
X406535Y969535D01*
X408354Y968319D01*
X410500Y967892D01*
X412646Y968319D01*
X414465Y969535D01*
X415681Y971354D01*
X416108Y973500D01*
X415681Y975646D01*
X414465Y977465D01*
X412646Y978681D01*
X410500Y979108D01*
D02*
G37*
G36*
X801020Y970759D02*
Y962070D01*
X809709D01*
X809532Y963421D01*
X808520Y965863D01*
X806911Y967961D01*
X804813Y969570D01*
X802371Y970582D01*
X801020Y970759D01*
D02*
G37*
G36*
X775620D02*
Y962070D01*
X784309D01*
X784132Y963421D01*
X783120Y965863D01*
X781511Y967961D01*
X779413Y969570D01*
X776971Y970582D01*
X775620Y970759D01*
D02*
G37*
G36*
X798480D02*
X797129Y970582D01*
X794687Y969570D01*
X792589Y967961D01*
X790980Y965863D01*
X789968Y963421D01*
X789791Y962070D01*
X798480D01*
Y970759D01*
D02*
G37*
G36*
X773080D02*
X771729Y970582D01*
X769287Y969570D01*
X767189Y967961D01*
X765580Y965863D01*
X764568Y963421D01*
X764391Y962070D01*
X773080D01*
Y970759D01*
D02*
G37*
G36*
X119670D02*
Y962070D01*
X128359D01*
X128182Y963421D01*
X127170Y965863D01*
X125561Y967961D01*
X123463Y969570D01*
X121021Y970582D01*
X119670Y970759D01*
D02*
G37*
G36*
X94270D02*
Y962070D01*
X102959D01*
X102782Y963421D01*
X101770Y965863D01*
X100161Y967961D01*
X98063Y969570D01*
X95621Y970582D01*
X94270Y970759D01*
D02*
G37*
G36*
X91730D02*
X90379Y970582D01*
X87937Y969570D01*
X85839Y967961D01*
X84230Y965863D01*
X83218Y963421D01*
X83041Y962070D01*
X91730D01*
Y970759D01*
D02*
G37*
G36*
X117130D02*
X115779Y970582D01*
X113337Y969570D01*
X111239Y967961D01*
X109630Y965863D01*
X108618Y963421D01*
X108441Y962070D01*
X117130D01*
Y970759D01*
D02*
G37*
G36*
X652500Y966201D02*
X650354Y965774D01*
X648535Y964558D01*
X647319Y962739D01*
X646892Y960593D01*
X647319Y958447D01*
X648535Y956628D01*
X650354Y955412D01*
X652500Y954985D01*
X654646Y955412D01*
X656465Y956628D01*
X657681Y958447D01*
X658108Y960593D01*
X657681Y962739D01*
X656465Y964558D01*
X654646Y965774D01*
X652500Y966201D01*
D02*
G37*
G36*
X564500Y970608D02*
X562354Y970181D01*
X560535Y968965D01*
X559319Y967146D01*
X558892Y965000D01*
X559319Y962854D01*
X560535Y961035D01*
X562354Y959819D01*
X564500Y959392D01*
X566409Y959772D01*
X567127Y959235D01*
X567457Y958834D01*
X567142Y957250D01*
X567569Y955104D01*
X568785Y953285D01*
X570604Y952069D01*
X572750Y951642D01*
X574896Y952069D01*
X576715Y953285D01*
X577931Y955104D01*
X578358Y957250D01*
X577931Y959396D01*
X576715Y961215D01*
X574896Y962431D01*
X572750Y962858D01*
X570841Y962478D01*
X570123Y963015D01*
X569793Y963416D01*
X570108Y965000D01*
X569681Y967146D01*
X568465Y968965D01*
X566646Y970181D01*
X564500Y970608D01*
D02*
G37*
G36*
X128359Y959530D02*
X119670D01*
Y950841D01*
X121021Y951018D01*
X123463Y952030D01*
X125561Y953639D01*
X127170Y955737D01*
X128182Y958179D01*
X128359Y959530D01*
D02*
G37*
G36*
X102959D02*
X94270D01*
Y950841D01*
X95621Y951018D01*
X98063Y952030D01*
X100161Y953639D01*
X101770Y955737D01*
X102782Y958179D01*
X102959Y959530D01*
D02*
G37*
G36*
X809709Y959530D02*
X801020D01*
Y950841D01*
X802371Y951018D01*
X804813Y952030D01*
X806911Y953639D01*
X808520Y955737D01*
X809532Y958179D01*
X809709Y959530D01*
D02*
G37*
G36*
X784309D02*
X775620D01*
Y950841D01*
X776971Y951018D01*
X779413Y952030D01*
X781511Y953639D01*
X783120Y955737D01*
X784132Y958179D01*
X784309Y959530D01*
D02*
G37*
G36*
X798480D02*
X789790D01*
X789968Y958179D01*
X790980Y955737D01*
X792589Y953639D01*
X794687Y952030D01*
X797129Y951018D01*
X798480Y950841D01*
Y959530D01*
D02*
G37*
G36*
X773080D02*
X764390D01*
X764568Y958179D01*
X765580Y955737D01*
X767189Y953639D01*
X769287Y952030D01*
X771729Y951018D01*
X773080Y950841D01*
Y959530D01*
D02*
G37*
G36*
X117130Y959530D02*
X108441D01*
X108618Y958179D01*
X109630Y955737D01*
X111239Y953639D01*
X113337Y952030D01*
X115779Y951018D01*
X117130Y950841D01*
Y959530D01*
D02*
G37*
G36*
X91730D02*
X83041D01*
X83218Y958179D01*
X84230Y955737D01*
X85839Y953639D01*
X87937Y952030D01*
X90379Y951018D01*
X91730Y950841D01*
Y959530D01*
D02*
G37*
G36*
X278100Y969732D02*
X275620Y969406D01*
X273309Y968448D01*
X271325Y966925D01*
X269802Y964941D01*
X268845Y962630D01*
X268518Y960150D01*
X268845Y957670D01*
X269802Y955359D01*
X271325Y953374D01*
X273309Y951852D01*
X275620Y950894D01*
X278100Y950568D01*
X280580Y950894D01*
X282891Y951852D01*
X284876Y953374D01*
X286398Y955359D01*
X287355Y957670D01*
X287682Y960150D01*
X287355Y962630D01*
X286398Y964941D01*
X284876Y966925D01*
X282891Y968448D01*
X280580Y969406D01*
X278100Y969732D01*
D02*
G37*
G36*
X201900D02*
X199420Y969406D01*
X197109Y968448D01*
X195125Y966925D01*
X193602Y964941D01*
X192645Y962630D01*
X192318Y960150D01*
X192645Y957670D01*
X193602Y955359D01*
X195125Y953374D01*
X197109Y951852D01*
X199420Y950894D01*
X201900Y950568D01*
X204380Y950894D01*
X206691Y951852D01*
X208675Y953374D01*
X210198Y955359D01*
X211155Y957670D01*
X211482Y960150D01*
X211155Y962630D01*
X210198Y964941D01*
X208675Y966925D01*
X206691Y968448D01*
X204380Y969406D01*
X201900Y969732D01*
D02*
G37*
G36*
X722950Y1050250D02*
X703950D01*
Y1031250D01*
X713936D01*
Y969622D01*
X689519Y945205D01*
X688750Y945358D01*
X686604Y944931D01*
X684785Y943715D01*
X683569Y941896D01*
X683142Y939750D01*
X683569Y937604D01*
X684785Y935785D01*
X686604Y934569D01*
X688750Y934142D01*
X690896Y934569D01*
X692715Y935785D01*
X693931Y937604D01*
X694358Y939750D01*
X694205Y940519D01*
X719593Y965907D01*
X720311Y966982D01*
X720564Y968250D01*
Y1031250D01*
X722950D01*
Y1050250D01*
D02*
G37*
G36*
X638750Y954358D02*
X636604Y953931D01*
X634785Y952715D01*
X633569Y950896D01*
X633142Y948750D01*
X633569Y946604D01*
X634785Y944785D01*
X636604Y943569D01*
X638750Y943142D01*
X640896Y943569D01*
X642715Y944785D01*
X643931Y946604D01*
X644358Y948750D01*
X643931Y950896D01*
X642715Y952715D01*
X640896Y953931D01*
X638750Y954358D01*
D02*
G37*
G36*
X597250Y952608D02*
X595104Y952181D01*
X593285Y950965D01*
X592069Y949146D01*
X591642Y947000D01*
X592069Y944854D01*
X593285Y943035D01*
X595104Y941819D01*
X597250Y941392D01*
X599396Y941819D01*
X601215Y943035D01*
X602431Y944854D01*
X602858Y947000D01*
X602431Y949146D01*
X601215Y950965D01*
X599396Y952181D01*
X597250Y952608D01*
D02*
G37*
G36*
X610500Y950358D02*
X608354Y949931D01*
X606535Y948715D01*
X605319Y946896D01*
X604892Y944750D01*
X605319Y942604D01*
X606535Y940785D01*
X608354Y939569D01*
X610500Y939142D01*
X612646Y939569D01*
X614465Y940785D01*
X615681Y942604D01*
X616108Y944750D01*
X615681Y946896D01*
X614465Y948715D01*
X612646Y949931D01*
X610500Y950358D01*
D02*
G37*
G36*
X466750Y947358D02*
X464604Y946931D01*
X462785Y945715D01*
X461569Y943896D01*
X461142Y941750D01*
X461569Y939604D01*
X462785Y937785D01*
X464604Y936569D01*
X466750Y936142D01*
X468896Y936569D01*
X470715Y937785D01*
X471931Y939604D01*
X472358Y941750D01*
X471931Y943896D01*
X470715Y945715D01*
X468896Y946931D01*
X466750Y947358D01*
D02*
G37*
G36*
X372000Y946108D02*
X369854Y945681D01*
X368035Y944465D01*
X366819Y942646D01*
X366392Y940500D01*
X366819Y938354D01*
X368035Y936535D01*
X369854Y935319D01*
X372000Y934892D01*
X374146Y935319D01*
X375965Y936535D01*
X377181Y938354D01*
X377608Y940500D01*
X377181Y942646D01*
X375965Y944465D01*
X374146Y945681D01*
X372000Y946108D01*
D02*
G37*
G36*
X127900Y944900D02*
X108900D01*
Y925900D01*
X127900D01*
Y944900D01*
D02*
G37*
G36*
X799750Y944982D02*
X797270Y944656D01*
X794959Y943698D01*
X792974Y942176D01*
X791452Y940191D01*
X790495Y937880D01*
X790168Y935400D01*
X790495Y932920D01*
X791452Y930609D01*
X792974Y928625D01*
X794959Y927102D01*
X797270Y926145D01*
X799750Y925818D01*
X802230Y926145D01*
X804541Y927102D01*
X806525Y928625D01*
X808048Y930609D01*
X809005Y932920D01*
X809332Y935400D01*
X809005Y937880D01*
X808048Y940191D01*
X806525Y942176D01*
X804541Y943698D01*
X802230Y944656D01*
X799750Y944982D01*
D02*
G37*
G36*
X774350D02*
X771870Y944656D01*
X769559Y943698D01*
X767574Y942176D01*
X766052Y940191D01*
X765095Y937880D01*
X764768Y935400D01*
X765095Y932920D01*
X766052Y930609D01*
X767574Y928625D01*
X769559Y927102D01*
X771870Y926145D01*
X774350Y925818D01*
X776830Y926145D01*
X779141Y927102D01*
X781125Y928625D01*
X782648Y930609D01*
X783605Y932920D01*
X783932Y935400D01*
X783605Y937880D01*
X782648Y940191D01*
X781125Y942176D01*
X779141Y943698D01*
X776830Y944656D01*
X774350Y944982D01*
D02*
G37*
G36*
X93000D02*
X90520Y944656D01*
X88209Y943698D01*
X86224Y942176D01*
X84702Y940191D01*
X83744Y937880D01*
X83418Y935400D01*
X83744Y932920D01*
X84702Y930609D01*
X86224Y928625D01*
X88209Y927102D01*
X90520Y926145D01*
X93000Y925818D01*
X95480Y926145D01*
X97791Y927102D01*
X99775Y928625D01*
X101298Y930609D01*
X102255Y932920D01*
X102582Y935400D01*
X102255Y937880D01*
X101298Y940191D01*
X99775Y942176D01*
X97791Y943698D01*
X95480Y944656D01*
X93000Y944982D01*
D02*
G37*
G36*
X540000Y930608D02*
X537854Y930181D01*
X536035Y928965D01*
X534819Y927146D01*
X534392Y925000D01*
X534819Y922854D01*
X536035Y921035D01*
X537854Y919819D01*
X540000Y919392D01*
X542146Y919819D01*
X543965Y921035D01*
X545181Y922854D01*
X545608Y925000D01*
X545181Y927146D01*
X543965Y928965D01*
X542146Y930181D01*
X540000Y930608D01*
D02*
G37*
G36*
X624750Y926858D02*
X622604Y926431D01*
X620785Y925215D01*
X619569Y923396D01*
X619142Y921250D01*
X619569Y919104D01*
X620785Y917285D01*
X622604Y916069D01*
X624750Y915642D01*
X626896Y916069D01*
X628715Y917285D01*
X629931Y919104D01*
X630358Y921250D01*
X629931Y923396D01*
X628715Y925215D01*
X626896Y926431D01*
X624750Y926858D01*
D02*
G37*
G36*
X586800Y1050250D02*
X567800D01*
Y1035576D01*
X544087Y1011863D01*
X543424Y1010871D01*
X543191Y1009700D01*
X543191Y1009700D01*
Y954500D01*
X543191Y954500D01*
X543424Y953329D01*
X544087Y952337D01*
X570219Y926205D01*
Y909115D01*
X569313Y908509D01*
X569204Y908347D01*
X567551Y908159D01*
X566396Y908931D01*
X564250Y909358D01*
X562104Y908931D01*
X560285Y907715D01*
X559069Y905896D01*
X558642Y903750D01*
X559069Y901604D01*
X560010Y900195D01*
X560270Y899752D01*
X559753Y898612D01*
X558785Y897965D01*
X557569Y896146D01*
X557142Y894000D01*
X557569Y891854D01*
X558785Y890035D01*
X560604Y888819D01*
X562750Y888392D01*
X564896Y888819D01*
X566715Y890035D01*
X567931Y891854D01*
X568358Y894000D01*
X567931Y896146D01*
X566990Y897555D01*
X566730Y897998D01*
X567247Y899138D01*
X568215Y899785D01*
X568324Y899947D01*
X569977Y900135D01*
X571132Y899363D01*
X573278Y898936D01*
X575424Y899363D01*
X577243Y900579D01*
X578459Y902398D01*
X578886Y904544D01*
X578459Y906690D01*
X577243Y908509D01*
X576337Y909115D01*
Y927472D01*
X576337Y927472D01*
X576104Y928643D01*
X575441Y929635D01*
X575441Y929635D01*
X549309Y955767D01*
Y1008433D01*
X572126Y1031250D01*
X586800D01*
Y1050250D01*
D02*
G37*
G36*
X310750Y914358D02*
X308604Y913931D01*
X306785Y912715D01*
X305569Y910896D01*
X305142Y908750D01*
X305569Y906604D01*
X306785Y904785D01*
X308604Y903569D01*
X310750Y903142D01*
X312896Y903569D01*
X314715Y904785D01*
X315931Y906604D01*
X316358Y908750D01*
X315931Y910896D01*
X314715Y912715D01*
X312896Y913931D01*
X310750Y914358D01*
D02*
G37*
G36*
X747250Y906858D02*
X745104Y906431D01*
X743285Y905215D01*
X742069Y903396D01*
X741642Y901250D01*
X742069Y899104D01*
X743285Y897285D01*
X745104Y896069D01*
X747250Y895642D01*
X749396Y896069D01*
X751215Y897285D01*
X752431Y899104D01*
X752858Y901250D01*
X752431Y903396D01*
X751215Y905215D01*
X749396Y906431D01*
X747250Y906858D01*
D02*
G37*
G36*
X605750Y904858D02*
X603604Y904431D01*
X601785Y903215D01*
X600569Y901396D01*
X600142Y899250D01*
X600569Y897104D01*
X601785Y895285D01*
X603604Y894069D01*
X605750Y893642D01*
X607896Y894069D01*
X609715Y895285D01*
X610931Y897104D01*
X611358Y899250D01*
X610931Y901396D01*
X609715Y903215D01*
X607896Y904431D01*
X605750Y904858D01*
D02*
G37*
G36*
X684727Y897631D02*
X682581Y897204D01*
X680762Y895988D01*
X679546Y894169D01*
X679119Y892023D01*
X679546Y889877D01*
X680762Y888058D01*
X682581Y886842D01*
X684727Y886415D01*
X686873Y886842D01*
X688692Y888058D01*
X689908Y889877D01*
X690335Y892023D01*
X689908Y894169D01*
X688692Y895988D01*
X686873Y897204D01*
X684727Y897631D01*
D02*
G37*
G36*
X759000Y897358D02*
X756854Y896931D01*
X755035Y895715D01*
X753819Y893896D01*
X753392Y891750D01*
X753819Y889604D01*
X755035Y887785D01*
X756854Y886569D01*
X759000Y886142D01*
X761146Y886569D01*
X762965Y887785D01*
X764181Y889604D01*
X764608Y891750D01*
X764181Y893896D01*
X762965Y895715D01*
X761146Y896931D01*
X759000Y897358D01*
D02*
G37*
G36*
X74020Y893455D02*
Y885270D01*
X82205D01*
X82044Y886490D01*
X81083Y888811D01*
X79554Y890804D01*
X77561Y892333D01*
X75240Y893295D01*
X74020Y893455D01*
D02*
G37*
G36*
X71480Y893455D02*
X70259Y893295D01*
X67939Y892333D01*
X65946Y890804D01*
X64417Y888811D01*
X63456Y886490D01*
X63295Y885270D01*
X71480D01*
Y893455D01*
D02*
G37*
G36*
X707534Y892651D02*
X705388Y892224D01*
X703569Y891009D01*
X702354Y889189D01*
X701927Y887043D01*
X702354Y884897D01*
X703569Y883078D01*
X705388Y881862D01*
X707534Y881435D01*
X709680Y881862D01*
X711500Y883078D01*
X712715Y884897D01*
X713142Y887043D01*
X712715Y889189D01*
X711500Y891009D01*
X709680Y892224D01*
X707534Y892651D01*
D02*
G37*
G36*
X594441Y887299D02*
X592295Y886872D01*
X590476Y885657D01*
X589261Y883838D01*
X588834Y881692D01*
X589261Y879546D01*
X590476Y877726D01*
X592295Y876511D01*
X594441Y876084D01*
X596587Y876511D01*
X598407Y877726D01*
X599622Y879546D01*
X600049Y881692D01*
X599622Y883838D01*
X598407Y885657D01*
X596587Y886872D01*
X594441Y887299D01*
D02*
G37*
G36*
X717250Y903858D02*
X715104Y903431D01*
X713285Y902215D01*
X712069Y900396D01*
X711642Y898250D01*
X712069Y896104D01*
X713285Y894285D01*
X715104Y893069D01*
X717250Y892642D01*
X718786Y892948D01*
X719881Y892010D01*
X719898Y891973D01*
X720319Y889854D01*
X721535Y888035D01*
X723354Y886819D01*
X725500Y886392D01*
X726012Y886494D01*
X726637Y885324D01*
X716377Y875064D01*
X648373D01*
X632955Y890481D01*
X633108Y891250D01*
X632681Y893396D01*
X631465Y895215D01*
X629646Y896431D01*
X627500Y896858D01*
X625354Y896431D01*
X623535Y895215D01*
X622749Y894040D01*
X621251D01*
X620465Y895215D01*
X618646Y896431D01*
X616500Y896858D01*
X614354Y896431D01*
X612535Y895215D01*
X611319Y893396D01*
X610892Y891250D01*
X611319Y889104D01*
X612535Y887285D01*
X614354Y886069D01*
X616500Y885642D01*
X618646Y886069D01*
X620465Y887285D01*
X621251Y888460D01*
X622749D01*
X623535Y887285D01*
X625354Y886069D01*
X627500Y885642D01*
X628269Y885795D01*
X644657Y869407D01*
X645732Y868689D01*
X647000Y868436D01*
X717750D01*
X719018Y868689D01*
X720093Y869407D01*
X737231Y886545D01*
X738000Y886392D01*
X740146Y886819D01*
X741965Y888035D01*
X743181Y889854D01*
X743608Y892000D01*
X743181Y894146D01*
X741965Y895965D01*
X740146Y897181D01*
X738000Y897608D01*
X735854Y897181D01*
X734035Y895965D01*
X732819Y894146D01*
X732426Y892169D01*
X732321Y892087D01*
X731052Y892586D01*
X730973Y892680D01*
X730681Y894146D01*
X729465Y895965D01*
X727646Y897181D01*
X725500Y897608D01*
X723964Y897302D01*
X722869Y898240D01*
X722852Y898277D01*
X722431Y900396D01*
X721215Y902215D01*
X719396Y903431D01*
X717250Y903858D01*
D02*
G37*
G36*
X71480Y882730D02*
X63295D01*
X63456Y881510D01*
X64417Y879189D01*
X65946Y877196D01*
X67939Y875667D01*
X70259Y874706D01*
X71480Y874545D01*
Y882730D01*
D02*
G37*
G36*
X82205D02*
X74020D01*
Y874545D01*
X75240Y874706D01*
X77561Y875667D01*
X79554Y877196D01*
X81083Y879189D01*
X82044Y881510D01*
X82205Y882730D01*
D02*
G37*
G36*
X264250Y868789D02*
X229402D01*
X229398Y868788D01*
X229393Y868789D01*
X229006Y868710D01*
X228622Y868634D01*
X228618Y868631D01*
X228613Y868630D01*
X228289Y868411D01*
X227960Y868192D01*
X227958Y868188D01*
X227953Y868185D01*
X227060Y867282D01*
X227057Y867278D01*
X227053Y867275D01*
X226838Y866946D01*
X226621Y866619D01*
X226620Y866614D01*
X226617Y866610D01*
X226545Y866226D01*
X226470Y865838D01*
X226471Y865833D01*
X226470Y865828D01*
X226711Y840991D01*
Y840750D01*
X226866Y839970D01*
X227308Y839308D01*
X227970Y838866D01*
X228750Y838711D01*
X229906D01*
Y830516D01*
X229906Y830515D01*
X230217Y828955D01*
X231101Y827632D01*
X260616Y798116D01*
X260616Y798116D01*
X261939Y797232D01*
X263500Y796922D01*
X504561D01*
X584422Y717061D01*
Y595000D01*
X584422Y595000D01*
X584732Y593439D01*
X585616Y592116D01*
X598422Y579311D01*
Y565318D01*
X598402Y565095D01*
X598387Y564994D01*
X597319Y563396D01*
X596892Y561250D01*
X597319Y559104D01*
X598387Y557506D01*
X598400Y557423D01*
X598422Y557102D01*
Y530344D01*
X598382Y529999D01*
X598379Y529983D01*
X597819Y529146D01*
X597392Y527000D01*
X597819Y524854D01*
X598887Y523256D01*
X598899Y523173D01*
X598922Y522852D01*
Y515141D01*
X598285Y514715D01*
X597069Y512896D01*
X596642Y510750D01*
X597069Y508604D01*
X598285Y506785D01*
X600104Y505569D01*
X602250Y505142D01*
X604396Y505569D01*
X606215Y506785D01*
X607431Y508604D01*
X607858Y510750D01*
X607431Y512896D01*
X607078Y513424D01*
Y522932D01*
X607098Y523155D01*
X607113Y523256D01*
X608181Y524854D01*
X608608Y527000D01*
X608181Y529146D01*
X606965Y530965D01*
X606612Y531202D01*
X606578Y531581D01*
Y557182D01*
X606598Y557405D01*
X606613Y557506D01*
X607681Y559104D01*
X608108Y561250D01*
X607681Y563396D01*
X606613Y564994D01*
X606600Y565077D01*
X606578Y565398D01*
Y581000D01*
X606578Y581000D01*
X606268Y582561D01*
X605384Y583884D01*
X605384Y583884D01*
X592578Y596689D01*
Y718750D01*
X592578Y718750D01*
X592268Y720311D01*
X591384Y721634D01*
X509134Y803884D01*
X507811Y804768D01*
X506250Y805078D01*
X506250Y805078D01*
X265189D01*
X238063Y832205D01*
Y838711D01*
X242680D01*
Y834992D01*
X242680Y834991D01*
X242991Y833431D01*
X243875Y832108D01*
X266616Y809366D01*
X267939Y808482D01*
X269500Y808172D01*
X269500Y808172D01*
X513311D01*
X599172Y722311D01*
Y697068D01*
X599152Y696845D01*
X599137Y696744D01*
X598069Y695146D01*
X597642Y693000D01*
X598069Y690854D01*
X599002Y689458D01*
X599010Y689415D01*
X599029Y689285D01*
X599047Y689001D01*
Y663097D01*
X599045Y663075D01*
X599023Y662905D01*
X599017Y662870D01*
X598785Y662715D01*
X597569Y660896D01*
X597142Y658750D01*
X597569Y656604D01*
X598637Y655006D01*
X598649Y654923D01*
X598672Y654602D01*
Y646007D01*
X598637Y645682D01*
X598622Y645597D01*
X597819Y644396D01*
X597392Y642250D01*
X597819Y640104D01*
X599035Y638285D01*
X600854Y637069D01*
X603000Y636642D01*
X605146Y637069D01*
X606965Y638285D01*
X608181Y640104D01*
X608608Y642250D01*
X608181Y644396D01*
X606965Y646215D01*
X606856Y646288D01*
X606828Y646642D01*
Y654682D01*
X606848Y654905D01*
X606863Y655006D01*
X607931Y656604D01*
X608358Y658750D01*
X607931Y660896D01*
X607253Y661910D01*
X607248Y661934D01*
X607236Y662009D01*
X607203Y662527D01*
Y688809D01*
X607226Y689051D01*
X608431Y690854D01*
X608858Y693000D01*
X608431Y695146D01*
X607363Y696744D01*
X607351Y696827D01*
X607328Y697148D01*
Y724000D01*
X607328Y724000D01*
X607018Y725561D01*
X606134Y726884D01*
X517884Y815134D01*
X516561Y816018D01*
X515000Y816328D01*
X515000Y816328D01*
X271189D01*
X250837Y836681D01*
Y838711D01*
X262521D01*
X278366Y822866D01*
X278366Y822866D01*
X279689Y821982D01*
X281250Y821672D01*
X596682D01*
X596898Y821653D01*
X596922Y821358D01*
Y795818D01*
X596902Y795595D01*
X596887Y795494D01*
X595819Y793896D01*
X595392Y791750D01*
X595819Y789604D01*
X596887Y788006D01*
X596899Y787923D01*
X596922Y787602D01*
Y779974D01*
X596535Y779715D01*
X595319Y777896D01*
X594892Y775750D01*
X595319Y773604D01*
X596535Y771785D01*
X598354Y770569D01*
X600500Y770142D01*
X602646Y770569D01*
X604465Y771785D01*
X605681Y773604D01*
X606108Y775750D01*
X605681Y777896D01*
X605078Y778798D01*
Y787682D01*
X605098Y787905D01*
X605113Y788006D01*
X606181Y789604D01*
X606608Y791750D01*
X606181Y793896D01*
X605113Y795494D01*
X605101Y795577D01*
X605078Y795898D01*
Y821993D01*
X605113Y822318D01*
X605128Y822403D01*
X605931Y823604D01*
X606358Y825750D01*
X605931Y827896D01*
X604715Y829715D01*
X602896Y830931D01*
X600750Y831358D01*
X598604Y830931D01*
X597006Y829863D01*
X596923Y829850D01*
X596602Y829828D01*
X282939D01*
X266289Y846479D01*
Y866750D01*
X266134Y867530D01*
X265692Y868192D01*
X265030Y868634D01*
X264250Y868789D01*
D02*
G37*
G36*
X814000Y872858D02*
X811854Y872431D01*
X810035Y871215D01*
X808819Y869396D01*
X808392Y867250D01*
X808819Y865104D01*
X810035Y863285D01*
X811854Y862069D01*
X814000Y861642D01*
X816146Y862069D01*
X817965Y863285D01*
X819181Y865104D01*
X819608Y867250D01*
X819181Y869396D01*
X817965Y871215D01*
X816146Y872431D01*
X814000Y872858D01*
D02*
G37*
G36*
X762500Y859358D02*
X760354Y858931D01*
X758535Y857715D01*
X757319Y855896D01*
X756892Y853750D01*
X757319Y851604D01*
X758535Y849785D01*
X760354Y848569D01*
X762500Y848142D01*
X764646Y848569D01*
X766465Y849785D01*
X767681Y851604D01*
X768108Y853750D01*
X767681Y855896D01*
X766465Y857715D01*
X764646Y858931D01*
X762500Y859358D01*
D02*
G37*
G36*
X81750Y843000D02*
X63750D01*
Y825000D01*
X81750D01*
Y843000D01*
D02*
G37*
G36*
X513500Y774539D02*
X478652D01*
X478647Y774538D01*
X478643Y774539D01*
X478256Y774460D01*
X477872Y774384D01*
X477868Y774381D01*
X477863Y774380D01*
X477539Y774161D01*
X477211Y773942D01*
X477208Y773938D01*
X477203Y773935D01*
X476310Y773033D01*
X476307Y773028D01*
X476303Y773026D01*
X476088Y772697D01*
X475871Y772369D01*
X475870Y772364D01*
X475867Y772360D01*
X475795Y771976D01*
X475719Y771588D01*
X475721Y771583D01*
X475720Y771578D01*
X475961Y746741D01*
Y746500D01*
X476116Y745720D01*
X476558Y745058D01*
X477220Y744616D01*
X478000Y744461D01*
X492054D01*
X531940Y704576D01*
Y508750D01*
X532180Y506923D01*
X532886Y505220D01*
X534007Y503758D01*
X580758Y457007D01*
X582220Y455886D01*
X583923Y455180D01*
X585750Y454940D01*
X710750D01*
X712577Y455180D01*
X714280Y455886D01*
X715742Y457007D01*
X730242Y471508D01*
X731365Y472970D01*
X732070Y474673D01*
X732310Y476500D01*
Y479250D01*
Y610000D01*
Y743500D01*
X732070Y745327D01*
X731365Y747030D01*
X730242Y748493D01*
X728780Y749614D01*
X727077Y750320D01*
X725250Y750560D01*
X723423Y750320D01*
X721720Y749614D01*
X720258Y748493D01*
X719136Y747030D01*
X718430Y745327D01*
X718190Y743500D01*
Y610000D01*
Y479425D01*
X707825Y469060D01*
X588675D01*
X546060Y511674D01*
Y707500D01*
X545820Y709327D01*
X545115Y711030D01*
X543992Y712493D01*
X513151Y743334D01*
X513767Y744514D01*
X514280Y744616D01*
X514942Y745058D01*
X515384Y745720D01*
X515539Y746500D01*
Y772500D01*
X515384Y773280D01*
X514942Y773942D01*
X514280Y774384D01*
X513500Y774539D01*
D02*
G37*
G36*
X591250Y1001858D02*
X589104Y1001431D01*
X587285Y1000215D01*
X586069Y998396D01*
X585642Y996250D01*
X586069Y994104D01*
X587285Y992285D01*
X589104Y991069D01*
X591250Y990642D01*
X592019Y990795D01*
X617936Y964877D01*
Y945000D01*
X618189Y943732D01*
X618907Y942657D01*
X635907Y925657D01*
X636982Y924939D01*
X638250Y924686D01*
X741127D01*
X774436Y891377D01*
Y747401D01*
X773785Y746965D01*
X772569Y745146D01*
X772142Y743000D01*
X772569Y740854D01*
X773785Y739035D01*
X775604Y737819D01*
X777750Y737392D01*
X779896Y737819D01*
X781715Y739035D01*
X782931Y740854D01*
X783358Y743000D01*
X782931Y745146D01*
X781715Y746965D01*
X781064Y747401D01*
Y892750D01*
X780811Y894018D01*
X780093Y895093D01*
X744843Y930343D01*
X743768Y931061D01*
X742500Y931314D01*
X639623D01*
X624564Y946373D01*
Y966250D01*
X624311Y967518D01*
X623593Y968593D01*
X596705Y995481D01*
X596858Y996250D01*
X596431Y998396D01*
X595215Y1000215D01*
X593396Y1001431D01*
X591250Y1001858D01*
D02*
G37*
G36*
X272500Y742858D02*
X270354Y742431D01*
X268535Y741215D01*
X267319Y739396D01*
X266892Y737250D01*
X267319Y735104D01*
X268535Y733285D01*
X270354Y732069D01*
X272500Y731642D01*
X274646Y732069D01*
X276465Y733285D01*
X277681Y735104D01*
X278108Y737250D01*
X277681Y739396D01*
X276465Y741215D01*
X274646Y742431D01*
X272500Y742858D01*
D02*
G37*
G36*
X773000Y919858D02*
X770854Y919431D01*
X769035Y918215D01*
X767819Y916396D01*
X767392Y914250D01*
X767819Y912104D01*
X769035Y910285D01*
X770854Y909069D01*
X773000Y908642D01*
X773769Y908795D01*
X790936Y891627D01*
Y755750D01*
X791189Y754482D01*
X791907Y753407D01*
X814545Y730769D01*
X814392Y730000D01*
X814819Y727854D01*
X816035Y726035D01*
X817854Y724819D01*
X820000Y724392D01*
X822146Y724819D01*
X823965Y726035D01*
X825181Y727854D01*
X825608Y730000D01*
X825181Y732146D01*
X823965Y733965D01*
X822146Y735181D01*
X820000Y735608D01*
X819231Y735455D01*
X797564Y757122D01*
Y893000D01*
X797311Y894268D01*
X796593Y895343D01*
X778455Y913481D01*
X778608Y914250D01*
X778181Y916396D01*
X776965Y918215D01*
X775146Y919431D01*
X773000Y919858D01*
D02*
G37*
G36*
X176000Y711608D02*
X173854Y711181D01*
X172035Y709965D01*
X170819Y708146D01*
X170392Y706000D01*
X170819Y703854D01*
X172035Y702035D01*
X173854Y700819D01*
X176000Y700392D01*
X178146Y700819D01*
X179965Y702035D01*
X181181Y703854D01*
X181608Y706000D01*
X181181Y708146D01*
X179965Y709965D01*
X178146Y711181D01*
X176000Y711608D01*
D02*
G37*
G36*
X495270Y631955D02*
Y623770D01*
X503455D01*
X503294Y624990D01*
X502333Y627311D01*
X500804Y629304D01*
X498811Y630833D01*
X496491Y631794D01*
X495270Y631955D01*
D02*
G37*
G36*
X492730D02*
X491510Y631794D01*
X489189Y630833D01*
X487196Y629304D01*
X485667Y627311D01*
X484706Y624990D01*
X484545Y623770D01*
X492730D01*
Y631955D01*
D02*
G37*
G36*
X453000Y631500D02*
X435000D01*
Y613500D01*
X453000D01*
Y631500D01*
D02*
G37*
G36*
X503455Y621230D02*
X495270D01*
Y613045D01*
X496491Y613206D01*
X498811Y614167D01*
X500804Y615696D01*
X502333Y617689D01*
X503294Y620010D01*
X503455Y621230D01*
D02*
G37*
G36*
X492730D02*
X484545D01*
X484706Y620010D01*
X485667Y617689D01*
X487196Y615696D01*
X489189Y614167D01*
X491510Y613206D01*
X492730Y613045D01*
Y621230D01*
D02*
G37*
G36*
X830250Y613108D02*
X828104Y612681D01*
X826285Y611465D01*
X825069Y609646D01*
X824642Y607500D01*
X825069Y605354D01*
X826285Y603535D01*
X828104Y602319D01*
X830250Y601892D01*
X832396Y602319D01*
X834215Y603535D01*
X835431Y605354D01*
X835858Y607500D01*
X835431Y609646D01*
X834215Y611465D01*
X832396Y612681D01*
X830250Y613108D01*
D02*
G37*
G36*
X750500Y598108D02*
X748354Y597681D01*
X746535Y596465D01*
X745319Y594646D01*
X744892Y592500D01*
X745319Y590354D01*
X746535Y588535D01*
X748354Y587319D01*
X750500Y586892D01*
X752646Y587319D01*
X754465Y588535D01*
X755681Y590354D01*
X756108Y592500D01*
X755681Y594646D01*
X754465Y596465D01*
X752646Y597681D01*
X750500Y598108D01*
D02*
G37*
G36*
X105520Y445455D02*
Y437270D01*
X113705D01*
X113545Y438490D01*
X112583Y440811D01*
X111054Y442804D01*
X109061Y444333D01*
X106741Y445294D01*
X105520Y445455D01*
D02*
G37*
G36*
X102980D02*
X101760Y445294D01*
X99439Y444333D01*
X97446Y442804D01*
X95917Y440811D01*
X94956Y438490D01*
X94795Y437270D01*
X102980D01*
Y445455D01*
D02*
G37*
G36*
X113705Y434730D02*
X105520D01*
Y426545D01*
X106741Y426706D01*
X109061Y427667D01*
X111054Y429196D01*
X112583Y431189D01*
X113545Y433510D01*
X113705Y434730D01*
D02*
G37*
G36*
X102980D02*
X94795D01*
X94956Y433510D01*
X95917Y431189D01*
X97446Y429196D01*
X99439Y427667D01*
X101760Y426706D01*
X102980Y426545D01*
Y434730D01*
D02*
G37*
G36*
X825420Y371950D02*
Y355520D01*
X834398D01*
Y361870D01*
X834048Y364522D01*
X833025Y366994D01*
X831396Y369116D01*
X829274Y370745D01*
X826802Y371768D01*
X825420Y371950D01*
D02*
G37*
G36*
X707470D02*
Y355520D01*
X716448D01*
Y361870D01*
X716098Y364522D01*
X715075Y366994D01*
X713446Y369116D01*
X711324Y370745D01*
X708852Y371768D01*
X707470Y371950D01*
D02*
G37*
G36*
X589520D02*
Y355520D01*
X598498D01*
Y361870D01*
X598148Y364522D01*
X597125Y366994D01*
X595496Y369116D01*
X593374Y370745D01*
X590902Y371768D01*
X589520Y371950D01*
D02*
G37*
G36*
X471570D02*
Y355520D01*
X480548D01*
Y361870D01*
X480199Y364522D01*
X479175Y366994D01*
X477546Y369116D01*
X475424Y370745D01*
X472952Y371768D01*
X471570Y371950D01*
D02*
G37*
G36*
X353620D02*
Y355520D01*
X362598D01*
Y361870D01*
X362248Y364522D01*
X361225Y366994D01*
X359596Y369116D01*
X357474Y370745D01*
X355002Y371768D01*
X353620Y371950D01*
D02*
G37*
G36*
X235670D02*
Y355520D01*
X244648D01*
Y361870D01*
X244298Y364522D01*
X243275Y366994D01*
X241646Y369116D01*
X239524Y370745D01*
X237052Y371768D01*
X235670Y371950D01*
D02*
G37*
G36*
X822880Y371950D02*
X821498Y371768D01*
X819026Y370745D01*
X816904Y369116D01*
X815275Y366994D01*
X814251Y364522D01*
X813902Y361870D01*
Y355520D01*
X822880D01*
Y371950D01*
D02*
G37*
G36*
X704930D02*
X703548Y371768D01*
X701076Y370745D01*
X698954Y369116D01*
X697325Y366994D01*
X696301Y364522D01*
X695952Y361870D01*
Y355520D01*
X704930D01*
Y371950D01*
D02*
G37*
G36*
X586980D02*
X585598Y371768D01*
X583126Y370745D01*
X581004Y369116D01*
X579375Y366994D01*
X578351Y364522D01*
X578002Y361870D01*
Y355520D01*
X586980D01*
Y371950D01*
D02*
G37*
G36*
X469030D02*
X467648Y371768D01*
X465176Y370745D01*
X463054Y369116D01*
X461425Y366994D01*
X460401Y364522D01*
X460052Y361870D01*
Y355520D01*
X469030D01*
Y371950D01*
D02*
G37*
G36*
X351080D02*
X349698Y371768D01*
X347226Y370745D01*
X345104Y369116D01*
X343475Y366994D01*
X342452Y364522D01*
X342102Y361870D01*
Y355520D01*
X351080D01*
Y371950D01*
D02*
G37*
G36*
X233130D02*
X231748Y371768D01*
X229276Y370745D01*
X227154Y369116D01*
X225525Y366994D01*
X224501Y364522D01*
X224152Y361870D01*
Y355520D01*
X233130D01*
Y371950D01*
D02*
G37*
G36*
X782970Y371490D02*
X763730D01*
Y337010D01*
X782970D01*
Y371490D01*
D02*
G37*
G36*
X665020D02*
X645780D01*
Y337010D01*
X665020D01*
Y371490D01*
D02*
G37*
G36*
X547070D02*
X527830D01*
Y337010D01*
X547070D01*
Y371490D01*
D02*
G37*
G36*
X429120D02*
X409880D01*
Y337010D01*
X429120D01*
Y371490D01*
D02*
G37*
G36*
X311170D02*
X291930D01*
Y337010D01*
X311170D01*
Y371490D01*
D02*
G37*
G36*
X193220D02*
X173980D01*
Y337010D01*
X193220D01*
Y371490D01*
D02*
G37*
G36*
X798750Y371573D02*
X796239Y371242D01*
X793898Y370273D01*
X791889Y368731D01*
X790347Y366721D01*
X789378Y364381D01*
X789047Y361870D01*
Y346630D01*
X789378Y344119D01*
X790347Y341778D01*
X791889Y339769D01*
X793898Y338227D01*
X796239Y337258D01*
X798750Y336927D01*
X801261Y337258D01*
X803601Y338227D01*
X805611Y339769D01*
X807153Y341778D01*
X808122Y344119D01*
X808453Y346630D01*
Y361870D01*
X808122Y364381D01*
X807153Y366721D01*
X805611Y368731D01*
X803601Y370273D01*
X801261Y371242D01*
X798750Y371573D01*
D02*
G37*
G36*
X680800D02*
X678289Y371242D01*
X675948Y370273D01*
X673939Y368731D01*
X672397Y366721D01*
X671428Y364381D01*
X671097Y361870D01*
Y346630D01*
X671428Y344119D01*
X672397Y341778D01*
X673939Y339769D01*
X675948Y338227D01*
X678289Y337258D01*
X680800Y336927D01*
X683311Y337258D01*
X685651Y338227D01*
X687661Y339769D01*
X689203Y341778D01*
X690172Y344119D01*
X690503Y346630D01*
Y361870D01*
X690172Y364381D01*
X689203Y366721D01*
X687661Y368731D01*
X685651Y370273D01*
X683311Y371242D01*
X680800Y371573D01*
D02*
G37*
G36*
X562850D02*
X560339Y371242D01*
X557998Y370273D01*
X555989Y368731D01*
X554447Y366721D01*
X553478Y364381D01*
X553147Y361870D01*
Y346630D01*
X553478Y344119D01*
X554447Y341778D01*
X555989Y339769D01*
X557998Y338227D01*
X560339Y337258D01*
X562850Y336927D01*
X565361Y337258D01*
X567701Y338227D01*
X569711Y339769D01*
X571253Y341778D01*
X572222Y344119D01*
X572553Y346630D01*
Y361870D01*
X572222Y364381D01*
X571253Y366721D01*
X569711Y368731D01*
X567701Y370273D01*
X565361Y371242D01*
X562850Y371573D01*
D02*
G37*
G36*
X444900D02*
X442389Y371242D01*
X440048Y370273D01*
X438039Y368731D01*
X436497Y366721D01*
X435528Y364381D01*
X435197Y361870D01*
Y346630D01*
X435528Y344119D01*
X436497Y341778D01*
X438039Y339769D01*
X440048Y338227D01*
X442389Y337258D01*
X444900Y336927D01*
X447411Y337258D01*
X449751Y338227D01*
X451761Y339769D01*
X453303Y341778D01*
X454272Y344119D01*
X454603Y346630D01*
Y361870D01*
X454272Y364381D01*
X453303Y366721D01*
X451761Y368731D01*
X449751Y370273D01*
X447411Y371242D01*
X444900Y371573D01*
D02*
G37*
G36*
X326950D02*
X324439Y371242D01*
X322099Y370273D01*
X320089Y368731D01*
X318547Y366721D01*
X317578Y364381D01*
X317247Y361870D01*
Y346630D01*
X317578Y344119D01*
X318547Y341778D01*
X320089Y339769D01*
X322099Y338227D01*
X324439Y337258D01*
X326950Y336927D01*
X329461Y337258D01*
X331801Y338227D01*
X333811Y339769D01*
X335353Y341778D01*
X336322Y344119D01*
X336653Y346630D01*
Y361870D01*
X336322Y364381D01*
X335353Y366721D01*
X333811Y368731D01*
X331801Y370273D01*
X329461Y371242D01*
X326950Y371573D01*
D02*
G37*
G36*
X209000D02*
X206489Y371242D01*
X204149Y370273D01*
X202139Y368731D01*
X200597Y366721D01*
X199628Y364381D01*
X199297Y361870D01*
Y346630D01*
X199628Y344119D01*
X200597Y341778D01*
X202139Y339769D01*
X204149Y338227D01*
X206489Y337258D01*
X209000Y336927D01*
X211511Y337258D01*
X213852Y338227D01*
X215861Y339769D01*
X217403Y341778D01*
X218372Y344119D01*
X218703Y346630D01*
Y361870D01*
X218372Y364381D01*
X217403Y366721D01*
X215861Y368731D01*
X213852Y370273D01*
X211511Y371242D01*
X209000Y371573D01*
D02*
G37*
G36*
X822880Y352980D02*
X813902D01*
Y346630D01*
X814251Y343978D01*
X815275Y341506D01*
X816904Y339384D01*
X819026Y337755D01*
X821498Y336731D01*
X822880Y336549D01*
Y352980D01*
D02*
G37*
G36*
X704930D02*
X695952D01*
Y346630D01*
X696301Y343978D01*
X697325Y341506D01*
X698954Y339384D01*
X701076Y337755D01*
X703548Y336731D01*
X704930Y336549D01*
Y352980D01*
D02*
G37*
G36*
X586980D02*
X578002D01*
Y346630D01*
X578351Y343978D01*
X579375Y341506D01*
X581004Y339384D01*
X583126Y337755D01*
X585598Y336731D01*
X586980Y336549D01*
Y352980D01*
D02*
G37*
G36*
X469030D02*
X460052D01*
Y346630D01*
X460401Y343978D01*
X461425Y341506D01*
X463054Y339384D01*
X465176Y337755D01*
X467648Y336731D01*
X469030Y336549D01*
Y352980D01*
D02*
G37*
G36*
X351080D02*
X342102D01*
Y346630D01*
X342452Y343978D01*
X343475Y341506D01*
X345104Y339384D01*
X347226Y337755D01*
X349698Y336731D01*
X351080Y336549D01*
Y352980D01*
D02*
G37*
G36*
X233130D02*
X224152D01*
Y346630D01*
X224501Y343978D01*
X225525Y341506D01*
X227154Y339384D01*
X229276Y337755D01*
X231748Y336731D01*
X233130Y336549D01*
Y352980D01*
D02*
G37*
G36*
X834398D02*
X825420D01*
Y336549D01*
X826802Y336731D01*
X829274Y337755D01*
X831396Y339384D01*
X833025Y341506D01*
X834048Y343978D01*
X834398Y346630D01*
Y352980D01*
D02*
G37*
G36*
X716448D02*
X707470D01*
Y336549D01*
X708852Y336731D01*
X711324Y337755D01*
X713446Y339384D01*
X715075Y341506D01*
X716098Y343978D01*
X716448Y346630D01*
Y352980D01*
D02*
G37*
G36*
X598498D02*
X589520D01*
Y336549D01*
X590902Y336731D01*
X593374Y337755D01*
X595496Y339384D01*
X597125Y341506D01*
X598148Y343978D01*
X598498Y346630D01*
Y352980D01*
D02*
G37*
G36*
X480548D02*
X471570D01*
Y336549D01*
X472952Y336731D01*
X475424Y337755D01*
X477546Y339384D01*
X479175Y341506D01*
X480199Y343978D01*
X480548Y346630D01*
Y352980D01*
D02*
G37*
G36*
X362598D02*
X353620D01*
Y336549D01*
X355002Y336731D01*
X357474Y337755D01*
X359596Y339384D01*
X361225Y341506D01*
X362248Y343978D01*
X362598Y346630D01*
Y352980D01*
D02*
G37*
G36*
X244648D02*
X235670D01*
Y336549D01*
X237052Y336731D01*
X239524Y337755D01*
X241646Y339384D01*
X243275Y341506D01*
X244298Y343978D01*
X244648Y346630D01*
Y352980D01*
D02*
G37*
G36*
X760550Y322905D02*
X718450D01*
Y321560D01*
X641800D01*
Y322905D01*
X599700D01*
Y321560D01*
X523050D01*
Y322905D01*
X480950D01*
Y321560D01*
X404300D01*
Y322905D01*
X362200D01*
Y321560D01*
X285550D01*
Y322905D01*
X243450D01*
Y321560D01*
X166800D01*
Y322905D01*
X124700D01*
Y290965D01*
X166800D01*
Y292310D01*
X243450D01*
Y290965D01*
X285550D01*
Y292310D01*
X362200D01*
Y290965D01*
X404300D01*
Y292310D01*
X480950D01*
Y290965D01*
X523050D01*
Y292310D01*
X599700D01*
Y290965D01*
X641800D01*
Y292310D01*
X718450D01*
Y290965D01*
X760550D01*
Y292310D01*
X786794D01*
X787140Y292355D01*
X789606Y292031D01*
X792227Y290945D01*
X794201Y289431D01*
X794413Y289154D01*
X825375Y258192D01*
Y102771D01*
X825420Y102425D01*
X825096Y99959D01*
X824010Y97338D01*
X822496Y95364D01*
X822219Y95152D01*
X818649Y91582D01*
X785781D01*
X785602Y92944D01*
X784428Y95778D01*
X782560Y98212D01*
X780126Y100080D01*
X777292Y101254D01*
X774250Y101655D01*
X771208Y101254D01*
X768374Y100080D01*
X765940Y98212D01*
X764072Y95778D01*
X762898Y92944D01*
X762719Y91582D01*
X751942D01*
X751329Y92329D01*
X750605Y92923D01*
X750602Y92944D01*
X749428Y95778D01*
X747560Y98212D01*
X745126Y100080D01*
X742292Y101254D01*
X739250Y101655D01*
X736208Y101254D01*
X733374Y100080D01*
X730940Y98212D01*
X729072Y95778D01*
X727898Y92944D01*
X727895Y92923D01*
X727171Y92329D01*
X726558Y91582D01*
X718132D01*
X718117Y91581D01*
X717154Y91772D01*
X716338Y92318D01*
X716329Y92329D01*
X715605Y92923D01*
X715602Y92944D01*
X714428Y95778D01*
X712560Y98212D01*
X710126Y100080D01*
X707292Y101254D01*
X704250Y101655D01*
X701208Y101254D01*
X698374Y100080D01*
X695940Y98212D01*
X694072Y95778D01*
X692898Y92944D01*
X692895Y92923D01*
X692171Y92329D01*
X690047Y89740D01*
X688468Y86787D01*
X687496Y83583D01*
X687168Y80250D01*
Y74500D01*
Y47082D01*
X651332D01*
Y80250D01*
X651004Y83583D01*
X650032Y86787D01*
X648453Y89740D01*
X646329Y92329D01*
X645605Y92923D01*
X645602Y92944D01*
X644428Y95778D01*
X642560Y98212D01*
X640126Y100080D01*
X637292Y101254D01*
X634250Y101655D01*
X631208Y101254D01*
X628374Y100080D01*
X625940Y98212D01*
X624072Y95778D01*
X622898Y92944D01*
X622895Y92923D01*
X622171Y92329D01*
X620047Y89740D01*
X618468Y86787D01*
X617496Y83583D01*
X617168Y80250D01*
Y47082D01*
X581332D01*
Y80250D01*
X581004Y83583D01*
X580032Y86787D01*
X578453Y89740D01*
X576329Y92329D01*
X575605Y92923D01*
X575602Y92944D01*
X574428Y95778D01*
X572560Y98212D01*
X570126Y100080D01*
X567292Y101254D01*
X564250Y101655D01*
X561208Y101254D01*
X558374Y100080D01*
X555940Y98212D01*
X554072Y95778D01*
X552898Y92944D01*
X552895Y92923D01*
X552171Y92329D01*
X550047Y89740D01*
X548468Y86787D01*
X547496Y83583D01*
X547168Y80250D01*
Y47082D01*
X511332D01*
Y80250D01*
X511004Y83583D01*
X510032Y86787D01*
X508453Y89740D01*
X506329Y92329D01*
X505605Y92923D01*
X505602Y92944D01*
X504428Y95778D01*
X502560Y98212D01*
X500126Y100080D01*
X497292Y101254D01*
X494250Y101655D01*
X491208Y101254D01*
X488374Y100080D01*
X485940Y98212D01*
X484072Y95778D01*
X482898Y92944D01*
X482895Y92923D01*
X482171Y92329D01*
X480047Y89740D01*
X478468Y86787D01*
X477496Y83583D01*
X477168Y80250D01*
Y47082D01*
X441332D01*
Y80250D01*
X441004Y83583D01*
X440032Y86787D01*
X438453Y89740D01*
X436329Y92329D01*
X435605Y92923D01*
X435602Y92944D01*
X434428Y95778D01*
X432560Y98212D01*
X430126Y100080D01*
X427292Y101254D01*
X424250Y101655D01*
X421208Y101254D01*
X418374Y100080D01*
X415940Y98212D01*
X414072Y95778D01*
X412898Y92944D01*
X412895Y92923D01*
X412171Y92329D01*
X410047Y89740D01*
X408468Y86787D01*
X407496Y83583D01*
X407168Y80250D01*
Y47082D01*
X379271D01*
X379155Y47071D01*
X377111Y47340D01*
X375099Y48173D01*
X373463Y49429D01*
X373390Y49518D01*
X371332Y51576D01*
Y80250D01*
X371004Y83583D01*
X370032Y86787D01*
X368453Y89740D01*
X366329Y92329D01*
X365605Y92923D01*
X365602Y92944D01*
X364428Y95778D01*
X362560Y98212D01*
X360126Y100080D01*
X357292Y101254D01*
X354250Y101655D01*
X351208Y101254D01*
X348374Y100080D01*
X345940Y98212D01*
X344072Y95778D01*
X342898Y92944D01*
X342895Y92923D01*
X342171Y92329D01*
X340047Y89740D01*
X338468Y86787D01*
X337496Y83583D01*
X337168Y80250D01*
Y49450D01*
X337160D01*
X337518Y44907D01*
X338582Y40476D01*
X340326Y36266D01*
X342706Y32381D01*
X345666Y28916D01*
X345671Y28921D01*
X349232Y25361D01*
X349225Y25354D01*
X353404Y21690D01*
X358026Y18602D01*
X363010Y16143D01*
X368274Y14357D01*
X373725Y13273D01*
X379271Y12909D01*
Y12918D01*
X705750D01*
X709083Y13246D01*
X712287Y14218D01*
X715240Y15797D01*
X717829Y17921D01*
X751329Y51421D01*
X753453Y54010D01*
X755032Y56963D01*
X755170Y57418D01*
X822250D01*
X825583Y57746D01*
X828787Y58718D01*
X831740Y60297D01*
X834329Y62421D01*
X836453Y65010D01*
X838032Y67963D01*
X838744Y70311D01*
X842902Y74469D01*
X842922Y74496D01*
X846980Y79246D01*
X850261Y84601D01*
X852664Y90403D01*
X854131Y96510D01*
X854621Y102738D01*
X854625Y102771D01*
Y264250D01*
X854127Y268035D01*
X852666Y271562D01*
X850341Y274592D01*
X815096Y309837D01*
X815069Y309857D01*
X810319Y313915D01*
X804964Y317196D01*
X799162Y319599D01*
X793055Y321066D01*
X786827Y321556D01*
X786794Y321560D01*
X760550D01*
Y322905D01*
D02*
G37*
G36*
X103520Y219205D02*
Y211020D01*
X111705D01*
X111545Y212241D01*
X110583Y214561D01*
X109054Y216554D01*
X107061Y218083D01*
X104740Y219044D01*
X103520Y219205D01*
D02*
G37*
G36*
X100980D02*
X99760Y219044D01*
X97439Y218083D01*
X95446Y216554D01*
X93917Y214561D01*
X92956Y212241D01*
X92795Y211020D01*
X100980D01*
Y219205D01*
D02*
G37*
G36*
X61250Y218750D02*
X43250D01*
Y200750D01*
X61250D01*
Y218750D01*
D02*
G37*
G36*
X111705Y208480D02*
X103520D01*
Y200295D01*
X104740Y200456D01*
X107061Y201417D01*
X109054Y202946D01*
X110583Y204939D01*
X111545Y207260D01*
X111705Y208480D01*
D02*
G37*
G36*
X100980D02*
X92795D01*
X92956Y207260D01*
X93917Y204939D01*
X95446Y202946D01*
X97439Y201417D01*
X99760Y200456D01*
X100980Y200295D01*
Y208480D01*
D02*
G37*
G36*
X641800Y251535D02*
X599700D01*
Y219595D01*
X608896D01*
Y167013D01*
X598131Y156248D01*
X598122Y156257D01*
X594299Y151780D01*
X591223Y146761D01*
X588970Y141322D01*
X587596Y135598D01*
X587134Y129729D01*
X587146D01*
Y80250D01*
X587497Y77584D01*
Y70598D01*
X587898Y67556D01*
X589072Y64722D01*
X590940Y62288D01*
X593374Y60420D01*
X596208Y59246D01*
X599250Y58846D01*
X602292Y59246D01*
X605126Y60420D01*
X607560Y62288D01*
X609428Y64722D01*
X610602Y67556D01*
X611003Y70598D01*
Y77584D01*
X611353Y80250D01*
Y129729D01*
X611308Y130075D01*
X611719Y133194D01*
X613056Y136423D01*
X614971Y138919D01*
X615248Y139131D01*
X629558Y153441D01*
X631482Y155948D01*
X632691Y158867D01*
X633104Y162000D01*
Y219595D01*
X641800D01*
Y251535D01*
D02*
G37*
G36*
X798750Y189711D02*
X795246Y189366D01*
X791876Y188344D01*
X788771Y186684D01*
X786049Y184451D01*
X783816Y181729D01*
X782156Y178624D01*
X781133Y175254D01*
X780788Y171750D01*
X781133Y168246D01*
X782156Y164876D01*
X783816Y161771D01*
X786049Y159049D01*
X788771Y156816D01*
X791876Y155156D01*
X795246Y154134D01*
X798750Y153788D01*
X802254Y154134D01*
X805623Y155156D01*
X808729Y156816D01*
X811451Y159049D01*
X813684Y161771D01*
X815344Y164876D01*
X816366Y168246D01*
X816711Y171750D01*
X816366Y175254D01*
X815344Y178624D01*
X813684Y181729D01*
X811451Y184451D01*
X808729Y186684D01*
X805623Y188344D01*
X802254Y189366D01*
X798750Y189711D01*
D02*
G37*
G36*
X680800D02*
X677296Y189366D01*
X673926Y188344D01*
X670821Y186684D01*
X668099Y184451D01*
X665865Y181729D01*
X664206Y178624D01*
X663184Y175254D01*
X662838Y171750D01*
X663184Y168246D01*
X664206Y164876D01*
X665865Y161771D01*
X668099Y159049D01*
X670821Y156816D01*
X673926Y155156D01*
X677296Y154134D01*
X680800Y153788D01*
X684304Y154134D01*
X687673Y155156D01*
X690779Y156816D01*
X693501Y159049D01*
X695734Y161771D01*
X697394Y164876D01*
X698416Y168246D01*
X698761Y171750D01*
X698416Y175254D01*
X697394Y178624D01*
X695734Y181729D01*
X693501Y184451D01*
X690779Y186684D01*
X687673Y188344D01*
X684304Y189366D01*
X680800Y189711D01*
D02*
G37*
G36*
X562850D02*
X559346Y189366D01*
X555976Y188344D01*
X552871Y186684D01*
X550149Y184451D01*
X547915Y181729D01*
X546256Y178624D01*
X545234Y175254D01*
X544888Y171750D01*
X545234Y168246D01*
X546256Y164876D01*
X547915Y161771D01*
X550149Y159049D01*
X552871Y156816D01*
X555976Y155156D01*
X559346Y154134D01*
X562850Y153788D01*
X566354Y154134D01*
X569724Y155156D01*
X572829Y156816D01*
X575551Y159049D01*
X577784Y161771D01*
X579444Y164876D01*
X580466Y168246D01*
X580811Y171750D01*
X580466Y175254D01*
X579444Y178624D01*
X577784Y181729D01*
X575551Y184451D01*
X572829Y186684D01*
X569724Y188344D01*
X566354Y189366D01*
X562850Y189711D01*
D02*
G37*
G36*
X444900D02*
X441396Y189366D01*
X438026Y188344D01*
X434921Y186684D01*
X432199Y184451D01*
X429966Y181729D01*
X428306Y178624D01*
X427284Y175254D01*
X426939Y171750D01*
X427284Y168246D01*
X428306Y164876D01*
X429966Y161771D01*
X432199Y159049D01*
X434921Y156816D01*
X438026Y155156D01*
X441396Y154134D01*
X444900Y153788D01*
X448404Y154134D01*
X451773Y155156D01*
X454879Y156816D01*
X457601Y159049D01*
X459834Y161771D01*
X461494Y164876D01*
X462516Y168246D01*
X462861Y171750D01*
X462516Y175254D01*
X461494Y178624D01*
X459834Y181729D01*
X457601Y184451D01*
X454879Y186684D01*
X451773Y188344D01*
X448404Y189366D01*
X444900Y189711D01*
D02*
G37*
G36*
X326950D02*
X323446Y189366D01*
X320076Y188344D01*
X316971Y186684D01*
X314249Y184451D01*
X312015Y181729D01*
X310356Y178624D01*
X309334Y175254D01*
X308988Y171750D01*
X309334Y168246D01*
X310356Y164876D01*
X312015Y161771D01*
X314249Y159049D01*
X316971Y156816D01*
X320076Y155156D01*
X323446Y154134D01*
X326950Y153788D01*
X330454Y154134D01*
X333824Y155156D01*
X336929Y156816D01*
X339651Y159049D01*
X341884Y161771D01*
X343544Y164876D01*
X344566Y168246D01*
X344911Y171750D01*
X344566Y175254D01*
X343544Y178624D01*
X341884Y181729D01*
X339651Y184451D01*
X336929Y186684D01*
X333824Y188344D01*
X330454Y189366D01*
X326950Y189711D01*
D02*
G37*
G36*
X209000D02*
X205496Y189366D01*
X202126Y188344D01*
X199021Y186684D01*
X196299Y184451D01*
X194066Y181729D01*
X192406Y178624D01*
X191384Y175254D01*
X191038Y171750D01*
X191384Y168246D01*
X192406Y164876D01*
X194066Y161771D01*
X196299Y159049D01*
X199021Y156816D01*
X202126Y155156D01*
X205496Y154134D01*
X209000Y153788D01*
X212504Y154134D01*
X215874Y155156D01*
X218979Y156816D01*
X221701Y159049D01*
X223934Y161771D01*
X225594Y164876D01*
X226616Y168246D01*
X226961Y171750D01*
X226616Y175254D01*
X225594Y178624D01*
X223934Y181729D01*
X221701Y184451D01*
X218979Y186684D01*
X215874Y188344D01*
X212504Y189366D01*
X209000Y189711D01*
D02*
G37*
G36*
X760550Y251535D02*
X718450D01*
Y219595D01*
X727396D01*
Y175021D01*
X727442Y174675D01*
X727031Y171556D01*
X725694Y168327D01*
X723779Y165831D01*
X723502Y165619D01*
X668131Y110248D01*
X668122Y110257D01*
X664299Y105780D01*
X661223Y100761D01*
X659262Y96026D01*
X659072Y95778D01*
X657898Y92944D01*
X657497Y89902D01*
Y88343D01*
X657134Y83729D01*
X657146D01*
Y80250D01*
X657497Y77584D01*
Y70598D01*
X657898Y67556D01*
X659072Y64722D01*
X660940Y62288D01*
X663374Y60420D01*
X666208Y59246D01*
X669250Y58846D01*
X672292Y59246D01*
X675126Y60420D01*
X677560Y62288D01*
X679428Y64722D01*
X680602Y67556D01*
X681003Y70598D01*
Y77583D01*
X681354Y80250D01*
Y83729D01*
X681308Y84075D01*
X681719Y87194D01*
X683056Y90423D01*
X684971Y92919D01*
X685248Y93131D01*
X740619Y148502D01*
X740627Y148493D01*
X744451Y152970D01*
X747527Y157989D01*
X749779Y163428D01*
X751154Y169152D01*
X751616Y175021D01*
X751603D01*
Y219595D01*
X760550D01*
Y251535D01*
D02*
G37*
G36*
X404300D02*
X362200D01*
Y219595D01*
X404300D01*
Y223461D01*
X429414D01*
X429760Y223507D01*
X432879Y223096D01*
X436108Y221759D01*
X438604Y219844D01*
X438816Y219567D01*
X477752Y180631D01*
X478029Y180419D01*
X479944Y177923D01*
X481281Y174694D01*
X481692Y171575D01*
X481646Y171229D01*
Y147013D01*
X458131Y123498D01*
X458122Y123506D01*
X454299Y119030D01*
X451223Y114011D01*
X448970Y108572D01*
X447596Y102848D01*
X447134Y96979D01*
X447146D01*
Y80250D01*
X447497Y77584D01*
Y70598D01*
X447898Y67556D01*
X449072Y64722D01*
X450940Y62288D01*
X453374Y60420D01*
X456208Y59246D01*
X459250Y58846D01*
X462292Y59246D01*
X465126Y60420D01*
X467560Y62288D01*
X469428Y64722D01*
X470602Y67556D01*
X471003Y70598D01*
Y77583D01*
X471354Y80250D01*
Y96979D01*
X471308Y97325D01*
X471719Y100444D01*
X473056Y103673D01*
X474971Y106169D01*
X475248Y106381D01*
X502309Y133441D01*
X504232Y135948D01*
X505441Y138867D01*
X505854Y142000D01*
Y171229D01*
X505866D01*
X505404Y177098D01*
X504030Y182822D01*
X501777Y188261D01*
X498701Y193280D01*
X494878Y197757D01*
X494869Y197748D01*
X455933Y236684D01*
X455942Y236693D01*
X451465Y240516D01*
X446446Y243592D01*
X441007Y245844D01*
X435283Y247219D01*
X429414Y247681D01*
Y247669D01*
X404300D01*
Y251535D01*
D02*
G37*
G36*
X59520Y102032D02*
Y81520D01*
X70547D01*
Y89902D01*
X70128Y93085D01*
X68900Y96051D01*
X66945Y98597D01*
X64399Y100552D01*
X61433Y101780D01*
X59520Y102032D01*
D02*
G37*
G36*
X285520D02*
Y81520D01*
X296547D01*
Y89902D01*
X296128Y93085D01*
X294900Y96051D01*
X292945Y98597D01*
X290399Y100552D01*
X287433Y101780D01*
X285520Y102032D01*
D02*
G37*
G36*
X56980D02*
X55067Y101780D01*
X52101Y100552D01*
X49555Y98597D01*
X47600Y96051D01*
X46372Y93085D01*
X45953Y89902D01*
Y81520D01*
X56980D01*
Y102032D01*
D02*
G37*
G36*
X282980D02*
X281067Y101780D01*
X278101Y100552D01*
X275555Y98597D01*
X273600Y96051D01*
X272372Y93085D01*
X271953Y89902D01*
Y81520D01*
X282980D01*
Y102032D01*
D02*
G37*
G36*
X250520D02*
Y81520D01*
X261547D01*
Y89902D01*
X261128Y93085D01*
X259900Y96051D01*
X257945Y98597D01*
X255399Y100552D01*
X252433Y101780D01*
X250520Y102032D01*
D02*
G37*
G36*
X247980D02*
X246067Y101780D01*
X243101Y100552D01*
X240555Y98597D01*
X238600Y96051D01*
X237372Y93085D01*
X236953Y89902D01*
Y81520D01*
X247980D01*
Y102032D01*
D02*
G37*
G36*
X523050Y251535D02*
X480950D01*
Y219595D01*
X500853D01*
X513252Y207196D01*
X513529Y206984D01*
X515444Y204488D01*
X516781Y201259D01*
X517192Y198140D01*
X517146Y197794D01*
Y80250D01*
X517497Y77584D01*
Y70598D01*
X517898Y67556D01*
X519072Y64722D01*
X520940Y62288D01*
X523374Y60420D01*
X526208Y59246D01*
X529250Y58846D01*
X532292Y59246D01*
X535126Y60420D01*
X537560Y62288D01*
X539428Y64722D01*
X540602Y67556D01*
X541003Y70598D01*
Y77584D01*
X541354Y80250D01*
Y197794D01*
X541366D01*
X540904Y203663D01*
X539529Y209387D01*
X537277Y214826D01*
X534201Y219845D01*
X530378Y224321D01*
X530369Y224313D01*
X523050Y231632D01*
Y251535D01*
D02*
G37*
G36*
X285550D02*
X243450D01*
Y219595D01*
X285550D01*
Y223461D01*
X301914D01*
X302260Y223507D01*
X305379Y223096D01*
X308608Y221759D01*
X311104Y219844D01*
X311316Y219567D01*
X373252Y157631D01*
X373529Y157419D01*
X375444Y154923D01*
X376781Y151694D01*
X377192Y148575D01*
X377146Y148229D01*
Y80250D01*
X377497Y77584D01*
Y70598D01*
X377898Y67556D01*
X379072Y64722D01*
X380940Y62288D01*
X383374Y60420D01*
X386208Y59246D01*
X389250Y58846D01*
X392292Y59246D01*
X395126Y60420D01*
X397560Y62288D01*
X399428Y64722D01*
X400602Y67556D01*
X401003Y70598D01*
Y77584D01*
X401354Y80250D01*
Y148229D01*
X401366D01*
X400904Y154098D01*
X399529Y159822D01*
X397277Y165261D01*
X394201Y170280D01*
X390378Y174757D01*
X390369Y174748D01*
X328433Y236684D01*
X328442Y236693D01*
X323965Y240516D01*
X318946Y243592D01*
X313507Y245844D01*
X307783Y247219D01*
X301914Y247681D01*
Y247669D01*
X285550D01*
Y251535D01*
D02*
G37*
G36*
X166800D02*
X124700D01*
Y219595D01*
X166800D01*
Y223461D01*
X187914D01*
X188260Y223507D01*
X191379Y223096D01*
X194608Y221759D01*
X197104Y219844D01*
X197316Y219567D01*
X269252Y147631D01*
X269529Y147419D01*
X271444Y144923D01*
X272781Y141694D01*
X273192Y138575D01*
X273146Y138229D01*
Y131000D01*
X273559Y127867D01*
X274768Y124948D01*
X276691Y122442D01*
X303252Y95881D01*
X303529Y95669D01*
X305444Y93173D01*
X306781Y89944D01*
X307192Y86825D01*
X307146Y86479D01*
Y80250D01*
X307498Y77584D01*
Y70598D01*
X307898Y67556D01*
X309072Y64722D01*
X310940Y62288D01*
X313374Y60420D01*
X316208Y59246D01*
X319250Y58846D01*
X322292Y59246D01*
X325126Y60420D01*
X327560Y62288D01*
X329428Y64722D01*
X330602Y67556D01*
X331003Y70598D01*
Y77584D01*
X331354Y80250D01*
Y86479D01*
X331366D01*
X330904Y92348D01*
X329529Y98072D01*
X327277Y103511D01*
X324201Y108530D01*
X320378Y113006D01*
X320369Y112998D01*
X297354Y136013D01*
Y138229D01*
X297366D01*
X296904Y144098D01*
X295529Y149822D01*
X293277Y155261D01*
X290201Y160280D01*
X286378Y164757D01*
X286369Y164748D01*
X214433Y236684D01*
X214442Y236693D01*
X209965Y240516D01*
X204946Y243592D01*
X199507Y245844D01*
X193783Y247219D01*
X187914Y247681D01*
Y247669D01*
X166800D01*
Y251535D01*
D02*
G37*
G36*
X54250Y448104D02*
X51117Y447691D01*
X48198Y446482D01*
X46267Y445000D01*
X45250D01*
Y444117D01*
X16691Y415559D01*
X14768Y413052D01*
X13559Y410133D01*
X13146Y407000D01*
Y192750D01*
X13559Y189617D01*
X14768Y186698D01*
X16691Y184191D01*
X81146Y119736D01*
Y80250D01*
X81497Y77584D01*
Y70598D01*
X81898Y67556D01*
X83072Y64722D01*
X84940Y62288D01*
X87374Y60420D01*
X90208Y59246D01*
X93250Y58846D01*
X96292Y59246D01*
X99126Y60420D01*
X101560Y62288D01*
X103428Y64722D01*
X104602Y67556D01*
X105002Y70598D01*
Y77584D01*
X105354Y80250D01*
Y124750D01*
X104941Y127883D01*
X103732Y130802D01*
X101809Y133308D01*
X37353Y197764D01*
Y401987D01*
X62367Y427000D01*
X63250D01*
Y428017D01*
X64732Y429948D01*
X65941Y432867D01*
X66354Y436000D01*
X65941Y439133D01*
X64732Y442052D01*
X63250Y443983D01*
Y445000D01*
X62233D01*
X60302Y446482D01*
X57383Y447691D01*
X54250Y448104D01*
D02*
G37*
G36*
X261547Y78980D02*
X250520D01*
Y58468D01*
X252433Y58720D01*
X255399Y59948D01*
X257945Y61903D01*
X259900Y64449D01*
X261128Y67415D01*
X261547Y70598D01*
Y78980D01*
D02*
G37*
G36*
X296547Y78980D02*
X285520D01*
Y58468D01*
X287433Y58720D01*
X290399Y59948D01*
X292945Y61903D01*
X294900Y64449D01*
X296128Y67415D01*
X296547Y70598D01*
Y78980D01*
D02*
G37*
G36*
X70547D02*
X59520D01*
Y58468D01*
X61433Y58720D01*
X64399Y59948D01*
X66945Y61903D01*
X68900Y64449D01*
X70128Y67415D01*
X70547Y70598D01*
Y78980D01*
D02*
G37*
G36*
X282980D02*
X271953D01*
Y70598D01*
X272372Y67415D01*
X273600Y64449D01*
X275555Y61903D01*
X278101Y59948D01*
X281067Y58720D01*
X282980Y58468D01*
Y78980D01*
D02*
G37*
G36*
X56980D02*
X45953D01*
Y70598D01*
X46372Y67415D01*
X47600Y64449D01*
X49555Y61903D01*
X52101Y59948D01*
X55067Y58720D01*
X56980Y58468D01*
Y78980D01*
D02*
G37*
G36*
X247980Y78980D02*
X236953D01*
Y70598D01*
X237372Y67415D01*
X238600Y64449D01*
X240555Y61903D01*
X243101Y59948D01*
X246067Y58720D01*
X247980Y58468D01*
Y78980D01*
D02*
G37*
%LPD*%
G36*
X704000Y995550D02*
X703896Y995636D01*
X703760Y995712D01*
X703593Y995779D01*
X703393Y995838D01*
X703162Y995888D01*
X702899Y995928D01*
X702277Y995982D01*
X701528Y996000D01*
Y1000000D01*
X701918Y1000005D01*
X702899Y1000072D01*
X703162Y1000113D01*
X703393Y1000162D01*
X703593Y1000220D01*
X703760Y1000288D01*
X703896Y1000365D01*
X704000Y1000450D01*
Y995550D01*
D02*
G37*
G36*
X719512Y1033255D02*
X719300Y1033180D01*
X719112Y1033055D01*
X718950Y1032880D01*
X718812Y1032655D01*
X718700Y1032381D01*
X718613Y1032056D01*
X718550Y1031681D01*
X718512Y1031255D01*
X718500Y1030780D01*
X716000D01*
X715987Y1031255D01*
X715950Y1031681D01*
X715888Y1032056D01*
X715800Y1032381D01*
X715687Y1032655D01*
X715550Y1032880D01*
X715387Y1033055D01*
X715200Y1033180D01*
X714987Y1033255D01*
X714750Y1033280D01*
X719750D01*
X719512Y1033255D01*
D02*
G37*
G36*
X264250Y840750D02*
X228750D01*
Y841000D01*
X228509Y865848D01*
X229402Y866750D01*
X264250D01*
Y840750D01*
D02*
G37*
G36*
X598251Y823300D02*
X598146Y823385D01*
X598010Y823462D01*
X597843Y823530D01*
X597643Y823588D01*
X597412Y823637D01*
X597149Y823678D01*
X596527Y823732D01*
X595778Y823750D01*
Y827750D01*
X596168Y827755D01*
X597149Y827822D01*
X597412Y827862D01*
X597643Y827912D01*
X597843Y827971D01*
X598010Y828038D01*
X598146Y828114D01*
X598251Y828200D01*
Y823300D01*
D02*
G37*
G36*
X603302Y823331D02*
X603238Y823199D01*
X603182Y823033D01*
X603134Y822836D01*
X603093Y822606D01*
X603033Y822048D01*
X603004Y821361D01*
X603000Y820969D01*
X599000Y820619D01*
X598995Y821008D01*
X598918Y821985D01*
X598871Y822247D01*
X598815Y822478D01*
X598747Y822676D01*
X598670Y822843D01*
X598583Y822979D01*
X598485Y823082D01*
X603372Y823432D01*
X603302Y823331D01*
D02*
G37*
G36*
X603004Y796332D02*
X603072Y795351D01*
X603112Y795088D01*
X603162Y794857D01*
X603220Y794657D01*
X603288Y794490D01*
X603364Y794354D01*
X603450Y794249D01*
X598550D01*
X598635Y794354D01*
X598712Y794490D01*
X598779Y794657D01*
X598838Y794857D01*
X598887Y795088D01*
X598928Y795351D01*
X598982Y795973D01*
X599000Y796722D01*
X603000D01*
X603004Y796332D01*
D02*
G37*
G36*
X603364Y789146D02*
X603288Y789010D01*
X603220Y788843D01*
X603162Y788643D01*
X603112Y788412D01*
X603072Y788149D01*
X603018Y787527D01*
X603000Y786778D01*
X599000D01*
X598996Y787168D01*
X598928Y788149D01*
X598887Y788412D01*
X598838Y788643D01*
X598779Y788843D01*
X598712Y789010D01*
X598635Y789146D01*
X598550Y789250D01*
X603450D01*
X603364Y789146D01*
D02*
G37*
G36*
X605255Y697582D02*
X605322Y696601D01*
X605363Y696338D01*
X605412Y696107D01*
X605471Y695907D01*
X605538Y695740D01*
X605615Y695604D01*
X605700Y695499D01*
X600800D01*
X600886Y695604D01*
X600962Y695740D01*
X601030Y695907D01*
X601088Y696107D01*
X601138Y696338D01*
X601178Y696601D01*
X601232Y697223D01*
X601250Y697972D01*
X605250D01*
X605255Y697582D01*
D02*
G37*
G36*
X605609Y690415D02*
X605517Y690310D01*
X605435Y690174D01*
X605362Y690007D01*
X605299Y689807D01*
X605246Y689576D01*
X605202Y689313D01*
X605144Y688692D01*
X605130Y688334D01*
X605125Y687945D01*
X601125Y688119D01*
X601121Y688510D01*
X601059Y689492D01*
X601022Y689755D01*
X600976Y689986D01*
X600923Y690185D01*
X600861Y690352D01*
X600791Y690487D01*
X600712Y690590D01*
X605609Y690415D01*
D02*
G37*
G36*
X605125Y663421D02*
X605128Y663028D01*
X605207Y661785D01*
X605243Y661556D01*
X605286Y661361D01*
X605335Y661199D01*
X605391Y661069D01*
X605454Y660973D01*
X600582Y661498D01*
X600685Y661599D01*
X600777Y661733D01*
X600859Y661898D01*
X600929Y662096D01*
X600989Y662325D01*
X601038Y662586D01*
X601076Y662879D01*
X601119Y663561D01*
X601125Y663950D01*
X605125Y663421D01*
D02*
G37*
G36*
X605115Y656146D02*
X605038Y656010D01*
X604971Y655843D01*
X604912Y655643D01*
X604863Y655412D01*
X604822Y655148D01*
X604768Y654527D01*
X604750Y653778D01*
X600750D01*
X600746Y654168D01*
X600678Y655148D01*
X600638Y655412D01*
X600588Y655643D01*
X600530Y655843D01*
X600462Y656010D01*
X600386Y656146D01*
X600300Y656251D01*
X605200D01*
X605115Y656146D01*
D02*
G37*
G36*
X604755Y646992D02*
X604832Y646015D01*
X604879Y645753D01*
X604935Y645522D01*
X605002Y645323D01*
X605080Y645157D01*
X605167Y645022D01*
X605265Y644918D01*
X600378Y644568D01*
X600448Y644669D01*
X600512Y644801D01*
X600568Y644967D01*
X600616Y645164D01*
X600657Y645394D01*
X600717Y645952D01*
X600746Y646639D01*
X600750Y647031D01*
X604750Y647381D01*
X604755Y646992D01*
D02*
G37*
G36*
X604505Y565832D02*
X604572Y564851D01*
X604613Y564588D01*
X604662Y564357D01*
X604720Y564157D01*
X604788Y563990D01*
X604865Y563854D01*
X604950Y563750D01*
X600050D01*
X600135Y563854D01*
X600212Y563990D01*
X600280Y564157D01*
X600338Y564357D01*
X600387Y564588D01*
X600428Y564851D01*
X600482Y565473D01*
X600500Y566222D01*
X604500D01*
X604505Y565832D01*
D02*
G37*
G36*
X604865Y558646D02*
X604788Y558510D01*
X604720Y558343D01*
X604662Y558143D01*
X604613Y557912D01*
X604572Y557649D01*
X604518Y557027D01*
X604500Y556278D01*
X600500D01*
X600495Y556668D01*
X600428Y557649D01*
X600387Y557912D01*
X600338Y558143D01*
X600280Y558343D01*
X600212Y558510D01*
X600135Y558646D01*
X600050Y558750D01*
X604950D01*
X604865Y558646D01*
D02*
G37*
G36*
X604506Y531874D02*
X604591Y530901D01*
X604642Y530641D01*
X604704Y530414D01*
X604778Y530218D01*
X604863Y530054D01*
X604960Y529923D01*
X605068Y529824D01*
X600218Y529124D01*
X600272Y529215D01*
X600320Y529339D01*
X600362Y529497D01*
X600398Y529689D01*
X600455Y530174D01*
X600489Y530794D01*
X600500Y531549D01*
X604500Y532262D01*
X604506Y531874D01*
D02*
G37*
G36*
X605364Y524396D02*
X605288Y524260D01*
X605220Y524093D01*
X605162Y523893D01*
X605112Y523662D01*
X605072Y523399D01*
X605018Y522777D01*
X605000Y522028D01*
X601000D01*
X600995Y522418D01*
X600928Y523399D01*
X600887Y523662D01*
X600838Y523893D01*
X600779Y524093D01*
X600712Y524260D01*
X600635Y524396D01*
X600550Y524501D01*
X605450D01*
X605364Y524396D01*
D02*
G37*
G36*
X513500Y746500D02*
X478000D01*
Y746750D01*
X477759Y771598D01*
X478652Y772500D01*
X513500D01*
Y746500D01*
D02*
G37*
G36*
X744621Y62559D02*
X750201Y65308D01*
X754135Y66709D01*
X756424Y66762D01*
X757068Y65469D01*
X756066Y62828D01*
X753418Y58839D01*
X749126Y53504D01*
X735604Y38790D01*
X726375Y29412D01*
X705162Y50625D01*
X709511Y55140D01*
X716951Y63904D01*
X720041Y68154D01*
X722712Y72314D01*
X724962Y76386D01*
X726793Y80370D01*
X728205Y84264D01*
X729196Y88071D01*
X729768Y91788D01*
X744621Y62559D01*
D02*
G37*
D11*
X773000Y914250D02*
X794250Y893000D01*
Y755750D02*
Y893000D01*
X638250Y928000D02*
X742500D01*
X777750Y743000D02*
Y892750D01*
X742500Y928000D02*
X777750Y892750D01*
X794250Y755750D02*
X820000Y730000D01*
X621250Y945000D02*
Y966250D01*
X591250Y996250D02*
X621250Y966250D01*
Y945000D02*
X638250Y928000D01*
X688750Y939750D02*
X717250Y968250D01*
X713450Y1040750D02*
X717250Y1036950D01*
Y968250D02*
Y1036950D01*
X735000Y863750D02*
X735250D01*
X716750Y845500D02*
X735000Y863750D01*
X647000Y871750D02*
X717750D01*
X738000Y892000D01*
X627500Y891250D02*
X647000Y871750D01*
D12*
X546250Y1009700D02*
X577300Y1040750D01*
X546250Y954500D02*
Y1009700D01*
X573278Y904544D02*
Y927472D01*
X546250Y954500D02*
X573278Y927472D01*
D35*
X739500Y235565D02*
D03*
Y306935D02*
D03*
X620750Y235565D02*
D03*
Y306935D02*
D03*
X502000Y235565D02*
D03*
Y306935D02*
D03*
X383250Y235565D02*
D03*
Y306935D02*
D03*
X264500Y235565D02*
D03*
Y306935D02*
D03*
X145750Y235565D02*
D03*
Y306935D02*
D03*
D70*
X354250Y49450D02*
G03*
X357750Y41000I11950J0D01*
G01*
X361311Y37439D02*
G03*
X379271Y30000I17960J17960D01*
G01*
X424250Y35432D02*
G03*
X426500Y30000I7682J0D01*
G01*
X494250Y34829D02*
G03*
X496250Y30000I6829J0D01*
G01*
X704250Y33621D02*
G03*
X705750Y30000I5121J0D01*
G01*
X562500D02*
G03*
X564250Y34225I-4225J4225D01*
G01*
X633750Y30000D02*
G03*
X634250Y31207I-1207J1207D01*
G01*
X704250Y80250D02*
G03*
X718132Y74500I13882J13882D01*
G01*
X704250Y30000D02*
X705750D01*
X739250Y63500D02*
Y80250D01*
X705750Y30000D02*
X739250Y63500D01*
X704250Y33621D02*
Y74500D01*
X774250D02*
X822250D01*
X564250Y30000D02*
X633750D01*
X379271D02*
X424250D01*
X704250Y74500D02*
Y80250D01*
X718132Y74500D02*
X739250D01*
X562500Y30000D02*
X564250D01*
X426500D02*
X494250D01*
X739250Y74500D02*
X774250D01*
X494250Y30000D02*
X496250D01*
X634250D02*
X704250D01*
X424250D02*
X426500D01*
X633750D02*
X634250D01*
X354250Y49450D02*
Y80250D01*
X357750Y41000D02*
X361311Y37439D01*
X424250Y35432D02*
Y80250D01*
X494250Y34829D02*
Y80250D01*
X564250Y34225D02*
Y80250D01*
X496250Y30000D02*
X562500D01*
X634250Y31207D02*
Y80250D01*
D71*
X732060Y157060D02*
G03*
X739500Y175021I-17960J17960D01*
G01*
X676690Y101690D02*
G03*
X669250Y83729I17960J-17960D01*
G01*
X606689Y147690D02*
G03*
X599250Y129729I17960J-17960D01*
G01*
X621000Y234961D02*
G03*
X620750Y235565I-854J0D01*
G01*
X529250Y197794D02*
G03*
X521810Y215754I-25400J0D01*
G01*
X447374Y228125D02*
G03*
X429414Y235565I-17960J-17960D01*
G01*
X493750Y171229D02*
G03*
X486311Y189189I-25400J0D01*
G01*
X466689Y114939D02*
G03*
X459250Y96979I17960J-17960D01*
G01*
X319874Y228125D02*
G03*
X301914Y235565I-17960J-17960D01*
G01*
X389250Y148229D02*
G03*
X381810Y166189I-25400J0D01*
G01*
X205875Y228125D02*
G03*
X187914Y235565I-17960J-17960D01*
G01*
X285250Y138229D02*
G03*
X277810Y156189I-25400J0D01*
G01*
X319250Y86479D02*
G03*
X311810Y104439I-25400J0D01*
G01*
X676690Y101690D02*
X732060Y157060D01*
X669250Y80250D02*
Y83729D01*
X739500Y175021D02*
Y235565D01*
X599250Y80250D02*
Y129729D01*
X606689Y147690D02*
X621000Y162000D01*
Y234961D01*
X502000Y235565D02*
X521810Y215754D01*
X529250Y80250D02*
Y197794D01*
X383250Y235565D02*
X429414D01*
X447374Y228125D02*
X486311Y189189D01*
X493750Y142000D02*
Y171229D01*
X466689Y114939D02*
X493750Y142000D01*
X459250Y80250D02*
Y96979D01*
X264500Y235565D02*
X301914D01*
X319874Y228125D02*
X381810Y166189D01*
X389250Y80250D02*
Y148229D01*
X145750Y235565D02*
X187914D01*
X205875Y228125D02*
X277810Y156189D01*
X285250Y131000D02*
Y138229D01*
Y131000D02*
X311810Y104439D01*
X319250Y80250D02*
Y86479D01*
X25250Y192750D02*
Y407000D01*
Y192750D02*
X93250Y124750D01*
X25250Y407000D02*
X54250Y436000D01*
X93250Y80250D02*
Y124750D01*
D74*
X246759Y834991D02*
Y848366D01*
X269500Y812250D02*
X515000D01*
X246759Y834991D02*
X269500Y812250D01*
X263500Y801000D02*
X506250D01*
X233985Y830515D02*
X263500Y801000D01*
X233985Y830515D02*
Y847735D01*
X602500Y527500D02*
Y561250D01*
Y527500D02*
X603000Y527000D01*
Y511500D02*
Y527000D01*
X602250Y510750D02*
X603000Y511500D01*
X603125Y659125D02*
Y692875D01*
X602750Y658750D02*
X603125Y659125D01*
X602750Y642500D02*
Y658750D01*
Y642500D02*
X603000Y642250D01*
X603125Y692875D02*
X603250Y693000D01*
X601000Y791750D02*
Y825500D01*
X600750Y825750D02*
X601000Y825500D01*
Y776250D02*
Y791750D01*
X600500Y775750D02*
X601000Y776250D01*
X611850Y1038650D02*
Y1040750D01*
Y1038650D02*
X633750Y1016750D01*
X652500Y998000D02*
X706500D01*
X633750Y1016750D02*
X652500Y998000D01*
X747250Y900750D02*
Y901250D01*
X602500Y561250D02*
Y581000D01*
X588500Y595000D02*
Y718750D01*
Y595000D02*
X602500Y581000D01*
X233985Y847735D02*
X234750Y848500D01*
X506250Y801000D02*
X588500Y718750D01*
X515000Y812250D02*
X603250Y724000D01*
X246625Y848500D02*
X246759Y848366D01*
X603250Y693000D02*
Y724000D01*
X281250Y825750D02*
X600750D01*
X258500Y848500D02*
X281250Y825750D01*
D75*
X539000Y508750D02*
X585750Y462000D01*
X495875Y750625D02*
X539000Y707500D01*
Y508750D02*
Y707500D01*
X591100Y1061500D02*
X611850Y1040750D01*
X496450Y1061500D02*
X591100D01*
X475700Y1040750D02*
X496450Y1061500D01*
X475700Y1002550D02*
Y1040750D01*
Y1002550D02*
X496000Y982250D01*
Y929000D02*
Y982250D01*
X716750Y845500D02*
X750500Y811750D01*
X525000Y845500D02*
X716750D01*
X496000Y874500D02*
X525000Y845500D01*
X496000Y874500D02*
Y929000D01*
X725250Y479250D02*
Y610000D01*
Y476500D02*
Y479250D01*
Y610000D02*
Y743500D01*
X710750Y462000D02*
X725250Y476500D01*
X585750Y462000D02*
X710750D01*
X495875Y750625D02*
Y754250D01*
D76*
X750500Y811209D02*
X753803Y807905D01*
Y682803D02*
Y807905D01*
X750500Y811209D02*
Y811750D01*
X753803Y682803D02*
X775000Y661607D01*
Y593250D02*
Y661607D01*
X751250Y548000D02*
Y569500D01*
X775000Y593250D01*
X753541Y546250D02*
X830750D01*
X751791Y548000D02*
X753541Y546250D01*
X751250Y548000D02*
X751791D01*
X830750Y546250D02*
X843000Y558500D01*
Y611500D01*
X830750Y623750D02*
Y678250D01*
Y623750D02*
X843000Y611500D01*
X830750Y678250D02*
X844000Y691500D01*
Y749250D01*
X830500Y762750D02*
Y811250D01*
Y762750D02*
X844000Y749250D01*
D77*
X278100Y960150D02*
D03*
Y985550D02*
D03*
Y1010950D02*
D03*
Y1036350D02*
D03*
X201900Y960150D02*
D03*
Y985550D02*
D03*
Y1010950D02*
D03*
X475700Y1040750D02*
D03*
X501100D02*
D03*
X526500D02*
D03*
X551900D02*
D03*
X611850D02*
D03*
X637250D02*
D03*
X662650D02*
D03*
X688050D02*
D03*
X799750Y960800D02*
D03*
X774350D02*
D03*
X799750Y1037000D02*
D03*
X774350Y1011600D02*
D03*
X799750D02*
D03*
X774350Y986200D02*
D03*
X799750D02*
D03*
X774350Y935400D02*
D03*
X799750D02*
D03*
X93000Y1011600D02*
D03*
X118400D02*
D03*
X93000Y935400D02*
D03*
X118400Y960800D02*
D03*
X93000D02*
D03*
X118400Y986200D02*
D03*
X93000D02*
D03*
X118400Y1037000D02*
D03*
X93000D02*
D03*
D78*
X201900Y1036350D02*
D03*
X577300Y1040750D02*
D03*
X713450D02*
D03*
D79*
X58250Y80250D02*
D03*
X93250D02*
D03*
X774250D02*
D03*
X739250D02*
D03*
X704250D02*
D03*
X669250D02*
D03*
X634250D02*
D03*
X599250D02*
D03*
X564250D02*
D03*
X529250D02*
D03*
X494250D02*
D03*
X459250D02*
D03*
X424250D02*
D03*
X389250D02*
D03*
X354250D02*
D03*
X319250D02*
D03*
X284250D02*
D03*
X249250D02*
D03*
D80*
X234400Y354250D02*
D03*
X209000D02*
D03*
X352350D02*
D03*
X326950D02*
D03*
X470300D02*
D03*
X444900D02*
D03*
X588250D02*
D03*
X562850D02*
D03*
X706200D02*
D03*
X680800D02*
D03*
X824150D02*
D03*
X798750D02*
D03*
D81*
X183600D02*
D03*
X301550D02*
D03*
X419500D02*
D03*
X537450D02*
D03*
X655400D02*
D03*
X773350D02*
D03*
D82*
X209000Y171750D02*
D03*
X326950D02*
D03*
X444900D02*
D03*
X562850D02*
D03*
X680800D02*
D03*
X798750D02*
D03*
D83*
X494000Y622500D02*
D03*
X72750Y884000D02*
D03*
X102250Y209750D02*
D03*
X104250Y436000D02*
D03*
D84*
X444000Y622500D02*
D03*
X52250Y209750D02*
D03*
X54250Y436000D02*
D03*
D85*
X72750Y834000D02*
D03*
D86*
X774350Y1037000D02*
D03*
X118400Y935400D02*
D03*
D87*
X603000Y527000D02*
D03*
X602750Y658750D02*
D03*
X601000Y791750D02*
D03*
X372000Y940500D02*
D03*
X759000Y891750D02*
D03*
X624750Y921250D02*
D03*
X176000Y706000D02*
D03*
X272500Y737250D02*
D03*
X453500Y997750D02*
D03*
X397500Y986250D02*
D03*
X814000Y867250D02*
D03*
X762500Y853750D02*
D03*
X773000Y914250D02*
D03*
X777750Y743000D02*
D03*
X820000Y730000D02*
D03*
X717250Y898250D02*
D03*
X736250Y996250D02*
D03*
X591250D02*
D03*
X617500Y995750D02*
D03*
X597250Y947000D02*
D03*
X610500Y944750D02*
D03*
X540000Y925000D02*
D03*
X564250Y903750D02*
D03*
X706500Y998000D02*
D03*
X747250Y901250D02*
D03*
X616500Y891250D02*
D03*
X605750Y899250D02*
D03*
X573278Y904544D02*
D03*
X735250Y863750D02*
D03*
X562750Y894000D02*
D03*
X684727Y892023D02*
D03*
X707534Y887043D02*
D03*
X725500Y892000D02*
D03*
X594441Y881692D02*
D03*
X688750Y939750D02*
D03*
X638750Y948750D02*
D03*
X410500Y973500D02*
D03*
X830750Y546250D02*
D03*
Y678250D02*
D03*
X310750Y908750D02*
D03*
X750500Y592500D02*
D03*
X830250Y607500D02*
D03*
X496000Y929000D02*
D03*
X572750Y957250D02*
D03*
X753803Y682803D02*
D03*
X652500Y960593D02*
D03*
X466750Y941750D02*
D03*
X361000Y973750D02*
D03*
X738000Y892000D02*
D03*
X627500Y891250D02*
D03*
X564500Y965000D02*
D03*
X751250Y548000D02*
D03*
X830500Y811250D02*
D03*
X750500Y811750D02*
D03*
X725250Y479250D02*
D03*
Y610000D02*
D03*
Y743500D02*
D03*
X602250Y510750D02*
D03*
X602500Y561250D02*
D03*
X603000Y642250D02*
D03*
X600500Y775750D02*
D03*
X603250Y693000D02*
D03*
X600750Y825750D02*
D03*
D88*
X193907Y669657D02*
D03*
X203657Y659907D02*
D03*
X833750Y491000D02*
D03*
X341918Y671250D02*
D03*
X331626D02*
D03*
X321334D02*
D03*
X311042D02*
D03*
X300750Y611500D02*
D03*
Y622583D02*
D03*
Y633667D02*
D03*
Y644750D02*
D03*
X168250Y618750D02*
D03*
Y629250D02*
D03*
Y639750D02*
D03*
Y650250D02*
D03*
X212500Y658750D02*
D03*
X223500D02*
D03*
X819750Y530750D02*
D03*
X814750Y601750D02*
D03*
X819000Y668250D02*
D03*
X814250Y752500D02*
D03*
X811500Y807000D02*
D03*
X633750Y747000D02*
D03*
Y736250D02*
D03*
X135750Y35000D02*
D03*
X147625D02*
D03*
X159500D02*
D03*
Y45750D02*
D03*
X147625D02*
D03*
X135750D02*
D03*
X71750Y233250D02*
D03*
X83625D02*
D03*
X95500D02*
D03*
Y244000D02*
D03*
X83625D02*
D03*
X71750D02*
D03*
X611250Y603250D02*
D03*
X623125D02*
D03*
X635000D02*
D03*
Y614000D02*
D03*
X623125D02*
D03*
X611250D02*
D03*
X610000Y736250D02*
D03*
X621875D02*
D03*
Y747000D02*
D03*
X610000D02*
D03*
X479250Y666750D02*
D03*
X491125D02*
D03*
X503000D02*
D03*
Y677500D02*
D03*
X491125D02*
D03*
X479250D02*
D03*
X424500Y557250D02*
D03*
X436375D02*
D03*
X448250D02*
D03*
Y568000D02*
D03*
X436375D02*
D03*
X424500D02*
D03*
X124250Y481500D02*
D03*
X136125D02*
D03*
X148000D02*
D03*
Y492250D02*
D03*
X136125D02*
D03*
X124250D02*
D03*
X51000Y644250D02*
D03*
X62875D02*
D03*
X74750D02*
D03*
Y655000D02*
D03*
X62875D02*
D03*
X51000D02*
D03*
X228500Y784250D02*
D03*
X240375D02*
D03*
X252250D02*
D03*
Y795000D02*
D03*
X240375D02*
D03*
X228500D02*
D03*
X127500Y856000D02*
D03*
X139375D02*
D03*
X151250D02*
D03*
Y866750D02*
D03*
X139375D02*
D03*
X127500D02*
D03*
X394000Y903250D02*
D03*
X405875D02*
D03*
X417750D02*
D03*
Y914000D02*
D03*
X405875D02*
D03*
X394000D02*
D03*
X484000Y765000D02*
D03*
X495875D02*
D03*
X507750D02*
D03*
Y754250D02*
D03*
X495875D02*
D03*
X484000D02*
D03*
X234750Y848500D02*
D03*
X246625D02*
D03*
X258500D02*
D03*
Y859250D02*
D03*
X246625D02*
D03*
X234750D02*
D03*
D89*
X804754Y299496D02*
G03*
X786794Y306935I-17960J-17960D01*
G01*
X832561Y84810D02*
G03*
X840000Y102771I-17960J17960D01*
G01*
X739500Y306935D02*
X786794D01*
X804754Y299496D02*
X840000Y264250D01*
X822250Y74500D02*
X832561Y84810D01*
X840000Y102771D02*
Y264250D01*
X620750Y306935D02*
X739500D01*
X502000D02*
X620750D01*
X383250D02*
X502000D01*
X264500D02*
X383250D01*
X145750D02*
X264500D01*
M02*
