G04*
G04 #@! TF.GenerationSoftware,Altium Limited,Altium Designer,20.0.13 (296)*
G04*
G04 Layer_Physical_Order=2*
G04 Layer_Color=16711680*
%FSLAX44Y44*%
%MOMM*%
G71*
G01*
G75*
%ADD10C,0.2000*%
%ADD14C,0.2500*%
%ADD17C,0.4000*%
%ADD18C,0.3000*%
%ADD71C,1.0000*%
%ADD73O,1.9304X3.8608*%
%ADD74R,1.5000X1.5000*%
%ADD75C,1.5000*%
%ADD76R,1.5000X1.5000*%
%ADD77O,1.5240X3.0480*%
%ADD78R,1.5240X3.0480*%
%ADD79C,3.1750*%
%ADD80C,1.4000*%
%ADD81R,1.4000X1.4000*%
%ADD82C,0.7000*%
%ADD83C,0.8000*%
G36*
X926431Y3569D02*
X3569D01*
Y1076431D01*
X926431D01*
X926431Y3569D01*
D02*
G37*
%LPC*%
G36*
X756000Y1070560D02*
X126500D01*
X124673Y1070320D01*
X122970Y1069614D01*
X121508Y1068493D01*
X99536Y1046521D01*
X97520Y1046255D01*
X95209Y1045298D01*
X93596Y1044060D01*
X81004D01*
X79391Y1045298D01*
X77080Y1046255D01*
X74600Y1046582D01*
X72120Y1046255D01*
X69809Y1045298D01*
X67825Y1043775D01*
X66302Y1041791D01*
X65345Y1039480D01*
X65018Y1037000D01*
X65345Y1034520D01*
X66302Y1032209D01*
X67825Y1030225D01*
X69809Y1028702D01*
X72120Y1027745D01*
X74600Y1027418D01*
X77080Y1027745D01*
X79391Y1028702D01*
X81004Y1029940D01*
X93596D01*
X95209Y1028702D01*
X97520Y1027745D01*
X97227Y1026559D01*
X86500D01*
X86500Y1026559D01*
X85330Y1026326D01*
X84337Y1025663D01*
X84337Y1025663D01*
X78812Y1020138D01*
X77080Y1020855D01*
X74600Y1021182D01*
X72120Y1020855D01*
X69809Y1019898D01*
X67825Y1018375D01*
X66302Y1016391D01*
X65345Y1014080D01*
X65018Y1011600D01*
X65345Y1009120D01*
X66302Y1006809D01*
X67825Y1004825D01*
X69809Y1003302D01*
X72120Y1002345D01*
X74600Y1002018D01*
X77080Y1002345D01*
X79391Y1003302D01*
X81376Y1004825D01*
X82898Y1006809D01*
X83855Y1009120D01*
X84182Y1011600D01*
X83855Y1014080D01*
X83138Y1015812D01*
X87767Y1020441D01*
X92943D01*
X93375Y1019171D01*
X92839Y1018761D01*
X91230Y1016663D01*
X90218Y1014221D01*
X90041Y1012870D01*
X100000D01*
X109959D01*
X109782Y1014221D01*
X108770Y1016663D01*
X107161Y1018761D01*
X106625Y1019171D01*
X107057Y1020441D01*
X108983D01*
X133337Y996087D01*
X133337Y996087D01*
X134330Y995424D01*
X135500Y995191D01*
X135500Y995191D01*
X362429D01*
X363035Y994285D01*
X364854Y993069D01*
X367000Y992642D01*
X369146Y993069D01*
X370965Y994285D01*
X371571Y995191D01*
X578429D01*
X579035Y994285D01*
X580854Y993069D01*
X583000Y992642D01*
X585146Y993069D01*
X586965Y994285D01*
X587571Y995191D01*
X670130D01*
X670516Y993921D01*
X669085Y992965D01*
X667978Y991309D01*
X453571D01*
X452965Y992215D01*
X451146Y993431D01*
X449000Y993858D01*
X446854Y993431D01*
X445035Y992215D01*
X444429Y991309D01*
X122267D01*
X112413Y1001163D01*
X111421Y1001826D01*
X110250Y1002059D01*
X110250Y1002059D01*
X106144D01*
X105713Y1003329D01*
X107161Y1004439D01*
X108770Y1006537D01*
X109782Y1008979D01*
X109959Y1010330D01*
X100000D01*
X90041D01*
X90218Y1008979D01*
X91230Y1006537D01*
X92839Y1004439D01*
X94287Y1003329D01*
X93856Y1002059D01*
X87400D01*
X87400Y1002059D01*
X86229Y1001826D01*
X85237Y1001163D01*
X85237Y1001163D01*
X78812Y994738D01*
X77080Y995455D01*
X74600Y995782D01*
X72120Y995455D01*
X69809Y994498D01*
X67825Y992975D01*
X66302Y990991D01*
X65345Y988680D01*
X65018Y986200D01*
X65345Y983720D01*
X66302Y981409D01*
X67825Y979425D01*
X69809Y977902D01*
X72120Y976945D01*
X74600Y976618D01*
X77080Y976945D01*
X79391Y977902D01*
X81376Y979425D01*
X82898Y981409D01*
X83855Y983720D01*
X84182Y986200D01*
X83855Y988680D01*
X83138Y990412D01*
X88667Y995941D01*
X95374D01*
X95627Y994671D01*
X95209Y994498D01*
X93225Y992975D01*
X91702Y990991D01*
X90744Y988680D01*
X90418Y986200D01*
X90744Y983720D01*
X91702Y981409D01*
X93225Y979425D01*
X95209Y977902D01*
X97520Y976945D01*
X100000Y976618D01*
X102480Y976945D01*
X104791Y977902D01*
X106776Y979425D01*
X108298Y981409D01*
X108933Y982941D01*
X113733D01*
X117087Y979587D01*
X118080Y978924D01*
X119250Y978691D01*
X119250Y978691D01*
X458429D01*
X459035Y977785D01*
X460854Y976569D01*
X463000Y976142D01*
X465146Y976569D01*
X466965Y977785D01*
X468072Y979441D01*
X475838D01*
X476436Y978321D01*
X476319Y978146D01*
X475892Y976000D01*
X476319Y973854D01*
X477535Y972035D01*
X479354Y970819D01*
X481500Y970392D01*
X482569Y970605D01*
X515087Y938087D01*
X515087Y938087D01*
X516079Y937424D01*
X517250Y937191D01*
X517708D01*
X518093Y935921D01*
X517785Y935715D01*
X517179Y934809D01*
X474517D01*
X450913Y958413D01*
X449921Y959076D01*
X448750Y959309D01*
X448750Y959309D01*
X377750D01*
X376579Y959076D01*
X375587Y958413D01*
X375587Y958413D01*
X365133Y947959D01*
X223366D01*
X222648Y949691D01*
X221125Y951675D01*
X219141Y953198D01*
X216830Y954156D01*
X214350Y954482D01*
X211870Y954156D01*
X209559Y953198D01*
X207575Y951675D01*
X206052Y949691D01*
X205095Y947380D01*
X204768Y944900D01*
X205095Y942420D01*
X206052Y940109D01*
X207575Y938125D01*
X209559Y936602D01*
X211425Y935829D01*
X211173Y934559D01*
X203617D01*
X197488Y940688D01*
X198205Y942420D01*
X198532Y944900D01*
X198205Y947380D01*
X197248Y949691D01*
X195725Y951675D01*
X193741Y953198D01*
X191430Y954156D01*
X188950Y954482D01*
X186470Y954156D01*
X184159Y953198D01*
X182174Y951675D01*
X180652Y949691D01*
X179694Y947380D01*
X179368Y944900D01*
X179694Y942420D01*
X180652Y940109D01*
X182174Y938125D01*
X184159Y936602D01*
X186470Y935645D01*
X188950Y935318D01*
X191430Y935645D01*
X193162Y936362D01*
X200187Y929337D01*
X200187Y929337D01*
X201180Y928674D01*
X202350Y928441D01*
X202350Y928441D01*
X366750D01*
X366750Y928441D01*
X367920Y928674D01*
X368913Y929337D01*
X385767Y946191D01*
X390819D01*
X391345Y944921D01*
X372483Y926059D01*
X186717D01*
X172088Y940688D01*
X172805Y942420D01*
X173132Y944900D01*
X172805Y947380D01*
X171848Y949691D01*
X170325Y951675D01*
X168341Y953198D01*
X166030Y954156D01*
X163550Y954482D01*
X161070Y954156D01*
X158759Y953198D01*
X156775Y951675D01*
X155252Y949691D01*
X154295Y947380D01*
X153968Y944900D01*
X154295Y942420D01*
X155252Y940109D01*
X156775Y938125D01*
X158759Y936602D01*
X161070Y935645D01*
X163550Y935318D01*
X166030Y935645D01*
X167762Y936362D01*
X183287Y920837D01*
X183287Y920837D01*
X184279Y920174D01*
X185450Y919941D01*
X185450Y919941D01*
X373750D01*
X373750Y919941D01*
X374921Y920174D01*
X375913Y920837D01*
X395767Y940691D01*
X398433D01*
X398559Y939421D01*
X398079Y939326D01*
X397087Y938663D01*
X397087Y938663D01*
X376233Y917809D01*
X169567D01*
X147650Y939726D01*
Y954400D01*
X128650D01*
Y935400D01*
X143324D01*
X166137Y912587D01*
X166137Y912587D01*
X167129Y911924D01*
X168300Y911691D01*
X168300Y911691D01*
X377500D01*
X377500Y911691D01*
X378671Y911924D01*
X379663Y912587D01*
X400517Y933441D01*
X429483D01*
X456087Y906837D01*
X456087Y906837D01*
X457079Y906174D01*
X458250Y905941D01*
X482179D01*
X482785Y905035D01*
X484604Y903819D01*
X486750Y903392D01*
X488896Y903819D01*
X490715Y905035D01*
X491321Y905941D01*
X706388D01*
X706660Y905535D01*
X708479Y904319D01*
X710625Y903892D01*
X712771Y904319D01*
X714590Y905535D01*
X715806Y907354D01*
X716233Y909500D01*
X715806Y911646D01*
X715355Y912321D01*
X715953Y913441D01*
X718762D01*
X719535Y912285D01*
X721354Y911069D01*
X723500Y910642D01*
X725646Y911069D01*
X727465Y912285D01*
X728681Y914104D01*
X729108Y916250D01*
X728681Y918396D01*
X728578Y918550D01*
X729493Y919466D01*
X730449Y918828D01*
X732595Y918401D01*
X734741Y918828D01*
X736560Y920043D01*
X737776Y921862D01*
X738203Y924008D01*
X737776Y926154D01*
X736929Y927421D01*
X737598Y928691D01*
X741596D01*
X742035Y928035D01*
X743854Y926819D01*
X746000Y926392D01*
X748146Y926819D01*
X749965Y928035D01*
X751181Y929854D01*
X751608Y932000D01*
X751181Y934146D01*
X749965Y935965D01*
X748146Y937181D01*
X746000Y937608D01*
X743854Y937181D01*
X742035Y935965D01*
X741262Y934809D01*
X588044D01*
X587659Y936079D01*
X588715Y936785D01*
X589931Y938604D01*
X590358Y940750D01*
X589931Y942896D01*
X588715Y944715D01*
X586896Y945931D01*
X584750Y946358D01*
X583681Y946145D01*
X567413Y962413D01*
X566421Y963076D01*
X565250Y963309D01*
X565250Y963309D01*
X528017D01*
X516395Y974931D01*
X516608Y976000D01*
X516181Y978146D01*
X516064Y978321D01*
X516662Y979441D01*
X682479D01*
X683085Y978535D01*
X684904Y977319D01*
X687050Y976892D01*
X689196Y977319D01*
X691015Y978535D01*
X691120Y978691D01*
X699587D01*
X700186Y977571D01*
X700069Y977396D01*
X699642Y975250D01*
X700069Y973104D01*
X701285Y971285D01*
X702191Y970679D01*
Y958000D01*
X702191Y958000D01*
X702424Y956830D01*
X703087Y955837D01*
X717087Y941837D01*
X718080Y941174D01*
X719250Y940941D01*
X748233D01*
X756191Y932983D01*
Y914767D01*
X716569Y875145D01*
X715500Y875358D01*
X713354Y874931D01*
X711535Y873715D01*
X710319Y871896D01*
X709892Y869750D01*
X710319Y867604D01*
X711535Y865785D01*
X713354Y864569D01*
X715500Y864142D01*
X717646Y864569D01*
X719465Y865785D01*
X720681Y867604D01*
X721108Y869750D01*
X720895Y870819D01*
X761413Y911337D01*
X761413Y911337D01*
X762076Y912329D01*
X762309Y913500D01*
Y934250D01*
X762076Y935421D01*
X761413Y936413D01*
X761413Y936413D01*
X751663Y946163D01*
X751276Y946421D01*
X751662Y947691D01*
X754233D01*
X812941Y888983D01*
Y813571D01*
X812035Y812965D01*
X810819Y811146D01*
X810392Y809000D01*
X810819Y806854D01*
X812035Y805035D01*
X813854Y803819D01*
X816000Y803392D01*
X818146Y803819D01*
X819965Y805035D01*
X821181Y806854D01*
X821608Y809000D01*
X821181Y811146D01*
X819965Y812965D01*
X819059Y813571D01*
Y890250D01*
X818826Y891421D01*
X818163Y892413D01*
X758323Y952252D01*
X758713Y953659D01*
X758755Y953670D01*
X780837Y931587D01*
X780837Y931587D01*
X835355Y877069D01*
X835142Y876000D01*
X835569Y873854D01*
X836785Y872035D01*
X838604Y870819D01*
X840750Y870392D01*
X842896Y870819D01*
X844715Y872035D01*
X845931Y873854D01*
X846358Y876000D01*
X845931Y878146D01*
X844715Y879965D01*
X842896Y881181D01*
X840750Y881608D01*
X839681Y881395D01*
X785163Y935913D01*
X785163Y935913D01*
X785163Y935913D01*
X761413Y959663D01*
X760421Y960326D01*
X759250Y960559D01*
X759250Y960559D01*
X733767D01*
X728975Y965350D01*
Y970679D01*
X729882Y971285D01*
X730448Y972132D01*
X731718D01*
X732285Y971285D01*
X734104Y970069D01*
X736250Y969642D01*
X738396Y970069D01*
X740215Y971285D01*
X740821Y972191D01*
X762483D01*
X862691Y871983D01*
Y830267D01*
X832733Y800309D01*
X800767D01*
X761663Y839413D01*
X760670Y840076D01*
X759500Y840309D01*
X759500Y840309D01*
X714517D01*
X670413Y884413D01*
X669420Y885076D01*
X668250Y885309D01*
X668250Y885309D01*
X623042D01*
X622657Y886579D01*
X622965Y886785D01*
X624181Y888604D01*
X624608Y890750D01*
X624181Y892896D01*
X622965Y894715D01*
X621146Y895931D01*
X619000Y896358D01*
X616854Y895931D01*
X615035Y894715D01*
X614429Y893809D01*
X606245D01*
X605647Y894929D01*
X605931Y895354D01*
X606358Y897500D01*
X605931Y899646D01*
X604715Y901465D01*
X602896Y902681D01*
X600750Y903108D01*
X598604Y902681D01*
X596785Y901465D01*
X596012Y900309D01*
X389000D01*
X387830Y900076D01*
X386837Y899413D01*
X386837Y899413D01*
X380483Y893059D01*
X129336D01*
X128569Y894063D01*
X129014Y895186D01*
X372750D01*
X374018Y895439D01*
X375093Y896157D01*
X400873Y921936D01*
X408099D01*
X408535Y921285D01*
X410354Y920069D01*
X412500Y919642D01*
X414646Y920069D01*
X416465Y921285D01*
X417681Y923104D01*
X418108Y925250D01*
X417681Y927396D01*
X416465Y929215D01*
X414646Y930431D01*
X412500Y930858D01*
X410354Y930431D01*
X408535Y929215D01*
X408099Y928564D01*
X399500D01*
X398232Y928311D01*
X397157Y927593D01*
X371377Y901814D01*
X121235D01*
X120465Y902965D01*
X118646Y904181D01*
X116500Y904608D01*
X114354Y904181D01*
X112535Y902965D01*
X111319Y901146D01*
X110892Y899000D01*
X111319Y896854D01*
X112535Y895035D01*
X114354Y893819D01*
X116500Y893392D01*
X118646Y893819D01*
X119122Y894137D01*
X120038Y893222D01*
X119319Y892146D01*
X118892Y890000D01*
X119319Y887854D01*
X120535Y886035D01*
X122354Y884819D01*
X124500Y884392D01*
X126646Y884819D01*
X128465Y886035D01*
X129071Y886941D01*
X131187D01*
X131312Y885671D01*
X130104Y885431D01*
X128285Y884215D01*
X127069Y882396D01*
X126642Y880250D01*
X127069Y878104D01*
X128285Y876285D01*
X130104Y875069D01*
X132250Y874642D01*
X134396Y875069D01*
X136215Y876285D01*
X136988Y877441D01*
X384500D01*
X384500Y877441D01*
X385671Y877674D01*
X386663Y878337D01*
X396017Y887691D01*
X614429D01*
X615035Y886785D01*
X615343Y886579D01*
X614958Y885309D01*
X401250D01*
X400079Y885076D01*
X399087Y884413D01*
X387733Y873059D01*
X126321D01*
X125715Y873965D01*
X123896Y875181D01*
X121750Y875608D01*
X119604Y875181D01*
X117785Y873965D01*
X116569Y872146D01*
X116142Y870000D01*
X116569Y867854D01*
X117785Y866035D01*
X119604Y864819D01*
X121750Y864392D01*
X123896Y864819D01*
X125715Y866035D01*
X126321Y866941D01*
X389000D01*
X389000Y866941D01*
X390171Y867174D01*
X391163Y867837D01*
X402517Y879191D01*
X666983D01*
X711087Y835087D01*
X712079Y834424D01*
X713250Y834191D01*
X758233D01*
X797337Y795087D01*
X797337Y795087D01*
X798329Y794424D01*
X799500Y794191D01*
X799500Y794191D01*
X834000D01*
X834000Y794191D01*
X835171Y794424D01*
X836163Y795087D01*
X867913Y826837D01*
X867913Y826837D01*
X868576Y827830D01*
X868809Y829000D01*
Y873250D01*
X868809Y873250D01*
X868576Y874421D01*
X867913Y875413D01*
X765913Y977413D01*
X765900Y977421D01*
X766286Y978691D01*
X822250D01*
X822250Y978691D01*
X823420Y978924D01*
X824413Y979587D01*
X827967Y983141D01*
X831984D01*
X832702Y981409D01*
X834224Y979425D01*
X836209Y977902D01*
X838520Y976945D01*
X841000Y976618D01*
X843480Y976945D01*
X845791Y977902D01*
X847775Y979425D01*
X849298Y981409D01*
X850255Y983720D01*
X850582Y986200D01*
X850255Y988680D01*
X849298Y990991D01*
X847775Y992975D01*
X846543Y993921D01*
X846974Y995191D01*
X853083D01*
X857862Y990412D01*
X857144Y988680D01*
X856818Y986200D01*
X857144Y983720D01*
X858102Y981409D01*
X859624Y979425D01*
X861609Y977902D01*
X863920Y976945D01*
X866400Y976618D01*
X868880Y976945D01*
X871191Y977902D01*
X873175Y979425D01*
X874698Y981409D01*
X875655Y983720D01*
X875982Y986200D01*
X875655Y988680D01*
X874698Y990991D01*
X873175Y992975D01*
X871191Y994498D01*
X868880Y995455D01*
X866400Y995782D01*
X863920Y995455D01*
X862188Y994738D01*
X856513Y1000413D01*
X855520Y1001076D01*
X854350Y1001309D01*
X854350Y1001309D01*
X845709D01*
X845457Y1002579D01*
X846063Y1002830D01*
X848161Y1004439D01*
X849770Y1006537D01*
X850782Y1008979D01*
X850959Y1010330D01*
X841000D01*
X831041D01*
X831218Y1008979D01*
X832230Y1006537D01*
X833839Y1004439D01*
X835937Y1002830D01*
X836543Y1002579D01*
X836291Y1001309D01*
X816750D01*
X816750Y1001309D01*
X815579Y1001076D01*
X814587Y1000413D01*
X814587Y1000413D01*
X806233Y992059D01*
X677621D01*
X677015Y992965D01*
X675585Y993921D01*
X675970Y995191D01*
X803000D01*
X803000Y995191D01*
X804171Y995424D01*
X805163Y996087D01*
X829267Y1020191D01*
X833728D01*
X834137Y1018989D01*
X833839Y1018761D01*
X832230Y1016663D01*
X831218Y1014221D01*
X831041Y1012870D01*
X841000D01*
X850959D01*
X850782Y1014221D01*
X849770Y1016663D01*
X848161Y1018761D01*
X847863Y1018989D01*
X848272Y1020191D01*
X853483D01*
X857862Y1015812D01*
X857144Y1014080D01*
X856818Y1011600D01*
X857144Y1009120D01*
X858102Y1006809D01*
X859624Y1004825D01*
X861609Y1003302D01*
X863920Y1002345D01*
X866400Y1002018D01*
X868880Y1002345D01*
X871191Y1003302D01*
X873175Y1004825D01*
X874698Y1006809D01*
X875655Y1009120D01*
X875982Y1011600D01*
X875655Y1014080D01*
X874698Y1016391D01*
X873175Y1018375D01*
X871191Y1019898D01*
X868880Y1020855D01*
X866400Y1021182D01*
X863920Y1020855D01*
X862188Y1020138D01*
X856913Y1025413D01*
X855920Y1026076D01*
X854750Y1026309D01*
X854750Y1026309D01*
X850690D01*
X850500Y1027500D01*
X850500Y1027579D01*
Y1029940D01*
X859996D01*
X861609Y1028702D01*
X863920Y1027745D01*
X866400Y1027418D01*
X868880Y1027745D01*
X871191Y1028702D01*
X873175Y1030225D01*
X874698Y1032209D01*
X875655Y1034520D01*
X875982Y1037000D01*
X875655Y1039480D01*
X874698Y1041791D01*
X873175Y1043775D01*
X871191Y1045298D01*
X868880Y1046255D01*
X866400Y1046582D01*
X863920Y1046255D01*
X861609Y1045298D01*
X859996Y1044060D01*
X850500D01*
Y1046500D01*
X831500D01*
Y1044060D01*
X785424D01*
X760993Y1068493D01*
X759530Y1069614D01*
X757827Y1070320D01*
X756000Y1070560D01*
D02*
G37*
G36*
X842270Y970759D02*
Y962070D01*
X850959D01*
X850782Y963421D01*
X849770Y965863D01*
X848161Y967961D01*
X846063Y969570D01*
X843621Y970582D01*
X842270Y970759D01*
D02*
G37*
G36*
X839730D02*
X838379Y970582D01*
X835937Y969570D01*
X833839Y967961D01*
X832230Y965863D01*
X831218Y963421D01*
X831041Y962070D01*
X839730D01*
Y970759D01*
D02*
G37*
G36*
X101270D02*
Y962070D01*
X109959D01*
X109782Y963421D01*
X108770Y965863D01*
X107161Y967961D01*
X105063Y969570D01*
X102621Y970582D01*
X101270Y970759D01*
D02*
G37*
G36*
X98730Y970760D02*
X97379Y970582D01*
X94937Y969570D01*
X92839Y967961D01*
X91230Y965863D01*
X90218Y963421D01*
X90041Y962070D01*
X98730D01*
Y970760D01*
D02*
G37*
G36*
X866400Y970382D02*
X863920Y970055D01*
X861609Y969098D01*
X859624Y967576D01*
X858102Y965591D01*
X857144Y963280D01*
X856818Y960800D01*
X857144Y958320D01*
X858102Y956009D01*
X859624Y954025D01*
X861609Y952502D01*
X863920Y951545D01*
X866400Y951218D01*
X868880Y951545D01*
X871191Y952502D01*
X873175Y954025D01*
X874698Y956009D01*
X875655Y958320D01*
X875982Y960800D01*
X875655Y963280D01*
X874698Y965591D01*
X873175Y967576D01*
X871191Y969098D01*
X868880Y970055D01*
X866400Y970382D01*
D02*
G37*
G36*
X74600D02*
X72120Y970055D01*
X69809Y969098D01*
X67825Y967576D01*
X66302Y965591D01*
X65345Y963280D01*
X65018Y960800D01*
X65345Y958320D01*
X66302Y956009D01*
X67825Y954025D01*
X69809Y952502D01*
X72120Y951545D01*
X74600Y951218D01*
X77080Y951545D01*
X79391Y952502D01*
X81376Y954025D01*
X82898Y956009D01*
X83855Y958320D01*
X84182Y960800D01*
X83855Y963280D01*
X82898Y965591D01*
X81376Y967576D01*
X79391Y969098D01*
X77080Y970055D01*
X74600Y970382D01*
D02*
G37*
G36*
X109959Y959530D02*
X101270D01*
Y950841D01*
X102621Y951018D01*
X105063Y952030D01*
X107161Y953639D01*
X108770Y955737D01*
X109782Y958179D01*
X109959Y959530D01*
D02*
G37*
G36*
X850959Y959530D02*
X842270D01*
Y950841D01*
X843621Y951018D01*
X846063Y952030D01*
X848161Y953639D01*
X849770Y955737D01*
X850782Y958179D01*
X850959Y959530D01*
D02*
G37*
G36*
X839730D02*
X831041D01*
X831218Y958179D01*
X832230Y955737D01*
X833839Y953639D01*
X835937Y952030D01*
X838379Y951018D01*
X839730Y950841D01*
Y959530D01*
D02*
G37*
G36*
X98730Y959530D02*
X90041D01*
X90218Y958179D01*
X91230Y955737D01*
X92839Y953639D01*
X94937Y952030D01*
X97379Y951018D01*
X98730Y950841D01*
Y959530D01*
D02*
G37*
G36*
X866400Y944982D02*
X863920Y944656D01*
X861609Y943698D01*
X859996Y942460D01*
X847404D01*
X845791Y943698D01*
X843480Y944656D01*
X841000Y944982D01*
X838520Y944656D01*
X836209Y943698D01*
X834224Y942176D01*
X832702Y940191D01*
X831745Y937880D01*
X831418Y935400D01*
X831745Y932920D01*
X832702Y930609D01*
X834224Y928625D01*
X836209Y927102D01*
X838520Y926145D01*
X841000Y925818D01*
X843480Y926145D01*
X845791Y927102D01*
X847404Y928340D01*
X859996D01*
X861609Y927102D01*
X863920Y926145D01*
X866400Y925818D01*
X868880Y926145D01*
X871191Y927102D01*
X872804Y928340D01*
X900218D01*
X901940Y926618D01*
Y741782D01*
X900218Y740060D01*
X191674D01*
X107060Y824675D01*
Y925900D01*
X109500D01*
Y944900D01*
X90500D01*
Y942460D01*
X81004D01*
X79391Y943698D01*
X77080Y944656D01*
X74600Y944982D01*
X72120Y944656D01*
X69809Y943698D01*
X67825Y942176D01*
X66302Y940191D01*
X65345Y937880D01*
X65018Y935400D01*
X65345Y932920D01*
X66302Y930609D01*
X67825Y928625D01*
X69809Y927102D01*
X72120Y926145D01*
X74600Y925818D01*
X77080Y926145D01*
X79391Y927102D01*
X81004Y928340D01*
X90500D01*
Y925900D01*
X92940D01*
Y821750D01*
X93180Y819923D01*
X93885Y818220D01*
X95008Y816758D01*
X183757Y728008D01*
X185220Y726886D01*
X186923Y726180D01*
X188750Y725940D01*
X903142D01*
X904969Y726180D01*
X906672Y726886D01*
X908135Y728008D01*
X913992Y733865D01*
X915115Y735328D01*
X915820Y737030D01*
X916060Y738858D01*
Y929542D01*
X915820Y931369D01*
X915115Y933072D01*
X913992Y934535D01*
X908135Y940393D01*
X906672Y941515D01*
X904969Y942220D01*
X903142Y942460D01*
X872804D01*
X871191Y943698D01*
X868880Y944656D01*
X866400Y944982D01*
D02*
G37*
G36*
X73250Y886108D02*
X71104Y885681D01*
X69285Y884465D01*
X68069Y882646D01*
X67642Y880500D01*
X68069Y878354D01*
X69285Y876535D01*
X69936Y876099D01*
Y873551D01*
X68666Y873166D01*
X67965Y874215D01*
X66146Y875431D01*
X64000Y875858D01*
X61854Y875431D01*
X60035Y874215D01*
X58819Y872396D01*
X58392Y870250D01*
X58819Y868104D01*
X60035Y866285D01*
X60941Y865679D01*
Y540750D01*
X60941Y540750D01*
X61174Y539580D01*
X61837Y538587D01*
X178191Y422233D01*
Y227571D01*
X177285Y226965D01*
X176069Y225146D01*
X175642Y223000D01*
X176069Y220854D01*
X177285Y219035D01*
X179104Y217819D01*
X181250Y217392D01*
X183396Y217819D01*
X185215Y219035D01*
X186431Y220854D01*
X186858Y223000D01*
X186431Y225146D01*
X185215Y226965D01*
X184309Y227571D01*
Y423500D01*
X184309Y423500D01*
X184076Y424670D01*
X183413Y425663D01*
X183413Y425663D01*
X67059Y542017D01*
Y865679D01*
X67965Y866285D01*
X68666Y867334D01*
X69936Y866949D01*
Y543500D01*
X70189Y542232D01*
X70907Y541157D01*
X192686Y419377D01*
Y228151D01*
X192035Y227715D01*
X190819Y225896D01*
X190392Y223750D01*
X190819Y221604D01*
X192035Y219785D01*
X193854Y218569D01*
X196000Y218142D01*
X198146Y218569D01*
X199965Y219785D01*
X201181Y221604D01*
X201608Y223750D01*
X201181Y225896D01*
X199965Y227715D01*
X199314Y228151D01*
Y420750D01*
X199061Y422018D01*
X198343Y423093D01*
X76564Y544873D01*
Y876099D01*
X77215Y876535D01*
X78431Y878354D01*
X78858Y880500D01*
X78431Y882646D01*
X77215Y884465D01*
X75396Y885681D01*
X73250Y886108D01*
D02*
G37*
G36*
X609500Y871608D02*
X607354Y871181D01*
X605535Y869965D01*
X604319Y868146D01*
X603892Y866000D01*
X604319Y863854D01*
X605535Y862035D01*
X607354Y860819D01*
X609500Y860392D01*
X610569Y860605D01*
X658087Y813087D01*
X658087Y813087D01*
X659080Y812424D01*
X660250Y812191D01*
X660250Y812191D01*
X679179D01*
X679785Y811285D01*
X681604Y810069D01*
X683750Y809642D01*
X685896Y810069D01*
X687715Y811285D01*
X688931Y813104D01*
X689358Y815250D01*
X688931Y817396D01*
X687715Y819215D01*
X685896Y820431D01*
X683750Y820858D01*
X681604Y820431D01*
X679785Y819215D01*
X679179Y818309D01*
X661517D01*
X614895Y864931D01*
X615108Y866000D01*
X614681Y868146D01*
X613465Y869965D01*
X611646Y871181D01*
X609500Y871608D01*
D02*
G37*
G36*
X531707Y872401D02*
X529561Y871974D01*
X527741Y870759D01*
X526526Y868939D01*
X526099Y866793D01*
X526526Y864647D01*
X527741Y862828D01*
X529561Y861612D01*
X531707Y861186D01*
X532776Y861398D01*
X585605Y808569D01*
X585392Y807500D01*
X585819Y805354D01*
X587035Y803535D01*
X588854Y802319D01*
X591000Y801892D01*
X593146Y802319D01*
X594965Y803535D01*
X596181Y805354D01*
X596608Y807500D01*
X596181Y809646D01*
X594965Y811465D01*
X593146Y812681D01*
X591000Y813108D01*
X589931Y812895D01*
X537102Y865724D01*
X537314Y866793D01*
X536888Y868939D01*
X535672Y870759D01*
X533853Y871974D01*
X531707Y872401D01*
D02*
G37*
G36*
X491520Y797705D02*
Y789520D01*
X499705D01*
X499544Y790741D01*
X498583Y793061D01*
X497054Y795054D01*
X495061Y796583D01*
X492740Y797544D01*
X491520Y797705D01*
D02*
G37*
G36*
X488980D02*
X487760Y797544D01*
X485439Y796583D01*
X483446Y795054D01*
X481917Y793061D01*
X480956Y790741D01*
X480795Y789520D01*
X488980D01*
Y797705D01*
D02*
G37*
G36*
X499705Y786980D02*
X491520D01*
Y778795D01*
X492740Y778956D01*
X495061Y779917D01*
X497054Y781446D01*
X498583Y783439D01*
X499544Y785760D01*
X499705Y786980D01*
D02*
G37*
G36*
X488980D02*
X480795D01*
X480956Y785760D01*
X481917Y783439D01*
X483446Y781446D01*
X485439Y779917D01*
X487760Y778956D01*
X488980Y778795D01*
Y786980D01*
D02*
G37*
G36*
X880000Y823608D02*
X877854Y823181D01*
X876035Y821965D01*
X874819Y820146D01*
X874444Y818261D01*
X874394Y818193D01*
X874183Y817951D01*
X847866Y791634D01*
X846982Y790311D01*
X846672Y788750D01*
X846672Y788750D01*
Y765328D01*
X726583D01*
X726578Y765398D01*
Y786561D01*
X751507Y811490D01*
X751679Y811634D01*
X751761Y811694D01*
X753646Y812069D01*
X755465Y813285D01*
X756681Y815104D01*
X757108Y817250D01*
X756681Y819396D01*
X755465Y821215D01*
X753646Y822431D01*
X751500Y822858D01*
X749354Y822431D01*
X747535Y821215D01*
X746319Y819396D01*
X745944Y817511D01*
X745894Y817443D01*
X745683Y817200D01*
X719616Y791134D01*
X718732Y789811D01*
X718422Y788250D01*
X718422Y788250D01*
Y765333D01*
X718352Y765328D01*
X597833D01*
X597828Y765398D01*
Y773811D01*
X630007Y805990D01*
X630179Y806134D01*
X630261Y806194D01*
X632146Y806569D01*
X633965Y807785D01*
X635181Y809604D01*
X635608Y811750D01*
X635181Y813896D01*
X633965Y815715D01*
X632146Y816931D01*
X630000Y817358D01*
X627854Y816931D01*
X626035Y815715D01*
X624819Y813896D01*
X624444Y812011D01*
X624394Y811943D01*
X624183Y811700D01*
X590866Y778384D01*
X589982Y777061D01*
X589672Y775500D01*
X589672Y775500D01*
Y765318D01*
X589652Y765095D01*
X589637Y764994D01*
X588569Y763396D01*
X588142Y761250D01*
X588569Y759104D01*
X589785Y757285D01*
X591604Y756069D01*
X593750Y755642D01*
X595896Y756069D01*
X597494Y757137D01*
X597577Y757150D01*
X597898Y757172D01*
X654589D01*
X654714Y755902D01*
X653604Y755681D01*
X651785Y754465D01*
X651520Y754069D01*
X515539D01*
Y772500D01*
X515384Y773280D01*
X514942Y773942D01*
X514280Y774384D01*
X513500Y774539D01*
X478652D01*
X478647Y774538D01*
X478643Y774539D01*
X478256Y774460D01*
X477872Y774384D01*
X477868Y774381D01*
X477863Y774380D01*
X477539Y774161D01*
X477211Y773942D01*
X477208Y773938D01*
X477203Y773935D01*
X476310Y773033D01*
X476307Y773028D01*
X476303Y773026D01*
X476088Y772697D01*
X475871Y772369D01*
X475870Y772364D01*
X475867Y772360D01*
X475795Y771976D01*
X475719Y771588D01*
X475721Y771583D01*
X475720Y771578D01*
X475838Y759371D01*
X474667Y758880D01*
X449250Y784297D01*
Y797250D01*
X431250D01*
Y779250D01*
X444203D01*
X475477Y747977D01*
X475952Y747659D01*
X475961Y746741D01*
Y746500D01*
X476116Y745720D01*
X476558Y745058D01*
X477220Y744616D01*
X478000Y744461D01*
X513500D01*
X514280Y744616D01*
X514942Y745058D01*
X515384Y745720D01*
X515539Y746500D01*
Y746931D01*
X651520D01*
X651785Y746535D01*
X653604Y745319D01*
X655750Y744892D01*
X657896Y745319D01*
X659715Y746535D01*
X659980Y746931D01*
X783520D01*
X783785Y746535D01*
X785604Y745319D01*
X787750Y744892D01*
X789896Y745319D01*
X791715Y746535D01*
X791840Y746721D01*
X885520D01*
X885785Y746324D01*
X887604Y745109D01*
X889750Y744682D01*
X891896Y745109D01*
X893715Y746324D01*
X894931Y748143D01*
X895358Y750290D01*
X894931Y752436D01*
X893715Y754255D01*
X891896Y755470D01*
X889750Y755897D01*
X887604Y755470D01*
X885785Y754255D01*
X885520Y753858D01*
X792121D01*
X791715Y754465D01*
X789896Y755681D01*
X788786Y755902D01*
X788911Y757172D01*
X846508D01*
X846683Y757150D01*
X846711Y757145D01*
X846785Y757035D01*
X848604Y755819D01*
X850750Y755392D01*
X852896Y755819D01*
X854715Y757035D01*
X855931Y758854D01*
X856358Y761000D01*
X855931Y763146D01*
X854863Y764744D01*
X854850Y764827D01*
X854828Y765148D01*
Y787061D01*
X880007Y812240D01*
X880179Y812384D01*
X880261Y812444D01*
X882146Y812819D01*
X883965Y814035D01*
X885181Y815854D01*
X885608Y818000D01*
X885181Y820146D01*
X883965Y821965D01*
X882146Y823181D01*
X880000Y823608D01*
D02*
G37*
G36*
X490770Y681205D02*
Y673020D01*
X498955D01*
X498795Y674240D01*
X497833Y676561D01*
X496304Y678554D01*
X494311Y680083D01*
X491991Y681044D01*
X490770Y681205D01*
D02*
G37*
G36*
X488230D02*
X487010Y681044D01*
X484689Y680083D01*
X482696Y678554D01*
X481167Y676561D01*
X480206Y674240D01*
X480045Y673020D01*
X488230D01*
Y681205D01*
D02*
G37*
G36*
X133500Y713858D02*
X131354Y713431D01*
X129535Y712215D01*
X128319Y710396D01*
X127892Y708250D01*
X128319Y706104D01*
X129535Y704285D01*
X129683Y704186D01*
X129732Y703939D01*
X130616Y702616D01*
X164366Y668866D01*
X164366Y668866D01*
X165689Y667982D01*
X167250Y667672D01*
X167250Y667672D01*
X430500D01*
Y662750D01*
X448500D01*
Y680750D01*
X430500D01*
Y675828D01*
X168939D01*
X138674Y706094D01*
X138681Y706104D01*
X139108Y708250D01*
X138681Y710396D01*
X137465Y712215D01*
X135646Y713431D01*
X133500Y713858D01*
D02*
G37*
G36*
X498955Y670480D02*
X490770D01*
Y662295D01*
X491991Y662456D01*
X494311Y663417D01*
X496304Y664946D01*
X497833Y666939D01*
X498795Y669260D01*
X498955Y670480D01*
D02*
G37*
G36*
X488230D02*
X480045D01*
X480206Y669260D01*
X481167Y666939D01*
X482696Y664946D01*
X484689Y663417D01*
X487010Y662456D01*
X488230Y662295D01*
Y670480D01*
D02*
G37*
G36*
X879920Y495451D02*
Y479020D01*
X888898D01*
Y485370D01*
X888548Y488022D01*
X887525Y490494D01*
X885896Y492616D01*
X883774Y494245D01*
X881302Y495269D01*
X879920Y495451D01*
D02*
G37*
G36*
X877380Y495451D02*
X875998Y495269D01*
X873526Y494245D01*
X871404Y492616D01*
X869775Y490494D01*
X868751Y488022D01*
X868402Y485370D01*
Y479020D01*
X877380D01*
Y495451D01*
D02*
G37*
G36*
X507320Y495451D02*
Y479020D01*
X516298D01*
Y485370D01*
X515948Y488022D01*
X514925Y490494D01*
X513296Y492616D01*
X511174Y494245D01*
X508702Y495269D01*
X507320Y495451D01*
D02*
G37*
G36*
X504780Y495451D02*
X503398Y495269D01*
X500926Y494245D01*
X498804Y492616D01*
X497175Y490494D01*
X496151Y488022D01*
X495802Y485370D01*
Y479020D01*
X504780D01*
Y495451D01*
D02*
G37*
G36*
X631520Y495451D02*
Y479020D01*
X640498D01*
Y485370D01*
X640148Y488022D01*
X639125Y490494D01*
X637496Y492616D01*
X635374Y494245D01*
X632902Y495269D01*
X631520Y495451D01*
D02*
G37*
G36*
X628980D02*
X627598Y495269D01*
X625126Y494245D01*
X623004Y492616D01*
X621375Y490494D01*
X620351Y488022D01*
X620002Y485370D01*
Y479020D01*
X628980D01*
Y495451D01*
D02*
G37*
G36*
X755720Y495451D02*
Y479020D01*
X764698D01*
Y485370D01*
X764348Y488022D01*
X763325Y490494D01*
X761696Y492616D01*
X759574Y494245D01*
X757102Y495269D01*
X755720Y495451D01*
D02*
G37*
G36*
X258920D02*
Y479020D01*
X267898D01*
Y485370D01*
X267549Y488022D01*
X266525Y490494D01*
X264896Y492616D01*
X262774Y494245D01*
X260302Y495269D01*
X258920Y495451D01*
D02*
G37*
G36*
X753180Y495451D02*
X751798Y495269D01*
X749326Y494245D01*
X747204Y492616D01*
X745575Y490494D01*
X744551Y488022D01*
X744202Y485370D01*
Y479020D01*
X753180D01*
Y495451D01*
D02*
G37*
G36*
X256380D02*
X254998Y495269D01*
X252526Y494245D01*
X250404Y492616D01*
X248775Y490494D01*
X247752Y488022D01*
X247402Y485370D01*
Y479020D01*
X256380D01*
Y495451D01*
D02*
G37*
G36*
X383120Y495451D02*
Y479020D01*
X392098D01*
Y485370D01*
X391749Y488022D01*
X390725Y490494D01*
X389096Y492616D01*
X386974Y494245D01*
X384502Y495269D01*
X383120Y495451D01*
D02*
G37*
G36*
X380580Y495451D02*
X379198Y495269D01*
X376726Y494245D01*
X374604Y492616D01*
X372975Y490494D01*
X371951Y488022D01*
X371602Y485370D01*
Y479020D01*
X380580D01*
Y495451D01*
D02*
G37*
G36*
X837470Y494990D02*
X818230D01*
Y460510D01*
X837470D01*
Y494990D01*
D02*
G37*
G36*
X713270D02*
X694030D01*
Y460510D01*
X713270D01*
Y494990D01*
D02*
G37*
G36*
X589070D02*
X569830D01*
Y460510D01*
X589070D01*
Y494990D01*
D02*
G37*
G36*
X464870D02*
X445630D01*
Y460510D01*
X464870D01*
Y494990D01*
D02*
G37*
G36*
X340670D02*
X321430D01*
Y460510D01*
X340670D01*
Y494990D01*
D02*
G37*
G36*
X216470D02*
X197230D01*
Y460510D01*
X216470D01*
Y494990D01*
D02*
G37*
G36*
X853250Y495073D02*
X850739Y494742D01*
X848398Y493773D01*
X846389Y492231D01*
X844847Y490221D01*
X843877Y487881D01*
X843547Y485370D01*
Y470130D01*
X843877Y467619D01*
X844847Y465279D01*
X846389Y463269D01*
X848398Y461727D01*
X850739Y460758D01*
X853250Y460427D01*
X855761Y460758D01*
X858101Y461727D01*
X860111Y463269D01*
X861653Y465279D01*
X862622Y467619D01*
X862953Y470130D01*
Y485370D01*
X862622Y487881D01*
X861653Y490221D01*
X860111Y492231D01*
X858101Y493773D01*
X855761Y494742D01*
X853250Y495073D01*
D02*
G37*
G36*
X729050D02*
X726539Y494742D01*
X724198Y493773D01*
X722189Y492231D01*
X720647Y490221D01*
X719678Y487881D01*
X719347Y485370D01*
Y470130D01*
X719678Y467619D01*
X720647Y465279D01*
X722189Y463269D01*
X724198Y461727D01*
X726539Y460758D01*
X729050Y460427D01*
X731561Y460758D01*
X733901Y461727D01*
X735911Y463269D01*
X737453Y465279D01*
X738422Y467619D01*
X738753Y470130D01*
Y485370D01*
X738422Y487881D01*
X737453Y490221D01*
X735911Y492231D01*
X733901Y493773D01*
X731561Y494742D01*
X729050Y495073D01*
D02*
G37*
G36*
X604850D02*
X602339Y494742D01*
X599998Y493773D01*
X597989Y492231D01*
X596447Y490221D01*
X595477Y487881D01*
X595147Y485370D01*
Y470130D01*
X595477Y467619D01*
X596447Y465279D01*
X597989Y463269D01*
X599998Y461727D01*
X602339Y460758D01*
X604850Y460427D01*
X607361Y460758D01*
X609701Y461727D01*
X611711Y463269D01*
X613253Y465279D01*
X614222Y467619D01*
X614553Y470130D01*
Y485370D01*
X614222Y487881D01*
X613253Y490221D01*
X611711Y492231D01*
X609701Y493773D01*
X607361Y494742D01*
X604850Y495073D01*
D02*
G37*
G36*
X480650D02*
X478139Y494742D01*
X475798Y493773D01*
X473789Y492231D01*
X472247Y490221D01*
X471278Y487881D01*
X470947Y485370D01*
Y470130D01*
X471278Y467619D01*
X472247Y465279D01*
X473789Y463269D01*
X475798Y461727D01*
X478139Y460758D01*
X480650Y460427D01*
X483161Y460758D01*
X485501Y461727D01*
X487511Y463269D01*
X489053Y465279D01*
X490022Y467619D01*
X490353Y470130D01*
Y485370D01*
X490022Y487881D01*
X489053Y490221D01*
X487511Y492231D01*
X485501Y493773D01*
X483161Y494742D01*
X480650Y495073D01*
D02*
G37*
G36*
X356450D02*
X353939Y494742D01*
X351599Y493773D01*
X349589Y492231D01*
X348047Y490221D01*
X347078Y487881D01*
X346747Y485370D01*
Y470130D01*
X347078Y467619D01*
X348047Y465279D01*
X349589Y463269D01*
X351599Y461727D01*
X353939Y460758D01*
X356450Y460427D01*
X358961Y460758D01*
X361301Y461727D01*
X363311Y463269D01*
X364853Y465279D01*
X365822Y467619D01*
X366153Y470130D01*
Y485370D01*
X365822Y487881D01*
X364853Y490221D01*
X363311Y492231D01*
X361301Y493773D01*
X358961Y494742D01*
X356450Y495073D01*
D02*
G37*
G36*
X232250D02*
X229739Y494742D01*
X227398Y493773D01*
X225389Y492231D01*
X223847Y490221D01*
X222878Y487881D01*
X222547Y485370D01*
Y470130D01*
X222878Y467619D01*
X223847Y465279D01*
X225389Y463269D01*
X227398Y461727D01*
X229739Y460758D01*
X232250Y460427D01*
X234761Y460758D01*
X237101Y461727D01*
X239111Y463269D01*
X240653Y465279D01*
X241622Y467619D01*
X241953Y470130D01*
Y485370D01*
X241622Y487881D01*
X240653Y490221D01*
X239111Y492231D01*
X237101Y493773D01*
X234761Y494742D01*
X232250Y495073D01*
D02*
G37*
G36*
X392098Y476480D02*
X383120D01*
Y460050D01*
X384502Y460232D01*
X386974Y461255D01*
X389096Y462884D01*
X390725Y465006D01*
X391749Y467478D01*
X392098Y470130D01*
Y476480D01*
D02*
G37*
G36*
X877380Y476480D02*
X868402D01*
Y470130D01*
X868751Y467478D01*
X869775Y465006D01*
X871404Y462884D01*
X873526Y461255D01*
X875998Y460232D01*
X877380Y460050D01*
Y476480D01*
D02*
G37*
G36*
X764698Y476480D02*
X755720D01*
Y460050D01*
X757102Y460232D01*
X759574Y461255D01*
X761696Y462884D01*
X763325Y465006D01*
X764348Y467478D01*
X764698Y470130D01*
Y476480D01*
D02*
G37*
G36*
X267898D02*
X258920D01*
Y460050D01*
X260302Y460232D01*
X262774Y461255D01*
X264896Y462884D01*
X266525Y465006D01*
X267549Y467478D01*
X267898Y470130D01*
Y476480D01*
D02*
G37*
G36*
X504780Y476480D02*
X495802D01*
Y470130D01*
X496151Y467478D01*
X497175Y465006D01*
X498804Y462884D01*
X500926Y461255D01*
X503398Y460232D01*
X504780Y460050D01*
Y476480D01*
D02*
G37*
G36*
X640498Y476480D02*
X631520D01*
Y460050D01*
X632902Y460232D01*
X635374Y461255D01*
X637496Y462884D01*
X639125Y465006D01*
X640148Y467478D01*
X640498Y470130D01*
Y476480D01*
D02*
G37*
G36*
X628980D02*
X620002D01*
Y470130D01*
X620351Y467478D01*
X621375Y465006D01*
X623004Y462884D01*
X625126Y461255D01*
X627598Y460232D01*
X628980Y460050D01*
Y476480D01*
D02*
G37*
G36*
X516298Y476480D02*
X507320D01*
Y460050D01*
X508702Y460232D01*
X511174Y461255D01*
X513296Y462884D01*
X514925Y465006D01*
X515948Y467478D01*
X516298Y470130D01*
Y476480D01*
D02*
G37*
G36*
X753180Y476480D02*
X744202D01*
Y470130D01*
X744551Y467478D01*
X745575Y465006D01*
X747204Y462884D01*
X749326Y461255D01*
X751798Y460232D01*
X753180Y460050D01*
Y476480D01*
D02*
G37*
G36*
X256380D02*
X247402D01*
Y470130D01*
X247752Y467478D01*
X248775Y465006D01*
X250404Y462884D01*
X252526Y461255D01*
X254998Y460232D01*
X256380Y460050D01*
Y476480D01*
D02*
G37*
G36*
X888898Y476480D02*
X879920D01*
Y460050D01*
X881302Y460232D01*
X883774Y461255D01*
X885896Y462884D01*
X887525Y465006D01*
X888548Y467478D01*
X888898Y470130D01*
Y476480D01*
D02*
G37*
G36*
X380580Y476480D02*
X371602D01*
Y470130D01*
X371951Y467478D01*
X372975Y465006D01*
X374604Y462884D01*
X376726Y461255D01*
X379198Y460232D01*
X380580Y460050D01*
Y476480D01*
D02*
G37*
G36*
X60020Y424455D02*
Y416270D01*
X68205D01*
X68044Y417490D01*
X67083Y419811D01*
X65554Y421804D01*
X63561Y423333D01*
X61240Y424294D01*
X60020Y424455D01*
D02*
G37*
G36*
X57480Y424455D02*
X56260Y424294D01*
X53939Y423333D01*
X51946Y421804D01*
X50417Y419811D01*
X49456Y417490D01*
X49295Y416270D01*
X57480D01*
Y424455D01*
D02*
G37*
G36*
X117750Y424000D02*
X99750D01*
Y406000D01*
X117750D01*
Y424000D01*
D02*
G37*
G36*
X68205Y413730D02*
X60020D01*
Y405545D01*
X61240Y405705D01*
X63561Y406667D01*
X65554Y408196D01*
X67083Y410189D01*
X68044Y412509D01*
X68205Y413730D01*
D02*
G37*
G36*
X57480D02*
X49295D01*
X49456Y412509D01*
X50417Y410189D01*
X51946Y408196D01*
X53939Y406667D01*
X56260Y405705D01*
X57480Y405545D01*
Y413730D01*
D02*
G37*
G36*
X853250Y313211D02*
X849746Y312866D01*
X846376Y311844D01*
X843271Y310184D01*
X840549Y307951D01*
X838315Y305229D01*
X836656Y302124D01*
X835633Y298754D01*
X835288Y295250D01*
X835633Y291746D01*
X836656Y288376D01*
X838315Y285271D01*
X840549Y282549D01*
X843271Y280316D01*
X846376Y278656D01*
X849746Y277634D01*
X853250Y277288D01*
X856754Y277634D01*
X860124Y278656D01*
X863229Y280316D01*
X865951Y282549D01*
X868184Y285271D01*
X869844Y288376D01*
X870866Y291746D01*
X871211Y295250D01*
X870866Y298754D01*
X869844Y302124D01*
X868184Y305229D01*
X865951Y307951D01*
X863229Y310184D01*
X860124Y311844D01*
X856754Y312866D01*
X853250Y313211D01*
D02*
G37*
G36*
X729050D02*
X725546Y312866D01*
X722176Y311844D01*
X719071Y310184D01*
X716349Y307951D01*
X714116Y305229D01*
X712456Y302124D01*
X711434Y298754D01*
X711088Y295250D01*
X711434Y291746D01*
X712456Y288376D01*
X714116Y285271D01*
X716349Y282549D01*
X719071Y280316D01*
X722176Y278656D01*
X725546Y277634D01*
X729050Y277288D01*
X732554Y277634D01*
X735923Y278656D01*
X739029Y280316D01*
X741751Y282549D01*
X743984Y285271D01*
X745644Y288376D01*
X746666Y291746D01*
X747011Y295250D01*
X746666Y298754D01*
X745644Y302124D01*
X743984Y305229D01*
X741751Y307951D01*
X739029Y310184D01*
X735923Y311844D01*
X732554Y312866D01*
X729050Y313211D01*
D02*
G37*
G36*
X604850D02*
X601346Y312866D01*
X597976Y311844D01*
X594871Y310184D01*
X592149Y307951D01*
X589916Y305229D01*
X588256Y302124D01*
X587234Y298754D01*
X586888Y295250D01*
X587234Y291746D01*
X588256Y288376D01*
X589916Y285271D01*
X592149Y282549D01*
X594871Y280316D01*
X597976Y278656D01*
X601346Y277634D01*
X604850Y277288D01*
X608354Y277634D01*
X611724Y278656D01*
X614829Y280316D01*
X617551Y282549D01*
X619784Y285271D01*
X621444Y288376D01*
X622466Y291746D01*
X622811Y295250D01*
X622466Y298754D01*
X621444Y302124D01*
X619784Y305229D01*
X617551Y307951D01*
X614829Y310184D01*
X611724Y311844D01*
X608354Y312866D01*
X604850Y313211D01*
D02*
G37*
G36*
X480650D02*
X477146Y312866D01*
X473776Y311844D01*
X470671Y310184D01*
X467949Y307951D01*
X465715Y305229D01*
X464056Y302124D01*
X463034Y298754D01*
X462688Y295250D01*
X463034Y291746D01*
X464056Y288376D01*
X465715Y285271D01*
X467949Y282549D01*
X470671Y280316D01*
X473776Y278656D01*
X477146Y277634D01*
X480650Y277288D01*
X484154Y277634D01*
X487523Y278656D01*
X490629Y280316D01*
X493351Y282549D01*
X495584Y285271D01*
X497244Y288376D01*
X498266Y291746D01*
X498611Y295250D01*
X498266Y298754D01*
X497244Y302124D01*
X495584Y305229D01*
X493351Y307951D01*
X490629Y310184D01*
X487523Y311844D01*
X484154Y312866D01*
X480650Y313211D01*
D02*
G37*
G36*
X356450D02*
X352946Y312866D01*
X349576Y311844D01*
X346471Y310184D01*
X343749Y307951D01*
X341516Y305229D01*
X339856Y302124D01*
X338834Y298754D01*
X338489Y295250D01*
X338834Y291746D01*
X339856Y288376D01*
X341516Y285271D01*
X343749Y282549D01*
X346471Y280316D01*
X349576Y278656D01*
X352946Y277634D01*
X356450Y277288D01*
X359954Y277634D01*
X363324Y278656D01*
X366429Y280316D01*
X369151Y282549D01*
X371384Y285271D01*
X373044Y288376D01*
X374066Y291746D01*
X374411Y295250D01*
X374066Y298754D01*
X373044Y302124D01*
X371384Y305229D01*
X369151Y307951D01*
X366429Y310184D01*
X363324Y311844D01*
X359954Y312866D01*
X356450Y313211D01*
D02*
G37*
G36*
X232250D02*
X228746Y312866D01*
X225376Y311844D01*
X222271Y310184D01*
X219549Y307951D01*
X217316Y305229D01*
X215656Y302124D01*
X214634Y298754D01*
X214289Y295250D01*
X214634Y291746D01*
X215656Y288376D01*
X217316Y285271D01*
X219549Y282549D01*
X222271Y280316D01*
X225376Y278656D01*
X228746Y277634D01*
X232250Y277288D01*
X235754Y277634D01*
X239124Y278656D01*
X242229Y280316D01*
X244951Y282549D01*
X247184Y285271D01*
X248844Y288376D01*
X249866Y291746D01*
X250212Y295250D01*
X249866Y298754D01*
X248844Y302124D01*
X247184Y305229D01*
X244951Y307951D01*
X242229Y310184D01*
X239124Y311844D01*
X235754Y312866D01*
X232250Y313211D01*
D02*
G37*
G36*
X60020Y265205D02*
Y257020D01*
X68205D01*
X68044Y258240D01*
X67083Y260561D01*
X65554Y262554D01*
X63561Y264083D01*
X61240Y265044D01*
X60020Y265205D01*
D02*
G37*
G36*
X57480Y265205D02*
X56260Y265044D01*
X53939Y264083D01*
X51946Y262554D01*
X50417Y260561D01*
X49456Y258240D01*
X49295Y257020D01*
X57480D01*
Y265205D01*
D02*
G37*
G36*
X117750Y264750D02*
X99750D01*
Y246750D01*
X117750D01*
Y264750D01*
D02*
G37*
G36*
X68205Y254480D02*
X60020D01*
Y246295D01*
X61240Y246455D01*
X63561Y247417D01*
X65554Y248946D01*
X67083Y250939D01*
X68044Y253260D01*
X68205Y254480D01*
D02*
G37*
G36*
X57480D02*
X49295D01*
X49456Y253260D01*
X50417Y250939D01*
X51946Y248946D01*
X53939Y247417D01*
X56260Y246455D01*
X57480Y246295D01*
Y254480D01*
D02*
G37*
G36*
X39250Y894858D02*
X37104Y894431D01*
X35285Y893215D01*
X34069Y891396D01*
X33642Y889250D01*
X34069Y887104D01*
X35285Y885285D01*
X36191Y884679D01*
Y540250D01*
X36191Y540250D01*
X36424Y539080D01*
X37087Y538087D01*
X147691Y427483D01*
Y241821D01*
X146785Y241215D01*
X145569Y239396D01*
X145142Y237250D01*
X145569Y235104D01*
X146785Y233285D01*
X148604Y232069D01*
X150750Y231642D01*
X152896Y232069D01*
X154715Y233285D01*
X155931Y235104D01*
X156358Y237250D01*
X155931Y239396D01*
X154715Y241215D01*
X153809Y241821D01*
Y428750D01*
X153576Y429921D01*
X152913Y430913D01*
X152913Y430913D01*
X42309Y541517D01*
Y884679D01*
X43215Y885285D01*
X44431Y887104D01*
X44858Y889250D01*
X44431Y891396D01*
X43215Y893215D01*
X41396Y894431D01*
X39250Y894858D01*
D02*
G37*
G36*
X54000Y905108D02*
X51854Y904681D01*
X50035Y903465D01*
X48819Y901646D01*
X48392Y899500D01*
X48819Y897354D01*
X50035Y895535D01*
X50941Y894929D01*
Y537000D01*
X50941Y537000D01*
X51174Y535830D01*
X51837Y534837D01*
X161941Y424733D01*
Y241571D01*
X161035Y240965D01*
X159819Y239146D01*
X159392Y237000D01*
X159819Y234854D01*
X161035Y233035D01*
X162854Y231819D01*
X165000Y231392D01*
X167146Y231819D01*
X168965Y233035D01*
X170181Y234854D01*
X170608Y237000D01*
X170181Y239146D01*
X168965Y240965D01*
X168059Y241571D01*
Y426000D01*
X168059Y426000D01*
X167826Y427170D01*
X167163Y428163D01*
X57059Y538267D01*
Y894929D01*
X57965Y895535D01*
X59181Y897354D01*
X59608Y899500D01*
X59181Y901646D01*
X57965Y903465D01*
X56146Y904681D01*
X54000Y905108D01*
D02*
G37*
G36*
X346020Y101782D02*
Y81270D01*
X357047D01*
Y89652D01*
X356628Y92835D01*
X355400Y95801D01*
X353445Y98347D01*
X350899Y100302D01*
X347933Y101530D01*
X346020Y101782D01*
D02*
G37*
G36*
X343480Y101782D02*
X341567Y101530D01*
X338601Y100302D01*
X336055Y98347D01*
X334100Y95801D01*
X332872Y92835D01*
X332453Y89652D01*
Y81270D01*
X343480D01*
Y101782D01*
D02*
G37*
G36*
X311020D02*
Y81270D01*
X322047D01*
Y89652D01*
X321628Y92835D01*
X320400Y95801D01*
X318445Y98347D01*
X315899Y100302D01*
X312933Y101530D01*
X311020Y101782D01*
D02*
G37*
G36*
X308480D02*
X306567Y101530D01*
X303601Y100302D01*
X301055Y98347D01*
X299100Y95801D01*
X297872Y92835D01*
X297453Y89652D01*
Y81270D01*
X308480D01*
Y101782D01*
D02*
G37*
G36*
X55944Y100956D02*
Y80444D01*
X66971D01*
Y88826D01*
X66552Y92009D01*
X65324Y94975D01*
X63369Y97521D01*
X60823Y99476D01*
X57857Y100704D01*
X55944Y100956D01*
D02*
G37*
G36*
X53404D02*
X51491Y100704D01*
X48525Y99476D01*
X45979Y97521D01*
X44024Y94975D01*
X42796Y92009D01*
X42377Y88826D01*
Y80444D01*
X53404D01*
Y100956D01*
D02*
G37*
G36*
X834750Y101404D02*
X831708Y101004D01*
X828874Y99830D01*
X826440Y97962D01*
X824572Y95528D01*
X823398Y92694D01*
X822997Y89652D01*
Y70348D01*
X823398Y67306D01*
X824572Y64472D01*
X826440Y62038D01*
X828874Y60170D01*
X831708Y58996D01*
X834750Y58595D01*
X837792Y58996D01*
X840626Y60170D01*
X843060Y62038D01*
X844928Y64472D01*
X846102Y67306D01*
X846503Y70348D01*
Y89652D01*
X846102Y92694D01*
X844928Y95528D01*
X843060Y97962D01*
X840626Y99830D01*
X837792Y101004D01*
X834750Y101404D01*
D02*
G37*
G36*
X799750D02*
X796708Y101004D01*
X793874Y99830D01*
X791440Y97962D01*
X789572Y95528D01*
X788398Y92694D01*
X787998Y89652D01*
Y70348D01*
X788398Y67306D01*
X789572Y64472D01*
X791440Y62038D01*
X793874Y60170D01*
X796708Y58996D01*
X799750Y58595D01*
X802792Y58996D01*
X805626Y60170D01*
X808060Y62038D01*
X809928Y64472D01*
X811102Y67306D01*
X811503Y70348D01*
Y89652D01*
X811102Y92694D01*
X809928Y95528D01*
X808060Y97962D01*
X805626Y99830D01*
X802792Y101004D01*
X799750Y101404D01*
D02*
G37*
G36*
X764750D02*
X761708Y101004D01*
X758874Y99830D01*
X756440Y97962D01*
X754572Y95528D01*
X753398Y92694D01*
X752998Y89652D01*
Y70348D01*
X753398Y67306D01*
X754572Y64472D01*
X756440Y62038D01*
X758874Y60170D01*
X761708Y58996D01*
X764750Y58595D01*
X767792Y58996D01*
X770626Y60170D01*
X773060Y62038D01*
X774928Y64472D01*
X776102Y67306D01*
X776503Y70348D01*
Y89652D01*
X776102Y92694D01*
X774928Y95528D01*
X773060Y97962D01*
X770626Y99830D01*
X767792Y101004D01*
X764750Y101404D01*
D02*
G37*
G36*
X729750D02*
X726708Y101004D01*
X723874Y99830D01*
X721440Y97962D01*
X719572Y95528D01*
X718398Y92694D01*
X717997Y89652D01*
Y70348D01*
X718398Y67306D01*
X719572Y64472D01*
X721440Y62038D01*
X723874Y60170D01*
X726708Y58996D01*
X729750Y58595D01*
X732792Y58996D01*
X735626Y60170D01*
X738060Y62038D01*
X739928Y64472D01*
X741102Y67306D01*
X741503Y70348D01*
Y89652D01*
X741102Y92694D01*
X739928Y95528D01*
X738060Y97962D01*
X735626Y99830D01*
X732792Y101004D01*
X729750Y101404D01*
D02*
G37*
G36*
X694750D02*
X691708Y101004D01*
X688874Y99830D01*
X686440Y97962D01*
X684572Y95528D01*
X683398Y92694D01*
X682998Y89652D01*
Y70348D01*
X683398Y67306D01*
X684572Y64472D01*
X686440Y62038D01*
X688874Y60170D01*
X691708Y58996D01*
X694750Y58595D01*
X697792Y58996D01*
X700626Y60170D01*
X703060Y62038D01*
X704928Y64472D01*
X706102Y67306D01*
X706503Y70348D01*
Y89652D01*
X706102Y92694D01*
X704928Y95528D01*
X703060Y97962D01*
X700626Y99830D01*
X697792Y101004D01*
X694750Y101404D01*
D02*
G37*
G36*
X659750D02*
X656708Y101004D01*
X653874Y99830D01*
X651440Y97962D01*
X649572Y95528D01*
X648398Y92694D01*
X647998Y89652D01*
Y70348D01*
X648398Y67306D01*
X649572Y64472D01*
X651440Y62038D01*
X653874Y60170D01*
X656708Y58996D01*
X659750Y58595D01*
X662792Y58996D01*
X665626Y60170D01*
X668060Y62038D01*
X669928Y64472D01*
X671102Y67306D01*
X671503Y70348D01*
Y89652D01*
X671102Y92694D01*
X669928Y95528D01*
X668060Y97962D01*
X665626Y99830D01*
X662792Y101004D01*
X659750Y101404D01*
D02*
G37*
G36*
X624750D02*
X621708Y101004D01*
X618874Y99830D01*
X616440Y97962D01*
X614572Y95528D01*
X613398Y92694D01*
X612998Y89652D01*
Y70348D01*
X613398Y67306D01*
X614572Y64472D01*
X616440Y62038D01*
X618874Y60170D01*
X621708Y58996D01*
X624750Y58595D01*
X627792Y58996D01*
X630626Y60170D01*
X633060Y62038D01*
X634928Y64472D01*
X636102Y67306D01*
X636502Y70348D01*
Y89652D01*
X636102Y92694D01*
X634928Y95528D01*
X633060Y97962D01*
X630626Y99830D01*
X627792Y101004D01*
X624750Y101404D01*
D02*
G37*
G36*
X589750D02*
X586708Y101004D01*
X583874Y99830D01*
X581440Y97962D01*
X579572Y95528D01*
X578398Y92694D01*
X577998Y89652D01*
Y70348D01*
X578398Y67306D01*
X579572Y64472D01*
X581440Y62038D01*
X583874Y60170D01*
X586708Y58996D01*
X589750Y58595D01*
X592792Y58996D01*
X595626Y60170D01*
X598060Y62038D01*
X599928Y64472D01*
X601102Y67306D01*
X601502Y70348D01*
Y89652D01*
X601102Y92694D01*
X599928Y95528D01*
X598060Y97962D01*
X595626Y99830D01*
X592792Y101004D01*
X589750Y101404D01*
D02*
G37*
G36*
X554750D02*
X551708Y101004D01*
X548874Y99830D01*
X546440Y97962D01*
X544572Y95528D01*
X543398Y92694D01*
X542998Y89652D01*
Y70348D01*
X543398Y67306D01*
X544572Y64472D01*
X546440Y62038D01*
X548874Y60170D01*
X551708Y58996D01*
X554750Y58595D01*
X557792Y58996D01*
X560626Y60170D01*
X563060Y62038D01*
X564928Y64472D01*
X566102Y67306D01*
X566502Y70348D01*
Y89652D01*
X566102Y92694D01*
X564928Y95528D01*
X563060Y97962D01*
X560626Y99830D01*
X557792Y101004D01*
X554750Y101404D01*
D02*
G37*
G36*
X519750D02*
X516708Y101004D01*
X513874Y99830D01*
X511440Y97962D01*
X509572Y95528D01*
X508398Y92694D01*
X507998Y89652D01*
Y70348D01*
X508398Y67306D01*
X509572Y64472D01*
X511440Y62038D01*
X513874Y60170D01*
X516708Y58996D01*
X519750Y58595D01*
X522792Y58996D01*
X525626Y60170D01*
X528060Y62038D01*
X529928Y64472D01*
X531102Y67306D01*
X531502Y70348D01*
Y89652D01*
X531102Y92694D01*
X529928Y95528D01*
X528060Y97962D01*
X525626Y99830D01*
X522792Y101004D01*
X519750Y101404D01*
D02*
G37*
G36*
X484750D02*
X481708Y101004D01*
X478874Y99830D01*
X476440Y97962D01*
X474572Y95528D01*
X473398Y92694D01*
X472998Y89652D01*
Y70348D01*
X473398Y67306D01*
X474572Y64472D01*
X476440Y62038D01*
X478874Y60170D01*
X481708Y58996D01*
X484750Y58595D01*
X487792Y58996D01*
X490626Y60170D01*
X493060Y62038D01*
X494928Y64472D01*
X496102Y67306D01*
X496502Y70348D01*
Y89652D01*
X496102Y92694D01*
X494928Y95528D01*
X493060Y97962D01*
X490626Y99830D01*
X487792Y101004D01*
X484750Y101404D01*
D02*
G37*
G36*
X449750D02*
X446708Y101004D01*
X443874Y99830D01*
X441440Y97962D01*
X439572Y95528D01*
X438398Y92694D01*
X437998Y89652D01*
Y70348D01*
X438398Y67306D01*
X439572Y64472D01*
X441440Y62038D01*
X443874Y60170D01*
X446708Y58996D01*
X449750Y58595D01*
X452792Y58996D01*
X455626Y60170D01*
X458060Y62038D01*
X459928Y64472D01*
X461102Y67306D01*
X461502Y70348D01*
Y89652D01*
X461102Y92694D01*
X459928Y95528D01*
X458060Y97962D01*
X455626Y99830D01*
X452792Y101004D01*
X449750Y101404D01*
D02*
G37*
G36*
X414750D02*
X411708Y101004D01*
X408874Y99830D01*
X406440Y97962D01*
X404572Y95528D01*
X403398Y92694D01*
X402998Y89652D01*
Y70348D01*
X403398Y67306D01*
X404572Y64472D01*
X406440Y62038D01*
X408874Y60170D01*
X411708Y58996D01*
X414750Y58595D01*
X417792Y58996D01*
X420626Y60170D01*
X423060Y62038D01*
X424928Y64472D01*
X426102Y67306D01*
X426502Y70348D01*
Y89652D01*
X426102Y92694D01*
X424928Y95528D01*
X423060Y97962D01*
X420626Y99830D01*
X417792Y101004D01*
X414750Y101404D01*
D02*
G37*
G36*
X379750D02*
X376708Y101004D01*
X373874Y99830D01*
X371440Y97962D01*
X369572Y95528D01*
X368398Y92694D01*
X367998Y89652D01*
Y70348D01*
X368398Y67306D01*
X369572Y64472D01*
X371440Y62038D01*
X373874Y60170D01*
X376708Y58996D01*
X379750Y58595D01*
X382792Y58996D01*
X385626Y60170D01*
X388060Y62038D01*
X389928Y64472D01*
X391102Y67306D01*
X391502Y70348D01*
Y89652D01*
X391102Y92694D01*
X389928Y95528D01*
X388060Y97962D01*
X385626Y99830D01*
X382792Y101004D01*
X379750Y101404D01*
D02*
G37*
G36*
X343480Y78730D02*
X332453D01*
Y70348D01*
X332872Y67165D01*
X334100Y64199D01*
X336055Y61653D01*
X338601Y59698D01*
X341567Y58470D01*
X343480Y58218D01*
Y78730D01*
D02*
G37*
G36*
X308480Y78730D02*
X297453D01*
Y70348D01*
X297872Y67165D01*
X299100Y64199D01*
X301055Y61653D01*
X303601Y59698D01*
X306567Y58470D01*
X308480Y58218D01*
Y78730D01*
D02*
G37*
G36*
X322047D02*
X311020D01*
Y58218D01*
X312933Y58470D01*
X315899Y59698D01*
X318445Y61653D01*
X320400Y64199D01*
X321628Y67165D01*
X322047Y70348D01*
Y78730D01*
D02*
G37*
G36*
X357047Y78730D02*
X346020D01*
Y58218D01*
X347933Y58470D01*
X350899Y59698D01*
X353445Y61653D01*
X355400Y64199D01*
X356628Y67165D01*
X357047Y70348D01*
Y78730D01*
D02*
G37*
G36*
X89674Y100578D02*
X86632Y100178D01*
X83798Y99004D01*
X81364Y97136D01*
X79496Y94702D01*
X78322Y91868D01*
X77922Y88826D01*
Y69522D01*
X78322Y66480D01*
X79496Y63646D01*
X81364Y61212D01*
X83798Y59344D01*
X86632Y58170D01*
X89674Y57769D01*
X92716Y58170D01*
X95550Y59344D01*
X97984Y61212D01*
X99852Y63646D01*
X101026Y66480D01*
X101426Y69522D01*
Y88826D01*
X101026Y91868D01*
X99852Y94702D01*
X97984Y97136D01*
X95550Y99004D01*
X92716Y100178D01*
X89674Y100578D01*
D02*
G37*
G36*
X66971Y77904D02*
X55944D01*
Y57392D01*
X57857Y57644D01*
X60823Y58872D01*
X63369Y60827D01*
X65324Y63373D01*
X66552Y66339D01*
X66971Y69522D01*
Y77904D01*
D02*
G37*
G36*
X53404D02*
X42377D01*
Y69522D01*
X42796Y66339D01*
X44024Y63373D01*
X45979Y60827D01*
X48525Y58872D01*
X51491Y57644D01*
X53404Y57392D01*
Y77904D01*
D02*
G37*
%LPD*%
G36*
X777508Y1032008D02*
X778970Y1030885D01*
X780673Y1030180D01*
X782500Y1029940D01*
X831500D01*
Y1027579D01*
X831500Y1027500D01*
X831310Y1026309D01*
X828000D01*
X828000Y1026309D01*
X826830Y1026076D01*
X825837Y1025413D01*
X825837Y1025413D01*
X820532Y1020107D01*
X819154Y1020526D01*
X818931Y1021646D01*
X817715Y1023465D01*
X815896Y1024681D01*
X813750Y1025108D01*
X811604Y1024681D01*
X809785Y1023465D01*
X808569Y1021646D01*
X808142Y1019500D01*
X808355Y1018431D01*
X798983Y1009059D01*
X620738D01*
X619965Y1010215D01*
X618146Y1011431D01*
X616000Y1011858D01*
X613854Y1011431D01*
X612035Y1010215D01*
X611262Y1009059D01*
X601413D01*
X600814Y1010179D01*
X600931Y1010354D01*
X601358Y1012500D01*
X600931Y1014646D01*
X599715Y1016465D01*
X597896Y1017681D01*
X595750Y1018108D01*
X593604Y1017681D01*
X591785Y1016465D01*
X591182Y1015564D01*
X403123D01*
X397093Y1021593D01*
X374093Y1044593D01*
X373018Y1045311D01*
X371750Y1045564D01*
X340401D01*
X339965Y1046215D01*
X338146Y1047431D01*
X336000Y1047858D01*
X333854Y1047431D01*
X332035Y1046215D01*
X330819Y1044396D01*
X330392Y1042250D01*
X330819Y1040104D01*
X332035Y1038285D01*
X333854Y1037069D01*
X336000Y1036642D01*
X338146Y1037069D01*
X339965Y1038285D01*
X340401Y1038936D01*
X370377D01*
X392407Y1016907D01*
X392407Y1016907D01*
X398985Y1010329D01*
X398459Y1009059D01*
X393321D01*
X392715Y1009965D01*
X390896Y1011181D01*
X388750Y1011608D01*
X386604Y1011181D01*
X384785Y1009965D01*
X384179Y1009059D01*
X369867D01*
X369412Y1010329D01*
X370431Y1011854D01*
X370858Y1014000D01*
X370431Y1016146D01*
X369215Y1017965D01*
X367396Y1019181D01*
X365250Y1019608D01*
X363104Y1019181D01*
X361285Y1017965D01*
X361020Y1017569D01*
X340230D01*
X339965Y1017965D01*
X338146Y1019181D01*
X336000Y1019608D01*
X333854Y1019181D01*
X332035Y1017965D01*
X330819Y1016146D01*
X330392Y1014000D01*
X330819Y1011854D01*
X331838Y1010329D01*
X331383Y1009059D01*
X245821D01*
X245215Y1009965D01*
X243396Y1011181D01*
X241250Y1011608D01*
X239104Y1011181D01*
X237285Y1009965D01*
X236069Y1008146D01*
X235642Y1006000D01*
X236069Y1003854D01*
X236921Y1002579D01*
X236259Y1001309D01*
X136767D01*
X112413Y1025663D01*
X111420Y1026326D01*
X110250Y1026559D01*
X110250Y1026559D01*
X102773D01*
X102480Y1027745D01*
X104791Y1028702D01*
X106776Y1030225D01*
X108298Y1032209D01*
X109256Y1034520D01*
X109521Y1036536D01*
X129424Y1056440D01*
X753075D01*
X777508Y1032008D01*
D02*
G37*
G36*
X494840Y975568D02*
X494869Y975191D01*
X494920Y974832D01*
X494994Y974492D01*
X495089Y974171D01*
X495206Y973869D01*
X495346Y973586D01*
X495508Y973322D01*
X495691Y973077D01*
X495897Y972850D01*
X494483Y971436D01*
X494257Y971642D01*
X494011Y971826D01*
X493747Y971987D01*
X493464Y972127D01*
X493162Y972244D01*
X492841Y972340D01*
X492501Y972413D01*
X492143Y972464D01*
X491765Y972493D01*
X491368Y972500D01*
X494833Y975965D01*
X494840Y975568D01*
D02*
G37*
G36*
X504588Y975116D02*
X504573Y974755D01*
X504587Y974410D01*
X504629Y974080D01*
X504700Y973767D01*
X504798Y973470D01*
X504924Y973189D01*
X505079Y972924D01*
X505261Y972675D01*
X505472Y972442D01*
X503857Y971229D01*
X503639Y971428D01*
X503400Y971612D01*
X503140Y971781D01*
X502859Y971934D01*
X502557Y972071D01*
X502234Y972193D01*
X501890Y972300D01*
X501524Y972391D01*
X500730Y972527D01*
X504630Y975494D01*
X504588Y975116D01*
D02*
G37*
G36*
X717758Y972465D02*
X717511Y972178D01*
X717294Y971888D01*
X717105Y971596D01*
X716946Y971301D01*
X716815Y971005D01*
X716714Y970706D01*
X716641Y970405D01*
X716598Y970101D01*
X716583Y969796D01*
X714583D01*
X714569Y970101D01*
X714525Y970405D01*
X714453Y970706D01*
X714351Y971005D01*
X714221Y971301D01*
X714061Y971596D01*
X713873Y971888D01*
X713655Y972178D01*
X713409Y972465D01*
X713133Y972750D01*
X718033D01*
X717758Y972465D01*
D02*
G37*
G36*
X553536Y945190D02*
X553559Y944931D01*
X553596Y944695D01*
X553649Y944479D01*
X553716Y944286D01*
X553799Y944115D01*
X553896Y943966D01*
X554009Y943838D01*
X554136Y943732D01*
X554279Y943649D01*
X550836Y943431D01*
X550968Y943532D01*
X551086Y943657D01*
X551190Y943804D01*
X551280Y943974D01*
X551356Y944167D01*
X551418Y944382D01*
X551466Y944620D01*
X551501Y944881D01*
X551522Y945165D01*
X551529Y945471D01*
X553529D01*
X553536Y945190D01*
D02*
G37*
G36*
X567765Y945899D02*
X567808Y945595D01*
X567881Y945294D01*
X567982Y944995D01*
X568112Y944699D01*
X568272Y944405D01*
X568461Y944112D01*
X568678Y943822D01*
X568924Y943535D01*
X569200Y943250D01*
X564300D01*
X564576Y943535D01*
X564822Y943822D01*
X565039Y944112D01*
X565228Y944405D01*
X565387Y944699D01*
X565518Y944995D01*
X565620Y945294D01*
X565692Y945595D01*
X565736Y945899D01*
X565750Y946204D01*
X567750D01*
X567765Y945899D01*
D02*
G37*
G36*
X537251Y937800D02*
X536965Y938075D01*
X536678Y938322D01*
X536388Y938540D01*
X536096Y938728D01*
X535801Y938887D01*
X535505Y939018D01*
X535206Y939119D01*
X534905Y939192D01*
X534601Y939236D01*
X534296Y939250D01*
Y941250D01*
X534601Y941264D01*
X534905Y941308D01*
X535206Y941380D01*
X535505Y941482D01*
X535801Y941612D01*
X536096Y941772D01*
X536388Y941961D01*
X536678Y942178D01*
X536965Y942424D01*
X537251Y942700D01*
Y937800D01*
D02*
G37*
G36*
X524535Y933924D02*
X524823Y933678D01*
X525112Y933460D01*
X525405Y933272D01*
X525699Y933112D01*
X525995Y932982D01*
X526294Y932880D01*
X526595Y932808D01*
X526899Y932765D01*
X527204Y932750D01*
Y930750D01*
X526899Y930735D01*
X526595Y930692D01*
X526294Y930620D01*
X525995Y930518D01*
X525699Y930387D01*
X525405Y930228D01*
X525112Y930040D01*
X524823Y929822D01*
X524535Y929576D01*
X524249Y929300D01*
Y934200D01*
X524535Y933924D01*
D02*
G37*
G36*
X508750Y921800D02*
X508465Y922076D01*
X508177Y922322D01*
X507888Y922540D01*
X507596Y922728D01*
X507301Y922887D01*
X507005Y923018D01*
X506706Y923120D01*
X506405Y923192D01*
X506101Y923235D01*
X505796Y923250D01*
Y925250D01*
X506101Y925265D01*
X506405Y925308D01*
X506706Y925380D01*
X507005Y925482D01*
X507301Y925612D01*
X507596Y925772D01*
X507888Y925960D01*
X508177Y926178D01*
X508465Y926424D01*
X508750Y926700D01*
Y921800D01*
D02*
G37*
G36*
X514329Y925983D02*
X514568Y925715D01*
X514816Y925479D01*
X515074Y925274D01*
X515341Y925101D01*
X515618Y924959D01*
X515905Y924848D01*
X516200Y924770D01*
X516505Y924723D01*
X516820Y924707D01*
X516491Y922707D01*
X516199Y922694D01*
X515901Y922656D01*
X515598Y922593D01*
X515290Y922504D01*
X514977Y922391D01*
X514660Y922251D01*
X514337Y922087D01*
X514009Y921897D01*
X513339Y921442D01*
X514100Y926282D01*
X514329Y925983D01*
D02*
G37*
G36*
X730316Y921352D02*
X730001Y921609D01*
X729377Y922043D01*
X729067Y922219D01*
X728759Y922368D01*
X728453Y922490D01*
X728149Y922585D01*
X727846Y922653D01*
X727545Y922693D01*
X727246Y922707D01*
X727065Y924707D01*
X727376Y924722D01*
X727681Y924768D01*
X727979Y924844D01*
X728271Y924951D01*
X728558Y925089D01*
X728837Y925257D01*
X729111Y925455D01*
X729378Y925684D01*
X729639Y925944D01*
X729894Y926234D01*
X730316Y921352D01*
D02*
G37*
G36*
X500535Y918674D02*
X500822Y918428D01*
X501112Y918211D01*
X501404Y918022D01*
X501699Y917862D01*
X501995Y917732D01*
X502294Y917630D01*
X502595Y917558D01*
X502899Y917514D01*
X503204Y917500D01*
Y915500D01*
X502899Y915486D01*
X502595Y915442D01*
X502294Y915369D01*
X501995Y915268D01*
X501699Y915137D01*
X501404Y914978D01*
X501112Y914790D01*
X500822Y914572D01*
X500535Y914325D01*
X500249Y914050D01*
Y918950D01*
X500535Y918674D01*
D02*
G37*
G36*
X495251Y914050D02*
X494965Y914325D01*
X494678Y914572D01*
X494388Y914790D01*
X494096Y914978D01*
X493801Y915137D01*
X493505Y915268D01*
X493206Y915369D01*
X492905Y915442D01*
X492601Y915486D01*
X492296Y915500D01*
Y917500D01*
X492601Y917514D01*
X492905Y917558D01*
X493206Y917630D01*
X493505Y917732D01*
X493801Y917862D01*
X494096Y918022D01*
X494388Y918211D01*
X494678Y918428D01*
X494965Y918674D01*
X495251Y918950D01*
Y914050D01*
D02*
G37*
%LPC*%
G36*
X463770Y1050709D02*
Y1042020D01*
X472459D01*
X472281Y1043371D01*
X471270Y1045813D01*
X469661Y1047911D01*
X467563Y1049520D01*
X465121Y1050532D01*
X463770Y1050709D01*
D02*
G37*
G36*
X687320Y1050709D02*
Y1042020D01*
X696009D01*
X695832Y1043371D01*
X694820Y1045813D01*
X693211Y1047911D01*
X691113Y1049520D01*
X688671Y1050532D01*
X687320Y1050709D01*
D02*
G37*
G36*
X684780Y1050709D02*
X683429Y1050532D01*
X680987Y1049520D01*
X678889Y1047911D01*
X677280Y1045813D01*
X676268Y1043371D01*
X676091Y1042020D01*
X684780D01*
Y1050709D01*
D02*
G37*
G36*
X461230Y1050709D02*
X459879Y1050532D01*
X457437Y1049520D01*
X455339Y1047911D01*
X453730Y1045813D01*
X452718Y1043371D01*
X452541Y1042020D01*
X461230D01*
Y1050709D01*
D02*
G37*
G36*
X746350Y1050250D02*
X727350D01*
Y1031250D01*
X746350D01*
Y1050250D01*
D02*
G37*
G36*
X522800D02*
X503800D01*
Y1031250D01*
X522800D01*
Y1050250D01*
D02*
G37*
G36*
X711450Y1050332D02*
X708970Y1050005D01*
X706659Y1049048D01*
X704675Y1047525D01*
X703152Y1045541D01*
X702195Y1043230D01*
X701868Y1040750D01*
X702195Y1038270D01*
X703152Y1035959D01*
X704675Y1033975D01*
X706659Y1032452D01*
X708970Y1031495D01*
X711450Y1031168D01*
X713930Y1031495D01*
X716241Y1032452D01*
X718225Y1033975D01*
X719748Y1035959D01*
X720705Y1038270D01*
X721032Y1040750D01*
X720705Y1043230D01*
X719748Y1045541D01*
X718225Y1047525D01*
X716241Y1049048D01*
X713930Y1050005D01*
X711450Y1050332D01*
D02*
G37*
G36*
X660650D02*
X658170Y1050005D01*
X655859Y1049048D01*
X653875Y1047525D01*
X652352Y1045541D01*
X651395Y1043230D01*
X651068Y1040750D01*
X651395Y1038270D01*
X652352Y1035959D01*
X653875Y1033975D01*
X655859Y1032452D01*
X658170Y1031495D01*
X660650Y1031168D01*
X663130Y1031495D01*
X665441Y1032452D01*
X667426Y1033975D01*
X668948Y1035959D01*
X669905Y1038270D01*
X670232Y1040750D01*
X669905Y1043230D01*
X668948Y1045541D01*
X667426Y1047525D01*
X665441Y1049048D01*
X663130Y1050005D01*
X660650Y1050332D01*
D02*
G37*
G36*
X635250D02*
X632770Y1050005D01*
X630459Y1049048D01*
X628475Y1047525D01*
X626952Y1045541D01*
X625995Y1043230D01*
X625668Y1040750D01*
X625995Y1038270D01*
X626952Y1035959D01*
X628475Y1033975D01*
X630459Y1032452D01*
X632770Y1031495D01*
X635250Y1031168D01*
X637730Y1031495D01*
X640041Y1032452D01*
X642026Y1033975D01*
X643548Y1035959D01*
X644505Y1038270D01*
X644832Y1040750D01*
X644505Y1043230D01*
X643548Y1045541D01*
X642026Y1047525D01*
X640041Y1049048D01*
X637730Y1050005D01*
X635250Y1050332D01*
D02*
G37*
G36*
X487900D02*
X485420Y1050005D01*
X483109Y1049048D01*
X481124Y1047525D01*
X479602Y1045541D01*
X478644Y1043230D01*
X478318Y1040750D01*
X478644Y1038270D01*
X479602Y1035959D01*
X481124Y1033975D01*
X483109Y1032452D01*
X485420Y1031495D01*
X487900Y1031168D01*
X490380Y1031495D01*
X492691Y1032452D01*
X494675Y1033975D01*
X496198Y1035959D01*
X497155Y1038270D01*
X497482Y1040750D01*
X497155Y1043230D01*
X496198Y1045541D01*
X494675Y1047525D01*
X492691Y1049048D01*
X490380Y1050005D01*
X487900Y1050332D01*
D02*
G37*
G36*
X437100D02*
X434620Y1050005D01*
X432309Y1049048D01*
X430325Y1047525D01*
X428802Y1045541D01*
X427845Y1043230D01*
X427518Y1040750D01*
X427845Y1038270D01*
X428802Y1035959D01*
X430325Y1033975D01*
X432309Y1032452D01*
X434620Y1031495D01*
X437100Y1031168D01*
X439580Y1031495D01*
X441891Y1032452D01*
X443875Y1033975D01*
X445398Y1035959D01*
X446355Y1038270D01*
X446682Y1040750D01*
X446355Y1043230D01*
X445398Y1045541D01*
X443875Y1047525D01*
X441891Y1049048D01*
X439580Y1050005D01*
X437100Y1050332D01*
D02*
G37*
G36*
X411700D02*
X409220Y1050005D01*
X406909Y1049048D01*
X404925Y1047525D01*
X403402Y1045541D01*
X402444Y1043230D01*
X402118Y1040750D01*
X402444Y1038270D01*
X403402Y1035959D01*
X404925Y1033975D01*
X406909Y1032452D01*
X409220Y1031495D01*
X411700Y1031168D01*
X414180Y1031495D01*
X416491Y1032452D01*
X418475Y1033975D01*
X419998Y1035959D01*
X420955Y1038270D01*
X421282Y1040750D01*
X420955Y1043230D01*
X419998Y1045541D01*
X418475Y1047525D01*
X416491Y1049048D01*
X414180Y1050005D01*
X411700Y1050332D01*
D02*
G37*
G36*
X684780Y1039480D02*
X676091D01*
X676268Y1038129D01*
X677280Y1035687D01*
X678889Y1033589D01*
X680987Y1031980D01*
X683429Y1030968D01*
X684780Y1030791D01*
Y1039480D01*
D02*
G37*
G36*
X472459D02*
X463770D01*
Y1030791D01*
X465121Y1030968D01*
X467563Y1031980D01*
X469661Y1033589D01*
X471270Y1035687D01*
X472281Y1038129D01*
X472459Y1039480D01*
D02*
G37*
G36*
X461230D02*
X452541D01*
X452718Y1038129D01*
X453730Y1035687D01*
X455339Y1033589D01*
X457437Y1031980D01*
X459879Y1030968D01*
X461230Y1030790D01*
Y1039480D01*
D02*
G37*
G36*
X696009D02*
X687320D01*
Y1030790D01*
X688671Y1030968D01*
X691113Y1031980D01*
X693211Y1033589D01*
X694820Y1035687D01*
X695832Y1038129D01*
X696009Y1039480D01*
D02*
G37*
G36*
X214350Y1030682D02*
X211870Y1030356D01*
X209559Y1029398D01*
X207575Y1027876D01*
X206052Y1025891D01*
X205095Y1023580D01*
X204768Y1021100D01*
X205095Y1018620D01*
X206052Y1016309D01*
X207575Y1014325D01*
X209559Y1012802D01*
X211870Y1011845D01*
X214350Y1011518D01*
X216830Y1011845D01*
X219141Y1012802D01*
X221125Y1014325D01*
X222648Y1016309D01*
X223605Y1018620D01*
X223932Y1021100D01*
X223605Y1023580D01*
X222648Y1025891D01*
X221125Y1027876D01*
X219141Y1029398D01*
X216830Y1030356D01*
X214350Y1030682D01*
D02*
G37*
G36*
X188950D02*
X186470Y1030356D01*
X184159Y1029398D01*
X182174Y1027876D01*
X180652Y1025891D01*
X179694Y1023580D01*
X179368Y1021100D01*
X179694Y1018620D01*
X180652Y1016309D01*
X182174Y1014325D01*
X184159Y1012802D01*
X186470Y1011845D01*
X188950Y1011518D01*
X191430Y1011845D01*
X193741Y1012802D01*
X195725Y1014325D01*
X197248Y1016309D01*
X198205Y1018620D01*
X198532Y1021100D01*
X198205Y1023580D01*
X197248Y1025891D01*
X195725Y1027876D01*
X193741Y1029398D01*
X191430Y1030356D01*
X188950Y1030682D01*
D02*
G37*
G36*
X163550D02*
X161070Y1030356D01*
X158759Y1029398D01*
X156775Y1027876D01*
X155252Y1025891D01*
X154295Y1023580D01*
X153968Y1021100D01*
X154295Y1018620D01*
X155252Y1016309D01*
X156775Y1014325D01*
X158759Y1012802D01*
X161070Y1011845D01*
X163550Y1011518D01*
X166030Y1011845D01*
X168341Y1012802D01*
X170325Y1014325D01*
X171848Y1016309D01*
X172805Y1018620D01*
X173132Y1021100D01*
X172805Y1023580D01*
X171848Y1025891D01*
X170325Y1027876D01*
X168341Y1029398D01*
X166030Y1030356D01*
X163550Y1030682D01*
D02*
G37*
G36*
X138150D02*
X135670Y1030356D01*
X133359Y1029398D01*
X131375Y1027876D01*
X129852Y1025891D01*
X128895Y1023580D01*
X128568Y1021100D01*
X128895Y1018620D01*
X129852Y1016309D01*
X131375Y1014325D01*
X133359Y1012802D01*
X135670Y1011845D01*
X138150Y1011518D01*
X140630Y1011845D01*
X142941Y1012802D01*
X144925Y1014325D01*
X146448Y1016309D01*
X147405Y1018620D01*
X147732Y1021100D01*
X147405Y1023580D01*
X146448Y1025891D01*
X144925Y1027876D01*
X142941Y1029398D01*
X140630Y1030356D01*
X138150Y1030682D01*
D02*
G37*
%LPD*%
G36*
X879965Y814500D02*
X879831Y814487D01*
X879681Y814445D01*
X879514Y814374D01*
X879332Y814274D01*
X879133Y814146D01*
X878919Y813988D01*
X878441Y813587D01*
X877898Y813070D01*
X875070Y815898D01*
X875343Y816178D01*
X875988Y816918D01*
X876146Y817133D01*
X876274Y817332D01*
X876374Y817514D01*
X876445Y817681D01*
X876487Y817831D01*
X876500Y817965D01*
X879965Y814500D01*
D02*
G37*
G36*
X751465Y813750D02*
X751331Y813737D01*
X751181Y813695D01*
X751014Y813624D01*
X750832Y813524D01*
X750633Y813396D01*
X750418Y813238D01*
X749941Y812837D01*
X749398Y812320D01*
X746570Y815148D01*
X746843Y815427D01*
X747488Y816169D01*
X747646Y816383D01*
X747774Y816582D01*
X747874Y816764D01*
X747945Y816931D01*
X747987Y817081D01*
X748000Y817215D01*
X751465Y813750D01*
D02*
G37*
G36*
X629965Y808250D02*
X629831Y808237D01*
X629681Y808195D01*
X629514Y808124D01*
X629332Y808024D01*
X629133Y807896D01*
X628918Y807738D01*
X628441Y807337D01*
X627898Y806820D01*
X625070Y809648D01*
X625343Y809928D01*
X625988Y810668D01*
X626146Y810883D01*
X626274Y811082D01*
X626374Y811264D01*
X626445Y811431D01*
X626487Y811581D01*
X626500Y811715D01*
X629965Y808250D01*
D02*
G37*
G36*
X724504Y765832D02*
X724572Y764851D01*
X724613Y764588D01*
X724662Y764357D01*
X724721Y764157D01*
X724788Y763990D01*
X724865Y763854D01*
X724950Y763749D01*
X720050D01*
X720135Y763854D01*
X720212Y763990D01*
X720279Y764157D01*
X720338Y764357D01*
X720387Y764588D01*
X720428Y764851D01*
X720482Y765473D01*
X720500Y766222D01*
X724500D01*
X724504Y765832D01*
D02*
G37*
G36*
X595755D02*
X595822Y764851D01*
X595863Y764588D01*
X595912Y764357D01*
X595970Y764157D01*
X596038Y763990D01*
X596115Y763854D01*
X596200Y763749D01*
X591300D01*
X591385Y763854D01*
X591462Y763990D01*
X591530Y764157D01*
X591588Y764357D01*
X591637Y764588D01*
X591678Y764851D01*
X591732Y765473D01*
X591750Y766222D01*
X595750D01*
X595755Y765832D01*
D02*
G37*
G36*
X725104Y763615D02*
X725240Y763538D01*
X725407Y763471D01*
X725607Y763412D01*
X725838Y763363D01*
X726101Y763322D01*
X726723Y763268D01*
X727472Y763250D01*
Y759250D01*
X727082Y759246D01*
X726101Y759178D01*
X725838Y759137D01*
X725607Y759088D01*
X725407Y759029D01*
X725240Y758962D01*
X725104Y758885D01*
X724999Y758800D01*
Y763700D01*
X725104Y763615D01*
D02*
G37*
G36*
X720001Y758800D02*
X719896Y758885D01*
X719760Y758962D01*
X719593Y759029D01*
X719393Y759088D01*
X719162Y759137D01*
X718899Y759178D01*
X718277Y759232D01*
X717528Y759250D01*
Y763250D01*
X717918Y763254D01*
X718899Y763322D01*
X719162Y763363D01*
X719393Y763412D01*
X719593Y763471D01*
X719760Y763538D01*
X719896Y763615D01*
X720001Y763700D01*
Y758800D01*
D02*
G37*
G36*
X596354Y763615D02*
X596490Y763538D01*
X596657Y763471D01*
X596857Y763412D01*
X597088Y763363D01*
X597351Y763322D01*
X597973Y763268D01*
X598722Y763250D01*
Y759250D01*
X598332Y759246D01*
X597351Y759178D01*
X597088Y759137D01*
X596857Y759088D01*
X596657Y759029D01*
X596490Y758962D01*
X596354Y758885D01*
X596250Y758800D01*
Y763700D01*
X596354Y763615D01*
D02*
G37*
G36*
X852755Y765582D02*
X852822Y764601D01*
X852862Y764338D01*
X852912Y764107D01*
X852971Y763907D01*
X853038Y763740D01*
X853114Y763604D01*
X853200Y763500D01*
X848423D01*
X848082Y758735D01*
X847979Y758833D01*
X847843Y758920D01*
X847676Y758997D01*
X847478Y759064D01*
X847247Y759121D01*
X846985Y759168D01*
X846691Y759204D01*
X846008Y759245D01*
X845619Y759250D01*
X845969Y763250D01*
X846361Y763254D01*
X847606Y763343D01*
X847836Y763384D01*
X848033Y763432D01*
X848199Y763488D01*
X848331Y763551D01*
X848358Y763570D01*
X848385Y763604D01*
X848462Y763740D01*
X848530Y763907D01*
X848588Y764107D01*
X848637Y764338D01*
X848678Y764601D01*
X848732Y765223D01*
X848750Y765972D01*
X852750D01*
X852755Y765582D01*
D02*
G37*
G36*
X513500Y746500D02*
X478000D01*
Y746750D01*
X477759Y771598D01*
X478652Y772500D01*
X513500D01*
Y746500D01*
D02*
G37*
G36*
X136340Y706167D02*
X136326Y706039D01*
X136347Y705892D01*
X136404Y705726D01*
X136497Y705541D01*
X136626Y705336D01*
X136791Y705113D01*
X136991Y704871D01*
X137499Y704330D01*
X134254Y701918D01*
X131793Y705195D01*
X136390Y706276D01*
X136340Y706167D01*
D02*
G37*
D10*
X531707Y866793D02*
Y869293D01*
X591000Y807500D02*
X591000D01*
X531707Y866793D02*
X591000Y807500D01*
X559000Y954750D02*
X566750Y947000D01*
Y940750D02*
Y947000D01*
X807500Y989000D02*
X816750Y998250D01*
X673050Y989000D02*
X807500D01*
X816750Y998250D02*
X854350D01*
X87400Y999000D02*
X110250D01*
X121000Y988250D02*
X449000D01*
X110250Y999000D02*
X121000Y988250D01*
X100200Y986000D02*
X115000D01*
X119250Y981750D02*
X463000D01*
X115000Y986000D02*
X119250Y981750D01*
X526750Y960250D02*
X565250D01*
X511000Y976000D02*
X526750Y960250D01*
X565250D02*
X584750Y940750D01*
Y940750D02*
Y940750D01*
X389000Y870000D02*
X401250Y882250D01*
X668250D02*
X713250Y837250D01*
X401250Y882250D02*
X668250D01*
X816000Y809000D02*
Y890250D01*
X755500Y950750D02*
X816000Y890250D01*
X64000Y540750D02*
X181250Y423500D01*
X64000Y540750D02*
Y870250D01*
X54000Y537000D02*
X165000Y426000D01*
Y237000D02*
Y426000D01*
X150750Y237250D02*
Y428750D01*
X39250Y540250D02*
Y889250D01*
Y540250D02*
X150750Y428750D01*
X54000Y537000D02*
Y899500D01*
X121750Y870000D02*
X389000D01*
X381750Y890000D02*
X389000Y897250D01*
X600500D01*
X865750Y829000D02*
Y873250D01*
X736250Y975250D02*
X763750D01*
X865750Y873250D01*
X834000Y797250D02*
X865750Y829000D01*
X799500Y797250D02*
X834000D01*
X713250Y837250D02*
X759500D01*
X799500Y797250D01*
X609500Y866000D02*
X660250Y815250D01*
X683750D01*
X132500Y880500D02*
X384500D01*
X394750Y890750D01*
X132250Y880250D02*
X132500Y880500D01*
X181250Y223000D02*
Y423500D01*
X600500Y897250D02*
X600750Y897500D01*
X394750Y890750D02*
X619000D01*
X124500Y890000D02*
X381750D01*
X430750Y936500D02*
X458250Y909000D01*
X377500Y914750D02*
X399250Y936500D01*
X430750D01*
X434250Y943750D02*
X461500Y916500D01*
X373750Y923000D02*
X394500Y943750D01*
X434250D01*
X168300Y914750D02*
X377500D01*
X185450Y923000D02*
X373750D01*
X144650Y938400D02*
X168300Y914750D01*
X163550Y944900D02*
X185450Y923000D01*
X214350Y944900D02*
X366400D01*
X377750Y956250D01*
X448750D01*
X473250Y931750D02*
X521750D01*
X448750Y956250D02*
X473250Y931750D01*
X466250Y924250D02*
X511250D01*
X384500Y949250D02*
X441250D01*
X466250Y924250D01*
X366750Y931500D02*
X384500Y949250D01*
X202350Y931500D02*
X366750D01*
X188950Y944900D02*
X202350Y931500D01*
X163550Y944900D02*
Y944900D01*
X710625Y909000D02*
X712000D01*
X486750D02*
X710625D01*
X138150Y944900D02*
X144650Y938400D01*
Y938400D02*
Y938400D01*
X461500Y916500D02*
X497750D01*
X458250Y909000D02*
X486750D01*
X388750Y1006000D02*
X800250D01*
X813750Y1019500D01*
X501167Y975333D02*
Y976000D01*
X521750Y954750D02*
X559000D01*
X501167Y975333D02*
X521750Y954750D01*
X749500Y944000D02*
X759250Y934250D01*
X705250Y958000D02*
X719250Y944000D01*
X749500D01*
X705250Y958000D02*
Y975250D01*
X725000Y950750D02*
X755500D01*
X715583Y960167D02*
Y975250D01*
Y960167D02*
X725000Y950750D01*
X759250Y957500D02*
X783000Y933750D01*
X732500Y957500D02*
X759250D01*
X725917Y964083D02*
X732500Y957500D01*
X725917Y964083D02*
Y975250D01*
X783000Y933750D02*
Y933750D01*
Y933750D02*
X840750Y876000D01*
X759250Y913500D02*
Y934250D01*
X715500Y869750D02*
X759250Y913500D01*
X521750Y931750D02*
X745750D01*
X511250Y924250D02*
X511793Y923707D01*
X732293D01*
X732595Y924008D01*
X497750Y916500D02*
X723250D01*
X723500Y916250D01*
X710625Y909500D02*
X711500D01*
X712000Y909000D01*
X552529Y940721D02*
X552750Y940500D01*
X552529Y940721D02*
Y945471D01*
X548750Y949250D02*
X552529Y945471D01*
X518083Y949250D02*
X548750D01*
X491333Y976000D02*
X518083Y949250D01*
X481500Y976000D02*
X517250Y940250D01*
X539750D01*
X367000Y998250D02*
X583000D01*
X135500D02*
X367000D01*
X241250Y1006000D02*
X388750D01*
X583000Y998250D02*
X803000D01*
X828000Y1023250D02*
X854750D01*
X803000Y998250D02*
X828000Y1023250D01*
X854350Y998250D02*
X866400Y986200D01*
X110250Y1023500D02*
X135500Y998250D01*
X854750Y1023250D02*
X866400Y1011600D01*
X74600D02*
X86500Y1023500D01*
X110250D01*
X826700Y986200D02*
X841000D01*
X687800Y981750D02*
X822250D01*
X826700Y986200D01*
X74600D02*
X87400Y999000D01*
X100000Y986200D02*
X100200Y986000D01*
X449000Y988250D02*
X672300D01*
X463000Y981750D02*
X463750Y982500D01*
X687050D01*
X687800Y981750D01*
X672300Y988250D02*
X673050Y989000D01*
D14*
X399500Y925250D02*
X412500D01*
X372750Y898500D02*
X399500Y925250D01*
X371750Y1042250D02*
X394750Y1019250D01*
X336000Y1042250D02*
X371750D01*
X73250Y543500D02*
Y880500D01*
Y543500D02*
X196000Y420750D01*
Y223750D02*
Y420750D01*
X117000Y898500D02*
X372750D01*
X116500Y899000D02*
X117000Y898500D01*
X745750Y931750D02*
X746000Y932000D01*
X401750Y1012250D02*
X595500D01*
X595750Y1012500D01*
X394750Y1019250D02*
X401750Y1012250D01*
X394750Y1019250D02*
X394750D01*
D17*
X133500Y705500D02*
Y708250D01*
Y705500D02*
X167250Y671750D01*
X439500D01*
X722500Y761250D02*
Y788250D01*
X751500Y817250D01*
X850750Y788750D02*
X880000Y818000D01*
X850750Y761000D02*
Y788750D01*
X722500Y761250D02*
X850500D01*
X850750Y761000D01*
X593750Y761250D02*
X722500D01*
X593750Y775500D02*
X630000Y811750D01*
X593750Y761250D02*
Y775500D01*
D18*
X440250Y788250D02*
X478000Y750500D01*
X655750D01*
X787750D02*
X787961Y750290D01*
X889750D01*
X655750Y750500D02*
X787750D01*
X336000Y1014000D02*
X365250D01*
D71*
X756000Y1063500D02*
X782500Y1037000D01*
X126500Y1063500D02*
X756000D01*
X782500Y1037000D02*
X841000D01*
X909000Y738858D02*
Y929542D01*
X903142Y733000D02*
X909000Y738858D01*
X903142Y935400D02*
X909000Y929542D01*
X100000Y821750D02*
Y935400D01*
X188750Y733000D02*
X903142D01*
X100000Y821750D02*
X188750Y733000D01*
X866400Y935400D02*
X903142D01*
X841000D02*
X866400D01*
X74600D02*
X100000D01*
X74600Y1037000D02*
X100000D01*
X126500Y1063500D01*
X841000Y1037000D02*
X866400D01*
D73*
X54674Y79174D02*
D03*
X89674D02*
D03*
X309750Y80000D02*
D03*
X344750D02*
D03*
X379750D02*
D03*
X414750D02*
D03*
X449750D02*
D03*
X484750D02*
D03*
X519750D02*
D03*
X554750D02*
D03*
X589750D02*
D03*
X624750D02*
D03*
X659750D02*
D03*
X694750D02*
D03*
X729750D02*
D03*
X764750D02*
D03*
X799750D02*
D03*
X834750D02*
D03*
D74*
X736850Y1040750D02*
D03*
X513300D02*
D03*
D75*
X711450D02*
D03*
X686050D02*
D03*
X660650D02*
D03*
X635250D02*
D03*
X487900D02*
D03*
X462500D02*
D03*
X437100D02*
D03*
X411700D02*
D03*
X74600Y935400D02*
D03*
X100000Y960800D02*
D03*
X74600D02*
D03*
X100000Y986200D02*
D03*
X74600D02*
D03*
X100000Y1011600D02*
D03*
X74600D02*
D03*
Y1037000D02*
D03*
X100000D02*
D03*
X214350Y1021100D02*
D03*
X188950D02*
D03*
X163550D02*
D03*
X138150D02*
D03*
X214350Y944900D02*
D03*
X188950D02*
D03*
X163550D02*
D03*
X866400Y960800D02*
D03*
X841000D02*
D03*
X866400Y1037000D02*
D03*
X841000Y1011600D02*
D03*
X866400D02*
D03*
X841000Y986200D02*
D03*
X866400D02*
D03*
X841000Y935400D02*
D03*
X866400D02*
D03*
D76*
X100000D02*
D03*
X138150Y944900D02*
D03*
X841000Y1037000D02*
D03*
D77*
X257650Y477750D02*
D03*
X232250D02*
D03*
X381850D02*
D03*
X356450D02*
D03*
X506050D02*
D03*
X480650D02*
D03*
X630250D02*
D03*
X604850D02*
D03*
X754450D02*
D03*
X729050D02*
D03*
X878650D02*
D03*
X853250D02*
D03*
D78*
X206850D02*
D03*
X331050D02*
D03*
X455250D02*
D03*
X579450D02*
D03*
X703650D02*
D03*
X827850D02*
D03*
D79*
X232250Y295250D02*
D03*
X356450D02*
D03*
X480650D02*
D03*
X604850D02*
D03*
X729050D02*
D03*
X853250D02*
D03*
D80*
X490250Y788250D02*
D03*
X489500Y671750D02*
D03*
X58750Y255750D02*
D03*
Y415000D02*
D03*
D81*
X440250Y788250D02*
D03*
X439500Y671750D02*
D03*
X108750Y255750D02*
D03*
Y415000D02*
D03*
D82*
X764500Y1035500D02*
D03*
X647500Y873750D02*
D03*
X635000D02*
D03*
X622500D02*
D03*
X531707Y866793D02*
D03*
X412500Y925250D02*
D03*
X586250Y1026750D02*
D03*
X598750D02*
D03*
X611250D02*
D03*
X561250Y1037250D02*
D03*
X548750D02*
D03*
X536250D02*
D03*
X616000Y1006250D02*
D03*
X788500Y973500D02*
D03*
X133500Y708250D02*
D03*
X646000Y976000D02*
D03*
X625250Y1013500D02*
D03*
X421500Y974000D02*
D03*
X384250Y1050000D02*
D03*
X375000Y1023000D02*
D03*
X566750Y940750D02*
D03*
X790000Y1053500D02*
D03*
X64000Y870250D02*
D03*
X54000Y899500D02*
D03*
X39250Y889250D02*
D03*
X609500Y866000D02*
D03*
X121750Y870000D02*
D03*
X73250Y880500D02*
D03*
X132250Y880250D02*
D03*
X600750Y897500D02*
D03*
X124500Y890000D02*
D03*
X116500Y899000D02*
D03*
X196000Y223750D02*
D03*
X181250Y223000D02*
D03*
X150750Y237250D02*
D03*
X584750Y940750D02*
D03*
X165000Y237000D02*
D03*
X880000Y818000D02*
D03*
X850750Y761000D02*
D03*
X751500Y817250D02*
D03*
X722500Y761250D02*
D03*
X630000Y811750D02*
D03*
X593750Y761250D02*
D03*
X889750Y750290D02*
D03*
X787750Y750500D02*
D03*
X655750D02*
D03*
X816000Y809000D02*
D03*
X336000Y1042250D02*
D03*
X813750Y1019500D02*
D03*
X840750Y876000D02*
D03*
X715500Y869750D02*
D03*
X746000Y932000D02*
D03*
X732595Y924008D02*
D03*
X723500Y916250D02*
D03*
X710625Y909500D02*
D03*
X521750Y931750D02*
D03*
X511250Y924250D02*
D03*
X497750Y916500D02*
D03*
X486750Y909000D02*
D03*
X591000Y807500D02*
D03*
X683750Y815250D02*
D03*
X619000Y890750D02*
D03*
X552750Y940500D02*
D03*
X539750Y940250D02*
D03*
X367000Y998250D02*
D03*
X336000Y1014000D02*
D03*
X365250D02*
D03*
X388750Y1006000D02*
D03*
X583000Y998250D02*
D03*
X595750Y1012500D02*
D03*
X241250Y1006000D02*
D03*
X501167Y976000D02*
D03*
X481500D02*
D03*
X491333D02*
D03*
X511000D02*
D03*
X687050Y982500D02*
D03*
X463000Y981750D02*
D03*
X736250Y975250D02*
D03*
X725917D02*
D03*
X715583D02*
D03*
X705250D02*
D03*
X673050Y989000D02*
D03*
X449000Y988250D02*
D03*
X487000Y1021750D02*
D03*
X711500Y1022250D02*
D03*
D83*
X901250Y982000D02*
D03*
X914250D02*
D03*
X889000D02*
D03*
X914250Y992750D02*
D03*
X901250D02*
D03*
X889000D02*
D03*
X164750Y567000D02*
D03*
X177750D02*
D03*
X152500D02*
D03*
X177750Y577750D02*
D03*
X164750D02*
D03*
X152500D02*
D03*
X95000Y566750D02*
D03*
X108000D02*
D03*
X82750D02*
D03*
X108000Y577500D02*
D03*
X95000D02*
D03*
X82750D02*
D03*
X94500Y714250D02*
D03*
X107500D02*
D03*
X82250D02*
D03*
X107500Y725000D02*
D03*
X94500D02*
D03*
X82250D02*
D03*
X623250Y684750D02*
D03*
X636250D02*
D03*
X611000D02*
D03*
X636250Y695500D02*
D03*
X623250D02*
D03*
X611000D02*
D03*
X368250Y639250D02*
D03*
X381250D02*
D03*
X356000D02*
D03*
X381250Y650000D02*
D03*
X368250D02*
D03*
X356000D02*
D03*
X445000Y860500D02*
D03*
X458000D02*
D03*
X432750D02*
D03*
X458000Y871250D02*
D03*
X445000D02*
D03*
X432750D02*
D03*
X915000Y481500D02*
D03*
Y468500D02*
D03*
Y456250D02*
D03*
X905750Y481500D02*
D03*
Y468500D02*
D03*
Y456250D02*
D03*
X614250Y961000D02*
D03*
X601250D02*
D03*
X589000D02*
D03*
X614250Y970250D02*
D03*
X601250D02*
D03*
X589000D02*
D03*
X191250Y963000D02*
D03*
X178250D02*
D03*
X166000D02*
D03*
X191250Y972250D02*
D03*
X178250D02*
D03*
X166000D02*
D03*
X893250Y885750D02*
D03*
X880250D02*
D03*
X868000D02*
D03*
X893250Y895000D02*
D03*
X880250D02*
D03*
X868000D02*
D03*
X789000Y883500D02*
D03*
X776000D02*
D03*
X763750D02*
D03*
X789000Y892750D02*
D03*
X776000D02*
D03*
X763750D02*
D03*
X247500Y863000D02*
D03*
X259750D02*
D03*
X272750D02*
D03*
X247500Y852250D02*
D03*
X226750Y722000D02*
D03*
X239000D02*
D03*
X252000D02*
D03*
X272750Y852250D02*
D03*
X259750D02*
D03*
X226750Y712750D02*
D03*
X239000D02*
D03*
X784750Y469750D02*
D03*
X796250D02*
D03*
X784750Y482750D02*
D03*
X796250D02*
D03*
X784750Y457500D02*
D03*
X796250D02*
D03*
X660250Y469750D02*
D03*
X671750D02*
D03*
X660250Y482750D02*
D03*
X671750D02*
D03*
X660250Y457500D02*
D03*
X671750D02*
D03*
X536000Y469750D02*
D03*
X547500D02*
D03*
X536000Y482750D02*
D03*
X547500D02*
D03*
X536000Y457500D02*
D03*
X547500D02*
D03*
X411500Y469750D02*
D03*
X423000D02*
D03*
X411500Y482750D02*
D03*
X423000D02*
D03*
X411500Y457500D02*
D03*
X423000D02*
D03*
X287250Y469750D02*
D03*
X298750D02*
D03*
X287250Y482750D02*
D03*
X298750D02*
D03*
X287250Y457500D02*
D03*
X298750D02*
D03*
X252000Y712750D02*
D03*
M02*
