G04*
G04 #@! TF.GenerationSoftware,Altium Limited,Altium Designer,20.0.13 (296)*
G04*
G04 Layer_Physical_Order=2*
G04 Layer_Color=36540*
%FSLAX44Y44*%
%MOMM*%
G71*
G01*
G75*
%ADD11C,0.2500*%
%ADD12C,0.2000*%
%ADD17C,0.3000*%
%ADD70C,3.0000*%
%ADD71C,2.0000*%
%ADD74C,0.4000*%
%ADD75C,1.0000*%
%ADD77C,1.5000*%
%ADD79O,1.9304X3.8608*%
%ADD80O,1.5240X3.0480*%
%ADD83C,1.4000*%
%ADD86R,1.5000X1.5000*%
%ADD87C,0.7000*%
%ADD88C,0.8000*%
G36*
X860182Y3569D02*
X3569D01*
Y1076431D01*
X860181D01*
X860182Y3569D01*
D02*
G37*
%LPC*%
G36*
X663920Y1050709D02*
Y1042020D01*
X672609D01*
X672432Y1043371D01*
X671420Y1045813D01*
X669811Y1047911D01*
X667713Y1049520D01*
X665271Y1050532D01*
X663920Y1050709D01*
D02*
G37*
G36*
X527770Y1050709D02*
Y1042020D01*
X536459D01*
X536282Y1043371D01*
X535270Y1045813D01*
X533661Y1047911D01*
X531563Y1049520D01*
X529121Y1050532D01*
X527770Y1050709D01*
D02*
G37*
G36*
X525230Y1050709D02*
X523879Y1050532D01*
X521437Y1049520D01*
X519339Y1047911D01*
X517730Y1045813D01*
X516718Y1043371D01*
X516541Y1042020D01*
X525230D01*
Y1050709D01*
D02*
G37*
G36*
X661380Y1050709D02*
X660029Y1050532D01*
X657587Y1049520D01*
X655489Y1047911D01*
X653880Y1045813D01*
X652868Y1043371D01*
X652691Y1042020D01*
X661380D01*
Y1050709D01*
D02*
G37*
G36*
X722950Y1050250D02*
X703950D01*
Y1031250D01*
X722950D01*
Y1050250D01*
D02*
G37*
G36*
X586800D02*
X567800D01*
Y1031250D01*
X586800D01*
Y1050250D01*
D02*
G37*
G36*
X688050Y1050332D02*
X685570Y1050005D01*
X683259Y1049048D01*
X681275Y1047525D01*
X679752Y1045541D01*
X678795Y1043230D01*
X678468Y1040750D01*
X678795Y1038270D01*
X679752Y1035959D01*
X681275Y1033975D01*
X683259Y1032452D01*
X685570Y1031495D01*
X688050Y1031168D01*
X690530Y1031495D01*
X692841Y1032452D01*
X694826Y1033975D01*
X696348Y1035959D01*
X697306Y1038270D01*
X697632Y1040750D01*
X697306Y1043230D01*
X696348Y1045541D01*
X694826Y1047525D01*
X692841Y1049048D01*
X690530Y1050005D01*
X688050Y1050332D01*
D02*
G37*
G36*
X637250D02*
X634770Y1050005D01*
X632459Y1049048D01*
X630475Y1047525D01*
X628952Y1045541D01*
X627995Y1043230D01*
X627668Y1040750D01*
X627995Y1038270D01*
X628952Y1035959D01*
X630475Y1033975D01*
X632459Y1032452D01*
X634770Y1031495D01*
X637250Y1031168D01*
X639730Y1031495D01*
X642041Y1032452D01*
X644025Y1033975D01*
X645548Y1035959D01*
X646506Y1038270D01*
X646832Y1040750D01*
X646506Y1043230D01*
X645548Y1045541D01*
X644025Y1047525D01*
X642041Y1049048D01*
X639730Y1050005D01*
X637250Y1050332D01*
D02*
G37*
G36*
X611850D02*
X609370Y1050005D01*
X607059Y1049048D01*
X605075Y1047525D01*
X603552Y1045541D01*
X602595Y1043230D01*
X602268Y1040750D01*
X602595Y1038270D01*
X603552Y1035959D01*
X605075Y1033975D01*
X607059Y1032452D01*
X609370Y1031495D01*
X611850Y1031168D01*
X614330Y1031495D01*
X616641Y1032452D01*
X618625Y1033975D01*
X620148Y1035959D01*
X621105Y1038270D01*
X621432Y1040750D01*
X621105Y1043230D01*
X620148Y1045541D01*
X618625Y1047525D01*
X616641Y1049048D01*
X614330Y1050005D01*
X611850Y1050332D01*
D02*
G37*
G36*
X551900D02*
X549420Y1050005D01*
X547109Y1049048D01*
X545125Y1047525D01*
X543602Y1045541D01*
X542645Y1043230D01*
X542318Y1040750D01*
X542645Y1038270D01*
X543602Y1035959D01*
X545125Y1033975D01*
X547109Y1032452D01*
X549420Y1031495D01*
X551900Y1031168D01*
X554380Y1031495D01*
X556691Y1032452D01*
X558675Y1033975D01*
X560198Y1035959D01*
X561155Y1038270D01*
X561482Y1040750D01*
X561155Y1043230D01*
X560198Y1045541D01*
X558675Y1047525D01*
X556691Y1049048D01*
X554380Y1050005D01*
X551900Y1050332D01*
D02*
G37*
G36*
X501100D02*
X498620Y1050005D01*
X496309Y1049048D01*
X494324Y1047525D01*
X492802Y1045541D01*
X491844Y1043230D01*
X491518Y1040750D01*
X491844Y1038270D01*
X492802Y1035959D01*
X494324Y1033975D01*
X496309Y1032452D01*
X498620Y1031495D01*
X501100Y1031168D01*
X503580Y1031495D01*
X505891Y1032452D01*
X507875Y1033975D01*
X509398Y1035959D01*
X510355Y1038270D01*
X510682Y1040750D01*
X510355Y1043230D01*
X509398Y1045541D01*
X507875Y1047525D01*
X505891Y1049048D01*
X503580Y1050005D01*
X501100Y1050332D01*
D02*
G37*
G36*
X475700D02*
X473220Y1050005D01*
X470909Y1049048D01*
X468924Y1047525D01*
X467402Y1045541D01*
X466445Y1043230D01*
X466118Y1040750D01*
X466445Y1038270D01*
X467402Y1035959D01*
X468924Y1033975D01*
X470909Y1032452D01*
X473220Y1031495D01*
X475700Y1031168D01*
X478180Y1031495D01*
X480491Y1032452D01*
X482475Y1033975D01*
X483998Y1035959D01*
X484955Y1038270D01*
X485282Y1040750D01*
X484955Y1043230D01*
X483998Y1045541D01*
X482475Y1047525D01*
X480491Y1049048D01*
X478180Y1050005D01*
X475700Y1050332D01*
D02*
G37*
G36*
X672609Y1039480D02*
X663920D01*
Y1030791D01*
X665271Y1030968D01*
X667713Y1031980D01*
X669811Y1033589D01*
X671420Y1035687D01*
X672432Y1038129D01*
X672609Y1039480D01*
D02*
G37*
G36*
X525230D02*
X516541D01*
X516718Y1038129D01*
X517730Y1035687D01*
X519339Y1033589D01*
X521437Y1031980D01*
X523879Y1030968D01*
X525230Y1030791D01*
Y1039480D01*
D02*
G37*
G36*
X536459D02*
X527770D01*
Y1030790D01*
X529121Y1030968D01*
X531563Y1031980D01*
X533661Y1033589D01*
X535270Y1035687D01*
X536282Y1038129D01*
X536459Y1039480D01*
D02*
G37*
G36*
X661380D02*
X652691D01*
X652868Y1038129D01*
X653880Y1035687D01*
X655489Y1033589D01*
X657587Y1031980D01*
X660029Y1030968D01*
X661380Y1030790D01*
Y1039480D01*
D02*
G37*
G36*
X731500Y1069560D02*
X143786D01*
X141959Y1069320D01*
X140256Y1068615D01*
X138794Y1067493D01*
X117805Y1046504D01*
X115920Y1046255D01*
X113609Y1045298D01*
X111996Y1044060D01*
X99404D01*
X97791Y1045298D01*
X95480Y1046255D01*
X93000Y1046582D01*
X90520Y1046255D01*
X88209Y1045298D01*
X86224Y1043775D01*
X84702Y1041791D01*
X83744Y1039480D01*
X83418Y1037000D01*
X83744Y1034520D01*
X84702Y1032209D01*
X86224Y1030225D01*
X88209Y1028702D01*
X90520Y1027745D01*
X93000Y1027418D01*
X95480Y1027745D01*
X97791Y1028702D01*
X99404Y1029940D01*
X111996D01*
X113609Y1028702D01*
X115920Y1027745D01*
X118400Y1027418D01*
X120880Y1027745D01*
X123191Y1028702D01*
X125175Y1030225D01*
X126698Y1032209D01*
X127655Y1034520D01*
X127938Y1036667D01*
X146711Y1055440D01*
X728576D01*
X752008Y1032008D01*
X753470Y1030885D01*
X755173Y1030180D01*
X757000Y1029940D01*
X764850D01*
Y1027500D01*
X783850D01*
Y1029940D01*
X793346D01*
X794959Y1028702D01*
X797270Y1027745D01*
X799750Y1027418D01*
X802230Y1027745D01*
X804541Y1028702D01*
X806525Y1030225D01*
X808048Y1032209D01*
X809005Y1034520D01*
X809332Y1037000D01*
X809005Y1039480D01*
X808048Y1041791D01*
X806525Y1043775D01*
X804541Y1045298D01*
X802230Y1046255D01*
X799750Y1046582D01*
X797270Y1046255D01*
X794959Y1045298D01*
X793346Y1044060D01*
X783850D01*
Y1046500D01*
X764850D01*
Y1044060D01*
X759924D01*
X736492Y1067493D01*
X735030Y1068615D01*
X733327Y1069320D01*
X731500Y1069560D01*
D02*
G37*
G36*
X211400Y1045850D02*
X192400D01*
Y1026850D01*
X211400D01*
Y1045850D01*
D02*
G37*
G36*
X278100Y1045932D02*
X275620Y1045605D01*
X273309Y1044648D01*
X271325Y1043125D01*
X269802Y1041141D01*
X268845Y1038830D01*
X268518Y1036350D01*
X268845Y1033870D01*
X269802Y1031559D01*
X271325Y1029575D01*
X273309Y1028052D01*
X275620Y1027094D01*
X278100Y1026768D01*
X280580Y1027094D01*
X282891Y1028052D01*
X284876Y1029575D01*
X286398Y1031559D01*
X287355Y1033870D01*
X287682Y1036350D01*
X287355Y1038830D01*
X286398Y1041141D01*
X284876Y1043125D01*
X282891Y1044648D01*
X280580Y1045605D01*
X278100Y1045932D01*
D02*
G37*
G36*
X801020Y1021559D02*
Y1012870D01*
X809709D01*
X809532Y1014221D01*
X808520Y1016663D01*
X806911Y1018761D01*
X804813Y1020370D01*
X802371Y1021382D01*
X801020Y1021559D01*
D02*
G37*
G36*
X775620D02*
Y1012870D01*
X784309D01*
X784132Y1014221D01*
X783120Y1016663D01*
X781511Y1018761D01*
X779413Y1020370D01*
X776971Y1021382D01*
X775620Y1021559D01*
D02*
G37*
G36*
X798480D02*
X797129Y1021382D01*
X794687Y1020370D01*
X792589Y1018761D01*
X790980Y1016663D01*
X789968Y1014221D01*
X789791Y1012870D01*
X798480D01*
Y1021559D01*
D02*
G37*
G36*
X773080D02*
X771729Y1021382D01*
X769287Y1020370D01*
X767189Y1018761D01*
X765580Y1016663D01*
X764568Y1014221D01*
X764391Y1012870D01*
X773080D01*
Y1021559D01*
D02*
G37*
G36*
X119670D02*
Y1012870D01*
X128359D01*
X128182Y1014221D01*
X127170Y1016663D01*
X125561Y1018761D01*
X123463Y1020370D01*
X121021Y1021382D01*
X119670Y1021559D01*
D02*
G37*
G36*
X94270D02*
Y1012870D01*
X102959D01*
X102782Y1014221D01*
X101770Y1016663D01*
X100161Y1018761D01*
X98063Y1020370D01*
X95621Y1021382D01*
X94270Y1021559D01*
D02*
G37*
G36*
X117130D02*
X115779Y1021382D01*
X113337Y1020370D01*
X111239Y1018761D01*
X109630Y1016663D01*
X108618Y1014221D01*
X108441Y1012870D01*
X117130D01*
Y1021559D01*
D02*
G37*
G36*
X91730D02*
X90379Y1021382D01*
X87937Y1020370D01*
X85839Y1018761D01*
X84230Y1016663D01*
X83218Y1014221D01*
X83041Y1012870D01*
X91730D01*
Y1021559D01*
D02*
G37*
G36*
X128359Y1010330D02*
X119670D01*
Y1001641D01*
X121021Y1001818D01*
X123463Y1002830D01*
X125561Y1004439D01*
X127170Y1006537D01*
X128182Y1008979D01*
X128359Y1010330D01*
D02*
G37*
G36*
X809709Y1010330D02*
X801020D01*
Y1001641D01*
X802371Y1001818D01*
X804813Y1002830D01*
X806911Y1004439D01*
X808520Y1006537D01*
X809532Y1008979D01*
X809709Y1010330D01*
D02*
G37*
G36*
X798480D02*
X789790D01*
X789968Y1008979D01*
X790980Y1006537D01*
X792589Y1004439D01*
X794687Y1002830D01*
X797129Y1001818D01*
X798480Y1001641D01*
Y1010330D01*
D02*
G37*
G36*
X117130Y1010330D02*
X108441D01*
X108618Y1008979D01*
X109630Y1006537D01*
X111239Y1004439D01*
X113337Y1002830D01*
X115779Y1001818D01*
X117130Y1001641D01*
Y1010330D01*
D02*
G37*
G36*
X278100Y1020532D02*
X275620Y1020206D01*
X273309Y1019248D01*
X271325Y1017725D01*
X269802Y1015741D01*
X268845Y1013430D01*
X268518Y1010950D01*
X268845Y1008470D01*
X269802Y1006159D01*
X271325Y1004174D01*
X273309Y1002652D01*
X275620Y1001694D01*
X278100Y1001368D01*
X280580Y1001694D01*
X282891Y1002652D01*
X284876Y1004174D01*
X286398Y1006159D01*
X287355Y1008470D01*
X287682Y1010950D01*
X287355Y1013430D01*
X286398Y1015741D01*
X284876Y1017725D01*
X282891Y1019248D01*
X280580Y1020206D01*
X278100Y1020532D01*
D02*
G37*
G36*
X201900D02*
X199420Y1020206D01*
X197109Y1019248D01*
X195125Y1017725D01*
X193602Y1015741D01*
X192645Y1013430D01*
X192318Y1010950D01*
X192645Y1008470D01*
X193602Y1006159D01*
X195125Y1004174D01*
X197109Y1002652D01*
X199420Y1001694D01*
X201900Y1001368D01*
X204380Y1001694D01*
X206691Y1002652D01*
X208675Y1004174D01*
X210198Y1006159D01*
X211155Y1008470D01*
X211482Y1010950D01*
X211155Y1013430D01*
X210198Y1015741D01*
X208675Y1017725D01*
X206691Y1019248D01*
X204380Y1020206D01*
X201900Y1020532D01*
D02*
G37*
G36*
X706500Y1003608D02*
X704354Y1003181D01*
X702535Y1001965D01*
X701319Y1000146D01*
X700892Y998000D01*
X701319Y995854D01*
X702535Y994035D01*
X704354Y992819D01*
X706500Y992392D01*
X708646Y992819D01*
X710465Y994035D01*
X711681Y995854D01*
X712108Y998000D01*
X711681Y1000146D01*
X710465Y1001965D01*
X708646Y1003181D01*
X706500Y1003608D01*
D02*
G37*
G36*
X453500Y1003358D02*
X451354Y1002931D01*
X449535Y1001715D01*
X448319Y999896D01*
X447892Y997750D01*
X448319Y995604D01*
X449535Y993785D01*
X451354Y992569D01*
X453500Y992142D01*
X455646Y992569D01*
X457465Y993785D01*
X458681Y995604D01*
X459108Y997750D01*
X458681Y999896D01*
X457465Y1001715D01*
X455646Y1002931D01*
X453500Y1003358D01*
D02*
G37*
G36*
X736250Y1001858D02*
X734104Y1001431D01*
X732285Y1000215D01*
X731069Y998396D01*
X730642Y996250D01*
X731069Y994104D01*
X732285Y992285D01*
X734104Y991069D01*
X736250Y990642D01*
X738396Y991069D01*
X740215Y992285D01*
X741431Y994104D01*
X741858Y996250D01*
X741431Y998396D01*
X740215Y1000215D01*
X738396Y1001431D01*
X736250Y1001858D01*
D02*
G37*
G36*
X591250D02*
X589104Y1001431D01*
X587285Y1000215D01*
X586069Y998396D01*
X585642Y996250D01*
X586069Y994104D01*
X587285Y992285D01*
X589104Y991069D01*
X591250Y990642D01*
X593396Y991069D01*
X595215Y992285D01*
X596431Y994104D01*
X596858Y996250D01*
X596431Y998396D01*
X595215Y1000215D01*
X593396Y1001431D01*
X591250Y1001858D01*
D02*
G37*
G36*
X617500Y1001358D02*
X615354Y1000931D01*
X613535Y999715D01*
X612319Y997896D01*
X611892Y995750D01*
X612319Y993604D01*
X613535Y991785D01*
X615354Y990569D01*
X617500Y990142D01*
X619646Y990569D01*
X621465Y991785D01*
X622681Y993604D01*
X623108Y995750D01*
X622681Y997896D01*
X621465Y999715D01*
X619646Y1000931D01*
X617500Y1001358D01*
D02*
G37*
G36*
X397500Y991858D02*
X395354Y991431D01*
X393535Y990215D01*
X392319Y988396D01*
X391892Y986250D01*
X392319Y984104D01*
X393535Y982285D01*
X395354Y981069D01*
X397500Y980642D01*
X399646Y981069D01*
X401465Y982285D01*
X402681Y984104D01*
X403108Y986250D01*
X402681Y988396D01*
X401465Y990215D01*
X399646Y991431D01*
X397500Y991858D01*
D02*
G37*
G36*
X784309Y1010330D02*
X774350D01*
X764390D01*
X764568Y1008979D01*
X765580Y1006537D01*
X767189Y1004439D01*
X767396Y1004281D01*
X766988Y1003078D01*
X760250D01*
X758689Y1002768D01*
X757366Y1001884D01*
X757366Y1001884D01*
X720154Y964671D01*
X656568D01*
X656345Y964691D01*
X656244Y964706D01*
X654646Y965774D01*
X652500Y966201D01*
X651993Y966100D01*
X651970Y966116D01*
X651841Y966212D01*
X651803Y966246D01*
X642165Y975884D01*
X640842Y976768D01*
X639281Y977078D01*
X639281Y977078D01*
X572500D01*
X570939Y976768D01*
X569616Y975884D01*
X564492Y970760D01*
X564321Y970616D01*
X564239Y970556D01*
X562354Y970181D01*
X560756Y969113D01*
X560673Y969100D01*
X560352Y969078D01*
X415688D01*
X415009Y970348D01*
X415681Y971354D01*
X416108Y973500D01*
X415681Y975646D01*
X414465Y977465D01*
X412646Y978681D01*
X410500Y979108D01*
X408354Y978681D01*
X406535Y977465D01*
X405319Y975646D01*
X404892Y973500D01*
X405319Y971354D01*
X405991Y970348D01*
X405312Y969078D01*
X366020D01*
X365342Y970348D01*
X366181Y971604D01*
X366608Y973750D01*
X366181Y975896D01*
X364965Y977715D01*
X363146Y978931D01*
X361000Y979358D01*
X358854Y978931D01*
X357035Y977715D01*
X355819Y975896D01*
X355392Y973750D01*
X355819Y971604D01*
X356658Y970348D01*
X355980Y969078D01*
X316750D01*
X316750Y969078D01*
X315189Y968768D01*
X313866Y967884D01*
X267561Y921578D01*
X79189D01*
X66328Y934439D01*
Y965811D01*
X82639Y982122D01*
X84407D01*
X84702Y981409D01*
X86224Y979425D01*
X88209Y977902D01*
X90520Y976945D01*
X93000Y976618D01*
X95480Y976945D01*
X97791Y977902D01*
X99775Y979425D01*
X101298Y981409D01*
X102255Y983720D01*
X102582Y986200D01*
X102255Y988680D01*
X101298Y990991D01*
X99775Y992975D01*
X98894Y993652D01*
X99325Y994922D01*
X103911D01*
X109440Y989393D01*
X109144Y988680D01*
X108818Y986200D01*
X109144Y983720D01*
X110102Y981409D01*
X111624Y979425D01*
X113609Y977902D01*
X115920Y976945D01*
X118400Y976618D01*
X120880Y976945D01*
X123191Y977902D01*
X125175Y979425D01*
X126698Y981409D01*
X127655Y983720D01*
X127982Y986200D01*
X127655Y988680D01*
X126698Y990991D01*
X125175Y992975D01*
X123191Y994498D01*
X120880Y995455D01*
X118400Y995782D01*
X115920Y995455D01*
X115207Y995160D01*
X108484Y1001884D01*
X107161Y1002768D01*
X105600Y1003078D01*
X105600Y1003078D01*
X100362D01*
X99954Y1004281D01*
X100161Y1004439D01*
X101770Y1006537D01*
X102782Y1008979D01*
X102959Y1010330D01*
X93000D01*
X83041D01*
X83218Y1008979D01*
X84230Y1006537D01*
X85839Y1004439D01*
X86046Y1004281D01*
X85638Y1003078D01*
X74250D01*
X72689Y1002768D01*
X71366Y1001884D01*
X71366Y1001884D01*
X42866Y973384D01*
X41982Y972061D01*
X41672Y970500D01*
X41672Y970500D01*
Y922750D01*
X41672Y922750D01*
X41982Y921189D01*
X42866Y919866D01*
X66366Y896366D01*
X66366Y896366D01*
X67689Y895482D01*
X69250Y895172D01*
X69250Y895172D01*
X276250D01*
X276250Y895172D01*
X277811Y895482D01*
X279134Y896366D01*
X331439Y948672D01*
X568250D01*
X568250Y948672D01*
X569811Y948982D01*
X571134Y949866D01*
X572757Y951490D01*
X572929Y951634D01*
X573011Y951694D01*
X574896Y952069D01*
X576715Y953285D01*
X577931Y955104D01*
X578233Y956622D01*
X578283Y956672D01*
X624626D01*
X633046Y948252D01*
X633245Y948008D01*
X633304Y947924D01*
X633308Y947918D01*
X633569Y946604D01*
X634785Y944785D01*
X636604Y943569D01*
X638750Y943142D01*
X640896Y943569D01*
X642494Y944637D01*
X642577Y944650D01*
X642898Y944672D01*
X684104D01*
X684575Y943402D01*
X683569Y941896D01*
X683142Y939750D01*
X683569Y937604D01*
X684785Y935785D01*
X686604Y934569D01*
X688750Y934142D01*
X690896Y934569D01*
X692715Y935785D01*
X693931Y937604D01*
X694358Y939750D01*
X693931Y941896D01*
X692925Y943402D01*
X693396Y944672D01*
X736900D01*
X736900Y944672D01*
X738461Y944982D01*
X739784Y945866D01*
X771157Y977240D01*
X771870Y976945D01*
X774350Y976618D01*
X776830Y976945D01*
X779141Y977902D01*
X781125Y979425D01*
X782648Y981409D01*
X783605Y983720D01*
X783932Y986200D01*
X783605Y988680D01*
X782648Y990991D01*
X781125Y992975D01*
X780244Y993652D01*
X780675Y994922D01*
X786311D01*
X791097Y990135D01*
X790495Y988680D01*
X790168Y986200D01*
X790495Y983720D01*
X791452Y981409D01*
X792974Y979425D01*
X794959Y977902D01*
X797270Y976945D01*
X799750Y976618D01*
X802230Y976945D01*
X804541Y977902D01*
X806525Y979425D01*
X808048Y981409D01*
X809005Y983720D01*
X809332Y986200D01*
X809005Y988680D01*
X808048Y990991D01*
X806525Y992975D01*
X804541Y994498D01*
X802230Y995455D01*
X799750Y995782D01*
X797307Y995460D01*
X790884Y1001884D01*
X789561Y1002768D01*
X788000Y1003078D01*
X788000Y1003078D01*
X781712D01*
X781304Y1004281D01*
X781511Y1004439D01*
X783120Y1006537D01*
X784132Y1008979D01*
X784309Y1010330D01*
D02*
G37*
G36*
X278100Y995132D02*
X275620Y994806D01*
X273309Y993848D01*
X271325Y992325D01*
X269802Y990341D01*
X268845Y988030D01*
X268518Y985550D01*
X268845Y983070D01*
X269802Y980759D01*
X271325Y978774D01*
X273309Y977252D01*
X275620Y976294D01*
X278100Y975968D01*
X280580Y976294D01*
X282891Y977252D01*
X284876Y978774D01*
X286398Y980759D01*
X287355Y983070D01*
X287682Y985550D01*
X287355Y988030D01*
X286398Y990341D01*
X284876Y992325D01*
X282891Y993848D01*
X280580Y994806D01*
X278100Y995132D01*
D02*
G37*
G36*
X201900D02*
X199420Y994806D01*
X197109Y993848D01*
X195125Y992325D01*
X193602Y990341D01*
X192645Y988030D01*
X192318Y985550D01*
X192645Y983070D01*
X193602Y980759D01*
X195125Y978774D01*
X197109Y977252D01*
X199420Y976294D01*
X201900Y975968D01*
X204380Y976294D01*
X206691Y977252D01*
X208675Y978774D01*
X210198Y980759D01*
X211155Y983070D01*
X211482Y985550D01*
X211155Y988030D01*
X210198Y990341D01*
X208675Y992325D01*
X206691Y993848D01*
X204380Y994806D01*
X201900Y995132D01*
D02*
G37*
G36*
X801020Y970759D02*
Y962070D01*
X809709D01*
X809532Y963421D01*
X808520Y965863D01*
X806911Y967961D01*
X804813Y969570D01*
X802371Y970582D01*
X801020Y970759D01*
D02*
G37*
G36*
X775620D02*
Y962070D01*
X784309D01*
X784132Y963421D01*
X783120Y965863D01*
X781511Y967961D01*
X779413Y969570D01*
X776971Y970582D01*
X775620Y970759D01*
D02*
G37*
G36*
X798480D02*
X797129Y970582D01*
X794687Y969570D01*
X792589Y967961D01*
X790980Y965863D01*
X789968Y963421D01*
X789791Y962070D01*
X798480D01*
Y970759D01*
D02*
G37*
G36*
X773080D02*
X771729Y970582D01*
X769287Y969570D01*
X767189Y967961D01*
X765580Y965863D01*
X764568Y963421D01*
X764391Y962070D01*
X773080D01*
Y970759D01*
D02*
G37*
G36*
X119670D02*
Y962070D01*
X128359D01*
X128182Y963421D01*
X127170Y965863D01*
X125561Y967961D01*
X123463Y969570D01*
X121021Y970582D01*
X119670Y970759D01*
D02*
G37*
G36*
X94270D02*
Y962070D01*
X102959D01*
X102782Y963421D01*
X101770Y965863D01*
X100161Y967961D01*
X98063Y969570D01*
X95621Y970582D01*
X94270Y970759D01*
D02*
G37*
G36*
X91730D02*
X90379Y970582D01*
X87937Y969570D01*
X85839Y967961D01*
X84230Y965863D01*
X83218Y963421D01*
X83041Y962070D01*
X91730D01*
Y970759D01*
D02*
G37*
G36*
X117130D02*
X115779Y970582D01*
X113337Y969570D01*
X111239Y967961D01*
X109630Y965863D01*
X108618Y963421D01*
X108441Y962070D01*
X117130D01*
Y970759D01*
D02*
G37*
G36*
X128359Y959530D02*
X119670D01*
Y950841D01*
X121021Y951018D01*
X123463Y952030D01*
X125561Y953639D01*
X127170Y955737D01*
X128182Y958179D01*
X128359Y959530D01*
D02*
G37*
G36*
X102959D02*
X94270D01*
Y950841D01*
X95621Y951018D01*
X98063Y952030D01*
X100161Y953639D01*
X101770Y955737D01*
X102782Y958179D01*
X102959Y959530D01*
D02*
G37*
G36*
X809709Y959530D02*
X801020D01*
Y950841D01*
X802371Y951018D01*
X804813Y952030D01*
X806911Y953639D01*
X808520Y955737D01*
X809532Y958179D01*
X809709Y959530D01*
D02*
G37*
G36*
X784309D02*
X775620D01*
Y950841D01*
X776971Y951018D01*
X779413Y952030D01*
X781511Y953639D01*
X783120Y955737D01*
X784132Y958179D01*
X784309Y959530D01*
D02*
G37*
G36*
X798480D02*
X789790D01*
X789968Y958179D01*
X790980Y955737D01*
X792589Y953639D01*
X794687Y952030D01*
X797129Y951018D01*
X798480Y950841D01*
Y959530D01*
D02*
G37*
G36*
X773080D02*
X764390D01*
X764568Y958179D01*
X765580Y955737D01*
X767189Y953639D01*
X769287Y952030D01*
X771729Y951018D01*
X773080Y950841D01*
Y959530D01*
D02*
G37*
G36*
X117130Y959530D02*
X108441D01*
X108618Y958179D01*
X109630Y955737D01*
X111239Y953639D01*
X113337Y952030D01*
X115779Y951018D01*
X117130Y950841D01*
Y959530D01*
D02*
G37*
G36*
X91730D02*
X83041D01*
X83218Y958179D01*
X84230Y955737D01*
X85839Y953639D01*
X87937Y952030D01*
X90379Y951018D01*
X91730Y950841D01*
Y959530D01*
D02*
G37*
G36*
X278100Y969732D02*
X275620Y969406D01*
X273309Y968448D01*
X271325Y966925D01*
X269802Y964941D01*
X268845Y962630D01*
X268518Y960150D01*
X268845Y957670D01*
X269802Y955359D01*
X271325Y953374D01*
X273309Y951852D01*
X275620Y950894D01*
X278100Y950568D01*
X280580Y950894D01*
X282891Y951852D01*
X284876Y953374D01*
X286398Y955359D01*
X287355Y957670D01*
X287682Y960150D01*
X287355Y962630D01*
X286398Y964941D01*
X284876Y966925D01*
X282891Y968448D01*
X280580Y969406D01*
X278100Y969732D01*
D02*
G37*
G36*
X201900D02*
X199420Y969406D01*
X197109Y968448D01*
X195125Y966925D01*
X193602Y964941D01*
X192645Y962630D01*
X192318Y960150D01*
X192645Y957670D01*
X193602Y955359D01*
X195125Y953374D01*
X197109Y951852D01*
X199420Y950894D01*
X201900Y950568D01*
X204380Y950894D01*
X206691Y951852D01*
X208675Y953374D01*
X210198Y955359D01*
X211155Y957670D01*
X211482Y960150D01*
X211155Y962630D01*
X210198Y964941D01*
X208675Y966925D01*
X206691Y968448D01*
X204380Y969406D01*
X201900Y969732D01*
D02*
G37*
G36*
X597250Y952608D02*
X595104Y952181D01*
X593285Y950965D01*
X592069Y949146D01*
X591642Y947000D01*
X592069Y944854D01*
X593285Y943035D01*
X595104Y941819D01*
X597250Y941392D01*
X599396Y941819D01*
X601215Y943035D01*
X602431Y944854D01*
X602858Y947000D01*
X602431Y949146D01*
X601215Y950965D01*
X599396Y952181D01*
X597250Y952608D01*
D02*
G37*
G36*
X610500Y950358D02*
X608354Y949931D01*
X606535Y948715D01*
X605319Y946896D01*
X604892Y944750D01*
X605319Y942604D01*
X606535Y940785D01*
X608354Y939569D01*
X610500Y939142D01*
X612646Y939569D01*
X614465Y940785D01*
X615681Y942604D01*
X616108Y944750D01*
X615681Y946896D01*
X614465Y948715D01*
X612646Y949931D01*
X610500Y950358D01*
D02*
G37*
G36*
X127900Y944900D02*
X108900D01*
Y925900D01*
X127900D01*
Y944900D01*
D02*
G37*
G36*
X799750Y944982D02*
X797270Y944656D01*
X794959Y943698D01*
X792974Y942176D01*
X791452Y940191D01*
X790495Y937880D01*
X790168Y935400D01*
X790495Y932920D01*
X791452Y930609D01*
X792974Y928625D01*
X794959Y927102D01*
X797270Y926145D01*
X799750Y925818D01*
X802230Y926145D01*
X804541Y927102D01*
X806525Y928625D01*
X808048Y930609D01*
X809005Y932920D01*
X809332Y935400D01*
X809005Y937880D01*
X808048Y940191D01*
X806525Y942176D01*
X804541Y943698D01*
X802230Y944656D01*
X799750Y944982D01*
D02*
G37*
G36*
X774350D02*
X771870Y944656D01*
X769559Y943698D01*
X767574Y942176D01*
X766052Y940191D01*
X765095Y937880D01*
X764768Y935400D01*
X765095Y932920D01*
X766052Y930609D01*
X767574Y928625D01*
X769559Y927102D01*
X771870Y926145D01*
X774350Y925818D01*
X776830Y926145D01*
X779141Y927102D01*
X781125Y928625D01*
X782648Y930609D01*
X783605Y932920D01*
X783932Y935400D01*
X783605Y937880D01*
X782648Y940191D01*
X781125Y942176D01*
X779141Y943698D01*
X776830Y944656D01*
X774350Y944982D01*
D02*
G37*
G36*
X93000D02*
X90520Y944656D01*
X88209Y943698D01*
X86224Y942176D01*
X84702Y940191D01*
X83744Y937880D01*
X83418Y935400D01*
X83744Y932920D01*
X84702Y930609D01*
X86224Y928625D01*
X88209Y927102D01*
X90520Y926145D01*
X93000Y925818D01*
X95480Y926145D01*
X97791Y927102D01*
X99775Y928625D01*
X101298Y930609D01*
X102255Y932920D01*
X102582Y935400D01*
X102255Y937880D01*
X101298Y940191D01*
X99775Y942176D01*
X97791Y943698D01*
X95480Y944656D01*
X93000Y944982D01*
D02*
G37*
G36*
X496000Y934608D02*
X493854Y934181D01*
X492035Y932965D01*
X490819Y931146D01*
X490392Y929000D01*
X490819Y926854D01*
X492035Y925035D01*
X493854Y923819D01*
X496000Y923392D01*
X498146Y923819D01*
X499965Y925035D01*
X501181Y926854D01*
X501608Y929000D01*
X501181Y931146D01*
X499965Y932965D01*
X498146Y934181D01*
X496000Y934608D01*
D02*
G37*
G36*
X624750Y926858D02*
X622604Y926431D01*
X620785Y925215D01*
X619569Y923396D01*
X619142Y921250D01*
X619569Y919104D01*
X620785Y917285D01*
X622604Y916069D01*
X624750Y915642D01*
X626896Y916069D01*
X628715Y917285D01*
X629931Y919104D01*
X630358Y921250D01*
X629931Y923396D01*
X628715Y925215D01*
X626896Y926431D01*
X624750Y926858D01*
D02*
G37*
G36*
X773000Y919858D02*
X770854Y919431D01*
X769035Y918215D01*
X767819Y916396D01*
X767392Y914250D01*
X767819Y912104D01*
X769035Y910285D01*
X770854Y909069D01*
X773000Y908642D01*
X775146Y909069D01*
X776965Y910285D01*
X778181Y912104D01*
X778608Y914250D01*
X778181Y916396D01*
X776965Y918215D01*
X775146Y919431D01*
X773000Y919858D01*
D02*
G37*
G36*
X764750Y909564D02*
X752503D01*
X751235Y909311D01*
X750160Y908593D01*
X748230Y906663D01*
X747250Y906858D01*
X745104Y906431D01*
X743285Y905215D01*
X742069Y903396D01*
X741642Y901250D01*
X742069Y899104D01*
X743285Y897285D01*
X745104Y896069D01*
X747250Y895642D01*
X749396Y896069D01*
X751215Y897285D01*
X752431Y899104D01*
X752858Y901250D01*
X752747Y901808D01*
X753876Y902936D01*
X763378D01*
X801407Y864907D01*
X802482Y864189D01*
X803750Y863936D01*
X809599D01*
X810035Y863285D01*
X811854Y862069D01*
X814000Y861642D01*
X816146Y862069D01*
X817965Y863285D01*
X819181Y865104D01*
X819608Y867250D01*
X819181Y869396D01*
X817965Y871215D01*
X816146Y872431D01*
X814000Y872858D01*
X811854Y872431D01*
X810035Y871215D01*
X809599Y870564D01*
X805123D01*
X767093Y908593D01*
X766018Y909311D01*
X765808Y909353D01*
X764750Y909564D01*
D02*
G37*
G36*
X372000Y946108D02*
X369854Y945681D01*
X368035Y944465D01*
X366819Y942646D01*
X366392Y940500D01*
X366819Y938354D01*
X368035Y936535D01*
X369854Y935319D01*
X372000Y934892D01*
X374146Y935319D01*
X375965Y936535D01*
X376401Y937186D01*
X419627D01*
X455407Y901407D01*
X456482Y900689D01*
X457750Y900436D01*
X558748D01*
X559382Y899735D01*
X559168Y898221D01*
X558785Y897965D01*
X558349Y897314D01*
X345373D01*
X331593Y911093D01*
X330518Y911811D01*
X329250Y912064D01*
X315151D01*
X314715Y912715D01*
X312896Y913931D01*
X310750Y914358D01*
X308604Y913931D01*
X306785Y912715D01*
X305569Y910896D01*
X305142Y908750D01*
X305569Y906604D01*
X306785Y904785D01*
X308604Y903569D01*
X310750Y903142D01*
X312896Y903569D01*
X314715Y904785D01*
X315151Y905436D01*
X327878D01*
X341657Y891657D01*
X342732Y890939D01*
X344000Y890686D01*
X558349D01*
X558785Y890035D01*
X560604Y888819D01*
X562750Y888392D01*
X564896Y888819D01*
X566715Y890035D01*
X567931Y891854D01*
X568358Y894000D01*
X567931Y896146D01*
X566990Y897555D01*
X566730Y897998D01*
X567247Y899138D01*
X568215Y899785D01*
X568324Y899947D01*
X569977Y900135D01*
X571132Y899363D01*
X573278Y898936D01*
X575424Y899363D01*
X577243Y900579D01*
X578459Y902398D01*
X578886Y904544D01*
X578459Y906690D01*
X577243Y908509D01*
X575424Y909725D01*
X573278Y910152D01*
X571132Y909725D01*
X569313Y908509D01*
X569204Y908347D01*
X567551Y908159D01*
X566396Y908931D01*
X564250Y909358D01*
X562104Y908931D01*
X560285Y907715D01*
X559849Y907064D01*
X459123D01*
X423343Y942843D01*
X422268Y943561D01*
X421000Y943814D01*
X376401D01*
X375965Y944465D01*
X374146Y945681D01*
X372000Y946108D01*
D02*
G37*
G36*
X738000Y897608D02*
X735854Y897181D01*
X734035Y895965D01*
X732819Y894146D01*
X732392Y892000D01*
X732819Y889854D01*
X734035Y888035D01*
X735854Y886819D01*
X738000Y886392D01*
X740146Y886819D01*
X741965Y888035D01*
X743181Y889854D01*
X743608Y892000D01*
X743181Y894146D01*
X741965Y895965D01*
X740146Y897181D01*
X738000Y897608D01*
D02*
G37*
G36*
X466750Y947358D02*
X464604Y946931D01*
X462785Y945715D01*
X461569Y943896D01*
X461142Y941750D01*
X461569Y939604D01*
X462785Y937785D01*
X464604Y936569D01*
X466750Y936142D01*
X467218Y936235D01*
X488977Y914477D01*
X490134Y913703D01*
X491500Y913431D01*
X575022D01*
X612155Y876298D01*
X612131Y875993D01*
X611734Y875028D01*
X605791D01*
X599896Y880923D01*
X600049Y881692D01*
X599622Y883838D01*
X598407Y885657D01*
X596587Y886872D01*
X594441Y887299D01*
X592295Y886872D01*
X590476Y885657D01*
X589261Y883838D01*
X588834Y881692D01*
X589261Y879546D01*
X590476Y877726D01*
X592295Y876511D01*
X594441Y876084D01*
X595210Y876237D01*
X602075Y869371D01*
X603150Y868653D01*
X604418Y868401D01*
X677714D01*
X678983Y868653D01*
X680058Y869371D01*
X694416Y883730D01*
X703134D01*
X703569Y883078D01*
X705388Y881862D01*
X707534Y881435D01*
X709680Y881862D01*
X711500Y883078D01*
X712715Y884897D01*
X713142Y887043D01*
X714210Y888186D01*
X721433D01*
X721535Y888035D01*
X723354Y886819D01*
X725500Y886392D01*
X727646Y886819D01*
X729465Y888035D01*
X730681Y889854D01*
X731108Y892000D01*
X730681Y894146D01*
X729465Y895965D01*
X727646Y897181D01*
X725500Y897608D01*
X723964Y897302D01*
X722869Y898240D01*
X722852Y898277D01*
X722431Y900396D01*
X721215Y902215D01*
X719396Y903431D01*
X717250Y903858D01*
X715903Y903590D01*
X710400Y909093D01*
X709325Y909811D01*
X708057Y910064D01*
X613250D01*
X611982Y909811D01*
X610907Y909093D01*
X606519Y904705D01*
X605750Y904858D01*
X603604Y904431D01*
X601785Y903215D01*
X600569Y901396D01*
X600300Y900043D01*
X598922Y899625D01*
X579023Y919523D01*
X577866Y920297D01*
X576500Y920569D01*
X545181D01*
X544502Y921839D01*
X545181Y922854D01*
X545608Y925000D01*
X545181Y927146D01*
X543965Y928965D01*
X542146Y930181D01*
X540000Y930608D01*
X537854Y930181D01*
X536035Y928965D01*
X534819Y927146D01*
X534392Y925000D01*
X534819Y922854D01*
X535498Y921839D01*
X534819Y920569D01*
X492978D01*
X472265Y941282D01*
X472358Y941750D01*
X471931Y943896D01*
X470715Y945715D01*
X468896Y946931D01*
X466750Y947358D01*
D02*
G37*
G36*
X74020Y893455D02*
Y885270D01*
X82205D01*
X82044Y886490D01*
X81083Y888811D01*
X79554Y890804D01*
X77561Y892333D01*
X75240Y893295D01*
X74020Y893455D01*
D02*
G37*
G36*
X71480Y893455D02*
X70259Y893295D01*
X67939Y892333D01*
X65946Y890804D01*
X64417Y888811D01*
X63456Y886490D01*
X63295Y885270D01*
X71480D01*
Y893455D01*
D02*
G37*
G36*
Y882730D02*
X63295D01*
X63456Y881510D01*
X64417Y879189D01*
X65946Y877196D01*
X67939Y875667D01*
X70259Y874706D01*
X71480Y874545D01*
Y882730D01*
D02*
G37*
G36*
X82205D02*
X74020D01*
Y874545D01*
X75240Y874706D01*
X77561Y875667D01*
X79554Y877196D01*
X81083Y879189D01*
X82044Y881510D01*
X82205Y882730D01*
D02*
G37*
G36*
X264250Y868789D02*
X229402D01*
X229398Y868788D01*
X229393Y868789D01*
X229006Y868710D01*
X228622Y868634D01*
X228618Y868631D01*
X228613Y868630D01*
X228289Y868411D01*
X227960Y868192D01*
X227958Y868188D01*
X227953Y868185D01*
X227060Y867282D01*
X227057Y867278D01*
X227053Y867275D01*
X226838Y866946D01*
X226621Y866619D01*
X226620Y866614D01*
X226617Y866610D01*
X226545Y866226D01*
X226470Y865838D01*
X226471Y865833D01*
X226470Y865828D01*
X226711Y840991D01*
Y840750D01*
X226866Y839970D01*
X227308Y839308D01*
X227970Y838866D01*
X228750Y838711D01*
X264250D01*
X265030Y838866D01*
X265692Y839308D01*
X266134Y839970D01*
X266289Y840750D01*
Y866750D01*
X266134Y867530D01*
X265692Y868192D01*
X265030Y868634D01*
X264250Y868789D01*
D02*
G37*
G36*
X735250Y869358D02*
X733104Y868931D01*
X731285Y867715D01*
X730069Y865896D01*
X729642Y863750D01*
X730069Y861604D01*
X731285Y859785D01*
X733104Y858569D01*
X735250Y858142D01*
X737396Y858569D01*
X739215Y859785D01*
X740431Y861604D01*
X740858Y863750D01*
X740431Y865896D01*
X739215Y867715D01*
X737396Y868931D01*
X735250Y869358D01*
D02*
G37*
G36*
X759000Y897358D02*
X756854Y896931D01*
X755035Y895715D01*
X753819Y893896D01*
X753392Y891750D01*
X753819Y889604D01*
X755035Y887785D01*
X755941Y887179D01*
Y858603D01*
X755941Y858603D01*
X756174Y857432D01*
X756837Y856440D01*
X757344Y855933D01*
X757319Y855896D01*
X756892Y853750D01*
X757319Y851604D01*
X758535Y849785D01*
X760354Y848569D01*
X762500Y848142D01*
X764646Y848569D01*
X766465Y849785D01*
X767681Y851604D01*
X768108Y853750D01*
X767681Y855896D01*
X766465Y857715D01*
X764646Y858931D01*
X762589Y859340D01*
X762059Y859870D01*
Y887179D01*
X762965Y887785D01*
X764181Y889604D01*
X764608Y891750D01*
X764181Y893896D01*
X762965Y895715D01*
X761146Y896931D01*
X759000Y897358D01*
D02*
G37*
G36*
X81750Y843000D02*
X63750D01*
Y825000D01*
X81750D01*
Y843000D01*
D02*
G37*
G36*
X600750Y831358D02*
X598604Y830931D01*
X596785Y829715D01*
X595569Y827896D01*
X595142Y825750D01*
X595569Y823604D01*
X596785Y821785D01*
X598604Y820569D01*
X600750Y820142D01*
X602896Y820569D01*
X604715Y821785D01*
X605931Y823604D01*
X606358Y825750D01*
X605931Y827896D01*
X604715Y829715D01*
X602896Y830931D01*
X600750Y831358D01*
D02*
G37*
G36*
X750500Y817358D02*
X748354Y816931D01*
X746535Y815715D01*
X745319Y813896D01*
X744892Y811750D01*
X745319Y809604D01*
X746535Y807785D01*
X748354Y806569D01*
X750500Y806142D01*
X752646Y806569D01*
X754465Y807785D01*
X755681Y809604D01*
X756108Y811750D01*
X755681Y813896D01*
X754465Y815715D01*
X752646Y816931D01*
X750500Y817358D01*
D02*
G37*
G36*
X830500Y816858D02*
X828354Y816431D01*
X826535Y815215D01*
X825319Y813396D01*
X824892Y811250D01*
X825319Y809104D01*
X826535Y807285D01*
X828354Y806069D01*
X830500Y805642D01*
X832646Y806069D01*
X834465Y807285D01*
X835681Y809104D01*
X836108Y811250D01*
X835681Y813396D01*
X834465Y815215D01*
X832646Y816431D01*
X830500Y816858D01*
D02*
G37*
G36*
X601000Y797358D02*
X598854Y796931D01*
X597035Y795715D01*
X595819Y793896D01*
X595392Y791750D01*
X595819Y789604D01*
X597035Y787785D01*
X598854Y786569D01*
X601000Y786142D01*
X603146Y786569D01*
X604965Y787785D01*
X606181Y789604D01*
X606608Y791750D01*
X606181Y793896D01*
X604965Y795715D01*
X603146Y796931D01*
X601000Y797358D01*
D02*
G37*
G36*
X513500Y774539D02*
X478652D01*
X478647Y774538D01*
X478643Y774539D01*
X478256Y774460D01*
X477872Y774384D01*
X477868Y774381D01*
X477863Y774380D01*
X477539Y774161D01*
X477211Y773942D01*
X477208Y773938D01*
X477203Y773935D01*
X476310Y773033D01*
X476307Y773028D01*
X476303Y773026D01*
X476088Y772697D01*
X475871Y772369D01*
X475870Y772364D01*
X475867Y772360D01*
X475795Y771976D01*
X475719Y771588D01*
X475721Y771583D01*
X475720Y771578D01*
X475961Y746741D01*
Y746500D01*
X476116Y745720D01*
X476558Y745058D01*
X477220Y744616D01*
X478000Y744461D01*
X513500D01*
X514280Y744616D01*
X514942Y745058D01*
X515384Y745720D01*
X515539Y746500D01*
Y772500D01*
X515384Y773280D01*
X514942Y773942D01*
X514280Y774384D01*
X513500Y774539D01*
D02*
G37*
G36*
X600500Y781358D02*
X598354Y780931D01*
X596535Y779715D01*
X595319Y777896D01*
X594892Y775750D01*
X595319Y773604D01*
X596535Y771785D01*
X598354Y770569D01*
X600500Y770142D01*
X602646Y770569D01*
X604465Y771785D01*
X605681Y773604D01*
X606108Y775750D01*
X605681Y777896D01*
X604465Y779715D01*
X602646Y780931D01*
X600500Y781358D01*
D02*
G37*
G36*
X725250Y749108D02*
X723104Y748681D01*
X721285Y747465D01*
X720069Y745646D01*
X719642Y743500D01*
X720069Y741354D01*
X721285Y739535D01*
X723104Y738319D01*
X725250Y737892D01*
X727396Y738319D01*
X729215Y739535D01*
X730431Y741354D01*
X730858Y743500D01*
X730431Y745646D01*
X729215Y747465D01*
X727396Y748681D01*
X725250Y749108D01*
D02*
G37*
G36*
X777750Y748608D02*
X775604Y748181D01*
X773785Y746965D01*
X772569Y745146D01*
X772142Y743000D01*
X772569Y740854D01*
X773785Y739035D01*
X775604Y737819D01*
X777750Y737392D01*
X779896Y737819D01*
X781715Y739035D01*
X782931Y740854D01*
X783358Y743000D01*
X782931Y745146D01*
X781715Y746965D01*
X779896Y748181D01*
X777750Y748608D01*
D02*
G37*
G36*
X272500Y742858D02*
X270354Y742431D01*
X268535Y741215D01*
X267319Y739396D01*
X266892Y737250D01*
X267319Y735104D01*
X268535Y733285D01*
X270354Y732069D01*
X272500Y731642D01*
X274646Y732069D01*
X276465Y733285D01*
X277681Y735104D01*
X278108Y737250D01*
X277681Y739396D01*
X276465Y741215D01*
X274646Y742431D01*
X272500Y742858D01*
D02*
G37*
G36*
X820000Y735608D02*
X817854Y735181D01*
X816035Y733965D01*
X814819Y732146D01*
X814392Y730000D01*
X814819Y727854D01*
X816035Y726035D01*
X817854Y724819D01*
X820000Y724392D01*
X822146Y724819D01*
X823965Y726035D01*
X825181Y727854D01*
X825608Y730000D01*
X825181Y732146D01*
X823965Y733965D01*
X822146Y735181D01*
X820000Y735608D01*
D02*
G37*
G36*
X176000Y711608D02*
X173854Y711181D01*
X172035Y709965D01*
X170819Y708146D01*
X170392Y706000D01*
X170819Y703854D01*
X172035Y702035D01*
X173854Y700819D01*
X176000Y700392D01*
X178146Y700819D01*
X179965Y702035D01*
X181181Y703854D01*
X181608Y706000D01*
X181181Y708146D01*
X179965Y709965D01*
X178146Y711181D01*
X176000Y711608D01*
D02*
G37*
G36*
X603250Y698608D02*
X601104Y698181D01*
X599285Y696965D01*
X598069Y695146D01*
X597642Y693000D01*
X598069Y690854D01*
X599285Y689035D01*
X601104Y687819D01*
X603250Y687392D01*
X605396Y687819D01*
X607215Y689035D01*
X608431Y690854D01*
X608858Y693000D01*
X608431Y695146D01*
X607215Y696965D01*
X605396Y698181D01*
X603250Y698608D01*
D02*
G37*
G36*
X753803Y688411D02*
X751657Y687984D01*
X749838Y686769D01*
X748623Y684949D01*
X748196Y682803D01*
X748623Y680657D01*
X749838Y678838D01*
X751657Y677622D01*
X753803Y677196D01*
X755949Y677622D01*
X757769Y678838D01*
X758984Y680657D01*
X759411Y682803D01*
X758984Y684949D01*
X757769Y686769D01*
X755949Y687984D01*
X753803Y688411D01*
D02*
G37*
G36*
X830750Y683858D02*
X828604Y683431D01*
X826785Y682215D01*
X825569Y680396D01*
X825142Y678250D01*
X825569Y676104D01*
X826785Y674285D01*
X828604Y673069D01*
X830750Y672642D01*
X832896Y673069D01*
X834715Y674285D01*
X835931Y676104D01*
X836358Y678250D01*
X835931Y680396D01*
X834715Y682215D01*
X832896Y683431D01*
X830750Y683858D01*
D02*
G37*
G36*
X602750Y664358D02*
X600604Y663931D01*
X598785Y662715D01*
X597569Y660896D01*
X597142Y658750D01*
X597569Y656604D01*
X598785Y654785D01*
X600604Y653569D01*
X602750Y653142D01*
X604896Y653569D01*
X606715Y654785D01*
X607931Y656604D01*
X608358Y658750D01*
X607931Y660896D01*
X606715Y662715D01*
X604896Y663931D01*
X602750Y664358D01*
D02*
G37*
G36*
X603000Y647858D02*
X600854Y647431D01*
X599035Y646215D01*
X597819Y644396D01*
X597392Y642250D01*
X597819Y640104D01*
X599035Y638285D01*
X600854Y637069D01*
X603000Y636642D01*
X605146Y637069D01*
X606965Y638285D01*
X608181Y640104D01*
X608608Y642250D01*
X608181Y644396D01*
X606965Y646215D01*
X605146Y647431D01*
X603000Y647858D01*
D02*
G37*
G36*
X495270Y631955D02*
Y623770D01*
X503455D01*
X503294Y624990D01*
X502333Y627311D01*
X500804Y629304D01*
X498811Y630833D01*
X496491Y631794D01*
X495270Y631955D01*
D02*
G37*
G36*
X492730D02*
X491510Y631794D01*
X489189Y630833D01*
X487196Y629304D01*
X485667Y627311D01*
X484706Y624990D01*
X484545Y623770D01*
X492730D01*
Y631955D01*
D02*
G37*
G36*
X453000Y631500D02*
X435000D01*
Y613500D01*
X453000D01*
Y631500D01*
D02*
G37*
G36*
X503455Y621230D02*
X495270D01*
Y613045D01*
X496491Y613206D01*
X498811Y614167D01*
X500804Y615696D01*
X502333Y617689D01*
X503294Y620010D01*
X503455Y621230D01*
D02*
G37*
G36*
X492730D02*
X484545D01*
X484706Y620010D01*
X485667Y617689D01*
X487196Y615696D01*
X489189Y614167D01*
X491510Y613206D01*
X492730Y613045D01*
Y621230D01*
D02*
G37*
G36*
X725250Y615608D02*
X723104Y615181D01*
X721285Y613965D01*
X720069Y612146D01*
X719642Y610000D01*
X720069Y607854D01*
X721285Y606035D01*
X723104Y604819D01*
X725250Y604392D01*
X727396Y604819D01*
X729215Y606035D01*
X730431Y607854D01*
X730858Y610000D01*
X730431Y612146D01*
X729215Y613965D01*
X727396Y615181D01*
X725250Y615608D01*
D02*
G37*
G36*
X830250Y613108D02*
X828104Y612681D01*
X826285Y611465D01*
X825069Y609646D01*
X824642Y607500D01*
X825069Y605354D01*
X826285Y603535D01*
X828104Y602319D01*
X830250Y601892D01*
X832396Y602319D01*
X834215Y603535D01*
X835431Y605354D01*
X835858Y607500D01*
X835431Y609646D01*
X834215Y611465D01*
X832396Y612681D01*
X830250Y613108D01*
D02*
G37*
G36*
X750500Y598108D02*
X748354Y597681D01*
X746535Y596465D01*
X745319Y594646D01*
X744892Y592500D01*
X745319Y590354D01*
X746535Y588535D01*
X748354Y587319D01*
X750500Y586892D01*
X752646Y587319D01*
X754465Y588535D01*
X755681Y590354D01*
X756108Y592500D01*
X755681Y594646D01*
X754465Y596465D01*
X752646Y597681D01*
X750500Y598108D01*
D02*
G37*
G36*
X602500Y566858D02*
X600354Y566431D01*
X598535Y565215D01*
X597319Y563396D01*
X596892Y561250D01*
X597319Y559104D01*
X598535Y557285D01*
X600354Y556069D01*
X602500Y555642D01*
X604646Y556069D01*
X606465Y557285D01*
X607681Y559104D01*
X608108Y561250D01*
X607681Y563396D01*
X606465Y565215D01*
X604646Y566431D01*
X602500Y566858D01*
D02*
G37*
G36*
X751250Y553608D02*
X749104Y553181D01*
X747285Y551965D01*
X746069Y550146D01*
X745642Y548000D01*
X746069Y545854D01*
X747285Y544035D01*
X749104Y542819D01*
X751250Y542392D01*
X753396Y542819D01*
X755215Y544035D01*
X756431Y545854D01*
X756858Y548000D01*
X756431Y550146D01*
X755215Y551965D01*
X753396Y553181D01*
X751250Y553608D01*
D02*
G37*
G36*
X830750Y551858D02*
X828604Y551431D01*
X826785Y550215D01*
X825569Y548396D01*
X825142Y546250D01*
X825569Y544104D01*
X826785Y542285D01*
X828604Y541069D01*
X830750Y540642D01*
X832896Y541069D01*
X834715Y542285D01*
X835931Y544104D01*
X836358Y546250D01*
X835931Y548396D01*
X834715Y550215D01*
X832896Y551431D01*
X830750Y551858D01*
D02*
G37*
G36*
X603000Y532608D02*
X600854Y532181D01*
X599035Y530965D01*
X597819Y529146D01*
X597392Y527000D01*
X597819Y524854D01*
X599035Y523035D01*
X600854Y521819D01*
X603000Y521392D01*
X605146Y521819D01*
X606965Y523035D01*
X608181Y524854D01*
X608608Y527000D01*
X608181Y529146D01*
X606965Y530965D01*
X605146Y532181D01*
X603000Y532608D01*
D02*
G37*
G36*
X602250Y516358D02*
X600104Y515931D01*
X598285Y514715D01*
X597069Y512896D01*
X596642Y510750D01*
X597069Y508604D01*
X598285Y506785D01*
X600104Y505569D01*
X602250Y505142D01*
X604396Y505569D01*
X606215Y506785D01*
X607431Y508604D01*
X607858Y510750D01*
X607431Y512896D01*
X606215Y514715D01*
X604396Y515931D01*
X602250Y516358D01*
D02*
G37*
G36*
X725250Y484858D02*
X723104Y484431D01*
X721285Y483215D01*
X720069Y481396D01*
X719642Y479250D01*
X720069Y477104D01*
X721285Y475285D01*
X723104Y474069D01*
X725250Y473642D01*
X727396Y474069D01*
X729215Y475285D01*
X730431Y477104D01*
X730858Y479250D01*
X730431Y481396D01*
X729215Y483215D01*
X727396Y484431D01*
X725250Y484858D01*
D02*
G37*
G36*
X105520Y445455D02*
Y437270D01*
X113705D01*
X113545Y438490D01*
X112583Y440811D01*
X111054Y442804D01*
X109061Y444333D01*
X106741Y445294D01*
X105520Y445455D01*
D02*
G37*
G36*
X102980D02*
X101760Y445294D01*
X99439Y444333D01*
X97446Y442804D01*
X95917Y440811D01*
X94956Y438490D01*
X94795Y437270D01*
X102980D01*
Y445455D01*
D02*
G37*
G36*
X63250Y445000D02*
X45250D01*
Y427000D01*
X63250D01*
Y445000D01*
D02*
G37*
G36*
X113705Y434730D02*
X105520D01*
Y426545D01*
X106741Y426706D01*
X109061Y427667D01*
X111054Y429196D01*
X112583Y431189D01*
X113545Y433510D01*
X113705Y434730D01*
D02*
G37*
G36*
X102980D02*
X94795D01*
X94956Y433510D01*
X95917Y431189D01*
X97446Y429196D01*
X99439Y427667D01*
X101760Y426706D01*
X102980Y426545D01*
Y434730D01*
D02*
G37*
G36*
X825420Y371950D02*
Y355520D01*
X834398D01*
Y361870D01*
X834048Y364522D01*
X833025Y366994D01*
X831396Y369116D01*
X829274Y370745D01*
X826802Y371768D01*
X825420Y371950D01*
D02*
G37*
G36*
X707470D02*
Y355520D01*
X716448D01*
Y361870D01*
X716098Y364522D01*
X715075Y366994D01*
X713446Y369116D01*
X711324Y370745D01*
X708852Y371768D01*
X707470Y371950D01*
D02*
G37*
G36*
X589520D02*
Y355520D01*
X598498D01*
Y361870D01*
X598148Y364522D01*
X597125Y366994D01*
X595496Y369116D01*
X593374Y370745D01*
X590902Y371768D01*
X589520Y371950D01*
D02*
G37*
G36*
X471570D02*
Y355520D01*
X480548D01*
Y361870D01*
X480199Y364522D01*
X479175Y366994D01*
X477546Y369116D01*
X475424Y370745D01*
X472952Y371768D01*
X471570Y371950D01*
D02*
G37*
G36*
X353620D02*
Y355520D01*
X362598D01*
Y361870D01*
X362248Y364522D01*
X361225Y366994D01*
X359596Y369116D01*
X357474Y370745D01*
X355002Y371768D01*
X353620Y371950D01*
D02*
G37*
G36*
X235670D02*
Y355520D01*
X244648D01*
Y361870D01*
X244298Y364522D01*
X243275Y366994D01*
X241646Y369116D01*
X239524Y370745D01*
X237052Y371768D01*
X235670Y371950D01*
D02*
G37*
G36*
X822880Y371950D02*
X821498Y371768D01*
X819026Y370745D01*
X816904Y369116D01*
X815275Y366994D01*
X814251Y364522D01*
X813902Y361870D01*
Y355520D01*
X822880D01*
Y371950D01*
D02*
G37*
G36*
X704930D02*
X703548Y371768D01*
X701076Y370745D01*
X698954Y369116D01*
X697325Y366994D01*
X696301Y364522D01*
X695952Y361870D01*
Y355520D01*
X704930D01*
Y371950D01*
D02*
G37*
G36*
X586980D02*
X585598Y371768D01*
X583126Y370745D01*
X581004Y369116D01*
X579375Y366994D01*
X578351Y364522D01*
X578002Y361870D01*
Y355520D01*
X586980D01*
Y371950D01*
D02*
G37*
G36*
X469030D02*
X467648Y371768D01*
X465176Y370745D01*
X463054Y369116D01*
X461425Y366994D01*
X460401Y364522D01*
X460052Y361870D01*
Y355520D01*
X469030D01*
Y371950D01*
D02*
G37*
G36*
X351080D02*
X349698Y371768D01*
X347226Y370745D01*
X345104Y369116D01*
X343475Y366994D01*
X342452Y364522D01*
X342102Y361870D01*
Y355520D01*
X351080D01*
Y371950D01*
D02*
G37*
G36*
X233130D02*
X231748Y371768D01*
X229276Y370745D01*
X227154Y369116D01*
X225525Y366994D01*
X224501Y364522D01*
X224152Y361870D01*
Y355520D01*
X233130D01*
Y371950D01*
D02*
G37*
G36*
X782970Y371490D02*
X763730D01*
Y337010D01*
X782970D01*
Y371490D01*
D02*
G37*
G36*
X665020D02*
X645780D01*
Y337010D01*
X665020D01*
Y371490D01*
D02*
G37*
G36*
X547070D02*
X527830D01*
Y337010D01*
X547070D01*
Y371490D01*
D02*
G37*
G36*
X429120D02*
X409880D01*
Y337010D01*
X429120D01*
Y371490D01*
D02*
G37*
G36*
X311170D02*
X291930D01*
Y337010D01*
X311170D01*
Y371490D01*
D02*
G37*
G36*
X193220D02*
X173980D01*
Y337010D01*
X193220D01*
Y371490D01*
D02*
G37*
G36*
X822880Y352980D02*
X813902D01*
Y346630D01*
X814251Y343978D01*
X815275Y341506D01*
X816904Y339384D01*
X819026Y337755D01*
X821498Y336731D01*
X822880Y336549D01*
Y352980D01*
D02*
G37*
G36*
X704930D02*
X695952D01*
Y346630D01*
X696301Y343978D01*
X697325Y341506D01*
X698954Y339384D01*
X701076Y337755D01*
X703548Y336731D01*
X704930Y336549D01*
Y352980D01*
D02*
G37*
G36*
X586980D02*
X578002D01*
Y346630D01*
X578351Y343978D01*
X579375Y341506D01*
X581004Y339384D01*
X583126Y337755D01*
X585598Y336731D01*
X586980Y336549D01*
Y352980D01*
D02*
G37*
G36*
X469030D02*
X460052D01*
Y346630D01*
X460401Y343978D01*
X461425Y341506D01*
X463054Y339384D01*
X465176Y337755D01*
X467648Y336731D01*
X469030Y336549D01*
Y352980D01*
D02*
G37*
G36*
X351080D02*
X342102D01*
Y346630D01*
X342452Y343978D01*
X343475Y341506D01*
X345104Y339384D01*
X347226Y337755D01*
X349698Y336731D01*
X351080Y336549D01*
Y352980D01*
D02*
G37*
G36*
X233130D02*
X224152D01*
Y346630D01*
X224501Y343978D01*
X225525Y341506D01*
X227154Y339384D01*
X229276Y337755D01*
X231748Y336731D01*
X233130Y336549D01*
Y352980D01*
D02*
G37*
G36*
X834398D02*
X825420D01*
Y336549D01*
X826802Y336731D01*
X829274Y337755D01*
X831396Y339384D01*
X833025Y341506D01*
X834048Y343978D01*
X834398Y346630D01*
Y352980D01*
D02*
G37*
G36*
X716448D02*
X707470D01*
Y336549D01*
X708852Y336731D01*
X711324Y337755D01*
X713446Y339384D01*
X715075Y341506D01*
X716098Y343978D01*
X716448Y346630D01*
Y352980D01*
D02*
G37*
G36*
X598498D02*
X589520D01*
Y336549D01*
X590902Y336731D01*
X593374Y337755D01*
X595496Y339384D01*
X597125Y341506D01*
X598148Y343978D01*
X598498Y346630D01*
Y352980D01*
D02*
G37*
G36*
X480548D02*
X471570D01*
Y336549D01*
X472952Y336731D01*
X475424Y337755D01*
X477546Y339384D01*
X479175Y341506D01*
X480199Y343978D01*
X480548Y346630D01*
Y352980D01*
D02*
G37*
G36*
X362598D02*
X353620D01*
Y336549D01*
X355002Y336731D01*
X357474Y337755D01*
X359596Y339384D01*
X361225Y341506D01*
X362248Y343978D01*
X362598Y346630D01*
Y352980D01*
D02*
G37*
G36*
X244648D02*
X235670D01*
Y336549D01*
X237052Y336731D01*
X239524Y337755D01*
X241646Y339384D01*
X243275Y341506D01*
X244298Y343978D01*
X244648Y346630D01*
Y352980D01*
D02*
G37*
G36*
X680800Y371573D02*
X678289Y371242D01*
X675948Y370273D01*
X673939Y368731D01*
X672397Y366721D01*
X671428Y364381D01*
X671097Y361870D01*
Y361317D01*
X670318Y360302D01*
X669109Y357383D01*
X668696Y354250D01*
Y309063D01*
X619381Y259748D01*
X619372Y259757D01*
X615549Y255280D01*
X612473Y250261D01*
X610220Y244822D01*
X608846Y239098D01*
X608384Y233229D01*
X608396D01*
Y155763D01*
X598131Y145498D01*
X598122Y145506D01*
X594299Y141030D01*
X591223Y136011D01*
X588970Y130572D01*
X587596Y124848D01*
X587134Y118979D01*
X587146D01*
Y80250D01*
X587497Y77584D01*
Y70598D01*
X587898Y67556D01*
X589072Y64722D01*
X590940Y62288D01*
X593374Y60420D01*
X596208Y59246D01*
X599250Y58846D01*
X602292Y59246D01*
X605126Y60420D01*
X607560Y62288D01*
X609428Y64722D01*
X610602Y67556D01*
X611003Y70598D01*
Y77584D01*
X611353Y80250D01*
Y118979D01*
X611308Y119325D01*
X611719Y122444D01*
X613056Y125673D01*
X614971Y128169D01*
X615248Y128381D01*
X629058Y142191D01*
X630982Y144698D01*
X632191Y147617D01*
X632604Y150750D01*
Y233229D01*
X632558Y233575D01*
X632969Y236694D01*
X634306Y239923D01*
X636221Y242419D01*
X636498Y242631D01*
X689059Y295191D01*
X689065Y295185D01*
X691152Y297906D01*
X692465Y301074D01*
X692912Y304474D01*
X692904D01*
Y354250D01*
X692491Y357383D01*
X691282Y360302D01*
X690503Y361317D01*
Y361870D01*
X690172Y364381D01*
X689203Y366721D01*
X687661Y368731D01*
X685651Y370273D01*
X683311Y371242D01*
X680800Y371573D01*
D02*
G37*
G36*
X798750D02*
X796239Y371242D01*
X793898Y370273D01*
X791889Y368731D01*
X790347Y366721D01*
X789378Y364381D01*
X789047Y361870D01*
Y361317D01*
X788268Y360302D01*
X787059Y357383D01*
X786646Y354250D01*
Y323674D01*
X786682Y323402D01*
X786286Y321412D01*
X785160Y319726D01*
X784941Y319559D01*
X738131Y272748D01*
X738122Y272757D01*
X734299Y268280D01*
X731223Y263261D01*
X728970Y257822D01*
X727596Y252098D01*
X727134Y246229D01*
X727147D01*
Y170014D01*
X668131Y110998D01*
X668122Y111006D01*
X664299Y106530D01*
X661223Y101511D01*
X658970Y96072D01*
X658663Y94791D01*
X657898Y92944D01*
X657497Y89902D01*
Y89093D01*
X657134Y84479D01*
X657146D01*
Y80250D01*
X657497Y77584D01*
Y70598D01*
X657898Y67556D01*
X659072Y64722D01*
X660940Y62288D01*
X663374Y60420D01*
X666208Y59246D01*
X669250Y58846D01*
X672292Y59246D01*
X675126Y60420D01*
X677560Y62288D01*
X679428Y64722D01*
X680602Y67556D01*
X681003Y70598D01*
Y77583D01*
X681354Y80250D01*
Y84479D01*
X681308Y84825D01*
X681719Y87944D01*
X683056Y91173D01*
X684971Y93669D01*
X685248Y93881D01*
X747809Y156441D01*
X749732Y158948D01*
X750941Y161867D01*
X751354Y165000D01*
Y246229D01*
X751308Y246575D01*
X751719Y249694D01*
X753056Y252923D01*
X754971Y255419D01*
X755248Y255631D01*
X802058Y302442D01*
X802186Y302608D01*
X805110Y306031D01*
X807571Y310047D01*
X809373Y314399D01*
X810473Y318979D01*
X810826Y323466D01*
X810853Y323674D01*
Y354250D01*
X810441Y357383D01*
X809232Y360302D01*
X808453Y361317D01*
Y361870D01*
X808122Y364381D01*
X807153Y366721D01*
X805611Y368731D01*
X803601Y370273D01*
X801261Y371242D01*
X798750Y371573D01*
D02*
G37*
G36*
X562850D02*
X560339Y371242D01*
X557998Y370273D01*
X555989Y368731D01*
X554447Y366721D01*
X553478Y364381D01*
X553147Y361870D01*
Y361317D01*
X552368Y360302D01*
X551159Y357383D01*
X550746Y354250D01*
X551159Y351117D01*
X551896Y349337D01*
Y295763D01*
X528131Y271998D01*
X528122Y272006D01*
X524299Y267530D01*
X521223Y262511D01*
X518970Y257072D01*
X517596Y251348D01*
X517134Y245479D01*
X517146D01*
Y80250D01*
X517497Y77584D01*
Y70598D01*
X517898Y67556D01*
X519072Y64722D01*
X520940Y62288D01*
X523374Y60420D01*
X526208Y59246D01*
X529250Y58846D01*
X532292Y59246D01*
X535126Y60420D01*
X537560Y62288D01*
X539428Y64722D01*
X540602Y67556D01*
X541003Y70598D01*
Y77584D01*
X541354Y80250D01*
Y245479D01*
X541308Y245825D01*
X541719Y248944D01*
X543056Y252173D01*
X544971Y254669D01*
X545248Y254881D01*
X572559Y282192D01*
X574482Y284698D01*
X575691Y287617D01*
X576104Y290750D01*
Y351474D01*
X575998Y352272D01*
X575770Y354596D01*
X574859Y357598D01*
X573380Y360365D01*
X572553Y361372D01*
Y361870D01*
X572222Y364381D01*
X571253Y366721D01*
X569711Y368731D01*
X567701Y370273D01*
X565361Y371242D01*
X562850Y371573D01*
D02*
G37*
G36*
X103520Y219205D02*
Y211020D01*
X111705D01*
X111545Y212241D01*
X110583Y214561D01*
X109054Y216554D01*
X107061Y218083D01*
X104740Y219044D01*
X103520Y219205D01*
D02*
G37*
G36*
X100980D02*
X99760Y219044D01*
X97439Y218083D01*
X95446Y216554D01*
X93917Y214561D01*
X92956Y212241D01*
X92795Y211020D01*
X100980D01*
Y219205D01*
D02*
G37*
G36*
X61250Y218750D02*
X43250D01*
Y200750D01*
X61250D01*
Y218750D01*
D02*
G37*
G36*
X111705Y208480D02*
X103520D01*
Y200295D01*
X104740Y200456D01*
X107061Y201417D01*
X109054Y202946D01*
X110583Y204939D01*
X111545Y207260D01*
X111705Y208480D01*
D02*
G37*
G36*
X100980D02*
X92795D01*
X92956Y207260D01*
X93917Y204939D01*
X95446Y202946D01*
X97439Y201417D01*
X99760Y200456D01*
X100980Y200295D01*
Y208480D01*
D02*
G37*
G36*
X798750Y189711D02*
X795246Y189366D01*
X791876Y188344D01*
X788771Y186684D01*
X786049Y184451D01*
X783816Y181729D01*
X782156Y178624D01*
X781133Y175254D01*
X780788Y171750D01*
X781133Y168246D01*
X782156Y164876D01*
X783816Y161771D01*
X786049Y159049D01*
X788771Y156816D01*
X791876Y155156D01*
X795246Y154134D01*
X798750Y153788D01*
X802254Y154134D01*
X805623Y155156D01*
X808729Y156816D01*
X811451Y159049D01*
X813684Y161771D01*
X815344Y164876D01*
X816366Y168246D01*
X816711Y171750D01*
X816366Y175254D01*
X815344Y178624D01*
X813684Y181729D01*
X811451Y184451D01*
X808729Y186684D01*
X805623Y188344D01*
X802254Y189366D01*
X798750Y189711D01*
D02*
G37*
G36*
X680800D02*
X677296Y189366D01*
X673926Y188344D01*
X670821Y186684D01*
X668099Y184451D01*
X665865Y181729D01*
X664206Y178624D01*
X663184Y175254D01*
X662838Y171750D01*
X663184Y168246D01*
X664206Y164876D01*
X665865Y161771D01*
X668099Y159049D01*
X670821Y156816D01*
X673926Y155156D01*
X677296Y154134D01*
X680800Y153788D01*
X684304Y154134D01*
X687673Y155156D01*
X690779Y156816D01*
X693501Y159049D01*
X695734Y161771D01*
X697394Y164876D01*
X698416Y168246D01*
X698761Y171750D01*
X698416Y175254D01*
X697394Y178624D01*
X695734Y181729D01*
X693501Y184451D01*
X690779Y186684D01*
X687673Y188344D01*
X684304Y189366D01*
X680800Y189711D01*
D02*
G37*
G36*
X562850D02*
X559346Y189366D01*
X555976Y188344D01*
X552871Y186684D01*
X550149Y184451D01*
X547915Y181729D01*
X546256Y178624D01*
X545234Y175254D01*
X544888Y171750D01*
X545234Y168246D01*
X546256Y164876D01*
X547915Y161771D01*
X550149Y159049D01*
X552871Y156816D01*
X555976Y155156D01*
X559346Y154134D01*
X562850Y153788D01*
X566354Y154134D01*
X569724Y155156D01*
X572829Y156816D01*
X575551Y159049D01*
X577784Y161771D01*
X579444Y164876D01*
X580466Y168246D01*
X580811Y171750D01*
X580466Y175254D01*
X579444Y178624D01*
X577784Y181729D01*
X575551Y184451D01*
X572829Y186684D01*
X569724Y188344D01*
X566354Y189366D01*
X562850Y189711D01*
D02*
G37*
G36*
X444900D02*
X441396Y189366D01*
X438026Y188344D01*
X434921Y186684D01*
X432199Y184451D01*
X429966Y181729D01*
X428306Y178624D01*
X427284Y175254D01*
X426939Y171750D01*
X427284Y168246D01*
X428306Y164876D01*
X429966Y161771D01*
X432199Y159049D01*
X434921Y156816D01*
X438026Y155156D01*
X441396Y154134D01*
X444900Y153788D01*
X448404Y154134D01*
X451773Y155156D01*
X454879Y156816D01*
X457601Y159049D01*
X459834Y161771D01*
X461494Y164876D01*
X462516Y168246D01*
X462861Y171750D01*
X462516Y175254D01*
X461494Y178624D01*
X459834Y181729D01*
X457601Y184451D01*
X454879Y186684D01*
X451773Y188344D01*
X448404Y189366D01*
X444900Y189711D01*
D02*
G37*
G36*
X326950D02*
X323446Y189366D01*
X320076Y188344D01*
X316971Y186684D01*
X314249Y184451D01*
X312015Y181729D01*
X310356Y178624D01*
X309334Y175254D01*
X308988Y171750D01*
X309334Y168246D01*
X310356Y164876D01*
X312015Y161771D01*
X314249Y159049D01*
X316971Y156816D01*
X320076Y155156D01*
X323446Y154134D01*
X326950Y153788D01*
X330454Y154134D01*
X333824Y155156D01*
X336929Y156816D01*
X339651Y159049D01*
X341884Y161771D01*
X343544Y164876D01*
X344566Y168246D01*
X344911Y171750D01*
X344566Y175254D01*
X343544Y178624D01*
X341884Y181729D01*
X339651Y184451D01*
X336929Y186684D01*
X333824Y188344D01*
X330454Y189366D01*
X326950Y189711D01*
D02*
G37*
G36*
X209000D02*
X205496Y189366D01*
X202126Y188344D01*
X199021Y186684D01*
X196299Y184451D01*
X194066Y181729D01*
X192406Y178624D01*
X191384Y175254D01*
X191038Y171750D01*
X191384Y168246D01*
X192406Y164876D01*
X194066Y161771D01*
X196299Y159049D01*
X199021Y156816D01*
X202126Y155156D01*
X205496Y154134D01*
X209000Y153788D01*
X212504Y154134D01*
X215874Y155156D01*
X218979Y156816D01*
X221701Y159049D01*
X223934Y161771D01*
X225594Y164876D01*
X226616Y168246D01*
X226961Y171750D01*
X226616Y175254D01*
X225594Y178624D01*
X223934Y181729D01*
X221701Y184451D01*
X218979Y186684D01*
X215874Y188344D01*
X212504Y189366D01*
X209000Y189711D01*
D02*
G37*
G36*
X444900Y371573D02*
X442389Y371242D01*
X440048Y370273D01*
X438039Y368731D01*
X436497Y366721D01*
X435528Y364381D01*
X435197Y361870D01*
Y361317D01*
X434418Y360302D01*
X433209Y357383D01*
X432796Y354250D01*
Y294891D01*
X432788D01*
X433236Y289204D01*
X434567Y283657D01*
X436750Y278387D01*
X439731Y273523D01*
X443436Y269186D01*
X443442Y269191D01*
X475502Y237131D01*
X475779Y236919D01*
X477694Y234423D01*
X479031Y231194D01*
X479442Y228075D01*
X479397Y227729D01*
Y147513D01*
X458131Y126248D01*
X458122Y126257D01*
X454299Y121780D01*
X451223Y116761D01*
X448970Y111322D01*
X447596Y105598D01*
X447134Y99729D01*
X447146D01*
Y80250D01*
X447497Y77584D01*
Y70598D01*
X447898Y67556D01*
X449072Y64722D01*
X450940Y62288D01*
X453374Y60420D01*
X456208Y59246D01*
X459250Y58846D01*
X462292Y59246D01*
X465126Y60420D01*
X467560Y62288D01*
X469428Y64722D01*
X470602Y67556D01*
X471003Y70598D01*
Y77583D01*
X471354Y80250D01*
Y99729D01*
X471308Y100075D01*
X471719Y103194D01*
X473056Y106423D01*
X474971Y108919D01*
X475248Y109131D01*
X500059Y133941D01*
X501982Y136448D01*
X503191Y139367D01*
X503604Y142500D01*
Y227729D01*
X503616D01*
X503154Y233598D01*
X501780Y239322D01*
X499527Y244761D01*
X496451Y249780D01*
X492628Y254256D01*
X492619Y254248D01*
X460559Y286308D01*
X460312Y286498D01*
X458559Y288782D01*
X457339Y291729D01*
X456963Y294583D01*
X457004Y294891D01*
Y354250D01*
X456591Y357383D01*
X455382Y360302D01*
X454603Y361317D01*
Y361870D01*
X454272Y364381D01*
X453303Y366721D01*
X451761Y368731D01*
X449751Y370273D01*
X447411Y371242D01*
X444900Y371573D01*
D02*
G37*
G36*
X774250Y101655D02*
X771208Y101254D01*
X768374Y100080D01*
X765940Y98212D01*
X764072Y95778D01*
X762898Y92944D01*
X762895Y92923D01*
X762171Y92329D01*
X760047Y89740D01*
X758468Y86787D01*
X757496Y83583D01*
X757388Y82487D01*
X756112D01*
X756004Y83583D01*
X755032Y86787D01*
X753453Y89740D01*
X751329Y92329D01*
X750605Y92923D01*
X750602Y92944D01*
X749428Y95778D01*
X747560Y98212D01*
X745126Y100080D01*
X742292Y101254D01*
X739250Y101655D01*
X736208Y101254D01*
X733374Y100080D01*
X730940Y98212D01*
X729072Y95778D01*
X727898Y92944D01*
X727895Y92923D01*
X727171Y92329D01*
X725047Y89740D01*
X723468Y86787D01*
X722496Y83583D01*
X722388Y82487D01*
X721112D01*
X721004Y83583D01*
X720032Y86787D01*
X718453Y89740D01*
X716329Y92329D01*
X715605Y92923D01*
X715602Y92944D01*
X714428Y95778D01*
X712560Y98212D01*
X710126Y100080D01*
X707292Y101254D01*
X704250Y101655D01*
X701208Y101254D01*
X698374Y100080D01*
X695940Y98212D01*
X694072Y95778D01*
X692898Y92944D01*
X692895Y92923D01*
X692171Y92329D01*
X690047Y89740D01*
X688468Y86787D01*
X687496Y83583D01*
X687168Y80250D01*
Y47082D01*
X651332D01*
Y80250D01*
X651004Y83583D01*
X650032Y86787D01*
X648453Y89740D01*
X646329Y92329D01*
X645605Y92923D01*
X645602Y92944D01*
X644428Y95778D01*
X642560Y98212D01*
X640126Y100080D01*
X637292Y101254D01*
X634250Y101655D01*
X631208Y101254D01*
X628374Y100080D01*
X625940Y98212D01*
X624072Y95778D01*
X622898Y92944D01*
X622895Y92923D01*
X622171Y92329D01*
X620047Y89740D01*
X618468Y86787D01*
X617496Y83583D01*
X617168Y80250D01*
Y47082D01*
X581332D01*
Y80250D01*
X581004Y83583D01*
X580032Y86787D01*
X578453Y89740D01*
X576329Y92329D01*
X575605Y92923D01*
X575602Y92944D01*
X574428Y95778D01*
X572560Y98212D01*
X570126Y100080D01*
X567292Y101254D01*
X564250Y101655D01*
X561208Y101254D01*
X558374Y100080D01*
X555940Y98212D01*
X554072Y95778D01*
X552898Y92944D01*
X552895Y92923D01*
X552171Y92329D01*
X550047Y89740D01*
X548468Y86787D01*
X547496Y83583D01*
X547168Y80250D01*
Y47082D01*
X511332D01*
Y80250D01*
X511004Y83583D01*
X510032Y86787D01*
X508453Y89740D01*
X506329Y92329D01*
X505605Y92923D01*
X505602Y92944D01*
X504428Y95778D01*
X502560Y98212D01*
X500126Y100080D01*
X497292Y101254D01*
X494250Y101655D01*
X491208Y101254D01*
X488374Y100080D01*
X485940Y98212D01*
X484072Y95778D01*
X482898Y92944D01*
X482895Y92923D01*
X482171Y92329D01*
X480047Y89740D01*
X478468Y86787D01*
X477496Y83583D01*
X477168Y80250D01*
Y47082D01*
X441332D01*
Y80250D01*
X441004Y83583D01*
X440032Y86787D01*
X438453Y89740D01*
X436329Y92329D01*
X435605Y92923D01*
X435602Y92944D01*
X434428Y95778D01*
X432560Y98212D01*
X430126Y100080D01*
X427292Y101254D01*
X424250Y101655D01*
X421208Y101254D01*
X418374Y100080D01*
X415940Y98212D01*
X414072Y95778D01*
X412898Y92944D01*
X412895Y92923D01*
X412171Y92329D01*
X410047Y89740D01*
X408468Y86787D01*
X407496Y83583D01*
X407168Y80250D01*
Y47082D01*
X379271D01*
X379155Y47071D01*
X377111Y47340D01*
X375099Y48173D01*
X373463Y49429D01*
X373390Y49518D01*
X371332Y51576D01*
Y80250D01*
X371004Y83583D01*
X370032Y86787D01*
X368453Y89740D01*
X366329Y92329D01*
X365605Y92923D01*
X365602Y92944D01*
X364428Y95778D01*
X362560Y98212D01*
X360126Y100080D01*
X357292Y101254D01*
X354250Y101655D01*
X351208Y101254D01*
X348374Y100080D01*
X345940Y98212D01*
X344072Y95778D01*
X342898Y92944D01*
X342895Y92923D01*
X342171Y92329D01*
X340047Y89740D01*
X338468Y86787D01*
X337496Y83583D01*
X337168Y80250D01*
Y49450D01*
X337160D01*
X337518Y44907D01*
X338582Y40476D01*
X340326Y36266D01*
X342706Y32381D01*
X345666Y28916D01*
X345671Y28921D01*
X349232Y25361D01*
X349225Y25354D01*
X353404Y21690D01*
X358026Y18602D01*
X363010Y16143D01*
X368274Y14357D01*
X373725Y13273D01*
X379271Y12909D01*
Y12918D01*
X751250D01*
X754583Y13246D01*
X757787Y14218D01*
X760740Y15797D01*
X763329Y17921D01*
X778889Y33482D01*
X778896Y33475D01*
X782560Y37654D01*
X785648Y42276D01*
X788107Y47260D01*
X789893Y52523D01*
X790977Y57975D01*
X791341Y63521D01*
X791332D01*
Y80250D01*
X791004Y83583D01*
X790032Y86787D01*
X788453Y89740D01*
X786329Y92329D01*
X785605Y92923D01*
X785602Y92944D01*
X784428Y95778D01*
X782560Y98212D01*
X780126Y100080D01*
X777292Y101254D01*
X774250Y101655D01*
D02*
G37*
G36*
X59520Y102032D02*
Y81520D01*
X70547D01*
Y89902D01*
X70128Y93085D01*
X68900Y96051D01*
X66945Y98597D01*
X64399Y100552D01*
X61433Y101780D01*
X59520Y102032D01*
D02*
G37*
G36*
X285520D02*
Y81520D01*
X296547D01*
Y89902D01*
X296128Y93085D01*
X294900Y96051D01*
X292945Y98597D01*
X290399Y100552D01*
X287433Y101780D01*
X285520Y102032D01*
D02*
G37*
G36*
X56980D02*
X55067Y101780D01*
X52101Y100552D01*
X49555Y98597D01*
X47600Y96051D01*
X46372Y93085D01*
X45953Y89902D01*
Y81520D01*
X56980D01*
Y102032D01*
D02*
G37*
G36*
X282980D02*
X281067Y101780D01*
X278101Y100552D01*
X275555Y98597D01*
X273600Y96051D01*
X272372Y93085D01*
X271953Y89902D01*
Y81520D01*
X282980D01*
Y102032D01*
D02*
G37*
G36*
X250520D02*
Y81520D01*
X261547D01*
Y89902D01*
X261128Y93085D01*
X259900Y96051D01*
X257945Y98597D01*
X255399Y100552D01*
X252433Y101780D01*
X250520Y102032D01*
D02*
G37*
G36*
X247980D02*
X246067Y101780D01*
X243101Y100552D01*
X240555Y98597D01*
X238600Y96051D01*
X237372Y93085D01*
X236953Y89902D01*
Y81520D01*
X247980D01*
Y102032D01*
D02*
G37*
G36*
X326950Y371573D02*
X324439Y371242D01*
X322099Y370273D01*
X320089Y368731D01*
X318547Y366721D01*
X317578Y364381D01*
X317247Y361870D01*
Y361317D01*
X316468Y360302D01*
X315259Y357383D01*
X314846Y354250D01*
Y284071D01*
X314834D01*
X315296Y278202D01*
X316670Y272478D01*
X318923Y267039D01*
X321999Y262020D01*
X325822Y257544D01*
X325831Y257552D01*
X373252Y210131D01*
X373529Y209919D01*
X375444Y207423D01*
X376781Y204194D01*
X377192Y201075D01*
X377146Y200729D01*
Y80250D01*
X377497Y77584D01*
Y70598D01*
X377898Y67556D01*
X379072Y64722D01*
X380940Y62288D01*
X383374Y60420D01*
X386208Y59246D01*
X389250Y58846D01*
X392292Y59246D01*
X395126Y60420D01*
X397560Y62288D01*
X399428Y64722D01*
X400602Y67556D01*
X401003Y70598D01*
Y77584D01*
X401354Y80250D01*
Y200729D01*
X401366D01*
X400904Y206598D01*
X399529Y212322D01*
X397277Y217761D01*
X394201Y222780D01*
X390378Y227257D01*
X390369Y227248D01*
X342948Y274669D01*
X342671Y274881D01*
X340756Y277377D01*
X339419Y280606D01*
X339008Y283725D01*
X339053Y284071D01*
Y354250D01*
X338641Y357383D01*
X337432Y360302D01*
X336653Y361317D01*
Y361870D01*
X336322Y364381D01*
X335353Y366721D01*
X333811Y368731D01*
X331801Y370273D01*
X329461Y371242D01*
X326950Y371573D01*
D02*
G37*
G36*
X209000D02*
X206489Y371242D01*
X204149Y370273D01*
X202139Y368731D01*
X200597Y366721D01*
X199628Y364381D01*
X199297Y361870D01*
Y361317D01*
X198518Y360302D01*
X197309Y357383D01*
X196896Y354250D01*
Y308021D01*
X196884D01*
X197346Y302152D01*
X198720Y296428D01*
X200973Y290989D01*
X204049Y285970D01*
X207872Y281493D01*
X207881Y281502D01*
X254396Y234987D01*
Y164271D01*
X254384D01*
X254846Y158402D01*
X256220Y152678D01*
X258473Y147239D01*
X261549Y142220D01*
X265372Y137744D01*
X265381Y137752D01*
X303252Y99881D01*
X303529Y99669D01*
X305444Y97173D01*
X306781Y93944D01*
X307192Y90825D01*
X307146Y90479D01*
Y80250D01*
X307498Y77584D01*
Y70598D01*
X307898Y67556D01*
X309072Y64722D01*
X310940Y62288D01*
X313374Y60420D01*
X316208Y59246D01*
X319250Y58846D01*
X322292Y59246D01*
X325126Y60420D01*
X327560Y62288D01*
X329428Y64722D01*
X330602Y67556D01*
X331003Y70598D01*
Y77584D01*
X331354Y80250D01*
Y90479D01*
X331366D01*
X330904Y96348D01*
X329529Y102072D01*
X327277Y107511D01*
X324201Y112530D01*
X320378Y117007D01*
X320369Y116998D01*
X282498Y154869D01*
X282221Y155081D01*
X280306Y157577D01*
X278969Y160806D01*
X278558Y163925D01*
X278604Y164271D01*
Y240000D01*
X278191Y243133D01*
X276982Y246052D01*
X275058Y248559D01*
X224998Y298619D01*
X224721Y298831D01*
X222806Y301327D01*
X221469Y304556D01*
X221058Y307675D01*
X221103Y308021D01*
Y354250D01*
X220691Y357383D01*
X219482Y360302D01*
X218703Y361317D01*
Y361870D01*
X218372Y364381D01*
X217403Y366721D01*
X215861Y368731D01*
X213852Y370273D01*
X211511Y371242D01*
X209000Y371573D01*
D02*
G37*
G36*
X93250Y101655D02*
X90208Y101254D01*
X87374Y100080D01*
X84940Y98212D01*
X83072Y95778D01*
X81898Y92944D01*
X81497Y89902D01*
Y70598D01*
X81898Y67556D01*
X83072Y64722D01*
X84940Y62288D01*
X87374Y60420D01*
X90208Y59246D01*
X93250Y58846D01*
X96292Y59246D01*
X99126Y60420D01*
X101560Y62288D01*
X103428Y64722D01*
X104602Y67556D01*
X105002Y70598D01*
Y89902D01*
X104602Y92944D01*
X103428Y95778D01*
X101560Y98212D01*
X99126Y100080D01*
X96292Y101254D01*
X93250Y101655D01*
D02*
G37*
G36*
X261547Y78980D02*
X250520D01*
Y58468D01*
X252433Y58720D01*
X255399Y59948D01*
X257945Y61903D01*
X259900Y64449D01*
X261128Y67415D01*
X261547Y70598D01*
Y78980D01*
D02*
G37*
G36*
X296547Y78980D02*
X285520D01*
Y58468D01*
X287433Y58720D01*
X290399Y59948D01*
X292945Y61903D01*
X294900Y64449D01*
X296128Y67415D01*
X296547Y70598D01*
Y78980D01*
D02*
G37*
G36*
X70547D02*
X59520D01*
Y58468D01*
X61433Y58720D01*
X64399Y59948D01*
X66945Y61903D01*
X68900Y64449D01*
X70128Y67415D01*
X70547Y70598D01*
Y78980D01*
D02*
G37*
G36*
X282980D02*
X271953D01*
Y70598D01*
X272372Y67415D01*
X273600Y64449D01*
X275555Y61903D01*
X278101Y59948D01*
X281067Y58720D01*
X282980Y58468D01*
Y78980D01*
D02*
G37*
G36*
X56980D02*
X45953D01*
Y70598D01*
X46372Y67415D01*
X47600Y64449D01*
X49555Y61903D01*
X52101Y59948D01*
X55067Y58720D01*
X56980Y58468D01*
Y78980D01*
D02*
G37*
G36*
X247980Y78980D02*
X236953D01*
Y70598D01*
X237372Y67415D01*
X238600Y64449D01*
X240555Y61903D01*
X243101Y59948D01*
X246067Y58720D01*
X247980Y58468D01*
Y78980D01*
D02*
G37*
%LPD*%
G36*
X569430Y967102D02*
X569157Y966823D01*
X568512Y966081D01*
X568354Y965867D01*
X568226Y965668D01*
X568126Y965486D01*
X568055Y965319D01*
X568013Y965169D01*
X568000Y965035D01*
X564535Y968500D01*
X564669Y968513D01*
X564819Y968555D01*
X564986Y968626D01*
X565168Y968726D01*
X565367Y968854D01*
X565582Y969012D01*
X566059Y969413D01*
X566602Y969930D01*
X569430Y967102D01*
D02*
G37*
G36*
X562001Y962550D02*
X561896Y962635D01*
X561760Y962712D01*
X561593Y962779D01*
X561393Y962838D01*
X561162Y962887D01*
X560899Y962928D01*
X560277Y962982D01*
X559528Y963000D01*
Y967000D01*
X559918Y967004D01*
X560899Y967072D01*
X561162Y967113D01*
X561393Y967162D01*
X561593Y967221D01*
X561760Y967288D01*
X561896Y967365D01*
X562001Y967450D01*
Y962550D01*
D02*
G37*
G36*
X650042Y965076D02*
X650555Y964628D01*
X650790Y964451D01*
X651010Y964305D01*
X651216Y964190D01*
X651407Y964106D01*
X651583Y964053D01*
X651745Y964031D01*
X651891Y964040D01*
X649042Y960054D01*
X649015Y960149D01*
X648960Y960264D01*
X648877Y960401D01*
X648766Y960558D01*
X648462Y960934D01*
X648045Y961393D01*
X647518Y961935D01*
X649763Y965347D01*
X650042Y965076D01*
D02*
G37*
G36*
X655104Y962958D02*
X655240Y962881D01*
X655407Y962814D01*
X655607Y962755D01*
X655838Y962706D01*
X656101Y962665D01*
X656723Y962611D01*
X657472Y962593D01*
Y958593D01*
X657082Y958589D01*
X656101Y958521D01*
X655838Y958481D01*
X655607Y958431D01*
X655407Y958373D01*
X655240Y958305D01*
X655104Y958229D01*
X654999Y958143D01*
Y963043D01*
X655104Y962958D01*
D02*
G37*
G36*
X572715Y953750D02*
X572581Y953737D01*
X572431Y953695D01*
X572264Y953624D01*
X572082Y953524D01*
X571883Y953396D01*
X571669Y953238D01*
X571191Y952837D01*
X570648Y952320D01*
X567820Y955148D01*
X568093Y955427D01*
X568738Y956169D01*
X568896Y956383D01*
X569024Y956582D01*
X569124Y956764D01*
X569195Y956931D01*
X569237Y957081D01*
X569250Y957215D01*
X572715Y953750D01*
D02*
G37*
G36*
X636574Y953327D02*
X637321Y952692D01*
X637539Y952541D01*
X637743Y952420D01*
X637932Y952328D01*
X638105Y952266D01*
X638264Y952235D01*
X638408Y952233D01*
X635261Y948477D01*
X635238Y948595D01*
X635188Y948730D01*
X635109Y948883D01*
X635002Y949055D01*
X634868Y949244D01*
X634514Y949678D01*
X634048Y950184D01*
X633773Y950464D01*
X636296Y953598D01*
X636574Y953327D01*
D02*
G37*
G36*
X641354Y951115D02*
X641490Y951038D01*
X641657Y950971D01*
X641857Y950912D01*
X642088Y950863D01*
X642351Y950822D01*
X642973Y950768D01*
X643722Y950750D01*
Y946750D01*
X643332Y946746D01*
X642351Y946678D01*
X642088Y946637D01*
X641857Y946588D01*
X641657Y946529D01*
X641490Y946462D01*
X641354Y946385D01*
X641249Y946300D01*
Y951200D01*
X641354Y951115D01*
D02*
G37*
G36*
X621180Y894163D02*
X620953Y893918D01*
X620750Y893664D01*
X620571Y893401D01*
X620417Y893128D01*
X620287Y892845D01*
X620181Y892552D01*
X620099Y892250D01*
X620042Y891938D01*
X620009Y891616D01*
X620000Y891285D01*
X616535Y894750D01*
X616866Y894759D01*
X617188Y894792D01*
X617500Y894849D01*
X617802Y894931D01*
X618095Y895037D01*
X618377Y895167D01*
X618651Y895321D01*
X618914Y895500D01*
X619168Y895703D01*
X619413Y895930D01*
X621180Y894163D01*
D02*
G37*
G36*
X684725Y888523D02*
X684459Y888510D01*
X684194Y888472D01*
X683930Y888407D01*
X683667Y888316D01*
X683404Y888200D01*
X683142Y888058D01*
X682880Y887889D01*
X682620Y887695D01*
X682360Y887475D01*
X682101Y887229D01*
X679958Y889329D01*
X680203Y889588D01*
X680423Y889849D01*
X680616Y890109D01*
X680783Y890371D01*
X680923Y890633D01*
X681037Y890896D01*
X681124Y891160D01*
X681185Y891425D01*
X681220Y891690D01*
X681228Y891955D01*
X684725Y888523D01*
D02*
G37*
G36*
X264250Y840750D02*
X228750D01*
Y841000D01*
X228509Y865848D01*
X229402Y866750D01*
X264250D01*
Y840750D01*
D02*
G37*
G36*
X513500Y746500D02*
X478000D01*
Y746750D01*
X477759Y771598D01*
X478652Y772500D01*
X513500D01*
Y746500D01*
D02*
G37*
D11*
X372000Y940500D02*
X421000D01*
X457750Y903750D01*
X329250Y908750D02*
X344000Y894000D01*
X562750D01*
X803750Y867250D02*
X814000D01*
X764750Y906250D02*
X803750Y867250D01*
X747250Y901250D02*
X747503D01*
X752503Y906250D01*
X764750D01*
X716557Y898250D02*
X717250D01*
X708057Y906750D02*
X716557Y898250D01*
X457750Y903750D02*
X564250D01*
X616500Y891250D02*
X625500Y900250D01*
X605750Y899250D02*
X613250Y906750D01*
X625500Y900250D02*
X704500D01*
X613250Y906750D02*
X708057D01*
X704500Y900250D02*
X713250Y891500D01*
X725000D02*
X725500Y892000D01*
X713250Y891500D02*
X725000D01*
X693043Y887043D02*
X707534D01*
X677714Y871714D02*
X693043Y887043D01*
X594441Y881692D02*
X604418Y871714D01*
X677714D01*
X310750Y908750D02*
X329250D01*
D12*
X759000Y858603D02*
X762500Y855103D01*
X759000Y858603D02*
Y891750D01*
X762500Y853750D02*
Y855103D01*
D17*
X614750Y878750D02*
X671500D01*
X576500Y917000D02*
X614750Y878750D01*
X491500Y917000D02*
X576500D01*
X466750Y941750D02*
X491500Y917000D01*
X684727Y891977D02*
Y892023D01*
X671500Y878750D02*
X684727Y891977D01*
D70*
X361311Y37439D02*
G03*
X379271Y30000I17960J17960D01*
G01*
X424250Y35432D02*
G03*
X426500Y30000I7682J0D01*
G01*
X494250Y34829D02*
G03*
X496250Y30000I6829J0D01*
G01*
X704250Y33621D02*
G03*
X705750Y30000I5121J0D01*
G01*
X354250Y49450D02*
G03*
X357750Y41000I11950J0D01*
G01*
X766811Y45560D02*
G03*
X774250Y63521I-17960J17960D01*
G01*
X562500Y30000D02*
G03*
X564250Y34225I-4225J4225D01*
G01*
X734500Y30000D02*
G03*
X739250Y41467I-11467J11467D01*
G01*
X633750Y30000D02*
G03*
X634250Y31207I-1207J1207D01*
G01*
X357750Y41000D02*
X361311Y37439D01*
X354250Y49450D02*
Y80250D01*
X424250Y35432D02*
Y80250D01*
X494250Y34829D02*
Y80250D01*
X704250Y33621D02*
Y80250D01*
X751250Y30000D02*
X766811Y45560D01*
X739250Y41467D02*
Y80250D01*
X774250Y63521D02*
Y80250D01*
X496250Y30000D02*
X562500D01*
X426500D02*
X496250D01*
X379271D02*
X426500D01*
X633750D02*
X705750D01*
X734500D02*
X751250D01*
X705750D02*
X734500D01*
X564250Y34225D02*
Y80250D01*
X634250Y31207D02*
Y80250D01*
X562500Y30000D02*
X633750D01*
D71*
X326950Y284071D02*
G03*
X334389Y266110I25400J0D01*
G01*
X466689Y117690D02*
G03*
X459250Y99729I17960J-17960D01*
G01*
X444900Y294891D02*
G03*
X452000Y277750I24241J0D01*
G01*
X536689Y263440D02*
G03*
X529250Y245479I17960J-17960D01*
G01*
X606689Y136939D02*
G03*
X599250Y118979I17960J-17960D01*
G01*
X676690Y102439D02*
G03*
X669250Y84479I17960J-17960D01*
G01*
X680500Y303750D02*
G03*
X680800Y304474I-724J724D01*
G01*
X746690Y264189D02*
G03*
X739250Y246229I17960J-17960D01*
G01*
X627939Y251189D02*
G03*
X620500Y233229I17960J-17960D01*
G01*
X389250Y200729D02*
G03*
X381810Y218689I-25400J0D01*
G01*
X564000Y351474D02*
G03*
X562850Y354250I-3927J0D01*
G01*
X491500Y227729D02*
G03*
X484061Y245690I-25400J0D01*
G01*
X793500Y311000D02*
G03*
X798750Y323674I-12674J12674D01*
G01*
X209000Y308021D02*
G03*
X216439Y290061I25400J0D01*
G01*
X319250Y90479D02*
G03*
X311810Y108440I-25400J0D01*
G01*
X266500Y164271D02*
G03*
X273939Y146311I25400J0D01*
G01*
X620500Y150750D02*
Y233229D01*
X334389Y266110D02*
X381810Y218689D01*
X326950Y284071D02*
Y354250D01*
X459250Y80250D02*
Y99729D01*
X444900Y294891D02*
Y354250D01*
X491500Y142500D02*
Y227729D01*
X606689Y136939D02*
X620500Y150750D01*
X669250Y80250D02*
Y84479D01*
X680800Y304474D02*
Y354250D01*
X739250Y165000D02*
Y246229D01*
X746690Y264189D02*
X793500Y311000D01*
X529250Y80250D02*
Y245479D01*
X599250Y80250D02*
Y118979D01*
X627939Y251189D02*
X680500Y303750D01*
X452000Y277750D02*
X484061Y245690D01*
X536689Y263440D02*
X564000Y290750D01*
Y351474D01*
X798750Y323674D02*
Y354250D01*
X389250Y80250D02*
Y200729D01*
X676690Y102439D02*
X739250Y165000D01*
X466689Y117690D02*
X491500Y142500D01*
X319250Y80250D02*
Y90479D01*
X209000Y308021D02*
Y354250D01*
X216439Y290061D02*
X266500Y240000D01*
Y164271D02*
Y240000D01*
X273939Y146311D02*
X311810Y108440D01*
D74*
X626315Y960750D02*
X638315Y948750D01*
X572750Y957250D02*
X573093D01*
X576593Y960750D01*
X626315D01*
X564500Y965000D02*
X572500Y973000D01*
X639281D02*
X651688Y960593D01*
X572500Y973000D02*
X639281D01*
X651688Y960593D02*
X652500D01*
X721843D01*
X316750Y965000D02*
X564500D01*
X568250Y952750D02*
X572750Y957250D01*
X276250Y899250D02*
X329750Y952750D01*
X568250D01*
X269250Y917500D02*
X316750Y965000D01*
X77500Y917500D02*
X269250D01*
X45750Y922750D02*
X69250Y899250D01*
X45750Y922750D02*
Y970500D01*
X74250Y999000D01*
X69250Y899250D02*
X276250D01*
X62250Y932750D02*
Y967500D01*
X80950Y986200D02*
X93000D01*
X62250Y967500D02*
X80950Y986200D01*
X760250Y999000D02*
X788000D01*
X721843Y960593D02*
X760250Y999000D01*
X638315Y948750D02*
X736900D01*
X774350Y986200D01*
X788000Y999000D02*
X799750Y987250D01*
Y986200D02*
Y987250D01*
X74250Y999000D02*
X105600D01*
X62250Y932750D02*
X77500Y917500D01*
X105600Y999000D02*
X118400Y986200D01*
D75*
X143786Y1062500D02*
X731500D01*
X757000Y1037000D02*
X774350D01*
X731500Y1062500D02*
X757000Y1037000D01*
X774350D02*
X799750D01*
X118400Y1037114D02*
X143786Y1062500D01*
X118400Y1037000D02*
Y1037114D01*
X93000Y1037000D02*
X118400D01*
D77*
X526500Y1040750D02*
D03*
X662650D02*
D03*
X799750Y960800D02*
D03*
X774350D02*
D03*
X799750Y1037000D02*
D03*
X774350Y1011600D02*
D03*
X799750D02*
D03*
X774350Y986200D02*
D03*
X799750D02*
D03*
X93000Y1011600D02*
D03*
X118400D02*
D03*
Y960800D02*
D03*
X93000D02*
D03*
X118400Y986200D02*
D03*
X93000D02*
D03*
X118400Y1037000D02*
D03*
X93000D02*
D03*
D79*
X58250Y80250D02*
D03*
X774250D02*
D03*
X739250D02*
D03*
X704250D02*
D03*
X669250D02*
D03*
X634250D02*
D03*
X599250D02*
D03*
X564250D02*
D03*
X529250D02*
D03*
X494250D02*
D03*
X459250D02*
D03*
X424250D02*
D03*
X389250D02*
D03*
X354250D02*
D03*
X319250D02*
D03*
X284250D02*
D03*
X249250D02*
D03*
D80*
X234400Y354250D02*
D03*
X209000D02*
D03*
X352350D02*
D03*
X326950D02*
D03*
X470300D02*
D03*
X444900D02*
D03*
X588250D02*
D03*
X562850D02*
D03*
X706200D02*
D03*
X680800D02*
D03*
X824150D02*
D03*
X798750D02*
D03*
D83*
X494000Y622500D02*
D03*
X72750Y884000D02*
D03*
X102250Y209750D02*
D03*
X104250Y436000D02*
D03*
D86*
X774350Y1037000D02*
D03*
D87*
X372000Y940500D02*
D03*
X759000Y891750D02*
D03*
X814000Y867250D02*
D03*
X762500Y853750D02*
D03*
X717250Y898250D02*
D03*
X564250Y903750D02*
D03*
X747250Y901250D02*
D03*
X616500Y891250D02*
D03*
X605750Y899250D02*
D03*
X562750Y894000D02*
D03*
X684727Y892023D02*
D03*
X707534Y887043D02*
D03*
X725500Y892000D02*
D03*
X594441Y881692D02*
D03*
X638750Y948750D02*
D03*
X310750Y908750D02*
D03*
X572750Y957250D02*
D03*
X652500Y960593D02*
D03*
X466750Y941750D02*
D03*
X564500Y965000D02*
D03*
D88*
X193907Y669657D02*
D03*
X203657Y659907D02*
D03*
X833750Y491000D02*
D03*
X341918Y671250D02*
D03*
X331626D02*
D03*
X321334D02*
D03*
X311042D02*
D03*
X300750Y611500D02*
D03*
Y622583D02*
D03*
Y633667D02*
D03*
Y644750D02*
D03*
X168250Y618750D02*
D03*
Y629250D02*
D03*
Y639750D02*
D03*
Y650250D02*
D03*
X212500Y658750D02*
D03*
X223500D02*
D03*
X819750Y530750D02*
D03*
X814750Y601750D02*
D03*
X819000Y668250D02*
D03*
X814250Y752500D02*
D03*
X811500Y807000D02*
D03*
X633750Y747000D02*
D03*
Y736250D02*
D03*
X135750Y35000D02*
D03*
X147625D02*
D03*
X159500D02*
D03*
Y45750D02*
D03*
X147625D02*
D03*
X135750D02*
D03*
X71750Y233250D02*
D03*
X83625D02*
D03*
X95500D02*
D03*
Y244000D02*
D03*
X83625D02*
D03*
X71750D02*
D03*
X611250Y603250D02*
D03*
X623125D02*
D03*
X635000D02*
D03*
Y614000D02*
D03*
X623125D02*
D03*
X611250D02*
D03*
X610000Y736250D02*
D03*
X621875D02*
D03*
Y747000D02*
D03*
X610000D02*
D03*
X479250Y666750D02*
D03*
X491125D02*
D03*
X503000D02*
D03*
Y677500D02*
D03*
X491125D02*
D03*
X479250D02*
D03*
X424500Y557250D02*
D03*
X436375D02*
D03*
X448250D02*
D03*
Y568000D02*
D03*
X436375D02*
D03*
X424500D02*
D03*
X124250Y481500D02*
D03*
X136125D02*
D03*
X148000D02*
D03*
Y492250D02*
D03*
X136125D02*
D03*
X124250D02*
D03*
X51000Y644250D02*
D03*
X62875D02*
D03*
X74750D02*
D03*
Y655000D02*
D03*
X62875D02*
D03*
X51000D02*
D03*
X228500Y784250D02*
D03*
X240375D02*
D03*
X252250D02*
D03*
Y795000D02*
D03*
X240375D02*
D03*
X228500D02*
D03*
X127500Y856000D02*
D03*
X139375D02*
D03*
X151250D02*
D03*
Y866750D02*
D03*
X139375D02*
D03*
X127500D02*
D03*
X394000Y903250D02*
D03*
X405875D02*
D03*
X417750D02*
D03*
Y914000D02*
D03*
X405875D02*
D03*
X394000D02*
D03*
X484000Y765000D02*
D03*
X495875D02*
D03*
X507750D02*
D03*
Y754250D02*
D03*
X495875D02*
D03*
X484000D02*
D03*
X234750Y848500D02*
D03*
X246625D02*
D03*
X258500D02*
D03*
Y859250D02*
D03*
X246625D02*
D03*
X234750D02*
D03*
M02*
