G04*
G04 #@! TF.GenerationSoftware,Altium Limited,Altium Designer,20.0.13 (296)*
G04*
G04 Layer_Color=8388736*
%FSLAX44Y44*%
%MOMM*%
G71*
G01*
G75*
%ADD40R,0.7032X0.8032*%
%ADD41R,1.0032X1.2032*%
%ADD42R,0.6132X1.7632*%
%ADD43R,1.2032X1.0032*%
%ADD44R,0.8032X0.7032*%
%ADD45R,3.6200X2.2700*%
%ADD46R,1.2200X1.3700*%
%ADD47R,1.3700X1.2200*%
%ADD48R,2.8032X2.7032*%
%ADD49R,2.9972X4.0132*%
%ADD50R,7.2032X4.2032*%
%ADD51R,1.1700X3.3200*%
%ADD52R,10.5700X8.4200*%
%ADD53R,2.1844X0.7366*%
%ADD54R,4.2032X7.2032*%
%ADD55R,4.0132X2.9972*%
%ADD56R,1.9532X2.8532*%
%ADD57R,1.2200X0.9200*%
%ADD58R,3.4532X2.3532*%
%ADD59R,1.1532X2.3532*%
%ADD60C,1.7032*%
%ADD61R,1.7032X1.7032*%
%ADD62O,2.1336X4.0640*%
%ADD63O,1.7272X3.2512*%
%ADD64R,1.7272X3.2512*%
%ADD65C,3.3782*%
%ADD66C,1.5200*%
%ADD67R,1.5200X1.5200*%
%ADD68R,1.5200X1.5200*%
%ADD69R,1.7032X1.7032*%
G36*
X46750Y338750D02*
X58750D01*
Y311750D01*
X46750D01*
Y300750D01*
X31750D01*
Y311750D01*
X12750D01*
Y338750D01*
X31750D01*
Y349750D01*
X46750D01*
Y338750D01*
D02*
G37*
G36*
X122750D02*
X141750D01*
Y311750D01*
X122750D01*
Y300750D01*
X107750D01*
Y311750D01*
X95750D01*
Y338750D01*
X107750D01*
Y349750D01*
X122750D01*
Y338750D01*
D02*
G37*
G36*
X50500Y564250D02*
X62500D01*
Y537250D01*
X50500D01*
Y526250D01*
X35500D01*
Y537250D01*
X16500D01*
Y564250D01*
X35500D01*
Y575250D01*
X50500D01*
Y564250D01*
D02*
G37*
G36*
X126500D02*
X145500D01*
Y537250D01*
X126500D01*
Y526250D01*
X111500D01*
Y537250D01*
X99500D01*
Y564250D01*
X111500D01*
Y575250D01*
X126500D01*
Y564250D01*
D02*
G37*
G36*
X185250Y830250D02*
Y842250D01*
X212250D01*
Y830250D01*
X223250D01*
Y815250D01*
X212250D01*
Y796250D01*
X185250D01*
Y815250D01*
X174250D01*
Y830250D01*
X185250D01*
D02*
G37*
G36*
Y906250D02*
Y925250D01*
X212250D01*
Y906250D01*
X223250D01*
Y891250D01*
X212250D01*
Y879250D01*
X185250D01*
Y891250D01*
X174250D01*
Y906250D01*
X185250D01*
D02*
G37*
G36*
X485250Y710000D02*
Y691000D01*
X458250D01*
Y710000D01*
X447250D01*
Y725000D01*
X458250D01*
Y737000D01*
X485250D01*
Y725000D01*
X496250D01*
Y710000D01*
X485250D01*
D02*
G37*
G36*
Y786000D02*
Y774000D01*
X458250D01*
Y786000D01*
X447250D01*
Y801000D01*
X458250D01*
Y820000D01*
X485250D01*
Y801000D01*
X496250D01*
Y786000D01*
X485250D01*
D02*
G37*
D40*
X175500Y942227D02*
D03*
X165500D02*
D03*
X175500Y977818D02*
D03*
X165500D02*
D03*
X175500Y1013500D02*
D03*
X165500D02*
D03*
X379153Y955500D02*
D03*
X389153D02*
D03*
X355000D02*
D03*
X365000D02*
D03*
X458500D02*
D03*
X448500D02*
D03*
X482401D02*
D03*
X472401D02*
D03*
X317250Y1014750D02*
D03*
X307250D02*
D03*
X649750Y928250D02*
D03*
X639750D02*
D03*
X796750Y892750D02*
D03*
X786750D02*
D03*
X282500Y923000D02*
D03*
X292500D02*
D03*
X796750Y907625D02*
D03*
X786750D02*
D03*
X317250Y1045350D02*
D03*
X307250D02*
D03*
X175500D02*
D03*
X165500D02*
D03*
X307250Y943476D02*
D03*
X317250D02*
D03*
X307250Y979000D02*
D03*
X317250D02*
D03*
X194100Y70750D02*
D03*
X184100D02*
D03*
D41*
X529000Y978500D02*
D03*
X513000D02*
D03*
X529000Y944000D02*
D03*
X513000D02*
D03*
X685000Y874750D02*
D03*
X669000D02*
D03*
X693250Y1011750D02*
D03*
X677250D02*
D03*
X566000Y1010250D02*
D03*
X582000D02*
D03*
X821000Y397250D02*
D03*
X805000D02*
D03*
X703250D02*
D03*
X687250D02*
D03*
X585500D02*
D03*
X569500D02*
D03*
X467750D02*
D03*
X451750D02*
D03*
X350000D02*
D03*
X334000D02*
D03*
X232250D02*
D03*
X216250D02*
D03*
D42*
X671250Y980050D02*
D03*
X677750D02*
D03*
X684250D02*
D03*
X690750D02*
D03*
X697250D02*
D03*
X703750D02*
D03*
X710250D02*
D03*
X716750D02*
D03*
X723250D02*
D03*
X729750D02*
D03*
Y922450D02*
D03*
X723250D02*
D03*
X716750D02*
D03*
X710250D02*
D03*
X703750D02*
D03*
X697250D02*
D03*
X690750D02*
D03*
X684250D02*
D03*
X677750D02*
D03*
X671250D02*
D03*
X551500Y980050D02*
D03*
X558000D02*
D03*
X564500D02*
D03*
X571000D02*
D03*
X577500D02*
D03*
X584000D02*
D03*
X590500D02*
D03*
X597000D02*
D03*
X603500D02*
D03*
X610000D02*
D03*
Y922450D02*
D03*
X603500D02*
D03*
X597000D02*
D03*
X590500D02*
D03*
X584000D02*
D03*
X577500D02*
D03*
X571000D02*
D03*
X564500D02*
D03*
X558000D02*
D03*
X551500D02*
D03*
D43*
X739500Y1029250D02*
D03*
Y1013250D02*
D03*
X273750Y667750D02*
D03*
Y683750D02*
D03*
X285125Y641750D02*
D03*
Y625750D02*
D03*
X150625Y641750D02*
D03*
Y625750D02*
D03*
X176000Y667750D02*
D03*
Y683750D02*
D03*
X154500Y423250D02*
D03*
Y407250D02*
D03*
X273400Y423250D02*
D03*
Y407250D02*
D03*
X392300Y423250D02*
D03*
Y407250D02*
D03*
X511200Y423250D02*
D03*
Y407250D02*
D03*
X630100Y423250D02*
D03*
Y407250D02*
D03*
X749000Y423250D02*
D03*
Y407250D02*
D03*
D44*
X549250Y897500D02*
D03*
Y887500D02*
D03*
X605250Y1004750D02*
D03*
Y1014750D02*
D03*
X722000Y1013000D02*
D03*
Y1003000D02*
D03*
X433830Y987000D02*
D03*
Y997000D02*
D03*
X385250Y986750D02*
D03*
Y996750D02*
D03*
X410500Y987000D02*
D03*
Y997000D02*
D03*
X361250Y987000D02*
D03*
Y997000D02*
D03*
X583500Y884750D02*
D03*
Y894750D02*
D03*
X774000Y827000D02*
D03*
Y837000D02*
D03*
X830762Y827000D02*
D03*
Y837000D02*
D03*
X751000Y827000D02*
D03*
Y837000D02*
D03*
X694000Y827000D02*
D03*
Y837000D02*
D03*
X830762Y691500D02*
D03*
Y701500D02*
D03*
X774000Y691500D02*
D03*
Y701500D02*
D03*
X751000Y691500D02*
D03*
Y701500D02*
D03*
X694000Y691500D02*
D03*
Y701500D02*
D03*
X830762Y559750D02*
D03*
Y569750D02*
D03*
X751000Y559750D02*
D03*
Y569750D02*
D03*
X774000Y559750D02*
D03*
Y569750D02*
D03*
X694000Y559750D02*
D03*
Y569750D02*
D03*
D45*
X517500Y863250D02*
D03*
Y898250D02*
D03*
D46*
X361000Y1037000D02*
D03*
Y1014000D02*
D03*
X410500Y1037000D02*
D03*
Y1014000D02*
D03*
X433830D02*
D03*
Y1037000D02*
D03*
X385075Y1013750D02*
D03*
Y1036750D02*
D03*
D47*
X170250Y106250D02*
D03*
X193250D02*
D03*
D48*
X794100Y776160D02*
D03*
X725500D02*
D03*
X794100Y642660D02*
D03*
X725500D02*
D03*
X794100Y511160D02*
D03*
X725500D02*
D03*
D49*
X378935Y710000D02*
D03*
X307565D02*
D03*
D50*
X344250Y873500D02*
D03*
Y773500D02*
D03*
D51*
X385250Y630750D02*
D03*
X368250D02*
D03*
X351250D02*
D03*
X334250D02*
D03*
X317250D02*
D03*
X253750D02*
D03*
X236750D02*
D03*
X219750D02*
D03*
X202750D02*
D03*
X185750D02*
D03*
D52*
X351250Y536250D02*
D03*
X219750D02*
D03*
D53*
X669230Y586700D02*
D03*
Y574000D02*
D03*
Y561300D02*
D03*
Y548600D02*
D03*
Y535900D02*
D03*
Y523200D02*
D03*
Y510500D02*
D03*
Y497800D02*
D03*
X575250D02*
D03*
Y510500D02*
D03*
Y523200D02*
D03*
Y535900D02*
D03*
Y548600D02*
D03*
Y561300D02*
D03*
Y574000D02*
D03*
Y586700D02*
D03*
Y851700D02*
D03*
Y839000D02*
D03*
Y826300D02*
D03*
Y813600D02*
D03*
Y800900D02*
D03*
Y788200D02*
D03*
Y775500D02*
D03*
Y762800D02*
D03*
X669230D02*
D03*
Y775500D02*
D03*
Y788200D02*
D03*
Y800900D02*
D03*
Y813600D02*
D03*
Y826300D02*
D03*
Y839000D02*
D03*
Y851700D02*
D03*
X575250Y718200D02*
D03*
Y705500D02*
D03*
Y692800D02*
D03*
Y680100D02*
D03*
Y667400D02*
D03*
Y654700D02*
D03*
Y642000D02*
D03*
Y629300D02*
D03*
X669230D02*
D03*
Y642000D02*
D03*
Y654700D02*
D03*
Y667400D02*
D03*
Y680100D02*
D03*
Y692800D02*
D03*
Y705500D02*
D03*
Y718200D02*
D03*
D54*
X33000Y727000D02*
D03*
X133000D02*
D03*
D55*
X225250Y683315D02*
D03*
Y754685D02*
D03*
D56*
X774000Y398750D02*
D03*
Y441750D02*
D03*
X655350Y398750D02*
D03*
Y441750D02*
D03*
X536700Y398750D02*
D03*
Y441750D02*
D03*
X418050Y398750D02*
D03*
Y441750D02*
D03*
X299400Y398750D02*
D03*
Y441750D02*
D03*
X180750Y398750D02*
D03*
Y441750D02*
D03*
D57*
X710500Y569750D02*
D03*
X733000Y579250D02*
D03*
Y560250D02*
D03*
X790500Y569750D02*
D03*
X813000Y579250D02*
D03*
Y560250D02*
D03*
X710500Y701500D02*
D03*
X733000Y711000D02*
D03*
Y692000D02*
D03*
X790500Y701500D02*
D03*
X813000Y711000D02*
D03*
Y692000D02*
D03*
X710500Y837000D02*
D03*
X733000Y846500D02*
D03*
Y827500D02*
D03*
X790500Y837000D02*
D03*
X813000Y846500D02*
D03*
Y827500D02*
D03*
D58*
X457750Y899250D02*
D03*
D59*
X480750Y841250D02*
D03*
X457750D02*
D03*
X434750D02*
D03*
D60*
X278100Y960150D02*
D03*
Y985550D02*
D03*
Y1010950D02*
D03*
Y1036350D02*
D03*
X201900Y960150D02*
D03*
Y985550D02*
D03*
Y1010950D02*
D03*
X475700Y1040750D02*
D03*
X501100D02*
D03*
X526500D02*
D03*
X551900D02*
D03*
X611850D02*
D03*
X637250D02*
D03*
X662650D02*
D03*
X688050D02*
D03*
X799750Y960800D02*
D03*
X774350D02*
D03*
X799750Y1037000D02*
D03*
X774350Y1011600D02*
D03*
X799750D02*
D03*
X774350Y986200D02*
D03*
X799750D02*
D03*
X774350Y935400D02*
D03*
X799750D02*
D03*
X93000Y1011600D02*
D03*
X118400D02*
D03*
X93000Y935400D02*
D03*
X118400Y960800D02*
D03*
X93000D02*
D03*
X118400Y986200D02*
D03*
X93000D02*
D03*
X118400Y1037000D02*
D03*
X93000D02*
D03*
D61*
X201900Y1036350D02*
D03*
X577300Y1040750D02*
D03*
X713450D02*
D03*
D62*
X58250Y80250D02*
D03*
X93250D02*
D03*
X774250D02*
D03*
X739250D02*
D03*
X704250D02*
D03*
X669250D02*
D03*
X634250D02*
D03*
X599250D02*
D03*
X564250D02*
D03*
X529250D02*
D03*
X494250D02*
D03*
X459250D02*
D03*
X424250D02*
D03*
X389250D02*
D03*
X354250D02*
D03*
X319250D02*
D03*
X284250D02*
D03*
X249250D02*
D03*
D63*
X234400Y354250D02*
D03*
X209000D02*
D03*
X352350D02*
D03*
X326950D02*
D03*
X470300D02*
D03*
X444900D02*
D03*
X588250D02*
D03*
X562850D02*
D03*
X706200D02*
D03*
X680800D02*
D03*
X824150D02*
D03*
X798750D02*
D03*
D64*
X183600D02*
D03*
X301550D02*
D03*
X419500D02*
D03*
X537450D02*
D03*
X655400D02*
D03*
X773350D02*
D03*
D65*
X209000Y171750D02*
D03*
X326950D02*
D03*
X444900D02*
D03*
X562850D02*
D03*
X680800D02*
D03*
X798750D02*
D03*
D66*
X494000Y622500D02*
D03*
X72750Y884000D02*
D03*
X102250Y209750D02*
D03*
X104250Y436000D02*
D03*
D67*
X444000Y622500D02*
D03*
X52250Y209750D02*
D03*
X54250Y436000D02*
D03*
D68*
X72750Y834000D02*
D03*
D69*
X774350Y1037000D02*
D03*
X118400Y935400D02*
D03*
M02*
