G04*
G04 #@! TF.GenerationSoftware,Altium Limited,Altium Designer,20.0.13 (296)*
G04*
G04 Layer_Physical_Order=3*
G04 Layer_Color=16440176*
%FSLAX44Y44*%
%MOMM*%
G71*
G01*
G75*
%ADD12C,0.2000*%
%ADD14C,0.2500*%
%ADD15C,0.3000*%
%ADD58C,1.5000*%
%ADD59R,1.5000X1.5000*%
%ADD61O,1.9304X3.8608*%
%ADD62C,0.8000*%
%ADD63C,0.7000*%
G36*
X626432Y3569D02*
X3568D01*
X3569Y1076431D01*
X626431D01*
X626432Y3569D01*
D02*
G37*
%LPC*%
G36*
X108400Y1066682D02*
X105920Y1066355D01*
X103609Y1065398D01*
X101624Y1063875D01*
X100102Y1061891D01*
X99144Y1059580D01*
X98818Y1057100D01*
X99144Y1054620D01*
X100102Y1052309D01*
X101624Y1050324D01*
X103609Y1048802D01*
X105920Y1047844D01*
X108400Y1047518D01*
X110880Y1047844D01*
X113191Y1048802D01*
X115175Y1050324D01*
X116698Y1052309D01*
X117655Y1054620D01*
X117982Y1057100D01*
X117655Y1059580D01*
X116698Y1061891D01*
X115175Y1063875D01*
X113191Y1065398D01*
X110880Y1066355D01*
X108400Y1066682D01*
D02*
G37*
G36*
X83000D02*
X80520Y1066355D01*
X78209Y1065398D01*
X76224Y1063875D01*
X74702Y1061891D01*
X73745Y1059580D01*
X73418Y1057100D01*
X73745Y1054620D01*
X74702Y1052309D01*
X76224Y1050324D01*
X78209Y1048802D01*
X80520Y1047844D01*
X83000Y1047518D01*
X85480Y1047844D01*
X87791Y1048802D01*
X89775Y1050324D01*
X91298Y1052309D01*
X92255Y1054620D01*
X92582Y1057100D01*
X92255Y1059580D01*
X91298Y1061891D01*
X89775Y1063875D01*
X87791Y1065398D01*
X85480Y1066355D01*
X83000Y1066682D01*
D02*
G37*
G36*
X570850Y1066500D02*
X551850D01*
Y1047500D01*
X570850D01*
Y1066500D01*
D02*
G37*
G36*
X586750Y1066582D02*
X584270Y1066255D01*
X581959Y1065298D01*
X579975Y1063775D01*
X578452Y1061791D01*
X577495Y1059480D01*
X577168Y1057000D01*
X577495Y1054520D01*
X578452Y1052209D01*
X579975Y1050225D01*
X581959Y1048702D01*
X584270Y1047745D01*
X586750Y1047418D01*
X589230Y1047745D01*
X591541Y1048702D01*
X593526Y1050225D01*
X595048Y1052209D01*
X596006Y1054520D01*
X596332Y1057000D01*
X596006Y1059480D01*
X595048Y1061791D01*
X593526Y1063775D01*
X591541Y1065298D01*
X589230Y1066255D01*
X586750Y1066582D01*
D02*
G37*
G36*
X498201Y1051258D02*
X496055Y1050831D01*
X494236Y1049615D01*
X493020Y1047796D01*
X492593Y1045650D01*
X492686Y1045182D01*
X377977Y930472D01*
X377203Y929315D01*
X376931Y927949D01*
Y898980D01*
X376535Y898715D01*
X375319Y896896D01*
X374892Y894750D01*
X375319Y892604D01*
X376535Y890785D01*
X378354Y889569D01*
X380042Y889233D01*
X380573Y888048D01*
X380580Y887930D01*
X380116Y887309D01*
X361267D01*
X332309Y916267D01*
Y976000D01*
X332309Y976000D01*
X332076Y977170D01*
X331413Y978163D01*
X312663Y996913D01*
X311670Y997576D01*
X310500Y997809D01*
X310500Y997809D01*
X302186D01*
X301448Y999591D01*
X299925Y1001575D01*
X297941Y1003098D01*
X295630Y1004055D01*
X293150Y1004382D01*
X290670Y1004055D01*
X288359Y1003098D01*
X286375Y1001575D01*
X284852Y999591D01*
X283895Y997280D01*
X283568Y994800D01*
X283895Y992320D01*
X284852Y990009D01*
X286375Y988025D01*
X288359Y986502D01*
X290670Y985545D01*
X293150Y985218D01*
X295630Y985545D01*
X297941Y986502D01*
X299925Y988025D01*
X301448Y990009D01*
X302145Y991691D01*
X309233D01*
X326191Y974733D01*
Y915000D01*
X326191Y915000D01*
X326424Y913829D01*
X327087Y912837D01*
X342091Y897834D01*
X341564Y896564D01*
X317401D01*
X316965Y897215D01*
X315146Y898431D01*
X313000Y898858D01*
X310854Y898431D01*
X309035Y897215D01*
X307819Y895396D01*
X307392Y893250D01*
X307420Y893109D01*
X256157Y841846D01*
X255439Y840771D01*
X255186Y839503D01*
Y811735D01*
X255439Y810467D01*
X256157Y809392D01*
X258686Y806863D01*
Y783651D01*
X258035Y783215D01*
X256819Y781396D01*
X256392Y779250D01*
X256819Y777104D01*
X258035Y775285D01*
X259854Y774069D01*
X262000Y773642D01*
X264146Y774069D01*
X265965Y775285D01*
X267181Y777104D01*
X267608Y779250D01*
X267181Y781396D01*
X265965Y783215D01*
X265314Y783651D01*
Y798715D01*
X266584Y799146D01*
X267675Y797725D01*
X269659Y796202D01*
X271970Y795245D01*
X274450Y794918D01*
X276930Y795245D01*
X279241Y796202D01*
X281225Y797725D01*
X282748Y799709D01*
X283706Y802020D01*
X284032Y804500D01*
X283706Y806980D01*
X282748Y809291D01*
X281225Y811275D01*
X279241Y812798D01*
X276930Y813755D01*
X274450Y814082D01*
X271970Y813755D01*
X269659Y812798D01*
X267675Y811275D01*
X266348Y809546D01*
X265548Y809520D01*
X265401Y809535D01*
X264940Y809685D01*
X264343Y810578D01*
X261814Y813108D01*
Y838130D01*
X263377Y839694D01*
X264718Y839239D01*
X264945Y837520D01*
X265902Y835209D01*
X267425Y833224D01*
X269409Y831702D01*
X271720Y830744D01*
X274200Y830418D01*
X276680Y830744D01*
X278991Y831702D01*
X280975Y833224D01*
X282498Y835209D01*
X283456Y837520D01*
X283782Y840000D01*
X283456Y842480D01*
X282498Y844791D01*
X280975Y846775D01*
X278991Y848298D01*
X276680Y849256D01*
X274961Y849482D01*
X274506Y850823D01*
X311604Y887920D01*
X313000Y887642D01*
X315146Y888069D01*
X316965Y889285D01*
X317401Y889936D01*
X340774D01*
X380037Y850673D01*
X379551Y849500D01*
X366300D01*
Y830500D01*
X385300D01*
Y843751D01*
X386473Y844237D01*
X457303Y773407D01*
X458378Y772689D01*
X459646Y772436D01*
X464099D01*
X464535Y771785D01*
X466354Y770569D01*
X468500Y770142D01*
X470646Y770569D01*
X472465Y771785D01*
X473681Y773604D01*
X474021Y775315D01*
X475105Y775884D01*
X475337Y775916D01*
X476604Y775069D01*
X476811Y775028D01*
X477179Y773813D01*
X392810Y689444D01*
X392147Y688451D01*
X391914Y687281D01*
X391914Y687281D01*
Y646558D01*
X391914Y646558D01*
X392147Y645387D01*
X392810Y644395D01*
X396618Y640587D01*
X396618Y640587D01*
X397610Y639924D01*
X398781Y639691D01*
X398781Y639691D01*
X458750D01*
X458750Y639691D01*
X459921Y639924D01*
X460913Y640587D01*
X498267Y677941D01*
X508929D01*
X509535Y677035D01*
X511354Y675819D01*
X513500Y675392D01*
X515646Y675819D01*
X517465Y677035D01*
X518681Y678854D01*
X519108Y681000D01*
X518681Y683146D01*
X517465Y684965D01*
X515646Y686181D01*
X513500Y686608D01*
X511354Y686181D01*
X509535Y684965D01*
X508929Y684059D01*
X497000D01*
X497000Y684059D01*
X495829Y683826D01*
X494837Y683163D01*
X494837Y683163D01*
X457483Y645809D01*
X407576D01*
X407144Y647079D01*
X408181Y648631D01*
X408608Y650777D01*
X408395Y651846D01*
X510163Y753614D01*
X510826Y754606D01*
X511059Y755777D01*
Y873000D01*
X511059Y873000D01*
X510826Y874171D01*
X510163Y875163D01*
X510163Y875163D01*
X459145Y926181D01*
X459358Y927250D01*
X458931Y929396D01*
X457715Y931215D01*
X455896Y932431D01*
X453750Y932858D01*
X451604Y932431D01*
X449785Y931215D01*
X448569Y929396D01*
X448142Y927250D01*
X448569Y925104D01*
X449785Y923285D01*
X451604Y922069D01*
X453750Y921642D01*
X454819Y921855D01*
X500282Y876392D01*
X499859Y875019D01*
X499185Y874891D01*
X464913Y909163D01*
X463921Y909826D01*
X462750Y910059D01*
X462750Y910059D01*
X409668D01*
X409283Y911329D01*
X409965Y911785D01*
X411181Y913604D01*
X411608Y915750D01*
X411350Y917046D01*
X411592Y917374D01*
X412455Y917999D01*
X414250Y917642D01*
X416396Y918069D01*
X418215Y919285D01*
X419431Y921104D01*
X419858Y923250D01*
X419431Y925396D01*
X418215Y927215D01*
X416396Y928431D01*
X414250Y928858D01*
X412104Y928431D01*
X410285Y927215D01*
X409069Y925396D01*
X408642Y923250D01*
X408900Y921954D01*
X408658Y921626D01*
X407795Y921001D01*
X406000Y921358D01*
X403854Y920931D01*
X402035Y919715D01*
X400819Y917896D01*
X400392Y915750D01*
X400819Y913604D01*
X402035Y911785D01*
X403097Y911075D01*
X403167Y910701D01*
X403005Y909609D01*
X402337Y909163D01*
X402337Y909163D01*
X387273Y894099D01*
X386103Y894725D01*
X386108Y894750D01*
X385681Y896896D01*
X384465Y898715D01*
X384069Y898980D01*
Y926471D01*
X497733Y1040135D01*
X498201Y1040042D01*
X500347Y1040469D01*
X502166Y1041685D01*
X503382Y1043504D01*
X503809Y1045650D01*
X503382Y1047796D01*
X502166Y1049615D01*
X500347Y1050831D01*
X498201Y1051258D01*
D02*
G37*
G36*
X542500Y1047358D02*
X540354Y1046931D01*
X538535Y1045715D01*
X537319Y1043896D01*
X536892Y1041750D01*
X537319Y1039604D01*
X538535Y1037785D01*
X540354Y1036569D01*
X542500Y1036142D01*
X544646Y1036569D01*
X546465Y1037785D01*
X547681Y1039604D01*
X548108Y1041750D01*
X547681Y1043896D01*
X546465Y1045715D01*
X544646Y1046931D01*
X542500Y1047358D01*
D02*
G37*
G36*
X302650Y1055100D02*
X283650D01*
Y1036100D01*
X302650D01*
Y1055100D01*
D02*
G37*
G36*
X170650D02*
X151650D01*
Y1049168D01*
X146100D01*
X144734Y1048897D01*
X143577Y1048123D01*
X133977Y1038523D01*
X133203Y1037366D01*
X132931Y1036000D01*
Y957000D01*
X133203Y955634D01*
X133977Y954477D01*
X204735Y883718D01*
X204642Y883250D01*
X204735Y882782D01*
X182022Y860069D01*
X81500D01*
X80134Y859797D01*
X78977Y859023D01*
X72227Y852273D01*
X71453Y851116D01*
X71181Y849750D01*
Y827980D01*
X70785Y827715D01*
X69569Y825896D01*
X69142Y823750D01*
X69569Y821604D01*
X70785Y819785D01*
X72604Y818569D01*
X74750Y818142D01*
X76896Y818569D01*
X78715Y819785D01*
X79931Y821604D01*
X80358Y823750D01*
X79931Y825896D01*
X78715Y827715D01*
X78319Y827980D01*
Y848272D01*
X82978Y852931D01*
X95089D01*
X95615Y851661D01*
X86227Y842273D01*
X85453Y841116D01*
X85181Y839750D01*
Y827980D01*
X84785Y827715D01*
X83569Y825896D01*
X83142Y823750D01*
X83569Y821604D01*
X84785Y819785D01*
X86604Y818569D01*
X88750Y818142D01*
X90896Y818569D01*
X92715Y819785D01*
X93931Y821604D01*
X94358Y823750D01*
X93931Y825896D01*
X92715Y827715D01*
X92319Y827980D01*
Y838272D01*
X100728Y846681D01*
X110589D01*
X111115Y845411D01*
X99977Y834273D01*
X99203Y833116D01*
X98931Y831750D01*
Y827980D01*
X98535Y827715D01*
X97319Y825896D01*
X96892Y823750D01*
X97319Y821604D01*
X98535Y819785D01*
X100354Y818569D01*
X102500Y818142D01*
X104646Y818569D01*
X106465Y819785D01*
X107681Y821604D01*
X108108Y823750D01*
X107681Y825896D01*
X106465Y827715D01*
X106069Y827980D01*
Y830272D01*
X115728Y839931D01*
X163581D01*
X164180Y838811D01*
X164069Y838646D01*
X163642Y836500D01*
X164069Y834354D01*
X165285Y832535D01*
X167104Y831319D01*
X169250Y830892D01*
X170105Y831062D01*
X171185Y829982D01*
X171089Y829500D01*
X171516Y827354D01*
X172731Y825535D01*
X174551Y824319D01*
X176697Y823892D01*
X178843Y824319D01*
X180662Y825535D01*
X181878Y827354D01*
X182304Y829500D01*
X181878Y831646D01*
X180662Y833465D01*
X178843Y834681D01*
X176697Y835108D01*
X175842Y834938D01*
X174762Y836018D01*
X174858Y836500D01*
X174431Y838646D01*
X174320Y838811D01*
X174919Y839931D01*
X198750D01*
X200116Y840203D01*
X201273Y840977D01*
X233273Y872977D01*
X234047Y874134D01*
X234319Y875500D01*
Y879020D01*
X234715Y879285D01*
X235926Y881097D01*
X235961Y881104D01*
X237223Y881089D01*
X237319Y880604D01*
X238535Y878785D01*
X239186Y878349D01*
Y702373D01*
X221592Y684778D01*
X221104Y684681D01*
X219285Y683465D01*
X218069Y681646D01*
X217642Y679500D01*
X218069Y677354D01*
X219285Y675535D01*
X221104Y674319D01*
X223250Y673892D01*
X225396Y674319D01*
X227215Y675535D01*
X228431Y677354D01*
X228858Y679500D01*
X228431Y681646D01*
X228191Y682005D01*
X244843Y698657D01*
X244911Y698759D01*
X246181Y698374D01*
Y690978D01*
X221641Y666438D01*
X220471Y667064D01*
X220558Y667500D01*
X220131Y669646D01*
X218915Y671465D01*
X217096Y672681D01*
X214950Y673108D01*
X212804Y672681D01*
X210985Y671465D01*
X209769Y669646D01*
X209342Y667500D01*
X209769Y665354D01*
X210985Y663535D01*
X211278Y663339D01*
X210893Y662069D01*
X159728D01*
X136265Y685532D01*
X136358Y686000D01*
X135931Y688146D01*
X134715Y689965D01*
X132896Y691181D01*
X130750Y691608D01*
X128604Y691181D01*
X126785Y689965D01*
X125569Y688146D01*
X125530Y687951D01*
X124315Y687582D01*
X119069Y692829D01*
Y773270D01*
X119465Y773535D01*
X120681Y775354D01*
X121108Y777500D01*
X120681Y779646D01*
X119465Y781465D01*
X117646Y782681D01*
X115500Y783108D01*
X113354Y782681D01*
X111535Y781465D01*
X110319Y779646D01*
X109892Y777500D01*
X110319Y775354D01*
X111535Y773535D01*
X111931Y773270D01*
Y694554D01*
X110758Y694068D01*
X100569Y704258D01*
Y783772D01*
X105978Y789181D01*
X115772D01*
X140977Y763977D01*
X142134Y763203D01*
X143500Y762931D01*
X151270D01*
X151535Y762535D01*
X153354Y761319D01*
X155500Y760892D01*
X157646Y761319D01*
X159465Y762535D01*
X160681Y764354D01*
X161108Y766500D01*
X160681Y768646D01*
X159465Y770465D01*
X157646Y771681D01*
X155500Y772108D01*
X153354Y771681D01*
X151535Y770465D01*
X151270Y770069D01*
X144978D01*
X119773Y795273D01*
X118616Y796047D01*
X117250Y796319D01*
X104500D01*
X103134Y796047D01*
X101977Y795273D01*
X94477Y787773D01*
X93703Y786616D01*
X93431Y785250D01*
Y702779D01*
X93703Y701414D01*
X94477Y700256D01*
X120441Y674292D01*
X120408Y673973D01*
X119026Y672953D01*
X118250Y673108D01*
X116104Y672681D01*
X114285Y671465D01*
X113069Y669646D01*
X112642Y667500D01*
X113069Y665354D01*
X114285Y663535D01*
X116104Y662319D01*
X118250Y661892D01*
X120396Y662319D01*
X120561Y662430D01*
X121681Y661831D01*
Y607750D01*
X121953Y606384D01*
X122727Y605227D01*
X199227Y528727D01*
X200384Y527953D01*
X201750Y527681D01*
X218675D01*
X219161Y526508D01*
X194227Y501573D01*
X193453Y500416D01*
X193181Y499050D01*
Y377478D01*
X178218Y362515D01*
X177750Y362608D01*
X175604Y362181D01*
X173785Y360965D01*
X172569Y359146D01*
X172142Y357000D01*
X172569Y354854D01*
X173785Y353035D01*
X175604Y351819D01*
X177750Y351392D01*
X179896Y351819D01*
X181715Y353035D01*
X182931Y354854D01*
X183358Y357000D01*
X183265Y357468D01*
X199273Y373477D01*
X200047Y374634D01*
X200319Y376000D01*
Y497572D01*
X228982Y526235D01*
X229450Y526142D01*
X231596Y526569D01*
X233415Y527785D01*
X234631Y529604D01*
X235058Y531750D01*
X234631Y533896D01*
X233415Y535715D01*
X231596Y536931D01*
X229450Y537358D01*
X227304Y536931D01*
X225485Y535715D01*
X224886Y534819D01*
X203228D01*
X128819Y609228D01*
Y655225D01*
X129992Y655711D01*
X258470Y527233D01*
X256477Y525239D01*
X255703Y524082D01*
X255431Y522716D01*
Y358980D01*
X255035Y358715D01*
X253819Y356896D01*
X253392Y354750D01*
X253819Y352604D01*
X255035Y350785D01*
X256854Y349569D01*
X259000Y349142D01*
X261146Y349569D01*
X262965Y350785D01*
X264181Y352604D01*
X264608Y354750D01*
X264181Y356896D01*
X262965Y358715D01*
X262569Y358980D01*
Y521238D01*
X266262Y524931D01*
X321103D01*
X321535Y524285D01*
X323354Y523069D01*
X325500Y522642D01*
X327646Y523069D01*
X329465Y524285D01*
X330681Y526104D01*
X331108Y528250D01*
X330681Y530396D01*
X329465Y532215D01*
X327646Y533431D01*
X325500Y533858D01*
X323354Y533431D01*
X321535Y532215D01*
X321437Y532069D01*
X263728D01*
X133819Y661978D01*
Y676089D01*
X135078Y676625D01*
X155727Y655977D01*
X156884Y655203D01*
X158250Y654931D01*
X205344D01*
X205729Y653661D01*
X205062Y653215D01*
X203846Y651396D01*
X203419Y649250D01*
X203846Y647104D01*
X205062Y645285D01*
X206881Y644069D01*
X209027Y643642D01*
X211173Y644069D01*
X212992Y645285D01*
X214208Y647104D01*
X214635Y649250D01*
X214208Y651396D01*
X212992Y653215D01*
X212324Y653661D01*
X212710Y654931D01*
X218750D01*
X220116Y655203D01*
X221273Y655977D01*
X252273Y686977D01*
X253047Y688134D01*
X253319Y689500D01*
Y782020D01*
X253715Y782285D01*
X254931Y784104D01*
X255358Y786250D01*
X254931Y788396D01*
X253715Y790215D01*
X251896Y791431D01*
X249750Y791858D01*
X247604Y791431D01*
X246934Y790983D01*
X245814Y791582D01*
Y878349D01*
X246465Y878785D01*
X247681Y880604D01*
X248108Y882750D01*
X247681Y884896D01*
X246465Y886715D01*
X244646Y887931D01*
X242500Y888358D01*
X240354Y887931D01*
X238535Y886715D01*
X237324Y884903D01*
X237289Y884896D01*
X236027Y884911D01*
X235931Y885396D01*
X234715Y887215D01*
X234319Y887480D01*
Y946500D01*
X234047Y947866D01*
X233273Y949023D01*
X186523Y995773D01*
X185366Y996547D01*
X184000Y996819D01*
X170466D01*
X170406Y997280D01*
X169448Y999591D01*
X167925Y1001575D01*
X165941Y1003098D01*
X163630Y1004055D01*
X161150Y1004382D01*
X158670Y1004055D01*
X156359Y1003098D01*
X154375Y1001575D01*
X152852Y999591D01*
X151895Y997280D01*
X151568Y994800D01*
X151895Y992320D01*
X152852Y990009D01*
X154375Y988025D01*
X156359Y986502D01*
X158670Y985545D01*
X161150Y985218D01*
X163630Y985545D01*
X165941Y986502D01*
X167925Y988025D01*
X169197Y989681D01*
X182522D01*
X227181Y945022D01*
Y887480D01*
X226785Y887215D01*
X226180Y886311D01*
X224653D01*
X224215Y886965D01*
X223069Y887731D01*
Y888000D01*
X222797Y889366D01*
X222023Y890523D01*
X148319Y964228D01*
Y1013772D01*
X150478Y1015931D01*
X152635D01*
X152852Y1015409D01*
X154375Y1013425D01*
X156359Y1011902D01*
X158670Y1010945D01*
X161150Y1010618D01*
X163630Y1010945D01*
X165941Y1011902D01*
X167925Y1013425D01*
X169448Y1015409D01*
X170406Y1017720D01*
X170732Y1020200D01*
X170406Y1022680D01*
X169448Y1024991D01*
X167925Y1026975D01*
X165941Y1028498D01*
X163630Y1029455D01*
X161150Y1029782D01*
X158670Y1029455D01*
X156359Y1028498D01*
X154375Y1026975D01*
X152852Y1024991D01*
X152056Y1023069D01*
X149000D01*
X147634Y1022797D01*
X146477Y1022023D01*
X142227Y1017773D01*
X141453Y1016616D01*
X141339Y1016040D01*
X140069Y1016165D01*
Y1034522D01*
X147578Y1042031D01*
X151650D01*
Y1036100D01*
X170650D01*
Y1055100D01*
D02*
G37*
G36*
X369350Y1055182D02*
X366870Y1054855D01*
X364559Y1053898D01*
X362575Y1052375D01*
X361052Y1050391D01*
X360095Y1048080D01*
X359768Y1045600D01*
X360095Y1043120D01*
X361052Y1040809D01*
X362575Y1038824D01*
X364559Y1037302D01*
X366870Y1036345D01*
X369350Y1036018D01*
X371830Y1036345D01*
X374141Y1037302D01*
X376125Y1038824D01*
X377648Y1040809D01*
X378605Y1043120D01*
X378932Y1045600D01*
X378605Y1048080D01*
X377648Y1050391D01*
X376125Y1052375D01*
X374141Y1053898D01*
X371830Y1054855D01*
X369350Y1055182D01*
D02*
G37*
G36*
X237350D02*
X234870Y1054855D01*
X232559Y1053898D01*
X230574Y1052375D01*
X229052Y1050391D01*
X228095Y1048080D01*
X227768Y1045600D01*
X228095Y1043120D01*
X229052Y1040809D01*
X230574Y1038824D01*
X232559Y1037302D01*
X234870Y1036345D01*
X237350Y1036018D01*
X239830Y1036345D01*
X242141Y1037302D01*
X244125Y1038824D01*
X245648Y1040809D01*
X246605Y1043120D01*
X246932Y1045600D01*
X246605Y1048080D01*
X245648Y1050391D01*
X244125Y1052375D01*
X242141Y1053898D01*
X239830Y1054855D01*
X237350Y1055182D01*
D02*
G37*
G36*
X109670Y1041659D02*
Y1032970D01*
X118359D01*
X118182Y1034321D01*
X117170Y1036763D01*
X115561Y1038861D01*
X113463Y1040470D01*
X111021Y1041482D01*
X109670Y1041659D01*
D02*
G37*
G36*
X84270D02*
Y1032970D01*
X92959D01*
X92782Y1034321D01*
X91770Y1036763D01*
X90161Y1038861D01*
X88063Y1040470D01*
X85621Y1041482D01*
X84270Y1041659D01*
D02*
G37*
G36*
X81730Y1041659D02*
X80379Y1041482D01*
X77937Y1040470D01*
X75839Y1038861D01*
X74230Y1036763D01*
X73218Y1034321D01*
X73041Y1032970D01*
X81730D01*
Y1041659D01*
D02*
G37*
G36*
X107130D02*
X105779Y1041482D01*
X103337Y1040470D01*
X101239Y1038861D01*
X99630Y1036763D01*
X98618Y1034321D01*
X98441Y1032970D01*
X107130D01*
Y1041659D01*
D02*
G37*
G36*
X588020Y1041559D02*
Y1032870D01*
X596709D01*
X596532Y1034221D01*
X595520Y1036663D01*
X593911Y1038761D01*
X591813Y1040370D01*
X589371Y1041382D01*
X588020Y1041559D01*
D02*
G37*
G36*
X562620D02*
Y1032870D01*
X571309D01*
X571132Y1034221D01*
X570120Y1036663D01*
X568511Y1038761D01*
X566413Y1040370D01*
X563971Y1041382D01*
X562620Y1041559D01*
D02*
G37*
G36*
X585480Y1041559D02*
X584129Y1041382D01*
X581687Y1040370D01*
X579589Y1038761D01*
X577980Y1036663D01*
X576968Y1034221D01*
X576791Y1032870D01*
X585480D01*
Y1041559D01*
D02*
G37*
G36*
X560080D02*
X558729Y1041382D01*
X556287Y1040370D01*
X554189Y1038761D01*
X552580Y1036663D01*
X551568Y1034221D01*
X551391Y1032870D01*
X560080D01*
Y1041559D01*
D02*
G37*
G36*
X431750Y1039358D02*
X429604Y1038931D01*
X427785Y1037715D01*
X426569Y1035896D01*
X426142Y1033750D01*
X426569Y1031604D01*
X427785Y1029785D01*
X429604Y1028569D01*
X431750Y1028142D01*
X433896Y1028569D01*
X435715Y1029785D01*
X436931Y1031604D01*
X437358Y1033750D01*
X436931Y1035896D01*
X435715Y1037715D01*
X433896Y1038931D01*
X431750Y1039358D01*
D02*
G37*
G36*
X118359Y1030430D02*
X109670D01*
Y1021741D01*
X111021Y1021918D01*
X113463Y1022930D01*
X115561Y1024539D01*
X117170Y1026637D01*
X118182Y1029079D01*
X118359Y1030430D01*
D02*
G37*
G36*
X92959D02*
X84270D01*
Y1021741D01*
X85621Y1021918D01*
X88063Y1022930D01*
X90161Y1024539D01*
X91770Y1026637D01*
X92782Y1029079D01*
X92959Y1030430D01*
D02*
G37*
G36*
X107130D02*
X98441D01*
X98618Y1029079D01*
X99630Y1026637D01*
X101239Y1024539D01*
X103337Y1022930D01*
X105779Y1021918D01*
X107130Y1021741D01*
Y1030430D01*
D02*
G37*
G36*
X81730D02*
X73041D01*
X73218Y1029079D01*
X74230Y1026637D01*
X75839Y1024539D01*
X77937Y1022930D01*
X80379Y1021918D01*
X81730Y1021741D01*
Y1030430D01*
D02*
G37*
G36*
X585480Y1030330D02*
X576791D01*
X576968Y1028979D01*
X577980Y1026537D01*
X579589Y1024439D01*
X581687Y1022830D01*
X584129Y1021818D01*
X585480Y1021641D01*
Y1030330D01*
D02*
G37*
G36*
X560080D02*
X551391D01*
X551568Y1028979D01*
X552580Y1026537D01*
X554189Y1024439D01*
X556287Y1022830D01*
X558729Y1021818D01*
X560080Y1021641D01*
Y1030330D01*
D02*
G37*
G36*
X596709D02*
X588020D01*
Y1021641D01*
X589371Y1021818D01*
X591813Y1022830D01*
X593911Y1024439D01*
X595520Y1026537D01*
X596532Y1028979D01*
X596709Y1030330D01*
D02*
G37*
G36*
X571309D02*
X562620D01*
Y1021641D01*
X563971Y1021818D01*
X566413Y1022830D01*
X568511Y1024439D01*
X570120Y1026537D01*
X571132Y1028979D01*
X571309Y1030330D01*
D02*
G37*
G36*
X369350Y1029782D02*
X366870Y1029455D01*
X364559Y1028498D01*
X362575Y1026975D01*
X361052Y1024991D01*
X360095Y1022680D01*
X359768Y1020200D01*
X360095Y1017720D01*
X361052Y1015409D01*
X362575Y1013425D01*
X364559Y1011902D01*
X366870Y1010945D01*
X369350Y1010618D01*
X371830Y1010945D01*
X374141Y1011902D01*
X376125Y1013425D01*
X377648Y1015409D01*
X378605Y1017720D01*
X378932Y1020200D01*
X378605Y1022680D01*
X377648Y1024991D01*
X376125Y1026975D01*
X374141Y1028498D01*
X371830Y1029455D01*
X369350Y1029782D01*
D02*
G37*
G36*
X293150D02*
X290670Y1029455D01*
X288359Y1028498D01*
X286375Y1026975D01*
X284852Y1024991D01*
X283895Y1022680D01*
X283568Y1020200D01*
X283895Y1017720D01*
X284852Y1015409D01*
X286375Y1013425D01*
X288359Y1011902D01*
X290670Y1010945D01*
X293150Y1010618D01*
X295630Y1010945D01*
X297941Y1011902D01*
X299925Y1013425D01*
X301448Y1015409D01*
X302405Y1017720D01*
X302732Y1020200D01*
X302405Y1022680D01*
X301448Y1024991D01*
X299925Y1026975D01*
X297941Y1028498D01*
X295630Y1029455D01*
X293150Y1029782D01*
D02*
G37*
G36*
X237350D02*
X234870Y1029455D01*
X232559Y1028498D01*
X230574Y1026975D01*
X229052Y1024991D01*
X228095Y1022680D01*
X227768Y1020200D01*
X228095Y1017720D01*
X229052Y1015409D01*
X230574Y1013425D01*
X232559Y1011902D01*
X234870Y1010945D01*
X237350Y1010618D01*
X239830Y1010945D01*
X242141Y1011902D01*
X244125Y1013425D01*
X245648Y1015409D01*
X246605Y1017720D01*
X246932Y1020200D01*
X246605Y1022680D01*
X245648Y1024991D01*
X244125Y1026975D01*
X242141Y1028498D01*
X239830Y1029455D01*
X237350Y1029782D01*
D02*
G37*
G36*
X108400Y1015882D02*
X105920Y1015555D01*
X103609Y1014598D01*
X101624Y1013075D01*
X100102Y1011091D01*
X99144Y1008780D01*
X98818Y1006300D01*
X99144Y1003820D01*
X100102Y1001509D01*
X101624Y999525D01*
X103609Y998002D01*
X105920Y997045D01*
X108400Y996718D01*
X110880Y997045D01*
X113191Y998002D01*
X115175Y999525D01*
X116698Y1001509D01*
X117655Y1003820D01*
X117982Y1006300D01*
X117655Y1008780D01*
X116698Y1011091D01*
X115175Y1013075D01*
X113191Y1014598D01*
X110880Y1015555D01*
X108400Y1015882D01*
D02*
G37*
G36*
X83000D02*
X80520Y1015555D01*
X78209Y1014598D01*
X76224Y1013075D01*
X74702Y1011091D01*
X73745Y1008780D01*
X73418Y1006300D01*
X73745Y1003820D01*
X74702Y1001509D01*
X76224Y999525D01*
X78209Y998002D01*
X80520Y997045D01*
X83000Y996718D01*
X85480Y997045D01*
X87791Y998002D01*
X89775Y999525D01*
X91298Y1001509D01*
X92255Y1003820D01*
X92582Y1006300D01*
X92255Y1008780D01*
X91298Y1011091D01*
X89775Y1013075D01*
X87791Y1014598D01*
X85480Y1015555D01*
X83000Y1015882D01*
D02*
G37*
G36*
X586750Y1015782D02*
X584270Y1015455D01*
X581959Y1014498D01*
X579975Y1012975D01*
X578452Y1010991D01*
X577495Y1008680D01*
X577168Y1006200D01*
X577495Y1003720D01*
X578452Y1001409D01*
X579975Y999425D01*
X581959Y997902D01*
X584270Y996945D01*
X586750Y996618D01*
X589230Y996945D01*
X591541Y997902D01*
X593526Y999425D01*
X595048Y1001409D01*
X596006Y1003720D01*
X596332Y1006200D01*
X596006Y1008680D01*
X595048Y1010991D01*
X593526Y1012975D01*
X591541Y1014498D01*
X589230Y1015455D01*
X586750Y1015782D01*
D02*
G37*
G36*
X561350D02*
X558870Y1015455D01*
X556559Y1014498D01*
X554575Y1012975D01*
X553052Y1010991D01*
X552095Y1008680D01*
X551768Y1006200D01*
X552095Y1003720D01*
X553052Y1001409D01*
X554575Y999425D01*
X556559Y997902D01*
X558870Y996945D01*
X561350Y996618D01*
X563830Y996945D01*
X566141Y997902D01*
X568125Y999425D01*
X569648Y1001409D01*
X570606Y1003720D01*
X570932Y1006200D01*
X570606Y1008680D01*
X569648Y1010991D01*
X568125Y1012975D01*
X566141Y1014498D01*
X563830Y1015455D01*
X561350Y1015782D01*
D02*
G37*
G36*
X369350Y1004382D02*
X366870Y1004055D01*
X364559Y1003098D01*
X362575Y1001575D01*
X361052Y999591D01*
X360095Y997280D01*
X359768Y994800D01*
X360095Y992320D01*
X361052Y990009D01*
X362575Y988025D01*
X364559Y986502D01*
X366870Y985545D01*
X369350Y985218D01*
X371830Y985545D01*
X374141Y986502D01*
X376125Y988025D01*
X377648Y990009D01*
X378605Y992320D01*
X378932Y994800D01*
X378605Y997280D01*
X377648Y999591D01*
X376125Y1001575D01*
X374141Y1003098D01*
X371830Y1004055D01*
X369350Y1004382D01*
D02*
G37*
G36*
X237350D02*
X234870Y1004055D01*
X232559Y1003098D01*
X230574Y1001575D01*
X229052Y999591D01*
X228095Y997280D01*
X227768Y994800D01*
X228095Y992320D01*
X229052Y990009D01*
X230574Y988025D01*
X232559Y986502D01*
X234870Y985545D01*
X237350Y985218D01*
X239830Y985545D01*
X242141Y986502D01*
X244125Y988025D01*
X245648Y990009D01*
X246605Y992320D01*
X246932Y994800D01*
X246605Y997280D01*
X245648Y999591D01*
X244125Y1001575D01*
X242141Y1003098D01*
X239830Y1004055D01*
X237350Y1004382D01*
D02*
G37*
G36*
X109670Y990859D02*
Y982170D01*
X118359D01*
X118182Y983521D01*
X117170Y985963D01*
X115561Y988061D01*
X113463Y989670D01*
X111021Y990682D01*
X109670Y990859D01*
D02*
G37*
G36*
X84270D02*
Y982170D01*
X92959D01*
X92782Y983521D01*
X91770Y985963D01*
X90161Y988061D01*
X88063Y989670D01*
X85621Y990682D01*
X84270Y990859D01*
D02*
G37*
G36*
X107130Y990859D02*
X105779Y990682D01*
X103337Y989670D01*
X101239Y988061D01*
X99630Y985963D01*
X98618Y983521D01*
X98441Y982170D01*
X107130D01*
Y990859D01*
D02*
G37*
G36*
X81730D02*
X80379Y990682D01*
X77937Y989670D01*
X75839Y988061D01*
X74230Y985963D01*
X73218Y983521D01*
X73041Y982170D01*
X81730D01*
Y990859D01*
D02*
G37*
G36*
X588020Y990759D02*
Y982070D01*
X596709D01*
X596532Y983421D01*
X595520Y985863D01*
X593911Y987961D01*
X591813Y989570D01*
X589371Y990582D01*
X588020Y990759D01*
D02*
G37*
G36*
X562620D02*
Y982070D01*
X571309D01*
X571132Y983421D01*
X570120Y985863D01*
X568511Y987961D01*
X566413Y989570D01*
X563971Y990582D01*
X562620Y990759D01*
D02*
G37*
G36*
X585480Y990759D02*
X584129Y990582D01*
X581687Y989570D01*
X579589Y987961D01*
X577980Y985863D01*
X576968Y983421D01*
X576791Y982070D01*
X585480D01*
Y990759D01*
D02*
G37*
G36*
X560080D02*
X558729Y990582D01*
X556287Y989570D01*
X554189Y987961D01*
X552580Y985863D01*
X551568Y983421D01*
X551391Y982070D01*
X560080D01*
Y990759D01*
D02*
G37*
G36*
X118359Y979630D02*
X109670D01*
Y970941D01*
X111021Y971118D01*
X113463Y972130D01*
X115561Y973739D01*
X117170Y975837D01*
X118182Y978279D01*
X118359Y979630D01*
D02*
G37*
G36*
X92959D02*
X84270D01*
Y970941D01*
X85621Y971118D01*
X88063Y972130D01*
X90161Y973739D01*
X91770Y975837D01*
X92782Y978279D01*
X92959Y979630D01*
D02*
G37*
G36*
X107130D02*
X98441D01*
X98618Y978279D01*
X99630Y975837D01*
X101239Y973739D01*
X103337Y972130D01*
X105779Y971118D01*
X107130Y970941D01*
Y979630D01*
D02*
G37*
G36*
X81730D02*
X73041D01*
X73218Y978279D01*
X74230Y975837D01*
X75839Y973739D01*
X77937Y972130D01*
X80379Y971118D01*
X81730Y970941D01*
Y979630D01*
D02*
G37*
G36*
X585480Y979530D02*
X576791D01*
X576968Y978179D01*
X577980Y975737D01*
X579589Y973639D01*
X581687Y972030D01*
X584129Y971018D01*
X585480Y970841D01*
Y979530D01*
D02*
G37*
G36*
X560080D02*
X551391D01*
X551568Y978179D01*
X552580Y975737D01*
X554189Y973639D01*
X556287Y972030D01*
X558729Y971018D01*
X560080Y970841D01*
Y979530D01*
D02*
G37*
G36*
X596709D02*
X588020D01*
Y970841D01*
X589371Y971018D01*
X591813Y972030D01*
X593911Y973639D01*
X595520Y975737D01*
X596532Y978179D01*
X596709Y979530D01*
D02*
G37*
G36*
X571309D02*
X562620D01*
Y970841D01*
X563971Y971018D01*
X566413Y972030D01*
X568511Y973639D01*
X570120Y975737D01*
X571132Y978179D01*
X571309Y979530D01*
D02*
G37*
G36*
X369350Y978982D02*
X366870Y978655D01*
X364559Y977698D01*
X362575Y976175D01*
X361052Y974191D01*
X360095Y971880D01*
X359768Y969400D01*
X360095Y966920D01*
X361052Y964609D01*
X362575Y962625D01*
X364559Y961102D01*
X366870Y960145D01*
X369350Y959818D01*
X371830Y960145D01*
X374141Y961102D01*
X376125Y962625D01*
X377648Y964609D01*
X378605Y966920D01*
X378932Y969400D01*
X378605Y971880D01*
X377648Y974191D01*
X376125Y976175D01*
X374141Y977698D01*
X371830Y978655D01*
X369350Y978982D01*
D02*
G37*
G36*
X293150D02*
X290670Y978655D01*
X288359Y977698D01*
X286375Y976175D01*
X284852Y974191D01*
X283895Y971880D01*
X283568Y969400D01*
X283895Y966920D01*
X284852Y964609D01*
X286375Y962625D01*
X288359Y961102D01*
X290670Y960145D01*
X293150Y959818D01*
X295630Y960145D01*
X297941Y961102D01*
X299925Y962625D01*
X301448Y964609D01*
X302405Y966920D01*
X302732Y969400D01*
X302405Y971880D01*
X301448Y974191D01*
X299925Y976175D01*
X297941Y977698D01*
X295630Y978655D01*
X293150Y978982D01*
D02*
G37*
G36*
X237350D02*
X234870Y978655D01*
X232559Y977698D01*
X230574Y976175D01*
X229052Y974191D01*
X228095Y971880D01*
X227768Y969400D01*
X228095Y966920D01*
X229052Y964609D01*
X230574Y962625D01*
X232559Y961102D01*
X234870Y960145D01*
X237350Y959818D01*
X239830Y960145D01*
X242141Y961102D01*
X244125Y962625D01*
X245648Y964609D01*
X246605Y966920D01*
X246932Y969400D01*
X246605Y971880D01*
X245648Y974191D01*
X244125Y976175D01*
X242141Y977698D01*
X239830Y978655D01*
X237350Y978982D01*
D02*
G37*
G36*
X161150D02*
X158670Y978655D01*
X156359Y977698D01*
X154375Y976175D01*
X152852Y974191D01*
X151895Y971880D01*
X151568Y969400D01*
X151895Y966920D01*
X152852Y964609D01*
X154375Y962625D01*
X156359Y961102D01*
X158670Y960145D01*
X161150Y959818D01*
X163630Y960145D01*
X165941Y961102D01*
X167925Y962625D01*
X169448Y964609D01*
X170406Y966920D01*
X170732Y969400D01*
X170406Y971880D01*
X169448Y974191D01*
X167925Y976175D01*
X165941Y977698D01*
X163630Y978655D01*
X161150Y978982D01*
D02*
G37*
G36*
X117900Y965000D02*
X98900D01*
Y946000D01*
X117900D01*
Y965000D01*
D02*
G37*
G36*
X83000Y965082D02*
X80520Y964755D01*
X78209Y963798D01*
X76224Y962275D01*
X74702Y960291D01*
X73745Y957980D01*
X73418Y955500D01*
X73745Y953020D01*
X74702Y950709D01*
X76224Y948725D01*
X78209Y947202D01*
X80520Y946245D01*
X83000Y945918D01*
X85480Y946245D01*
X87791Y947202D01*
X89775Y948725D01*
X91298Y950709D01*
X92255Y953020D01*
X92582Y955500D01*
X92255Y957980D01*
X91298Y960291D01*
X89775Y962275D01*
X87791Y963798D01*
X85480Y964755D01*
X83000Y965082D01*
D02*
G37*
G36*
X586750Y964982D02*
X584270Y964655D01*
X581959Y963698D01*
X579975Y962175D01*
X578452Y960191D01*
X577495Y957880D01*
X577168Y955400D01*
X577495Y952920D01*
X578452Y950609D01*
X579975Y948624D01*
X581959Y947102D01*
X584270Y946144D01*
X586750Y945818D01*
X589230Y946144D01*
X591541Y947102D01*
X593526Y948624D01*
X595048Y950609D01*
X596006Y952920D01*
X596332Y955400D01*
X596006Y957880D01*
X595048Y960191D01*
X593526Y962175D01*
X591541Y963698D01*
X589230Y964655D01*
X586750Y964982D01*
D02*
G37*
G36*
X561350D02*
X558870Y964655D01*
X556559Y963698D01*
X554575Y962175D01*
X553052Y960191D01*
X552095Y957880D01*
X551768Y955400D01*
X552095Y952920D01*
X553052Y950609D01*
X554575Y948624D01*
X556559Y947102D01*
X558870Y946144D01*
X561350Y945818D01*
X563830Y946144D01*
X566141Y947102D01*
X568125Y948624D01*
X569648Y950609D01*
X570606Y952920D01*
X570932Y955400D01*
X570606Y957880D01*
X569648Y960191D01*
X568125Y962175D01*
X566141Y963698D01*
X563830Y964655D01*
X561350Y964982D01*
D02*
G37*
G36*
X164500Y882108D02*
X162354Y881681D01*
X160535Y880465D01*
X159319Y878646D01*
X158892Y876500D01*
X159319Y874354D01*
X160535Y872535D01*
X162354Y871319D01*
X164500Y870892D01*
X166646Y871319D01*
X167163Y871665D01*
X167383Y871635D01*
X168487Y871022D01*
X168819Y869354D01*
X170035Y867535D01*
X171854Y866319D01*
X174000Y865892D01*
X176146Y866319D01*
X177965Y867535D01*
X179181Y869354D01*
X179608Y871500D01*
X179181Y873646D01*
X177965Y875465D01*
X176146Y876681D01*
X174000Y877108D01*
X171854Y876681D01*
X171337Y876335D01*
X171117Y876365D01*
X170013Y876978D01*
X169681Y878646D01*
X168465Y880465D01*
X166646Y881681D01*
X164500Y882108D01*
D02*
G37*
G36*
X326270Y849959D02*
Y841270D01*
X334959D01*
X334782Y842621D01*
X333770Y845063D01*
X332161Y847161D01*
X330063Y848770D01*
X327621Y849782D01*
X326270Y849959D01*
D02*
G37*
G36*
X323730D02*
X322379Y849782D01*
X319937Y848770D01*
X317839Y847161D01*
X316230Y845063D01*
X315219Y842621D01*
X315041Y841270D01*
X323730D01*
Y849959D01*
D02*
G37*
G36*
X350400Y849582D02*
X347920Y849256D01*
X345609Y848298D01*
X343625Y846775D01*
X342102Y844791D01*
X341145Y842480D01*
X340818Y840000D01*
X341145Y837520D01*
X342102Y835209D01*
X343625Y833224D01*
X345609Y831702D01*
X347920Y830744D01*
X350400Y830418D01*
X352880Y830744D01*
X355191Y831702D01*
X357175Y833224D01*
X358698Y835209D01*
X359655Y837520D01*
X359982Y840000D01*
X359655Y842480D01*
X358698Y844791D01*
X357175Y846775D01*
X355191Y848298D01*
X352880Y849256D01*
X350400Y849582D01*
D02*
G37*
G36*
X299600D02*
X297120Y849256D01*
X294809Y848298D01*
X292825Y846775D01*
X291302Y844791D01*
X290345Y842480D01*
X290018Y840000D01*
X290345Y837520D01*
X291302Y835209D01*
X292825Y833224D01*
X294809Y831702D01*
X297120Y830744D01*
X299600Y830418D01*
X302080Y830744D01*
X304391Y831702D01*
X306376Y833224D01*
X307898Y835209D01*
X308855Y837520D01*
X309182Y840000D01*
X308855Y842480D01*
X307898Y844791D01*
X306376Y846775D01*
X304391Y848298D01*
X302080Y849256D01*
X299600Y849582D01*
D02*
G37*
G36*
X334959Y838730D02*
X326270D01*
Y830041D01*
X327621Y830218D01*
X330063Y831230D01*
X332161Y832839D01*
X333770Y834937D01*
X334782Y837379D01*
X334959Y838730D01*
D02*
G37*
G36*
X323730D02*
X315041D01*
X315219Y837379D01*
X316230Y834937D01*
X317839Y832839D01*
X319937Y831230D01*
X322379Y830218D01*
X323730Y830041D01*
Y838730D01*
D02*
G37*
G36*
X199862Y829746D02*
X197716Y829319D01*
X195896Y828104D01*
X194681Y826284D01*
X194254Y824138D01*
X194681Y821992D01*
X195896Y820173D01*
X197716Y818957D01*
X199862Y818531D01*
X202008Y818957D01*
X203827Y820173D01*
X205043Y821992D01*
X205469Y824138D01*
X205043Y826284D01*
X203827Y828104D01*
X202008Y829319D01*
X199862Y829746D01*
D02*
G37*
G36*
X219000Y828858D02*
X216854Y828431D01*
X215035Y827215D01*
X213819Y825396D01*
X213392Y823250D01*
X213819Y821104D01*
X215035Y819285D01*
X216854Y818069D01*
X219000Y817642D01*
X221146Y818069D01*
X222965Y819285D01*
X224181Y821104D01*
X224608Y823250D01*
X224181Y825396D01*
X222965Y827215D01*
X221146Y828431D01*
X219000Y828858D01*
D02*
G37*
G36*
X326520Y814459D02*
Y805770D01*
X335210D01*
X335032Y807121D01*
X334020Y809563D01*
X332411Y811661D01*
X330313Y813270D01*
X327871Y814282D01*
X326520Y814459D01*
D02*
G37*
G36*
X323980Y814459D02*
X322629Y814282D01*
X320187Y813270D01*
X318089Y811661D01*
X316480Y809563D01*
X315469Y807121D01*
X315291Y805770D01*
X323980D01*
Y814459D01*
D02*
G37*
G36*
X385550Y814000D02*
X366550D01*
Y795000D01*
X385550D01*
Y814000D01*
D02*
G37*
G36*
X350650Y814082D02*
X348170Y813755D01*
X345859Y812798D01*
X343875Y811275D01*
X342352Y809291D01*
X341395Y806980D01*
X341068Y804500D01*
X341395Y802020D01*
X342352Y799709D01*
X343875Y797725D01*
X345859Y796202D01*
X348170Y795245D01*
X350650Y794918D01*
X353130Y795245D01*
X355441Y796202D01*
X357425Y797725D01*
X358948Y799709D01*
X359906Y802020D01*
X360232Y804500D01*
X359906Y806980D01*
X358948Y809291D01*
X357425Y811275D01*
X355441Y812798D01*
X353130Y813755D01*
X350650Y814082D01*
D02*
G37*
G36*
X299850D02*
X297370Y813755D01*
X295059Y812798D01*
X293075Y811275D01*
X291552Y809291D01*
X290595Y806980D01*
X290268Y804500D01*
X290595Y802020D01*
X291552Y799709D01*
X293075Y797725D01*
X295059Y796202D01*
X297370Y795245D01*
X299850Y794918D01*
X302330Y795245D01*
X304641Y796202D01*
X306625Y797725D01*
X308148Y799709D01*
X309105Y802020D01*
X309432Y804500D01*
X309105Y806980D01*
X308148Y809291D01*
X306625Y811275D01*
X304641Y812798D01*
X302330Y813755D01*
X299850Y814082D01*
D02*
G37*
G36*
X335209Y803230D02*
X326520D01*
Y794541D01*
X327871Y794718D01*
X330313Y795730D01*
X332411Y797339D01*
X334020Y799437D01*
X335032Y801879D01*
X335209Y803230D01*
D02*
G37*
G36*
X323980D02*
X315291D01*
X315469Y801879D01*
X316480Y799437D01*
X318089Y797339D01*
X320187Y795730D01*
X322629Y794718D01*
X323980Y794540D01*
Y803230D01*
D02*
G37*
G36*
X151750Y794358D02*
X149604Y793931D01*
X147785Y792715D01*
X146569Y790896D01*
X146142Y788750D01*
X146569Y786604D01*
X147785Y784785D01*
X149604Y783569D01*
X151750Y783142D01*
X153896Y783569D01*
X155715Y784785D01*
X156931Y786604D01*
X157358Y788750D01*
X156931Y790896D01*
X155715Y792715D01*
X153896Y793931D01*
X151750Y794358D01*
D02*
G37*
G36*
X523000Y792858D02*
X520854Y792431D01*
X519035Y791215D01*
X517819Y789396D01*
X517392Y787250D01*
X517819Y785104D01*
X519035Y783285D01*
X520854Y782069D01*
X523000Y781642D01*
X525146Y782069D01*
X526965Y783285D01*
X528181Y785104D01*
X528608Y787250D01*
X528181Y789396D01*
X526965Y791215D01*
X525146Y792431D01*
X523000Y792858D01*
D02*
G37*
G36*
X395019Y785642D02*
X392873Y785215D01*
X391054Y783999D01*
X389838Y782180D01*
X389412Y780034D01*
X389838Y777888D01*
X391054Y776069D01*
X392873Y774853D01*
X395019Y774426D01*
X397165Y774853D01*
X398984Y776069D01*
X400200Y777888D01*
X400627Y780034D01*
X400200Y782180D01*
X398984Y783999D01*
X397165Y785215D01*
X395019Y785642D01*
D02*
G37*
G36*
X170500Y778858D02*
X168354Y778431D01*
X166535Y777215D01*
X165319Y775396D01*
X164892Y773250D01*
X165319Y771104D01*
X166535Y769285D01*
X168354Y768069D01*
X170500Y767642D01*
X172646Y768069D01*
X174465Y769285D01*
X175681Y771104D01*
X176108Y773250D01*
X175681Y775396D01*
X174465Y777215D01*
X172646Y778431D01*
X170500Y778858D01*
D02*
G37*
G36*
X159250Y805568D02*
X98429D01*
X97063Y805297D01*
X95906Y804523D01*
X49477Y758094D01*
X48703Y756937D01*
X48431Y755571D01*
Y641000D01*
X48703Y639634D01*
X49477Y638477D01*
X130681Y557272D01*
Y535980D01*
X130285Y535715D01*
X129069Y533896D01*
X128642Y531750D01*
X129069Y529604D01*
X130285Y527785D01*
X130681Y527520D01*
Y399959D01*
X129411Y399573D01*
X129076Y400076D01*
X127091Y401402D01*
X124750Y401867D01*
X122409Y401402D01*
X120424Y400076D01*
X120197Y399736D01*
X118927D01*
X118701Y400076D01*
X116716Y401402D01*
X114375Y401867D01*
X112034Y401402D01*
X110049Y400076D01*
X109823Y399736D01*
X108553D01*
X108326Y400076D01*
X106341Y401402D01*
X104000Y401867D01*
X101659Y401402D01*
X99674Y400076D01*
X98348Y398091D01*
X97882Y395750D01*
X98348Y393409D01*
X99130Y392239D01*
X99593Y391250D01*
X99130Y390261D01*
X98348Y389091D01*
X97882Y386750D01*
X98348Y384409D01*
X99674Y382424D01*
X101659Y381098D01*
X104000Y380633D01*
X106341Y381098D01*
X108326Y382424D01*
X108553Y382764D01*
X109823D01*
X110049Y382424D01*
X112034Y381098D01*
X114375Y380633D01*
X116716Y381098D01*
X118701Y382424D01*
X118927Y382764D01*
X120197D01*
X120424Y382424D01*
X122409Y381098D01*
X124750Y380633D01*
X127091Y381098D01*
X129076Y382424D01*
X129411Y382927D01*
X130681Y382541D01*
Y362000D01*
X130953Y360634D01*
X131727Y359477D01*
X142567Y348636D01*
X142142Y346500D01*
X142569Y344354D01*
X143785Y342535D01*
X145604Y341319D01*
X147750Y340892D01*
X149896Y341319D01*
X151715Y342535D01*
X152931Y344354D01*
X153358Y346500D01*
X152931Y348646D01*
X151715Y350465D01*
X149896Y351681D01*
X149546Y351750D01*
X137819Y363478D01*
Y527520D01*
X138215Y527785D01*
X139431Y529604D01*
X139858Y531750D01*
X139431Y533896D01*
X138215Y535715D01*
X137819Y535980D01*
Y558750D01*
X137547Y560116D01*
X136773Y561273D01*
X55569Y642478D01*
Y754093D01*
X99907Y798431D01*
X157772D01*
X190477Y765727D01*
X191634Y764953D01*
X193000Y764681D01*
X208770D01*
X209035Y764285D01*
X210854Y763069D01*
X213000Y762642D01*
X215146Y763069D01*
X216965Y764285D01*
X218181Y766104D01*
X218608Y768250D01*
X218181Y770396D01*
X216965Y772215D01*
X215146Y773431D01*
X213000Y773858D01*
X212089Y773676D01*
X211652Y774123D01*
X211220Y774799D01*
X211608Y776750D01*
X211181Y778896D01*
X209965Y780715D01*
X208146Y781931D01*
X206000Y782358D01*
X203854Y781931D01*
X202035Y780715D01*
X200819Y778896D01*
X200392Y776750D01*
X200819Y774604D01*
X201832Y773089D01*
X201369Y771819D01*
X194478D01*
X161773Y804523D01*
X160616Y805297D01*
X159250Y805568D01*
D02*
G37*
G36*
X447765Y768123D02*
X445619Y767696D01*
X443800Y766481D01*
X442584Y764661D01*
X442158Y762515D01*
X442584Y760369D01*
X443800Y758550D01*
X445619Y757335D01*
X447765Y756908D01*
X449911Y757335D01*
X451731Y758550D01*
X452946Y760369D01*
X453373Y762515D01*
X452946Y764661D01*
X451731Y766481D01*
X449911Y767696D01*
X447765Y768123D01*
D02*
G37*
G36*
X599750Y673108D02*
X597604Y672681D01*
X595785Y671465D01*
X594569Y669646D01*
X594142Y667500D01*
X594569Y665354D01*
X595785Y663535D01*
X597604Y662319D01*
X599750Y661892D01*
X601896Y662319D01*
X603715Y663535D01*
X604931Y665354D01*
X605358Y667500D01*
X604931Y669646D01*
X603715Y671465D01*
X601896Y672681D01*
X599750Y673108D01*
D02*
G37*
G36*
X311150D02*
X309004Y672681D01*
X307185Y671465D01*
X305969Y669646D01*
X305542Y667500D01*
X305969Y665354D01*
X307185Y663535D01*
X309004Y662319D01*
X311150Y661892D01*
X313296Y662319D01*
X315115Y663535D01*
X316331Y665354D01*
X316758Y667500D01*
X316331Y669646D01*
X315115Y671465D01*
X313296Y672681D01*
X311150Y673108D01*
D02*
G37*
G36*
X452154Y958762D02*
X450008Y958335D01*
X448189Y957119D01*
X446973Y955300D01*
X446546Y953154D01*
X446973Y951008D01*
X448189Y949189D01*
X450008Y947973D01*
X450390Y947897D01*
X450658Y946549D01*
X449785Y945965D01*
X448569Y944146D01*
X448142Y942000D01*
X448569Y939854D01*
X449785Y938035D01*
X451604Y936819D01*
X453750Y936392D01*
X454819Y936605D01*
X532191Y859233D01*
Y659189D01*
X525311Y652309D01*
X502267D01*
X501662Y653215D01*
X501368Y653411D01*
X501753Y654681D01*
X517000D01*
X518366Y654953D01*
X519523Y655727D01*
X528023Y664227D01*
X528797Y665384D01*
X529069Y666750D01*
Y762689D01*
X530181Y764354D01*
X530608Y766500D01*
X530181Y768646D01*
X528965Y770465D01*
X527146Y771681D01*
X525000Y772108D01*
X522854Y771681D01*
X521035Y770465D01*
X519819Y768646D01*
X519392Y766500D01*
X519819Y764354D01*
X521035Y762535D01*
X521931Y761936D01*
Y668228D01*
X515522Y661819D01*
X507233D01*
X506847Y663089D01*
X507515Y663535D01*
X508731Y665354D01*
X509158Y667500D01*
X508731Y669646D01*
X507515Y671465D01*
X505696Y672681D01*
X503550Y673108D01*
X501404Y672681D01*
X499585Y671465D01*
X498369Y669646D01*
X497942Y667500D01*
X498369Y665354D01*
X499585Y663535D01*
X500252Y663089D01*
X499867Y661819D01*
X489500D01*
X488134Y661547D01*
X486977Y660773D01*
X419227Y593023D01*
X418453Y591866D01*
X418181Y590500D01*
Y534980D01*
X417785Y534715D01*
X417186Y533819D01*
X361250D01*
X359884Y533547D01*
X358727Y532773D01*
X349227Y523273D01*
X348453Y522116D01*
X348181Y520750D01*
Y359980D01*
X347785Y359715D01*
X346569Y357896D01*
X346142Y355750D01*
X346569Y353604D01*
X347785Y351785D01*
X349604Y350569D01*
X351750Y350142D01*
X353896Y350569D01*
X355715Y351785D01*
X356931Y353604D01*
X357358Y355750D01*
X356931Y357896D01*
X355715Y359715D01*
X355319Y359980D01*
Y519272D01*
X362728Y526681D01*
X417939D01*
X419604Y525569D01*
X421750Y525142D01*
X423896Y525569D01*
X425715Y526785D01*
X426931Y528604D01*
X427358Y530750D01*
X426931Y532896D01*
X425715Y534715D01*
X425319Y534980D01*
Y589022D01*
X490978Y654681D01*
X493639D01*
X494025Y653411D01*
X493731Y653215D01*
X492515Y651396D01*
X492089Y649250D01*
X492515Y647104D01*
X493731Y645285D01*
X495550Y644069D01*
X497696Y643642D01*
X499842Y644069D01*
X501662Y645285D01*
X502267Y646191D01*
X526578D01*
X526578Y646191D01*
X527749Y646424D01*
X528741Y647087D01*
X537413Y655759D01*
X538076Y656751D01*
X538309Y657922D01*
X538309Y657922D01*
Y860500D01*
X538076Y861671D01*
X537413Y862663D01*
X537413Y862663D01*
X517988Y882088D01*
X518613Y883258D01*
X519084Y883165D01*
X520509D01*
X584691Y818983D01*
Y656670D01*
X584691Y656669D01*
X584924Y655499D01*
X585587Y654507D01*
X588525Y651569D01*
X588312Y650500D01*
X588739Y648354D01*
X589954Y646535D01*
X591773Y645319D01*
X593919Y644892D01*
X596065Y645319D01*
X597885Y646535D01*
X599100Y648354D01*
X599527Y650500D01*
X599100Y652646D01*
X597885Y654465D01*
X596065Y655681D01*
X593919Y656108D01*
X592850Y655895D01*
X590809Y657936D01*
Y820250D01*
X590576Y821421D01*
X589913Y822413D01*
X589913Y822413D01*
X523939Y888386D01*
X522947Y889050D01*
X521777Y889282D01*
X521776Y889282D01*
X520351D01*
X457549Y952085D01*
X457761Y953154D01*
X457335Y955300D01*
X456119Y957119D01*
X454300Y958335D01*
X452154Y958762D01*
D02*
G37*
G36*
X305250Y654858D02*
X303104Y654431D01*
X301285Y653215D01*
X300069Y651396D01*
X299642Y649250D01*
X300069Y647104D01*
X301285Y645285D01*
X303104Y644069D01*
X305250Y643642D01*
X307396Y644069D01*
X309215Y645285D01*
X310431Y647104D01*
X310858Y649250D01*
X310431Y651396D01*
X309215Y653215D01*
X307396Y654431D01*
X305250Y654858D01*
D02*
G37*
G36*
X112804D02*
X110658Y654431D01*
X108838Y653215D01*
X107623Y651396D01*
X107196Y649250D01*
X107623Y647104D01*
X108838Y645285D01*
X110658Y644069D01*
X112804Y643642D01*
X114950Y644069D01*
X116769Y645285D01*
X117985Y647104D01*
X118411Y649250D01*
X117985Y651396D01*
X116769Y653215D01*
X114950Y654431D01*
X112804Y654858D01*
D02*
G37*
G36*
X585866Y571608D02*
X583720Y571181D01*
X581901Y569965D01*
X580933Y568517D01*
X579696Y568423D01*
X579496Y568479D01*
X578634Y569768D01*
X576815Y570984D01*
X574669Y571411D01*
X572523Y570984D01*
X570704Y569768D01*
X569488Y567949D01*
X569061Y565803D01*
X569488Y563657D01*
X570704Y561838D01*
X572523Y560622D01*
X574669Y560195D01*
X576815Y560622D01*
X578634Y561838D01*
X579602Y563286D01*
X580839Y563381D01*
X581039Y563325D01*
X581901Y562035D01*
X583720Y560819D01*
X585866Y560392D01*
X588012Y560819D01*
X589831Y562035D01*
X591047Y563854D01*
X591474Y566000D01*
X591047Y568146D01*
X589831Y569965D01*
X588012Y571181D01*
X585866Y571608D01*
D02*
G37*
G36*
X393419Y570358D02*
X391273Y569931D01*
X389454Y568715D01*
X388487Y567267D01*
X387250Y567173D01*
X387050Y567229D01*
X386188Y568518D01*
X384369Y569734D01*
X382223Y570161D01*
X380077Y569734D01*
X378257Y568518D01*
X377042Y566699D01*
X376615Y564553D01*
X377042Y562407D01*
X378257Y560588D01*
X380077Y559372D01*
X382223Y558945D01*
X384369Y559372D01*
X386188Y560588D01*
X387155Y562036D01*
X388392Y562131D01*
X388592Y562075D01*
X389454Y560785D01*
X391273Y559569D01*
X393419Y559142D01*
X395565Y559569D01*
X397385Y560785D01*
X398600Y562604D01*
X399027Y564750D01*
X398600Y566896D01*
X397385Y568715D01*
X395565Y569931D01*
X393419Y570358D01*
D02*
G37*
G36*
X104750D02*
X102604Y569931D01*
X100785Y568715D01*
X99817Y567267D01*
X98580Y567173D01*
X98380Y567229D01*
X97518Y568518D01*
X95699Y569734D01*
X93553Y570161D01*
X91407Y569734D01*
X89588Y568518D01*
X88372Y566699D01*
X87945Y564553D01*
X88372Y562407D01*
X89588Y560588D01*
X91407Y559372D01*
X93553Y558945D01*
X95699Y559372D01*
X97518Y560588D01*
X98486Y562036D01*
X99723Y562131D01*
X99923Y562075D01*
X100785Y560785D01*
X102604Y559569D01*
X104750Y559142D01*
X106896Y559569D01*
X108715Y560785D01*
X109931Y562604D01*
X110358Y564750D01*
X109931Y566896D01*
X108715Y568715D01*
X106896Y569931D01*
X104750Y570358D01*
D02*
G37*
G36*
X489643D02*
X487497Y569931D01*
X485677Y568715D01*
X484710Y567267D01*
X483473Y567173D01*
X483273Y567229D01*
X482411Y568518D01*
X480592Y569734D01*
X478446Y570161D01*
X476300Y569734D01*
X474481Y568518D01*
X473265Y566699D01*
X472838Y564553D01*
X473265Y562407D01*
X474481Y560588D01*
X476300Y559372D01*
X478446Y558945D01*
X480592Y559372D01*
X482411Y560588D01*
X483378Y562036D01*
X484616Y562131D01*
X484816Y562075D01*
X485677Y560785D01*
X487497Y559569D01*
X489643Y559142D01*
X491789Y559569D01*
X493608Y560785D01*
X494824Y562604D01*
X495250Y564750D01*
X494824Y566896D01*
X493608Y568715D01*
X491789Y569931D01*
X489643Y570358D01*
D02*
G37*
G36*
X297196D02*
X295050Y569931D01*
X293231Y568715D01*
X292264Y567267D01*
X291027Y567173D01*
X290826Y567229D01*
X289965Y568518D01*
X288145Y569734D01*
X285999Y570161D01*
X283853Y569734D01*
X282034Y568518D01*
X280819Y566699D01*
X280392Y564553D01*
X280819Y562407D01*
X282034Y560588D01*
X283853Y559372D01*
X285999Y558945D01*
X288145Y559372D01*
X289965Y560588D01*
X290932Y562036D01*
X292169Y562131D01*
X292369Y562075D01*
X293231Y560785D01*
X295050Y559569D01*
X297196Y559142D01*
X299342Y559569D01*
X301162Y560785D01*
X302377Y562604D01*
X302804Y564750D01*
X302377Y566896D01*
X301162Y568715D01*
X299342Y569931D01*
X297196Y570358D01*
D02*
G37*
G36*
X200973D02*
X198827Y569931D01*
X197008Y568715D01*
X196040Y567267D01*
X194804Y567173D01*
X194603Y567229D01*
X193741Y568518D01*
X191922Y569734D01*
X189776Y570161D01*
X187630Y569734D01*
X185811Y568518D01*
X184595Y566699D01*
X184168Y564553D01*
X184595Y562407D01*
X185811Y560588D01*
X187630Y559372D01*
X189776Y558945D01*
X191922Y559372D01*
X193741Y560588D01*
X194709Y562036D01*
X195946Y562131D01*
X196146Y562075D01*
X197008Y560785D01*
X198827Y559569D01*
X200973Y559142D01*
X203119Y559569D01*
X204939Y560785D01*
X206154Y562604D01*
X206581Y564750D01*
X206154Y566896D01*
X204939Y568715D01*
X203119Y569931D01*
X200973Y570358D01*
D02*
G37*
G36*
X522250Y536108D02*
X520104Y535681D01*
X518285Y534465D01*
X518020Y534069D01*
X455000D01*
X453634Y533797D01*
X452477Y533023D01*
X377977Y458523D01*
X377203Y457366D01*
X376931Y456000D01*
Y359980D01*
X376535Y359715D01*
X375319Y357896D01*
X374892Y355750D01*
X375319Y353604D01*
X376535Y351785D01*
X378354Y350569D01*
X380500Y350142D01*
X382646Y350569D01*
X384465Y351785D01*
X385681Y353604D01*
X386108Y355750D01*
X385681Y357896D01*
X384465Y359715D01*
X384069Y359980D01*
Y454522D01*
X456478Y526931D01*
X518020D01*
X518285Y526535D01*
X520104Y525319D01*
X522250Y524892D01*
X524396Y525319D01*
X526215Y526535D01*
X527431Y528354D01*
X527858Y530500D01*
X527431Y532646D01*
X526215Y534465D01*
X524396Y535681D01*
X522250Y536108D01*
D02*
G37*
G36*
X565000Y534319D02*
X540000D01*
X538634Y534047D01*
X537477Y533273D01*
X492477Y488273D01*
X491703Y487116D01*
X491431Y485750D01*
Y421728D01*
X473218Y403515D01*
X472750Y403608D01*
X470604Y403181D01*
X468785Y401965D01*
X467569Y400146D01*
X467142Y398000D01*
X467569Y395854D01*
X468785Y394035D01*
X470604Y392819D01*
X472750Y392392D01*
X474896Y392819D01*
X476715Y394035D01*
X477931Y395854D01*
X478358Y398000D01*
X478265Y398468D01*
X497523Y417727D01*
X498297Y418884D01*
X498569Y420250D01*
Y484272D01*
X541478Y527181D01*
X563522D01*
X573235Y517468D01*
X573142Y517000D01*
X573569Y514854D01*
X574785Y513035D01*
X576604Y511819D01*
X578750Y511392D01*
X580896Y511819D01*
X582715Y513035D01*
X583931Y514854D01*
X584358Y517000D01*
X583931Y519146D01*
X582715Y520965D01*
X580896Y522181D01*
X578750Y522608D01*
X578282Y522515D01*
X567523Y533273D01*
X566366Y534047D01*
X565000Y534319D01*
D02*
G37*
G36*
X176500Y511358D02*
X174354Y510931D01*
X172535Y509715D01*
X171319Y507896D01*
X170892Y505750D01*
X170985Y505282D01*
X158477Y492773D01*
X157703Y491616D01*
X157431Y490250D01*
Y179181D01*
X157703Y177815D01*
X158477Y176657D01*
X165681Y169452D01*
Y61036D01*
X163374Y60080D01*
X160940Y58212D01*
X159072Y55778D01*
X157898Y52944D01*
X157498Y49902D01*
Y30598D01*
X157898Y27556D01*
X159072Y24722D01*
X160940Y22288D01*
X163374Y20420D01*
X166208Y19246D01*
X169250Y18845D01*
X172292Y19246D01*
X175126Y20420D01*
X177560Y22288D01*
X179428Y24722D01*
X180602Y27556D01*
X181003Y30598D01*
Y49902D01*
X180602Y52944D01*
X179428Y55778D01*
X177560Y58212D01*
X175126Y60080D01*
X172819Y61036D01*
Y170931D01*
X172547Y172296D01*
X171773Y173454D01*
X164569Y180659D01*
Y488772D01*
X176032Y500235D01*
X176500Y500142D01*
X178646Y500569D01*
X180465Y501785D01*
X181681Y503604D01*
X182108Y505750D01*
X181681Y507896D01*
X180465Y509715D01*
X178646Y510931D01*
X176500Y511358D01*
D02*
G37*
G36*
X64000Y501367D02*
X61659Y500902D01*
X59674Y499576D01*
X59447Y499236D01*
X58177D01*
X57951Y499576D01*
X55966Y500902D01*
X53625Y501367D01*
X51284Y500902D01*
X49299Y499576D01*
X49072Y499236D01*
X47803D01*
X47576Y499576D01*
X45591Y500902D01*
X43250Y501367D01*
X40909Y500902D01*
X38924Y499576D01*
X37598Y497591D01*
X37132Y495250D01*
X37598Y492909D01*
X38380Y491739D01*
X38843Y490750D01*
X38380Y489761D01*
X37598Y488591D01*
X37132Y486250D01*
X37598Y483909D01*
X38924Y481924D01*
X40909Y480598D01*
X43250Y480132D01*
X45591Y480598D01*
X47576Y481924D01*
X47803Y482264D01*
X49072D01*
X49299Y481924D01*
X51284Y480598D01*
X53625Y480132D01*
X55966Y480598D01*
X57951Y481924D01*
X58177Y482264D01*
X59447D01*
X59674Y481924D01*
X61659Y480598D01*
X64000Y480132D01*
X66341Y480598D01*
X68326Y481924D01*
X69652Y483909D01*
X70118Y486250D01*
X69652Y488591D01*
X68870Y489761D01*
X68407Y490750D01*
X68870Y491739D01*
X69652Y492909D01*
X70118Y495250D01*
X69652Y497591D01*
X68326Y499576D01*
X66341Y500902D01*
X64000Y501367D01*
D02*
G37*
G36*
X457250Y500117D02*
X454909Y499652D01*
X452924Y498326D01*
X452697Y497986D01*
X451427D01*
X451201Y498326D01*
X449216Y499652D01*
X446875Y500117D01*
X444534Y499652D01*
X442549Y498326D01*
X442323Y497986D01*
X441053D01*
X440826Y498326D01*
X438841Y499652D01*
X436500Y500117D01*
X434159Y499652D01*
X432174Y498326D01*
X430848Y496341D01*
X430382Y494000D01*
X430848Y491659D01*
X431630Y490489D01*
X432093Y489500D01*
X431630Y488511D01*
X430848Y487341D01*
X430382Y485000D01*
X430848Y482659D01*
X432174Y480674D01*
X434159Y479348D01*
X436500Y478882D01*
X438841Y479348D01*
X440826Y480674D01*
X441053Y481014D01*
X442323D01*
X442549Y480674D01*
X444534Y479348D01*
X446875Y478882D01*
X449216Y479348D01*
X451201Y480674D01*
X451427Y481014D01*
X452697D01*
X452924Y480674D01*
X454909Y479348D01*
X457250Y478882D01*
X459591Y479348D01*
X461576Y480674D01*
X462902Y482659D01*
X463368Y485000D01*
X462902Y487341D01*
X462120Y488511D01*
X461657Y489500D01*
X462120Y490489D01*
X462902Y491659D01*
X463368Y494000D01*
X462902Y496341D01*
X461576Y498326D01*
X459591Y499652D01*
X457250Y500117D01*
D02*
G37*
G36*
X247750Y497868D02*
X245409Y497402D01*
X243424Y496076D01*
X243197Y495736D01*
X241928D01*
X241701Y496076D01*
X239716Y497402D01*
X237375Y497868D01*
X235034Y497402D01*
X233049Y496076D01*
X232822Y495736D01*
X231553D01*
X231326Y496076D01*
X229341Y497402D01*
X227000Y497868D01*
X224659Y497402D01*
X222674Y496076D01*
X221348Y494091D01*
X220882Y491750D01*
X221348Y489409D01*
X222130Y488239D01*
X222593Y487250D01*
X222130Y486261D01*
X221348Y485091D01*
X220882Y482750D01*
X221348Y480409D01*
X222674Y478424D01*
X224659Y477098D01*
X227000Y476632D01*
X229341Y477098D01*
X231326Y478424D01*
X231553Y478764D01*
X232822D01*
X233049Y478424D01*
X235034Y477098D01*
X237375Y476632D01*
X239716Y477098D01*
X241701Y478424D01*
X241928Y478764D01*
X243197D01*
X243424Y478424D01*
X245409Y477098D01*
X247750Y476632D01*
X250091Y477098D01*
X252076Y478424D01*
X253402Y480409D01*
X253868Y482750D01*
X253402Y485091D01*
X252620Y486261D01*
X252157Y487250D01*
X252620Y488239D01*
X253402Y489409D01*
X253868Y491750D01*
X253402Y494091D01*
X252076Y496076D01*
X250091Y497402D01*
X247750Y497868D01*
D02*
G37*
G36*
X329500Y395868D02*
X327159Y395402D01*
X325174Y394076D01*
X324948Y393736D01*
X323677D01*
X323451Y394076D01*
X321466Y395402D01*
X319125Y395868D01*
X316784Y395402D01*
X314799Y394076D01*
X314573Y393736D01*
X313302D01*
X313076Y394076D01*
X311091Y395402D01*
X308750Y395868D01*
X306409Y395402D01*
X304424Y394076D01*
X303098Y392091D01*
X302633Y389750D01*
X303098Y387409D01*
X303880Y386239D01*
X304343Y385250D01*
X303880Y384261D01*
X303098Y383091D01*
X302633Y380750D01*
X303098Y378409D01*
X304424Y376424D01*
X306409Y375098D01*
X308750Y374632D01*
X311091Y375098D01*
X313076Y376424D01*
X313302Y376764D01*
X314573D01*
X314799Y376424D01*
X316784Y375098D01*
X319125Y374632D01*
X321466Y375098D01*
X323451Y376424D01*
X323677Y376764D01*
X324948D01*
X325174Y376424D01*
X327159Y375098D01*
X329500Y374632D01*
X331841Y375098D01*
X333826Y376424D01*
X335152Y378409D01*
X335618Y380750D01*
X335152Y383091D01*
X334370Y384261D01*
X333907Y385250D01*
X334370Y386239D01*
X335152Y387409D01*
X335618Y389750D01*
X335152Y392091D01*
X333826Y394076D01*
X331841Y395402D01*
X329500Y395868D01*
D02*
G37*
G36*
X531500Y393867D02*
X529159Y393402D01*
X527174Y392076D01*
X526948Y391736D01*
X525677D01*
X525451Y392076D01*
X523466Y393402D01*
X521125Y393867D01*
X518784Y393402D01*
X516799Y392076D01*
X516572Y391736D01*
X515303D01*
X515076Y392076D01*
X513091Y393402D01*
X510750Y393867D01*
X508409Y393402D01*
X506424Y392076D01*
X505098Y390091D01*
X504632Y387750D01*
X505098Y385409D01*
X505880Y384239D01*
X506343Y383250D01*
X505880Y382261D01*
X505098Y381091D01*
X504632Y378750D01*
X505098Y376409D01*
X506424Y374424D01*
X508409Y373098D01*
X510750Y372632D01*
X513091Y373098D01*
X515076Y374424D01*
X515303Y374764D01*
X516572D01*
X516799Y374424D01*
X518784Y373098D01*
X521125Y372632D01*
X523466Y373098D01*
X525451Y374424D01*
X525677Y374764D01*
X526948D01*
X527174Y374424D01*
X529159Y373098D01*
X531500Y372632D01*
X533841Y373098D01*
X535826Y374424D01*
X537152Y376409D01*
X537618Y378750D01*
X537152Y381091D01*
X536370Y382261D01*
X535907Y383250D01*
X536370Y384239D01*
X537152Y385409D01*
X537618Y387750D01*
X537152Y390091D01*
X535826Y392076D01*
X533841Y393402D01*
X531500Y393867D01*
D02*
G37*
G36*
X30520Y62032D02*
Y41520D01*
X41547D01*
Y49902D01*
X41128Y53085D01*
X39900Y56051D01*
X37945Y58597D01*
X35399Y60552D01*
X32433Y61780D01*
X30520Y62032D01*
D02*
G37*
G36*
X27980D02*
X26067Y61780D01*
X23101Y60552D01*
X20555Y58597D01*
X18600Y56051D01*
X17372Y53085D01*
X16953Y49902D01*
Y41520D01*
X27980D01*
Y62032D01*
D02*
G37*
G36*
X520520D02*
Y41520D01*
X531547D01*
Y49902D01*
X531128Y53085D01*
X529900Y56051D01*
X527945Y58597D01*
X525399Y60552D01*
X522433Y61780D01*
X520520Y62032D01*
D02*
G37*
G36*
X517980D02*
X516067Y61780D01*
X513101Y60552D01*
X510555Y58597D01*
X508600Y56051D01*
X507372Y53085D01*
X506953Y49902D01*
Y41520D01*
X517980D01*
Y62032D01*
D02*
G37*
G36*
X554250Y61655D02*
X551208Y61254D01*
X548374Y60080D01*
X545940Y58212D01*
X544072Y55778D01*
X542898Y52944D01*
X542497Y49902D01*
Y30598D01*
X542898Y27556D01*
X544072Y24722D01*
X545940Y22288D01*
X548374Y20420D01*
X551208Y19246D01*
X554250Y18845D01*
X557292Y19246D01*
X560126Y20420D01*
X562560Y22288D01*
X564428Y24722D01*
X565602Y27556D01*
X566003Y30598D01*
Y49902D01*
X565602Y52944D01*
X564428Y55778D01*
X562560Y58212D01*
X560126Y60080D01*
X557292Y61254D01*
X554250Y61655D01*
D02*
G37*
G36*
X484250D02*
X481208Y61254D01*
X478374Y60080D01*
X475940Y58212D01*
X474072Y55778D01*
X472898Y52944D01*
X472497Y49902D01*
Y30598D01*
X472898Y27556D01*
X474072Y24722D01*
X475940Y22288D01*
X478374Y20420D01*
X481208Y19246D01*
X484250Y18845D01*
X487292Y19246D01*
X490126Y20420D01*
X492560Y22288D01*
X494428Y24722D01*
X495602Y27556D01*
X496003Y30598D01*
Y49902D01*
X495602Y52944D01*
X494428Y55778D01*
X492560Y58212D01*
X490126Y60080D01*
X487292Y61254D01*
X484250Y61655D01*
D02*
G37*
G36*
X558500Y523608D02*
X556354Y523181D01*
X554535Y521965D01*
X553319Y520146D01*
X552892Y518000D01*
X553319Y515854D01*
X554535Y514035D01*
X554931Y513770D01*
Y357728D01*
X446727Y249523D01*
X445953Y248366D01*
X445681Y247000D01*
Y61036D01*
X443374Y60080D01*
X440940Y58212D01*
X439072Y55778D01*
X437898Y52944D01*
X437497Y49902D01*
Y30598D01*
X437898Y27556D01*
X439072Y24722D01*
X440940Y22288D01*
X443374Y20420D01*
X446208Y19246D01*
X449250Y18845D01*
X452292Y19246D01*
X455126Y20420D01*
X457560Y22288D01*
X459428Y24722D01*
X460602Y27556D01*
X461003Y30598D01*
Y49902D01*
X460602Y52944D01*
X459428Y55778D01*
X457560Y58212D01*
X455126Y60080D01*
X452819Y61036D01*
Y245522D01*
X561023Y353727D01*
X561797Y354884D01*
X562069Y356250D01*
Y513770D01*
X562465Y514035D01*
X563681Y515854D01*
X564108Y518000D01*
X563681Y520146D01*
X562465Y521965D01*
X560646Y523181D01*
X558500Y523608D01*
D02*
G37*
G36*
X414250Y61655D02*
X411208Y61254D01*
X408374Y60080D01*
X405940Y58212D01*
X404072Y55778D01*
X402898Y52944D01*
X402497Y49902D01*
Y30598D01*
X402898Y27556D01*
X404072Y24722D01*
X405940Y22288D01*
X408374Y20420D01*
X411208Y19246D01*
X414250Y18845D01*
X417292Y19246D01*
X420126Y20420D01*
X422560Y22288D01*
X424428Y24722D01*
X425602Y27556D01*
X426003Y30598D01*
Y49902D01*
X425602Y52944D01*
X424428Y55778D01*
X422560Y58212D01*
X420126Y60080D01*
X417292Y61254D01*
X414250Y61655D01*
D02*
G37*
G36*
X457500Y517108D02*
X455354Y516681D01*
X453535Y515465D01*
X452319Y513646D01*
X451892Y511500D01*
X452319Y509354D01*
X453535Y507535D01*
X455354Y506319D01*
X457500Y505892D01*
X457968Y505985D01*
X467681Y496272D01*
Y438978D01*
X402727Y374023D01*
X401953Y372866D01*
X401681Y371500D01*
Y233728D01*
X376727Y208773D01*
X375953Y207616D01*
X375681Y206250D01*
Y61036D01*
X373374Y60080D01*
X370940Y58212D01*
X369072Y55778D01*
X367898Y52944D01*
X367497Y49902D01*
Y30598D01*
X367898Y27556D01*
X369072Y24722D01*
X370940Y22288D01*
X373374Y20420D01*
X376208Y19246D01*
X379250Y18845D01*
X382292Y19246D01*
X385126Y20420D01*
X387560Y22288D01*
X389428Y24722D01*
X390602Y27556D01*
X391003Y30598D01*
Y49902D01*
X390602Y52944D01*
X389428Y55778D01*
X387560Y58212D01*
X385126Y60080D01*
X382819Y61036D01*
Y204772D01*
X407773Y229727D01*
X408547Y230884D01*
X408819Y232250D01*
Y370022D01*
X473773Y434977D01*
X474547Y436134D01*
X474819Y437500D01*
Y497750D01*
X474547Y499116D01*
X473773Y500273D01*
X463015Y511032D01*
X463108Y511500D01*
X462681Y513646D01*
X461465Y515465D01*
X459646Y516681D01*
X457500Y517108D01*
D02*
G37*
G36*
X344250Y61655D02*
X341208Y61254D01*
X338374Y60080D01*
X335940Y58212D01*
X334072Y55778D01*
X332898Y52944D01*
X332497Y49902D01*
Y30598D01*
X332898Y27556D01*
X334072Y24722D01*
X335940Y22288D01*
X338374Y20420D01*
X341208Y19246D01*
X344250Y18845D01*
X347292Y19246D01*
X350126Y20420D01*
X352560Y22288D01*
X354428Y24722D01*
X355602Y27556D01*
X356003Y30598D01*
Y49902D01*
X355602Y52944D01*
X354428Y55778D01*
X352560Y58212D01*
X350126Y60080D01*
X347292Y61254D01*
X344250Y61655D01*
D02*
G37*
G36*
X365500Y523358D02*
X363354Y522931D01*
X361535Y521715D01*
X360319Y519896D01*
X359892Y517750D01*
X360319Y515604D01*
X361535Y513785D01*
X361931Y513520D01*
Y287728D01*
X306727Y232523D01*
X305953Y231366D01*
X305681Y230000D01*
Y61036D01*
X303374Y60080D01*
X300940Y58212D01*
X299072Y55778D01*
X297898Y52944D01*
X297498Y49902D01*
Y30598D01*
X297898Y27556D01*
X299072Y24722D01*
X300940Y22288D01*
X303374Y20420D01*
X306208Y19246D01*
X309250Y18845D01*
X312292Y19246D01*
X315126Y20420D01*
X317560Y22288D01*
X319428Y24722D01*
X320602Y27556D01*
X321003Y30598D01*
Y49902D01*
X320602Y52944D01*
X319428Y55778D01*
X317560Y58212D01*
X315126Y60080D01*
X312819Y61036D01*
Y228522D01*
X368023Y283727D01*
X368797Y284884D01*
X369069Y286250D01*
Y513520D01*
X369465Y513785D01*
X370681Y515604D01*
X371108Y517750D01*
X370681Y519896D01*
X369465Y521715D01*
X367646Y522931D01*
X365500Y523358D01*
D02*
G37*
G36*
X274250Y61655D02*
X271208Y61254D01*
X268374Y60080D01*
X265940Y58212D01*
X264072Y55778D01*
X262898Y52944D01*
X262498Y49902D01*
Y30598D01*
X262898Y27556D01*
X264072Y24722D01*
X265940Y22288D01*
X268374Y20420D01*
X271208Y19246D01*
X274250Y18845D01*
X277292Y19246D01*
X280126Y20420D01*
X282560Y22288D01*
X284428Y24722D01*
X285602Y27556D01*
X286003Y30598D01*
Y49902D01*
X285602Y52944D01*
X284428Y55778D01*
X282560Y58212D01*
X280126Y60080D01*
X277292Y61254D01*
X274250Y61655D01*
D02*
G37*
G36*
X272500Y518108D02*
X270354Y517681D01*
X268535Y516465D01*
X267319Y514646D01*
X266892Y512500D01*
X267319Y510354D01*
X268535Y508535D01*
X269561Y507849D01*
X269977Y507227D01*
X277931Y499272D01*
Y292228D01*
X235727Y250023D01*
X234953Y248866D01*
X234681Y247500D01*
Y60622D01*
X233374Y60080D01*
X230940Y58212D01*
X229072Y55778D01*
X227898Y52944D01*
X227498Y49902D01*
Y30598D01*
X227898Y27556D01*
X229072Y24722D01*
X230940Y22288D01*
X233374Y20420D01*
X236208Y19246D01*
X239250Y18845D01*
X242292Y19246D01*
X245126Y20420D01*
X247560Y22288D01*
X249428Y24722D01*
X250602Y27556D01*
X251003Y30598D01*
Y49902D01*
X250602Y52944D01*
X249428Y55778D01*
X247560Y58212D01*
X245126Y60080D01*
X242292Y61254D01*
X241819Y61316D01*
Y246022D01*
X284023Y288227D01*
X284797Y289384D01*
X285069Y290750D01*
Y500750D01*
X284797Y502116D01*
X284023Y503273D01*
X277385Y509911D01*
X277681Y510354D01*
X278108Y512500D01*
X277681Y514646D01*
X276465Y516465D01*
X274646Y517681D01*
X272500Y518108D01*
D02*
G37*
G36*
X204250Y61655D02*
X201208Y61254D01*
X198374Y60080D01*
X195940Y58212D01*
X194072Y55778D01*
X192898Y52944D01*
X192498Y49902D01*
Y30598D01*
X192898Y27556D01*
X194072Y24722D01*
X195940Y22288D01*
X198374Y20420D01*
X201208Y19246D01*
X204250Y18845D01*
X207292Y19246D01*
X210126Y20420D01*
X212560Y22288D01*
X214428Y24722D01*
X215602Y27556D01*
X216003Y30598D01*
Y49902D01*
X215602Y52944D01*
X214428Y55778D01*
X212560Y58212D01*
X210126Y60080D01*
X207292Y61254D01*
X204250Y61655D01*
D02*
G37*
G36*
X134250D02*
X131208Y61254D01*
X128374Y60080D01*
X125940Y58212D01*
X124072Y55778D01*
X122898Y52944D01*
X122498Y49902D01*
Y30598D01*
X122898Y27556D01*
X124072Y24722D01*
X125940Y22288D01*
X128374Y20420D01*
X131208Y19246D01*
X134250Y18845D01*
X137292Y19246D01*
X140126Y20420D01*
X142560Y22288D01*
X144428Y24722D01*
X145602Y27556D01*
X146003Y30598D01*
Y49902D01*
X145602Y52944D01*
X144428Y55778D01*
X142560Y58212D01*
X140126Y60080D01*
X137292Y61254D01*
X134250Y61655D01*
D02*
G37*
G36*
X92000Y516108D02*
X89854Y515681D01*
X88035Y514465D01*
X86819Y512646D01*
X86392Y510500D01*
X86819Y508354D01*
X88035Y506535D01*
X88431Y506270D01*
Y179811D01*
X88703Y178446D01*
X89477Y177288D01*
X95681Y171083D01*
Y61036D01*
X93374Y60080D01*
X90940Y58212D01*
X89072Y55778D01*
X87898Y52944D01*
X87498Y49902D01*
Y30598D01*
X87898Y27556D01*
X89072Y24722D01*
X90940Y22288D01*
X93374Y20420D01*
X96208Y19246D01*
X99250Y18845D01*
X102292Y19246D01*
X105126Y20420D01*
X107560Y22288D01*
X109428Y24722D01*
X110602Y27556D01*
X111003Y30598D01*
Y49902D01*
X110602Y52944D01*
X109428Y55778D01*
X107560Y58212D01*
X105126Y60080D01*
X102819Y61036D01*
Y172561D01*
X102547Y173927D01*
X101773Y175085D01*
X95569Y181290D01*
Y506270D01*
X95965Y506535D01*
X97181Y508354D01*
X97608Y510500D01*
X97181Y512646D01*
X95965Y514465D01*
X94146Y515681D01*
X92000Y516108D01*
D02*
G37*
G36*
X64250Y61655D02*
X61208Y61254D01*
X58374Y60080D01*
X55940Y58212D01*
X54072Y55778D01*
X52898Y52944D01*
X52498Y49902D01*
Y30598D01*
X52898Y27556D01*
X54072Y24722D01*
X55940Y22288D01*
X58374Y20420D01*
X61208Y19246D01*
X64250Y18845D01*
X67292Y19246D01*
X70126Y20420D01*
X72560Y22288D01*
X74428Y24722D01*
X75602Y27556D01*
X76002Y30598D01*
Y49902D01*
X75602Y52944D01*
X74428Y55778D01*
X72560Y58212D01*
X70126Y60080D01*
X67292Y61254D01*
X64250Y61655D01*
D02*
G37*
G36*
X41547Y38980D02*
X30520D01*
Y18468D01*
X32433Y18720D01*
X35399Y19948D01*
X37945Y21903D01*
X39900Y24449D01*
X41128Y27415D01*
X41547Y30598D01*
Y38980D01*
D02*
G37*
G36*
X531547Y38980D02*
X520520D01*
Y18468D01*
X522433Y18720D01*
X525399Y19948D01*
X527945Y21903D01*
X529900Y24449D01*
X531128Y27415D01*
X531547Y30598D01*
Y38980D01*
D02*
G37*
G36*
X517980D02*
X506953D01*
Y30598D01*
X507372Y27415D01*
X508600Y24449D01*
X510555Y21903D01*
X513101Y19948D01*
X516067Y18720D01*
X517980Y18468D01*
Y38980D01*
D02*
G37*
G36*
X27980Y38980D02*
X16953D01*
Y30598D01*
X17372Y27415D01*
X18600Y24449D01*
X20555Y21903D01*
X23101Y19948D01*
X26067Y18720D01*
X27980Y18468D01*
Y38980D01*
D02*
G37*
%LPD*%
G36*
X495355Y870069D02*
X495142Y869000D01*
X495569Y866854D01*
X496785Y865035D01*
X498604Y863819D01*
X500750Y863392D01*
X502896Y863819D01*
X503671Y864337D01*
X504941Y863658D01*
Y757044D01*
X413968Y666071D01*
X412798Y666696D01*
X412958Y667500D01*
X412531Y669646D01*
X411315Y671465D01*
X409496Y672681D01*
X407350Y673108D01*
X405204Y672681D01*
X403385Y671465D01*
X402169Y669646D01*
X401742Y667500D01*
X402169Y665354D01*
X403385Y663535D01*
X405204Y662319D01*
X407350Y661892D01*
X408153Y662052D01*
X408779Y660882D01*
X404069Y656172D01*
X403000Y656385D01*
X400854Y655958D01*
X399302Y654921D01*
X398032Y655353D01*
Y686014D01*
X487413Y775395D01*
X487413Y775395D01*
X488076Y776387D01*
X488309Y777558D01*
Y863833D01*
X488076Y865003D01*
X487413Y865995D01*
X487413Y865995D01*
X486280Y867128D01*
X486608Y868775D01*
X486181Y870921D01*
X484965Y872740D01*
X483146Y873956D01*
X481000Y874383D01*
X478854Y873956D01*
X477035Y872740D01*
X475819Y870921D01*
X475392Y868775D01*
X475819Y866629D01*
X477035Y864810D01*
X478854Y863594D01*
X481000Y863167D01*
X481186Y863204D01*
X482191Y862321D01*
Y785912D01*
X481071Y785314D01*
X480896Y785431D01*
X478750Y785858D01*
X476604Y785431D01*
X474785Y784215D01*
X473569Y782396D01*
X473229Y780685D01*
X472145Y780116D01*
X471913Y780084D01*
X470646Y780931D01*
X468500Y781358D01*
X466354Y780931D01*
X464535Y779715D01*
X464099Y779064D01*
X461019D01*
X360161Y879921D01*
X360687Y881191D01*
X381750D01*
X381750Y881191D01*
X382619Y881364D01*
X383437Y880793D01*
X383729Y880437D01*
X383642Y880000D01*
X384069Y877854D01*
X385285Y876035D01*
X387104Y874819D01*
X389250Y874392D01*
X391396Y874819D01*
X393215Y876035D01*
X394431Y877854D01*
X394858Y880000D01*
X394431Y882146D01*
X393215Y883965D01*
X391396Y885181D01*
X389250Y885608D01*
X389225Y885603D01*
X388599Y886773D01*
X405767Y903941D01*
X461483D01*
X495355Y870069D01*
D02*
G37*
%LPC*%
G36*
X427000Y895608D02*
X424854Y895181D01*
X423035Y893965D01*
X422650Y893389D01*
X421984D01*
X420164Y894605D01*
X418018Y895032D01*
X415872Y894605D01*
X414053Y893389D01*
X412838Y891570D01*
X412411Y889424D01*
X412838Y887278D01*
X414053Y885459D01*
X415872Y884243D01*
X418018Y883816D01*
X420164Y884243D01*
X421984Y885459D01*
X422369Y886035D01*
X423035D01*
X424854Y884819D01*
X427000Y884392D01*
X429146Y884819D01*
X430965Y886035D01*
X432181Y887854D01*
X432608Y890000D01*
X432181Y892146D01*
X430965Y893965D01*
X429146Y895181D01*
X427000Y895608D01*
D02*
G37*
G36*
X454500Y892358D02*
X452354Y891931D01*
X450535Y890715D01*
X449319Y888896D01*
X448892Y886750D01*
X449319Y884604D01*
X450535Y882785D01*
X452354Y881569D01*
X454500Y881142D01*
X456518Y881544D01*
X456851Y881268D01*
X457361Y880520D01*
X456694Y879521D01*
X456267Y877375D01*
X456694Y875229D01*
X457910Y873410D01*
X459729Y872194D01*
X461875Y871767D01*
X464021Y872194D01*
X465840Y873410D01*
X467056Y875229D01*
X467483Y877375D01*
X467056Y879521D01*
X465840Y881340D01*
X464021Y882556D01*
X461875Y882983D01*
X459857Y882581D01*
X459524Y882857D01*
X459013Y883605D01*
X459681Y884604D01*
X460108Y886750D01*
X459681Y888896D01*
X458465Y890715D01*
X456646Y891931D01*
X454500Y892358D01*
D02*
G37*
G36*
X407500Y882858D02*
X405354Y882431D01*
X403535Y881215D01*
X402319Y879396D01*
X401892Y877250D01*
X402319Y875104D01*
X403535Y873285D01*
X405354Y872069D01*
X407500Y871642D01*
X409646Y872069D01*
X411465Y873285D01*
X412681Y875104D01*
X413108Y877250D01*
X412681Y879396D01*
X411465Y881215D01*
X409646Y882431D01*
X407500Y882858D01*
D02*
G37*
G36*
X464250Y828858D02*
X462104Y828431D01*
X460285Y827215D01*
X459069Y825396D01*
X458642Y823250D01*
X459069Y821104D01*
X460285Y819285D01*
X462104Y818069D01*
X464250Y817642D01*
X466396Y818069D01*
X468215Y819285D01*
X469431Y821104D01*
X469858Y823250D01*
X469431Y825396D01*
X468215Y827215D01*
X466396Y828431D01*
X464250Y828858D01*
D02*
G37*
G36*
X439750Y824858D02*
X437604Y824431D01*
X435785Y823215D01*
X434569Y821396D01*
X434142Y819250D01*
X434569Y817104D01*
X435785Y815285D01*
X437604Y814069D01*
X439750Y813642D01*
X441896Y814069D01*
X443715Y815285D01*
X444931Y817104D01*
X445358Y819250D01*
X444931Y821396D01*
X443715Y823215D01*
X441896Y824431D01*
X439750Y824858D01*
D02*
G37*
%LPD*%
D12*
X519084Y886224D02*
X521777D01*
X587750Y820250D01*
X452154Y953154D02*
X519084Y886224D01*
X403000Y650777D02*
X508000Y755777D01*
X398781Y642750D02*
X458750D01*
X497000Y681000D02*
X513500D01*
X458750Y642750D02*
X497000Y681000D01*
X381750Y884250D02*
X404500Y907000D01*
X462750D02*
X500750Y869000D01*
X404500Y907000D02*
X462750D01*
X293150Y994800D02*
X293200Y994750D01*
X310500D01*
X329250Y915000D02*
Y976000D01*
X310500Y994750D02*
X329250Y976000D01*
X360000Y884250D02*
X381750D01*
X329250Y915000D02*
X360000Y884250D01*
X481000Y868083D02*
X485250Y863833D01*
X481000Y868083D02*
Y868775D01*
X485250Y777558D02*
Y863833D01*
X453750Y942000D02*
X535250Y860500D01*
X453750Y927250D02*
X508000Y873000D01*
Y755777D02*
Y873000D01*
X394973Y687281D02*
X485250Y777558D01*
X394973Y646558D02*
Y687281D01*
Y646558D02*
X398781Y642750D01*
X587750Y656669D02*
X593919Y650500D01*
X587750Y656669D02*
Y820250D01*
X526578Y649250D02*
X535250Y657922D01*
Y860500D01*
X497696Y649250D02*
X526578D01*
D14*
X459646Y775750D02*
X468500D01*
X342146Y893250D02*
X459646Y775750D01*
X312247Y893250D02*
X342146D01*
X258500Y811735D02*
Y839503D01*
Y811735D02*
X262000Y808235D01*
Y779250D02*
Y808235D01*
X223250Y679500D02*
Y681750D01*
X242500Y701000D01*
Y882750D01*
X258500Y839503D02*
X312247Y893250D01*
D15*
X380500Y927949D02*
X498201Y1045650D01*
X380500Y894750D02*
Y927949D01*
X130750Y686000D02*
X158250Y658500D01*
X115500Y691350D02*
Y777500D01*
Y691350D02*
X130250Y676600D01*
X97000Y702779D02*
X125250Y674529D01*
X97000Y702779D02*
Y785250D01*
X52000Y641000D02*
Y755571D01*
Y641000D02*
X134250Y558750D01*
X52000Y755571D02*
X98429Y802000D01*
X158250Y658500D02*
X218750D01*
X125250Y607750D02*
Y674529D01*
X130250Y660500D02*
Y676600D01*
Y660500D02*
X262250Y528500D01*
X125250Y607750D02*
X201750Y531250D01*
X218750Y658500D02*
X249750Y689500D01*
Y786250D01*
X230750Y883250D02*
Y946500D01*
Y875500D02*
Y883250D01*
X102500Y831750D02*
X114250Y843500D01*
X198750D01*
X102500Y823750D02*
Y831750D01*
X379250Y206250D02*
X405250Y232250D01*
X379250Y40250D02*
Y206250D01*
X309250Y40250D02*
Y230000D01*
X238250Y41250D02*
X239250Y40250D01*
X99250D02*
Y172561D01*
Y850250D02*
X188250D01*
X220250Y882250D02*
Y883000D01*
X188250Y850250D02*
X220250Y882250D01*
X88750Y839750D02*
X99250Y850250D01*
X198750Y843500D02*
X230750Y875500D01*
X219500Y883750D02*
Y888000D01*
X144750Y962750D02*
Y1015250D01*
Y962750D02*
X219500Y888000D01*
X160450Y1019500D02*
X161150Y1020200D01*
X149000Y1019500D02*
X160450D01*
X144750Y1015250D02*
X149000Y1019500D01*
X219500Y883750D02*
X220250Y883000D01*
X146100Y1045600D02*
X161150D01*
X136500Y1036000D02*
X146100Y1045600D01*
X136500Y957000D02*
X210250Y883250D01*
X136500Y957000D02*
Y1036000D01*
X161150Y994800D02*
X162700Y993250D01*
X184000D01*
X230750Y946500D01*
X272500Y509750D02*
Y512500D01*
Y509750D02*
X281500Y500750D01*
X259000Y522716D02*
X264784Y528500D01*
X325250D01*
X259000Y354750D02*
Y522716D01*
X134250Y531750D02*
Y558750D01*
X147750Y346500D02*
Y348500D01*
X134250Y362000D02*
X147750Y348500D01*
X134250Y362000D02*
Y531750D01*
X161000Y179181D02*
Y490250D01*
Y179181D02*
X169250Y170931D01*
X161000Y490250D02*
X176500Y505750D01*
X169250Y40250D02*
Y170931D01*
X177750Y357000D02*
X196750Y376000D01*
Y499050D02*
X228950Y531250D01*
X196750Y376000D02*
Y499050D01*
X238250Y247500D02*
X281500Y290750D01*
Y500750D01*
X104500Y792750D02*
X117250D01*
X97000Y785250D02*
X104500Y792750D01*
X117250D02*
X143500Y766500D01*
X159250Y802000D02*
X193000Y768250D01*
X98429Y802000D02*
X159250D01*
X193000Y768250D02*
X213000D01*
X525000Y766500D02*
X525500Y766000D01*
Y666750D02*
Y766000D01*
X517000Y658250D02*
X525500Y666750D01*
X489500Y658250D02*
X517000D01*
X421750Y530750D02*
Y590500D01*
X489500Y658250D01*
X143500Y766500D02*
X155500D01*
X88750Y823750D02*
Y839750D01*
X183500Y856500D02*
X210250Y883250D01*
X81500Y856500D02*
X183500D01*
X74750Y849750D02*
X81500Y856500D01*
X74750Y823750D02*
Y849750D01*
X228950Y531250D02*
X229450Y531750D01*
X201750Y531250D02*
X228950D01*
X262250Y528500D02*
X264784D01*
X92000Y179811D02*
Y510500D01*
Y179811D02*
X99250Y172561D01*
X405250Y232250D02*
Y371500D01*
X471250Y437500D02*
Y497750D01*
X405250Y371500D02*
X471250Y437500D01*
X457500Y511500D02*
X471250Y497750D01*
X472750Y398000D02*
X495000Y420250D01*
Y485750D02*
X540000Y530750D01*
X495000Y420250D02*
Y485750D01*
X325250Y528500D02*
X325500Y528250D01*
X421250Y530250D02*
X421750Y530750D01*
X361250Y530250D02*
X421250D01*
X351750Y355750D02*
Y520750D01*
X361250Y530250D01*
X455000Y530500D02*
X522250D01*
X380500Y456000D02*
X455000Y530500D01*
X380500Y355750D02*
Y456000D01*
X565000Y530750D02*
X578750Y517000D01*
X540000Y530750D02*
X565000D01*
X238250Y41250D02*
Y247500D01*
X365500Y286250D02*
Y517750D01*
X309250Y230000D02*
X365500Y286250D01*
X449250Y40250D02*
Y247000D01*
X558500Y356250D02*
Y518000D01*
X449250Y247000D02*
X558500Y356250D01*
D58*
X325000Y840000D02*
D03*
X325250Y804500D02*
D03*
X293150Y994800D02*
D03*
X161150D02*
D03*
Y1020200D02*
D03*
X586750Y980800D02*
D03*
X561350D02*
D03*
Y1031600D02*
D03*
X586750D02*
D03*
X83000Y1031700D02*
D03*
X108400D02*
D03*
Y980900D02*
D03*
X83000D02*
D03*
D59*
X161150Y1045600D02*
D03*
D61*
X519250Y40250D02*
D03*
X449250D02*
D03*
X379250D02*
D03*
X309250D02*
D03*
X239250D02*
D03*
X169250D02*
D03*
X99250D02*
D03*
X29250D02*
D03*
D62*
X482250Y947500D02*
D03*
X495000Y932500D02*
D03*
X315250Y912750D02*
D03*
X302250D02*
D03*
X290000D02*
D03*
X315250Y924250D02*
D03*
X302250D02*
D03*
X290000D02*
D03*
X73500Y678750D02*
D03*
X64750Y685750D02*
D03*
X170500Y678250D02*
D03*
X162250Y685000D02*
D03*
X266750Y677750D02*
D03*
X258750Y685750D02*
D03*
X328250Y682500D02*
D03*
X313250Y682000D02*
D03*
X379750Y686250D02*
D03*
X363750Y685000D02*
D03*
X476250Y686250D02*
D03*
X462250Y684750D02*
D03*
X562750Y685500D02*
D03*
X575750Y685250D02*
D03*
X458500Y896500D02*
D03*
D63*
X452154Y953154D02*
D03*
X313000Y893250D02*
D03*
X403000Y650777D02*
D03*
X130750Y686000D02*
D03*
X223250Y679500D02*
D03*
X249750Y786250D02*
D03*
X262000Y779250D02*
D03*
X481000Y868775D02*
D03*
X498201Y1045650D02*
D03*
X380500Y894750D02*
D03*
X453750Y942000D02*
D03*
Y927250D02*
D03*
X272500Y512500D02*
D03*
X147750Y346500D02*
D03*
X213000Y768250D02*
D03*
X525000Y766500D02*
D03*
X115500Y777500D02*
D03*
X155500Y766500D02*
D03*
X468500Y775750D02*
D03*
X513500Y681000D02*
D03*
X500750Y869000D02*
D03*
X102500Y823750D02*
D03*
X88750D02*
D03*
X74750D02*
D03*
X242500Y882750D02*
D03*
X230750Y883250D02*
D03*
X220250Y883000D02*
D03*
X210250Y883250D02*
D03*
X472750Y398000D02*
D03*
X380500Y355750D02*
D03*
X351750D02*
D03*
X259000Y354750D02*
D03*
X177750Y357000D02*
D03*
X578750Y517000D02*
D03*
X325500Y528250D02*
D03*
X421750Y530750D02*
D03*
X522250Y530500D02*
D03*
X229450Y531750D02*
D03*
X134250D02*
D03*
X92000Y510500D02*
D03*
X176500Y505750D02*
D03*
X365500Y517750D02*
D03*
X457500Y511500D02*
D03*
X558500Y518000D02*
D03*
X593919Y650500D02*
D03*
X497696Y649250D02*
D03*
M02*
