G04*
G04 #@! TF.GenerationSoftware,Altium Limited,Altium Designer,20.0.13 (296)*
G04*
G04 Layer_Color=8388736*
%FSLAX44Y44*%
%MOMM*%
G71*
G01*
G75*
%ADD33R,1.0032X1.2032*%
%ADD34R,1.2032X1.0032*%
%ADD35R,0.8032X0.7032*%
%ADD36R,3.3020X3.2004*%
%ADD37R,0.5588X1.6256*%
G04:AMPARAMS|DCode=38|XSize=2.5332mm|YSize=1.7532mm|CornerRadius=0.4891mm|HoleSize=0mm|Usage=FLASHONLY|Rotation=180.000|XOffset=0mm|YOffset=0mm|HoleType=Round|Shape=RoundedRectangle|*
%AMROUNDEDRECTD38*
21,1,2.5332,0.7750,0,0,180.0*
21,1,1.5550,1.7532,0,0,180.0*
1,1,0.9782,-0.7775,0.3875*
1,1,0.9782,0.7775,0.3875*
1,1,0.9782,0.7775,-0.3875*
1,1,0.9782,-0.7775,-0.3875*
%
%ADD38ROUNDEDRECTD38*%
%ADD39R,3.6200X2.2700*%
%ADD40R,0.7032X0.8032*%
%ADD41R,0.6132X1.7632*%
%ADD42R,1.2200X1.3700*%
%ADD43R,2.2700X3.6200*%
%ADD44R,2.3532X3.4532*%
%ADD45R,2.3532X1.1532*%
G04:AMPARAMS|DCode=46|XSize=2.5332mm|YSize=1.7532mm|CornerRadius=0.4891mm|HoleSize=0mm|Usage=FLASHONLY|Rotation=270.000|XOffset=0mm|YOffset=0mm|HoleType=Round|Shape=RoundedRectangle|*
%AMROUNDEDRECTD46*
21,1,2.5332,0.7750,0,0,270.0*
21,1,1.5550,1.7532,0,0,270.0*
1,1,0.9782,-0.3875,-0.7775*
1,1,0.9782,-0.3875,0.7775*
1,1,0.9782,0.3875,0.7775*
1,1,0.9782,0.3875,-0.7775*
%
%ADD46ROUNDEDRECTD46*%
%ADD47R,2.9032X3.8032*%
%ADD48C,1.7032*%
%ADD49R,1.7032X1.7032*%
%ADD50R,1.7032X1.7032*%
%ADD51O,2.1336X4.0640*%
D33*
X177750Y939000D02*
D03*
X193750D02*
D03*
X374000Y776500D02*
D03*
X358000D02*
D03*
Y867250D02*
D03*
X374000D02*
D03*
X492000Y823500D02*
D03*
X508000D02*
D03*
D34*
X127750Y564750D02*
D03*
Y548750D02*
D03*
X570250Y675000D02*
D03*
Y659000D02*
D03*
X603250Y618500D02*
D03*
Y634500D02*
D03*
X614750Y564750D02*
D03*
Y548750D02*
D03*
X121500Y618500D02*
D03*
Y634500D02*
D03*
X89250Y675000D02*
D03*
Y659000D02*
D03*
X433750Y941500D02*
D03*
Y925500D02*
D03*
X217850Y634500D02*
D03*
Y618500D02*
D03*
X314200Y634500D02*
D03*
Y618500D02*
D03*
X410550Y634500D02*
D03*
Y618500D02*
D03*
X506900Y634500D02*
D03*
Y618500D02*
D03*
X185450Y659000D02*
D03*
Y675000D02*
D03*
X281650Y659000D02*
D03*
Y675000D02*
D03*
X377850Y659000D02*
D03*
Y675000D02*
D03*
X474050Y659000D02*
D03*
Y675000D02*
D03*
X225150Y548750D02*
D03*
Y564750D02*
D03*
X322550Y548750D02*
D03*
Y564750D02*
D03*
X419950Y548750D02*
D03*
Y564750D02*
D03*
X517350Y548750D02*
D03*
Y564750D02*
D03*
X243500Y823250D02*
D03*
Y839250D02*
D03*
D35*
X586500Y678000D02*
D03*
Y668000D02*
D03*
X105500Y678000D02*
D03*
Y668000D02*
D03*
X150250Y811000D02*
D03*
Y801000D02*
D03*
X528250Y1033350D02*
D03*
Y1043350D02*
D03*
X497750Y1021500D02*
D03*
Y1031500D02*
D03*
X466848Y1033350D02*
D03*
Y1043350D02*
D03*
X400500Y804500D02*
D03*
Y794500D02*
D03*
X201700Y668000D02*
D03*
Y678000D02*
D03*
X297900Y668000D02*
D03*
Y678000D02*
D03*
X394100Y668000D02*
D03*
Y678000D02*
D03*
X490300Y668000D02*
D03*
Y678000D02*
D03*
D36*
X567058Y609198D02*
D03*
X85942Y607948D02*
D03*
X182165D02*
D03*
X278388D02*
D03*
X374612D02*
D03*
X470835D02*
D03*
D37*
X547500Y637646D02*
D03*
X554104D02*
D03*
X560454D02*
D03*
X567058D02*
D03*
X573662D02*
D03*
X580012D02*
D03*
X586616D02*
D03*
Y580750D02*
D03*
X580012D02*
D03*
X573662D02*
D03*
X567058D02*
D03*
X560454D02*
D03*
X554104D02*
D03*
X547500D02*
D03*
X66384Y636396D02*
D03*
X72988D02*
D03*
X79338D02*
D03*
X85942D02*
D03*
X92546D02*
D03*
X98896D02*
D03*
X105500D02*
D03*
Y579500D02*
D03*
X98896D02*
D03*
X92546D02*
D03*
X85942D02*
D03*
X79338D02*
D03*
X72988D02*
D03*
X66384D02*
D03*
X162607D02*
D03*
X169211D02*
D03*
X175561D02*
D03*
X182165D02*
D03*
X188769D02*
D03*
X195119D02*
D03*
X201723D02*
D03*
Y636396D02*
D03*
X195119D02*
D03*
X188769D02*
D03*
X182165D02*
D03*
X175561D02*
D03*
X169211D02*
D03*
X162607D02*
D03*
X258830Y579500D02*
D03*
X265434D02*
D03*
X271784D02*
D03*
X278388D02*
D03*
X284992D02*
D03*
X291342D02*
D03*
X297946D02*
D03*
Y636396D02*
D03*
X291342D02*
D03*
X284992D02*
D03*
X278388D02*
D03*
X271784D02*
D03*
X265434D02*
D03*
X258830D02*
D03*
X355053Y579500D02*
D03*
X361657D02*
D03*
X368008D02*
D03*
X374612D02*
D03*
X381216D02*
D03*
X387565D02*
D03*
X394170D02*
D03*
Y636396D02*
D03*
X387565D02*
D03*
X381216D02*
D03*
X374612D02*
D03*
X368008D02*
D03*
X361657D02*
D03*
X355053D02*
D03*
X451277Y579500D02*
D03*
X457881D02*
D03*
X464231D02*
D03*
X470835D02*
D03*
X477439D02*
D03*
X483789D02*
D03*
X490393D02*
D03*
Y636396D02*
D03*
X483789D02*
D03*
X477439D02*
D03*
X470835D02*
D03*
X464231D02*
D03*
X457881D02*
D03*
X451277D02*
D03*
D38*
X545900Y537750D02*
D03*
X588600D02*
D03*
X59400Y535500D02*
D03*
X102100D02*
D03*
X199400Y536250D02*
D03*
X156700D02*
D03*
X296700Y537750D02*
D03*
X254000D02*
D03*
X394000D02*
D03*
X351300D02*
D03*
X491300D02*
D03*
X448600D02*
D03*
D39*
X39750Y740750D02*
D03*
Y705750D02*
D03*
X587250Y740750D02*
D03*
Y705750D02*
D03*
X487705D02*
D03*
Y740750D02*
D03*
X338386Y705750D02*
D03*
Y740750D02*
D03*
X238841Y705750D02*
D03*
Y740750D02*
D03*
X139296Y705750D02*
D03*
Y740750D02*
D03*
X537477Y705750D02*
D03*
Y740750D02*
D03*
X437932Y705750D02*
D03*
Y740750D02*
D03*
X388159Y705750D02*
D03*
Y740750D02*
D03*
X288614Y705750D02*
D03*
Y740750D02*
D03*
X189068Y705750D02*
D03*
Y740750D02*
D03*
X89523Y705750D02*
D03*
Y740750D02*
D03*
D40*
X445750Y775750D02*
D03*
X435750D02*
D03*
X194750Y776750D02*
D03*
X184750D02*
D03*
X388750Y1046750D02*
D03*
X398750D02*
D03*
X388750Y1021000D02*
D03*
X398750D02*
D03*
X388750Y995250D02*
D03*
X398750D02*
D03*
X388750Y969500D02*
D03*
X398750D02*
D03*
X256000Y966750D02*
D03*
X266000D02*
D03*
X256000Y996250D02*
D03*
X266000D02*
D03*
X256000Y1026500D02*
D03*
X266000D02*
D03*
X256000Y1054500D02*
D03*
X266000D02*
D03*
D41*
X165750Y854050D02*
D03*
X172250D02*
D03*
X178750D02*
D03*
X185250D02*
D03*
X191750D02*
D03*
X198250D02*
D03*
X204750D02*
D03*
X211250D02*
D03*
X217750D02*
D03*
X224250D02*
D03*
Y796450D02*
D03*
X217750D02*
D03*
X211250D02*
D03*
X204750D02*
D03*
X198250D02*
D03*
X191750D02*
D03*
X185250D02*
D03*
X178750D02*
D03*
X172250D02*
D03*
X165750D02*
D03*
X416000Y854050D02*
D03*
X422500D02*
D03*
X429000D02*
D03*
X435500D02*
D03*
X442000D02*
D03*
X448500D02*
D03*
X455000D02*
D03*
X461500D02*
D03*
X468000D02*
D03*
X474500D02*
D03*
Y796450D02*
D03*
X468000D02*
D03*
X461500D02*
D03*
X455000D02*
D03*
X448500D02*
D03*
X442000D02*
D03*
X435500D02*
D03*
X429000D02*
D03*
X422500D02*
D03*
X416000D02*
D03*
D42*
X513152Y1019500D02*
D03*
Y1042500D02*
D03*
X482451Y1019500D02*
D03*
Y1042500D02*
D03*
X450305Y1042000D02*
D03*
Y1019000D02*
D03*
D43*
X485000Y974750D02*
D03*
X520000D02*
D03*
X450750Y269250D02*
D03*
X485750D02*
D03*
X450750Y226750D02*
D03*
X485750D02*
D03*
X98250D02*
D03*
X133250D02*
D03*
X98250Y269250D02*
D03*
X133250D02*
D03*
X168000Y226750D02*
D03*
X203000D02*
D03*
X168750Y269250D02*
D03*
X203750D02*
D03*
X239250Y226750D02*
D03*
X274250D02*
D03*
X239250Y269250D02*
D03*
X274250D02*
D03*
X309750Y226750D02*
D03*
X344750D02*
D03*
X309750Y269250D02*
D03*
X344750D02*
D03*
X380250Y227000D02*
D03*
X415250D02*
D03*
X380250Y269250D02*
D03*
X415250D02*
D03*
D44*
X541000Y817250D02*
D03*
D45*
X599000Y840250D02*
D03*
Y817250D02*
D03*
Y794250D02*
D03*
D46*
X487750Y376735D02*
D03*
Y334035D02*
D03*
X287750Y384719D02*
D03*
Y342019D02*
D03*
X87000Y384719D02*
D03*
Y342019D02*
D03*
X54000Y464481D02*
D03*
Y421781D02*
D03*
X453500Y464481D02*
D03*
Y421781D02*
D03*
X253250Y464481D02*
D03*
Y421781D02*
D03*
D47*
X205750Y344750D02*
D03*
X122750D02*
D03*
X174750Y461750D02*
D03*
X91750D02*
D03*
X374000D02*
D03*
X291000D02*
D03*
X573250D02*
D03*
X490250D02*
D03*
X608250Y344750D02*
D03*
X525250D02*
D03*
X407000D02*
D03*
X324000D02*
D03*
D48*
X274200Y840000D02*
D03*
X299600D02*
D03*
X325000D02*
D03*
X350400D02*
D03*
X274450Y804500D02*
D03*
X299850D02*
D03*
X325250D02*
D03*
X350650D02*
D03*
X369350Y969400D02*
D03*
Y994800D02*
D03*
Y1020200D02*
D03*
Y1045600D02*
D03*
X293150Y969400D02*
D03*
Y994800D02*
D03*
Y1020200D02*
D03*
X237350Y969400D02*
D03*
Y994800D02*
D03*
Y1020200D02*
D03*
Y1045600D02*
D03*
X161150Y969400D02*
D03*
Y994800D02*
D03*
Y1020200D02*
D03*
X586750Y980800D02*
D03*
X561350D02*
D03*
X586750Y1057000D02*
D03*
X561350Y1031600D02*
D03*
X586750D02*
D03*
X561350Y1006200D02*
D03*
X586750D02*
D03*
X561350Y955400D02*
D03*
X586750D02*
D03*
X83000Y1031700D02*
D03*
X108400D02*
D03*
X83000Y955500D02*
D03*
X108400Y980900D02*
D03*
X83000D02*
D03*
X108400Y1006300D02*
D03*
X83000D02*
D03*
X108400Y1057100D02*
D03*
X83000D02*
D03*
D49*
X375800Y840000D02*
D03*
X376050Y804500D02*
D03*
X293150Y1045600D02*
D03*
X161150D02*
D03*
D50*
X561350Y1057000D02*
D03*
X108400Y955500D02*
D03*
D51*
X554250Y40250D02*
D03*
X519250D02*
D03*
X484250D02*
D03*
X449250D02*
D03*
X414250D02*
D03*
X379250D02*
D03*
X344250D02*
D03*
X309250D02*
D03*
X274250D02*
D03*
X239250D02*
D03*
X204250D02*
D03*
X169250D02*
D03*
X134250D02*
D03*
X99250D02*
D03*
X64250D02*
D03*
X29250D02*
D03*
M02*
