G04*
G04 #@! TF.GenerationSoftware,Altium Limited,Altium Designer,20.0.13 (296)*
G04*
G04 Layer_Physical_Order=4*
G04 Layer_Color=16711680*
%FSLAX44Y44*%
%MOMM*%
G71*
G01*
G75*
%ADD12C,0.2000*%
%ADD14C,0.2500*%
%ADD15C,0.3000*%
%ADD20R,0.6000X0.5000*%
%ADD25R,0.5000X0.6000*%
%ADD52C,1.7000*%
%ADD53C,2.0000*%
%ADD54C,2.5000*%
%ADD57C,0.4000*%
%ADD58C,1.5000*%
%ADD59R,1.5000X1.5000*%
%ADD60R,1.5000X1.5000*%
%ADD61O,1.9304X3.8608*%
%ADD62C,0.8000*%
%ADD63C,0.7000*%
%ADD64R,1.1000X0.8000*%
G04:AMPARAMS|DCode=65|XSize=1.23mm|YSize=0.6mm|CornerRadius=0.075mm|HoleSize=0mm|Usage=FLASHONLY|Rotation=0.000|XOffset=0mm|YOffset=0mm|HoleType=Round|Shape=RoundedRectangle|*
%AMROUNDEDRECTD65*
21,1,1.2300,0.4500,0,0,0.0*
21,1,1.0800,0.6000,0,0,0.0*
1,1,0.1500,0.5400,-0.2250*
1,1,0.1500,-0.5400,-0.2250*
1,1,0.1500,-0.5400,0.2250*
1,1,0.1500,0.5400,0.2250*
%
%ADD65ROUNDEDRECTD65*%
%ADD66R,0.5900X1.2100*%
%ADD67R,1.6000X1.6000*%
G36*
X626432Y3569D02*
X3568D01*
X3569Y1076431D01*
X626431D01*
X626432Y3569D01*
D02*
G37*
%LPC*%
G36*
X197520Y1052540D02*
Y1048270D01*
X201290D01*
Y1052540D01*
X197520D01*
D02*
G37*
G36*
X330520Y1051790D02*
Y1047520D01*
X334290D01*
Y1051790D01*
X330520D01*
D02*
G37*
G36*
X570850Y1066500D02*
X551850D01*
Y1047500D01*
X570850D01*
Y1066500D01*
D02*
G37*
G36*
X586750Y1066582D02*
X584270Y1066255D01*
X581959Y1065298D01*
X579975Y1063775D01*
X578452Y1061791D01*
X577495Y1059480D01*
X577168Y1057000D01*
X577495Y1054520D01*
X578452Y1052209D01*
X579975Y1050225D01*
X581959Y1048702D01*
X584270Y1047745D01*
X586750Y1047418D01*
X589230Y1047745D01*
X591541Y1048702D01*
X593526Y1050225D01*
X595048Y1052209D01*
X596006Y1054520D01*
X596332Y1057000D01*
X596006Y1059480D01*
X595048Y1061791D01*
X593526Y1063775D01*
X591541Y1065298D01*
X589230Y1066255D01*
X586750Y1066582D01*
D02*
G37*
G36*
X201290Y1045730D02*
X197520D01*
Y1041460D01*
X201290D01*
Y1045730D01*
D02*
G37*
G36*
X170650Y1055100D02*
X151650D01*
Y1036100D01*
X170650D01*
Y1043686D01*
X181750D01*
Y1042000D01*
X190164Y1042000D01*
X191210Y1041460D01*
X191796Y1041460D01*
X194980D01*
Y1047000D01*
Y1052540D01*
X191210D01*
X190164Y1052000D01*
X181750Y1052000D01*
Y1050314D01*
X170650D01*
Y1055100D01*
D02*
G37*
G36*
X334290Y1044980D02*
X330520D01*
Y1040710D01*
X334290D01*
Y1044980D01*
D02*
G37*
G36*
X302650Y1055100D02*
X283650D01*
Y1036100D01*
X302650D01*
Y1043191D01*
X314750D01*
Y1041250D01*
X323164Y1041250D01*
X324210Y1040710D01*
X324796Y1040710D01*
X327980D01*
Y1046250D01*
Y1051790D01*
X324210D01*
X323164Y1051250D01*
X314750Y1051250D01*
Y1049309D01*
X302650D01*
Y1055100D01*
D02*
G37*
G36*
X498201Y1051258D02*
X496055Y1050831D01*
X494236Y1049615D01*
X493020Y1047796D01*
X492593Y1045650D01*
X493020Y1043504D01*
X494236Y1041685D01*
X496055Y1040469D01*
X498201Y1040042D01*
X500347Y1040469D01*
X502166Y1041685D01*
X503382Y1043504D01*
X503809Y1045650D01*
X503382Y1047796D01*
X502166Y1049615D01*
X500347Y1050831D01*
X498201Y1051258D01*
D02*
G37*
G36*
X369350Y1055182D02*
X366870Y1054855D01*
X364559Y1053898D01*
X362575Y1052375D01*
X361052Y1050391D01*
X360095Y1048080D01*
X359768Y1045600D01*
X360095Y1043120D01*
X361052Y1040809D01*
X362575Y1038824D01*
X364559Y1037302D01*
X366870Y1036345D01*
X369350Y1036018D01*
X371830Y1036345D01*
X374141Y1037302D01*
X376125Y1038824D01*
X377648Y1040809D01*
X378605Y1043120D01*
X378932Y1045600D01*
X378605Y1048080D01*
X377648Y1050391D01*
X376125Y1052375D01*
X374141Y1053898D01*
X371830Y1054855D01*
X369350Y1055182D01*
D02*
G37*
G36*
X237350D02*
X234870Y1054855D01*
X232559Y1053898D01*
X230574Y1052375D01*
X229052Y1050391D01*
X228095Y1048080D01*
X227768Y1045600D01*
X228095Y1043120D01*
X229052Y1040809D01*
X230574Y1038824D01*
X232559Y1037302D01*
X234870Y1036345D01*
X237350Y1036018D01*
X239830Y1036345D01*
X242141Y1037302D01*
X244125Y1038824D01*
X245648Y1040809D01*
X246605Y1043120D01*
X246932Y1045600D01*
X246605Y1048080D01*
X245648Y1050391D01*
X244125Y1052375D01*
X242141Y1053898D01*
X239830Y1054855D01*
X237350Y1055182D01*
D02*
G37*
G36*
X588020Y1041559D02*
Y1032870D01*
X596709D01*
X596532Y1034221D01*
X595520Y1036663D01*
X593911Y1038761D01*
X591813Y1040370D01*
X589371Y1041382D01*
X588020Y1041559D01*
D02*
G37*
G36*
X562620D02*
Y1032870D01*
X571309D01*
X571132Y1034221D01*
X570120Y1036663D01*
X568511Y1038761D01*
X566413Y1040370D01*
X563971Y1041382D01*
X562620Y1041559D01*
D02*
G37*
G36*
X585480Y1041559D02*
X584129Y1041382D01*
X581687Y1040370D01*
X579589Y1038761D01*
X577980Y1036663D01*
X576968Y1034221D01*
X576791Y1032870D01*
X585480D01*
Y1041559D01*
D02*
G37*
G36*
X560080D02*
X558729Y1041382D01*
X556287Y1040370D01*
X554189Y1038761D01*
X552580Y1036663D01*
X551568Y1034221D01*
X551391Y1032870D01*
X560080D01*
Y1041559D01*
D02*
G37*
G36*
X108400Y1071725D02*
X44850D01*
X41065Y1071227D01*
X37537Y1069766D01*
X34509Y1067441D01*
X9908Y1042841D01*
X7584Y1039813D01*
X6123Y1036285D01*
X5625Y1032500D01*
Y278250D01*
X6123Y274465D01*
X7584Y270937D01*
X9908Y267908D01*
X49625Y228192D01*
Y40250D01*
X50123Y36465D01*
X51584Y32937D01*
X52498Y31747D01*
Y30598D01*
X52898Y27556D01*
X54072Y24722D01*
X55940Y22288D01*
X58374Y20420D01*
X61208Y19246D01*
X64250Y18845D01*
X67292Y19246D01*
X70126Y20420D01*
X72560Y22288D01*
X74428Y24722D01*
X75602Y27556D01*
X76002Y30598D01*
Y31747D01*
X76916Y32937D01*
X78377Y36465D01*
X78875Y40250D01*
Y234250D01*
X78377Y238035D01*
X76916Y241562D01*
X74591Y244592D01*
X34875Y284308D01*
Y1026442D01*
X50908Y1042475D01*
X79458D01*
X79711Y1041205D01*
X77937Y1040470D01*
X75839Y1038861D01*
X74230Y1036763D01*
X73218Y1034321D01*
X73041Y1032970D01*
X83000D01*
X92959D01*
X92782Y1034321D01*
X91770Y1036763D01*
X90161Y1038861D01*
X88063Y1040470D01*
X86289Y1041205D01*
X86542Y1042475D01*
X104858D01*
X105111Y1041205D01*
X103337Y1040470D01*
X101239Y1038861D01*
X99630Y1036763D01*
X98618Y1034321D01*
X98441Y1032970D01*
X108400D01*
Y1031700D01*
D01*
Y1032970D01*
X118359D01*
X118182Y1034321D01*
X117170Y1036763D01*
X115561Y1038861D01*
X113463Y1040470D01*
X111021Y1041482D01*
X110803Y1041510D01*
Y1042791D01*
X112185Y1042973D01*
X115712Y1044434D01*
X118742Y1046758D01*
X121066Y1049787D01*
X122527Y1053315D01*
X123025Y1057100D01*
X122527Y1060885D01*
X121066Y1064413D01*
X118742Y1067441D01*
X115712Y1069766D01*
X112185Y1071227D01*
X108400Y1071725D01*
D02*
G37*
G36*
X586750Y1031600D02*
D01*
D01*
D01*
D02*
G37*
G36*
X197520Y1027207D02*
Y1022937D01*
X201290D01*
Y1027207D01*
X197520D01*
D02*
G37*
G36*
X330520Y1026540D02*
Y1022270D01*
X334290D01*
Y1026540D01*
X330520D01*
D02*
G37*
G36*
X118359Y1030430D02*
X109670D01*
Y1021741D01*
X111021Y1021918D01*
X113463Y1022930D01*
X115561Y1024539D01*
X117170Y1026637D01*
X118182Y1029079D01*
X118359Y1030430D01*
D02*
G37*
G36*
X92959D02*
X84270D01*
Y1021741D01*
X85621Y1021918D01*
X88063Y1022930D01*
X90161Y1024539D01*
X91770Y1026637D01*
X92782Y1029079D01*
X92959Y1030430D01*
D02*
G37*
G36*
X107130D02*
X98441D01*
X98618Y1029079D01*
X99630Y1026637D01*
X101239Y1024539D01*
X103337Y1022930D01*
X105779Y1021918D01*
X107130Y1021741D01*
Y1030430D01*
D02*
G37*
G36*
X81730D02*
X73041D01*
X73218Y1029079D01*
X74230Y1026637D01*
X75839Y1024539D01*
X77937Y1022930D01*
X80379Y1021918D01*
X81730Y1021741D01*
Y1030430D01*
D02*
G37*
G36*
X585480Y1030330D02*
X576791D01*
X576968Y1028979D01*
X577980Y1026537D01*
X579589Y1024439D01*
X581687Y1022830D01*
X584129Y1021818D01*
X585480Y1021641D01*
Y1030330D01*
D02*
G37*
G36*
X560080D02*
X551391D01*
X551568Y1028979D01*
X552580Y1026537D01*
X554189Y1024439D01*
X556287Y1022830D01*
X558729Y1021818D01*
X560080Y1021641D01*
Y1030330D01*
D02*
G37*
G36*
X596709D02*
X588020D01*
Y1021641D01*
X589371Y1021818D01*
X591813Y1022830D01*
X593911Y1024439D01*
X595520Y1026537D01*
X596532Y1028979D01*
X596709Y1030330D01*
D02*
G37*
G36*
X571309D02*
X562620D01*
Y1021641D01*
X563971Y1021818D01*
X566413Y1022830D01*
X568511Y1024439D01*
X570120Y1026537D01*
X571132Y1028979D01*
X571309Y1030330D01*
D02*
G37*
G36*
X201290Y1020397D02*
X197520D01*
Y1016127D01*
X201290D01*
Y1020397D01*
D02*
G37*
G36*
X161150Y1029782D02*
X158670Y1029455D01*
X156359Y1028498D01*
X154375Y1026975D01*
X152852Y1024991D01*
X151895Y1022680D01*
X151568Y1020200D01*
X151895Y1017720D01*
X152852Y1015409D01*
X154375Y1013425D01*
X156359Y1011902D01*
X158670Y1010945D01*
X161150Y1010618D01*
X163630Y1010945D01*
X165941Y1011902D01*
X167925Y1013425D01*
X169448Y1015409D01*
X170258Y1017365D01*
X181750D01*
Y1016667D01*
X190164Y1016667D01*
X191210Y1016127D01*
X191796Y1016127D01*
X194980D01*
Y1021667D01*
Y1027207D01*
X191210D01*
X190164Y1026667D01*
X181750Y1026667D01*
Y1024502D01*
X169651D01*
X169448Y1024991D01*
X167925Y1026975D01*
X165941Y1028498D01*
X163630Y1029455D01*
X161150Y1029782D01*
D02*
G37*
G36*
X334290Y1019730D02*
X330520D01*
Y1015460D01*
X334290D01*
Y1019730D01*
D02*
G37*
G36*
X293150Y1029782D02*
X290670Y1029455D01*
X288359Y1028498D01*
X286375Y1026975D01*
X284852Y1024991D01*
X283895Y1022680D01*
X283568Y1020200D01*
X283895Y1017720D01*
X284852Y1015409D01*
X286375Y1013425D01*
X288359Y1011902D01*
X290670Y1010945D01*
X293150Y1010618D01*
X295630Y1010945D01*
X297941Y1011902D01*
X299925Y1013425D01*
X301448Y1015409D01*
X302166Y1017141D01*
X314750D01*
Y1016000D01*
X323164Y1016000D01*
X324210Y1015460D01*
X324796Y1015460D01*
X327980D01*
Y1021000D01*
Y1026540D01*
X324210D01*
X323164Y1026000D01*
X314750Y1026000D01*
Y1023259D01*
X302166D01*
X301448Y1024991D01*
X299925Y1026975D01*
X297941Y1028498D01*
X295630Y1029455D01*
X293150Y1029782D01*
D02*
G37*
G36*
X369350D02*
X366870Y1029455D01*
X364559Y1028498D01*
X362575Y1026975D01*
X361052Y1024991D01*
X360095Y1022680D01*
X359768Y1020200D01*
X360095Y1017720D01*
X361052Y1015409D01*
X362575Y1013425D01*
X364559Y1011902D01*
X366870Y1010945D01*
X369350Y1010618D01*
X371830Y1010945D01*
X374141Y1011902D01*
X376125Y1013425D01*
X377648Y1015409D01*
X378605Y1017720D01*
X378932Y1020200D01*
X378605Y1022680D01*
X377648Y1024991D01*
X376125Y1026975D01*
X374141Y1028498D01*
X371830Y1029455D01*
X369350Y1029782D01*
D02*
G37*
G36*
X237350D02*
X234870Y1029455D01*
X232559Y1028498D01*
X230574Y1026975D01*
X229052Y1024991D01*
X228095Y1022680D01*
X227768Y1020200D01*
X228095Y1017720D01*
X229052Y1015409D01*
X230574Y1013425D01*
X232559Y1011902D01*
X234870Y1010945D01*
X237350Y1010618D01*
X239830Y1010945D01*
X242141Y1011902D01*
X244125Y1013425D01*
X245648Y1015409D01*
X246605Y1017720D01*
X246932Y1020200D01*
X246605Y1022680D01*
X245648Y1024991D01*
X244125Y1026975D01*
X242141Y1028498D01*
X239830Y1029455D01*
X237350Y1029782D01*
D02*
G37*
G36*
X197520Y1001873D02*
Y997603D01*
X201290D01*
Y1001873D01*
X197520D01*
D02*
G37*
G36*
X330520Y1001290D02*
Y997020D01*
X334290D01*
Y1001290D01*
X330520D01*
D02*
G37*
G36*
X108400Y1015882D02*
X105920Y1015555D01*
X103609Y1014598D01*
X101624Y1013075D01*
X100102Y1011091D01*
X99144Y1008780D01*
X98818Y1006300D01*
X99144Y1003820D01*
X100102Y1001509D01*
X101624Y999525D01*
X103609Y998002D01*
X105920Y997045D01*
X108400Y996718D01*
X110880Y997045D01*
X113191Y998002D01*
X115175Y999525D01*
X116698Y1001509D01*
X117655Y1003820D01*
X117982Y1006300D01*
X117655Y1008780D01*
X116698Y1011091D01*
X115175Y1013075D01*
X113191Y1014598D01*
X110880Y1015555D01*
X108400Y1015882D01*
D02*
G37*
G36*
X83000D02*
X80520Y1015555D01*
X78209Y1014598D01*
X76224Y1013075D01*
X74702Y1011091D01*
X73745Y1008780D01*
X73418Y1006300D01*
X73745Y1003820D01*
X74702Y1001509D01*
X76224Y999525D01*
X78209Y998002D01*
X80520Y997045D01*
X83000Y996718D01*
X85480Y997045D01*
X87791Y998002D01*
X89775Y999525D01*
X91298Y1001509D01*
X92255Y1003820D01*
X92582Y1006300D01*
X92255Y1008780D01*
X91298Y1011091D01*
X89775Y1013075D01*
X87791Y1014598D01*
X85480Y1015555D01*
X83000Y1015882D01*
D02*
G37*
G36*
X586750Y1015782D02*
X584270Y1015455D01*
X581959Y1014498D01*
X579975Y1012975D01*
X578452Y1010991D01*
X577495Y1008680D01*
X577168Y1006200D01*
X577495Y1003720D01*
X578452Y1001409D01*
X579975Y999425D01*
X581959Y997902D01*
X584270Y996945D01*
X586750Y996618D01*
X589230Y996945D01*
X591541Y997902D01*
X593526Y999425D01*
X595048Y1001409D01*
X596006Y1003720D01*
X596332Y1006200D01*
X596006Y1008680D01*
X595048Y1010991D01*
X593526Y1012975D01*
X591541Y1014498D01*
X589230Y1015455D01*
X586750Y1015782D01*
D02*
G37*
G36*
X561350D02*
X558870Y1015455D01*
X556559Y1014498D01*
X554575Y1012975D01*
X553052Y1010991D01*
X552095Y1008680D01*
X551768Y1006200D01*
X552095Y1003720D01*
X553052Y1001409D01*
X554575Y999425D01*
X556559Y997902D01*
X558870Y996945D01*
X561350Y996618D01*
X563830Y996945D01*
X566141Y997902D01*
X568125Y999425D01*
X569648Y1001409D01*
X570606Y1003720D01*
X570932Y1006200D01*
X570606Y1008680D01*
X569648Y1010991D01*
X568125Y1012975D01*
X566141Y1014498D01*
X563830Y1015455D01*
X561350Y1015782D01*
D02*
G37*
G36*
X201290Y995063D02*
X197520D01*
Y990793D01*
X201290D01*
Y995063D01*
D02*
G37*
G36*
X161150Y1004382D02*
X158670Y1004055D01*
X156359Y1003098D01*
X154375Y1001575D01*
X152852Y999591D01*
X151895Y997280D01*
X151568Y994800D01*
X151895Y992320D01*
X152852Y990009D01*
X154375Y988025D01*
X156359Y986502D01*
X158670Y985545D01*
X161150Y985218D01*
X163630Y985545D01*
X165941Y986502D01*
X167925Y988025D01*
X169448Y990009D01*
X170272Y991998D01*
X181750D01*
Y991333D01*
X190164Y991333D01*
X191210Y990793D01*
X191796Y990793D01*
X194980D01*
Y996333D01*
Y1001873D01*
X191210D01*
X190164Y1001333D01*
X181750Y1001333D01*
Y999135D01*
X169637D01*
X169448Y999591D01*
X167925Y1001575D01*
X165941Y1003098D01*
X163630Y1004055D01*
X161150Y1004382D01*
D02*
G37*
G36*
X334290Y994480D02*
X330520D01*
Y990210D01*
X334290D01*
Y994480D01*
D02*
G37*
G36*
X293150Y1004382D02*
X290670Y1004055D01*
X288359Y1003098D01*
X286375Y1001575D01*
X284852Y999591D01*
X283895Y997280D01*
X283568Y994800D01*
X283895Y992320D01*
X284852Y990009D01*
X286375Y988025D01*
X288359Y986502D01*
X290670Y985545D01*
X293150Y985218D01*
X295630Y985545D01*
X297941Y986502D01*
X299925Y988025D01*
X301448Y990009D01*
X302166Y991741D01*
X314750D01*
Y990750D01*
X323164Y990750D01*
X324210Y990210D01*
X324796Y990210D01*
X327980D01*
Y995750D01*
Y1001290D01*
X324210D01*
X323164Y1000750D01*
X314750Y1000750D01*
Y997859D01*
X302166D01*
X301448Y999591D01*
X299925Y1001575D01*
X297941Y1003098D01*
X295630Y1004055D01*
X293150Y1004382D01*
D02*
G37*
G36*
X369350D02*
X366870Y1004055D01*
X364559Y1003098D01*
X362575Y1001575D01*
X361052Y999591D01*
X360095Y997280D01*
X359768Y994800D01*
X360095Y992320D01*
X361052Y990009D01*
X362575Y988025D01*
X364559Y986502D01*
X366870Y985545D01*
X369350Y985218D01*
X371830Y985545D01*
X374141Y986502D01*
X376125Y988025D01*
X377648Y990009D01*
X378605Y992320D01*
X378932Y994800D01*
X378605Y997280D01*
X377648Y999591D01*
X376125Y1001575D01*
X374141Y1003098D01*
X371830Y1004055D01*
X369350Y1004382D01*
D02*
G37*
G36*
X237350D02*
X234870Y1004055D01*
X232559Y1003098D01*
X230574Y1001575D01*
X229052Y999591D01*
X228095Y997280D01*
X227768Y994800D01*
X228095Y992320D01*
X229052Y990009D01*
X230574Y988025D01*
X232559Y986502D01*
X234870Y985545D01*
X237350Y985218D01*
X239830Y985545D01*
X242141Y986502D01*
X244125Y988025D01*
X245648Y990009D01*
X246605Y992320D01*
X246932Y994800D01*
X246605Y997280D01*
X245648Y999591D01*
X244125Y1001575D01*
X242141Y1003098D01*
X239830Y1004055D01*
X237350Y1004382D01*
D02*
G37*
G36*
X109670Y990859D02*
Y982170D01*
X118359D01*
X118182Y983521D01*
X117170Y985963D01*
X115561Y988061D01*
X113463Y989670D01*
X111021Y990682D01*
X109670Y990859D01*
D02*
G37*
G36*
X84270D02*
Y982170D01*
X92959D01*
X92782Y983521D01*
X91770Y985963D01*
X90161Y988061D01*
X88063Y989670D01*
X85621Y990682D01*
X84270Y990859D01*
D02*
G37*
G36*
X107130Y990859D02*
X105779Y990682D01*
X103337Y989670D01*
X101239Y988061D01*
X99630Y985963D01*
X98618Y983521D01*
X98441Y982170D01*
X107130D01*
Y990859D01*
D02*
G37*
G36*
X81730D02*
X80379Y990682D01*
X77937Y989670D01*
X75839Y988061D01*
X74230Y985963D01*
X73218Y983521D01*
X73041Y982170D01*
X81730D01*
Y990859D01*
D02*
G37*
G36*
X588020Y990759D02*
Y982070D01*
X596709D01*
X596532Y983421D01*
X595520Y985863D01*
X593911Y987961D01*
X591813Y989570D01*
X589371Y990582D01*
X588020Y990759D01*
D02*
G37*
G36*
X562620D02*
Y982070D01*
X571309D01*
X571132Y983421D01*
X570120Y985863D01*
X568511Y987961D01*
X566413Y989570D01*
X563971Y990582D01*
X562620Y990759D01*
D02*
G37*
G36*
X585480Y990759D02*
X584129Y990582D01*
X581687Y989570D01*
X579589Y987961D01*
X577980Y985863D01*
X576968Y983421D01*
X576791Y982070D01*
X585480D01*
Y990759D01*
D02*
G37*
G36*
X560080D02*
X558729Y990582D01*
X556287Y989570D01*
X554189Y987961D01*
X552580Y985863D01*
X551568Y983421D01*
X551391Y982070D01*
X560080D01*
Y990759D01*
D02*
G37*
G36*
X197520Y976540D02*
Y972270D01*
X201290D01*
Y976540D01*
X197520D01*
D02*
G37*
G36*
X330520Y976040D02*
Y971770D01*
X334290D01*
Y976040D01*
X330520D01*
D02*
G37*
G36*
X118359Y979630D02*
X109670D01*
Y970941D01*
X111021Y971118D01*
X113463Y972130D01*
X115561Y973739D01*
X117170Y975837D01*
X118182Y978279D01*
X118359Y979630D01*
D02*
G37*
G36*
X92959D02*
X84270D01*
Y970941D01*
X85621Y971118D01*
X88063Y972130D01*
X90161Y973739D01*
X91770Y975837D01*
X92782Y978279D01*
X92959Y979630D01*
D02*
G37*
G36*
X107130D02*
X98441D01*
X98618Y978279D01*
X99630Y975837D01*
X101239Y973739D01*
X103337Y972130D01*
X105779Y971118D01*
X107130Y970941D01*
Y979630D01*
D02*
G37*
G36*
X81730D02*
X73041D01*
X73218Y978279D01*
X74230Y975837D01*
X75839Y973739D01*
X77937Y972130D01*
X80379Y971118D01*
X81730Y970941D01*
Y979630D01*
D02*
G37*
G36*
X585480Y979530D02*
X576791D01*
X576968Y978179D01*
X577980Y975737D01*
X579589Y973639D01*
X581687Y972030D01*
X584129Y971018D01*
X585480Y970841D01*
Y979530D01*
D02*
G37*
G36*
X560080D02*
X551391D01*
X551568Y978179D01*
X552580Y975737D01*
X554189Y973639D01*
X556287Y972030D01*
X558729Y971018D01*
X560080Y970841D01*
Y979530D01*
D02*
G37*
G36*
X596709D02*
X588020D01*
Y970841D01*
X589371Y971018D01*
X591813Y972030D01*
X593911Y973639D01*
X595520Y975737D01*
X596532Y978179D01*
X596709Y979530D01*
D02*
G37*
G36*
X571309D02*
X562620D01*
Y970841D01*
X563971Y971018D01*
X566413Y972030D01*
X568511Y973639D01*
X570120Y975737D01*
X571132Y978179D01*
X571309Y979530D01*
D02*
G37*
G36*
X542500Y1047358D02*
X540354Y1046931D01*
X538535Y1045715D01*
X537319Y1043896D01*
X536892Y1041750D01*
X537319Y1039604D01*
X538535Y1037785D01*
X539186Y1037349D01*
Y977026D01*
X531963Y969803D01*
X530790Y970289D01*
Y974540D01*
X527020D01*
Y969000D01*
X524480D01*
Y974540D01*
X520710D01*
Y974540D01*
X520250Y974000D01*
X511250D01*
Y972314D01*
X507500D01*
Y974000D01*
X498500D01*
Y974000D01*
X497500D01*
Y974000D01*
X488500D01*
Y972314D01*
X483750D01*
Y974000D01*
X474750D01*
Y974000D01*
X473834D01*
X472564Y974202D01*
Y976602D01*
X472721Y976759D01*
X473750Y977500D01*
X474750D01*
X475020Y977500D01*
X483750D01*
Y987500D01*
X482309D01*
Y1001500D01*
X482076Y1002671D01*
X481413Y1003663D01*
X481413Y1003663D01*
X471809Y1013267D01*
X470817Y1013930D01*
X469646Y1014163D01*
X469646Y1014163D01*
X444163D01*
X434809Y1023517D01*
Y1029179D01*
X435715Y1029785D01*
X436931Y1031604D01*
X437358Y1033750D01*
X436931Y1035896D01*
X435715Y1037715D01*
X433896Y1038931D01*
X431750Y1039358D01*
X429604Y1038931D01*
X427785Y1037715D01*
X426569Y1035896D01*
X426142Y1033750D01*
X426569Y1031604D01*
X427785Y1029785D01*
X428691Y1029179D01*
Y1022250D01*
X428691Y1022250D01*
X428924Y1021079D01*
X429587Y1020087D01*
X440733Y1008941D01*
X440733Y1008941D01*
X441726Y1008278D01*
X442896Y1008045D01*
X442896Y1008045D01*
X468379D01*
X476191Y1000233D01*
Y988398D01*
X475379Y987586D01*
X474921Y987500D01*
X473750D01*
X473480Y987500D01*
X464750D01*
Y985814D01*
X428000D01*
X426732Y985561D01*
X425657Y984843D01*
X336878Y896064D01*
X317735D01*
X316965Y897215D01*
X315146Y898431D01*
X313000Y898858D01*
X310854Y898431D01*
X309035Y897215D01*
X307819Y895396D01*
X307392Y893250D01*
X307819Y891104D01*
X307933Y890934D01*
X307334Y889814D01*
X297089D01*
X283309Y903593D01*
X282234Y904311D01*
X280966Y904564D01*
X230672D01*
X169793Y965443D01*
X170286Y966631D01*
X181750D01*
Y966000D01*
X190164Y966000D01*
X191210Y965460D01*
X191796Y965460D01*
X194980D01*
Y971000D01*
Y976540D01*
X191210D01*
X190164Y976000D01*
X181750Y976000D01*
Y973768D01*
X169623D01*
X169448Y974191D01*
X167925Y976175D01*
X165941Y977698D01*
X163630Y978655D01*
X161150Y978982D01*
X158670Y978655D01*
X156359Y977698D01*
X154375Y976175D01*
X152852Y974191D01*
X151895Y971880D01*
X151568Y969400D01*
X151895Y966920D01*
X152852Y964609D01*
X154375Y962625D01*
X156359Y961102D01*
X158670Y960145D01*
X161150Y959818D01*
X163630Y960145D01*
X165107Y960756D01*
X224622Y901242D01*
X224136Y900069D01*
X168250D01*
X166884Y899797D01*
X165727Y899023D01*
X151977Y885273D01*
X151203Y884116D01*
X150931Y882750D01*
Y876265D01*
X151203Y874899D01*
X151977Y873741D01*
X158741Y866977D01*
X159899Y866203D01*
X161265Y865931D01*
X167400D01*
X167400Y865931D01*
X170918D01*
X172283Y866203D01*
X172319Y866227D01*
X174000Y865892D01*
X176146Y866319D01*
X177965Y867535D01*
X179181Y869354D01*
X179608Y871500D01*
X179181Y873646D01*
X177965Y875465D01*
X176146Y876681D01*
X174000Y877108D01*
X171889Y876688D01*
X171841Y876687D01*
X170561Y877286D01*
X170436Y878110D01*
X171767Y879441D01*
X176483D01*
X185837Y870087D01*
X186829Y869424D01*
X188000Y869191D01*
X188000Y869191D01*
X271233D01*
X292875Y847549D01*
X292825Y846775D01*
X291302Y844791D01*
X290345Y842480D01*
X290018Y840000D01*
X290345Y837520D01*
X291302Y835209D01*
X292825Y833224D01*
X294809Y831702D01*
X297120Y830744D01*
X299600Y830418D01*
X302080Y830744D01*
X304391Y831702D01*
X306376Y833224D01*
X307898Y835209D01*
X308855Y837520D01*
X309182Y840000D01*
X308855Y842480D01*
X307898Y844791D01*
X306376Y846775D01*
X304391Y848298D01*
X302080Y849256D01*
X299600Y849582D01*
X299436Y849560D01*
X299275Y849800D01*
X299275Y849800D01*
X274663Y874413D01*
X273671Y875076D01*
X272500Y875309D01*
X272500Y875309D01*
X189267D01*
X179913Y884663D01*
X178920Y885326D01*
X177750Y885559D01*
X177750Y885559D01*
X170500D01*
X170500Y885559D01*
X169329Y885326D01*
X168337Y884663D01*
X168337Y884663D01*
X165569Y881895D01*
X164500Y882108D01*
X162354Y881681D01*
X160535Y880465D01*
X159319Y878646D01*
X158069Y878869D01*
Y881272D01*
X169728Y892931D01*
X268022D01*
X294079Y866875D01*
X295237Y866101D01*
X296602Y865829D01*
X319524D01*
X341651Y843702D01*
X341145Y842480D01*
X340818Y840000D01*
X341145Y837520D01*
X342102Y835209D01*
X343625Y833224D01*
X345609Y831702D01*
X347920Y830744D01*
X350400Y830418D01*
X352880Y830744D01*
X355191Y831702D01*
X357175Y833224D01*
X358698Y835209D01*
X359655Y837520D01*
X359982Y840000D01*
X359655Y842480D01*
X358698Y844791D01*
X357175Y846775D01*
X355191Y848298D01*
X352880Y849256D01*
X350400Y849582D01*
X347920Y849256D01*
X346698Y848749D01*
X323525Y871921D01*
X322368Y872695D01*
X321002Y872967D01*
X298080D01*
X274284Y896763D01*
X274770Y897936D01*
X279594D01*
X293373Y884157D01*
X294448Y883439D01*
X295716Y883186D01*
X338364D01*
X339632Y883439D01*
X340707Y884157D01*
X420737Y964186D01*
X423139D01*
X423858Y962916D01*
X423691Y962078D01*
X423691Y962078D01*
Y960000D01*
X422250D01*
Y950000D01*
X431250D01*
Y950000D01*
X432250D01*
Y950000D01*
X441250D01*
Y950095D01*
X447583D01*
X448189Y949189D01*
X450008Y947973D01*
X450390Y947897D01*
X450658Y946549D01*
X449785Y945965D01*
X449179Y945059D01*
X441250D01*
Y945875D01*
X432520D01*
X432250Y945875D01*
X431250D01*
X430980Y945875D01*
X422250D01*
Y943934D01*
X417683D01*
X417683Y943934D01*
X416512Y943701D01*
X415520Y943038D01*
X403837Y931355D01*
X403174Y930363D01*
X402941Y929192D01*
X402941Y929192D01*
Y920321D01*
X402035Y919715D01*
X400819Y917896D01*
X400392Y915750D01*
X400819Y913604D01*
X402035Y911785D01*
X403854Y910569D01*
X406000Y910142D01*
X407069Y910355D01*
X411337Y906087D01*
X411337Y906087D01*
X412329Y905424D01*
X413500Y905191D01*
X417733D01*
X426184Y896740D01*
X425766Y895362D01*
X424854Y895181D01*
X423098Y894007D01*
X422981Y893943D01*
X421388Y893787D01*
X420164Y894605D01*
X418018Y895032D01*
X415872Y894605D01*
X414053Y893389D01*
X412838Y891570D01*
X412411Y889424D01*
X412838Y887278D01*
X414053Y885459D01*
X415872Y884243D01*
X418018Y883816D01*
X420164Y884243D01*
X421921Y885416D01*
X422037Y885481D01*
X423630Y885637D01*
X424854Y884819D01*
X427000Y884392D01*
X429146Y884819D01*
X430965Y886035D01*
X432181Y887854D01*
X432362Y888766D01*
X433740Y889184D01*
X447712Y875212D01*
X447712Y875212D01*
X448704Y874549D01*
X449875Y874316D01*
X457304D01*
X457910Y873410D01*
X459729Y872194D01*
X461875Y871767D01*
X464021Y872194D01*
X465840Y873410D01*
X467056Y875229D01*
X467483Y877375D01*
X467056Y879521D01*
X465840Y881340D01*
X464021Y882556D01*
X461875Y882983D01*
X459857Y882581D01*
X459524Y882857D01*
X459013Y883605D01*
X459681Y884604D01*
X460108Y886750D01*
X459681Y888896D01*
X458465Y890715D01*
X456646Y891931D01*
X454500Y892358D01*
X452354Y891931D01*
X450880Y890946D01*
X419645Y922181D01*
X419858Y923250D01*
X420425Y923941D01*
X422250D01*
Y921750D01*
X430980D01*
X431250Y921750D01*
X432250D01*
X432520Y921750D01*
X441250D01*
Y924191D01*
X449179D01*
X449785Y923285D01*
X451604Y922069D01*
X453750Y921642D01*
X455896Y922069D01*
X457715Y923285D01*
X458931Y925104D01*
X459358Y927250D01*
X458931Y929396D01*
X457715Y931215D01*
X455896Y932431D01*
X453750Y932858D01*
X451604Y932431D01*
X449785Y931215D01*
X449179Y930309D01*
X441250D01*
Y931750D01*
X432520D01*
X432250Y931750D01*
X431250D01*
X430980Y931750D01*
X422250D01*
Y930059D01*
X418000D01*
X418000Y930059D01*
X416829Y929826D01*
X415837Y929163D01*
X415837Y929163D01*
X415319Y928645D01*
X414250Y928858D01*
X412104Y928431D01*
X411289Y927886D01*
X411252Y927876D01*
X409894Y928482D01*
X409859Y928725D01*
X418950Y937816D01*
X422250D01*
Y935875D01*
X430980D01*
X431250Y935875D01*
X432250D01*
X432520Y935875D01*
X441250D01*
Y938941D01*
X449179D01*
X449785Y938035D01*
X451604Y936819D01*
X453750Y936392D01*
X455896Y936819D01*
X457715Y938035D01*
X458931Y939854D01*
X459358Y942000D01*
X458931Y944146D01*
X457715Y945965D01*
X455896Y947181D01*
X455514Y947257D01*
X455246Y948605D01*
X456119Y949189D01*
X457335Y951008D01*
X457376Y951215D01*
X458591Y951583D01*
X497691Y912483D01*
Y873571D01*
X496785Y872965D01*
X495569Y871146D01*
X495142Y869000D01*
X495569Y866854D01*
X496785Y865035D01*
X498604Y863819D01*
X500750Y863392D01*
X502896Y863819D01*
X504715Y865035D01*
X505931Y866854D01*
X506358Y869000D01*
X505931Y871146D01*
X504715Y872965D01*
X503809Y873571D01*
Y913750D01*
X503809Y913750D01*
X503576Y914921D01*
X502913Y915913D01*
X455813Y963013D01*
X456299Y964186D01*
X459281D01*
X463061Y960407D01*
X464136Y959689D01*
X465404Y959436D01*
X529596D01*
X530864Y959689D01*
X531939Y960407D01*
X544843Y973311D01*
X545561Y974386D01*
X545814Y975654D01*
Y1037349D01*
X546465Y1037785D01*
X547681Y1039604D01*
X548108Y1041750D01*
X547681Y1043896D01*
X546465Y1045715D01*
X544646Y1046931D01*
X542500Y1047358D01*
D02*
G37*
G36*
X201290Y969730D02*
X197520D01*
Y965460D01*
X201290D01*
Y969730D01*
D02*
G37*
G36*
X334290Y969230D02*
X330520D01*
Y964960D01*
X334290D01*
Y969230D01*
D02*
G37*
G36*
X293150Y978982D02*
X290670Y978655D01*
X288359Y977698D01*
X286375Y976175D01*
X284852Y974191D01*
X283895Y971880D01*
X283568Y969400D01*
X283895Y966920D01*
X284852Y964609D01*
X286375Y962625D01*
X288359Y961102D01*
X290670Y960145D01*
X293150Y959818D01*
X295630Y960145D01*
X297941Y961102D01*
X299925Y962625D01*
X301448Y964609D01*
X302182Y966381D01*
X314750D01*
Y965500D01*
X323164Y965500D01*
X324210Y964960D01*
X324796Y964960D01*
X327980D01*
Y970500D01*
Y976040D01*
X324210D01*
X323164Y975500D01*
X314750Y975500D01*
Y973519D01*
X301727D01*
X301448Y974191D01*
X299925Y976175D01*
X297941Y977698D01*
X295630Y978655D01*
X293150Y978982D01*
D02*
G37*
G36*
X369350D02*
X366870Y978655D01*
X364559Y977698D01*
X362575Y976175D01*
X361052Y974191D01*
X360095Y971880D01*
X359768Y969400D01*
X360095Y966920D01*
X361052Y964609D01*
X362575Y962625D01*
X364559Y961102D01*
X366870Y960145D01*
X369350Y959818D01*
X371830Y960145D01*
X374141Y961102D01*
X376125Y962625D01*
X377648Y964609D01*
X378605Y966920D01*
X378932Y969400D01*
X378605Y971880D01*
X377648Y974191D01*
X376125Y976175D01*
X374141Y977698D01*
X371830Y978655D01*
X369350Y978982D01*
D02*
G37*
G36*
X237350D02*
X234870Y978655D01*
X232559Y977698D01*
X230574Y976175D01*
X229052Y974191D01*
X228095Y971880D01*
X227768Y969400D01*
X228095Y966920D01*
X229052Y964609D01*
X230574Y962625D01*
X232559Y961102D01*
X234870Y960145D01*
X237350Y959818D01*
X239830Y960145D01*
X242141Y961102D01*
X244125Y962625D01*
X245648Y964609D01*
X246605Y966920D01*
X246932Y969400D01*
X246605Y971880D01*
X245648Y974191D01*
X244125Y976175D01*
X242141Y977698D01*
X239830Y978655D01*
X237350Y978982D01*
D02*
G37*
G36*
X117900Y965000D02*
X98900D01*
Y946000D01*
X117900D01*
Y965000D01*
D02*
G37*
G36*
X83000Y965082D02*
X80520Y964755D01*
X78209Y963798D01*
X76224Y962275D01*
X74702Y960291D01*
X73745Y957980D01*
X73418Y955500D01*
X73745Y953020D01*
X74702Y950709D01*
X76224Y948725D01*
X78209Y947202D01*
X80520Y946245D01*
X83000Y945918D01*
X85480Y946245D01*
X87791Y947202D01*
X89775Y948725D01*
X91298Y950709D01*
X92255Y953020D01*
X92582Y955500D01*
X92255Y957980D01*
X91298Y960291D01*
X89775Y962275D01*
X87791Y963798D01*
X85480Y964755D01*
X83000Y965082D01*
D02*
G37*
G36*
X586750Y964982D02*
X584270Y964655D01*
X581959Y963698D01*
X579975Y962175D01*
X578452Y960191D01*
X577495Y957880D01*
X577168Y955400D01*
X577495Y952920D01*
X578452Y950609D01*
X579975Y948624D01*
X581959Y947102D01*
X584270Y946144D01*
X586750Y945818D01*
X589230Y946144D01*
X591541Y947102D01*
X593526Y948624D01*
X595048Y950609D01*
X596006Y952920D01*
X596332Y955400D01*
X596006Y957880D01*
X595048Y960191D01*
X593526Y962175D01*
X591541Y963698D01*
X589230Y964655D01*
X586750Y964982D01*
D02*
G37*
G36*
X561350D02*
X558870Y964655D01*
X556559Y963698D01*
X554575Y962175D01*
X553052Y960191D01*
X552095Y957880D01*
X551768Y955400D01*
X552095Y952920D01*
X553052Y950609D01*
X554575Y948624D01*
X556559Y947102D01*
X558870Y946144D01*
X561350Y945818D01*
X563830Y946144D01*
X566141Y947102D01*
X568125Y948624D01*
X569648Y950609D01*
X570606Y952920D01*
X570932Y955400D01*
X570606Y957880D01*
X569648Y960191D01*
X568125Y962175D01*
X566141Y963698D01*
X563830Y964655D01*
X561350Y964982D01*
D02*
G37*
G36*
X380500Y900358D02*
X378354Y899931D01*
X376535Y898715D01*
X375319Y896896D01*
X374892Y894750D01*
X375319Y892604D01*
X376535Y890785D01*
X378354Y889569D01*
X380500Y889142D01*
X382646Y889569D01*
X384465Y890785D01*
X385681Y892604D01*
X386108Y894750D01*
X385681Y896896D01*
X384465Y898715D01*
X382646Y899931D01*
X380500Y900358D01*
D02*
G37*
G36*
X230750Y888858D02*
X228604Y888431D01*
X226785Y887215D01*
X226180Y886311D01*
X224653D01*
X224215Y886965D01*
X222396Y888181D01*
X220250Y888608D01*
X218104Y888181D01*
X216285Y886965D01*
X215968Y886492D01*
X214699D01*
X214215Y887215D01*
X212396Y888431D01*
X210250Y888858D01*
X208104Y888431D01*
X206285Y887215D01*
X205069Y885396D01*
X204642Y883250D01*
X205069Y881104D01*
X206285Y879285D01*
X208104Y878069D01*
X210250Y877642D01*
X212396Y878069D01*
X214215Y879285D01*
X214531Y879758D01*
X215802D01*
X216285Y879035D01*
X218104Y877819D01*
X220250Y877392D01*
X222396Y877819D01*
X224215Y879035D01*
X224820Y879939D01*
X226347D01*
X226785Y879285D01*
X228604Y878069D01*
X230750Y877642D01*
X232896Y878069D01*
X234715Y879285D01*
X235926Y881097D01*
X235961Y881104D01*
X237223Y881089D01*
X237319Y880604D01*
X238535Y878785D01*
X240354Y877569D01*
X242500Y877142D01*
X244646Y877569D01*
X246465Y878785D01*
X247681Y880604D01*
X248108Y882750D01*
X247681Y884896D01*
X246465Y886715D01*
X244646Y887931D01*
X242500Y888358D01*
X240354Y887931D01*
X238535Y886715D01*
X237324Y884903D01*
X237289Y884896D01*
X236027Y884911D01*
X235931Y885396D01*
X234715Y887215D01*
X232896Y888431D01*
X230750Y888858D01*
D02*
G37*
G36*
X389250Y885608D02*
X387104Y885181D01*
X385285Y883965D01*
X384069Y882146D01*
X383642Y880000D01*
X384069Y877854D01*
X385285Y876035D01*
X387104Y874819D01*
X389250Y874392D01*
X391396Y874819D01*
X393215Y876035D01*
X394431Y877854D01*
X394858Y880000D01*
X394431Y882146D01*
X393215Y883965D01*
X391396Y885181D01*
X389250Y885608D01*
D02*
G37*
G36*
X407500Y882858D02*
X405354Y882431D01*
X403535Y881215D01*
X402319Y879396D01*
X401892Y877250D01*
X402319Y875104D01*
X403535Y873285D01*
X405354Y872069D01*
X407500Y871642D01*
X409646Y872069D01*
X411465Y873285D01*
X412681Y875104D01*
X413108Y877250D01*
X412681Y879396D01*
X411465Y881215D01*
X409646Y882431D01*
X407500Y882858D01*
D02*
G37*
G36*
X481000Y874383D02*
X478854Y873956D01*
X477035Y872740D01*
X475819Y870921D01*
X475392Y868775D01*
X475819Y866629D01*
X477035Y864810D01*
X478854Y863594D01*
X481000Y863167D01*
X483146Y863594D01*
X484965Y864810D01*
X486181Y866629D01*
X486608Y868775D01*
X486181Y870921D01*
X484965Y872740D01*
X483146Y873956D01*
X481000Y874383D01*
D02*
G37*
G36*
X471610Y860290D02*
X470564Y859750D01*
X462150Y859750D01*
Y857809D01*
X458225D01*
Y859750D01*
X449225D01*
X449225Y859750D01*
X448225D01*
Y859750D01*
X447955Y859750D01*
X439225D01*
Y849750D01*
X440820D01*
X440899Y849354D01*
X441562Y848362D01*
X443941Y845983D01*
Y825250D01*
X443941Y825250D01*
X444092Y824491D01*
X443038Y823668D01*
X441896Y824431D01*
X439750Y824858D01*
X437604Y824431D01*
X435785Y823215D01*
X435516Y822814D01*
X426887D01*
X425914Y823787D01*
X426400Y824960D01*
X431365D01*
Y832280D01*
X425875D01*
X420385D01*
Y827059D01*
X411825D01*
Y841600D01*
X410434D01*
Y849750D01*
X412375D01*
Y851691D01*
X416300D01*
Y849750D01*
X424714Y849750D01*
X425760Y849210D01*
X426346Y849210D01*
X429530D01*
Y854750D01*
Y860290D01*
X425760D01*
X424714Y859750D01*
X416300Y859750D01*
Y857809D01*
X412375D01*
Y859750D01*
X403375D01*
Y859750D01*
X402375D01*
Y859750D01*
X393375D01*
Y849750D01*
X394816D01*
Y826750D01*
X394816Y826750D01*
X395049Y825580D01*
X395712Y824587D01*
X396062Y824237D01*
X395576Y823064D01*
X288623D01*
X280234Y831452D01*
X280317Y832719D01*
X280975Y833224D01*
X282498Y835209D01*
X283456Y837520D01*
X283782Y840000D01*
X283456Y842480D01*
X282498Y844791D01*
X280975Y846775D01*
X278991Y848298D01*
X276680Y849256D01*
X274200Y849582D01*
X271720Y849256D01*
X269409Y848298D01*
X267425Y846775D01*
X265902Y844791D01*
X264945Y842480D01*
X264618Y840000D01*
X264945Y837520D01*
X265902Y835209D01*
X267425Y833224D01*
X269409Y831702D01*
X271720Y830744D01*
X272810Y830601D01*
X272994Y829677D01*
X273712Y828602D01*
X284907Y817407D01*
X285982Y816689D01*
X287250Y816436D01*
X401925D01*
Y800400D01*
X403816D01*
Y787375D01*
X403816Y787375D01*
X404049Y786204D01*
X404712Y785212D01*
X407500Y782424D01*
Y777750D01*
X407500D01*
Y776750D01*
X407500D01*
Y767750D01*
X412674D01*
X431087Y749337D01*
X432080Y748674D01*
X433250Y748441D01*
X433250Y748441D01*
X453250D01*
X453250Y748441D01*
X454421Y748674D01*
X455413Y749337D01*
X463913Y757837D01*
X464576Y758829D01*
X464809Y760000D01*
X464809Y760000D01*
Y770255D01*
X465929Y770853D01*
X466354Y770569D01*
X468500Y770142D01*
X470646Y770569D01*
X472465Y771785D01*
X473681Y773604D01*
X473787Y774137D01*
X475206Y774763D01*
X475436Y774624D01*
Y762373D01*
X451177Y738113D01*
X450458Y737038D01*
X450206Y735770D01*
Y669750D01*
X449020D01*
Y668059D01*
X445300D01*
Y670000D01*
X436570D01*
X436300Y670000D01*
X435300D01*
X435030Y670000D01*
X426300D01*
Y660000D01*
X426941D01*
Y649850D01*
X426941Y649850D01*
X427174Y648679D01*
X427837Y647687D01*
X433420Y642104D01*
Y636750D01*
X435941D01*
Y619000D01*
X434400D01*
Y610270D01*
X434400Y610000D01*
Y609000D01*
X434400Y608730D01*
Y600000D01*
X444400D01*
Y601441D01*
X447900D01*
Y600000D01*
X453174D01*
X455587Y597587D01*
X455587Y597587D01*
X456580Y596924D01*
X457750Y596691D01*
X457750Y596691D01*
X459107D01*
X459160Y596427D01*
X459767Y595517D01*
X460677Y594910D01*
X461750Y594696D01*
X472550D01*
X473623Y594910D01*
X474533Y595517D01*
X475140Y596427D01*
X475354Y597500D01*
Y602000D01*
X475140Y603073D01*
X474533Y603983D01*
X473623Y604590D01*
X472550Y604804D01*
X461750D01*
X460677Y604590D01*
X459767Y603983D01*
X458603Y604326D01*
X457900Y604962D01*
X457900Y608414D01*
X458440Y609460D01*
X458440Y610046D01*
Y613344D01*
X458608Y613484D01*
X459710Y613906D01*
X460466Y613401D01*
X461750Y613145D01*
X465880D01*
Y618750D01*
Y624355D01*
X461750D01*
X460466Y624099D01*
X459378Y623372D01*
X458651Y622284D01*
X458396Y621000D01*
Y619540D01*
X454170D01*
Y614500D01*
X452900D01*
Y613230D01*
X447360D01*
Y609460D01*
X447686Y608829D01*
X447136Y607650D01*
X447045Y607559D01*
X445298D01*
X444486Y608371D01*
X444400Y608829D01*
Y610000D01*
X444400Y610270D01*
Y619000D01*
X442059D01*
Y636750D01*
X448420D01*
Y648750D01*
X435426D01*
X433059Y651117D01*
Y660000D01*
X435030D01*
X435300Y660000D01*
X436300D01*
X436570Y660000D01*
X445300D01*
Y661941D01*
X449020D01*
Y659750D01*
X457750D01*
X458020Y659750D01*
X459020D01*
X459250Y659520D01*
X458979Y658250D01*
X455920D01*
Y646250D01*
X466124D01*
X466420Y646191D01*
X476000D01*
X476000Y642836D01*
X475460Y641790D01*
X475460Y641204D01*
Y638020D01*
X481000D01*
X486540D01*
Y641790D01*
X486000Y642836D01*
X486000Y651250D01*
X480326D01*
X480163Y651413D01*
X479170Y652076D01*
X478000Y652309D01*
X478000Y652309D01*
X470920D01*
Y658250D01*
X465559D01*
Y659750D01*
X468020D01*
Y669750D01*
X459290D01*
X459020Y669750D01*
X458020D01*
X456834Y670604D01*
Y734397D01*
X481093Y758657D01*
X481811Y759732D01*
X482064Y761000D01*
Y775849D01*
X482715Y776285D01*
X483931Y778104D01*
X484358Y780250D01*
X483931Y782396D01*
X482715Y784215D01*
X480896Y785431D01*
X478750Y785858D01*
X476604Y785431D01*
X474785Y784215D01*
X473569Y782396D01*
X473229Y780685D01*
X472145Y780116D01*
X471913Y780084D01*
X470646Y780931D01*
X468500Y781358D01*
X466354Y780931D01*
X465929Y780647D01*
X464809Y781245D01*
Y786483D01*
X467767Y789441D01*
X483733D01*
X486605Y786569D01*
Y747836D01*
X486605Y747836D01*
X486838Y746665D01*
X487501Y745673D01*
X496337Y736837D01*
X496337Y736837D01*
X497329Y736174D01*
X498500Y735941D01*
X547733D01*
X607191Y676483D01*
Y665283D01*
X605921Y665157D01*
X605880Y665367D01*
X605216Y666359D01*
X605145Y666431D01*
X605358Y667500D01*
X604931Y669646D01*
X603715Y671465D01*
X601896Y672681D01*
X599750Y673108D01*
X597604Y672681D01*
X595785Y671465D01*
X594569Y669646D01*
X594142Y667500D01*
X594569Y665354D01*
X595785Y663535D01*
X597604Y662319D01*
X599750Y661892D01*
X599995Y661691D01*
Y653593D01*
X598725Y653208D01*
X597885Y654465D01*
X596065Y655681D01*
X593919Y656108D01*
X591773Y655681D01*
X589954Y654465D01*
X588739Y652646D01*
X588312Y650500D01*
X588739Y648354D01*
X589954Y646535D01*
X591773Y645319D01*
X593919Y644892D01*
X596065Y645319D01*
X597885Y646535D01*
X598725Y647792D01*
X599995Y647407D01*
Y615821D01*
X596483Y612309D01*
X593143D01*
X593090Y612573D01*
X592483Y613483D01*
X591573Y614090D01*
X590500Y614304D01*
X579700D01*
X578627Y614090D01*
X577717Y613483D01*
X577110Y612573D01*
X576896Y611500D01*
Y607000D01*
X577110Y605927D01*
X577717Y605017D01*
X578627Y604410D01*
X579700Y604196D01*
X590500D01*
X591573Y604410D01*
X592483Y605017D01*
X593090Y605927D01*
X593143Y606191D01*
X597750D01*
X597750Y606191D01*
X598921Y606424D01*
X599913Y607087D01*
X605216Y612391D01*
X605216Y612391D01*
X605880Y613383D01*
X605921Y613592D01*
X607191Y613467D01*
Y550767D01*
X600983Y544559D01*
X589898D01*
X589086Y545371D01*
X589000Y545829D01*
Y547000D01*
X589000Y547270D01*
Y556000D01*
X588925D01*
Y561429D01*
X589831Y562035D01*
X591047Y563854D01*
X591474Y566000D01*
X591047Y568146D01*
X589831Y569965D01*
X588012Y571181D01*
X585866Y571608D01*
X583720Y571181D01*
X581901Y569965D01*
X580933Y568517D01*
X579696Y568423D01*
X579496Y568479D01*
X578634Y569768D01*
X576815Y570984D01*
X574669Y571411D01*
X572523Y570984D01*
X570704Y569768D01*
X569488Y567949D01*
X569061Y565803D01*
X569488Y563657D01*
X570704Y561838D01*
X571610Y561232D01*
Y559936D01*
X567424Y555750D01*
X562250D01*
Y547020D01*
X562250Y546750D01*
Y545750D01*
X562250Y545480D01*
Y536750D01*
X563681D01*
Y528228D01*
X558968Y523515D01*
X558500Y523608D01*
X556354Y523181D01*
X554535Y521965D01*
X553319Y520146D01*
X552892Y518000D01*
X553319Y515854D01*
X554535Y514035D01*
X556354Y512819D01*
X558500Y512392D01*
X560646Y512819D01*
X562465Y514035D01*
X563681Y515854D01*
X564108Y518000D01*
X564015Y518468D01*
X569773Y524227D01*
X570547Y525384D01*
X570818Y526750D01*
Y536750D01*
X572250D01*
Y545480D01*
X572250Y545750D01*
Y546750D01*
X572250Y547020D01*
Y551924D01*
X576832Y556506D01*
X576832Y556506D01*
X577495Y557499D01*
X577728Y558669D01*
X577728Y558669D01*
Y561232D01*
X578634Y561838D01*
X579602Y563286D01*
X580839Y563381D01*
X581039Y563325D01*
X581901Y562035D01*
X582807Y561429D01*
Y556000D01*
X579000D01*
Y547270D01*
X579000Y547000D01*
Y546000D01*
X579000Y545730D01*
Y537000D01*
X580941D01*
Y528267D01*
X576587Y523913D01*
X575924Y522920D01*
X575691Y521750D01*
X575691Y521750D01*
Y521571D01*
X574785Y520965D01*
X573569Y519146D01*
X573142Y517000D01*
X573569Y514854D01*
X574785Y513035D01*
X576604Y511819D01*
X578750Y511392D01*
X580896Y511819D01*
X582715Y513035D01*
X583931Y514854D01*
X584358Y517000D01*
X583931Y519146D01*
X582715Y520965D01*
X582677Y521351D01*
X586163Y524837D01*
X586163Y524837D01*
X586826Y525829D01*
X587059Y527000D01*
Y537000D01*
X589000D01*
Y538441D01*
X602250D01*
X602250Y538441D01*
X603420Y538674D01*
X604413Y539337D01*
X612413Y547337D01*
X613076Y548330D01*
X613309Y549500D01*
Y677750D01*
X613309Y677750D01*
X613076Y678921D01*
X612413Y679913D01*
X612413Y679913D01*
X551163Y741163D01*
X550171Y741826D01*
X549000Y742059D01*
X549000Y742059D01*
X499767D01*
X492723Y749103D01*
Y787836D01*
X492490Y789007D01*
X491827Y789999D01*
X487163Y794663D01*
X486171Y795326D01*
X485000Y795559D01*
X485000Y795559D01*
X483541D01*
X483015Y796829D01*
X499623Y813436D01*
X504550D01*
Y799400D01*
X506441D01*
Y784250D01*
X506000D01*
Y775520D01*
X506000Y775250D01*
Y774250D01*
X506000Y773980D01*
Y765250D01*
X516000D01*
Y766181D01*
X519189D01*
X519522Y765849D01*
X519819Y764354D01*
X521035Y762535D01*
X522854Y761319D01*
X525000Y760892D01*
X527146Y761319D01*
X528965Y762535D01*
X530181Y764354D01*
X530608Y766500D01*
X530181Y768646D01*
X528965Y770465D01*
X527146Y771681D01*
X525000Y772108D01*
X523629Y771835D01*
X523191Y772273D01*
X522033Y773047D01*
X520668Y773319D01*
X516898D01*
X516000Y774217D01*
Y775250D01*
X516000Y775520D01*
Y784250D01*
X512559D01*
Y799400D01*
X525186D01*
Y794123D01*
X523769Y792705D01*
X523000Y792858D01*
X520854Y792431D01*
X519035Y791215D01*
X517819Y789396D01*
X517392Y787250D01*
X517819Y785104D01*
X519035Y783285D01*
X520854Y782069D01*
X523000Y781642D01*
X525146Y782069D01*
X526965Y783285D01*
X528181Y785104D01*
X528608Y787250D01*
X528455Y788019D01*
X530843Y790407D01*
X531561Y791482D01*
X531814Y792750D01*
Y799400D01*
X533450D01*
Y815500D01*
X531559D01*
Y821578D01*
X531559Y821578D01*
X531338Y822690D01*
X531333Y822761D01*
X532044Y823960D01*
X533990D01*
Y831280D01*
X528500D01*
X523010D01*
Y825809D01*
X514450D01*
Y836274D01*
X514663Y836487D01*
X514663Y836487D01*
X515326Y837479D01*
X515559Y838650D01*
Y848895D01*
X515650Y848986D01*
X516829Y849536D01*
X517460Y849210D01*
X518046Y849210D01*
X521230D01*
Y854750D01*
Y860290D01*
X517460D01*
X516414Y859750D01*
X508000Y859750D01*
Y856809D01*
X504075D01*
Y859750D01*
X495075D01*
Y859750D01*
X494075D01*
Y859750D01*
X485075D01*
Y849750D01*
X486441D01*
Y834500D01*
X486441Y834500D01*
X486674Y833329D01*
X487337Y832337D01*
X498341Y821334D01*
X498310Y820906D01*
X497887Y819991D01*
X496982Y819811D01*
X495907Y819093D01*
X479873Y803060D01*
X478700Y803546D01*
Y816250D01*
X476809D01*
Y822078D01*
X476809Y822078D01*
X476576Y823249D01*
X476448Y823440D01*
X477127Y824710D01*
X479240D01*
Y832030D01*
X473750D01*
X468260D01*
Y828713D01*
X466990Y828034D01*
X466396Y828431D01*
X464250Y828858D01*
X462104Y828431D01*
X460970Y827673D01*
X459700Y828352D01*
Y841350D01*
X457809D01*
Y845000D01*
X457809Y845000D01*
X457576Y846171D01*
X456913Y847163D01*
X456784Y847292D01*
Y849750D01*
X458225D01*
Y851691D01*
X462150D01*
Y849750D01*
X470564Y849750D01*
X471610Y849210D01*
X472196Y849210D01*
X475380D01*
Y854750D01*
Y860290D01*
X471610D01*
D02*
G37*
G36*
X240210Y859290D02*
X239164Y858750D01*
X230750Y858750D01*
Y857319D01*
X224800D01*
Y858750D01*
X215800D01*
X215800Y858750D01*
X214800D01*
Y858750D01*
X214530Y858750D01*
X205800D01*
Y848750D01*
X209753D01*
X215431Y843072D01*
Y827771D01*
X214760Y827216D01*
X213490Y827711D01*
Y832030D01*
X208000D01*
X202510D01*
Y830395D01*
X201240Y829472D01*
X199862Y829746D01*
X197716Y829319D01*
X195896Y828104D01*
X195372Y827319D01*
X193950D01*
Y841350D01*
X189097D01*
X188918Y841528D01*
Y847499D01*
X190189Y848273D01*
X190310Y848210D01*
X190896Y848210D01*
X194080D01*
Y853750D01*
Y859290D01*
X190310D01*
X189264Y858750D01*
X180850Y858750D01*
Y857319D01*
X174900D01*
Y858750D01*
X165900D01*
Y858750D01*
X164900D01*
Y858750D01*
X155900D01*
Y848750D01*
X156831D01*
Y842390D01*
X153770D01*
Y833800D01*
X152500D01*
Y832530D01*
X147010D01*
Y828619D01*
X146028Y827813D01*
X146000Y827819D01*
X138450D01*
Y841850D01*
X137069D01*
Y847852D01*
X137967Y848750D01*
X139364Y848750D01*
X140410Y848210D01*
X140996Y848210D01*
X144180D01*
Y853750D01*
Y859290D01*
X140410D01*
X139364Y858750D01*
X130950Y858750D01*
Y857319D01*
X125000D01*
Y858750D01*
X116000D01*
Y858750D01*
X115000D01*
Y858750D01*
X106000D01*
Y848750D01*
X106931D01*
Y842850D01*
X107203Y841485D01*
X107977Y840327D01*
X126577Y821727D01*
X127735Y820953D01*
X129100Y820681D01*
X144522D01*
X147280Y817923D01*
X146794Y816750D01*
X128550D01*
Y805697D01*
X128227Y805373D01*
X127453Y804216D01*
X127181Y802850D01*
Y784250D01*
X125750D01*
Y775250D01*
X125750D01*
Y774250D01*
X124734Y773637D01*
X124480Y773567D01*
X121015Y777032D01*
X121108Y777500D01*
X120681Y779646D01*
X119465Y781465D01*
X117646Y782681D01*
X115500Y783108D01*
X113354Y782681D01*
X112203Y781912D01*
X111093Y782466D01*
X110979Y783654D01*
X114356Y787030D01*
X115019Y788023D01*
X115252Y789193D01*
Y827443D01*
X115019Y828614D01*
X114356Y829606D01*
X106549Y837413D01*
X105557Y838076D01*
X104386Y838309D01*
X104386Y838309D01*
X72000D01*
X70830Y838076D01*
X69837Y837413D01*
X69837Y837413D01*
X49587Y817163D01*
X48924Y816171D01*
X48691Y815000D01*
X48691Y815000D01*
Y677200D01*
X48691Y677200D01*
X48924Y676030D01*
X49587Y675037D01*
X53451Y671173D01*
X52965Y670000D01*
X46770D01*
X46500Y670000D01*
X45500D01*
X45230Y670000D01*
X36500D01*
Y660000D01*
X37941D01*
Y651850D01*
X37941Y651850D01*
X38174Y650679D01*
X38837Y649687D01*
X44100Y644424D01*
Y636750D01*
X48941D01*
Y619000D01*
X47000D01*
Y610270D01*
X47000Y610000D01*
Y609000D01*
X47000Y608730D01*
Y600000D01*
X57000D01*
Y601441D01*
X60500D01*
Y600000D01*
X66174D01*
X68587Y597587D01*
X68587Y597587D01*
X69580Y596924D01*
X70750Y596691D01*
X70750Y596691D01*
X72107D01*
X72160Y596427D01*
X72767Y595517D01*
X73677Y594910D01*
X74750Y594696D01*
X85550D01*
X86623Y594910D01*
X87533Y595517D01*
X88140Y596427D01*
X88354Y597500D01*
Y602000D01*
X88140Y603073D01*
X87533Y603983D01*
X86623Y604590D01*
X85550Y604804D01*
X74750D01*
X73677Y604590D01*
X72767Y603983D01*
X72753Y603961D01*
X71502Y603818D01*
X70500Y604744D01*
X70500Y608414D01*
X71040Y609460D01*
X71040Y610046D01*
Y613845D01*
X72310Y614230D01*
X72378Y614128D01*
X73466Y613401D01*
X74750Y613145D01*
X78880D01*
Y618750D01*
Y624355D01*
X74750D01*
X73466Y624099D01*
X72378Y623372D01*
X71651Y622284D01*
X71396Y621000D01*
Y620663D01*
X71040Y619540D01*
X70125Y619540D01*
X66770D01*
Y614500D01*
X65500D01*
Y613230D01*
X59960D01*
Y609460D01*
X60286Y608829D01*
X59736Y607650D01*
X59645Y607559D01*
X57898D01*
X57086Y608371D01*
X57000Y608829D01*
Y610000D01*
X57000Y610270D01*
Y619000D01*
X55059D01*
Y636750D01*
X59100D01*
Y648750D01*
X48426D01*
X44059Y653117D01*
Y659102D01*
X44871Y659914D01*
X45329Y660000D01*
X46500D01*
X46770Y660000D01*
X55500D01*
Y661941D01*
X59700D01*
Y659750D01*
X68430D01*
X68700Y659750D01*
X69700D01*
X69871Y659750D01*
X71141Y659511D01*
Y658250D01*
X66600D01*
Y646250D01*
X81600D01*
Y647528D01*
X82870Y648054D01*
X84000Y646924D01*
X84000Y642836D01*
X83460Y641790D01*
X83460Y641204D01*
Y638020D01*
X89000D01*
X94540D01*
Y641790D01*
X94000Y642836D01*
X94000Y651250D01*
X88326D01*
X85163Y654413D01*
X84171Y655076D01*
X83000Y655309D01*
X83000Y655309D01*
X81600D01*
Y658250D01*
X77259D01*
Y659750D01*
X78700D01*
Y669750D01*
X69970D01*
X69700Y669750D01*
X68700D01*
X68430Y669750D01*
X63526D01*
X54809Y678467D01*
Y813733D01*
X73267Y832191D01*
X103119D01*
X105098Y830213D01*
X104646Y829002D01*
X104568Y828946D01*
X102500Y829358D01*
X100354Y828931D01*
X98535Y827715D01*
X97319Y825896D01*
X96892Y823750D01*
X97319Y821604D01*
X98535Y819785D01*
X98931Y819520D01*
Y809500D01*
X97500D01*
Y800770D01*
X97500Y800500D01*
Y799500D01*
X97500Y799230D01*
Y790500D01*
X99441D01*
Y752000D01*
X99441Y752000D01*
X99674Y750829D01*
X100337Y749837D01*
X149095Y701079D01*
X148569Y699809D01*
X144267D01*
X91809Y752267D01*
Y790500D01*
X93750D01*
Y799230D01*
X93750Y799500D01*
Y800500D01*
X93750Y800770D01*
Y809500D01*
X92319D01*
Y819520D01*
X92715Y819785D01*
X93931Y821604D01*
X94358Y823750D01*
X93931Y825896D01*
X92715Y827715D01*
X90896Y828931D01*
X88750Y829358D01*
X86604Y828931D01*
X84785Y827715D01*
X83569Y825896D01*
X83142Y823750D01*
X83569Y821604D01*
X84785Y819785D01*
X85181Y819520D01*
Y809500D01*
X83750D01*
Y800770D01*
X83750Y800500D01*
Y799500D01*
X83750Y799230D01*
Y790500D01*
X85691D01*
Y751000D01*
X85691Y751000D01*
X85924Y749829D01*
X86587Y748837D01*
X140837Y694587D01*
X140837Y694587D01*
X141830Y693924D01*
X143000Y693691D01*
X143000Y693691D01*
X187233D01*
X197941Y682983D01*
Y657277D01*
X197941Y657277D01*
X198174Y656106D01*
X198837Y655114D01*
X203632Y650319D01*
X203419Y649250D01*
X203846Y647104D01*
X205062Y645285D01*
X206881Y644069D01*
X209027Y643642D01*
X211173Y644069D01*
X211725Y644438D01*
X212995Y643759D01*
Y615821D01*
X209483Y612309D01*
X206143D01*
X206090Y612573D01*
X205483Y613483D01*
X204573Y614090D01*
X203500Y614304D01*
X192700D01*
X191627Y614090D01*
X190717Y613483D01*
X190110Y612573D01*
X189896Y611500D01*
Y607000D01*
X190110Y605927D01*
X190717Y605017D01*
X191627Y604410D01*
X192700Y604196D01*
X203500D01*
X204573Y604410D01*
X205483Y605017D01*
X206090Y605927D01*
X206143Y606191D01*
X210750D01*
X210750Y606191D01*
X211921Y606424D01*
X212913Y607087D01*
X218216Y612391D01*
X218217Y612391D01*
X218880Y613383D01*
X219112Y614554D01*
X219112Y614554D01*
Y663830D01*
X220131Y665354D01*
X220558Y667500D01*
X220131Y669646D01*
X218915Y671465D01*
X217096Y672681D01*
X214950Y673108D01*
X212804Y672681D01*
X210985Y671465D01*
X209769Y669646D01*
X209342Y667500D01*
X209769Y665354D01*
X210985Y663535D01*
X212804Y662319D01*
X212995Y662281D01*
Y654741D01*
X211725Y654062D01*
X211173Y654431D01*
X209027Y654858D01*
X207957Y654645D01*
X204059Y658544D01*
Y684250D01*
X203826Y685421D01*
X203163Y686413D01*
X203163Y686413D01*
X191154Y698421D01*
X191681Y699691D01*
X286483D01*
X298941Y687233D01*
Y652922D01*
X298941Y652922D01*
X299174Y651751D01*
X299837Y650759D01*
X299925Y650671D01*
X299642Y649250D01*
X300069Y647104D01*
X301285Y645285D01*
X303104Y644069D01*
X305250Y643642D01*
X307396Y644069D01*
X308071Y644520D01*
X309191Y643922D01*
Y615267D01*
X306233Y612309D01*
X302893D01*
X302840Y612573D01*
X302233Y613483D01*
X301323Y614090D01*
X300250Y614304D01*
X289450D01*
X288377Y614090D01*
X287467Y613483D01*
X286860Y612573D01*
X286646Y611500D01*
Y607000D01*
X286860Y605927D01*
X287467Y605017D01*
X288377Y604410D01*
X289450Y604196D01*
X300250D01*
X301323Y604410D01*
X302233Y605017D01*
X302840Y605927D01*
X302893Y606191D01*
X307500D01*
X307500Y606191D01*
X308671Y606424D01*
X309663Y607087D01*
X314413Y611837D01*
X314413Y611837D01*
X315076Y612830D01*
X315309Y614000D01*
X315309Y614000D01*
Y663824D01*
X316331Y665354D01*
X316758Y667500D01*
X316331Y669646D01*
X315115Y671465D01*
X313296Y672681D01*
X311150Y673108D01*
X309004Y672681D01*
X307185Y671465D01*
X306329Y670184D01*
X305059Y670570D01*
Y688500D01*
X305059Y688500D01*
X304826Y689670D01*
X304163Y690663D01*
X304163Y690663D01*
X289913Y704913D01*
X288920Y705576D01*
X287750Y705809D01*
X287750Y705809D01*
X153017D01*
X105559Y753267D01*
Y766320D01*
X106829Y766846D01*
X117087Y756587D01*
X117087Y756587D01*
X118080Y755924D01*
X119250Y755691D01*
X133000D01*
X133000Y755691D01*
X134171Y755924D01*
X135163Y756587D01*
X148767Y770191D01*
X150005D01*
X150603Y769071D01*
X150319Y768646D01*
X149892Y766500D01*
X150319Y764354D01*
X151535Y762535D01*
X153354Y761319D01*
X155500Y760892D01*
X156871Y761165D01*
X157809Y760227D01*
X158967Y759453D01*
X160332Y759181D01*
X175875D01*
X177241Y759453D01*
X178398Y760227D01*
X182672Y764500D01*
X187625D01*
Y773500D01*
X187625D01*
Y774500D01*
X187625D01*
Y778453D01*
X191523Y782352D01*
X192297Y783509D01*
X192569Y784875D01*
Y800150D01*
X194422D01*
Y762343D01*
X194422Y762343D01*
X194732Y760782D01*
X195616Y759459D01*
X200709Y754366D01*
X200709Y754366D01*
X202032Y753482D01*
X203593Y753172D01*
X229750D01*
X229750Y753172D01*
X231311Y753482D01*
X232634Y754366D01*
X240884Y762616D01*
X240884Y762616D01*
X241768Y763939D01*
X242078Y765500D01*
X242078Y765500D01*
Y783417D01*
X243317Y784656D01*
X244533Y784288D01*
X244569Y784104D01*
X245785Y782285D01*
X247604Y781069D01*
X249750Y780642D01*
X251896Y781069D01*
X253715Y782285D01*
X254931Y784104D01*
X255358Y786250D01*
X254931Y788396D01*
X253715Y790215D01*
X253436Y790402D01*
X253822Y791672D01*
X254723D01*
X254723Y791672D01*
X256284Y791982D01*
X257607Y792866D01*
X263058Y798317D01*
X267220D01*
X267675Y797725D01*
X269659Y796202D01*
X271970Y795245D01*
X274450Y794918D01*
X276930Y795245D01*
X279241Y796202D01*
X281225Y797725D01*
X282748Y799709D01*
X283706Y802020D01*
X284032Y804500D01*
X283706Y806980D01*
X282748Y809291D01*
X281225Y811275D01*
X279241Y812798D01*
X276930Y813755D01*
X274450Y814082D01*
X271970Y813755D01*
X269659Y812798D01*
X267675Y811275D01*
X266152Y809291D01*
X265195Y806980D01*
X265128Y806474D01*
X261369D01*
X259808Y806163D01*
X258485Y805279D01*
X258485Y805279D01*
X254623Y801417D01*
X253450Y801904D01*
Y816250D01*
X252069D01*
Y818500D01*
X251797Y819866D01*
X251023Y821023D01*
X248607Y823440D01*
X249078Y824710D01*
X253990D01*
Y832030D01*
X248500D01*
X243010D01*
Y826819D01*
X234450D01*
Y836303D01*
X237773Y839627D01*
X238547Y840784D01*
X238818Y842150D01*
Y847499D01*
X240089Y848273D01*
X240210Y848210D01*
X240796Y848210D01*
X243980D01*
Y853750D01*
Y859290D01*
X240382Y859290D01*
X240210D01*
D02*
G37*
G36*
X523770Y860290D02*
Y856020D01*
X527540D01*
Y860290D01*
X523770D01*
D02*
G37*
G36*
X477920D02*
Y856020D01*
X481690D01*
Y860290D01*
X477920D01*
D02*
G37*
G36*
X432070D02*
Y856020D01*
X435840D01*
Y860290D01*
X432070D01*
D02*
G37*
G36*
X196620Y859290D02*
Y855020D01*
X200390D01*
Y859290D01*
X196620D01*
D02*
G37*
G36*
X146720D02*
Y855020D01*
X150490D01*
Y859290D01*
X146720D01*
D02*
G37*
G36*
X246520D02*
Y855020D01*
X250290D01*
Y859290D01*
X246520D01*
D02*
G37*
G36*
X527540Y853480D02*
X523770D01*
Y849210D01*
X527540D01*
Y853480D01*
D02*
G37*
G36*
X481690D02*
X477920D01*
Y849210D01*
X481690D01*
Y853480D01*
D02*
G37*
G36*
X435840D02*
X432070D01*
Y849210D01*
X435840D01*
Y853480D01*
D02*
G37*
G36*
X250290Y852480D02*
X246520D01*
Y848210D01*
X250290D01*
Y852480D01*
D02*
G37*
G36*
X200390D02*
X196620D01*
Y848210D01*
X200390D01*
Y852480D01*
D02*
G37*
G36*
X150490D02*
X146720D01*
Y848210D01*
X150490D01*
Y852480D01*
D02*
G37*
G36*
X326270Y849959D02*
Y841270D01*
X334959D01*
X334782Y842621D01*
X333770Y845063D01*
X332161Y847161D01*
X330063Y848770D01*
X327621Y849782D01*
X326270Y849959D01*
D02*
G37*
G36*
X323730D02*
X322379Y849782D01*
X319937Y848770D01*
X317839Y847161D01*
X316230Y845063D01*
X315219Y842621D01*
X315041Y841270D01*
X323730D01*
Y849959D01*
D02*
G37*
G36*
X151230Y842390D02*
X147010D01*
Y835070D01*
X151230D01*
Y842390D01*
D02*
G37*
G36*
X431365Y842140D02*
X427145D01*
Y834820D01*
X431365D01*
Y842140D01*
D02*
G37*
G36*
X424605D02*
X420385D01*
Y834820D01*
X424605D01*
Y842140D01*
D02*
G37*
G36*
X213490Y841890D02*
X209270D01*
Y834570D01*
X213490D01*
Y841890D01*
D02*
G37*
G36*
X206730D02*
X202510D01*
Y834570D01*
X206730D01*
Y841890D01*
D02*
G37*
G36*
X479240Y841890D02*
X475020D01*
Y834570D01*
X479240D01*
Y841890D01*
D02*
G37*
G36*
X253990Y841890D02*
X249770D01*
Y834570D01*
X253990D01*
Y841890D01*
D02*
G37*
G36*
X472480Y841890D02*
X468260D01*
Y834570D01*
X472480D01*
Y841890D01*
D02*
G37*
G36*
X247230Y841890D02*
X243010D01*
Y834570D01*
X247230D01*
Y841890D01*
D02*
G37*
G36*
X533990Y841140D02*
X529770D01*
Y833820D01*
X533990D01*
Y841140D01*
D02*
G37*
G36*
X527230D02*
X523010D01*
Y833820D01*
X527230D01*
Y841140D01*
D02*
G37*
G36*
X385300Y849500D02*
X366300D01*
Y830500D01*
X385300D01*
Y849500D01*
D02*
G37*
G36*
X334959Y838730D02*
X326270D01*
Y830041D01*
X327621Y830218D01*
X330063Y831230D01*
X332161Y832839D01*
X333770Y834937D01*
X334782Y837379D01*
X334959Y838730D01*
D02*
G37*
G36*
X323730D02*
X315041D01*
X315219Y837379D01*
X316230Y834937D01*
X317839Y832839D01*
X319937Y831230D01*
X322379Y830218D01*
X323730Y830041D01*
Y838730D01*
D02*
G37*
G36*
X326520Y814459D02*
Y805770D01*
X335210D01*
X335032Y807121D01*
X334020Y809563D01*
X332411Y811661D01*
X330313Y813270D01*
X327871Y814282D01*
X326520Y814459D01*
D02*
G37*
G36*
X323980Y814459D02*
X322629Y814282D01*
X320187Y813270D01*
X318089Y811661D01*
X316480Y809563D01*
X315469Y807121D01*
X315291Y805770D01*
X323980D01*
Y814459D01*
D02*
G37*
G36*
X385550Y814000D02*
X366550D01*
Y795000D01*
X385550D01*
Y814000D01*
D02*
G37*
G36*
X350650Y814082D02*
X348170Y813755D01*
X345859Y812798D01*
X343875Y811275D01*
X342352Y809291D01*
X341395Y806980D01*
X341068Y804500D01*
X341395Y802020D01*
X342352Y799709D01*
X343875Y797725D01*
X345859Y796202D01*
X348170Y795245D01*
X350650Y794918D01*
X353130Y795245D01*
X355441Y796202D01*
X357425Y797725D01*
X358948Y799709D01*
X359906Y802020D01*
X360232Y804500D01*
X359906Y806980D01*
X358948Y809291D01*
X357425Y811275D01*
X355441Y812798D01*
X353130Y813755D01*
X350650Y814082D01*
D02*
G37*
G36*
X299850D02*
X297370Y813755D01*
X295059Y812798D01*
X293075Y811275D01*
X291552Y809291D01*
X290595Y806980D01*
X290268Y804500D01*
X290595Y802020D01*
X291552Y799709D01*
X293075Y797725D01*
X295059Y796202D01*
X297370Y795245D01*
X299850Y794918D01*
X302330Y795245D01*
X304641Y796202D01*
X306625Y797725D01*
X308148Y799709D01*
X309105Y802020D01*
X309432Y804500D01*
X309105Y806980D01*
X308148Y809291D01*
X306625Y811275D01*
X304641Y812798D01*
X302330Y813755D01*
X299850Y814082D01*
D02*
G37*
G36*
X335209Y803230D02*
X326520D01*
Y794541D01*
X327871Y794718D01*
X330313Y795730D01*
X332411Y797339D01*
X334020Y799437D01*
X335032Y801879D01*
X335209Y803230D01*
D02*
G37*
G36*
X323980D02*
X315291D01*
X315469Y801879D01*
X316480Y799437D01*
X318089Y797339D01*
X320187Y795730D01*
X322629Y794718D01*
X323980Y794540D01*
Y803230D01*
D02*
G37*
G36*
X262000Y784858D02*
X259854Y784431D01*
X258035Y783215D01*
X256819Y781396D01*
X256392Y779250D01*
X256819Y777104D01*
X258035Y775285D01*
X259854Y774069D01*
X262000Y773642D01*
X264146Y774069D01*
X265965Y775285D01*
X267181Y777104D01*
X267608Y779250D01*
X267181Y781396D01*
X265965Y783215D01*
X264146Y784431D01*
X262000Y784858D01*
D02*
G37*
G36*
X513500Y686608D02*
X511354Y686181D01*
X509535Y684965D01*
X508319Y683146D01*
X507892Y681000D01*
X508319Y678854D01*
X509535Y677035D01*
X511354Y675819D01*
X513500Y675392D01*
X515646Y675819D01*
X517465Y677035D01*
X518071Y677941D01*
X530233D01*
X535441Y672733D01*
Y670000D01*
X534020D01*
X533750Y670000D01*
X532750D01*
X532480Y670000D01*
X523750D01*
Y660000D01*
X525191D01*
Y648350D01*
X525191Y648350D01*
X525424Y647179D01*
X526087Y646187D01*
X530750Y641524D01*
Y636750D01*
X532691D01*
Y619000D01*
X531250D01*
Y610270D01*
X531250Y610000D01*
Y609000D01*
X531250Y608730D01*
Y600000D01*
X541250D01*
Y600000D01*
X542250D01*
Y600000D01*
X547924D01*
X550337Y597587D01*
X550337Y597587D01*
X551329Y596924D01*
X552500Y596691D01*
X555857D01*
X555910Y596427D01*
X556517Y595517D01*
X557427Y594910D01*
X558500Y594696D01*
X569300D01*
X570373Y594910D01*
X571283Y595517D01*
X571890Y596427D01*
X572104Y597500D01*
Y602000D01*
X571890Y603073D01*
X571283Y603983D01*
X570373Y604590D01*
X569300Y604804D01*
X558500D01*
X557427Y604590D01*
X556517Y603983D01*
X555910Y603073D01*
X555857Y602809D01*
X553767D01*
X552250Y604326D01*
X552250Y608414D01*
X552790Y609460D01*
X552790Y610046D01*
Y613230D01*
X547250D01*
Y614500D01*
X545980D01*
Y619540D01*
X541710D01*
X540664Y619000D01*
X539707Y619000D01*
X538809Y619898D01*
Y636750D01*
X545750D01*
Y648750D01*
X532176D01*
X531309Y649617D01*
Y659102D01*
X532121Y659914D01*
X532579Y660000D01*
X533750D01*
X534020Y660000D01*
X542750D01*
Y661941D01*
X546350D01*
Y659750D01*
X555080D01*
X555350Y659750D01*
X556350D01*
X556521Y659750D01*
X557791Y659511D01*
Y658250D01*
X553250D01*
Y646250D01*
X563454D01*
X563750Y646191D01*
X570500D01*
X570500Y642586D01*
X569960Y641540D01*
X569960Y640954D01*
Y640031D01*
X568790Y639790D01*
X568690Y639790D01*
X562020D01*
Y633250D01*
Y626710D01*
X568790D01*
Y631219D01*
X569960Y631460D01*
X570060Y631460D01*
X574230D01*
Y636500D01*
X575500D01*
Y637770D01*
X581040D01*
Y641540D01*
X580500Y642586D01*
X580500Y651000D01*
X574826D01*
X574413Y651413D01*
X573420Y652076D01*
X572250Y652309D01*
X572250Y652309D01*
X568250D01*
Y658250D01*
X563909D01*
Y659750D01*
X565350D01*
Y669750D01*
X556620D01*
X556350Y669750D01*
X555350D01*
X555080Y669750D01*
X546350D01*
Y668059D01*
X542750D01*
Y670000D01*
X541559D01*
Y674000D01*
X541326Y675171D01*
X540663Y676163D01*
X533663Y683163D01*
X532671Y683826D01*
X531500Y684059D01*
X531500Y684059D01*
X518071D01*
X517465Y684965D01*
X515646Y686181D01*
X513500Y686608D01*
D02*
G37*
G36*
X395019Y785642D02*
X392873Y785215D01*
X391054Y783999D01*
X389838Y782180D01*
X389412Y780034D01*
X389838Y777888D01*
X391054Y776069D01*
X391706Y775633D01*
Y736392D01*
X353847Y698533D01*
X353129Y697458D01*
X352876Y696190D01*
Y669750D01*
X351690D01*
Y668309D01*
X347850D01*
Y670000D01*
X339120D01*
X338850Y670000D01*
X337850D01*
X337580Y670000D01*
X328850D01*
Y660000D01*
X329441D01*
Y650600D01*
X329441Y650600D01*
X329674Y649429D01*
X330337Y648437D01*
X336090Y642684D01*
Y636750D01*
X339191D01*
Y619000D01*
X337550D01*
Y610270D01*
X337550Y610000D01*
Y609000D01*
X337550Y608730D01*
Y600000D01*
X347550D01*
Y601441D01*
X351050D01*
Y600000D01*
X356424D01*
X358837Y597587D01*
X358837Y597587D01*
X359829Y596924D01*
X361000Y596691D01*
X361000Y596691D01*
X362357D01*
X362410Y596427D01*
X363017Y595517D01*
X363927Y594910D01*
X365000Y594696D01*
X375800D01*
X376873Y594910D01*
X377783Y595517D01*
X378390Y596427D01*
X378604Y597500D01*
Y602000D01*
X378390Y603073D01*
X377783Y603983D01*
X376873Y604590D01*
X375800Y604804D01*
X365000D01*
X363927Y604590D01*
X363017Y603983D01*
X361828Y604200D01*
X361050Y604908D01*
X361050Y608414D01*
X361590Y609460D01*
X361590Y610046D01*
Y613410D01*
X362016Y613705D01*
X362860Y613973D01*
X363716Y613401D01*
X365000Y613145D01*
X369130D01*
Y618750D01*
Y624355D01*
X365000D01*
X363716Y624099D01*
X362628Y623372D01*
X361901Y622284D01*
X361646Y621000D01*
Y620787D01*
X361590Y619540D01*
X360376Y619540D01*
X357320D01*
Y614500D01*
X356050D01*
Y613230D01*
X350510D01*
Y609460D01*
X350836Y608829D01*
X350286Y607650D01*
X350195Y607559D01*
X348448D01*
X347636Y608371D01*
X347550Y608829D01*
Y610000D01*
X347550Y610270D01*
Y619000D01*
X345309D01*
Y636750D01*
X351090D01*
Y648750D01*
X338676D01*
X335559Y651867D01*
Y660000D01*
X337580D01*
X337850Y660000D01*
X338850D01*
X339120Y660000D01*
X347850D01*
Y662191D01*
X351690D01*
Y659750D01*
X360420D01*
X360690Y659750D01*
X361690D01*
X361960Y659750D01*
X363941D01*
Y658250D01*
X358590D01*
Y646250D01*
X369704D01*
X370000Y646191D01*
X376750D01*
X376750Y642836D01*
X376210Y641790D01*
X376210Y641204D01*
Y638020D01*
X381750D01*
X387290D01*
Y641790D01*
X386750Y642836D01*
X386750Y651250D01*
X381076D01*
X380913Y651413D01*
X379921Y652076D01*
X378750Y652309D01*
X378750Y652309D01*
X373590D01*
Y658250D01*
X370059D01*
Y659750D01*
X370690D01*
Y669750D01*
X361960D01*
X361690Y669750D01*
X360690D01*
X359504Y670604D01*
Y694817D01*
X397362Y732676D01*
X398081Y733751D01*
X398333Y735019D01*
Y775633D01*
X398984Y776069D01*
X400200Y777888D01*
X400627Y780034D01*
X400200Y782180D01*
X398984Y783999D01*
X397165Y785215D01*
X395019Y785642D01*
D02*
G37*
G36*
X223250Y685108D02*
X221104Y684681D01*
X219285Y683465D01*
X218069Y681646D01*
X217642Y679500D01*
X218069Y677354D01*
X219285Y675535D01*
X221104Y674319D01*
X223250Y673892D01*
X225396Y674319D01*
X227215Y675535D01*
X227651Y676186D01*
X248347D01*
X253767Y670766D01*
X254360Y669750D01*
X254360D01*
X254360Y669750D01*
Y668059D01*
X250400D01*
Y670000D01*
X241670D01*
X241400Y670000D01*
X240400D01*
X240130Y670000D01*
X231400D01*
Y660000D01*
X232941D01*
Y650350D01*
X232941Y650350D01*
X233174Y649179D01*
X233837Y648187D01*
X238760Y643264D01*
Y636750D01*
X242441D01*
Y619000D01*
X240700D01*
Y610270D01*
X240700Y610000D01*
Y609000D01*
X240700Y608730D01*
Y600000D01*
X250700D01*
Y601441D01*
X254200D01*
Y600000D01*
X259674D01*
X262087Y597587D01*
X262087Y597587D01*
X263079Y596924D01*
X264250Y596691D01*
X264250Y596691D01*
X265607D01*
X265660Y596427D01*
X266267Y595517D01*
X267177Y594910D01*
X268250Y594696D01*
X279050D01*
X280123Y594910D01*
X281033Y595517D01*
X281640Y596427D01*
X281854Y597500D01*
Y602000D01*
X281640Y603073D01*
X281033Y603983D01*
X280123Y604590D01*
X279050Y604804D01*
X268250D01*
X267177Y604590D01*
X266267Y603983D01*
X265053Y604074D01*
X264200Y604853D01*
X264200Y608414D01*
X264740Y609460D01*
X264740Y610046D01*
Y613545D01*
X265410Y613889D01*
X266010Y614040D01*
X266966Y613401D01*
X268250Y613145D01*
X272380D01*
Y618750D01*
Y624355D01*
X268250D01*
X266966Y624099D01*
X265878Y623372D01*
X265151Y622284D01*
X264895Y621000D01*
Y620746D01*
X264740Y619540D01*
X263626Y619540D01*
X260470D01*
Y614500D01*
X259200D01*
Y613230D01*
X253660D01*
Y609460D01*
X253986Y608829D01*
X253436Y607650D01*
X253345Y607559D01*
X251598D01*
X250786Y608371D01*
X250700Y608829D01*
Y610000D01*
X250700Y610270D01*
Y619000D01*
X248559D01*
Y636750D01*
X253760D01*
Y648750D01*
X241926D01*
X239059Y651617D01*
Y659102D01*
X239731Y659774D01*
X240329Y660000D01*
X241400D01*
X241670Y660000D01*
X250400D01*
Y661941D01*
X254360D01*
Y659750D01*
X263090D01*
X263360Y659750D01*
X264360D01*
X264630Y659750D01*
X265941D01*
Y658250D01*
X261260D01*
Y646250D01*
X276260D01*
Y649191D01*
X277733D01*
X280000Y646924D01*
X280000Y642836D01*
X279460Y641790D01*
X279460Y641204D01*
Y638020D01*
X285000D01*
X290540D01*
Y641790D01*
X290000Y642836D01*
X290000Y651250D01*
X284326D01*
X281163Y654413D01*
X280170Y655076D01*
X279000Y655309D01*
X279000Y655309D01*
X276260D01*
Y658250D01*
X272059D01*
Y659750D01*
X273360D01*
Y669750D01*
X264630D01*
X264360Y669750D01*
X263360D01*
X262174Y670360D01*
X261921Y671628D01*
X261203Y672703D01*
X252063Y681843D01*
X250988Y682561D01*
X249720Y682814D01*
X227651D01*
X227215Y683465D01*
X225396Y684681D01*
X223250Y685108D01*
D02*
G37*
G36*
X130750Y691608D02*
X128604Y691181D01*
X126785Y689965D01*
X125569Y688146D01*
X125142Y686000D01*
X125569Y683854D01*
X126785Y682035D01*
X128604Y680819D01*
X130750Y680392D01*
X132896Y680819D01*
X134715Y682035D01*
X135321Y682941D01*
X143483D01*
X156971Y669453D01*
Y668059D01*
X152950D01*
Y670000D01*
X144220D01*
X143950Y670000D01*
X142950D01*
X142680Y670000D01*
X133950D01*
Y660000D01*
X134691D01*
Y651850D01*
X134691Y651850D01*
X134924Y650679D01*
X135587Y649687D01*
X141430Y643844D01*
Y636750D01*
X145691D01*
Y619000D01*
X143850D01*
Y610270D01*
X143850Y610000D01*
Y609000D01*
X143850Y608730D01*
Y600000D01*
X153850D01*
Y601441D01*
X157350D01*
Y600000D01*
X162924D01*
X165337Y597587D01*
X165337Y597587D01*
X166329Y596924D01*
X167500Y596691D01*
X167500Y596691D01*
X168857D01*
X168910Y596427D01*
X169517Y595517D01*
X170427Y594910D01*
X171500Y594696D01*
X182300D01*
X183373Y594910D01*
X184283Y595517D01*
X184890Y596427D01*
X185104Y597500D01*
Y602000D01*
X184890Y603073D01*
X184283Y603983D01*
X183373Y604590D01*
X182300Y604804D01*
X171500D01*
X170427Y604590D01*
X169517Y603983D01*
X168278Y603946D01*
X167350Y604799D01*
X167350Y608414D01*
X167890Y609460D01*
X167890Y610046D01*
Y613695D01*
X168960Y614069D01*
X169160Y614107D01*
X170216Y613401D01*
X171500Y613145D01*
X175630D01*
Y618750D01*
Y624355D01*
X171500D01*
X170216Y624099D01*
X169128Y623372D01*
X168401Y622284D01*
X168146Y621000D01*
Y620704D01*
X167890Y619540D01*
X166875Y619540D01*
X163620D01*
Y614500D01*
X162350D01*
Y613230D01*
X156810D01*
Y609460D01*
X157136Y608829D01*
X156586Y607650D01*
X156495Y607559D01*
X154748D01*
X153936Y608371D01*
X153850Y608829D01*
Y610000D01*
X153850Y610270D01*
Y619000D01*
X151809D01*
Y636750D01*
X156430D01*
Y648750D01*
X145176D01*
X140809Y653117D01*
Y660000D01*
X142680D01*
X142950Y660000D01*
X143950D01*
X144220Y660000D01*
X152950D01*
Y661941D01*
X157030D01*
Y659750D01*
X165760D01*
X166030Y659750D01*
X167030D01*
X167223Y659520D01*
X166632Y658250D01*
X163930D01*
Y646250D01*
X178930D01*
Y649191D01*
X180983D01*
X183000Y647174D01*
X183000Y643086D01*
X182460Y642040D01*
X182460Y641454D01*
Y638270D01*
X188000D01*
X193540D01*
Y642040D01*
X193000Y643086D01*
X193000Y651500D01*
X187326D01*
X184413Y654413D01*
X183421Y655076D01*
X182250Y655309D01*
X182250Y655309D01*
X178930D01*
Y658250D01*
X174009D01*
Y659750D01*
X176030D01*
Y669750D01*
X167300D01*
X167030Y669750D01*
X166030D01*
X165760Y669750D01*
X163852D01*
X163089Y670720D01*
X162856Y671891D01*
X162193Y672883D01*
X162193Y672883D01*
X146913Y688163D01*
X145921Y688826D01*
X144750Y689059D01*
X144750Y689059D01*
X135321D01*
X134715Y689965D01*
X132896Y691181D01*
X130750Y691608D01*
D02*
G37*
G36*
X407350Y673108D02*
X405204Y672681D01*
X403385Y671465D01*
X402169Y669646D01*
X401742Y667500D01*
X402169Y665354D01*
X403385Y663535D01*
X405204Y662319D01*
X407350Y661892D01*
X407941Y661407D01*
Y655393D01*
X406671Y654939D01*
X405146Y655958D01*
X403000Y656385D01*
X400854Y655958D01*
X399035Y654742D01*
X397819Y652923D01*
X397392Y650777D01*
X397819Y648631D01*
X399035Y646812D01*
X400854Y645596D01*
X403000Y645169D01*
X405146Y645596D01*
X406671Y646615D01*
X407941Y646160D01*
Y617267D01*
X402983Y612309D01*
X399643D01*
X399590Y612573D01*
X398983Y613483D01*
X398073Y614090D01*
X397000Y614304D01*
X386200D01*
X385127Y614090D01*
X384217Y613483D01*
X383610Y612573D01*
X383396Y611500D01*
Y607000D01*
X383610Y605927D01*
X384217Y605017D01*
X385127Y604410D01*
X386200Y604196D01*
X397000D01*
X398073Y604410D01*
X398983Y605017D01*
X399590Y605927D01*
X399643Y606191D01*
X404250D01*
X404250Y606191D01*
X405420Y606424D01*
X406413Y607087D01*
X413163Y613837D01*
X413826Y614829D01*
X414059Y616000D01*
X414059Y616000D01*
Y663828D01*
X414059Y663828D01*
X413826Y664999D01*
X413163Y665991D01*
X412741Y666413D01*
X412958Y667500D01*
X412531Y669646D01*
X411315Y671465D01*
X409496Y672681D01*
X407350Y673108D01*
D02*
G37*
G36*
X503550D02*
X501404Y672681D01*
X499585Y671465D01*
X498369Y669646D01*
X497942Y667500D01*
X498369Y665354D01*
X499585Y663535D01*
X501404Y662319D01*
X502691Y662063D01*
Y653786D01*
X501421Y653376D01*
X499842Y654431D01*
X497696Y654858D01*
X495550Y654431D01*
X493731Y653215D01*
X492515Y651396D01*
X492089Y649250D01*
X492515Y647104D01*
X493731Y645285D01*
X495550Y644069D01*
X497696Y643642D01*
X499842Y644069D01*
X501421Y645124D01*
X502691Y644714D01*
Y615267D01*
X499733Y612309D01*
X496393D01*
X496340Y612573D01*
X495733Y613483D01*
X494823Y614090D01*
X493750Y614304D01*
X482950D01*
X481877Y614090D01*
X480967Y613483D01*
X480360Y612573D01*
X480146Y611500D01*
Y607000D01*
X480360Y605927D01*
X480967Y605017D01*
X481877Y604410D01*
X482950Y604196D01*
X493750D01*
X494823Y604410D01*
X495733Y605017D01*
X496340Y605927D01*
X496393Y606191D01*
X501000D01*
X501000Y606191D01*
X502170Y606424D01*
X503163Y607087D01*
X507913Y611837D01*
X507913Y611837D01*
X508576Y612830D01*
X508809Y614000D01*
X508809Y614000D01*
Y663947D01*
X508576Y665117D01*
X508574Y665120D01*
X508731Y665354D01*
X509158Y667500D01*
X508731Y669646D01*
X507515Y671465D01*
X505696Y672681D01*
X503550Y673108D01*
D02*
G37*
G36*
X374130Y639790D02*
X367360D01*
Y634520D01*
X374130D01*
Y639790D01*
D02*
G37*
G36*
X364820D02*
X358050D01*
Y634520D01*
X364820D01*
Y639790D01*
D02*
G37*
G36*
X276800D02*
X270030D01*
Y634520D01*
X276800D01*
Y639790D01*
D02*
G37*
G36*
X82140D02*
X75370D01*
Y634520D01*
X82140D01*
Y639790D01*
D02*
G37*
G36*
X267490D02*
X260720D01*
Y634520D01*
X267490D01*
Y639790D01*
D02*
G37*
G36*
X72830D02*
X66060D01*
Y634520D01*
X72830D01*
Y639790D01*
D02*
G37*
G36*
X179470D02*
X172700D01*
Y634520D01*
X179470D01*
Y639790D01*
D02*
G37*
G36*
X559480D02*
X552710D01*
Y634520D01*
X559480D01*
Y639790D01*
D02*
G37*
G36*
X170160D02*
X163390D01*
Y634520D01*
X170160D01*
Y639790D01*
D02*
G37*
G36*
X471460D02*
X464690D01*
Y634520D01*
X471460D01*
Y639790D01*
D02*
G37*
G36*
X462150D02*
X455380D01*
Y634520D01*
X462150D01*
Y639790D01*
D02*
G37*
G36*
X193540Y635730D02*
X189270D01*
Y631960D01*
X193540D01*
Y635730D01*
D02*
G37*
G36*
X186730D02*
X182460D01*
Y631960D01*
X186730D01*
Y635730D01*
D02*
G37*
G36*
X486540Y635480D02*
X482270D01*
Y631710D01*
X486540D01*
Y635480D01*
D02*
G37*
G36*
X479730D02*
X475460D01*
Y631710D01*
X479730D01*
Y635480D01*
D02*
G37*
G36*
X94540Y635480D02*
X90270D01*
Y631710D01*
X94540D01*
Y635480D01*
D02*
G37*
G36*
X87730D02*
X83460D01*
Y631710D01*
X87730D01*
Y635480D01*
D02*
G37*
G36*
X387290Y635480D02*
X383020D01*
Y631710D01*
X387290D01*
Y635480D01*
D02*
G37*
G36*
X380480D02*
X376210D01*
Y631710D01*
X380480D01*
Y635480D01*
D02*
G37*
G36*
X290540D02*
X286270D01*
Y631710D01*
X290540D01*
Y635480D01*
D02*
G37*
G36*
X283730D02*
X279460D01*
Y631710D01*
X283730D01*
Y635480D01*
D02*
G37*
G36*
X581040Y635230D02*
X576770D01*
Y631460D01*
X581040D01*
Y635230D01*
D02*
G37*
G36*
X559480Y631980D02*
X552710D01*
Y626710D01*
X559480D01*
Y631980D01*
D02*
G37*
G36*
X471460Y631980D02*
X464690D01*
Y626710D01*
X471460D01*
Y631980D01*
D02*
G37*
G36*
X462150D02*
X455380D01*
Y626710D01*
X462150D01*
Y631980D01*
D02*
G37*
G36*
X374130Y631980D02*
X367360D01*
Y626710D01*
X374130D01*
Y631980D01*
D02*
G37*
G36*
X364820D02*
X358050D01*
Y626710D01*
X364820D01*
Y631980D01*
D02*
G37*
G36*
X276800Y631980D02*
X270030D01*
Y626710D01*
X276800D01*
Y631980D01*
D02*
G37*
G36*
X267490D02*
X260720D01*
Y626710D01*
X267490D01*
Y631980D01*
D02*
G37*
G36*
X179470Y631980D02*
X172700D01*
Y626710D01*
X179470D01*
Y631980D01*
D02*
G37*
G36*
X170160D02*
X163390D01*
Y626710D01*
X170160D01*
Y631980D01*
D02*
G37*
G36*
X82140Y631980D02*
X75370D01*
Y626710D01*
X82140D01*
Y631980D01*
D02*
G37*
G36*
X72830D02*
X66060D01*
Y626710D01*
X72830D01*
Y631980D01*
D02*
G37*
G36*
X569300Y624355D02*
X565170D01*
Y620020D01*
X572654D01*
Y621000D01*
X572399Y622284D01*
X571672Y623372D01*
X570584Y624099D01*
X569300Y624355D01*
D02*
G37*
G36*
X562630D02*
X558500D01*
X557216Y624099D01*
X556128Y623372D01*
X555401Y622284D01*
X555145Y621000D01*
Y620020D01*
X562630D01*
Y624355D01*
D02*
G37*
G36*
X472550D02*
X468420D01*
Y620020D01*
X475905D01*
Y621000D01*
X475649Y622284D01*
X474922Y623372D01*
X473834Y624099D01*
X472550Y624355D01*
D02*
G37*
G36*
X375800D02*
X371670D01*
Y620020D01*
X379155D01*
Y621000D01*
X378899Y622284D01*
X378172Y623372D01*
X377084Y624099D01*
X375800Y624355D01*
D02*
G37*
G36*
X279050D02*
X274920D01*
Y620020D01*
X282404D01*
Y621000D01*
X282149Y622284D01*
X281422Y623372D01*
X280334Y624099D01*
X279050Y624355D01*
D02*
G37*
G36*
X182300D02*
X178170D01*
Y620020D01*
X185655D01*
Y621000D01*
X185399Y622284D01*
X184672Y623372D01*
X183584Y624099D01*
X182300Y624355D01*
D02*
G37*
G36*
X85550D02*
X81420D01*
Y620020D01*
X88904D01*
Y621000D01*
X88649Y622284D01*
X87922Y623372D01*
X86834Y624099D01*
X85550Y624355D01*
D02*
G37*
G36*
X451630Y619540D02*
X447360D01*
Y615770D01*
X451630D01*
Y619540D01*
D02*
G37*
G36*
X354780D02*
X350510D01*
Y615770D01*
X354780D01*
Y619540D01*
D02*
G37*
G36*
X257930D02*
X253660D01*
Y615770D01*
X257930D01*
Y619540D01*
D02*
G37*
G36*
X161080D02*
X156810D01*
Y615770D01*
X161080D01*
Y619540D01*
D02*
G37*
G36*
X64230D02*
X59960D01*
Y615770D01*
X64230D01*
Y619540D01*
D02*
G37*
G36*
X548520Y619540D02*
Y615770D01*
X552790D01*
Y619540D01*
X548520D01*
D02*
G37*
G36*
X572654Y617480D02*
X565170D01*
Y613145D01*
X569300D01*
X570584Y613401D01*
X571672Y614128D01*
X572399Y615216D01*
X572654Y616500D01*
Y617480D01*
D02*
G37*
G36*
X562630D02*
X555145D01*
Y616500D01*
X555401Y615216D01*
X556128Y614128D01*
X557216Y613401D01*
X558500Y613145D01*
X562630D01*
Y617480D01*
D02*
G37*
G36*
X475905D02*
X468420D01*
Y613145D01*
X472550D01*
X473834Y613401D01*
X474922Y614128D01*
X475649Y615216D01*
X475905Y616500D01*
Y617480D01*
D02*
G37*
G36*
X379155D02*
X371670D01*
Y613145D01*
X375800D01*
X377084Y613401D01*
X378172Y614128D01*
X378899Y615216D01*
X379155Y616500D01*
Y617480D01*
D02*
G37*
G36*
X282404D02*
X274920D01*
Y613145D01*
X279050D01*
X280334Y613401D01*
X281422Y614128D01*
X282149Y615216D01*
X282404Y616500D01*
Y617480D01*
D02*
G37*
G36*
X185655D02*
X178170D01*
Y613145D01*
X182300D01*
X183584Y613401D01*
X184672Y614128D01*
X185399Y615216D01*
X185655Y616500D01*
Y617480D01*
D02*
G37*
G36*
X88904D02*
X81420D01*
Y613145D01*
X85550D01*
X86834Y613401D01*
X87922Y614128D01*
X88649Y615216D01*
X88904Y616500D01*
Y617480D01*
D02*
G37*
G36*
X74750Y829358D02*
X72604Y828931D01*
X70785Y827715D01*
X69569Y825896D01*
X69142Y823750D01*
X69569Y821604D01*
X70785Y819785D01*
X71306Y819436D01*
Y809500D01*
X70000D01*
Y800770D01*
X70000Y800500D01*
Y799500D01*
X70000Y799230D01*
Y790500D01*
X71941D01*
Y729250D01*
X71941Y729250D01*
X72174Y728079D01*
X72837Y727087D01*
X101191Y698733D01*
Y657804D01*
X101191Y657804D01*
X101424Y656633D01*
X102087Y655641D01*
X107409Y650319D01*
X107196Y649250D01*
X107623Y647104D01*
X108838Y645285D01*
X110658Y644069D01*
X112804Y643642D01*
X114950Y644069D01*
X115125Y644186D01*
X116245Y643587D01*
Y615821D01*
X112733Y612309D01*
X109393D01*
X109340Y612573D01*
X108733Y613483D01*
X107823Y614090D01*
X106750Y614304D01*
X95950D01*
X94877Y614090D01*
X93967Y613483D01*
X93360Y612573D01*
X93146Y611500D01*
Y607000D01*
X93360Y605927D01*
X93967Y605017D01*
X94877Y604410D01*
X95950Y604196D01*
X106750D01*
X107823Y604410D01*
X108733Y605017D01*
X109340Y605927D01*
X109393Y606191D01*
X114000D01*
X114000Y606191D01*
X115170Y606424D01*
X116163Y607087D01*
X121467Y612391D01*
X121467Y612391D01*
X122130Y613383D01*
X122362Y614554D01*
X122362Y614554D01*
Y663755D01*
X123431Y665354D01*
X123858Y667500D01*
X123431Y669646D01*
X122215Y671465D01*
X120396Y672681D01*
X118250Y673108D01*
X116104Y672681D01*
X114285Y671465D01*
X113069Y669646D01*
X112642Y667500D01*
X113069Y665354D01*
X114285Y663535D01*
X116104Y662319D01*
X116245Y662291D01*
Y654912D01*
X115125Y654314D01*
X114950Y654431D01*
X112804Y654858D01*
X111734Y654645D01*
X107309Y659071D01*
Y700000D01*
X107309Y700000D01*
X107076Y701171D01*
X106413Y702163D01*
X106413Y702163D01*
X78059Y730517D01*
Y790500D01*
X80000D01*
Y799230D01*
X80000Y799500D01*
Y800500D01*
X80000Y800770D01*
Y809500D01*
X78444D01*
Y819603D01*
X78715Y819785D01*
X79931Y821604D01*
X80358Y823750D01*
X79931Y825896D01*
X78715Y827715D01*
X76896Y828931D01*
X74750Y829358D01*
D02*
G37*
G36*
X393419Y570358D02*
X391273Y569931D01*
X389454Y568715D01*
X388487Y567267D01*
X387250Y567173D01*
X387050Y567229D01*
X386188Y568518D01*
X384369Y569734D01*
X382223Y570161D01*
X380077Y569734D01*
X378257Y568518D01*
X377042Y566699D01*
X376615Y564553D01*
X377042Y562407D01*
X378257Y560588D01*
X379164Y559982D01*
Y557490D01*
X377424Y555750D01*
X372250D01*
Y547020D01*
X372250Y546750D01*
Y545750D01*
X372250Y545480D01*
Y536750D01*
X373681D01*
Y530978D01*
X365968Y523265D01*
X365500Y523358D01*
X363354Y522931D01*
X361535Y521715D01*
X360319Y519896D01*
X359892Y517750D01*
X360319Y515604D01*
X361535Y513785D01*
X363354Y512569D01*
X365500Y512142D01*
X367646Y512569D01*
X369465Y513785D01*
X370681Y515604D01*
X371108Y517750D01*
X371015Y518218D01*
X379773Y526977D01*
X380547Y528134D01*
X380818Y529500D01*
Y536750D01*
X382250D01*
Y545480D01*
X382250Y545750D01*
Y546750D01*
X382250Y547020D01*
Y551924D01*
X384385Y554060D01*
X384385Y554060D01*
X385048Y555052D01*
X385281Y556223D01*
Y559982D01*
X386188Y560588D01*
X387155Y562036D01*
X388392Y562131D01*
X388592Y562075D01*
X389454Y560785D01*
X390361Y560179D01*
Y556000D01*
X388600D01*
Y547270D01*
X388600Y547000D01*
Y546000D01*
X388600Y545730D01*
Y537000D01*
X394274D01*
X402687Y528587D01*
X402687Y528587D01*
X403680Y527924D01*
X404850Y527691D01*
X417179D01*
X417785Y526785D01*
X419604Y525569D01*
X421750Y525142D01*
X423896Y525569D01*
X425715Y526785D01*
X426931Y528604D01*
X427358Y530750D01*
X426931Y532896D01*
X425715Y534715D01*
X423896Y535931D01*
X421750Y536358D01*
X419604Y535931D01*
X417785Y534715D01*
X417179Y533809D01*
X406117D01*
X398600Y541326D01*
Y545730D01*
X398600Y546000D01*
Y547000D01*
X398600Y547270D01*
Y556000D01*
X396478D01*
Y560179D01*
X397385Y560785D01*
X398600Y562604D01*
X399027Y564750D01*
X398600Y566896D01*
X397385Y568715D01*
X395565Y569931D01*
X393419Y570358D01*
D02*
G37*
G36*
X104750D02*
X102604Y569931D01*
X100785Y568715D01*
X99817Y567267D01*
X98580Y567173D01*
X98380Y567229D01*
X97518Y568518D01*
X95699Y569734D01*
X93553Y570161D01*
X91407Y569734D01*
X89588Y568518D01*
X88372Y566699D01*
X87945Y564553D01*
X88372Y562407D01*
X89588Y560588D01*
X90494Y559982D01*
Y555750D01*
X87250D01*
Y547020D01*
X87250Y546750D01*
Y545750D01*
X87250Y545480D01*
Y536750D01*
X88556D01*
Y514814D01*
X88035Y514465D01*
X86819Y512646D01*
X86392Y510500D01*
X86819Y508354D01*
X88035Y506535D01*
X89854Y505319D01*
X92000Y504892D01*
X94146Y505319D01*
X95965Y506535D01*
X97181Y508354D01*
X97608Y510500D01*
X97181Y512646D01*
X95965Y514465D01*
X95694Y514647D01*
Y536750D01*
X97250D01*
Y545480D01*
X97250Y545750D01*
Y546750D01*
X97250Y547020D01*
Y555750D01*
X96612D01*
Y559982D01*
X97518Y560588D01*
X98486Y562036D01*
X99723Y562131D01*
X99923Y562075D01*
X100785Y560785D01*
X101691Y560179D01*
Y554750D01*
X101691Y554750D01*
X101924Y553579D01*
X102587Y552587D01*
X103000Y552174D01*
Y547270D01*
X103000Y547000D01*
Y546000D01*
X103000Y545730D01*
Y537000D01*
X108674D01*
X116087Y529587D01*
X116087Y529587D01*
X117079Y528924D01*
X118250Y528691D01*
X118250Y528691D01*
X129679D01*
X130285Y527785D01*
X132104Y526569D01*
X134250Y526142D01*
X136396Y526569D01*
X138215Y527785D01*
X139431Y529604D01*
X139858Y531750D01*
X139431Y533896D01*
X138215Y535715D01*
X136396Y536931D01*
X134250Y537358D01*
X132104Y536931D01*
X130285Y535715D01*
X129679Y534809D01*
X119517D01*
X113000Y541326D01*
Y545730D01*
X113000Y546000D01*
Y547000D01*
X113000Y547270D01*
Y556000D01*
X107826D01*
X107809Y556017D01*
Y560179D01*
X108715Y560785D01*
X109931Y562604D01*
X110358Y564750D01*
X109931Y566896D01*
X108715Y568715D01*
X106896Y569931D01*
X104750Y570358D01*
D02*
G37*
G36*
X489643D02*
X487497Y569931D01*
X485677Y568715D01*
X484710Y567267D01*
X483473Y567173D01*
X483273Y567229D01*
X482411Y568518D01*
X480592Y569734D01*
X478446Y570161D01*
X476300Y569734D01*
X474481Y568518D01*
X473265Y566699D01*
X472838Y564553D01*
X473265Y562407D01*
X474481Y560588D01*
X475387Y559982D01*
Y558713D01*
X472424Y555750D01*
X467250D01*
Y547020D01*
X467250Y546750D01*
Y545750D01*
X467250Y545480D01*
Y536750D01*
X468681D01*
Y527728D01*
X457968Y517015D01*
X457500Y517108D01*
X455354Y516681D01*
X453535Y515465D01*
X452319Y513646D01*
X451892Y511500D01*
X452319Y509354D01*
X453535Y507535D01*
X455354Y506319D01*
X457500Y505892D01*
X459646Y506319D01*
X461465Y507535D01*
X462681Y509354D01*
X463108Y511500D01*
X463015Y511968D01*
X474773Y523727D01*
X475547Y524884D01*
X475818Y526250D01*
Y536750D01*
X477250D01*
Y545480D01*
X477250Y545750D01*
Y546750D01*
X477250Y547020D01*
Y551924D01*
X480609Y555283D01*
X480609Y555283D01*
X481272Y556275D01*
X481505Y557446D01*
X481505Y557446D01*
Y559982D01*
X482411Y560588D01*
X483378Y562036D01*
X484616Y562131D01*
X484816Y562075D01*
X485677Y560785D01*
X486584Y560179D01*
Y556000D01*
X483800D01*
Y547270D01*
X483800Y547000D01*
Y546000D01*
X483800Y545730D01*
Y537000D01*
X489474D01*
X498137Y528337D01*
X498137Y528337D01*
X499129Y527674D01*
X500300Y527441D01*
X517679D01*
X518285Y526535D01*
X520104Y525319D01*
X522250Y524892D01*
X524396Y525319D01*
X526215Y526535D01*
X527431Y528354D01*
X527858Y530500D01*
X527431Y532646D01*
X526215Y534465D01*
X524396Y535681D01*
X522250Y536108D01*
X520104Y535681D01*
X518285Y534465D01*
X517679Y533559D01*
X501567D01*
X493800Y541326D01*
Y545730D01*
X493800Y546000D01*
Y547000D01*
X493800Y547270D01*
Y556000D01*
X492701D01*
Y560179D01*
X493608Y560785D01*
X494824Y562604D01*
X495250Y564750D01*
X494824Y566896D01*
X493608Y568715D01*
X491789Y569931D01*
X489643Y570358D01*
D02*
G37*
G36*
X297196D02*
X295050Y569931D01*
X293231Y568715D01*
X292264Y567267D01*
X291027Y567173D01*
X290826Y567229D01*
X289965Y568518D01*
X288145Y569734D01*
X285999Y570161D01*
X283853Y569734D01*
X282034Y568518D01*
X280819Y566699D01*
X280392Y564553D01*
X280819Y562407D01*
X282034Y560588D01*
X282941Y559982D01*
Y556266D01*
X282424Y555750D01*
X277250D01*
Y547020D01*
X277250Y546750D01*
Y545750D01*
X277250Y545480D01*
Y536750D01*
X278681D01*
Y527478D01*
X269977Y518773D01*
X269203Y517616D01*
X269042Y516804D01*
X268535Y516465D01*
X267319Y514646D01*
X266892Y512500D01*
X267319Y510354D01*
X268535Y508535D01*
X270354Y507319D01*
X272500Y506892D01*
X274646Y507319D01*
X276465Y508535D01*
X277681Y510354D01*
X278108Y512500D01*
X277681Y514646D01*
X276985Y515688D01*
X284773Y523477D01*
X285547Y524634D01*
X285819Y526000D01*
Y536750D01*
X287250D01*
Y545480D01*
X287250Y545750D01*
Y546750D01*
X287250Y547020D01*
Y551924D01*
X288162Y552836D01*
X288825Y553829D01*
X289058Y554999D01*
X289058Y555000D01*
Y559982D01*
X289965Y560588D01*
X290932Y562036D01*
X292169Y562131D01*
X292369Y562075D01*
X293231Y560785D01*
X294138Y560179D01*
Y556000D01*
X293400D01*
Y547270D01*
X293400Y547000D01*
Y546000D01*
X293400Y545730D01*
Y537000D01*
X299074D01*
X309987Y526087D01*
X310979Y525424D01*
X312150Y525191D01*
X320929D01*
X321535Y524285D01*
X323354Y523069D01*
X325500Y522642D01*
X327646Y523069D01*
X329465Y524285D01*
X330681Y526104D01*
X331108Y528250D01*
X330681Y530396D01*
X329465Y532215D01*
X327646Y533431D01*
X325500Y533858D01*
X323354Y533431D01*
X321535Y532215D01*
X320929Y531309D01*
X313417D01*
X303400Y541326D01*
Y545730D01*
X303400Y546000D01*
Y547000D01*
X303400Y547270D01*
Y556000D01*
X300255D01*
Y560179D01*
X301162Y560785D01*
X302377Y562604D01*
X302804Y564750D01*
X302377Y566896D01*
X301162Y568715D01*
X299342Y569931D01*
X297196Y570358D01*
D02*
G37*
G36*
X200973D02*
X198827Y569931D01*
X197008Y568715D01*
X196040Y567267D01*
X194804Y567173D01*
X194603Y567229D01*
X193741Y568518D01*
X191922Y569734D01*
X189776Y570161D01*
X187630Y569734D01*
X185811Y568518D01*
X184595Y566699D01*
X184168Y564553D01*
X184595Y562407D01*
X185811Y560588D01*
X186191Y560334D01*
Y555750D01*
X182250D01*
Y547020D01*
X182250Y546750D01*
Y545750D01*
X182250Y545480D01*
Y536750D01*
X183681D01*
Y530394D01*
X173977Y520690D01*
X173203Y519532D01*
X172931Y518166D01*
Y509980D01*
X172535Y509715D01*
X171319Y507896D01*
X170892Y505750D01*
X171319Y503604D01*
X172535Y501785D01*
X174354Y500569D01*
X176500Y500142D01*
X178646Y500569D01*
X180465Y501785D01*
X181681Y503604D01*
X182108Y505750D01*
X181681Y507896D01*
X180465Y509715D01*
X180069Y509980D01*
Y516688D01*
X189773Y526393D01*
X190547Y527551D01*
X190819Y528916D01*
Y536750D01*
X192250D01*
Y545480D01*
X192250Y545750D01*
Y546750D01*
X192250Y547020D01*
Y552454D01*
X192309Y552750D01*
Y559631D01*
X193741Y560588D01*
X194709Y562036D01*
X195946Y562131D01*
X196146Y562075D01*
X197008Y560785D01*
X198141Y560028D01*
Y553000D01*
X198141Y553000D01*
X198200Y552704D01*
Y547270D01*
X198200Y547000D01*
Y546000D01*
X198200Y545730D01*
Y537000D01*
X203874D01*
X211287Y529587D01*
X211287Y529587D01*
X212279Y528924D01*
X213450Y528691D01*
X213450Y528691D01*
X224879D01*
X225485Y527785D01*
X227304Y526569D01*
X229450Y526142D01*
X231596Y526569D01*
X233415Y527785D01*
X234631Y529604D01*
X235058Y531750D01*
X234631Y533896D01*
X233415Y535715D01*
X231596Y536931D01*
X229450Y537358D01*
X227304Y536931D01*
X225485Y535715D01*
X224879Y534809D01*
X214717D01*
X208200Y541326D01*
Y545730D01*
X208200Y546000D01*
Y547000D01*
X208200Y547270D01*
Y556000D01*
X204259D01*
Y560331D01*
X204939Y560785D01*
X206154Y562604D01*
X206581Y564750D01*
X206154Y566896D01*
X204939Y568715D01*
X203119Y569931D01*
X200973Y570358D01*
D02*
G37*
G36*
X472750Y403608D02*
X470604Y403181D01*
X468785Y401965D01*
X467569Y400146D01*
X467142Y398000D01*
X467470Y396353D01*
X466337Y395220D01*
X465674Y394228D01*
X465441Y393058D01*
X465441Y393058D01*
Y284000D01*
X465441Y284000D01*
X465674Y282829D01*
X466337Y281837D01*
X467587Y280587D01*
X467587Y280587D01*
X468579Y279924D01*
X469750Y279691D01*
X472364D01*
Y260750D01*
Y238750D01*
Y205821D01*
X472364Y205821D01*
X472725Y203080D01*
X473219Y201888D01*
Y53718D01*
X472898Y52944D01*
X472497Y49902D01*
Y30598D01*
X472898Y27556D01*
X474072Y24722D01*
X475940Y22288D01*
X478374Y20420D01*
X481208Y19246D01*
X484250Y18845D01*
X487292Y19246D01*
X490126Y20420D01*
X492560Y22288D01*
X494428Y24722D01*
X495602Y27556D01*
X496003Y30598D01*
Y49902D01*
X495602Y52944D01*
X494428Y55778D01*
X494400Y55815D01*
Y204966D01*
X494400Y204966D01*
X494039Y207707D01*
X493545Y208899D01*
Y238750D01*
Y260750D01*
Y282750D01*
Y304750D01*
Y326750D01*
X493184Y329491D01*
X492955Y330046D01*
Y336750D01*
X486250D01*
X485696Y336980D01*
X482955Y337341D01*
X480214Y336980D01*
X479659Y336750D01*
X472955D01*
Y331012D01*
X472829Y330905D01*
X471559Y331493D01*
Y391546D01*
X472564Y392429D01*
X472750Y392392D01*
X474896Y392819D01*
X476715Y394035D01*
X477931Y395854D01*
X478358Y398000D01*
X477931Y400146D01*
X476715Y401965D01*
X474896Y403181D01*
X472750Y403608D01*
D02*
G37*
G36*
X351750Y361358D02*
X349604Y360931D01*
X347785Y359715D01*
X346678Y358059D01*
X333250D01*
X333250Y358059D01*
X332080Y357826D01*
X331087Y357163D01*
X331087Y357163D01*
X324587Y350663D01*
X323924Y349670D01*
X323691Y348500D01*
X323691Y348500D01*
Y283922D01*
X323691Y283922D01*
X323924Y282751D01*
X324587Y281759D01*
X325759Y280587D01*
X325759Y280587D01*
X326751Y279924D01*
X327922Y279691D01*
X327922Y279691D01*
X332349D01*
Y260750D01*
Y238750D01*
Y205836D01*
X332349Y205836D01*
X332710Y203095D01*
X333219Y201867D01*
Y53718D01*
X332898Y52944D01*
X332497Y49902D01*
Y30598D01*
X332898Y27556D01*
X334072Y24722D01*
X335940Y22288D01*
X338374Y20420D01*
X341208Y19246D01*
X344250Y18845D01*
X347292Y19246D01*
X350126Y20420D01*
X352560Y22288D01*
X354428Y24722D01*
X355602Y27556D01*
X356003Y30598D01*
Y49902D01*
X355602Y52944D01*
X354428Y55778D01*
X354400Y55815D01*
Y204966D01*
X354039Y207707D01*
X353530Y208935D01*
Y238750D01*
Y260750D01*
Y282750D01*
Y304750D01*
Y326750D01*
X353169Y329491D01*
X352940Y330046D01*
Y336750D01*
X346235D01*
X345681Y336980D01*
X342940Y337341D01*
X340199Y336980D01*
X339644Y336750D01*
X332940D01*
Y330046D01*
X332710Y329491D01*
X332349Y326750D01*
Y304750D01*
Y285809D01*
X329809D01*
Y347233D01*
X334517Y351941D01*
X347680D01*
X347785Y351785D01*
X349604Y350569D01*
X351750Y350142D01*
X353896Y350569D01*
X355715Y351785D01*
X356931Y353604D01*
X357358Y355750D01*
X356931Y357896D01*
X355715Y359715D01*
X353896Y360931D01*
X351750Y361358D01*
D02*
G37*
G36*
X147750Y352108D02*
X145604Y351681D01*
X143785Y350465D01*
X143520Y350069D01*
X122000D01*
X120634Y349797D01*
X119477Y349023D01*
X116227Y345773D01*
X115453Y344616D01*
X115181Y343250D01*
Y284507D01*
X115453Y283142D01*
X116227Y281984D01*
X117984Y280227D01*
X119142Y279453D01*
X120507Y279181D01*
X122327D01*
Y260750D01*
Y238750D01*
Y205858D01*
X122327Y205858D01*
X122688Y203117D01*
X123219Y201835D01*
Y53718D01*
X122898Y52944D01*
X122498Y49902D01*
Y30598D01*
X122898Y27556D01*
X124072Y24722D01*
X125940Y22288D01*
X128374Y20420D01*
X131208Y19246D01*
X134250Y18845D01*
X137292Y19246D01*
X140126Y20420D01*
X142560Y22288D01*
X144428Y24722D01*
X145602Y27556D01*
X146003Y30598D01*
Y49902D01*
X145602Y52944D01*
X144428Y55778D01*
X144400Y55815D01*
Y204966D01*
X144039Y207707D01*
X143508Y208989D01*
Y238750D01*
Y260750D01*
Y282750D01*
Y304750D01*
Y326750D01*
X143147Y329491D01*
X142917Y330046D01*
Y336750D01*
X136213D01*
X135658Y336980D01*
X132917Y337341D01*
X130176Y336980D01*
X129622Y336750D01*
X122917D01*
X122319Y337772D01*
Y341772D01*
X123478Y342931D01*
X143520D01*
X143785Y342535D01*
X145604Y341319D01*
X147750Y340892D01*
X149896Y341319D01*
X151715Y342535D01*
X152931Y344354D01*
X153358Y346500D01*
X152931Y348646D01*
X151715Y350465D01*
X149896Y351681D01*
X147750Y352108D01*
D02*
G37*
G36*
X30520Y62032D02*
Y41520D01*
X41547D01*
Y49902D01*
X41128Y53085D01*
X39900Y56051D01*
X37945Y58597D01*
X35399Y60552D01*
X32433Y61780D01*
X30520Y62032D01*
D02*
G37*
G36*
X27980D02*
X26067Y61780D01*
X23101Y60552D01*
X20555Y58597D01*
X18600Y56051D01*
X17372Y53085D01*
X16953Y49902D01*
Y41520D01*
X27980D01*
Y62032D01*
D02*
G37*
G36*
X520520D02*
Y41520D01*
X531547D01*
Y49902D01*
X531128Y53085D01*
X529900Y56051D01*
X527945Y58597D01*
X525399Y60552D01*
X522433Y61780D01*
X520520Y62032D01*
D02*
G37*
G36*
X517980D02*
X516067Y61780D01*
X513101Y60552D01*
X510555Y58597D01*
X508600Y56051D01*
X507372Y53085D01*
X506953Y49902D01*
Y41520D01*
X517980D01*
Y62032D01*
D02*
G37*
G36*
X68125Y502539D02*
X38375D01*
X37595Y502384D01*
X36933Y501942D01*
X36491Y501280D01*
X36336Y500500D01*
Y482750D01*
X36336Y482750D01*
X36491Y481970D01*
X36933Y481308D01*
X37683Y480558D01*
X38345Y480116D01*
X39125Y479961D01*
X53700D01*
X55441Y477691D01*
X57948Y475768D01*
X60867Y474559D01*
X64000Y474146D01*
X102271D01*
Y403039D01*
X99125D01*
X98345Y402884D01*
X97683Y402442D01*
X97241Y401780D01*
X97086Y401000D01*
Y383250D01*
X97086Y383250D01*
X97241Y382470D01*
X97683Y381808D01*
X98433Y381058D01*
X99095Y380616D01*
X99875Y380461D01*
X130125D01*
X130905Y380616D01*
X131567Y381058D01*
X132009Y381720D01*
X132164Y382500D01*
Y399750D01*
X132164Y399750D01*
X132009Y400530D01*
X131567Y401192D01*
X131567Y401192D01*
X130317Y402442D01*
X129655Y402884D01*
X128875Y403039D01*
X126479D01*
Y474146D01*
X218500D01*
X220948Y472268D01*
X223867Y471059D01*
X227000Y470646D01*
X230133Y471059D01*
X233052Y472268D01*
X235558Y474192D01*
X236575Y475516D01*
X238175D01*
X239191Y474192D01*
X241698Y472268D01*
X244617Y471059D01*
X247750Y470646D01*
X307022D01*
Y397039D01*
X303875D01*
X303095Y396884D01*
X302433Y396442D01*
X301991Y395780D01*
X301836Y395000D01*
Y377250D01*
X301836Y377250D01*
X301991Y376470D01*
X302433Y375808D01*
X303183Y375058D01*
X303845Y374616D01*
X304625Y374461D01*
X334875D01*
X335655Y374616D01*
X336317Y375058D01*
X336759Y375720D01*
X336914Y376500D01*
Y393750D01*
X336914Y393750D01*
X336759Y394530D01*
X336317Y395192D01*
X336317Y395192D01*
X335067Y396442D01*
X334405Y396884D01*
X333625Y397039D01*
X331229D01*
Y470646D01*
X434250D01*
X437383Y471059D01*
X440302Y472268D01*
X442808Y474192D01*
X445059Y476441D01*
X446075Y477766D01*
X447675D01*
X448691Y476441D01*
X509021Y416111D01*
Y395039D01*
X505875D01*
X505095Y394884D01*
X504433Y394442D01*
X503991Y393780D01*
X503836Y393000D01*
Y375250D01*
X503836Y375250D01*
X503991Y374470D01*
X504433Y373808D01*
X505183Y373058D01*
X505845Y372616D01*
X506625Y372461D01*
X509021D01*
Y266375D01*
X509434Y263242D01*
X510643Y260323D01*
X512566Y257817D01*
X542146Y228237D01*
Y40250D01*
X542497Y37584D01*
Y30598D01*
X542898Y27556D01*
X544072Y24722D01*
X545940Y22288D01*
X548374Y20420D01*
X551208Y19246D01*
X554250Y18845D01*
X557292Y19246D01*
X560126Y20420D01*
X562560Y22288D01*
X564428Y24722D01*
X565602Y27556D01*
X566003Y30598D01*
Y37584D01*
X566354Y40250D01*
Y233250D01*
X565941Y236383D01*
X564732Y239302D01*
X562808Y241808D01*
X533229Y271388D01*
Y372461D01*
X536875D01*
X537655Y372616D01*
X538317Y373058D01*
X538759Y373720D01*
X538914Y374500D01*
Y391750D01*
X538914Y391750D01*
X538759Y392530D01*
X538317Y393192D01*
X538317Y393192D01*
X537067Y394442D01*
X536405Y394884D01*
X535625Y395039D01*
X533229D01*
Y421125D01*
X532816Y424258D01*
X531607Y427177D01*
X529683Y429683D01*
X465808Y493559D01*
X464664Y494437D01*
Y498000D01*
X464664Y498000D01*
X464509Y498780D01*
X464067Y499442D01*
X464067Y499442D01*
X462817Y500692D01*
X462155Y501134D01*
X461375Y501289D01*
X431625D01*
X430845Y501134D01*
X430183Y500692D01*
X429741Y500030D01*
X429586Y499250D01*
Y494854D01*
X255977D01*
X255164Y495750D01*
X255009Y496530D01*
X254567Y497192D01*
X254567Y497192D01*
X253317Y498442D01*
X252655Y498884D01*
X251875Y499039D01*
X222125D01*
X221345Y498884D01*
X220683Y498442D01*
X220624Y498354D01*
X72226D01*
X71414Y499250D01*
X71259Y500030D01*
X70817Y500692D01*
X70817Y500692D01*
X69567Y501942D01*
X68905Y502384D01*
X68125Y502539D01*
D02*
G37*
G36*
X449250Y61655D02*
X446208Y61254D01*
X443374Y60080D01*
X440940Y58212D01*
X439072Y55778D01*
X437898Y52944D01*
X437497Y49902D01*
Y30598D01*
X437898Y27556D01*
X439072Y24722D01*
X440940Y22288D01*
X443374Y20420D01*
X446208Y19246D01*
X449250Y18845D01*
X452292Y19246D01*
X455126Y20420D01*
X457560Y22288D01*
X459428Y24722D01*
X460602Y27556D01*
X461003Y30598D01*
Y49902D01*
X460602Y52944D01*
X459428Y55778D01*
X457560Y58212D01*
X455126Y60080D01*
X452292Y61254D01*
X449250Y61655D01*
D02*
G37*
G36*
X380500Y361358D02*
X378354Y360931D01*
X376535Y359715D01*
X375319Y357896D01*
X374892Y355750D01*
X375319Y353604D01*
X376535Y351785D01*
X378354Y350569D01*
X380500Y350142D01*
X381569Y350355D01*
X396441Y335483D01*
Y283922D01*
X396441Y283922D01*
X396674Y282751D01*
X397337Y281759D01*
X398509Y280587D01*
X398509Y280587D01*
X399501Y279924D01*
X400672Y279691D01*
X400672Y279691D01*
X402357D01*
Y260750D01*
Y238750D01*
X402356Y238750D01*
X402717Y236009D01*
X402947Y235454D01*
Y228750D01*
X403659D01*
Y54782D01*
X402898Y52944D01*
X402497Y49902D01*
Y30598D01*
X402898Y27556D01*
X404072Y24722D01*
X405940Y22288D01*
X408374Y20420D01*
X411208Y19246D01*
X414250Y18845D01*
X417292Y19246D01*
X420126Y20420D01*
X422560Y22288D01*
X424428Y24722D01*
X425602Y27556D01*
X426003Y30598D01*
Y49902D01*
X425602Y52944D01*
X424841Y54782D01*
Y237447D01*
X424480Y240188D01*
X423538Y242462D01*
Y260750D01*
Y282750D01*
Y304750D01*
Y326750D01*
X423177Y329491D01*
X422947Y330046D01*
Y336750D01*
X416243D01*
X415688Y336980D01*
X412947Y337341D01*
X410206Y336980D01*
X409651Y336750D01*
X402947D01*
X402355Y337775D01*
X402326Y337920D01*
X401663Y338913D01*
X401663Y338913D01*
X385895Y354681D01*
X386108Y355750D01*
X385681Y357896D01*
X384465Y359715D01*
X382646Y360931D01*
X380500Y361358D01*
D02*
G37*
G36*
X379250Y61655D02*
X376208Y61254D01*
X373374Y60080D01*
X370940Y58212D01*
X369072Y55778D01*
X367898Y52944D01*
X367497Y49902D01*
Y30598D01*
X367898Y27556D01*
X369072Y24722D01*
X370940Y22288D01*
X373374Y20420D01*
X376208Y19246D01*
X379250Y18845D01*
X382292Y19246D01*
X385126Y20420D01*
X387560Y22288D01*
X389428Y24722D01*
X390602Y27556D01*
X391003Y30598D01*
Y49902D01*
X390602Y52944D01*
X389428Y55778D01*
X387560Y58212D01*
X385126Y60080D01*
X382292Y61254D01*
X379250Y61655D01*
D02*
G37*
G36*
X309250D02*
X306208Y61254D01*
X303374Y60080D01*
X300940Y58212D01*
X299072Y55778D01*
X297898Y52944D01*
X297498Y49902D01*
Y30598D01*
X297898Y27556D01*
X299072Y24722D01*
X300940Y22288D01*
X303374Y20420D01*
X306208Y19246D01*
X309250Y18845D01*
X312292Y19246D01*
X315126Y20420D01*
X317560Y22288D01*
X319428Y24722D01*
X320602Y27556D01*
X321003Y30598D01*
Y49902D01*
X320602Y52944D01*
X319428Y55778D01*
X317560Y58212D01*
X315126Y60080D01*
X312292Y61254D01*
X309250Y61655D01*
D02*
G37*
G36*
X259000Y360358D02*
X256854Y359931D01*
X255035Y358715D01*
X253819Y356896D01*
X253392Y354750D01*
X253819Y352604D01*
X255035Y350785D01*
X256854Y349569D01*
X257441Y349452D01*
Y283922D01*
X257441Y283922D01*
X257674Y282751D01*
X258337Y281759D01*
X259509Y280587D01*
X259509Y280587D01*
X260501Y279924D01*
X261672Y279691D01*
X262342Y278728D01*
Y260750D01*
Y238750D01*
Y205843D01*
X262342Y205843D01*
X262703Y203102D01*
X263219Y201856D01*
Y53718D01*
X262898Y52944D01*
X262498Y49902D01*
Y30598D01*
X262898Y27556D01*
X264072Y24722D01*
X265940Y22288D01*
X268374Y20420D01*
X271208Y19246D01*
X274250Y18845D01*
X277292Y19246D01*
X280126Y20420D01*
X282560Y22288D01*
X284428Y24722D01*
X285602Y27556D01*
X286003Y30598D01*
Y49902D01*
X285602Y52944D01*
X284428Y55778D01*
X284400Y55815D01*
Y204966D01*
X284400Y204966D01*
X284039Y207707D01*
X283523Y208953D01*
Y238750D01*
Y260750D01*
Y282750D01*
Y304750D01*
Y326750D01*
X283162Y329491D01*
X282932Y330046D01*
Y336750D01*
X276228D01*
X275673Y336980D01*
X272932Y337341D01*
X270191Y336980D01*
X269637Y336750D01*
X263559D01*
Y351673D01*
X264181Y352604D01*
X264608Y354750D01*
X264181Y356896D01*
X262965Y358715D01*
X261146Y359931D01*
X259000Y360358D01*
D02*
G37*
G36*
X239250Y61655D02*
X236208Y61254D01*
X233374Y60080D01*
X230940Y58212D01*
X229072Y55778D01*
X227898Y52944D01*
X227498Y49902D01*
Y30598D01*
X227898Y27556D01*
X229072Y24722D01*
X230940Y22288D01*
X233374Y20420D01*
X236208Y19246D01*
X239250Y18845D01*
X242292Y19246D01*
X245126Y20420D01*
X247560Y22288D01*
X249428Y24722D01*
X250602Y27556D01*
X251003Y30598D01*
Y49902D01*
X250602Y52944D01*
X249428Y55778D01*
X247560Y58212D01*
X245126Y60080D01*
X242292Y61254D01*
X239250Y61655D01*
D02*
G37*
G36*
X177750Y362608D02*
X175604Y362181D01*
X173785Y360965D01*
X172569Y359146D01*
X172142Y357000D01*
X172569Y354854D01*
X173785Y353035D01*
X175604Y351819D01*
X176854Y351571D01*
X184380Y344044D01*
Y282983D01*
X184380Y282982D01*
X184613Y281812D01*
X185276Y280819D01*
X189259Y276837D01*
X189259Y276837D01*
X190251Y276174D01*
X191422Y275941D01*
X192334Y275140D01*
Y260750D01*
Y238750D01*
Y205851D01*
X192334Y205851D01*
X192695Y203110D01*
X193219Y201846D01*
Y53718D01*
X192898Y52944D01*
X192498Y49902D01*
Y30598D01*
X192898Y27556D01*
X194072Y24722D01*
X195940Y22288D01*
X198374Y20420D01*
X201208Y19246D01*
X204250Y18845D01*
X207292Y19246D01*
X210126Y20420D01*
X212560Y22288D01*
X214428Y24722D01*
X215602Y27556D01*
X216003Y30598D01*
Y49902D01*
X215602Y52944D01*
X214428Y55778D01*
X214400Y55815D01*
Y204966D01*
X214400Y204966D01*
X214039Y207707D01*
X213515Y208971D01*
Y238750D01*
Y260750D01*
Y282750D01*
Y304750D01*
Y326750D01*
X213155Y329491D01*
X212925Y330046D01*
Y336750D01*
X206220D01*
X205666Y336980D01*
X202925Y337341D01*
X200184Y336980D01*
X199629Y336750D01*
X192925D01*
Y330046D01*
X192695Y329491D01*
X192334Y326750D01*
Y304750D01*
Y284978D01*
X191064Y284347D01*
X190498Y284776D01*
Y345311D01*
X190265Y346481D01*
X189602Y347474D01*
X182647Y354429D01*
X182931Y354854D01*
X183358Y357000D01*
X182931Y359146D01*
X181715Y360965D01*
X179896Y362181D01*
X177750Y362608D01*
D02*
G37*
G36*
X169250Y61655D02*
X166208Y61254D01*
X163374Y60080D01*
X160940Y58212D01*
X159072Y55778D01*
X157898Y52944D01*
X157498Y49902D01*
Y30598D01*
X157898Y27556D01*
X159072Y24722D01*
X160940Y22288D01*
X163374Y20420D01*
X166208Y19246D01*
X169250Y18845D01*
X172292Y19246D01*
X175126Y20420D01*
X177560Y22288D01*
X179428Y24722D01*
X180602Y27556D01*
X181003Y30598D01*
Y49902D01*
X180602Y52944D01*
X179428Y55778D01*
X177560Y58212D01*
X175126Y60080D01*
X172292Y61254D01*
X169250Y61655D01*
D02*
G37*
G36*
X99250D02*
X96208Y61254D01*
X93374Y60080D01*
X90940Y58212D01*
X89072Y55778D01*
X87898Y52944D01*
X87498Y49902D01*
Y30598D01*
X87898Y27556D01*
X89072Y24722D01*
X90940Y22288D01*
X93374Y20420D01*
X96208Y19246D01*
X99250Y18845D01*
X102292Y19246D01*
X105126Y20420D01*
X107560Y22288D01*
X109428Y24722D01*
X110602Y27556D01*
X111003Y30598D01*
Y49902D01*
X110602Y52944D01*
X109428Y55778D01*
X107560Y58212D01*
X105126Y60080D01*
X102292Y61254D01*
X99250Y61655D01*
D02*
G37*
G36*
X41547Y38980D02*
X30520D01*
Y18468D01*
X32433Y18720D01*
X35399Y19948D01*
X37945Y21903D01*
X39900Y24449D01*
X41128Y27415D01*
X41547Y30598D01*
Y38980D01*
D02*
G37*
G36*
X531547Y38980D02*
X520520D01*
Y18468D01*
X522433Y18720D01*
X525399Y19948D01*
X527945Y21903D01*
X529900Y24449D01*
X531128Y27415D01*
X531547Y30598D01*
Y38980D01*
D02*
G37*
G36*
X517980D02*
X506953D01*
Y30598D01*
X507372Y27415D01*
X508600Y24449D01*
X510555Y21903D01*
X513101Y19948D01*
X516067Y18720D01*
X517980Y18468D01*
Y38980D01*
D02*
G37*
G36*
X27980Y38980D02*
X16953D01*
Y30598D01*
X17372Y27415D01*
X18600Y24449D01*
X20555Y21903D01*
X23101Y19948D01*
X26067Y18720D01*
X27980Y18468D01*
Y38980D01*
D02*
G37*
%LPD*%
G36*
X69375Y499250D02*
Y482000D01*
X39125D01*
X38375Y482750D01*
Y500500D01*
X68125D01*
X69375Y499250D01*
D02*
G37*
G36*
X462625Y498000D02*
Y480750D01*
X432375D01*
X431625Y481500D01*
Y499250D01*
X461375D01*
X462625Y498000D01*
D02*
G37*
G36*
X253125Y495750D02*
Y478500D01*
X222875D01*
X222125Y479250D01*
Y497000D01*
X251875D01*
X253125Y495750D01*
D02*
G37*
G36*
X130125Y399750D02*
Y382500D01*
X99875D01*
X99125Y383250D01*
Y401000D01*
X128875D01*
X130125Y399750D01*
D02*
G37*
G36*
X334875Y393750D02*
Y376500D01*
X304625D01*
X303875Y377250D01*
Y395000D01*
X333625D01*
X334875Y393750D01*
D02*
G37*
G36*
X536875Y391750D02*
Y374500D01*
X506625D01*
X505875Y375250D01*
Y393000D01*
X535625D01*
X536875Y391750D01*
D02*
G37*
D12*
X436750Y954654D02*
Y955000D01*
X427921Y963250D02*
X451250D01*
X500750Y913750D01*
Y869000D02*
Y913750D01*
X436750Y954654D02*
X438250Y953154D01*
X452154D01*
X479250Y982500D02*
Y1001500D01*
X442896Y1011104D02*
X469646D01*
X479250Y1001500D01*
X431750Y1022250D02*
Y1033750D01*
Y1022250D02*
X442896Y1011104D01*
X144750Y686000D02*
X160030Y670720D01*
Y666750D02*
Y670720D01*
Y666750D02*
X161530Y665250D01*
X426750Y955000D02*
Y962078D01*
X427921Y963250D01*
X404250Y609250D02*
X411000Y616000D01*
X408972Y667472D02*
X409000Y667500D01*
X408972Y665856D02*
Y667472D01*
Y665856D02*
X411000Y663828D01*
Y616000D02*
Y663828D01*
X130750Y686000D02*
X144750D01*
X51750Y677200D02*
X64200Y664750D01*
X51750Y815000D02*
X72000Y835250D01*
X51750Y677200D02*
Y815000D01*
X119304Y614554D02*
Y666446D01*
X118250Y667500D02*
X119304Y666446D01*
X318300Y994800D02*
X319250Y995750D01*
X293150Y994800D02*
X318300D01*
X318450Y1020200D02*
X319250Y1021000D01*
X293150Y1020200D02*
X318450D01*
X293800Y1046250D02*
X319250D01*
X293150Y1045600D02*
X293800Y1046250D01*
X406000Y915750D02*
X413500Y908250D01*
X406000Y929192D02*
X417683Y940875D01*
X426750D01*
X413500Y908250D02*
X419000D01*
X449875Y877375D02*
X461875D01*
X419000Y908250D02*
X449875Y877375D01*
X414250Y923250D02*
X414250D01*
X450029Y887471D01*
X453779D01*
X454500Y886750D01*
X414250Y923250D02*
X418000Y927000D01*
X426500D02*
X426750Y926750D01*
X418000Y927000D02*
X426500D01*
X406000Y915750D02*
Y929192D01*
X437875Y942000D02*
X453750D01*
X436750Y940875D02*
X437875Y942000D01*
X437250Y927250D02*
X453750D01*
X164500Y876500D02*
X170500Y882500D01*
X535750Y604500D02*
X547750D01*
X552500Y599750D01*
X563900D01*
X440800Y665000D02*
X453520D01*
X187500Y647000D02*
X188000D01*
X182250Y652250D02*
X187500Y647000D01*
X170850Y652250D02*
X182250D01*
X284500Y646750D02*
X285000D01*
X279000Y652250D02*
X284500Y646750D01*
X269000Y652250D02*
X279000D01*
X381250Y646750D02*
X381750D01*
X378750Y649250D02*
X381250Y646750D01*
X370000Y649250D02*
X378750D01*
X367000Y652250D02*
X370000Y649250D01*
X480500Y646750D02*
X481000D01*
X478000Y649250D02*
X480500Y646750D01*
X466420Y649250D02*
X478000D01*
X462500Y653170D02*
X466420Y649250D01*
X575000Y646500D02*
X575500D01*
X572250Y649250D02*
X575000Y646500D01*
X563750Y649250D02*
X572250D01*
X560750Y652250D02*
X563750Y649250D01*
X560850Y652350D02*
Y664750D01*
X560750Y652250D02*
X560850Y652350D01*
X531500Y681000D02*
X538500Y674000D01*
Y665250D02*
Y674000D01*
X538250Y665000D02*
X550850D01*
X188000Y872250D02*
X272500D01*
X297113Y842487D02*
X299600Y840000D01*
X272500Y872250D02*
X297113Y847637D01*
Y842487D02*
Y847637D01*
X177750Y882500D02*
X188000Y872250D01*
X170500Y882500D02*
X177750D01*
X400672Y282750D02*
X412947D01*
X380500Y355750D02*
X399500Y336750D01*
Y283922D02*
X400672Y282750D01*
X399500Y283922D02*
Y336750D01*
X261672Y282750D02*
X272932D01*
X260500Y283922D02*
X261672Y282750D01*
X260500Y283922D02*
Y351897D01*
X259000Y353397D02*
X260500Y351897D01*
X259000Y353397D02*
Y354750D01*
X326750Y283922D02*
Y348500D01*
X327922Y282750D02*
X342940D01*
X326750Y283922D02*
X327922Y282750D01*
X326750Y348500D02*
X333250Y355000D01*
X187439Y282982D02*
Y345311D01*
Y282982D02*
X191422Y279000D01*
X177750Y355000D02*
X187439Y345311D01*
X177750Y355000D02*
Y357000D01*
X160950Y664750D02*
X161530D01*
X414500Y770250D02*
X433250Y751500D01*
X453250D01*
X413500Y771250D02*
X414000D01*
X414500Y770750D01*
Y770250D02*
Y770750D01*
X302000Y652922D02*
Y688500D01*
X151750Y702750D02*
X287750D01*
X302000Y688500D01*
X305250Y649250D02*
Y649672D01*
X302000Y652922D02*
X305250Y649672D01*
X148450Y665000D02*
X160700D01*
X201000Y657277D02*
X209027Y649250D01*
X188500Y696750D02*
X201000Y684250D01*
Y657277D02*
Y684250D01*
X143000Y696750D02*
X188500D01*
X88750Y751000D02*
X143000Y696750D01*
X102500Y752000D02*
X151750Y702750D01*
X104250Y657804D02*
X112804Y649250D01*
X75000Y729250D02*
X104250Y700000D01*
Y657804D02*
Y700000D01*
X75000Y729250D02*
Y795000D01*
X213000Y768250D02*
X213625Y768875D01*
X229125D01*
X229750Y769500D01*
X400625Y824000D02*
X421375D01*
X425875Y819500D01*
X397875Y826750D02*
X400625Y824000D01*
X489500Y834500D02*
X501250Y822750D01*
X528500Y807450D02*
Y821578D01*
X527328Y822750D02*
X528500Y821578D01*
X501250Y822750D02*
X527328D01*
X447000Y825250D02*
X449000Y823250D01*
X473750Y808200D02*
Y822078D01*
X449000Y823250D02*
X472579D01*
X473750Y822078D01*
X466500Y792500D02*
X485000D01*
X489664Y747836D02*
Y787836D01*
X485000Y792500D02*
X489664Y787836D01*
Y747836D02*
X498500Y739000D01*
X453250Y751500D02*
X461750Y760000D01*
Y787750D01*
X466500Y792500D01*
X549000Y739000D02*
X610250Y677750D01*
X498500Y739000D02*
X549000D01*
X602250Y541500D02*
X610250Y549500D01*
Y677750D01*
X584000Y541500D02*
X602250D01*
X107750Y770250D02*
X119250Y758750D01*
X133000D02*
X147500Y773250D01*
X119250Y758750D02*
X133000D01*
X107750Y770250D02*
Y784750D01*
X112193Y789193D01*
X147500Y773250D02*
X170500D01*
X112193Y789193D02*
Y827443D01*
X102500Y752000D02*
Y795000D01*
X88750Y751000D02*
Y795000D01*
X72000Y835250D02*
X104386D01*
X112193Y827443D01*
X245900Y665000D02*
X257450D01*
X244500D02*
X245900D01*
X235900D02*
X236000Y664900D01*
Y650350D02*
X243600Y642750D01*
X236000Y650350D02*
Y664900D01*
X245500Y614500D02*
Y642350D01*
X268760Y652250D02*
X269000Y652490D01*
X268860Y664750D02*
X269000Y664610D01*
Y652490D02*
Y664610D01*
X332500Y650600D02*
X340350Y642750D01*
X332500Y650600D02*
Y664150D01*
X333350Y665000D01*
X353950Y665250D02*
X354450Y664750D01*
X343600Y665250D02*
X353950D01*
X343350Y665000D02*
X343475D01*
X343350D02*
X343600Y665250D01*
X366090Y652250D02*
X367000Y653160D01*
X366190Y664750D02*
X367000Y663940D01*
Y653160D02*
Y663940D01*
X430000Y649850D02*
X437100Y642750D01*
X430000Y649850D02*
Y664200D01*
X430800Y665000D01*
X439000Y614500D02*
Y642350D01*
X462500Y653170D02*
Y664750D01*
X528250Y648350D02*
X533850Y642750D01*
X528250Y648350D02*
Y665000D01*
X538250D02*
X538500Y665250D01*
X513500Y681000D02*
X531500D01*
X512500Y854750D02*
X512500Y854750D01*
Y838650D02*
Y854750D01*
X499575Y854750D02*
X500575Y853750D01*
X511500D02*
X512500Y854750D01*
X500575Y853750D02*
X511500D01*
X453725Y854750D02*
X466650D01*
X454750Y833300D02*
Y845000D01*
X453725Y846025D02*
Y854750D01*
Y846025D02*
X454750Y845000D01*
X406875Y787375D02*
Y808450D01*
Y787375D02*
X412000Y782250D01*
X412500D01*
X509500Y832550D02*
Y835650D01*
X512500Y838650D01*
X509500Y781250D02*
Y807450D01*
Y781250D02*
X511000Y779750D01*
X489500Y834500D02*
Y853750D01*
X436750Y926750D02*
X437250Y927250D01*
X407875Y854750D02*
X420875D01*
X406875Y833550D02*
X407375Y834050D01*
Y854250D01*
X407875Y854750D01*
X425875Y808450D02*
Y819500D01*
X397875Y826750D02*
Y854750D01*
X443725Y850525D02*
Y854750D01*
Y850525D02*
X447000Y847250D01*
Y825250D02*
Y847250D01*
X454750Y781000D02*
Y808200D01*
Y781000D02*
X455250Y780500D01*
X584000Y551500D02*
X584366D01*
X585866Y553000D01*
Y566000D01*
X567250Y551250D02*
X567750D01*
X569250Y552750D01*
Y553250D01*
X574669Y558669D01*
Y565803D01*
X488800Y551500D02*
X489643Y552343D01*
Y564750D01*
X472250Y551250D02*
X472750D01*
X474250Y552750D01*
Y553250D01*
X478446Y557446D01*
Y564553D01*
X393419Y551680D02*
X393600Y551500D01*
X393419Y551680D02*
Y564750D01*
X377250Y551250D02*
X377750D01*
X379250Y552750D01*
Y553250D01*
X382223Y556223D01*
Y564553D01*
X297196Y552704D02*
X298400Y551500D01*
X297196Y552704D02*
Y564750D01*
X282250Y551250D02*
X282750D01*
X284250Y552750D01*
Y553250D01*
X285999Y554999D01*
Y564553D01*
X202700Y551500D02*
X203200D01*
X201200Y553000D02*
X202700Y551500D01*
X201200Y553000D02*
Y564523D01*
X200973Y564750D02*
X201200Y564523D01*
X187250Y551250D02*
X187750D01*
X189250Y552750D01*
Y564027D01*
X189776Y564553D01*
X107500Y551500D02*
X108000D01*
X106000Y553000D02*
X107500Y551500D01*
X106000Y553000D02*
Y553500D01*
X104750Y554750D02*
X106000Y553500D01*
X104750Y554750D02*
Y564750D01*
X92250Y551250D02*
X93553Y552553D01*
Y564553D01*
X215500Y667500D02*
X216054Y666946D01*
Y614554D02*
Y666946D01*
X307500Y609250D02*
X312250Y614000D01*
X312107Y667357D02*
X312250Y667500D01*
X312107Y663972D02*
Y667357D01*
Y663972D02*
X312250Y663828D01*
Y614000D02*
Y663828D01*
X501000Y609250D02*
X505750Y614000D01*
X504507Y666257D02*
X505750Y667500D01*
X504507Y665190D02*
Y666257D01*
Y665190D02*
X505750Y663947D01*
Y614000D02*
Y663947D01*
X597750Y609250D02*
X603054Y614554D01*
Y664196D01*
X599750Y667500D02*
X603054Y664196D01*
X585100Y609250D02*
X597750D01*
X535350Y642750D02*
X535750Y642350D01*
Y614500D02*
Y642350D01*
X533850Y642750D02*
X535350D01*
X488350Y609250D02*
X501000D01*
X452500Y604500D02*
X453000D01*
X457750Y599750D01*
X467150D01*
X439000Y604500D02*
X452500D01*
X452500Y604500D01*
X438600Y642750D02*
X439000Y642350D01*
X437100Y642750D02*
X438600D01*
X391600Y609250D02*
X404250D01*
X355750Y604500D02*
X356250D01*
X361000Y599750D01*
X370400D01*
X342250Y604500D02*
X355750D01*
X355750Y604500D01*
X341850Y642750D02*
X342250Y642350D01*
Y614500D02*
Y642350D01*
X340350Y642750D02*
X341850D01*
X294850Y609250D02*
X307500D01*
X259000Y604500D02*
X259500D01*
X264250Y599750D01*
X273650D01*
X245500Y604500D02*
X259000D01*
X259000Y604500D01*
X245100Y642750D02*
X245500Y642350D01*
X243600Y642750D02*
X245100D01*
X210750Y609250D02*
X216054Y614554D01*
X198100Y609250D02*
X210750D01*
X162250Y604500D02*
X162750D01*
X167500Y599750D01*
X176900D01*
X148750Y604500D02*
X162250D01*
X162250Y604500D01*
X148350Y642750D02*
X148750Y642350D01*
Y614500D02*
Y642350D01*
X146850Y642750D02*
X148350D01*
X137750Y651850D02*
X146850Y642750D01*
X137750Y651850D02*
Y665000D01*
X160700D02*
X160950Y664750D01*
X170850Y652250D02*
X170950Y652350D01*
Y664750D01*
X74100Y652250D02*
X83000D01*
X88500Y646750D01*
X89000D01*
X74200Y652350D02*
Y664750D01*
X74100Y652250D02*
X74200Y652350D01*
X51000Y665000D02*
X63950D01*
X64200Y664750D01*
X41000Y651850D02*
Y665000D01*
Y651850D02*
X50100Y642750D01*
X51600D01*
X52000Y614500D02*
Y642350D01*
X51600Y642750D02*
X52000Y642350D01*
X65500Y604500D02*
X65500Y604500D01*
X52000Y604500D02*
X65500D01*
X70750Y599750D02*
X80150D01*
X66000Y604500D02*
X70750Y599750D01*
X65500Y604500D02*
X66000D01*
X101350Y609250D02*
X114000D01*
X119304Y614554D01*
X468500Y284000D02*
Y393058D01*
X472750Y397308D01*
Y398000D01*
X468500Y284000D02*
X469750Y282750D01*
X482955D01*
X351000Y355000D02*
X351750Y355750D01*
X333250Y355000D02*
X351000D01*
X191422Y279000D02*
X199175D01*
X202925Y282750D01*
X578750Y521750D02*
X584000Y527000D01*
Y541500D01*
X578750Y517000D02*
Y521750D01*
X298900Y541500D02*
X312150Y528250D01*
X325500D01*
X394100Y541500D02*
X404850Y530750D01*
X421750D01*
X489300Y541500D02*
X500300Y530500D01*
X522250D01*
X488800Y541500D02*
X489300D01*
X393600D02*
X394100D01*
X298400D02*
X298900D01*
X213450Y531750D02*
X229450D01*
X203700Y541500D02*
X213450Y531750D01*
X203200Y541500D02*
X203700D01*
X108000D02*
X108500D01*
X118250Y531750D01*
X134250D01*
D14*
X542500Y975654D02*
Y1041750D01*
X529596Y962750D02*
X542500Y975654D01*
X465404Y962750D02*
X529596D01*
X460654Y967500D02*
X465404Y962750D01*
X419364Y967500D02*
X460654D01*
X338364Y886500D02*
X419364Y967500D01*
X295716Y886500D02*
X338364D01*
X280966Y901250D02*
X295716Y886500D01*
X229300Y901250D02*
X280966D01*
X161150Y969400D02*
X229300Y901250D01*
X313000Y893250D02*
X313500Y892750D01*
X338250D01*
X223250Y679500D02*
X249720D01*
X258860Y670360D01*
X428000Y982500D02*
X469250D01*
X338250Y892750D02*
X428000Y982500D01*
X469250Y969000D02*
Y982500D01*
X162550Y1047000D02*
X186250D01*
X161150Y1045600D02*
X162550Y1047000D01*
X453520Y665000D02*
Y735770D01*
Y664750D02*
Y665000D01*
X287250Y819750D02*
X413693D01*
X276055Y830945D02*
X287250Y819750D01*
X415157Y809668D02*
Y818286D01*
X413693Y819750D02*
X415157Y818286D01*
Y809668D02*
X416375Y808450D01*
Y797089D02*
Y808450D01*
X274200Y840000D02*
X276055Y838145D01*
Y830945D02*
Y838145D01*
X478750Y761000D02*
Y780250D01*
X453520Y735770D02*
X478750Y761000D01*
X460454Y817500D02*
X462550Y815404D01*
Y809900D02*
Y815404D01*
Y809900D02*
X465950Y806500D01*
X450454Y817500D02*
X460454D01*
X356190Y664750D02*
Y696190D01*
X395019Y735019D02*
Y780034D01*
X356190Y696190D02*
X395019Y735019D01*
X419215Y794250D02*
X429000D01*
X416375Y797089D02*
X419215Y794250D01*
X429000D02*
X444500Y809750D01*
Y811546D02*
X450454Y817500D01*
X444500Y809750D02*
Y811546D01*
X466214Y798250D02*
X479750D01*
X465950Y798514D02*
Y806500D01*
Y798514D02*
X466214Y798250D01*
X519000Y807450D02*
Y813434D01*
X515684Y816750D02*
X519000Y813434D01*
X498250Y816750D02*
X515684D01*
X479750Y798250D02*
X498250Y816750D01*
X479250Y969000D02*
X493000D01*
X503000D02*
X515750D01*
X258860Y664750D02*
Y670360D01*
X439500Y819500D02*
X439750Y819250D01*
X425875Y819500D02*
X439500D01*
X528500Y792750D02*
Y807450D01*
X523000Y787250D02*
X528500Y792750D01*
D15*
X168250Y896500D02*
X269500D01*
X296602Y869398D02*
X321002D01*
X269500Y896500D02*
X296602Y869398D01*
X321002D02*
X350400Y840000D01*
X185450Y970200D02*
X186250Y971000D01*
X161950Y970200D02*
X185450D01*
X161150Y969400D02*
X161950Y970200D01*
X185483Y995567D02*
X186250Y996333D01*
X161917Y995567D02*
X185483D01*
X161150Y994800D02*
X161917Y995567D01*
X185517Y1020933D02*
X186250Y1021667D01*
X161883Y1020933D02*
X185517D01*
X161150Y1020200D02*
X161883Y1020933D01*
X318700Y969950D02*
X319250Y970500D01*
X293700Y969950D02*
X318700D01*
X293150Y969400D02*
X293700Y969950D01*
X154500Y876265D02*
Y882750D01*
X170918Y869500D02*
X172918Y871500D01*
X154500Y882750D02*
X168250Y896500D01*
X172918Y871500D02*
X174000D01*
X167400Y869500D02*
X170918D01*
X154500Y876265D02*
X161265Y869500D01*
X167400D02*
X167400Y869500D01*
X161265Y869500D02*
X167400D01*
X272500Y512500D02*
Y516250D01*
X282250Y526000D01*
X122000Y346500D02*
X147750D01*
X118750Y284507D02*
Y343250D01*
X120507Y282750D02*
X132917D01*
X118750Y284507D02*
X120507Y282750D01*
X118750Y343250D02*
X122000Y346500D01*
X447765Y762515D02*
Y763515D01*
X110500Y842850D02*
X129100Y824250D01*
X146000D01*
X152500Y817750D01*
X183529Y823750D02*
X199473D01*
X182279Y822500D02*
X183529Y823750D01*
X173351Y822500D02*
X182279D01*
X160400Y835451D02*
X173351Y822500D01*
X160400Y835451D02*
Y853750D01*
X151750Y788750D02*
X152125Y789125D01*
Y808325D01*
X152500Y808700D01*
X110500Y842850D02*
Y853750D01*
X206370Y823373D02*
X208000Y821743D01*
X200627Y823373D02*
X206370D01*
X199862Y824138D02*
X200627Y823373D01*
X152500Y808700D02*
Y817750D01*
X197050Y809650D02*
Y815993D01*
X184600Y817750D02*
X195293D01*
X161750Y794900D02*
X184600Y817750D01*
X195293D02*
X197050Y815993D01*
X199473Y823750D02*
X199862Y824138D01*
X197050Y809650D02*
X198500Y808200D01*
X143000Y782000D02*
Y808700D01*
Y782000D02*
X146250Y778750D01*
X161750Y780507D02*
Y794900D01*
X159993Y778750D02*
X161750Y780507D01*
X146250Y778750D02*
X159993D01*
X208000Y808200D02*
Y821743D01*
X210300Y853250D02*
X219000Y844550D01*
Y823250D02*
X243750D01*
X245750Y821250D01*
X219000Y823250D02*
Y844550D01*
X245750Y821250D02*
X248500Y818500D01*
X454750Y770500D02*
X455250D01*
X447765Y763515D02*
X454750Y770500D01*
X412500Y772250D02*
X413500Y771250D01*
X511000Y769750D02*
X520668D01*
X523918Y766500D01*
X525000D01*
X160332Y762750D02*
X175875D01*
X156582Y766500D02*
X160332Y762750D01*
X155500Y766500D02*
X156582D01*
X123250Y769750D02*
X130750D01*
X115500Y777500D02*
X123250Y769750D01*
X102500Y805000D02*
Y823750D01*
X88750Y805000D02*
Y823750D01*
X88750Y823750D02*
X88750Y823750D01*
X74875Y805125D02*
X75000Y805000D01*
X74875Y805125D02*
Y823625D01*
X74750Y823750D02*
X74875Y823625D01*
X175875Y762750D02*
X182125Y769000D01*
X182625D01*
X189000Y784875D02*
Y808200D01*
X183125Y779000D02*
X189000Y784875D01*
X182625Y779000D02*
X183125D01*
X229500Y779750D02*
Y808200D01*
Y779750D02*
X229750Y779500D01*
X235250Y842150D02*
Y853750D01*
X229500Y836400D02*
X235250Y842150D01*
X229500Y833300D02*
Y836400D01*
X220300Y853750D02*
X235250D01*
X210300Y853250D02*
Y853750D01*
X185350Y840050D02*
Y853750D01*
Y840050D02*
X189000Y836400D01*
Y833300D02*
Y836400D01*
X170400Y853750D02*
X185350D01*
X120500D02*
X135450D01*
X133500Y833800D02*
Y851300D01*
X135450Y853250D01*
Y853750D01*
X130750Y779750D02*
Y802850D01*
X133500Y805600D01*
Y808700D01*
X248500Y808200D02*
Y818500D01*
X92125Y541125D02*
X92250Y541250D01*
X92125Y510625D02*
Y541125D01*
X92000Y510500D02*
X92125Y510625D01*
X187250Y528916D02*
Y541250D01*
X176500Y518166D02*
X187250Y528916D01*
X176500Y505750D02*
Y518166D01*
X282250Y526000D02*
Y541250D01*
X377250Y529500D02*
Y541250D01*
X365500Y517750D02*
X377250Y529500D01*
X472250Y526250D02*
Y541250D01*
X457500Y511500D02*
X472250Y526250D01*
X567250Y526750D02*
Y541250D01*
X558500Y518000D02*
X567250Y526750D01*
D20*
X89000Y636750D02*
D03*
Y646750D02*
D03*
X75000Y795000D02*
D03*
Y805000D02*
D03*
X88750Y795000D02*
D03*
Y805000D02*
D03*
X102500Y795000D02*
D03*
Y805000D02*
D03*
X130750Y779750D02*
D03*
Y769750D02*
D03*
X182625Y779000D02*
D03*
Y769000D02*
D03*
X229750Y779500D02*
D03*
Y769500D02*
D03*
X412500Y782250D02*
D03*
Y772250D02*
D03*
X455250Y780500D02*
D03*
Y770500D02*
D03*
X511000Y779750D02*
D03*
Y769750D02*
D03*
X536250Y604500D02*
D03*
Y614500D02*
D03*
X547250D02*
D03*
Y604500D02*
D03*
X575500Y636500D02*
D03*
Y646500D02*
D03*
X52000Y604500D02*
D03*
Y614500D02*
D03*
X65500Y614500D02*
D03*
Y604500D02*
D03*
X187250Y551250D02*
D03*
Y541250D02*
D03*
X203200Y551500D02*
D03*
Y541500D02*
D03*
X282250Y551250D02*
D03*
Y541250D02*
D03*
X298400Y551500D02*
D03*
Y541500D02*
D03*
X377250Y551250D02*
D03*
Y541250D02*
D03*
X393600Y551500D02*
D03*
Y541500D02*
D03*
X472250Y551250D02*
D03*
Y541250D02*
D03*
X488800Y551500D02*
D03*
Y541500D02*
D03*
X92250Y551250D02*
D03*
Y541250D02*
D03*
X108000Y551500D02*
D03*
Y541500D02*
D03*
X567250Y551250D02*
D03*
Y541250D02*
D03*
X584000Y551500D02*
D03*
Y541500D02*
D03*
X452900Y604500D02*
D03*
Y614500D02*
D03*
X381750Y646750D02*
D03*
Y636750D02*
D03*
X162350Y604500D02*
D03*
Y614500D02*
D03*
X356050Y604500D02*
D03*
Y614500D02*
D03*
X148850Y614500D02*
D03*
Y604500D02*
D03*
X245700Y614500D02*
D03*
Y604500D02*
D03*
X439400Y614500D02*
D03*
Y604500D02*
D03*
X188000Y647000D02*
D03*
Y637000D02*
D03*
X285000Y646750D02*
D03*
Y636750D02*
D03*
X481000Y646750D02*
D03*
Y636750D02*
D03*
X259200Y604500D02*
D03*
Y614500D02*
D03*
X342550Y614500D02*
D03*
Y604500D02*
D03*
D25*
X493000Y969000D02*
D03*
X503000D02*
D03*
X525750D02*
D03*
X515750D02*
D03*
X74200Y664750D02*
D03*
X64200D02*
D03*
X319250Y1046250D02*
D03*
X329250D02*
D03*
X319250Y1021000D02*
D03*
X329250D02*
D03*
X319250Y995750D02*
D03*
X329250D02*
D03*
X436750Y955000D02*
D03*
X426750D02*
D03*
X479250Y969000D02*
D03*
X469250D02*
D03*
X436750Y940875D02*
D03*
X426750D02*
D03*
X436750Y926750D02*
D03*
X426750D02*
D03*
X319250Y970500D02*
D03*
X329250D02*
D03*
X186250Y1047000D02*
D03*
X196250D02*
D03*
X186250Y1021667D02*
D03*
X196250D02*
D03*
X186250Y996333D02*
D03*
X196250D02*
D03*
X186250Y971000D02*
D03*
X196250D02*
D03*
X110500Y853750D02*
D03*
X120500D02*
D03*
X135450D02*
D03*
X145450D02*
D03*
X160400D02*
D03*
X170400D02*
D03*
X185350D02*
D03*
X195350D02*
D03*
X210300D02*
D03*
X220300D02*
D03*
X235250D02*
D03*
X245250D02*
D03*
X397875Y854750D02*
D03*
X407875D02*
D03*
X420800D02*
D03*
X430800D02*
D03*
X443725D02*
D03*
X453725D02*
D03*
X466650D02*
D03*
X476650D02*
D03*
X489575D02*
D03*
X499575D02*
D03*
X512500D02*
D03*
X522500D02*
D03*
X528250Y665000D02*
D03*
X538250D02*
D03*
X560850Y664750D02*
D03*
X550850D02*
D03*
X41000Y665000D02*
D03*
X51000D02*
D03*
X469250Y982500D02*
D03*
X479250D02*
D03*
X343350Y665000D02*
D03*
X333350D02*
D03*
X440800D02*
D03*
X430800D02*
D03*
X161530Y664750D02*
D03*
X171530D02*
D03*
X148450Y665000D02*
D03*
X138450D02*
D03*
X258860Y664750D02*
D03*
X268860D02*
D03*
X356190D02*
D03*
X366190D02*
D03*
X453520D02*
D03*
X463520D02*
D03*
X245900Y665000D02*
D03*
X235900D02*
D03*
D52*
X133809Y40691D02*
X134250Y40250D01*
X133809Y40691D02*
Y204966D01*
X203809Y40691D02*
X204250Y40250D01*
X273809Y40691D02*
X274250Y40250D01*
X273809Y40691D02*
Y204966D01*
X343809Y40691D02*
X344250Y40250D01*
X343809Y40691D02*
Y204966D01*
X414250Y40250D02*
Y237447D01*
X483809Y40691D02*
X484250Y40250D01*
X483809Y40691D02*
Y204966D01*
X132917Y304750D02*
Y326750D01*
Y282750D02*
Y304750D01*
X482955Y205821D02*
Y238750D01*
Y205821D02*
X483809Y204966D01*
X412947Y238750D02*
X414250Y237447D01*
X342940Y205836D02*
Y238750D01*
Y205836D02*
X343809Y204966D01*
X272932Y205843D02*
Y238750D01*
Y205843D02*
X273809Y204966D01*
X202925Y205851D02*
Y238750D01*
Y205851D02*
X203809Y204966D01*
Y40691D02*
Y204966D01*
X132917Y205858D02*
Y238750D01*
Y205858D02*
X133809Y204966D01*
X482955Y304750D02*
Y326750D01*
Y282750D02*
Y304750D01*
Y260750D02*
Y282750D01*
Y238750D02*
Y260750D01*
X412947Y304750D02*
Y326750D01*
Y282750D02*
Y304750D01*
Y260750D02*
Y282750D01*
Y238750D02*
Y260750D01*
X342940Y304750D02*
Y326750D01*
Y282750D02*
Y304750D01*
Y260750D02*
Y282750D01*
Y238750D02*
Y260750D01*
X272932Y304750D02*
Y326750D01*
Y282750D02*
Y304750D01*
Y260750D02*
Y282750D01*
Y238750D02*
Y260750D01*
X202925Y304750D02*
Y326750D01*
Y282750D02*
Y304750D01*
Y260750D02*
Y282750D01*
Y238750D02*
Y260750D01*
X132917D02*
Y282750D01*
Y238750D02*
Y260750D01*
D53*
X521125Y387750D02*
Y421125D01*
Y266375D02*
Y378750D01*
X319125Y389750D02*
Y481625D01*
X64000Y486250D02*
X118000D01*
X247750Y482750D02*
X318000D01*
X114375Y395750D02*
Y482625D01*
X554250Y40250D02*
Y233250D01*
X521125Y266375D02*
X554250Y233250D01*
X457250Y485000D02*
X521125Y421125D01*
X118000Y486250D02*
X223500D01*
X114375Y482625D02*
X118000Y486250D01*
X318000Y482750D02*
X434250D01*
X318000D02*
X319125Y481625D01*
X434250Y482750D02*
X436500Y485000D01*
X223500Y486250D02*
X227000Y482750D01*
D54*
X83000Y1057100D02*
X108400D01*
X44850D02*
X83000D01*
X20250Y1032500D02*
X44850Y1057100D01*
X20250Y278250D02*
Y1032500D01*
Y278250D02*
X64250Y234250D01*
Y40250D02*
Y234250D01*
D57*
X198500Y762343D02*
Y808200D01*
X203593Y757250D02*
X229750D01*
X198500Y808200D02*
X198500Y808200D01*
X198500Y762343D02*
X203593Y757250D01*
X229750D02*
X238000Y765500D01*
X241593Y788700D02*
Y795750D01*
X238000Y785107D02*
X241593Y788700D01*
X238000Y765500D02*
Y785107D01*
X239000Y808200D02*
X239250Y807950D01*
Y798093D02*
Y807950D01*
Y798093D02*
X241593Y795750D01*
X272345Y802395D02*
X274450Y804500D01*
X261369Y802395D02*
X272345D01*
X254723Y795750D02*
X261369Y802395D01*
X241593Y795750D02*
X254723D01*
D58*
X274200Y840000D02*
D03*
X299600D02*
D03*
X325000D02*
D03*
X350400D02*
D03*
X274450Y804500D02*
D03*
X299850D02*
D03*
X325250D02*
D03*
X350650D02*
D03*
X369350Y969400D02*
D03*
Y994800D02*
D03*
Y1020200D02*
D03*
Y1045600D02*
D03*
X293150Y969400D02*
D03*
Y994800D02*
D03*
Y1020200D02*
D03*
X237350Y969400D02*
D03*
Y994800D02*
D03*
Y1020200D02*
D03*
Y1045600D02*
D03*
X161150Y969400D02*
D03*
Y994800D02*
D03*
Y1020200D02*
D03*
X586750Y980800D02*
D03*
X561350D02*
D03*
X586750Y1057000D02*
D03*
X561350Y1031600D02*
D03*
X586750D02*
D03*
X561350Y1006200D02*
D03*
X586750D02*
D03*
X561350Y955400D02*
D03*
X586750D02*
D03*
X83000Y1031700D02*
D03*
X108400D02*
D03*
X83000Y955500D02*
D03*
X108400Y980900D02*
D03*
X83000D02*
D03*
X108400Y1006300D02*
D03*
X83000D02*
D03*
X108400Y1057100D02*
D03*
X83000D02*
D03*
D59*
X375800Y840000D02*
D03*
X376050Y804500D02*
D03*
X293150Y1045600D02*
D03*
X161150D02*
D03*
D60*
X561350Y1057000D02*
D03*
X108400Y955500D02*
D03*
D61*
X554250Y40250D02*
D03*
X519250D02*
D03*
X484250D02*
D03*
X449250D02*
D03*
X414250D02*
D03*
X379250D02*
D03*
X344250D02*
D03*
X309250D02*
D03*
X274250D02*
D03*
X239250D02*
D03*
X204250D02*
D03*
X169250D02*
D03*
X134250D02*
D03*
X99250D02*
D03*
X64250D02*
D03*
X29250D02*
D03*
D62*
X482250Y947500D02*
D03*
X495000Y932500D02*
D03*
X315250Y912750D02*
D03*
X302250D02*
D03*
X290000D02*
D03*
X315250Y924250D02*
D03*
X302250D02*
D03*
X290000D02*
D03*
X73500Y678750D02*
D03*
X64750Y685750D02*
D03*
X170500Y678250D02*
D03*
X162250Y685000D02*
D03*
X266750Y677750D02*
D03*
X258750Y685750D02*
D03*
X328250Y682500D02*
D03*
X313250Y682000D02*
D03*
X379750Y686250D02*
D03*
X363750Y685000D02*
D03*
X476250Y686250D02*
D03*
X462250Y684750D02*
D03*
X562750Y685500D02*
D03*
X575750Y685250D02*
D03*
X521125Y387750D02*
D03*
X458500Y896500D02*
D03*
X247750Y482750D02*
D03*
X43250Y495250D02*
D03*
X510750Y387750D02*
D03*
X531500D02*
D03*
X510750Y378750D02*
D03*
X521125D02*
D03*
X531500D02*
D03*
X436500Y494000D02*
D03*
X446875D02*
D03*
X457250D02*
D03*
X436500Y485000D02*
D03*
X446875D02*
D03*
X457250D02*
D03*
X53625Y495250D02*
D03*
X64000D02*
D03*
X43250Y486250D02*
D03*
X53625D02*
D03*
X64000D02*
D03*
X308750Y389750D02*
D03*
X319125D02*
D03*
X329500D02*
D03*
X308750Y380750D02*
D03*
X319125D02*
D03*
X329500D02*
D03*
X227000Y491750D02*
D03*
X237375D02*
D03*
X247750D02*
D03*
X227000Y482750D02*
D03*
X237375D02*
D03*
X104000Y395750D02*
D03*
X114375D02*
D03*
X124750D02*
D03*
X104000Y386750D02*
D03*
X114375D02*
D03*
X124750D02*
D03*
D63*
X452154Y953154D02*
D03*
X542500Y1041750D02*
D03*
X431750Y1033750D02*
D03*
X313000Y893250D02*
D03*
X403000Y650777D02*
D03*
X130750Y686000D02*
D03*
X118250Y667500D02*
D03*
X223250Y679500D02*
D03*
X249750Y786250D02*
D03*
X262000Y779250D02*
D03*
X481000Y868775D02*
D03*
X498201Y1045650D02*
D03*
X380500Y894750D02*
D03*
X389250Y880000D02*
D03*
X406000Y915750D02*
D03*
X414250Y923250D02*
D03*
X418018Y889424D02*
D03*
X407500Y877250D02*
D03*
X427000Y890000D02*
D03*
X453750Y942000D02*
D03*
Y927250D02*
D03*
X164500Y876500D02*
D03*
X461875Y877375D02*
D03*
X454500Y886750D02*
D03*
X272500Y512500D02*
D03*
X147750Y346500D02*
D03*
X447765Y762515D02*
D03*
X478750Y780250D02*
D03*
X199862Y824138D02*
D03*
X151750Y788750D02*
D03*
X176697Y829500D02*
D03*
X169250Y836500D02*
D03*
X219000Y823250D02*
D03*
X464250D02*
D03*
X213000Y768250D02*
D03*
X525000Y766500D02*
D03*
X115500Y777500D02*
D03*
X155500Y766500D02*
D03*
X439750Y819250D02*
D03*
X523000Y787250D02*
D03*
X468500Y775750D02*
D03*
X513500Y681000D02*
D03*
X395019Y780034D02*
D03*
X500750Y869000D02*
D03*
X102500Y823750D02*
D03*
X88750D02*
D03*
X74750D02*
D03*
X174000Y871500D02*
D03*
X206000Y776750D02*
D03*
X242500Y882750D02*
D03*
X230750Y883250D02*
D03*
X220250Y883000D02*
D03*
X210250Y883250D02*
D03*
X170500Y773250D02*
D03*
X599750Y667500D02*
D03*
X503550D02*
D03*
X407350D02*
D03*
X311150D02*
D03*
X214950D02*
D03*
X472750Y398000D02*
D03*
X380500Y355750D02*
D03*
X351750D02*
D03*
X259000Y354750D02*
D03*
X177750Y357000D02*
D03*
X578750Y517000D02*
D03*
X325500Y528250D02*
D03*
X421750Y530750D02*
D03*
X522250Y530500D02*
D03*
X229450Y531750D02*
D03*
X134250D02*
D03*
X92000Y510500D02*
D03*
X176500Y505750D02*
D03*
X365500Y517750D02*
D03*
X457500Y511500D02*
D03*
X558500Y518000D02*
D03*
X593919Y650500D02*
D03*
X497696Y649250D02*
D03*
X209027D02*
D03*
X112804D02*
D03*
X305250D02*
D03*
X574669Y565803D02*
D03*
X585866Y566000D02*
D03*
X478446Y564553D02*
D03*
X489643Y564750D02*
D03*
X382223Y564553D02*
D03*
X393419Y564750D02*
D03*
X285999Y564553D02*
D03*
X297196Y564750D02*
D03*
X189776Y564553D02*
D03*
X200973Y564750D02*
D03*
X104750D02*
D03*
X93553Y564553D02*
D03*
D64*
X74100Y652250D02*
D03*
Y633250D02*
D03*
X51600Y642750D02*
D03*
X560750Y652250D02*
D03*
Y633250D02*
D03*
X538250Y642750D02*
D03*
X343590D02*
D03*
X366090Y633250D02*
D03*
Y652250D02*
D03*
X148930Y642750D02*
D03*
X171430Y633250D02*
D03*
Y652250D02*
D03*
X440920Y642750D02*
D03*
X463420Y633250D02*
D03*
Y652250D02*
D03*
X246260Y642750D02*
D03*
X268760Y633250D02*
D03*
Y652250D02*
D03*
D65*
X101350Y609250D02*
D03*
X80150Y618750D02*
D03*
Y599750D02*
D03*
X585100Y609250D02*
D03*
X563900Y618750D02*
D03*
Y599750D02*
D03*
X467150D02*
D03*
Y618750D02*
D03*
X488350Y609250D02*
D03*
X273650Y599750D02*
D03*
Y618750D02*
D03*
X294850Y609250D02*
D03*
X370400Y599750D02*
D03*
Y618750D02*
D03*
X391600Y609250D02*
D03*
X176900Y599750D02*
D03*
Y618750D02*
D03*
X198100Y609250D02*
D03*
D66*
X152500Y833800D02*
D03*
X133500D02*
D03*
Y808700D02*
D03*
X143000D02*
D03*
X152500D02*
D03*
X208000Y833300D02*
D03*
X189000D02*
D03*
Y808200D02*
D03*
X198500D02*
D03*
X208000D02*
D03*
X248500Y833300D02*
D03*
X229500D02*
D03*
Y808200D02*
D03*
X239000D02*
D03*
X248500D02*
D03*
X528500Y832550D02*
D03*
X509500D02*
D03*
Y807450D02*
D03*
X519000D02*
D03*
X528500D02*
D03*
X473750Y833300D02*
D03*
X454750D02*
D03*
Y808200D02*
D03*
X464250D02*
D03*
X473750D02*
D03*
X425875Y833550D02*
D03*
X406875D02*
D03*
Y808450D02*
D03*
X416375D02*
D03*
X425875D02*
D03*
D67*
X412947Y238750D02*
D03*
X380947D02*
D03*
X272932D02*
D03*
X240932D02*
D03*
X132917D02*
D03*
X100917D02*
D03*
X482955D02*
D03*
X450955D02*
D03*
X482955Y260750D02*
D03*
X450955D02*
D03*
X482955Y282750D02*
D03*
X450955D02*
D03*
X482955Y304750D02*
D03*
X450955D02*
D03*
X482955Y326750D02*
D03*
X450955D02*
D03*
X412947Y260750D02*
D03*
X380947D02*
D03*
X412947Y282750D02*
D03*
X380947D02*
D03*
X412947Y304750D02*
D03*
X380947D02*
D03*
X412947Y326750D02*
D03*
X380947D02*
D03*
X342940Y238750D02*
D03*
X310940D02*
D03*
X342940Y260750D02*
D03*
X310940D02*
D03*
X342940Y282750D02*
D03*
X310940D02*
D03*
X342940Y304750D02*
D03*
X310940D02*
D03*
X342940Y326750D02*
D03*
X310940D02*
D03*
X272932Y260750D02*
D03*
X240932D02*
D03*
X272932Y282750D02*
D03*
X240932D02*
D03*
X272932Y304750D02*
D03*
X240932D02*
D03*
X272932Y326750D02*
D03*
X240932D02*
D03*
X202925Y238750D02*
D03*
X170925D02*
D03*
X202925Y260750D02*
D03*
X170925D02*
D03*
X202925Y282750D02*
D03*
X170925D02*
D03*
X202925Y304750D02*
D03*
X170925D02*
D03*
X202925Y326750D02*
D03*
X170925D02*
D03*
X132917Y260750D02*
D03*
X100917D02*
D03*
X132917Y282750D02*
D03*
X100917D02*
D03*
X132917Y304750D02*
D03*
X100917D02*
D03*
X132917Y326750D02*
D03*
X100917D02*
D03*
M02*
