G04*
G04 #@! TF.GenerationSoftware,Altium Limited,Altium Designer,20.0.13 (296)*
G04*
G04 Layer_Color=65535*
%FSLAX44Y44*%
%MOMM*%
G71*
G01*
G75*
%ADD10C,0.1500*%
%ADD11C,0.0000*%
%ADD12C,0.2000*%
%ADD13C,0.6000*%
%ADD14C,0.2500*%
%ADD15C,0.3000*%
%ADD16C,0.1524*%
%ADD17C,0.1270*%
D10*
X170046Y947012D02*
G03*
X170150Y931100I12168J-7877D01*
G01*
X201155Y930987D02*
G03*
X201050Y946900I-12168J7877D01*
G01*
X135763Y572454D02*
G03*
X119850Y572350I-7877J-12168D01*
G01*
X119738Y541345D02*
G03*
X135650Y541450I7877J12168D01*
G01*
X578262Y682704D02*
G03*
X562350Y682600I-7877J-12168D01*
G01*
X562237Y651595D02*
G03*
X578150Y651700I7877J12168D01*
G01*
X595237Y610796D02*
G03*
X611150Y610900I7877J12168D01*
G01*
X611263Y641905D02*
G03*
X595350Y641800I-7877J-12168D01*
G01*
X622762Y572454D02*
G03*
X606850Y572350I-7877J-12168D01*
G01*
X606737Y541345D02*
G03*
X622650Y541450I7877J12168D01*
G01*
X113488Y610796D02*
G03*
X129400Y610900I7877J12168D01*
G01*
X129513Y641905D02*
G03*
X113600Y641800I-7877J-12168D01*
G01*
X97262Y682704D02*
G03*
X81350Y682600I-7877J-12168D01*
G01*
X81237Y651595D02*
G03*
X97150Y651700I7877J12168D01*
G01*
X381704Y768487D02*
G03*
X381600Y784400I-12168J7877D01*
G01*
X350595Y784512D02*
G03*
X350700Y768600I12168J-7877D01*
G01*
X441763Y949204D02*
G03*
X425850Y949100I-7877J-12168D01*
G01*
X425737Y918095D02*
G03*
X441650Y918200I7877J12168D01*
G01*
X225863Y641905D02*
G03*
X209950Y641800I-7877J-12168D01*
G01*
X209837Y610796D02*
G03*
X225750Y610900I7877J12168D01*
G01*
X322212Y641905D02*
G03*
X306300Y641800I-7877J-12168D01*
G01*
X306187Y610796D02*
G03*
X322100Y610900I7877J12168D01*
G01*
X418563Y641905D02*
G03*
X402650Y641800I-7877J-12168D01*
G01*
X402537Y610796D02*
G03*
X418450Y610900I7877J12168D01*
G01*
X514912Y641905D02*
G03*
X499000Y641800I-7877J-12168D01*
G01*
X498887Y610796D02*
G03*
X514800Y610900I7877J12168D01*
G01*
X177437Y651595D02*
G03*
X193350Y651700I7877J12168D01*
G01*
X193463Y682704D02*
G03*
X177550Y682600I-7877J-12168D01*
G01*
X273637Y651595D02*
G03*
X289550Y651700I7877J12168D01*
G01*
X289662Y682704D02*
G03*
X273750Y682600I-7877J-12168D01*
G01*
X369837Y651595D02*
G03*
X385750Y651700I7877J12168D01*
G01*
X385863Y682704D02*
G03*
X369950Y682600I-7877J-12168D01*
G01*
X466037Y651595D02*
G03*
X481950Y651700I7877J12168D01*
G01*
X482062Y682704D02*
G03*
X466150Y682600I-7877J-12168D01*
G01*
X217138Y541345D02*
G03*
X233050Y541450I7877J12168D01*
G01*
X233162Y572454D02*
G03*
X217250Y572350I-7877J-12168D01*
G01*
X314537Y541345D02*
G03*
X330450Y541450I7877J12168D01*
G01*
X330563Y572454D02*
G03*
X314650Y572350I-7877J-12168D01*
G01*
X411937Y541345D02*
G03*
X427850Y541450I7877J12168D01*
G01*
X427962Y572454D02*
G03*
X412050Y572350I-7877J-12168D01*
G01*
X509337Y541345D02*
G03*
X525250Y541450I7877J12168D01*
G01*
X525363Y572454D02*
G03*
X509450Y572350I-7877J-12168D01*
G01*
X235487Y815845D02*
G03*
X251400Y815950I7877J12168D01*
G01*
X251513Y846954D02*
G03*
X235600Y846850I-7877J-12168D01*
G01*
X350595Y875263D02*
G03*
X350700Y859350I12168J-7877D01*
G01*
X381704Y859237D02*
G03*
X381600Y875150I-12168J7877D01*
G01*
X484595Y831513D02*
G03*
X484700Y815600I12168J-7877D01*
G01*
X515704Y815488D02*
G03*
X515600Y831400I-12168J7877D01*
G01*
X184350Y936300D02*
Y941600D01*
X187150Y936300D02*
Y941600D01*
X170250Y931000D02*
X201000D01*
X170250Y947000D02*
X201000D01*
X125050Y558150D02*
X130350D01*
X125050Y555350D02*
X130350D01*
X119750Y541500D02*
Y572250D01*
X135750Y541500D02*
Y572250D01*
X567550Y668400D02*
X572850D01*
X567550Y665600D02*
X572850D01*
X562250Y651750D02*
Y682500D01*
X578250Y651750D02*
Y682500D01*
X600650Y625100D02*
X605950D01*
X600650Y627900D02*
X605950D01*
X611250Y611000D02*
Y641750D01*
X595250Y611000D02*
Y641750D01*
X612050Y558150D02*
X617350D01*
X612050Y555350D02*
X617350D01*
X606750Y541500D02*
Y572250D01*
X622750Y541500D02*
Y572250D01*
X118900Y625100D02*
X124200D01*
X118900Y627900D02*
X124200D01*
X129500Y611000D02*
Y641750D01*
X113500Y611000D02*
Y641750D01*
X86550Y668400D02*
X91850D01*
X86550Y665600D02*
X91850D01*
X81250Y651750D02*
Y682500D01*
X97250Y651750D02*
Y682500D01*
X367400Y773900D02*
Y779200D01*
X364600Y773900D02*
Y779200D01*
X350750Y784500D02*
X381500D01*
X350750Y768500D02*
X381500D01*
X431050Y934900D02*
X436350D01*
X431050Y932100D02*
X436350D01*
X425750Y918250D02*
Y949000D01*
X441750Y918250D02*
Y949000D01*
X209850Y611000D02*
Y641750D01*
X225850Y611000D02*
Y641750D01*
X215250Y627900D02*
X220550D01*
X215250Y625100D02*
X220550D01*
X306200Y611000D02*
Y641750D01*
X322200Y611000D02*
Y641750D01*
X311600Y627900D02*
X316900D01*
X311600Y625100D02*
X316900D01*
X402550Y611000D02*
Y641750D01*
X418550Y611000D02*
Y641750D01*
X407950Y627900D02*
X413250D01*
X407950Y625100D02*
X413250D01*
X498900Y611000D02*
Y641750D01*
X514900Y611000D02*
Y641750D01*
X504300Y627900D02*
X509600D01*
X504300Y625100D02*
X509600D01*
X193450Y651750D02*
Y682500D01*
X177450Y651750D02*
Y682500D01*
X182750Y665600D02*
X188050D01*
X182750Y668400D02*
X188050D01*
X289650Y651750D02*
Y682500D01*
X273650Y651750D02*
Y682500D01*
X278950Y665600D02*
X284250D01*
X278950Y668400D02*
X284250D01*
X385850Y651750D02*
Y682500D01*
X369850Y651750D02*
Y682500D01*
X375150Y665600D02*
X380450D01*
X375150Y668400D02*
X380450D01*
X482050Y651750D02*
Y682500D01*
X466050Y651750D02*
Y682500D01*
X471350Y665600D02*
X476650D01*
X471350Y668400D02*
X476650D01*
X233150Y541500D02*
Y572250D01*
X217150Y541500D02*
Y572250D01*
X222450Y555350D02*
X227750D01*
X222450Y558150D02*
X227750D01*
X330550Y541500D02*
Y572250D01*
X314550Y541500D02*
Y572250D01*
X319850Y555350D02*
X325150D01*
X319850Y558150D02*
X325150D01*
X427950Y541500D02*
Y572250D01*
X411950Y541500D02*
Y572250D01*
X417250Y555350D02*
X422550D01*
X417250Y558150D02*
X422550D01*
X525350Y541500D02*
Y572250D01*
X509350Y541500D02*
Y572250D01*
X514650Y555350D02*
X519950D01*
X514650Y558150D02*
X519950D01*
X251500Y816000D02*
Y846750D01*
X235500Y816000D02*
Y846750D01*
X240800Y829850D02*
X246100D01*
X240800Y832650D02*
X246100D01*
X350750Y859250D02*
X381500D01*
X350750Y875250D02*
X381500D01*
X364600Y864650D02*
Y869950D01*
X367400Y864650D02*
Y869950D01*
X484750Y815500D02*
X515500D01*
X484750Y831500D02*
X515500D01*
X498600Y820900D02*
Y826200D01*
X501400Y820900D02*
Y826200D01*
D11*
X542166Y606150D02*
G03*
X542166Y612246I0J3048D01*
G01*
X61050Y604900D02*
G03*
X61050Y610996I0J3048D01*
G01*
X157273Y604900D02*
G03*
X157273Y610996I0J3048D01*
G01*
X253496Y604900D02*
G03*
X253496Y610996I0J3048D01*
G01*
X349720Y604900D02*
G03*
X349720Y610996I0J3048D01*
G01*
X445943Y604900D02*
G03*
X445943Y610996I0J3048D01*
G01*
D12*
X608250Y537750D02*
G03*
X608250Y537750I-1000J0D01*
G01*
X121750Y535500D02*
G03*
X121750Y535500I-1000J0D01*
G01*
X166000Y783250D02*
G03*
X166000Y783250I-1000J0D01*
G01*
X617000Y794250D02*
G03*
X617000Y794250I-1000J0D01*
G01*
X416250Y783250D02*
G03*
X416250Y783250I-1000J0D01*
G01*
X324900Y1059000D02*
G03*
X337600Y1059000I6350J0D01*
G01*
X192900D02*
G03*
X205600Y1059000I6350J0D01*
G01*
X488750Y395385D02*
G03*
X488750Y395385I-1000J0D01*
G01*
X288750Y403369D02*
G03*
X288750Y403369I-1000J0D01*
G01*
X88000D02*
G03*
X88000Y403369I-1000J0D01*
G01*
X55000Y483131D02*
G03*
X55000Y483131I-1000J0D01*
G01*
X454500D02*
G03*
X454500Y483131I-1000J0D01*
G01*
X254250D02*
G03*
X254250Y483131I-1000J0D01*
G01*
X219050Y536250D02*
G03*
X219050Y536250I-1000J0D01*
G01*
X316350Y537750D02*
G03*
X316350Y537750I-1000J0D01*
G01*
X413650D02*
G03*
X413650Y537750I-1000J0D01*
G01*
X510950D02*
G03*
X510950Y537750I-1000J0D01*
G01*
X581000Y663000D02*
X592000D01*
X581000D02*
Y683000D01*
X592000D01*
Y663000D02*
Y683000D01*
X100000Y663000D02*
X111000D01*
X100000D02*
Y683000D01*
X111000D01*
Y663000D02*
Y683000D01*
X56250Y720250D02*
Y726250D01*
X23250Y720250D02*
Y726250D01*
X603750Y720250D02*
Y726250D01*
X570750Y720250D02*
Y726250D01*
X430750Y770250D02*
Y781250D01*
X450750D01*
Y770250D02*
Y781250D01*
X430750Y770250D02*
X450750D01*
X388500Y827300D02*
Y852700D01*
X261500Y827300D02*
X388500D01*
X261500Y852700D02*
X388500D01*
X261500Y827300D02*
Y852700D01*
X388750Y791800D02*
Y817200D01*
X261750Y791800D02*
X388750D01*
X261750Y817200D02*
X388750D01*
X261750Y791800D02*
Y817200D01*
X179750Y771250D02*
Y782250D01*
X199750D01*
Y771250D02*
Y782250D01*
X179750Y771250D02*
X199750D01*
X144750Y796000D02*
X155750D01*
X144750D02*
Y816000D01*
X155750D01*
Y796000D02*
Y816000D01*
X522750Y1048350D02*
X533750D01*
Y1028350D02*
Y1048350D01*
X522750Y1028350D02*
X533750D01*
X522750D02*
Y1048350D01*
X508152Y1032750D02*
X518152D01*
X492250Y1036500D02*
X503250D01*
Y1016500D02*
Y1036500D01*
X492250Y1016500D02*
X503250D01*
X492250D02*
Y1036500D01*
X477451Y1032750D02*
X487451D01*
X461348Y1048350D02*
X472348D01*
Y1028350D02*
Y1048350D01*
X461348Y1028350D02*
X472348D01*
X461348D02*
Y1048350D01*
X445305Y1028750D02*
X455305D01*
X499500Y991250D02*
X505500D01*
X499500Y958250D02*
X505500D01*
X395000Y789500D02*
X406000D01*
X395000D02*
Y809500D01*
X406000D01*
Y789500D02*
Y809500D01*
X403750Y1041250D02*
Y1052250D01*
X383750Y1041250D02*
X403750D01*
X383750D02*
Y1052250D01*
X403750D01*
Y1015500D02*
Y1026500D01*
X383750Y1015500D02*
X403750D01*
X383750D02*
Y1026500D01*
X403750D01*
Y989750D02*
Y1000750D01*
X383750Y989750D02*
X403750D01*
X383750D02*
Y1000750D01*
X403750D01*
Y964000D02*
Y975000D01*
X383750Y964000D02*
X403750D01*
X383750D02*
Y975000D01*
X403750D01*
X304750Y956000D02*
X357750D01*
X337600Y1059000D02*
X357750D01*
X304750D02*
X324900D01*
X357750Y956000D02*
Y1059000D01*
X304750Y956000D02*
Y1059000D01*
X172750Y956000D02*
X225750D01*
X205600Y1059000D02*
X225750D01*
X172750D02*
X192900D01*
X225750Y956000D02*
Y1059000D01*
X172750Y956000D02*
Y1059000D01*
X271000Y961250D02*
Y972250D01*
X251000Y961250D02*
X271000D01*
X251000D02*
Y972250D01*
X271000D01*
Y990750D02*
Y1001750D01*
X251000Y990750D02*
X271000D01*
X251000D02*
Y1001750D01*
X271000D01*
Y1021000D02*
Y1032000D01*
X251000Y1021000D02*
X271000D01*
X251000D02*
Y1032000D01*
X271000D01*
Y1049000D02*
Y1060000D01*
X251000Y1049000D02*
X271000D01*
X251000D02*
Y1060000D01*
X271000D01*
X548650Y942700D02*
X599450D01*
X548650Y1069700D02*
X599450D01*
Y942700D02*
Y1069700D01*
X548650Y942700D02*
Y1069700D01*
X599450Y942700D02*
X688350D01*
Y1069700D01*
X599450D02*
X688350D01*
X23734Y1061334D02*
X57600D01*
X19500Y1057100D02*
X23734Y1061334D01*
X19500Y1057100D02*
X23734Y1052867D01*
X57600D01*
X70300Y1069800D02*
X121100D01*
X70300Y942800D02*
X121100D01*
X70300D02*
Y1069800D01*
X121100Y942800D02*
Y1069800D01*
X19500Y955500D02*
X23734Y951267D01*
X19500Y955500D02*
X23734Y959734D01*
Y976667D02*
X57600D01*
X19500Y980900D02*
X23734Y976667D01*
X19500Y980900D02*
X23734Y985134D01*
X57600D01*
X23734Y959734D02*
X57600D01*
X23734Y951267D02*
X57600D01*
X19500Y1006300D02*
X23734Y1002067D01*
X19500Y1006300D02*
X23734Y1010534D01*
Y1027467D02*
X57600D01*
X19500Y1031700D02*
X23734Y1027467D01*
X19500Y1031700D02*
X23734Y1035934D01*
X57600D01*
X23734Y1010534D02*
X57600D01*
X23734Y1002067D02*
X57600D01*
Y942800D02*
X70300D01*
X57600D02*
Y1069800D01*
X70300D01*
X207200Y663000D02*
Y683000D01*
X196200D02*
X207200D01*
X196200Y663000D02*
Y683000D01*
Y663000D02*
X207200D01*
X303400D02*
Y683000D01*
X292400D02*
X303400D01*
X292400Y663000D02*
Y683000D01*
Y663000D02*
X303400D01*
X399600D02*
Y683000D01*
X388600D02*
X399600D01*
X388600Y663000D02*
Y683000D01*
Y663000D02*
X399600D01*
X495800D02*
Y683000D01*
X484800D02*
X495800D01*
X484800Y663000D02*
Y683000D01*
Y663000D02*
X495800D01*
X465250Y285750D02*
X471250D01*
X465250Y252750D02*
X471250D01*
X465250Y243250D02*
X471250D01*
X465250Y210250D02*
X471250D01*
X112750Y243250D02*
X118750D01*
X112750Y210250D02*
X118750D01*
X112750Y285750D02*
X118750D01*
X112750Y252750D02*
X118750D01*
X182500Y243250D02*
X188500D01*
X182500Y210250D02*
X188500D01*
X183250Y285750D02*
X189250D01*
X183250Y252750D02*
X189250D01*
X253750Y243250D02*
X259750D01*
X253750Y210250D02*
X259750D01*
X253750Y285750D02*
X259750D01*
X253750Y252750D02*
X259750D01*
X324250Y243250D02*
X330250D01*
X324250Y210250D02*
X330250D01*
X324250Y285750D02*
X330250D01*
X324250Y252750D02*
X330250D01*
X394750Y243500D02*
X400750D01*
X394750Y210500D02*
X400750D01*
X394750Y285750D02*
X400750D01*
X394750Y252750D02*
X400750D01*
X471204Y720250D02*
Y726250D01*
X504204Y720250D02*
Y726250D01*
X321886Y720250D02*
Y726250D01*
X354886Y720250D02*
Y726250D01*
X222341Y720250D02*
Y726250D01*
X255341Y720250D02*
Y726250D01*
X122795Y720250D02*
Y726250D01*
X155795Y720250D02*
Y726250D01*
X520977Y720250D02*
Y726250D01*
X553977Y720250D02*
Y726250D01*
X421432Y720250D02*
Y726250D01*
X454432Y720250D02*
Y726250D01*
X371659Y720250D02*
Y726250D01*
X404659Y720250D02*
Y726250D01*
X272114Y720250D02*
Y726250D01*
X305114Y720250D02*
Y726250D01*
X172568Y720250D02*
Y726250D01*
X205568Y720250D02*
Y726250D01*
X73023Y720250D02*
Y726250D01*
X106023Y720250D02*
Y726250D01*
X84419Y932249D02*
X89084Y925251D01*
Y932249D02*
X84419Y925251D01*
X94915D02*
Y932249D01*
X91416Y928750D01*
X96081D01*
X571669Y929999D02*
X576334Y923001D01*
Y929999D02*
X571669Y923001D01*
X578666Y928833D02*
X579833Y929999D01*
X582165D01*
X583331Y928833D01*
Y927666D01*
X582165Y926500D01*
X580999D01*
X582165D01*
X583331Y925334D01*
Y924167D01*
X582165Y923001D01*
X579833D01*
X578666Y924167D01*
X149001Y842918D02*
X154833D01*
X155999Y844085D01*
Y846417D01*
X154833Y847584D01*
X149001D01*
X155999Y853415D02*
X149001D01*
X152500Y849916D01*
Y854581D01*
X399751Y845169D02*
X405583D01*
X406749Y846335D01*
Y848667D01*
X405583Y849834D01*
X399751D01*
X400917Y852166D02*
X399751Y853333D01*
Y855665D01*
X400917Y856832D01*
X402084D01*
X403250Y855665D01*
Y854499D01*
Y855665D01*
X404416Y856832D01*
X405583D01*
X406749Y855665D01*
Y853333D01*
X405583Y852166D01*
X44668Y591756D02*
X50499D01*
X51666Y592923D01*
Y595255D01*
X50499Y596421D01*
X44668D01*
X51666Y598754D02*
Y601087D01*
Y599920D01*
X44668D01*
X45834Y598754D01*
X52832Y604585D02*
Y609251D01*
X47000Y616248D02*
Y612749D01*
X48167Y611583D01*
X50499D01*
X51666Y612749D01*
Y616248D01*
X44668Y618581D02*
X51666D01*
X48167D01*
X47000Y619747D01*
Y622080D01*
X48167Y623246D01*
X51666D01*
X44668Y630244D02*
X45834Y627911D01*
X48167Y625579D01*
X50499D01*
X51666Y626745D01*
Y629077D01*
X50499Y630244D01*
X49333D01*
X48167Y629077D01*
Y625579D01*
X525918Y592923D02*
X531749D01*
X532916Y594089D01*
Y596421D01*
X531749Y597588D01*
X525918D01*
X532916Y599920D02*
Y602253D01*
Y601087D01*
X525918D01*
X527084Y599920D01*
X534082Y605752D02*
Y610417D01*
X528251Y617415D02*
Y613916D01*
X529417Y612749D01*
X531749D01*
X532916Y613916D01*
Y617415D01*
X525918Y619747D02*
X532916D01*
X529417D01*
X528251Y620914D01*
Y623246D01*
X529417Y624412D01*
X532916D01*
Y626745D02*
Y629077D01*
Y627911D01*
X525918D01*
X527084Y626745D01*
X198084Y1069583D02*
X196917Y1070749D01*
X194585D01*
X193419Y1069583D01*
Y1068416D01*
X194585Y1067250D01*
X196917D01*
X198084Y1066084D01*
Y1064917D01*
X196917Y1063751D01*
X194585D01*
X193419Y1064917D01*
X205082Y1063751D02*
X200416D01*
X205082Y1068416D01*
Y1069583D01*
X203915Y1070749D01*
X201583D01*
X200416Y1069583D01*
X331500Y1069333D02*
X330334Y1070499D01*
X328001D01*
X326835Y1069333D01*
Y1068166D01*
X328001Y1067000D01*
X330334D01*
X331500Y1065834D01*
Y1064667D01*
X330334Y1063501D01*
X328001D01*
X326835Y1064667D01*
X333833Y1063501D02*
X336165D01*
X334999D01*
Y1070499D01*
X333833Y1069333D01*
X116673Y674834D02*
Y681832D01*
X120172D01*
X121338Y680666D01*
Y678333D01*
X120172Y677167D01*
X116673D01*
X119006D02*
X121338Y674834D01*
X128336D02*
X123671D01*
X128336Y679500D01*
Y680666D01*
X127170Y681832D01*
X124837D01*
X123671Y680666D01*
X130668Y673668D02*
X135334D01*
X142331Y679500D02*
X138833D01*
X137666Y678333D01*
Y676001D01*
X138833Y674834D01*
X142331D01*
X144664Y681832D02*
Y674834D01*
Y678333D01*
X145830Y679500D01*
X148163D01*
X149329Y678333D01*
Y674834D01*
X156327Y681832D02*
X153994Y680666D01*
X151662Y678333D01*
Y676001D01*
X152828Y674834D01*
X155161D01*
X156327Y676001D01*
Y677167D01*
X155161Y678333D01*
X151662D01*
X605416Y651839D02*
X598418D01*
Y655338D01*
X599584Y656505D01*
X601917D01*
X603083Y655338D01*
Y651839D01*
Y654172D02*
X605416Y656505D01*
Y663502D02*
Y658837D01*
X600751Y663502D01*
X599584D01*
X598418Y662336D01*
Y660003D01*
X599584Y658837D01*
X606582Y665835D02*
Y670500D01*
X600751Y677498D02*
Y673999D01*
X601917Y672833D01*
X604249D01*
X605416Y673999D01*
Y677498D01*
X598418Y679830D02*
X605416D01*
X601917D01*
X600751Y680997D01*
Y683329D01*
X601917Y684495D01*
X605416D01*
Y686828D02*
Y689161D01*
Y687994D01*
X598418D01*
X599584Y686828D01*
X114256Y503332D02*
Y496334D01*
X118921D01*
X121254D02*
X123587D01*
X122420D01*
Y503332D01*
X121254Y502166D01*
X127085Y495168D02*
X131751D01*
X138748Y500999D02*
X135249D01*
X134083Y499833D01*
Y497501D01*
X135249Y496334D01*
X138748D01*
X141081Y503332D02*
Y496334D01*
Y499833D01*
X142247Y500999D01*
X144580D01*
X145746Y499833D01*
Y496334D01*
X152744Y503332D02*
X150411Y502166D01*
X148079Y499833D01*
Y497501D01*
X149245Y496334D01*
X151578D01*
X152744Y497501D01*
Y498667D01*
X151578Y499833D01*
X148079D01*
X139506Y385832D02*
Y378834D01*
X144171D01*
X146504D02*
X148836D01*
X147670D01*
Y385832D01*
X146504Y384666D01*
X152335Y377668D02*
X157001D01*
X163998Y383499D02*
X160499D01*
X159333Y382333D01*
Y380001D01*
X160499Y378834D01*
X163998D01*
X166331Y385832D02*
Y378834D01*
Y382333D01*
X167497Y383499D01*
X169830D01*
X170996Y382333D01*
Y378834D01*
X177994Y385832D02*
X173329D01*
Y382333D01*
X175661Y383499D01*
X176828D01*
X177994Y382333D01*
Y380001D01*
X176828Y378834D01*
X174495D01*
X173329Y380001D01*
X302756Y501832D02*
Y494834D01*
X307421D01*
X309754D02*
X312087D01*
X310920D01*
Y501832D01*
X309754Y500666D01*
X315585Y493668D02*
X320251D01*
X327248Y499500D02*
X323749D01*
X322583Y498333D01*
Y496001D01*
X323749Y494834D01*
X327248D01*
X329581Y501832D02*
Y494834D01*
Y498333D01*
X330747Y499500D01*
X333080D01*
X334246Y498333D01*
Y494834D01*
X340078D02*
Y501832D01*
X336579Y498333D01*
X341244D01*
X345256Y381332D02*
Y374334D01*
X349921D01*
X352254D02*
X354586D01*
X353420D01*
Y381332D01*
X352254Y380166D01*
X358085Y373168D02*
X362751D01*
X369748Y378999D02*
X366250D01*
X365083Y377833D01*
Y375501D01*
X366250Y374334D01*
X369748D01*
X372081Y381332D02*
Y374334D01*
Y377833D01*
X373247Y378999D01*
X375580D01*
X376746Y377833D01*
Y374334D01*
X379079Y380166D02*
X380245Y381332D01*
X382578D01*
X383744Y380166D01*
Y378999D01*
X382578Y377833D01*
X381411D01*
X382578D01*
X383744Y376667D01*
Y375501D01*
X382578Y374334D01*
X380245D01*
X379079Y375501D01*
X509256Y501832D02*
Y494834D01*
X513921D01*
X516254D02*
X518587D01*
X517420D01*
Y501832D01*
X516254Y500666D01*
X522085Y493668D02*
X526751D01*
X533748Y499500D02*
X530249D01*
X529083Y498333D01*
Y496001D01*
X530249Y494834D01*
X533748D01*
X536081Y501832D02*
Y494834D01*
Y498333D01*
X537247Y499500D01*
X539580D01*
X540746Y498333D01*
Y494834D01*
X547744D02*
X543079D01*
X547744Y499500D01*
Y500666D01*
X546577Y501832D01*
X544245D01*
X543079Y500666D01*
X549422Y382332D02*
Y375334D01*
X554088D01*
X556420D02*
X558753D01*
X557587D01*
Y382332D01*
X556420Y381166D01*
X562252Y374168D02*
X566917D01*
X573915Y380000D02*
X570416D01*
X569249Y378833D01*
Y376501D01*
X570416Y375334D01*
X573915D01*
X576247Y382332D02*
Y375334D01*
Y378833D01*
X577413Y380000D01*
X579746D01*
X580912Y378833D01*
Y375334D01*
X583245D02*
X585578D01*
X584411D01*
Y382332D01*
X583245Y381166D01*
X19586Y-2251D02*
Y-9249D01*
X23085D01*
X24251Y-8083D01*
Y-3417D01*
X23085Y-2251D01*
X19586D01*
X31249Y-3417D02*
X30083Y-2251D01*
X27750D01*
X26584Y-3417D01*
Y-8083D01*
X27750Y-9249D01*
X30083D01*
X31249Y-8083D01*
Y-5750D01*
X28916D01*
X33582Y-9249D02*
X35914D01*
X34748D01*
Y-2251D01*
X33582Y-3417D01*
X31668Y516923D02*
X38666D01*
Y520422D01*
X37499Y521588D01*
X32834D01*
X31668Y520422D01*
Y516923D01*
X38666Y528586D02*
Y523921D01*
X34000Y528586D01*
X32834D01*
X31668Y527420D01*
Y525087D01*
X32834Y523921D01*
X39832Y530919D02*
Y535584D01*
X34000Y542581D02*
Y539083D01*
X35167Y537916D01*
X37499D01*
X38666Y539083D01*
Y542581D01*
X31668Y544914D02*
X38666D01*
X35167D01*
X34000Y546080D01*
Y548413D01*
X35167Y549579D01*
X38666D01*
X31668Y556577D02*
X32834Y554244D01*
X35167Y551912D01*
X37499D01*
X38666Y553078D01*
Y555411D01*
X37499Y556577D01*
X36333D01*
X35167Y555411D01*
Y551912D01*
X543339Y565082D02*
Y558084D01*
X546838D01*
X548004Y559251D01*
Y563916D01*
X546838Y565082D01*
X543339D01*
X555002Y558084D02*
X550337D01*
X555002Y562749D01*
Y563916D01*
X553836Y565082D01*
X551503D01*
X550337Y563916D01*
X557335Y556918D02*
X562000D01*
X568998Y562749D02*
X565499D01*
X564333Y561583D01*
Y559251D01*
X565499Y558084D01*
X568998D01*
X571330Y565082D02*
Y558084D01*
Y561583D01*
X572497Y562749D01*
X574829D01*
X575995Y561583D01*
Y558084D01*
X578328D02*
X580661D01*
X579494D01*
Y565082D01*
X578328Y563916D01*
X44918Y360756D02*
X51916D01*
Y364255D01*
X50749Y365421D01*
X46084D01*
X44918Y364255D01*
Y360756D01*
X51916Y367754D02*
Y370087D01*
Y368920D01*
X44918D01*
X46084Y367754D01*
X53082Y373585D02*
Y378251D01*
X47251Y385248D02*
Y381749D01*
X48417Y380583D01*
X50749D01*
X51916Y381749D01*
Y385248D01*
X44918Y387581D02*
X51916D01*
X48417D01*
X47251Y388747D01*
Y391080D01*
X48417Y392246D01*
X51916D01*
X44918Y399244D02*
X46084Y396911D01*
X48417Y394579D01*
X50749D01*
X51916Y395745D01*
Y398078D01*
X50749Y399244D01*
X49583D01*
X48417Y398078D01*
Y394579D01*
X55668Y316506D02*
X62666D01*
Y320005D01*
X61499Y321171D01*
X56834D01*
X55668Y320005D01*
Y316506D01*
X62666Y323504D02*
Y325836D01*
Y324670D01*
X55668D01*
X56834Y323504D01*
X63832Y329335D02*
Y334001D01*
X58000Y340998D02*
Y337500D01*
X59167Y336333D01*
X61499D01*
X62666Y337500D01*
Y340998D01*
X55668Y343331D02*
X62666D01*
X59167D01*
X58000Y344497D01*
Y346830D01*
X59167Y347996D01*
X62666D01*
X55668Y354994D02*
Y350329D01*
X59167D01*
X58000Y352661D01*
Y353828D01*
X59167Y354994D01*
X61499D01*
X62666Y353828D01*
Y351495D01*
X61499Y350329D01*
X220668Y421756D02*
X227666D01*
Y425255D01*
X226499Y426421D01*
X221834D01*
X220668Y425255D01*
Y421756D01*
X227666Y428754D02*
Y431087D01*
Y429920D01*
X220668D01*
X221834Y428754D01*
X228832Y434585D02*
Y439251D01*
X223001Y446248D02*
Y442749D01*
X224167Y441583D01*
X226499D01*
X227666Y442749D01*
Y446248D01*
X220668Y448581D02*
X227666D01*
X224167D01*
X223001Y449747D01*
Y452080D01*
X224167Y453246D01*
X227666D01*
Y459077D02*
X220668D01*
X224167Y455579D01*
Y460244D01*
X255918Y340756D02*
X262916D01*
Y344255D01*
X261749Y345421D01*
X257084D01*
X255918Y344255D01*
Y340756D01*
X262916Y347754D02*
Y350087D01*
Y348920D01*
X255918D01*
X257084Y347754D01*
X264082Y353585D02*
Y358251D01*
X258251Y365248D02*
Y361749D01*
X259417Y360583D01*
X261749D01*
X262916Y361749D01*
Y365248D01*
X255918Y367581D02*
X262916D01*
X259417D01*
X258251Y368747D01*
Y371080D01*
X259417Y372246D01*
X262916D01*
X257084Y374579D02*
X255918Y375745D01*
Y378078D01*
X257084Y379244D01*
X258251D01*
X259417Y378078D01*
Y376911D01*
Y378078D01*
X260583Y379244D01*
X261749D01*
X262916Y378078D01*
Y375745D01*
X261749Y374579D01*
X420418Y423006D02*
X427416D01*
Y426505D01*
X426249Y427671D01*
X421584D01*
X420418Y426505D01*
Y423006D01*
X427416Y430004D02*
Y432337D01*
Y431170D01*
X420418D01*
X421584Y430004D01*
X428582Y435835D02*
Y440501D01*
X422751Y447498D02*
Y443999D01*
X423917Y442833D01*
X426249D01*
X427416Y443999D01*
Y447498D01*
X420418Y449831D02*
X427416D01*
X423917D01*
X422751Y450997D01*
Y453330D01*
X423917Y454496D01*
X427416D01*
Y461494D02*
Y456829D01*
X422751Y461494D01*
X421584D01*
X420418Y460327D01*
Y457995D01*
X421584Y456829D01*
X457168Y336922D02*
X464166D01*
Y340421D01*
X462999Y341588D01*
X458334D01*
X457168Y340421D01*
Y336922D01*
X464166Y343920D02*
Y346253D01*
Y345087D01*
X457168D01*
X458334Y343920D01*
X465332Y349752D02*
Y354417D01*
X459501Y361415D02*
Y357916D01*
X460667Y356749D01*
X462999D01*
X464166Y357916D01*
Y361415D01*
X457168Y363747D02*
X464166D01*
X460667D01*
X459501Y364913D01*
Y367246D01*
X460667Y368412D01*
X464166D01*
Y370745D02*
Y373078D01*
Y371911D01*
X457168D01*
X458334Y370745D01*
X136834Y613088D02*
X135668Y611922D01*
Y609589D01*
X136834Y608423D01*
X141499D01*
X142666Y609589D01*
Y611922D01*
X141499Y613088D01*
X135668Y615421D02*
Y620086D01*
X136834D01*
X141499Y615421D01*
X142666D01*
X143832Y622419D02*
Y627084D01*
X138001Y634081D02*
Y630583D01*
X139167Y629416D01*
X141499D01*
X142666Y630583D01*
Y634081D01*
X135668Y636414D02*
X142666D01*
X139167D01*
X138001Y637580D01*
Y639913D01*
X139167Y641079D01*
X142666D01*
X135668Y648077D02*
X136834Y645744D01*
X139167Y643412D01*
X141499D01*
X142666Y644578D01*
Y646911D01*
X141499Y648077D01*
X140333D01*
X139167Y646911D01*
Y643412D01*
X617084Y610755D02*
X615918Y609588D01*
Y607256D01*
X617084Y606089D01*
X621749D01*
X622916Y607256D01*
Y609588D01*
X621749Y610755D01*
X615918Y613087D02*
Y617752D01*
X617084D01*
X621749Y613087D01*
X622916D01*
X624082Y620085D02*
Y624750D01*
X618251Y631748D02*
Y628249D01*
X619417Y627083D01*
X621749D01*
X622916Y628249D01*
Y631748D01*
X615918Y634080D02*
X622916D01*
X619417D01*
X618251Y635247D01*
Y637579D01*
X619417Y638745D01*
X622916D01*
Y641078D02*
Y643411D01*
Y642244D01*
X615918D01*
X617084Y641078D01*
X37338Y230166D02*
X36172Y231332D01*
X33839D01*
X32673Y230166D01*
Y225501D01*
X33839Y224334D01*
X36172D01*
X37338Y225501D01*
X44336Y231332D02*
X42003Y230166D01*
X39671Y227833D01*
Y225501D01*
X40837Y224334D01*
X43170D01*
X44336Y225501D01*
Y226667D01*
X43170Y227833D01*
X39671D01*
X46669Y223168D02*
X51334D01*
X58331Y228999D02*
X54833D01*
X53666Y227833D01*
Y225501D01*
X54833Y224334D01*
X58331D01*
X60664Y231332D02*
Y224334D01*
Y227833D01*
X61830Y228999D01*
X64163D01*
X65329Y227833D01*
Y224334D01*
X72327Y231332D02*
X69994Y230166D01*
X67662Y227833D01*
Y225501D01*
X68828Y224334D01*
X71161D01*
X72327Y225501D01*
Y226667D01*
X71161Y227833D01*
X67662D01*
X514005Y230666D02*
X512838Y231832D01*
X510506D01*
X509339Y230666D01*
Y226001D01*
X510506Y224834D01*
X512838D01*
X514005Y226001D01*
X521002Y231832D02*
X518670Y230666D01*
X516337Y228333D01*
Y226001D01*
X517503Y224834D01*
X519836D01*
X521002Y226001D01*
Y227167D01*
X519836Y228333D01*
X516337D01*
X523335Y223668D02*
X528000D01*
X534998Y229499D02*
X531499D01*
X530333Y228333D01*
Y226001D01*
X531499Y224834D01*
X534998D01*
X537330Y231832D02*
Y224834D01*
Y228333D01*
X538497Y229499D01*
X540829D01*
X541996Y228333D01*
Y224834D01*
X544328D02*
X546661D01*
X545494D01*
Y231832D01*
X544328Y230666D01*
X38088Y271916D02*
X36922Y273082D01*
X34589D01*
X33423Y271916D01*
Y267251D01*
X34589Y266084D01*
X36922D01*
X38088Y267251D01*
X45086Y273082D02*
X40421D01*
Y269583D01*
X42753Y270749D01*
X43920D01*
X45086Y269583D01*
Y267251D01*
X43920Y266084D01*
X41587D01*
X40421Y267251D01*
X47418Y264918D02*
X52084D01*
X59082Y270749D02*
X55583D01*
X54416Y269583D01*
Y267251D01*
X55583Y266084D01*
X59082D01*
X61414Y273082D02*
Y266084D01*
Y269583D01*
X62580Y270749D01*
X64913D01*
X66079Y269583D01*
Y266084D01*
X73077Y273082D02*
X70744Y271916D01*
X68412Y269583D01*
Y267251D01*
X69578Y266084D01*
X71911D01*
X73077Y267251D01*
Y268417D01*
X71911Y269583D01*
X68412D01*
X515005Y273916D02*
X513838Y275082D01*
X511506D01*
X510339Y273916D01*
Y269251D01*
X511506Y268084D01*
X513838D01*
X515005Y269251D01*
X522002Y275082D02*
X517337D01*
Y271583D01*
X519670Y272749D01*
X520836D01*
X522002Y271583D01*
Y269251D01*
X520836Y268084D01*
X518503D01*
X517337Y269251D01*
X524335Y266918D02*
X529000D01*
X535998Y272749D02*
X532499D01*
X531333Y271583D01*
Y269251D01*
X532499Y268084D01*
X535998D01*
X538330Y275082D02*
Y268084D01*
Y271583D01*
X539497Y272749D01*
X541829D01*
X542995Y271583D01*
Y268084D01*
X545328D02*
X547661D01*
X546494D01*
Y275082D01*
X545328Y273916D01*
X66334Y653588D02*
X65168Y652422D01*
Y650089D01*
X66334Y648923D01*
X70999D01*
X72166Y650089D01*
Y652422D01*
X70999Y653588D01*
X72166Y660586D02*
Y655921D01*
X67501Y660586D01*
X66334D01*
X65168Y659420D01*
Y657087D01*
X66334Y655921D01*
X73332Y662919D02*
Y667584D01*
X67501Y674582D02*
Y671083D01*
X68667Y669916D01*
X70999D01*
X72166Y671083D01*
Y674582D01*
X65168Y676914D02*
X72166D01*
X68667D01*
X67501Y678080D01*
Y680413D01*
X68667Y681579D01*
X72166D01*
X65168Y688577D02*
X66334Y686244D01*
X68667Y683912D01*
X70999D01*
X72166Y685078D01*
Y687411D01*
X70999Y688577D01*
X69833D01*
X68667Y687411D01*
Y683912D01*
X547334Y657755D02*
X546168Y656588D01*
Y654256D01*
X547334Y653089D01*
X551999D01*
X553166Y654256D01*
Y656588D01*
X551999Y657755D01*
X553166Y664752D02*
Y660087D01*
X548501Y664752D01*
X547334D01*
X546168Y663586D01*
Y661253D01*
X547334Y660087D01*
X554332Y667085D02*
Y671750D01*
X548501Y678748D02*
Y675249D01*
X549667Y674083D01*
X551999D01*
X553166Y675249D01*
Y678748D01*
X546168Y681080D02*
X553166D01*
X549667D01*
X548501Y682247D01*
Y684579D01*
X549667Y685745D01*
X553166D01*
Y688078D02*
Y690411D01*
Y689244D01*
X546168D01*
X547334Y688078D01*
X142584Y559671D02*
X141418Y558505D01*
Y556172D01*
X142584Y555006D01*
X147249D01*
X148416Y556172D01*
Y558505D01*
X147249Y559671D01*
X148416Y562004D02*
Y564337D01*
Y563170D01*
X141418D01*
X142584Y562004D01*
X149582Y567835D02*
Y572501D01*
X143750Y579498D02*
Y575999D01*
X144917Y574833D01*
X147249D01*
X148416Y575999D01*
Y579498D01*
X141418Y581831D02*
X148416D01*
X144917D01*
X143750Y582997D01*
Y585330D01*
X144917Y586496D01*
X148416D01*
X141418Y593494D02*
X142584Y591161D01*
X144917Y588829D01*
X147249D01*
X148416Y589995D01*
Y592327D01*
X147249Y593494D01*
X146083D01*
X144917Y592327D01*
Y588829D01*
X613084Y499088D02*
X611918Y497921D01*
Y495589D01*
X613084Y494422D01*
X617749D01*
X618916Y495589D01*
Y497921D01*
X617749Y499088D01*
X618916Y501420D02*
Y503753D01*
Y502587D01*
X611918D01*
X613084Y501420D01*
X620082Y507252D02*
Y511917D01*
X614251Y518915D02*
Y515416D01*
X615417Y514249D01*
X617749D01*
X618916Y515416D01*
Y518915D01*
X611918Y521247D02*
X618916D01*
X615417D01*
X614251Y522413D01*
Y524746D01*
X615417Y525912D01*
X618916D01*
Y528245D02*
Y530578D01*
Y529411D01*
X611918D01*
X613084Y528245D01*
X504170Y1006749D02*
Y1002084D01*
X506502Y999751D01*
X508835Y1002084D01*
Y1006749D01*
X511167D02*
Y999751D01*
X514666D01*
X515833Y1000917D01*
Y1005583D01*
X514666Y1006749D01*
X511167D01*
X518165Y1005583D02*
X519331Y1006749D01*
X521664D01*
X522830Y1005583D01*
Y1004416D01*
X521664Y1003250D01*
X520498D01*
X521664D01*
X522830Y1002084D01*
Y1000917D01*
X521664Y999751D01*
X519331D01*
X518165Y1000917D01*
X472670Y1005499D02*
Y1000834D01*
X475002Y998501D01*
X477335Y1000834D01*
Y1005499D01*
X479667D02*
Y998501D01*
X483166D01*
X484333Y999667D01*
Y1004333D01*
X483166Y1005499D01*
X479667D01*
X491330Y998501D02*
X486665D01*
X491330Y1003166D01*
Y1004333D01*
X490164Y1005499D01*
X487831D01*
X486665Y1004333D01*
X519670Y1055501D02*
Y1062499D01*
X523168D01*
X524335Y1061333D01*
Y1059000D01*
X523168Y1057834D01*
X519670D01*
X522002D02*
X524335Y1055501D01*
X530166D02*
Y1062499D01*
X526667Y1059000D01*
X531333D01*
X533665Y1061333D02*
X534832Y1062499D01*
X537164D01*
X538330Y1061333D01*
Y1056667D01*
X537164Y1055501D01*
X534832D01*
X533665Y1056667D01*
Y1061333D01*
X501499Y1041670D02*
X494501D01*
Y1045169D01*
X495667Y1046335D01*
X498000D01*
X499166Y1045169D01*
Y1041670D01*
Y1044002D02*
X501499Y1046335D01*
Y1053333D02*
Y1048667D01*
X496834Y1053333D01*
X495667D01*
X494501Y1052166D01*
Y1049834D01*
X495667Y1048667D01*
X500333Y1055665D02*
X501499Y1056831D01*
Y1059164D01*
X500333Y1060330D01*
X495667D01*
X494501Y1059164D01*
Y1056831D01*
X495667Y1055665D01*
X496834D01*
X498000Y1056831D01*
Y1060330D01*
X295835Y785499D02*
X300500Y778501D01*
Y785499D02*
X295835Y778501D01*
X302833D02*
X305165D01*
X303999D01*
Y785499D01*
X302833Y784333D01*
X292918Y865999D02*
X297584Y859001D01*
Y865999D02*
X292918Y859001D01*
X304582D02*
X299916D01*
X304582Y863666D01*
Y864833D01*
X303415Y865999D01*
X301083D01*
X299916Y864833D01*
X560086Y779999D02*
Y775334D01*
X562419Y773001D01*
X564751Y775334D01*
Y779999D01*
X567084Y773001D02*
Y779999D01*
X570583D01*
X571749Y778833D01*
Y776500D01*
X570583Y775334D01*
X567084D01*
X569416D02*
X571749Y773001D01*
X574081D02*
X576414D01*
X575248D01*
Y779999D01*
X574081Y778833D01*
X251670Y1037251D02*
Y1044249D01*
X255169D01*
X256335Y1043083D01*
Y1040750D01*
X255169Y1039584D01*
X251670D01*
X254002D02*
X256335Y1037251D01*
X258667Y1043083D02*
X259834Y1044249D01*
X262166D01*
X263333Y1043083D01*
Y1041916D01*
X262166Y1040750D01*
X261000D01*
X262166D01*
X263333Y1039584D01*
Y1038417D01*
X262166Y1037251D01*
X259834D01*
X258667Y1038417D01*
X270330Y1044249D02*
X267998Y1043083D01*
X265665Y1040750D01*
Y1038417D01*
X266831Y1037251D01*
X269164D01*
X270330Y1038417D01*
Y1039584D01*
X269164Y1040750D01*
X265665D01*
X179920Y758501D02*
Y765499D01*
X183419D01*
X184585Y764333D01*
Y762000D01*
X183419Y760834D01*
X179920D01*
X182252D02*
X184585Y758501D01*
X186917Y764333D02*
X188084Y765499D01*
X190416D01*
X191583Y764333D01*
Y763166D01*
X190416Y762000D01*
X189250D01*
X190416D01*
X191583Y760834D01*
Y759667D01*
X190416Y758501D01*
X188084D01*
X186917Y759667D01*
X197414Y758501D02*
Y765499D01*
X193915Y762000D01*
X198580D01*
X138499Y799420D02*
X131501D01*
Y802918D01*
X132667Y804085D01*
X135000D01*
X136166Y802918D01*
Y799420D01*
Y801752D02*
X138499Y804085D01*
X132667Y806417D02*
X131501Y807584D01*
Y809916D01*
X132667Y811083D01*
X133834D01*
X135000Y809916D01*
Y808750D01*
Y809916D01*
X136166Y811083D01*
X137333D01*
X138499Y809916D01*
Y807584D01*
X137333Y806417D01*
X131501Y818080D02*
Y813415D01*
X135000D01*
X133834Y815748D01*
Y816914D01*
X135000Y818080D01*
X137333D01*
X138499Y816914D01*
Y814581D01*
X137333Y813415D01*
X251420Y949001D02*
Y955999D01*
X254919D01*
X256085Y954833D01*
Y952500D01*
X254919Y951334D01*
X251420D01*
X253752D02*
X256085Y949001D01*
X258417Y954833D02*
X259584Y955999D01*
X261916D01*
X263083Y954833D01*
Y953666D01*
X261916Y952500D01*
X260750D01*
X261916D01*
X263083Y951334D01*
Y950167D01*
X261916Y949001D01*
X259584D01*
X258417Y950167D01*
X265415D02*
X266581Y949001D01*
X268914D01*
X270080Y950167D01*
Y954833D01*
X268914Y955999D01*
X266581D01*
X265415Y954833D01*
Y953666D01*
X266581Y952500D01*
X270080D01*
X417420Y965251D02*
Y972249D01*
X420919D01*
X422085Y971083D01*
Y968750D01*
X420919Y967584D01*
X417420D01*
X419752D02*
X422085Y965251D01*
X429083D02*
X424417D01*
X429083Y969916D01*
Y971083D01*
X427916Y972249D01*
X425584D01*
X424417Y971083D01*
X431415D02*
X432581Y972249D01*
X434914D01*
X436080Y971083D01*
Y969916D01*
X434914Y968750D01*
X436080Y967584D01*
Y966417D01*
X434914Y965251D01*
X432581D01*
X431415Y966417D01*
Y967584D01*
X432581Y968750D01*
X431415Y969916D01*
Y971083D01*
X432581Y968750D02*
X434914D01*
X251170Y979001D02*
Y985999D01*
X254669D01*
X255835Y984833D01*
Y982500D01*
X254669Y981334D01*
X251170D01*
X253502D02*
X255835Y979001D01*
X258167Y984833D02*
X259334Y985999D01*
X261666D01*
X262833Y984833D01*
Y983666D01*
X261666Y982500D01*
X260500D01*
X261666D01*
X262833Y981334D01*
Y980167D01*
X261666Y979001D01*
X259334D01*
X258167Y980167D01*
X265165Y984833D02*
X266332Y985999D01*
X268664D01*
X269830Y984833D01*
Y983666D01*
X268664Y982500D01*
X269830Y981334D01*
Y980167D01*
X268664Y979001D01*
X266332D01*
X265165Y980167D01*
Y981334D01*
X266332Y982500D01*
X265165Y983666D01*
Y984833D01*
X266332Y982500D02*
X268664D01*
X251170Y1008751D02*
Y1015749D01*
X254669D01*
X255835Y1014583D01*
Y1012250D01*
X254669Y1011084D01*
X251170D01*
X253502D02*
X255835Y1008751D01*
X258167Y1014583D02*
X259334Y1015749D01*
X261666D01*
X262833Y1014583D01*
Y1013416D01*
X261666Y1012250D01*
X260500D01*
X261666D01*
X262833Y1011084D01*
Y1009917D01*
X261666Y1008751D01*
X259334D01*
X258167Y1009917D01*
X265165Y1015749D02*
X269830D01*
Y1014583D01*
X265165Y1009917D01*
Y1008751D01*
X416420Y992251D02*
Y999249D01*
X419919D01*
X421085Y998083D01*
Y995750D01*
X419919Y994584D01*
X416420D01*
X418752D02*
X421085Y992251D01*
X428083D02*
X423417D01*
X428083Y996916D01*
Y998083D01*
X426916Y999249D01*
X424584D01*
X423417Y998083D01*
X430415Y999249D02*
X435080D01*
Y998083D01*
X430415Y993417D01*
Y992251D01*
X414920Y1043251D02*
Y1050249D01*
X418419D01*
X419585Y1049083D01*
Y1046750D01*
X418419Y1045584D01*
X414920D01*
X417252D02*
X419585Y1043251D01*
X426583D02*
X421917D01*
X426583Y1047916D01*
Y1049083D01*
X425416Y1050249D01*
X423084D01*
X421917Y1049083D01*
X433580Y1050249D02*
X428915D01*
Y1046750D01*
X431248Y1047916D01*
X432414D01*
X433580Y1046750D01*
Y1044417D01*
X432414Y1043251D01*
X430081D01*
X428915Y1044417D01*
X415670Y1018001D02*
Y1024999D01*
X419169D01*
X420335Y1023833D01*
Y1021500D01*
X419169Y1020334D01*
X415670D01*
X418002D02*
X420335Y1018001D01*
X427333D02*
X422667D01*
X427333Y1022666D01*
Y1023833D01*
X426166Y1024999D01*
X423834D01*
X422667Y1023833D01*
X434330Y1024999D02*
X431998Y1023833D01*
X429665Y1021500D01*
Y1019167D01*
X430831Y1018001D01*
X433164D01*
X434330Y1019167D01*
Y1020334D01*
X433164Y1021500D01*
X429665D01*
X497418Y947083D02*
X496252Y948249D01*
X493919D01*
X492753Y947083D01*
Y942417D01*
X493919Y941251D01*
X496252D01*
X497418Y942417D01*
X499751Y941251D02*
X502083D01*
X500917D01*
Y948249D01*
X499751Y947083D01*
X509081Y941251D02*
Y948249D01*
X505582Y944750D01*
X510247D01*
X215668Y941083D02*
X214502Y942249D01*
X212169D01*
X211003Y941083D01*
Y936417D01*
X212169Y935251D01*
X214502D01*
X215668Y936417D01*
X218001Y935251D02*
X220333D01*
X219167D01*
Y942249D01*
X218001Y941083D01*
X228497Y935251D02*
X223832D01*
X228497Y939916D01*
Y941083D01*
X227331Y942249D01*
X224998D01*
X223832Y941083D01*
X329168Y778333D02*
X328002Y779499D01*
X325669D01*
X324503Y778333D01*
Y773667D01*
X325669Y772501D01*
X328002D01*
X329168Y773667D01*
X331501Y772501D02*
X333833D01*
X332667D01*
Y779499D01*
X331501Y778333D01*
X337332D02*
X338498Y779499D01*
X340831D01*
X341997Y778333D01*
Y773667D01*
X340831Y772501D01*
X338498D01*
X337332Y773667D01*
Y778333D01*
X241391Y863069D02*
X240225Y864236D01*
X237892D01*
X236726Y863069D01*
Y858404D01*
X237892Y857238D01*
X240225D01*
X241391Y858404D01*
X243724Y857238D02*
X246056D01*
X244890D01*
Y864236D01*
X243724Y863069D01*
X249555Y857238D02*
X251888D01*
X250721D01*
Y864236D01*
X249555Y863069D01*
X354167Y888977D02*
X353001Y890144D01*
X350668D01*
X349502Y888977D01*
Y884312D01*
X350668Y883146D01*
X353001D01*
X354167Y884312D01*
X356500Y883146D02*
X358832D01*
X357666D01*
Y890144D01*
X356500Y888977D01*
X362331D02*
X363498Y890144D01*
X365830D01*
X366996Y888977D01*
Y887811D01*
X365830Y886645D01*
X364664D01*
X365830D01*
X366996Y885479D01*
Y884312D01*
X365830Y883146D01*
X363498D01*
X362331Y884312D01*
X459470Y1056751D02*
Y1061416D01*
X457137Y1063749D01*
X454804Y1061416D01*
Y1056751D01*
X452472D02*
Y1063749D01*
X448973D01*
X447807Y1062582D01*
Y1057917D01*
X448973Y1056751D01*
X452472D01*
X445474Y1063749D02*
X443142D01*
X444308D01*
Y1056751D01*
X445474Y1057917D01*
X421170Y758501D02*
Y765499D01*
X424669D01*
X425835Y764333D01*
Y762000D01*
X424669Y760834D01*
X421170D01*
X423502D02*
X425835Y758501D01*
X432833D02*
X428167D01*
X432833Y763166D01*
Y764333D01*
X431666Y765499D01*
X429334D01*
X428167Y764333D01*
X435165D02*
X436331Y765499D01*
X438664D01*
X439830Y764333D01*
Y763166D01*
X438664Y762000D01*
X437498D01*
X438664D01*
X439830Y760834D01*
Y759667D01*
X438664Y758501D01*
X436331D01*
X435165Y759667D01*
X402999Y816920D02*
X396001D01*
Y820418D01*
X397167Y821585D01*
X399500D01*
X400666Y820418D01*
Y816920D01*
Y819252D02*
X402999Y821585D01*
Y828583D02*
Y823917D01*
X398334Y828583D01*
X397167D01*
X396001Y827416D01*
Y825084D01*
X397167Y823917D01*
X402999Y834414D02*
X396001D01*
X399500Y830915D01*
Y835580D01*
X457920Y1055751D02*
Y1062749D01*
X461418D01*
X462585Y1061583D01*
Y1059250D01*
X461418Y1058084D01*
X457920D01*
X460252D02*
X462585Y1055751D01*
X469583D02*
X464917D01*
X469583Y1060416D01*
Y1061583D01*
X468416Y1062749D01*
X466084D01*
X464917Y1061583D01*
X476580Y1055751D02*
X471915D01*
X476580Y1060416D01*
Y1061583D01*
X475414Y1062749D01*
X473082D01*
X471915Y1061583D01*
X488279Y845289D02*
X487113Y846456D01*
X484780D01*
X483614Y845289D01*
Y840624D01*
X484780Y839458D01*
X487113D01*
X488279Y840624D01*
X490612D02*
X491778Y839458D01*
X494111D01*
X495277Y840624D01*
Y845289D01*
X494111Y846456D01*
X491778D01*
X490612Y845289D01*
Y844123D01*
X491778Y842957D01*
X495277D01*
X449667Y932084D02*
X448501Y930917D01*
Y928585D01*
X449667Y927419D01*
X454333D01*
X455499Y928585D01*
Y930917D01*
X454333Y932084D01*
X449667Y934416D02*
X448501Y935583D01*
Y937915D01*
X449667Y939081D01*
X450834D01*
X452000Y937915D01*
X453166Y939081D01*
X454333D01*
X455499Y937915D01*
Y935583D01*
X454333Y934416D01*
X453166D01*
X452000Y935583D01*
X450834Y934416D01*
X449667D01*
X452000Y935583D02*
Y937915D01*
X611834Y710005D02*
X610668Y708838D01*
Y706506D01*
X611834Y705339D01*
X616499D01*
X617666Y706506D01*
Y708838D01*
X616499Y710005D01*
X617666Y715836D02*
X610668D01*
X614167Y712337D01*
Y717002D01*
X618832Y719335D02*
Y724000D01*
X613001Y730998D02*
Y727499D01*
X614167Y726333D01*
X616499D01*
X617666Y727499D01*
Y730998D01*
X610668Y733330D02*
X617666D01*
X614167D01*
X613001Y734497D01*
Y736829D01*
X614167Y737996D01*
X617666D01*
Y740328D02*
Y742661D01*
Y741494D01*
X610668D01*
X611834Y740328D01*
X39834Y768838D02*
X38668Y767672D01*
Y765339D01*
X39834Y764173D01*
X44499D01*
X45666Y765339D01*
Y767672D01*
X44499Y768838D01*
X45666Y774670D02*
X38668D01*
X42167Y771171D01*
Y775836D01*
X46832Y778168D02*
Y782834D01*
X41001Y789831D02*
Y786333D01*
X42167Y785166D01*
X44499D01*
X45666Y786333D01*
Y789831D01*
X38668Y792164D02*
X45666D01*
X42167D01*
X41001Y793330D01*
Y795663D01*
X42167Y796829D01*
X45666D01*
X38668Y803827D02*
X39834Y801494D01*
X42167Y799162D01*
X44499D01*
X45666Y800328D01*
Y802661D01*
X44499Y803827D01*
X43333D01*
X42167Y802661D01*
Y799162D01*
D13*
X317750Y1049000D02*
G03*
X317750Y1049000I-3000J0D01*
G01*
X185750D02*
G03*
X185750Y1049000I-3000J0D01*
G01*
D14*
X294400Y1058600D02*
G03*
X294400Y1058600I-1250J0D01*
G01*
X162400D02*
G03*
X162400Y1058600I-1250J0D01*
G01*
D15*
X0Y905000D02*
X630000D01*
X0Y175000D02*
X630000D01*
D16*
X542166Y587100D02*
Y606150D01*
Y612246D01*
Y631296D01*
X591950Y587100D02*
Y631296D01*
X61050Y585850D02*
Y604900D01*
Y610996D01*
Y630046D01*
X110834Y585850D02*
Y630046D01*
X207057Y585850D02*
Y630046D01*
X157273Y610996D02*
Y630046D01*
Y604900D02*
Y610996D01*
Y585850D02*
Y604900D01*
X303280Y585850D02*
Y630046D01*
X253496Y610996D02*
Y630046D01*
Y604900D02*
Y610996D01*
Y585850D02*
Y604900D01*
X399504Y585850D02*
Y630046D01*
X349720Y610996D02*
Y630046D01*
Y604900D02*
Y610996D01*
Y585850D02*
Y604900D01*
X495727Y585850D02*
Y630046D01*
X445943Y610996D02*
Y630046D01*
Y604900D02*
Y610996D01*
Y585850D02*
Y604900D01*
D17*
X541250Y552350D02*
X593250D01*
X541250Y523150D02*
X593250D01*
X54750Y550100D02*
X106750D01*
X54750Y520900D02*
X106750D01*
X228000Y802750D02*
Y847750D01*
X162000Y802750D02*
Y847750D01*
X552500Y849750D02*
X587500D01*
X552500Y837350D02*
Y849750D01*
Y784750D02*
X587500D01*
X552500D02*
Y797150D01*
X478250Y802750D02*
Y847750D01*
X412250Y802750D02*
Y847750D01*
X502350Y329385D02*
Y381385D01*
X473150Y329385D02*
Y381385D01*
X302350Y337369D02*
Y389369D01*
X273150Y337369D02*
Y389369D01*
X101600Y337369D02*
Y389369D01*
X72400Y337369D02*
Y389369D01*
X112250Y292750D02*
X216250D01*
X112250Y396750D02*
X216250D01*
X112250Y292750D02*
Y323550D01*
Y365950D02*
Y396750D01*
X216250Y292750D02*
Y323550D01*
Y365950D02*
Y396750D01*
X81250Y409750D02*
X185250D01*
X81250Y513750D02*
X185250D01*
X81250Y409750D02*
Y440550D01*
Y482950D02*
Y513750D01*
X185250Y409750D02*
Y440550D01*
Y482950D02*
Y513750D01*
X68600Y417131D02*
Y469131D01*
X39400Y417131D02*
Y469131D01*
X468100Y417131D02*
Y469131D01*
X438900Y417131D02*
Y469131D01*
X267850Y417131D02*
Y469131D01*
X238650Y417131D02*
Y469131D01*
X280500Y409750D02*
X384500D01*
X280500Y513750D02*
X384500D01*
X280500Y409750D02*
Y440550D01*
Y482950D02*
Y513750D01*
X384500Y409750D02*
Y440550D01*
Y482950D02*
Y513750D01*
X479750Y409750D02*
X583750D01*
X479750Y513750D02*
X583750D01*
X479750Y409750D02*
Y440550D01*
Y482950D02*
Y513750D01*
X583750Y409750D02*
Y440550D01*
Y482950D02*
Y513750D01*
X514750Y292750D02*
X618750D01*
X514750Y396750D02*
X618750D01*
X514750Y292750D02*
Y323550D01*
Y365950D02*
Y396750D01*
X618750Y292750D02*
Y323550D01*
Y365950D02*
Y396750D01*
X313500Y292750D02*
X417500D01*
X313500Y396750D02*
X417500D01*
X313500Y292750D02*
Y323550D01*
Y365950D02*
Y396750D01*
X417500Y292750D02*
Y323550D01*
Y365950D02*
Y396750D01*
X8150Y82160D02*
X575750Y82160D01*
X8150Y9200D02*
Y82160D01*
Y9200D02*
X575750D01*
Y82160D01*
X152050Y521650D02*
X204050D01*
X152050Y550850D02*
X204050D01*
X249350Y523150D02*
X301350D01*
X249350Y552350D02*
X301350D01*
X346650Y523150D02*
X398650D01*
X346650Y552350D02*
X398650D01*
X443950Y523150D02*
X495950D01*
X443950Y552350D02*
X495950D01*
M02*
