G04*
G04 #@! TF.GenerationSoftware,Altium Limited,Altium Designer,20.0.13 (296)*
G04*
G04 Layer_Color=32896*
%FSLAX44Y44*%
%MOMM*%
G71*
G01*
G75*
%ADD10C,0.1500*%
%ADD12C,0.2000*%
%ADD17C,0.1270*%
D10*
X370697Y249000D02*
X423197D01*
Y228500D02*
Y249000D01*
X370697Y228500D02*
X423197D01*
X370697D02*
Y249000D01*
X400947Y234000D02*
Y243750D01*
X392947D02*
X400947D01*
X392947Y234000D02*
Y243750D01*
Y234000D02*
X400947D01*
X230682Y249000D02*
X283182D01*
Y228500D02*
Y249000D01*
X230682Y228500D02*
X283182D01*
X230682D02*
Y249000D01*
X260932Y234000D02*
Y243750D01*
X252932D02*
X260932D01*
X252932Y234000D02*
Y243750D01*
Y234000D02*
X260932D01*
X90667Y249000D02*
X143167D01*
Y228500D02*
Y249000D01*
X90667Y228500D02*
X143167D01*
X90667D02*
Y249000D01*
X120917Y234000D02*
Y243750D01*
X112917D02*
X120917D01*
X112917Y234000D02*
Y243750D01*
Y234000D02*
X120917D01*
X440705Y249000D02*
X493205D01*
Y228500D02*
Y249000D01*
X440705Y228500D02*
X493205D01*
X440705D02*
Y249000D01*
X470955Y234000D02*
Y243750D01*
X462955D02*
X470955D01*
X462955Y234000D02*
Y243750D01*
Y234000D02*
X470955D01*
X440705Y271000D02*
X493205D01*
Y250500D02*
Y271000D01*
X440705Y250500D02*
X493205D01*
X440705D02*
Y271000D01*
X470955Y256000D02*
Y265750D01*
X462955D02*
X470955D01*
X462955Y256000D02*
Y265750D01*
Y256000D02*
X470955D01*
X440705Y293000D02*
X493205D01*
Y272500D02*
Y293000D01*
X440705Y272500D02*
X493205D01*
X440705D02*
Y293000D01*
X470955Y278000D02*
Y287750D01*
X462955D02*
X470955D01*
X462955Y278000D02*
Y287750D01*
Y278000D02*
X470955D01*
X440705Y315000D02*
X493205D01*
Y294500D02*
Y315000D01*
X440705Y294500D02*
X493205D01*
X440705D02*
Y315000D01*
X470955Y300000D02*
Y309750D01*
X462955D02*
X470955D01*
X462955Y300000D02*
Y309750D01*
Y300000D02*
X470955D01*
X440705Y337000D02*
X493205D01*
Y316500D02*
Y337000D01*
X440705Y316500D02*
X493205D01*
X440705D02*
Y337000D01*
X470955Y322000D02*
Y331750D01*
X462955D02*
X470955D01*
X462955Y322000D02*
Y331750D01*
Y322000D02*
X470955D01*
X370697Y271000D02*
X423197D01*
Y250500D02*
Y271000D01*
X370697Y250500D02*
X423197D01*
X370697D02*
Y271000D01*
X400947Y256000D02*
Y265750D01*
X392947D02*
X400947D01*
X392947Y256000D02*
Y265750D01*
Y256000D02*
X400947D01*
X370697Y293000D02*
X423197D01*
Y272500D02*
Y293000D01*
X370697Y272500D02*
X423197D01*
X370697D02*
Y293000D01*
X400947Y278000D02*
Y287750D01*
X392947D02*
X400947D01*
X392947Y278000D02*
Y287750D01*
Y278000D02*
X400947D01*
X370697Y315000D02*
X423197D01*
Y294500D02*
Y315000D01*
X370697Y294500D02*
X423197D01*
X370697D02*
Y315000D01*
X400947Y300000D02*
Y309750D01*
X392947D02*
X400947D01*
X392947Y300000D02*
Y309750D01*
Y300000D02*
X400947D01*
X370697Y337000D02*
X423197D01*
Y316500D02*
Y337000D01*
X370697Y316500D02*
X423197D01*
X370697D02*
Y337000D01*
X400947Y322000D02*
Y331750D01*
X392947D02*
X400947D01*
X392947Y322000D02*
Y331750D01*
Y322000D02*
X400947D01*
X300690Y249000D02*
X353190D01*
Y228500D02*
Y249000D01*
X300690Y228500D02*
X353190D01*
X300690D02*
Y249000D01*
X330940Y234000D02*
Y243750D01*
X322940D02*
X330940D01*
X322940Y234000D02*
Y243750D01*
Y234000D02*
X330940D01*
X300690Y271000D02*
X353190D01*
Y250500D02*
Y271000D01*
X300690Y250500D02*
X353190D01*
X300690D02*
Y271000D01*
X330940Y256000D02*
Y265750D01*
X322940D02*
X330940D01*
X322940Y256000D02*
Y265750D01*
Y256000D02*
X330940D01*
X300690Y293000D02*
X353190D01*
Y272500D02*
Y293000D01*
X300690Y272500D02*
X353190D01*
X300690D02*
Y293000D01*
X330940Y278000D02*
Y287750D01*
X322940D02*
X330940D01*
X322940Y278000D02*
Y287750D01*
Y278000D02*
X330940D01*
X300690Y315000D02*
X353190D01*
Y294500D02*
Y315000D01*
X300690Y294500D02*
X353190D01*
X300690D02*
Y315000D01*
X330940Y300000D02*
Y309750D01*
X322940D02*
X330940D01*
X322940Y300000D02*
Y309750D01*
Y300000D02*
X330940D01*
X300690Y337000D02*
X353190D01*
Y316500D02*
Y337000D01*
X300690Y316500D02*
X353190D01*
X300690D02*
Y337000D01*
X330940Y322000D02*
Y331750D01*
X322940D02*
X330940D01*
X322940Y322000D02*
Y331750D01*
Y322000D02*
X330940D01*
X230682Y271000D02*
X283182D01*
Y250500D02*
Y271000D01*
X230682Y250500D02*
X283182D01*
X230682D02*
Y271000D01*
X260932Y256000D02*
Y265750D01*
X252932D02*
X260932D01*
X252932Y256000D02*
Y265750D01*
Y256000D02*
X260932D01*
X230682Y293000D02*
X283182D01*
Y272500D02*
Y293000D01*
X230682Y272500D02*
X283182D01*
X230682D02*
Y293000D01*
X260932Y278000D02*
Y287750D01*
X252932D02*
X260932D01*
X252932Y278000D02*
Y287750D01*
Y278000D02*
X260932D01*
X230682Y315000D02*
X283182D01*
Y294500D02*
Y315000D01*
X230682Y294500D02*
X283182D01*
X230682D02*
Y315000D01*
X260932Y300000D02*
Y309750D01*
X252932D02*
X260932D01*
X252932Y300000D02*
Y309750D01*
Y300000D02*
X260932D01*
X230682Y337000D02*
X283182D01*
Y316500D02*
Y337000D01*
X230682Y316500D02*
X283182D01*
X230682D02*
Y337000D01*
X260932Y322000D02*
Y331750D01*
X252932D02*
X260932D01*
X252932Y322000D02*
Y331750D01*
Y322000D02*
X260932D01*
X160675Y249000D02*
X213175D01*
Y228500D02*
Y249000D01*
X160675Y228500D02*
X213175D01*
X160675D02*
Y249000D01*
X190925Y234000D02*
Y243750D01*
X182925D02*
X190925D01*
X182925Y234000D02*
Y243750D01*
Y234000D02*
X190925D01*
X160675Y271000D02*
X213175D01*
Y250500D02*
Y271000D01*
X160675Y250500D02*
X213175D01*
X160675D02*
Y271000D01*
X190925Y256000D02*
Y265750D01*
X182925D02*
X190925D01*
X182925Y256000D02*
Y265750D01*
Y256000D02*
X190925D01*
X160675Y293000D02*
X213175D01*
Y272500D02*
Y293000D01*
X160675Y272500D02*
X213175D01*
X160675D02*
Y293000D01*
X190925Y278000D02*
Y287750D01*
X182925D02*
X190925D01*
X182925Y278000D02*
Y287750D01*
Y278000D02*
X190925D01*
X160675Y315000D02*
X213175D01*
Y294500D02*
Y315000D01*
X160675Y294500D02*
X213175D01*
X160675D02*
Y315000D01*
X190925Y300000D02*
Y309750D01*
X182925D02*
X190925D01*
X182925Y300000D02*
Y309750D01*
Y300000D02*
X190925D01*
X160675Y337000D02*
X213175D01*
Y316500D02*
Y337000D01*
X160675Y316500D02*
X213175D01*
X160675D02*
Y337000D01*
X190925Y322000D02*
Y331750D01*
X182925D02*
X190925D01*
X182925Y322000D02*
Y331750D01*
Y322000D02*
X190925D01*
X90667Y271000D02*
X143167D01*
Y250500D02*
Y271000D01*
X90667Y250500D02*
X143167D01*
X90667D02*
Y271000D01*
X120917Y256000D02*
Y265750D01*
X112917D02*
X120917D01*
X112917Y256000D02*
Y265750D01*
Y256000D02*
X120917D01*
X90667Y293000D02*
X143167D01*
Y272500D02*
Y293000D01*
X90667Y272500D02*
X143167D01*
X90667D02*
Y293000D01*
X120917Y278000D02*
Y287750D01*
X112917D02*
X120917D01*
X112917Y278000D02*
Y287750D01*
Y278000D02*
X120917D01*
X90667Y315000D02*
X143167D01*
Y294500D02*
Y315000D01*
X90667Y294500D02*
X143167D01*
X90667D02*
Y315000D01*
X120917Y300000D02*
Y309750D01*
X112917D02*
X120917D01*
X112917Y300000D02*
Y309750D01*
Y300000D02*
X120917D01*
X90667Y337000D02*
X143167D01*
Y316500D02*
Y337000D01*
X90667Y316500D02*
X143167D01*
X90667D02*
Y337000D01*
X120917Y322000D02*
Y331750D01*
X112917D02*
X120917D01*
X112917Y322000D02*
Y331750D01*
Y322000D02*
X120917D01*
D12*
X66750Y597250D02*
G03*
X66750Y597250I-1000J0D01*
G01*
X154500Y797150D02*
G03*
X154500Y797150I-1000J0D01*
G01*
X210000Y796650D02*
G03*
X210000Y796650I-1000J0D01*
G01*
X250500D02*
G03*
X250500Y796650I-1000J0D01*
G01*
X530500Y795900D02*
G03*
X530500Y795900I-1000J0D01*
G01*
X475750Y796650D02*
G03*
X475750Y796650I-1000J0D01*
G01*
X427875Y796900D02*
G03*
X427875Y796900I-1000J0D01*
G01*
X550500Y597250D02*
G03*
X550500Y597250I-1000J0D01*
G01*
X453750D02*
G03*
X453750Y597250I-1000J0D01*
G01*
X260250D02*
G03*
X260250Y597250I-1000J0D01*
G01*
X357000D02*
G03*
X357000Y597250I-1000J0D01*
G01*
X163500D02*
G03*
X163500Y597250I-1000J0D01*
G01*
X488000Y974500D02*
X508000D01*
Y963500D02*
Y974500D01*
X488000Y963500D02*
X508000D01*
X488000D02*
Y974500D01*
X510750Y963500D02*
X530750D01*
X510750D02*
Y974500D01*
X530750D01*
Y963500D02*
Y974500D01*
X55850Y657750D02*
X64850D01*
X55850Y649750D02*
Y657750D01*
Y627750D02*
X64850D01*
X55850D02*
Y635750D01*
X59200Y659250D02*
X79200D01*
X59200D02*
Y670250D01*
X79200D01*
Y659250D02*
Y670250D01*
X83500Y631750D02*
Y651750D01*
X94500D01*
Y631750D02*
Y651750D01*
X83500Y631750D02*
X94500D01*
X314250Y1051750D02*
X334250D01*
Y1040750D02*
Y1051750D01*
X314250Y1040750D02*
X334250D01*
X314250D02*
Y1051750D01*
Y1026500D02*
X334250D01*
Y1015500D02*
Y1026500D01*
X314250Y1015500D02*
X334250D01*
X314250D02*
Y1026500D01*
Y1001250D02*
X334250D01*
Y990250D02*
Y1001250D01*
X314250Y990250D02*
X334250D01*
X314250D02*
Y1001250D01*
X421750Y949500D02*
X441750D01*
X421750D02*
Y960500D01*
X441750D01*
Y949500D02*
Y960500D01*
X464250Y963500D02*
X484250D01*
X464250D02*
Y974500D01*
X484250D01*
Y963500D02*
Y974500D01*
X421750Y935375D02*
X441750D01*
X421750D02*
Y946375D01*
X441750D01*
Y935375D02*
Y946375D01*
X421750Y921250D02*
X441750D01*
X421750D02*
Y932250D01*
X441750D01*
Y921250D02*
Y932250D01*
X314250Y976000D02*
X334250D01*
Y965000D02*
Y976000D01*
X314250Y965000D02*
X334250D01*
X314250D02*
Y976000D01*
X181250Y1052500D02*
X201250D01*
Y1041500D02*
Y1052500D01*
X181250Y1041500D02*
X201250D01*
X181250D02*
Y1052500D01*
Y1027167D02*
X201250D01*
Y1016167D02*
Y1027167D01*
X181250Y1016167D02*
X201250D01*
X181250D02*
Y1027167D01*
Y1001833D02*
X201250D01*
Y990833D02*
Y1001833D01*
X181250Y990833D02*
X201250D01*
X181250D02*
Y1001833D01*
Y976500D02*
X201250D01*
Y965500D02*
Y976500D01*
X181250Y965500D02*
X201250D01*
X181250D02*
Y976500D01*
X125500Y848250D02*
Y859250D01*
X105500D02*
X125500D01*
X105500Y848250D02*
Y859250D01*
Y848250D02*
X125500D01*
X150450D02*
Y859250D01*
X130450D02*
X150450D01*
X130450Y848250D02*
Y859250D01*
Y848250D02*
X150450D01*
X175400D02*
Y859250D01*
X155400D02*
X175400D01*
X155400Y848250D02*
Y859250D01*
Y848250D02*
X175400D01*
X200350D02*
Y859250D01*
X180350D02*
X200350D01*
X180350Y848250D02*
Y859250D01*
Y848250D02*
X200350D01*
X225300D02*
Y859250D01*
X205300D02*
X225300D01*
X205300Y848250D02*
Y859250D01*
Y848250D02*
X225300D01*
X250250D02*
Y859250D01*
X230250D02*
X250250D01*
X230250Y848250D02*
Y859250D01*
Y848250D02*
X250250D01*
X69500Y790000D02*
Y810000D01*
X80500D01*
Y790000D02*
Y810000D01*
X69500Y790000D02*
X80500D01*
X83250D02*
Y810000D01*
X94250D01*
Y790000D02*
Y810000D01*
X83250Y790000D02*
X94250D01*
X97000Y790000D02*
Y810000D01*
X108000D01*
Y790000D02*
Y810000D01*
X97000Y790000D02*
X108000D01*
X125250Y764750D02*
X136250D01*
Y784750D01*
X125250D02*
X136250D01*
X125250Y764750D02*
Y784750D01*
X177125Y764000D02*
X188125D01*
Y784000D01*
X177125D02*
X188125D01*
X177125Y764000D02*
Y784000D01*
X224250Y764500D02*
X235250D01*
Y784500D01*
X224250D02*
X235250D01*
X224250Y764500D02*
Y784500D01*
X412875Y849250D02*
Y860250D01*
X392875D02*
X412875D01*
X392875Y849250D02*
Y860250D01*
Y849250D02*
X412875D01*
X435800D02*
Y860250D01*
X415800D02*
X435800D01*
X415800Y849250D02*
Y860250D01*
Y849250D02*
X435800D01*
X458725D02*
Y860250D01*
X438725D02*
X458725D01*
X438725Y849250D02*
Y860250D01*
Y849250D02*
X458725D01*
X481650D02*
Y860250D01*
X461650D02*
X481650D01*
X461650Y849250D02*
Y860250D01*
Y849250D02*
X481650D01*
X504575D02*
Y860250D01*
X484575D02*
X504575D01*
X484575Y849250D02*
Y860250D01*
Y849250D02*
X504575D01*
X527500D02*
Y860250D01*
X507500D02*
X527500D01*
X507500Y849250D02*
Y860250D01*
Y849250D02*
X527500D01*
X407000Y767250D02*
X418000D01*
Y787250D01*
X407000D02*
X418000D01*
X407000Y767250D02*
Y787250D01*
X449750Y765500D02*
X460750D01*
Y785500D01*
X449750D02*
X460750D01*
X449750Y765500D02*
Y785500D01*
X505500Y764750D02*
X516500D01*
Y784750D01*
X505500D02*
X516500D01*
X505500Y764750D02*
Y784750D01*
X523250Y670500D02*
X543250D01*
Y659500D02*
Y670500D01*
X523250Y659500D02*
X543250D01*
X523250D02*
Y670500D01*
X530750Y599500D02*
Y619500D01*
X541750D01*
Y599500D02*
Y619500D01*
X530750Y599500D02*
X541750D01*
X552750Y599500D02*
Y619500D01*
X541750Y599500D02*
X552750D01*
X541750D02*
Y619500D01*
X552750D01*
X542500Y657750D02*
X551500D01*
X542500Y649750D02*
Y657750D01*
Y627750D02*
X551500D01*
X542500D02*
Y635750D01*
X545850Y659250D02*
X565850D01*
X545850D02*
Y670250D01*
X565850D01*
Y659250D02*
Y670250D01*
X570000Y631500D02*
Y651500D01*
X581000D01*
Y631500D02*
Y651500D01*
X570000Y631500D02*
X581000D01*
X36000Y670500D02*
X56000D01*
Y659500D02*
Y670500D01*
X36000Y659500D02*
X56000D01*
X36000D02*
Y670500D01*
X46500Y599500D02*
Y619500D01*
X57500D01*
Y599500D02*
Y619500D01*
X46500Y599500D02*
X57500D01*
X71000Y599500D02*
Y619500D01*
X60000Y599500D02*
X71000D01*
X60000D02*
Y619500D01*
X71000D01*
X181750Y536250D02*
X192750D01*
Y556250D01*
X181750D02*
X192750D01*
X181750Y536250D02*
Y556250D01*
X197700Y536500D02*
X208700D01*
Y556500D01*
X197700D02*
X208700D01*
X197700Y536500D02*
Y556500D01*
X276750Y536250D02*
X287750D01*
Y556250D01*
X276750D02*
X287750D01*
X276750Y536250D02*
Y556250D01*
X292900Y536500D02*
X303900D01*
Y556500D01*
X292900D02*
X303900D01*
X292900Y536500D02*
Y556500D01*
X371750Y536250D02*
X382750D01*
Y556250D01*
X371750D02*
X382750D01*
X371750Y536250D02*
Y556250D01*
X388100Y536500D02*
X399100D01*
Y556500D01*
X388100D02*
X399100D01*
X388100Y536500D02*
Y556500D01*
X466750Y536250D02*
X477750D01*
Y556250D01*
X466750D02*
X477750D01*
X466750Y536250D02*
Y556250D01*
X483300Y536500D02*
X494300D01*
Y556500D01*
X483300D02*
X494300D01*
X483300Y536500D02*
Y556500D01*
X86750Y536250D02*
X97750D01*
Y556250D01*
X86750D02*
X97750D01*
X86750Y536250D02*
Y556250D01*
X102500Y536500D02*
X113500D01*
Y556500D01*
X102500D02*
X113500D01*
X102500Y536500D02*
Y556500D01*
X561750Y536250D02*
X572750D01*
Y556250D01*
X561750D02*
X572750D01*
X561750Y536250D02*
Y556250D01*
X578500Y536500D02*
X589500D01*
Y556500D01*
X578500D02*
X589500D01*
X578500Y536500D02*
Y556500D01*
X484250Y977000D02*
Y988000D01*
X464250D02*
X484250D01*
X464250Y977000D02*
Y988000D01*
Y977000D02*
X484250D01*
X328350Y659500D02*
Y670500D01*
Y659500D02*
X348350D01*
Y670500D01*
X328350D02*
X348350D01*
X425800Y659500D02*
Y670500D01*
Y659500D02*
X445800D01*
Y670500D01*
X425800D02*
X445800D01*
X447400Y619500D02*
X458400D01*
X447400Y599500D02*
Y619500D01*
Y599500D02*
X458400D01*
Y619500D01*
X176530Y659250D02*
Y670250D01*
X156530D02*
X176530D01*
X156530Y659250D02*
Y670250D01*
Y659250D02*
X176530D01*
X376250Y631750D02*
X387250D01*
Y651750D01*
X376250D02*
X387250D01*
X376250Y631750D02*
Y651750D01*
X156850Y619500D02*
X167850D01*
X156850Y599500D02*
Y619500D01*
Y599500D02*
X167850D01*
Y619500D01*
X350550D02*
X361550D01*
X350550Y599500D02*
Y619500D01*
Y599500D02*
X361550D01*
Y619500D01*
X143350Y599500D02*
X154350D01*
Y619500D01*
X143350D02*
X154350D01*
X143350Y599500D02*
Y619500D01*
X240200Y599500D02*
X251200D01*
Y619500D01*
X240200D02*
X251200D01*
X240200Y599500D02*
Y619500D01*
X433900Y599500D02*
X444900D01*
Y619500D01*
X433900D02*
X444900D01*
X433900Y599500D02*
Y619500D01*
X133450Y659500D02*
Y670500D01*
Y659500D02*
X153450D01*
Y670500D01*
X133450D02*
X153450D01*
X273860Y659250D02*
Y670250D01*
X253860D02*
X273860D01*
X253860Y659250D02*
Y670250D01*
Y659250D02*
X273860D01*
X371190D02*
Y670250D01*
X351190D02*
X371190D01*
X351190Y659250D02*
Y670250D01*
Y659250D02*
X371190D01*
X468520D02*
Y670250D01*
X448520D02*
X468520D01*
X448520Y659250D02*
Y670250D01*
Y659250D02*
X468520D01*
X182500Y632000D02*
X193500D01*
Y652000D01*
X182500D02*
X193500D01*
X182500Y632000D02*
Y652000D01*
X279500Y631750D02*
X290500D01*
Y651750D01*
X279500D02*
X290500D01*
X279500Y631750D02*
Y651750D01*
X475500Y631750D02*
X486500D01*
Y651750D01*
X475500D02*
X486500D01*
X475500Y631750D02*
Y651750D01*
X253700Y619500D02*
X264700D01*
X253700Y599500D02*
Y619500D01*
Y599500D02*
X264700D01*
Y619500D01*
X337050Y599500D02*
X348050D01*
Y619500D01*
X337050D02*
X348050D01*
X337050Y599500D02*
Y619500D01*
X230900Y659500D02*
Y670500D01*
Y659500D02*
X250900D01*
Y670500D01*
X230900D02*
X250900D01*
X347840Y627750D02*
Y635750D01*
Y627750D02*
X356840D01*
X347840Y649750D02*
Y657750D01*
X356840D01*
X153180Y627750D02*
Y635750D01*
Y627750D02*
X162180D01*
X153180Y649750D02*
Y657750D01*
X162180D01*
X445170Y627750D02*
Y635750D01*
Y627750D02*
X454170D01*
X445170Y649750D02*
Y657750D01*
X454170D01*
X250510Y627750D02*
Y635750D01*
Y627750D02*
X259510D01*
X250510Y649750D02*
Y657750D01*
X259510D01*
X260582Y751923D02*
X254751D01*
X253584Y753089D01*
Y755422D01*
X254751Y756588D01*
X260582D01*
X253584Y763586D02*
Y758921D01*
X258249Y763586D01*
X259416D01*
X260582Y762420D01*
Y760087D01*
X259416Y758921D01*
X252418Y765919D02*
Y770584D01*
X258249Y777581D02*
Y774083D01*
X257083Y772916D01*
X254751D01*
X253584Y774083D01*
Y777581D01*
X260582Y779914D02*
X253584D01*
X257083D01*
X258249Y781080D01*
Y783413D01*
X257083Y784579D01*
X253584D01*
X260582Y791577D02*
X259416Y789244D01*
X257083Y786912D01*
X254751D01*
X253584Y788078D01*
Y790411D01*
X254751Y791577D01*
X255917D01*
X257083Y790411D01*
Y786912D01*
X175832Y799673D02*
X170000D01*
X168834Y800839D01*
Y803172D01*
X170000Y804338D01*
X175832D01*
X168834Y811336D02*
Y806671D01*
X173499Y811336D01*
X174666D01*
X175832Y810170D01*
Y807837D01*
X174666Y806671D01*
X167668Y813669D02*
Y818334D01*
X173499Y825331D02*
Y821833D01*
X172333Y820666D01*
X170000D01*
X168834Y821833D01*
Y825331D01*
X175832Y827664D02*
X168834D01*
X172333D01*
X173499Y828830D01*
Y831163D01*
X172333Y832329D01*
X168834D01*
X175832Y839327D02*
Y834662D01*
X172333D01*
X173499Y836994D01*
Y838161D01*
X172333Y839327D01*
X170000D01*
X168834Y838161D01*
Y835828D01*
X170000Y834662D01*
X123832Y802423D02*
X118001D01*
X116834Y803589D01*
Y805922D01*
X118001Y807088D01*
X123832D01*
X116834Y814086D02*
Y809421D01*
X121500Y814086D01*
X122666D01*
X123832Y812920D01*
Y810587D01*
X122666Y809421D01*
X115668Y816419D02*
Y821084D01*
X121500Y828082D02*
Y824583D01*
X120333Y823416D01*
X118001D01*
X116834Y824583D01*
Y828082D01*
X123832Y830414D02*
X116834D01*
X120333D01*
X121500Y831580D01*
Y833913D01*
X120333Y835079D01*
X116834D01*
Y840911D02*
X123832D01*
X120333Y837412D01*
Y842077D01*
X498332Y800673D02*
X492501D01*
X491334Y801839D01*
Y804172D01*
X492501Y805338D01*
X498332D01*
X491334Y812336D02*
Y807671D01*
X495999Y812336D01*
X497166D01*
X498332Y811170D01*
Y808837D01*
X497166Y807671D01*
X490168Y814669D02*
Y819334D01*
X495999Y826331D02*
Y822833D01*
X494833Y821666D01*
X492501D01*
X491334Y822833D01*
Y826331D01*
X498332Y828664D02*
X491334D01*
X494833D01*
X495999Y829830D01*
Y832163D01*
X494833Y833329D01*
X491334D01*
X497166Y835662D02*
X498332Y836828D01*
Y839161D01*
X497166Y840327D01*
X495999D01*
X494833Y839161D01*
Y837994D01*
Y839161D01*
X493667Y840327D01*
X492501D01*
X491334Y839161D01*
Y836828D01*
X492501Y835662D01*
X445832Y801923D02*
X440001D01*
X438834Y803089D01*
Y805422D01*
X440001Y806588D01*
X445832D01*
X438834Y813586D02*
Y808921D01*
X443499Y813586D01*
X444666D01*
X445832Y812420D01*
Y810087D01*
X444666Y808921D01*
X437668Y815919D02*
Y820584D01*
X443499Y827581D02*
Y824083D01*
X442333Y822916D01*
X440001D01*
X438834Y824083D01*
Y827581D01*
X445832Y829914D02*
X438834D01*
X442333D01*
X443499Y831080D01*
Y833413D01*
X442333Y834579D01*
X438834D01*
Y841577D02*
Y836912D01*
X443499Y841577D01*
X444666D01*
X445832Y840411D01*
Y838078D01*
X444666Y836912D01*
X398332Y802839D02*
X392501D01*
X391334Y804006D01*
Y806338D01*
X392501Y807505D01*
X398332D01*
X391334Y814502D02*
Y809837D01*
X395999Y814502D01*
X397166D01*
X398332Y813336D01*
Y811003D01*
X397166Y809837D01*
X390168Y816835D02*
Y821500D01*
X395999Y828498D02*
Y824999D01*
X394833Y823832D01*
X392501D01*
X391334Y824999D01*
Y828498D01*
X398332Y830830D02*
X391334D01*
X394833D01*
X395999Y831997D01*
Y834329D01*
X394833Y835496D01*
X391334D01*
Y837828D02*
Y840161D01*
Y838994D01*
X398332D01*
X397166Y837828D01*
X212834Y864257D02*
X219832D01*
Y867756D01*
X218666Y868923D01*
X216333D01*
X215167Y867756D01*
Y864257D01*
Y866590D02*
X212834Y868923D01*
Y871255D02*
Y873588D01*
Y872421D01*
X219832D01*
X218666Y871255D01*
X219832Y877086D02*
Y881752D01*
X218666D01*
X214001Y877086D01*
X212834D01*
X211668Y884084D02*
Y888749D01*
X217499Y895747D02*
Y892248D01*
X216333Y891082D01*
X214001D01*
X212834Y892248D01*
Y895747D01*
X219832Y898080D02*
X212834D01*
X216333D01*
X217499Y899246D01*
Y901579D01*
X216333Y902745D01*
X212834D01*
X219832Y909743D02*
X218666Y907410D01*
X216333Y905078D01*
X214001D01*
X212834Y906244D01*
Y908576D01*
X214001Y909743D01*
X215167D01*
X216333Y908576D01*
Y905078D01*
X145334Y865007D02*
X152332D01*
Y868506D01*
X151166Y869672D01*
X148833D01*
X147667Y868506D01*
Y865007D01*
Y867340D02*
X145334Y869672D01*
Y872005D02*
Y874338D01*
Y873171D01*
X152332D01*
X151166Y872005D01*
X152332Y877837D02*
Y882502D01*
X151166D01*
X146501Y877837D01*
X145334D01*
X144168Y884834D02*
Y889499D01*
X149999Y896497D02*
Y892998D01*
X148833Y891832D01*
X146501D01*
X145334Y892998D01*
Y896497D01*
X152332Y898830D02*
X145334D01*
X148833D01*
X149999Y899996D01*
Y902329D01*
X148833Y903495D01*
X145334D01*
X152332Y910493D02*
Y905827D01*
X148833D01*
X149999Y908160D01*
Y909326D01*
X148833Y910493D01*
X146501D01*
X145334Y909326D01*
Y906994D01*
X146501Y905827D01*
X96743Y849584D02*
Y856582D01*
X93244D01*
X92078Y855416D01*
Y853083D01*
X93244Y851917D01*
X96743D01*
X94410D02*
X92078Y849584D01*
X89745D02*
X87412D01*
X88579D01*
Y856582D01*
X89745Y855416D01*
X83913Y856582D02*
X79248D01*
Y855416D01*
X83913Y850751D01*
Y849584D01*
X76916Y848418D02*
X72251D01*
X65253Y854249D02*
X68752D01*
X69918Y853083D01*
Y850751D01*
X68752Y849584D01*
X65253D01*
X62920Y856582D02*
Y849584D01*
Y853083D01*
X61754Y854249D01*
X59421D01*
X58255Y853083D01*
Y849584D01*
X52424D02*
Y856582D01*
X55922Y853083D01*
X51257D01*
X489334Y867757D02*
X496332D01*
Y871256D01*
X495166Y872422D01*
X492833D01*
X491667Y871256D01*
Y867757D01*
Y870090D02*
X489334Y872422D01*
Y874755D02*
Y877088D01*
Y875921D01*
X496332D01*
X495166Y874755D01*
X496332Y880586D02*
Y885252D01*
X495166D01*
X490501Y880586D01*
X489334D01*
X488168Y887584D02*
Y892249D01*
X493999Y899247D02*
Y895748D01*
X492833Y894582D01*
X490501D01*
X489334Y895748D01*
Y899247D01*
X496332Y901580D02*
X489334D01*
X492833D01*
X493999Y902746D01*
Y905079D01*
X492833Y906245D01*
X489334D01*
X495166Y908577D02*
X496332Y909744D01*
Y912076D01*
X495166Y913243D01*
X493999D01*
X492833Y912076D01*
Y910910D01*
Y912076D01*
X491667Y913243D01*
X490501D01*
X489334Y912076D01*
Y909744D01*
X490501Y908577D01*
X444084Y865007D02*
X451082D01*
Y868506D01*
X449916Y869672D01*
X447583D01*
X446417Y868506D01*
Y865007D01*
Y867340D02*
X444084Y869672D01*
Y872005D02*
Y874338D01*
Y873171D01*
X451082D01*
X449916Y872005D01*
X451082Y877837D02*
Y882502D01*
X449916D01*
X445251Y877837D01*
X444084D01*
X442918Y884834D02*
Y889499D01*
X448749Y896497D02*
Y892998D01*
X447583Y891832D01*
X445251D01*
X444084Y892998D01*
Y896497D01*
X451082Y898830D02*
X444084D01*
X447583D01*
X448749Y899996D01*
Y902329D01*
X447583Y903495D01*
X444084D01*
Y910493D02*
Y905827D01*
X448749Y910493D01*
X449916D01*
X451082Y909326D01*
Y906994D01*
X449916Y905827D01*
X391834Y865424D02*
X398832D01*
Y868923D01*
X397666Y870089D01*
X395333D01*
X394167Y868923D01*
Y865424D01*
Y867756D02*
X391834Y870089D01*
Y872421D02*
Y874754D01*
Y873588D01*
X398832D01*
X397666Y872421D01*
X398832Y878253D02*
Y882918D01*
X397666D01*
X393001Y878253D01*
X391834D01*
X390668Y885251D02*
Y889916D01*
X396499Y896914D02*
Y893415D01*
X395333Y892248D01*
X393001D01*
X391834Y893415D01*
Y896914D01*
X398832Y899246D02*
X391834D01*
X395333D01*
X396499Y900412D01*
Y902745D01*
X395333Y903911D01*
X391834D01*
Y906244D02*
Y908576D01*
Y907410D01*
X398832D01*
X397666Y906244D01*
X256084Y851507D02*
X263082D01*
Y855006D01*
X261916Y856172D01*
X259583D01*
X258417Y855006D01*
Y851507D01*
Y853840D02*
X256084Y856172D01*
Y858505D02*
Y860838D01*
Y859671D01*
X263082D01*
X261916Y858505D01*
X263082Y869002D02*
X261916Y866669D01*
X259583Y864336D01*
X257251D01*
X256084Y865503D01*
Y867835D01*
X257251Y869002D01*
X258417D01*
X259583Y867835D01*
Y864336D01*
X254918Y871334D02*
Y875999D01*
X260749Y882997D02*
Y879498D01*
X259583Y878332D01*
X257251D01*
X256084Y879498D01*
Y882997D01*
X263082Y885330D02*
X256084D01*
X259583D01*
X260749Y886496D01*
Y888829D01*
X259583Y889995D01*
X256084D01*
X263082Y896993D02*
X261916Y894660D01*
X259583Y892327D01*
X257251D01*
X256084Y893494D01*
Y895826D01*
X257251Y896993D01*
X258417D01*
X259583Y895826D01*
Y892327D01*
X170834Y864507D02*
X177832D01*
Y868006D01*
X176666Y869173D01*
X174333D01*
X173167Y868006D01*
Y864507D01*
Y866840D02*
X170834Y869173D01*
Y871505D02*
Y873838D01*
Y872671D01*
X177832D01*
X176666Y871505D01*
X177832Y882002D02*
X176666Y879669D01*
X174333Y877337D01*
X172001D01*
X170834Y878503D01*
Y880835D01*
X172001Y882002D01*
X173167D01*
X174333Y880835D01*
Y877337D01*
X169668Y884334D02*
Y888999D01*
X175499Y895997D02*
Y892498D01*
X174333Y891332D01*
X172001D01*
X170834Y892498D01*
Y895997D01*
X177832Y898330D02*
X170834D01*
X174333D01*
X175499Y899496D01*
Y901829D01*
X174333Y902995D01*
X170834D01*
X177832Y909993D02*
Y905328D01*
X174333D01*
X175499Y907660D01*
Y908826D01*
X174333Y909993D01*
X172001D01*
X170834Y908826D01*
Y906494D01*
X172001Y905328D01*
X131334Y865257D02*
X138332D01*
Y868756D01*
X137166Y869922D01*
X134833D01*
X133667Y868756D01*
Y865257D01*
Y867590D02*
X131334Y869922D01*
Y872255D02*
Y874588D01*
Y873421D01*
X138332D01*
X137166Y872255D01*
X138332Y882752D02*
X137166Y880419D01*
X134833Y878086D01*
X132501D01*
X131334Y879253D01*
Y881585D01*
X132501Y882752D01*
X133667D01*
X134833Y881585D01*
Y878086D01*
X130168Y885084D02*
Y889750D01*
X135999Y896747D02*
Y893248D01*
X134833Y892082D01*
X132501D01*
X131334Y893248D01*
Y896747D01*
X138332Y899080D02*
X131334D01*
X134833D01*
X135999Y900246D01*
Y902579D01*
X134833Y903745D01*
X131334D01*
Y909576D02*
X138332D01*
X134833Y906077D01*
Y910743D01*
X516584Y868257D02*
X523582D01*
Y871756D01*
X522416Y872923D01*
X520083D01*
X518917Y871756D01*
Y868257D01*
Y870590D02*
X516584Y872923D01*
Y875255D02*
Y877588D01*
Y876421D01*
X523582D01*
X522416Y875255D01*
X523582Y885752D02*
X522416Y883419D01*
X520083Y881087D01*
X517751D01*
X516584Y882253D01*
Y884585D01*
X517751Y885752D01*
X518917D01*
X520083Y884585D01*
Y881087D01*
X515418Y888084D02*
Y892749D01*
X521250Y899747D02*
Y896248D01*
X520083Y895082D01*
X517751D01*
X516584Y896248D01*
Y899747D01*
X523582Y902080D02*
X516584D01*
X520083D01*
X521250Y903246D01*
Y905579D01*
X520083Y906745D01*
X516584D01*
X522416Y909078D02*
X523582Y910244D01*
Y912576D01*
X522416Y913743D01*
X521250D01*
X520083Y912576D01*
Y911410D01*
Y912576D01*
X518917Y913743D01*
X517751D01*
X516584Y912576D01*
Y910244D01*
X517751Y909078D01*
X466584Y867257D02*
X473582D01*
Y870756D01*
X472416Y871923D01*
X470083D01*
X468917Y870756D01*
Y867257D01*
Y869590D02*
X466584Y871923D01*
Y874255D02*
Y876588D01*
Y875421D01*
X473582D01*
X472416Y874255D01*
X473582Y884752D02*
X472416Y882419D01*
X470083Y880087D01*
X467751D01*
X466584Y881253D01*
Y883585D01*
X467751Y884752D01*
X468917D01*
X470083Y883585D01*
Y880087D01*
X465418Y887084D02*
Y891749D01*
X471250Y898747D02*
Y895248D01*
X470083Y894082D01*
X467751D01*
X466584Y895248D01*
Y898747D01*
X473582Y901080D02*
X466584D01*
X470083D01*
X471250Y902246D01*
Y904579D01*
X470083Y905745D01*
X466584D01*
Y912743D02*
Y908077D01*
X471250Y912743D01*
X472416D01*
X473582Y911576D01*
Y909244D01*
X472416Y908077D01*
X421334Y865924D02*
X428332D01*
Y869423D01*
X427166Y870589D01*
X424833D01*
X423667Y869423D01*
Y865924D01*
Y868256D02*
X421334Y870589D01*
Y872921D02*
Y875254D01*
Y874088D01*
X428332D01*
X427166Y872921D01*
X428332Y883418D02*
X427166Y881085D01*
X424833Y878753D01*
X422501D01*
X421334Y879919D01*
Y882252D01*
X422501Y883418D01*
X423667D01*
X424833Y882252D01*
Y878753D01*
X420168Y885751D02*
Y890416D01*
X425999Y897413D02*
Y893915D01*
X424833Y892748D01*
X422501D01*
X421334Y893915D01*
Y897413D01*
X428332Y899746D02*
X421334D01*
X424833D01*
X425999Y900912D01*
Y903245D01*
X424833Y904411D01*
X421334D01*
Y906744D02*
Y909076D01*
Y907910D01*
X428332D01*
X427166Y906744D01*
X212334Y745757D02*
X219332D01*
Y749256D01*
X218166Y750423D01*
X215833D01*
X214667Y749256D01*
Y745757D01*
Y748090D02*
X212334Y750423D01*
Y752755D02*
Y755088D01*
Y753921D01*
X219332D01*
X218166Y752755D01*
X212334Y762085D02*
X219332D01*
X215833Y758587D01*
Y763252D01*
X211168Y765584D02*
Y770249D01*
X216999Y777247D02*
Y773748D01*
X215833Y772582D01*
X213501D01*
X212334Y773748D01*
Y777247D01*
X219332Y779580D02*
X212334D01*
X215833D01*
X216999Y780746D01*
Y783079D01*
X215833Y784245D01*
X212334D01*
X219332Y791243D02*
X218166Y788910D01*
X215833Y786578D01*
X213501D01*
X212334Y787744D01*
Y790076D01*
X213501Y791243D01*
X214667D01*
X215833Y790076D01*
Y786578D01*
X164584Y746007D02*
X171582D01*
Y749506D01*
X170416Y750673D01*
X168083D01*
X166917Y749506D01*
Y746007D01*
Y748340D02*
X164584Y750673D01*
Y753005D02*
Y755338D01*
Y754171D01*
X171582D01*
X170416Y753005D01*
X164584Y762335D02*
X171582D01*
X168083Y758837D01*
Y763502D01*
X163418Y765834D02*
Y770499D01*
X169249Y777497D02*
Y773998D01*
X168083Y772832D01*
X165751D01*
X164584Y773998D01*
Y777497D01*
X171582Y779830D02*
X164584D01*
X168083D01*
X169249Y780996D01*
Y783329D01*
X168083Y784495D01*
X164584D01*
X171582Y791493D02*
Y786827D01*
X168083D01*
X169249Y789160D01*
Y790326D01*
X168083Y791493D01*
X165751D01*
X164584Y790326D01*
Y787994D01*
X165751Y786827D01*
X113334Y748257D02*
X120332D01*
Y751756D01*
X119166Y752923D01*
X116833D01*
X115667Y751756D01*
Y748257D01*
Y750590D02*
X113334Y752923D01*
Y755255D02*
Y757588D01*
Y756421D01*
X120332D01*
X119166Y755255D01*
X113334Y764585D02*
X120332D01*
X116833Y761087D01*
Y765752D01*
X112168Y768084D02*
Y772749D01*
X117999Y779747D02*
Y776248D01*
X116833Y775082D01*
X114501D01*
X113334Y776248D01*
Y779747D01*
X120332Y782080D02*
X113334D01*
X116833D01*
X117999Y783246D01*
Y785579D01*
X116833Y786745D01*
X113334D01*
Y792576D02*
X120332D01*
X116833Y789078D01*
Y793743D01*
X493834Y743007D02*
X500832D01*
Y746506D01*
X499666Y747673D01*
X497333D01*
X496167Y746506D01*
Y743007D01*
Y745340D02*
X493834Y747673D01*
Y750005D02*
Y752338D01*
Y751171D01*
X500832D01*
X499666Y750005D01*
X493834Y759335D02*
X500832D01*
X497333Y755836D01*
Y760502D01*
X492668Y762834D02*
Y767499D01*
X498499Y774497D02*
Y770998D01*
X497333Y769832D01*
X495001D01*
X493834Y770998D01*
Y774497D01*
X500832Y776830D02*
X493834D01*
X497333D01*
X498499Y777996D01*
Y780329D01*
X497333Y781495D01*
X493834D01*
X499666Y783828D02*
X500832Y784994D01*
Y787326D01*
X499666Y788493D01*
X498499D01*
X497333Y787326D01*
Y786160D01*
Y787326D01*
X496167Y788493D01*
X495001D01*
X493834Y787326D01*
Y784994D01*
X495001Y783828D01*
X437834Y740007D02*
X444832D01*
Y743506D01*
X443666Y744672D01*
X441333D01*
X440167Y743506D01*
Y740007D01*
Y742340D02*
X437834Y744672D01*
Y747005D02*
Y749338D01*
Y748171D01*
X444832D01*
X443666Y747005D01*
X437834Y756335D02*
X444832D01*
X441333Y752837D01*
Y757502D01*
X436668Y759834D02*
Y764499D01*
X442499Y771497D02*
Y767998D01*
X441333Y766832D01*
X439001D01*
X437834Y767998D01*
Y771497D01*
X444832Y773830D02*
X437834D01*
X441333D01*
X442499Y774996D01*
Y777329D01*
X441333Y778495D01*
X437834D01*
Y785493D02*
Y780827D01*
X442499Y785493D01*
X443666D01*
X444832Y784326D01*
Y781994D01*
X443666Y780827D01*
X395334Y745424D02*
X402332D01*
Y748923D01*
X401166Y750089D01*
X398833D01*
X397667Y748923D01*
Y745424D01*
Y747756D02*
X395334Y750089D01*
Y752421D02*
Y754754D01*
Y753588D01*
X402332D01*
X401166Y752421D01*
X395334Y761752D02*
X402332D01*
X398833Y758253D01*
Y762918D01*
X394168Y765251D02*
Y769916D01*
X400000Y776914D02*
Y773415D01*
X398833Y772248D01*
X396501D01*
X395334Y773415D01*
Y776914D01*
X402332Y779246D02*
X395334D01*
X398833D01*
X400000Y780412D01*
Y782745D01*
X398833Y783911D01*
X395334D01*
Y786244D02*
Y788576D01*
Y787410D01*
X402332D01*
X401166Y786244D01*
X504294Y241121D02*
Y234123D01*
X507793D01*
X508959Y235289D01*
Y237622D01*
X507793Y238788D01*
X504294D01*
X506627D02*
X508959Y241121D01*
X511292Y239955D02*
X512458Y241121D01*
X514790D01*
X515957Y239955D01*
Y235289D01*
X514790Y234123D01*
X512458D01*
X511292Y235289D01*
Y236456D01*
X512458Y237622D01*
X515957D01*
X518289Y242287D02*
X522955D01*
X529952Y236456D02*
X526453D01*
X525287Y237622D01*
Y239955D01*
X526453Y241121D01*
X529952D01*
X532285Y234123D02*
Y241121D01*
Y237622D01*
X533451Y236456D01*
X535784D01*
X536950Y237622D01*
Y241121D01*
X539283D02*
X541615D01*
X540449D01*
Y234123D01*
X539283Y235289D01*
X504294Y263871D02*
Y256873D01*
X507793D01*
X508959Y258039D01*
Y260372D01*
X507793Y261538D01*
X504294D01*
X506627D02*
X508959Y263871D01*
X511292Y258039D02*
X512458Y256873D01*
X514790D01*
X515957Y258039D01*
Y259206D01*
X514790Y260372D01*
X515957Y261538D01*
Y262705D01*
X514790Y263871D01*
X512458D01*
X511292Y262705D01*
Y261538D01*
X512458Y260372D01*
X511292Y259206D01*
Y258039D01*
X512458Y260372D02*
X514790D01*
X518289Y265037D02*
X522955D01*
X529952Y259206D02*
X526453D01*
X525287Y260372D01*
Y262705D01*
X526453Y263871D01*
X529952D01*
X532285Y256873D02*
Y263871D01*
Y260372D01*
X533451Y259206D01*
X535784D01*
X536950Y260372D01*
Y263871D01*
X539283D02*
X541615D01*
X540449D01*
Y256873D01*
X539283Y258039D01*
X504294Y286621D02*
Y279623D01*
X507793D01*
X508959Y280790D01*
Y283122D01*
X507793Y284288D01*
X504294D01*
X506627D02*
X508959Y286621D01*
X511292Y279623D02*
X515957D01*
Y280790D01*
X511292Y285455D01*
Y286621D01*
X518289Y287787D02*
X522955D01*
X529952Y281956D02*
X526453D01*
X525287Y283122D01*
Y285455D01*
X526453Y286621D01*
X529952D01*
X532285Y279623D02*
Y286621D01*
Y283122D01*
X533451Y281956D01*
X535784D01*
X536950Y283122D01*
Y286621D01*
X539283D02*
X541615D01*
X540449D01*
Y279623D01*
X539283Y280790D01*
X504294Y309371D02*
Y302373D01*
X507793D01*
X508959Y303540D01*
Y305872D01*
X507793Y307038D01*
X504294D01*
X506627D02*
X508959Y309371D01*
X515957Y302373D02*
X513624Y303540D01*
X511292Y305872D01*
Y308205D01*
X512458Y309371D01*
X514790D01*
X515957Y308205D01*
Y307038D01*
X514790Y305872D01*
X511292D01*
X518289Y310537D02*
X522955D01*
X529952Y304706D02*
X526453D01*
X525287Y305872D01*
Y308205D01*
X526453Y309371D01*
X529952D01*
X532285Y302373D02*
Y309371D01*
Y305872D01*
X533451Y304706D01*
X535784D01*
X536950Y305872D01*
Y309371D01*
X539283D02*
X541615D01*
X540449D01*
Y302373D01*
X539283Y303540D01*
X503839Y330416D02*
Y323418D01*
X507338D01*
X508504Y324584D01*
Y326917D01*
X507338Y328083D01*
X503839D01*
X506172D02*
X508504Y330416D01*
X515502Y323418D02*
X510837D01*
Y326917D01*
X513170Y325751D01*
X514336D01*
X515502Y326917D01*
Y329249D01*
X514336Y330416D01*
X512003D01*
X510837Y329249D01*
X517835Y331582D02*
X522500D01*
X529498Y325751D02*
X525999D01*
X524832Y326917D01*
Y329249D01*
X525999Y330416D01*
X529498D01*
X531830Y323418D02*
Y330416D01*
Y326917D01*
X532997Y325751D01*
X535329D01*
X536495Y326917D01*
Y330416D01*
X538828D02*
X541161D01*
X539994D01*
Y323418D01*
X538828Y324584D01*
X106834Y490423D02*
X113832D01*
Y493922D01*
X112666Y495088D01*
X110333D01*
X109167Y493922D01*
Y490423D01*
Y492756D02*
X106834Y495088D01*
Y500920D02*
X113832D01*
X110333Y497421D01*
Y502086D01*
X105668Y504418D02*
Y509084D01*
X111499Y516081D02*
Y512583D01*
X110333Y511416D01*
X108000D01*
X106834Y512583D01*
Y516081D01*
X113832Y518414D02*
X106834D01*
X110333D01*
X111499Y519580D01*
Y521913D01*
X110333Y523079D01*
X106834D01*
X113832Y530077D02*
X112666Y527744D01*
X110333Y525412D01*
X108000D01*
X106834Y526578D01*
Y528911D01*
X108000Y530077D01*
X109167D01*
X110333Y528911D01*
Y525412D01*
X217334Y530173D02*
X224332D01*
Y533672D01*
X223166Y534838D01*
X220833D01*
X219667Y533672D01*
Y530173D01*
Y532506D02*
X217334Y534838D01*
Y540670D02*
X224332D01*
X220833Y537171D01*
Y541836D01*
X216168Y544169D02*
Y548834D01*
X221999Y555831D02*
Y552333D01*
X220833Y551166D01*
X218501D01*
X217334Y552333D01*
Y555831D01*
X224332Y558164D02*
X217334D01*
X220833D01*
X221999Y559330D01*
Y561663D01*
X220833Y562829D01*
X217334D01*
X224332Y569827D02*
Y565162D01*
X220833D01*
X221999Y567494D01*
Y568661D01*
X220833Y569827D01*
X218501D01*
X217334Y568661D01*
Y566328D01*
X218501Y565162D01*
X311834Y529923D02*
X318832D01*
Y533422D01*
X317666Y534588D01*
X315333D01*
X314167Y533422D01*
Y529923D01*
Y532256D02*
X311834Y534588D01*
Y540420D02*
X318832D01*
X315333Y536921D01*
Y541586D01*
X310668Y543918D02*
Y548584D01*
X316499Y555581D02*
Y552082D01*
X315333Y550916D01*
X313001D01*
X311834Y552082D01*
Y555581D01*
X318832Y557914D02*
X311834D01*
X315333D01*
X316499Y559080D01*
Y561413D01*
X315333Y562579D01*
X311834D01*
Y568411D02*
X318832D01*
X315333Y564912D01*
Y569577D01*
X406834Y530673D02*
X413832D01*
Y534172D01*
X412666Y535338D01*
X410333D01*
X409167Y534172D01*
Y530673D01*
Y533006D02*
X406834Y535338D01*
Y541170D02*
X413832D01*
X410333Y537671D01*
Y542336D01*
X405668Y544669D02*
Y549334D01*
X411499Y556331D02*
Y552833D01*
X410333Y551666D01*
X408001D01*
X406834Y552833D01*
Y556331D01*
X413832Y558664D02*
X406834D01*
X410333D01*
X411499Y559830D01*
Y562163D01*
X410333Y563329D01*
X406834D01*
X412666Y565662D02*
X413832Y566828D01*
Y569161D01*
X412666Y570327D01*
X411499D01*
X410333Y569161D01*
Y567994D01*
Y569161D01*
X409167Y570327D01*
X408001D01*
X406834Y569161D01*
Y566828D01*
X408001Y565662D01*
X500584Y528923D02*
X507582D01*
Y532422D01*
X506416Y533588D01*
X504083D01*
X502917Y532422D01*
Y528923D01*
Y531256D02*
X500584Y533588D01*
Y539420D02*
X507582D01*
X504083Y535921D01*
Y540586D01*
X499418Y542919D02*
Y547584D01*
X505249Y554581D02*
Y551082D01*
X504083Y549916D01*
X501751D01*
X500584Y551082D01*
Y554581D01*
X507582Y556914D02*
X500584D01*
X504083D01*
X505249Y558080D01*
Y560413D01*
X504083Y561579D01*
X500584D01*
Y568577D02*
Y563912D01*
X505249Y568577D01*
X506416D01*
X507582Y567411D01*
Y565078D01*
X506416Y563912D01*
X583584Y493089D02*
X590582D01*
Y496588D01*
X589416Y497755D01*
X587083D01*
X585917Y496588D01*
Y493089D01*
Y495422D02*
X583584Y497755D01*
Y503586D02*
X590582D01*
X587083Y500087D01*
Y504752D01*
X582418Y507085D02*
Y511750D01*
X588249Y518748D02*
Y515249D01*
X587083Y514083D01*
X584751D01*
X583584Y515249D01*
Y518748D01*
X590582Y521080D02*
X583584D01*
X587083D01*
X588249Y522247D01*
Y524579D01*
X587083Y525746D01*
X583584D01*
Y528078D02*
Y530411D01*
Y529244D01*
X590582D01*
X589416Y528078D01*
X89084Y491256D02*
X96082D01*
Y494755D01*
X94916Y495921D01*
X92583D01*
X91417Y494755D01*
Y491256D01*
Y493589D02*
X89084Y495921D01*
Y498254D02*
Y500587D01*
Y499420D01*
X96082D01*
X94916Y498254D01*
X87918Y504085D02*
Y508751D01*
X93749Y515748D02*
Y512249D01*
X92583Y511083D01*
X90251D01*
X89084Y512249D01*
Y515748D01*
X96082Y518081D02*
X89084D01*
X92583D01*
X93749Y519247D01*
Y521580D01*
X92583Y522746D01*
X89084D01*
X96082Y529744D02*
X94916Y527411D01*
X92583Y525079D01*
X90251D01*
X89084Y526245D01*
Y528577D01*
X90251Y529744D01*
X91417D01*
X92583Y528577D01*
Y525079D01*
X167584Y529256D02*
X174582D01*
Y532755D01*
X173416Y533921D01*
X171083D01*
X169917Y532755D01*
Y529256D01*
Y531589D02*
X167584Y533921D01*
Y536254D02*
Y538587D01*
Y537420D01*
X174582D01*
X173416Y536254D01*
X166418Y542085D02*
Y546751D01*
X172249Y553748D02*
Y550249D01*
X171083Y549083D01*
X168751D01*
X167584Y550249D01*
Y553748D01*
X174582Y556081D02*
X167584D01*
X171083D01*
X172249Y557247D01*
Y559580D01*
X171083Y560746D01*
X167584D01*
X174582Y567744D02*
Y563079D01*
X171083D01*
X172249Y565411D01*
Y566577D01*
X171083Y567744D01*
X168751D01*
X167584Y566577D01*
Y564245D01*
X168751Y563079D01*
X261334Y530006D02*
X268332D01*
Y533505D01*
X267166Y534671D01*
X264833D01*
X263667Y533505D01*
Y530006D01*
Y532339D02*
X261334Y534671D01*
Y537004D02*
Y539337D01*
Y538170D01*
X268332D01*
X267166Y537004D01*
X260168Y542835D02*
Y547501D01*
X265999Y554498D02*
Y550999D01*
X264833Y549833D01*
X262501D01*
X261334Y550999D01*
Y554498D01*
X268332Y556831D02*
X261334D01*
X264833D01*
X265999Y557997D01*
Y560330D01*
X264833Y561496D01*
X261334D01*
Y567327D02*
X268332D01*
X264833Y563829D01*
Y568494D01*
X357834Y529756D02*
X364832D01*
Y533255D01*
X363666Y534421D01*
X361333D01*
X360167Y533255D01*
Y529756D01*
Y532089D02*
X357834Y534421D01*
Y536754D02*
Y539086D01*
Y537920D01*
X364832D01*
X363666Y536754D01*
X356668Y542585D02*
Y547251D01*
X362500Y554248D02*
Y550749D01*
X361333Y549583D01*
X359001D01*
X357834Y550749D01*
Y554248D01*
X364832Y556581D02*
X357834D01*
X361333D01*
X362500Y557747D01*
Y560080D01*
X361333Y561246D01*
X357834D01*
X363666Y563579D02*
X364832Y564745D01*
Y567077D01*
X363666Y568244D01*
X362500D01*
X361333Y567077D01*
Y565911D01*
Y567077D01*
X360167Y568244D01*
X359001D01*
X357834Y567077D01*
Y564745D01*
X359001Y563579D01*
X453334Y529006D02*
X460332D01*
Y532505D01*
X459166Y533671D01*
X456833D01*
X455667Y532505D01*
Y529006D01*
Y531339D02*
X453334Y533671D01*
Y536004D02*
Y538336D01*
Y537170D01*
X460332D01*
X459166Y536004D01*
X452168Y541835D02*
Y546501D01*
X457999Y553498D02*
Y549999D01*
X456833Y548833D01*
X454501D01*
X453334Y549999D01*
Y553498D01*
X460332Y555831D02*
X453334D01*
X456833D01*
X457999Y556997D01*
Y559330D01*
X456833Y560496D01*
X453334D01*
Y567494D02*
Y562829D01*
X457999Y567494D01*
X459166D01*
X460332Y566328D01*
Y563995D01*
X459166Y562829D01*
X564334Y493923D02*
X571332D01*
Y497421D01*
X570166Y498588D01*
X567833D01*
X566667Y497421D01*
Y493923D01*
Y496255D02*
X564334Y498588D01*
Y500920D02*
Y503253D01*
Y502086D01*
X571332D01*
X570166Y500920D01*
X563168Y506752D02*
Y511417D01*
X568999Y518415D02*
Y514916D01*
X567833Y513749D01*
X565501D01*
X564334Y514916D01*
Y518415D01*
X571332Y520747D02*
X564334D01*
X567833D01*
X568999Y521913D01*
Y524246D01*
X567833Y525412D01*
X564334D01*
Y527745D02*
Y530078D01*
Y528911D01*
X571332D01*
X570166Y527745D01*
X513418Y654826D02*
X518083D01*
X520416Y652494D01*
X518083Y650161D01*
X513418D01*
Y647829D02*
Y643164D01*
Y645496D01*
X520416D01*
Y640831D02*
Y638498D01*
Y639665D01*
X513418D01*
X514584Y640831D01*
X521582Y634999D02*
Y630334D01*
X515751Y623336D02*
Y626835D01*
X516917Y628002D01*
X519249D01*
X520416Y626835D01*
Y623336D01*
X513418Y621004D02*
X520416D01*
X516917D01*
X515751Y619838D01*
Y617505D01*
X516917Y616339D01*
X520416D01*
Y614006D02*
Y611674D01*
Y612840D01*
X513418D01*
X514584Y614006D01*
X33168Y653993D02*
X37833D01*
X40166Y651660D01*
X37833Y649327D01*
X33168D01*
Y646995D02*
Y642330D01*
Y644662D01*
X40166D01*
Y639997D02*
Y637665D01*
Y638831D01*
X33168D01*
X34334Y639997D01*
X41332Y634166D02*
Y629501D01*
X35501Y622503D02*
Y626002D01*
X36667Y627168D01*
X38999D01*
X40166Y626002D01*
Y622503D01*
X33168Y620170D02*
X40166D01*
X36667D01*
X35501Y619004D01*
Y616671D01*
X36667Y615505D01*
X40166D01*
X33168Y608507D02*
X34334Y610840D01*
X36667Y613172D01*
X38999D01*
X40166Y612006D01*
Y609674D01*
X38999Y608507D01*
X37833D01*
X36667Y609674D01*
Y613172D01*
X225330Y993001D02*
Y999999D01*
X221831D01*
X220665Y998832D01*
Y996500D01*
X221831Y995334D01*
X225330D01*
X222998D02*
X220665Y993001D01*
X214834D02*
Y999999D01*
X218333Y996500D01*
X213667D01*
X211335Y998832D02*
X210169Y999999D01*
X207836D01*
X206670Y998832D01*
Y997666D01*
X207836Y996500D01*
X209002D01*
X207836D01*
X206670Y995334D01*
Y994167D01*
X207836Y993001D01*
X210169D01*
X211335Y994167D01*
X225830Y1019251D02*
Y1026249D01*
X222332D01*
X221165Y1025083D01*
Y1022750D01*
X222332Y1021584D01*
X225830D01*
X223498D02*
X221165Y1019251D01*
X215334D02*
Y1026249D01*
X218833Y1022750D01*
X214167D01*
X207170Y1019251D02*
X211835D01*
X207170Y1023916D01*
Y1025083D01*
X208336Y1026249D01*
X210669D01*
X211835Y1025083D01*
X225080Y972501D02*
Y979499D01*
X221581D01*
X220415Y978333D01*
Y976000D01*
X221581Y974834D01*
X225080D01*
X222748D02*
X220415Y972501D01*
X214584D02*
Y979499D01*
X218083Y976000D01*
X213417D01*
X207586Y972501D02*
Y979499D01*
X211085Y976000D01*
X206420D01*
X358080Y967001D02*
Y973999D01*
X354581D01*
X353415Y972833D01*
Y970500D01*
X354581Y969334D01*
X358080D01*
X355748D02*
X353415Y967001D01*
X351083Y972833D02*
X349916Y973999D01*
X347584D01*
X346417Y972833D01*
Y971666D01*
X347584Y970500D01*
X348750D01*
X347584D01*
X346417Y969334D01*
Y968167D01*
X347584Y967001D01*
X349916D01*
X351083Y968167D01*
X344085Y972833D02*
X342919Y973999D01*
X340586D01*
X339420Y972833D01*
Y971666D01*
X340586Y970500D01*
X341752D01*
X340586D01*
X339420Y969334D01*
Y968167D01*
X340586Y967001D01*
X342919D01*
X344085Y968167D01*
X358580Y1043001D02*
Y1049999D01*
X355081D01*
X353915Y1048833D01*
Y1046500D01*
X355081Y1045334D01*
X358580D01*
X356248D02*
X353915Y1043001D01*
X351583Y1048833D02*
X350416Y1049999D01*
X348084D01*
X346917Y1048833D01*
Y1047666D01*
X348084Y1046500D01*
X349250D01*
X348084D01*
X346917Y1045334D01*
Y1044167D01*
X348084Y1043001D01*
X350416D01*
X351583Y1044167D01*
X344585Y1048833D02*
X343419Y1049999D01*
X341086D01*
X339920Y1048833D01*
Y1044167D01*
X341086Y1043001D01*
X343419D01*
X344585Y1044167D01*
Y1048833D01*
X359580Y993251D02*
Y1000249D01*
X356082D01*
X354915Y999083D01*
Y996750D01*
X356082Y995584D01*
X359580D01*
X357248D02*
X354915Y993251D01*
X352583Y999083D02*
X351416Y1000249D01*
X349084D01*
X347917Y999083D01*
Y997916D01*
X349084Y996750D01*
X350250D01*
X349084D01*
X347917Y995584D01*
Y994417D01*
X349084Y993251D01*
X351416D01*
X352583Y994417D01*
X340920Y993251D02*
X345585D01*
X340920Y997916D01*
Y999083D01*
X342086Y1000249D01*
X344419D01*
X345585Y999083D01*
X223414Y1043251D02*
Y1050249D01*
X219915D01*
X218749Y1049083D01*
Y1046750D01*
X219915Y1045584D01*
X223414D01*
X221082D02*
X218749Y1043251D01*
X212917D02*
Y1050249D01*
X216416Y1046750D01*
X211751D01*
X209419Y1043251D02*
X207086D01*
X208252D01*
Y1050249D01*
X209419Y1049083D01*
X357164Y1018501D02*
Y1025499D01*
X353665D01*
X352499Y1024333D01*
Y1022000D01*
X353665Y1020834D01*
X357164D01*
X354831D02*
X352499Y1018501D01*
X350166Y1024333D02*
X349000Y1025499D01*
X346667D01*
X345501Y1024333D01*
Y1023166D01*
X346667Y1022000D01*
X347834D01*
X346667D01*
X345501Y1020834D01*
Y1019667D01*
X346667Y1018501D01*
X349000D01*
X350166Y1019667D01*
X343168Y1018501D02*
X340836D01*
X342002D01*
Y1025499D01*
X343168Y1024333D01*
X587084Y627174D02*
X594082D01*
Y630672D01*
X592916Y631839D01*
X590583D01*
X589417Y630672D01*
Y627174D01*
Y629506D02*
X587084Y631839D01*
Y634171D02*
Y636504D01*
Y635338D01*
X594082D01*
X592916Y634171D01*
X594082Y644668D02*
Y640003D01*
X590583D01*
X591749Y642335D01*
Y643502D01*
X590583Y644668D01*
X588251D01*
X587084Y643502D01*
Y641169D01*
X588251Y640003D01*
X585918Y647001D02*
Y651666D01*
X591749Y658663D02*
Y655165D01*
X590583Y653998D01*
X588251D01*
X587084Y655165D01*
Y658663D01*
X594082Y660996D02*
X587084D01*
X590583D01*
X591749Y662162D01*
Y664495D01*
X590583Y665661D01*
X587084D01*
Y667994D02*
Y670326D01*
Y669160D01*
X594082D01*
X592916Y667994D01*
X101834Y627507D02*
X108832D01*
Y631006D01*
X107666Y632173D01*
X105333D01*
X104167Y631006D01*
Y627507D01*
Y629840D02*
X101834Y632173D01*
Y634505D02*
Y636838D01*
Y635671D01*
X108832D01*
X107666Y634505D01*
X108832Y645002D02*
Y640337D01*
X105333D01*
X106500Y642669D01*
Y643835D01*
X105333Y645002D01*
X103001D01*
X101834Y643835D01*
Y641503D01*
X103001Y640337D01*
X100668Y647334D02*
Y651999D01*
X106500Y658997D02*
Y655498D01*
X105333Y654332D01*
X103001D01*
X101834Y655498D01*
Y658997D01*
X108832Y661330D02*
X101834D01*
X105333D01*
X106500Y662496D01*
Y664829D01*
X105333Y665995D01*
X101834D01*
X108832Y672993D02*
X107666Y670660D01*
X105333Y668327D01*
X103001D01*
X101834Y669494D01*
Y671826D01*
X103001Y672993D01*
X104167D01*
X105333Y671826D01*
Y668327D01*
X552834Y677174D02*
X559832D01*
Y680673D01*
X558666Y681839D01*
X556333D01*
X555167Y680673D01*
Y677174D01*
Y679506D02*
X552834Y681839D01*
Y684171D02*
Y686504D01*
Y685338D01*
X559832D01*
X558666Y684171D01*
X552834Y694668D02*
Y690003D01*
X557499Y694668D01*
X558666D01*
X559832Y693502D01*
Y691169D01*
X558666Y690003D01*
X551668Y697001D02*
Y701666D01*
X557499Y708663D02*
Y705165D01*
X556333Y703998D01*
X554001D01*
X552834Y705165D01*
Y708663D01*
X559832Y710996D02*
X552834D01*
X556333D01*
X557499Y712162D01*
Y714495D01*
X556333Y715661D01*
X552834D01*
Y717994D02*
Y720326D01*
Y719160D01*
X559832D01*
X558666Y717994D01*
X66584Y676257D02*
X73582D01*
Y679756D01*
X72416Y680922D01*
X70083D01*
X68917Y679756D01*
Y676257D01*
Y678590D02*
X66584Y680922D01*
Y683255D02*
Y685588D01*
Y684421D01*
X73582D01*
X72416Y683255D01*
X66584Y693752D02*
Y689087D01*
X71249Y693752D01*
X72416D01*
X73582Y692585D01*
Y690253D01*
X72416Y689087D01*
X65418Y696084D02*
Y700749D01*
X71249Y707747D02*
Y704248D01*
X70083Y703082D01*
X67751D01*
X66584Y704248D01*
Y707747D01*
X73582Y710080D02*
X66584D01*
X70083D01*
X71249Y711246D01*
Y713579D01*
X70083Y714745D01*
X66584D01*
X73582Y721743D02*
X72416Y719410D01*
X70083Y717077D01*
X67751D01*
X66584Y718244D01*
Y720576D01*
X67751Y721743D01*
X68917D01*
X70083Y720576D01*
Y717077D01*
X532084Y551507D02*
X539082D01*
Y555006D01*
X537916Y556172D01*
X535583D01*
X534417Y555006D01*
Y551507D01*
Y553839D02*
X532084Y556172D01*
Y558504D02*
Y560837D01*
Y559671D01*
X539082D01*
X537916Y558504D01*
X532084Y564336D02*
Y566669D01*
Y565502D01*
X539082D01*
X537916Y564336D01*
X530918Y570167D02*
Y574833D01*
X536749Y581830D02*
Y578331D01*
X535583Y577165D01*
X533251D01*
X532084Y578331D01*
Y581830D01*
X539082Y584163D02*
X532084D01*
X535583D01*
X536749Y585329D01*
Y587662D01*
X535583Y588828D01*
X532084D01*
Y591161D02*
Y593493D01*
Y592327D01*
X539082D01*
X537916Y591161D01*
X54666Y590159D02*
X47668D01*
Y586661D01*
X48834Y585494D01*
X51167D01*
X52333Y586661D01*
Y590159D01*
Y587827D02*
X54666Y585494D01*
Y583162D02*
Y580829D01*
Y581996D01*
X47668D01*
X48834Y583162D01*
X54666Y577330D02*
Y574998D01*
Y576164D01*
X47668D01*
X48834Y577330D01*
X55832Y571499D02*
Y566834D01*
X50001Y559836D02*
Y563335D01*
X51167Y564501D01*
X53499D01*
X54666Y563335D01*
Y559836D01*
X47668Y557503D02*
X54666D01*
X51167D01*
X50001Y556337D01*
Y554005D01*
X51167Y552838D01*
X54666D01*
X47668Y545840D02*
X48834Y548173D01*
X51167Y550506D01*
X53499D01*
X54666Y549339D01*
Y547007D01*
X53499Y545840D01*
X52333D01*
X51167Y547007D01*
Y550506D01*
X530334Y675674D02*
X537332D01*
Y679173D01*
X536166Y680339D01*
X533833D01*
X532667Y679173D01*
Y675674D01*
Y678006D02*
X530334Y680339D01*
Y682671D02*
Y685004D01*
Y683838D01*
X537332D01*
X536166Y682671D01*
Y688503D02*
X537332Y689669D01*
Y692002D01*
X536166Y693168D01*
X531501D01*
X530334Y692002D01*
Y689669D01*
X531501Y688503D01*
X536166D01*
X529168Y695501D02*
Y700166D01*
X534999Y707163D02*
Y703665D01*
X533833Y702498D01*
X531501D01*
X530334Y703665D01*
Y707163D01*
X537332Y709496D02*
X530334D01*
X533833D01*
X534999Y710662D01*
Y712995D01*
X533833Y714161D01*
X530334D01*
Y716494D02*
Y718826D01*
Y717660D01*
X537332D01*
X536166Y716494D01*
X41084Y677757D02*
X48082D01*
Y681256D01*
X46916Y682422D01*
X44583D01*
X43417Y681256D01*
Y677757D01*
Y680090D02*
X41084Y682422D01*
Y684755D02*
Y687088D01*
Y685921D01*
X48082D01*
X46916Y684755D01*
Y690586D02*
X48082Y691753D01*
Y694085D01*
X46916Y695252D01*
X42251D01*
X41084Y694085D01*
Y691753D01*
X42251Y690586D01*
X46916D01*
X39918Y697584D02*
Y702249D01*
X45749Y709247D02*
Y705748D01*
X44583Y704582D01*
X42251D01*
X41084Y705748D01*
Y709247D01*
X48082Y711580D02*
X41084D01*
X44583D01*
X45749Y712746D01*
Y715079D01*
X44583Y716245D01*
X41084D01*
X48082Y723243D02*
X46916Y720910D01*
X44583Y718577D01*
X42251D01*
X41084Y719744D01*
Y722076D01*
X42251Y723243D01*
X43417D01*
X44583Y722076D01*
Y718577D01*
X482497Y950501D02*
Y957499D01*
X478998D01*
X477832Y956333D01*
Y954000D01*
X478998Y952834D01*
X482497D01*
X480165D02*
X477832Y950501D01*
X475499D02*
X473167D01*
X474333D01*
Y957499D01*
X475499Y956333D01*
X469668Y951667D02*
X468502Y950501D01*
X466169D01*
X465003Y951667D01*
Y956333D01*
X466169Y957499D01*
X468502D01*
X469668Y956333D01*
Y955166D01*
X468502Y954000D01*
X465003D01*
X532414Y981751D02*
Y988749D01*
X528915D01*
X527749Y987583D01*
Y985250D01*
X528915Y984084D01*
X532414D01*
X530081D02*
X527749Y981751D01*
X520751D02*
X525416D01*
X520751Y986416D01*
Y987583D01*
X521917Y988749D01*
X524250D01*
X525416Y987583D01*
X518419Y981751D02*
X516086D01*
X517252D01*
Y988749D01*
X518419Y987583D01*
X483360Y996176D02*
Y1003174D01*
X479861D01*
X478695Y1002007D01*
Y999675D01*
X479861Y998509D01*
X483360D01*
X481027D02*
X478695Y996176D01*
X476362D02*
X474030D01*
X475196D01*
Y1003174D01*
X476362Y1002007D01*
X470531D02*
X469365Y1003174D01*
X467032D01*
X465866Y1002007D01*
Y1000841D01*
X467032Y999675D01*
X465866Y998509D01*
Y997342D01*
X467032Y996176D01*
X469365D01*
X470531Y997342D01*
Y998509D01*
X469365Y999675D01*
X470531Y1000841D01*
Y1002007D01*
X469365Y999675D02*
X467032D01*
X508580Y981001D02*
Y987999D01*
X505081D01*
X503915Y986833D01*
Y984500D01*
X505081Y983334D01*
X508580D01*
X506248D02*
X503915Y981001D01*
X496917D02*
X501583D01*
X496917Y985666D01*
Y986833D01*
X498084Y987999D01*
X500416D01*
X501583Y986833D01*
X494585D02*
X493419Y987999D01*
X491086D01*
X489920Y986833D01*
Y982167D01*
X491086Y981001D01*
X493419D01*
X494585Y982167D01*
Y986833D01*
X544334Y549174D02*
X551332D01*
Y552673D01*
X550166Y553839D01*
X547833D01*
X546667Y552673D01*
Y549174D01*
Y551506D02*
X544334Y553839D01*
Y556171D02*
Y558504D01*
Y557338D01*
X551332D01*
X550166Y556171D01*
Y562003D02*
X551332Y563169D01*
Y565502D01*
X550166Y566668D01*
X548999D01*
X547833Y565502D01*
Y564335D01*
Y565502D01*
X546667Y566668D01*
X545501D01*
X544334Y565502D01*
Y563169D01*
X545501Y562003D01*
X543168Y569001D02*
Y573666D01*
X548999Y580663D02*
Y577165D01*
X547833Y575998D01*
X545501D01*
X544334Y577165D01*
Y580663D01*
X551332Y582996D02*
X544334D01*
X547833D01*
X548999Y584162D01*
Y586495D01*
X547833Y587661D01*
X544334D01*
Y589994D02*
Y592326D01*
Y591160D01*
X551332D01*
X550166Y589994D01*
X68666Y590993D02*
X61668D01*
Y587494D01*
X62834Y586328D01*
X65167D01*
X66333Y587494D01*
Y590993D01*
Y588660D02*
X68666Y586328D01*
Y583995D02*
Y581662D01*
Y582829D01*
X61668D01*
X62834Y583995D01*
Y578163D02*
X61668Y576997D01*
Y574665D01*
X62834Y573498D01*
X64001D01*
X65167Y574665D01*
Y575831D01*
Y574665D01*
X66333Y573498D01*
X67499D01*
X68666Y574665D01*
Y576997D01*
X67499Y578163D01*
X69832Y571166D02*
Y566501D01*
X64001Y559503D02*
Y563002D01*
X65167Y564168D01*
X67499D01*
X68666Y563002D01*
Y559503D01*
X61668Y557170D02*
X68666D01*
X65167D01*
X64001Y556004D01*
Y553671D01*
X65167Y552505D01*
X68666D01*
X61668Y545507D02*
X62834Y547840D01*
X65167Y550173D01*
X67499D01*
X68666Y549006D01*
Y546674D01*
X67499Y545507D01*
X66333D01*
X65167Y546674D01*
Y550173D01*
X415411Y952084D02*
Y959082D01*
X411912D01*
X410746Y957916D01*
Y955583D01*
X411912Y954417D01*
X415411D01*
X413078D02*
X410746Y952084D01*
X408413Y957916D02*
X407247Y959082D01*
X404914D01*
X403748Y957916D01*
Y956749D01*
X404914Y955583D01*
X406080D01*
X404914D01*
X403748Y954417D01*
Y953251D01*
X404914Y952084D01*
X407247D01*
X408413Y953251D01*
X401415Y950918D02*
X396750D01*
X389752Y956749D02*
X393251D01*
X394417Y955583D01*
Y953251D01*
X393251Y952084D01*
X389752D01*
X387420Y959082D02*
Y952084D01*
Y955583D01*
X386253Y956749D01*
X383921D01*
X382755Y955583D01*
Y952084D01*
X380422D02*
X378089D01*
X379256D01*
Y959082D01*
X380422Y957916D01*
X487827Y937084D02*
Y944082D01*
X484328D01*
X483162Y942916D01*
Y940583D01*
X484328Y939417D01*
X487827D01*
X485494D02*
X483162Y937084D01*
X480829Y942916D02*
X479663Y944082D01*
X477330D01*
X476164Y942916D01*
Y941749D01*
X477330Y940583D01*
X478497D01*
X477330D01*
X476164Y939417D01*
Y938251D01*
X477330Y937084D01*
X479663D01*
X480829Y938251D01*
X473831Y935918D02*
X469166D01*
X462169Y941749D02*
X465667D01*
X466834Y940583D01*
Y938251D01*
X465667Y937084D01*
X462169D01*
X459836Y944082D02*
Y937084D01*
Y940583D01*
X458670Y941749D01*
X456337D01*
X455171Y940583D01*
Y937084D01*
X448173D02*
X452838D01*
X448173Y941749D01*
Y942916D01*
X449339Y944082D01*
X451672D01*
X452838Y942916D01*
X487827Y922584D02*
Y929582D01*
X484328D01*
X483162Y928416D01*
Y926083D01*
X484328Y924917D01*
X487827D01*
X485494D02*
X483162Y922584D01*
X480829Y928416D02*
X479663Y929582D01*
X477330D01*
X476164Y928416D01*
Y927250D01*
X477330Y926083D01*
X478497D01*
X477330D01*
X476164Y924917D01*
Y923751D01*
X477330Y922584D01*
X479663D01*
X480829Y923751D01*
X473831Y921418D02*
X469166D01*
X462169Y927250D02*
X465667D01*
X466834Y926083D01*
Y923751D01*
X465667Y922584D01*
X462169D01*
X459836Y929582D02*
Y922584D01*
Y926083D01*
X458670Y927250D01*
X456337D01*
X455171Y926083D01*
Y922584D01*
X452838Y928416D02*
X451672Y929582D01*
X449339D01*
X448173Y928416D01*
Y927250D01*
X449339Y926083D01*
X450506D01*
X449339D01*
X448173Y924917D01*
Y923751D01*
X449339Y922584D01*
X451672D01*
X452838Y923751D01*
X97084Y742173D02*
X104082D01*
Y745672D01*
X102916Y746838D01*
X100583D01*
X99417Y745672D01*
Y742173D01*
Y744506D02*
X97084Y746838D01*
X102916Y749171D02*
X104082Y750337D01*
Y752670D01*
X102916Y753836D01*
X101749D01*
X100583Y752670D01*
Y751503D01*
Y752670D01*
X99417Y753836D01*
X98251D01*
X97084Y752670D01*
Y750337D01*
X98251Y749171D01*
X95918Y756169D02*
Y760834D01*
X101749Y767831D02*
Y764333D01*
X100583Y763166D01*
X98251D01*
X97084Y764333D01*
Y767831D01*
X104082Y770164D02*
X97084D01*
X100583D01*
X101749Y771330D01*
Y773663D01*
X100583Y774829D01*
X97084D01*
Y780661D02*
X104082D01*
X100583Y777162D01*
Y781827D01*
X83834Y741173D02*
X90832D01*
Y744672D01*
X89666Y745838D01*
X87333D01*
X86167Y744672D01*
Y741173D01*
Y743506D02*
X83834Y745838D01*
X89666Y748171D02*
X90832Y749337D01*
Y751670D01*
X89666Y752836D01*
X88499D01*
X87333Y751670D01*
Y750503D01*
Y751670D01*
X86167Y752836D01*
X85000D01*
X83834Y751670D01*
Y749337D01*
X85000Y748171D01*
X82668Y755169D02*
Y759834D01*
X88499Y766831D02*
Y763333D01*
X87333Y762166D01*
X85000D01*
X83834Y763333D01*
Y766831D01*
X90832Y769164D02*
X83834D01*
X87333D01*
X88499Y770330D01*
Y772663D01*
X87333Y773829D01*
X83834D01*
X90832Y780827D02*
Y776162D01*
X87333D01*
X88499Y778494D01*
Y779661D01*
X87333Y780827D01*
X85000D01*
X83834Y779661D01*
Y777328D01*
X85000Y776162D01*
X69584Y740673D02*
X76582D01*
Y744172D01*
X75416Y745338D01*
X73083D01*
X71917Y744172D01*
Y740673D01*
Y743006D02*
X69584Y745338D01*
X75416Y747671D02*
X76582Y748837D01*
Y751170D01*
X75416Y752336D01*
X74249D01*
X73083Y751170D01*
Y750003D01*
Y751170D01*
X71917Y752336D01*
X70751D01*
X69584Y751170D01*
Y748837D01*
X70751Y747671D01*
X68418Y754669D02*
Y759334D01*
X74249Y766331D02*
Y762833D01*
X73083Y761666D01*
X70751D01*
X69584Y762833D01*
Y766331D01*
X76582Y768664D02*
X69584D01*
X73083D01*
X74249Y769830D01*
Y772163D01*
X73083Y773329D01*
X69584D01*
X76582Y780327D02*
X75416Y777994D01*
X73083Y775662D01*
X70751D01*
X69584Y776828D01*
Y779161D01*
X70751Y780327D01*
X71917D01*
X73083Y779161D01*
Y775662D01*
X599001Y590338D02*
X603666D01*
X604832Y589171D01*
Y586839D01*
X603666Y585672D01*
X599001D01*
X597834Y586839D01*
Y589171D01*
X600167Y588005D02*
X597834Y590338D01*
Y589171D02*
X599001Y590338D01*
X597834Y592670D02*
Y595003D01*
Y593837D01*
X604832D01*
X603666Y592670D01*
X596668Y598502D02*
Y603167D01*
X602500Y610165D02*
Y606666D01*
X601333Y605499D01*
X599001D01*
X597834Y606666D01*
Y610165D01*
X604832Y612497D02*
X597834D01*
X601333D01*
X602500Y613663D01*
Y615996D01*
X601333Y617162D01*
X597834D01*
Y619495D02*
Y621828D01*
Y620661D01*
X604832D01*
X603666Y619495D01*
X108579Y585501D02*
Y590166D01*
X109745Y591332D01*
X112078D01*
X113244Y590166D01*
Y585501D01*
X112078Y584334D01*
X109745D01*
X110911Y586667D02*
X108579Y584334D01*
X109745D02*
X108579Y585501D01*
X106246Y584334D02*
X103913D01*
X105080D01*
Y591332D01*
X106246Y590166D01*
X100415Y583168D02*
X95749D01*
X88752Y588999D02*
X92250D01*
X93417Y587833D01*
Y585501D01*
X92250Y584334D01*
X88752D01*
X86419Y591332D02*
Y584334D01*
Y587833D01*
X85253Y588999D01*
X82920D01*
X81754Y587833D01*
Y584334D01*
X74756Y591332D02*
X77089Y590166D01*
X79421Y587833D01*
Y585501D01*
X78255Y584334D01*
X75922D01*
X74756Y585501D01*
Y586667D01*
X75922Y587833D01*
X79421D01*
D17*
X84250Y605950D02*
Y612550D01*
X89500Y623850D02*
X97250D01*
Y615450D02*
Y623850D01*
X89500Y594650D02*
X97250D01*
Y603050D01*
X128500Y817950D02*
Y824550D01*
X139650Y829250D02*
X146350D01*
X157500Y817950D02*
Y824550D01*
X184000Y817450D02*
Y824050D01*
X195150Y828750D02*
X201850D01*
X213000Y817450D02*
Y824050D01*
X224500Y817450D02*
Y824050D01*
X235650Y828750D02*
X242350D01*
X253500Y817450D02*
Y824050D01*
X504500Y816700D02*
Y823300D01*
X515650Y828000D02*
X522350D01*
X533500Y816700D02*
Y823300D01*
X449750Y817450D02*
Y824050D01*
X460900Y828750D02*
X467600D01*
X478750Y817450D02*
Y824050D01*
X401875Y817700D02*
Y824300D01*
X413025Y829000D02*
X419725D01*
X430875Y817700D02*
Y824300D01*
X568000Y605950D02*
Y612550D01*
X573250Y623850D02*
X581000D01*
Y615450D02*
Y623850D01*
X573250Y594650D02*
X581000D01*
Y603050D01*
X484250Y594650D02*
Y603050D01*
X476500Y594650D02*
X484250D01*
Y615450D02*
Y623850D01*
X476500D02*
X484250D01*
X471250Y605950D02*
Y612550D01*
X290750Y594650D02*
Y603050D01*
X283000Y594650D02*
X290750D01*
Y615450D02*
Y623850D01*
X283000D02*
X290750D01*
X277750Y605950D02*
Y612550D01*
X387500Y594650D02*
Y603050D01*
X379750Y594650D02*
X387500D01*
Y615450D02*
Y623850D01*
X379750D02*
X387500D01*
X374500Y605950D02*
Y612550D01*
X194000Y594650D02*
Y603050D01*
X186250Y594650D02*
X194000D01*
Y615450D02*
Y623850D01*
X186250D02*
X194000D01*
X181000Y605950D02*
Y612550D01*
M02*
