G04*
G04 #@! TF.GenerationSoftware,Altium Limited,Altium Designer,20.0.13 (296)*
G04*
G04 Layer_Color=8388736*
%FSLAX44Y44*%
%MOMM*%
G71*
G01*
G75*
%ADD34R,0.8032X0.7032*%
%ADD35R,0.7032X0.8032*%
%ADD36R,1.0032X1.2032*%
%ADD37R,1.2032X1.0032*%
%ADD38R,3.3020X3.2004*%
%ADD39R,0.5588X1.6256*%
G04:AMPARAMS|DCode=40|XSize=2.5332mm|YSize=1.7532mm|CornerRadius=0.4891mm|HoleSize=0mm|Usage=FLASHONLY|Rotation=180.000|XOffset=0mm|YOffset=0mm|HoleType=Round|Shape=RoundedRectangle|*
%AMROUNDEDRECTD40*
21,1,2.5332,0.7750,0,0,180.0*
21,1,1.5550,1.7532,0,0,180.0*
1,1,0.9782,-0.7775,0.3875*
1,1,0.9782,0.7775,0.3875*
1,1,0.9782,0.7775,-0.3875*
1,1,0.9782,-0.7775,-0.3875*
%
%ADD40ROUNDEDRECTD40*%
%ADD41R,3.6200X2.2700*%
%ADD42R,0.6132X1.7632*%
%ADD43R,1.2200X1.3700*%
%ADD44R,2.2700X3.6200*%
%ADD45R,2.3532X3.4532*%
%ADD46R,2.3532X1.1532*%
G04:AMPARAMS|DCode=47|XSize=2.5332mm|YSize=1.7532mm|CornerRadius=0.4891mm|HoleSize=0mm|Usage=FLASHONLY|Rotation=270.000|XOffset=0mm|YOffset=0mm|HoleType=Round|Shape=RoundedRectangle|*
%AMROUNDEDRECTD47*
21,1,2.5332,0.7750,0,0,270.0*
21,1,1.5550,1.7532,0,0,270.0*
1,1,0.9782,-0.3875,-0.7775*
1,1,0.9782,-0.3875,0.7775*
1,1,0.9782,0.3875,0.7775*
1,1,0.9782,0.3875,-0.7775*
%
%ADD47ROUNDEDRECTD47*%
%ADD48R,2.9032X3.8032*%
%ADD49O,2.1336X4.0640*%
%ADD50R,1.7032X1.7032*%
%ADD51C,1.7032*%
%ADD52R,1.7032X1.7032*%
D34*
X405000Y971500D02*
D03*
Y961500D02*
D03*
X391250Y971500D02*
D03*
Y961500D02*
D03*
X358000Y971500D02*
D03*
Y961500D02*
D03*
X344000Y971500D02*
D03*
Y961500D02*
D03*
X557750Y680750D02*
D03*
Y670750D02*
D03*
X76500Y680750D02*
D03*
Y670750D02*
D03*
X432750Y1017900D02*
D03*
Y1027900D02*
D03*
X496000Y1017400D02*
D03*
Y1027400D02*
D03*
X607500Y90750D02*
D03*
Y80750D02*
D03*
X399000Y773500D02*
D03*
Y783500D02*
D03*
X172750Y670750D02*
D03*
Y680750D02*
D03*
X269000Y670750D02*
D03*
Y680750D02*
D03*
X365250Y670750D02*
D03*
Y680750D02*
D03*
X461500Y670750D02*
D03*
Y680750D02*
D03*
D35*
X612500Y633750D02*
D03*
X602500D02*
D03*
X419600D02*
D03*
X409600D02*
D03*
X516050D02*
D03*
X506050D02*
D03*
X323150D02*
D03*
X313150D02*
D03*
X226700D02*
D03*
X216700D02*
D03*
X130250D02*
D03*
X120250D02*
D03*
X302750Y1039250D02*
D03*
X312750D02*
D03*
X278833D02*
D03*
X288833D02*
D03*
X231000D02*
D03*
X241000D02*
D03*
X254917D02*
D03*
X264917D02*
D03*
X136250Y986250D02*
D03*
X146250D02*
D03*
X159500D02*
D03*
X169500D02*
D03*
X136250Y971250D02*
D03*
X146250D02*
D03*
X159500D02*
D03*
X169500D02*
D03*
X445750Y775750D02*
D03*
X435750D02*
D03*
X194750Y776750D02*
D03*
X184750D02*
D03*
X140250Y801000D02*
D03*
X150250D02*
D03*
D36*
X123750Y830000D02*
D03*
X139750D02*
D03*
X286750Y776500D02*
D03*
X302750D02*
D03*
X513500Y791750D02*
D03*
X497500D02*
D03*
X123750Y853500D02*
D03*
X139750D02*
D03*
X374000Y776500D02*
D03*
X358000D02*
D03*
X513500Y842250D02*
D03*
X497500D02*
D03*
D37*
X127750Y564750D02*
D03*
Y548750D02*
D03*
X574000Y678500D02*
D03*
Y662500D02*
D03*
X598500Y669750D02*
D03*
Y653750D02*
D03*
X614750Y564750D02*
D03*
Y548750D02*
D03*
X116000Y669750D02*
D03*
Y653750D02*
D03*
X92250Y678750D02*
D03*
Y662750D02*
D03*
X212500Y653750D02*
D03*
Y669750D02*
D03*
X309000Y653750D02*
D03*
Y669750D02*
D03*
X405500Y653750D02*
D03*
Y669750D02*
D03*
X502000Y653750D02*
D03*
Y669750D02*
D03*
X188600Y662750D02*
D03*
Y678750D02*
D03*
X284950Y662750D02*
D03*
Y678750D02*
D03*
X381300Y662750D02*
D03*
Y678750D02*
D03*
X477650Y662750D02*
D03*
Y678750D02*
D03*
X225150Y548750D02*
D03*
Y564750D02*
D03*
X322550Y548750D02*
D03*
Y564750D02*
D03*
X419950Y548750D02*
D03*
Y564750D02*
D03*
X517350Y548750D02*
D03*
Y564750D02*
D03*
D38*
X567058Y609198D02*
D03*
X85942Y607948D02*
D03*
X182165D02*
D03*
X278388D02*
D03*
X374612D02*
D03*
X470835D02*
D03*
D39*
X547500Y637646D02*
D03*
X554104D02*
D03*
X560454D02*
D03*
X567058D02*
D03*
X573662D02*
D03*
X580012D02*
D03*
X586616D02*
D03*
Y580750D02*
D03*
X580012D02*
D03*
X573662D02*
D03*
X567058D02*
D03*
X560454D02*
D03*
X554104D02*
D03*
X547500D02*
D03*
X66384Y636396D02*
D03*
X72988D02*
D03*
X79338D02*
D03*
X85942D02*
D03*
X92546D02*
D03*
X98896D02*
D03*
X105500D02*
D03*
Y579500D02*
D03*
X98896D02*
D03*
X92546D02*
D03*
X85942D02*
D03*
X79338D02*
D03*
X72988D02*
D03*
X66384D02*
D03*
X162607D02*
D03*
X169211D02*
D03*
X175561D02*
D03*
X182165D02*
D03*
X188769D02*
D03*
X195119D02*
D03*
X201723D02*
D03*
Y636396D02*
D03*
X195119D02*
D03*
X188769D02*
D03*
X182165D02*
D03*
X175561D02*
D03*
X169211D02*
D03*
X162607D02*
D03*
X258830Y579500D02*
D03*
X265434D02*
D03*
X271784D02*
D03*
X278388D02*
D03*
X284992D02*
D03*
X291342D02*
D03*
X297946D02*
D03*
Y636396D02*
D03*
X291342D02*
D03*
X284992D02*
D03*
X278388D02*
D03*
X271784D02*
D03*
X265434D02*
D03*
X258830D02*
D03*
X355053Y579500D02*
D03*
X361657D02*
D03*
X368008D02*
D03*
X374612D02*
D03*
X381216D02*
D03*
X387565D02*
D03*
X394170D02*
D03*
Y636396D02*
D03*
X387565D02*
D03*
X381216D02*
D03*
X374612D02*
D03*
X368008D02*
D03*
X361657D02*
D03*
X355053D02*
D03*
X451277Y579500D02*
D03*
X457881D02*
D03*
X464231D02*
D03*
X470835D02*
D03*
X477439D02*
D03*
X483789D02*
D03*
X490393D02*
D03*
Y636396D02*
D03*
X483789D02*
D03*
X477439D02*
D03*
X470835D02*
D03*
X464231D02*
D03*
X457881D02*
D03*
X451277D02*
D03*
D40*
X545900Y537750D02*
D03*
X588600D02*
D03*
X59400Y535500D02*
D03*
X102100D02*
D03*
X199400Y536250D02*
D03*
X156700D02*
D03*
X296700Y537750D02*
D03*
X254000D02*
D03*
X394000D02*
D03*
X351300D02*
D03*
X491300D02*
D03*
X448600D02*
D03*
D41*
X39750Y740750D02*
D03*
Y705750D02*
D03*
X587250Y740750D02*
D03*
Y705750D02*
D03*
X487705D02*
D03*
Y740750D02*
D03*
X338386Y705750D02*
D03*
Y740750D02*
D03*
X238841Y705750D02*
D03*
Y740750D02*
D03*
X139296Y705750D02*
D03*
Y740750D02*
D03*
X537477Y705750D02*
D03*
Y740750D02*
D03*
X437932Y705750D02*
D03*
Y740750D02*
D03*
X388159Y705750D02*
D03*
Y740750D02*
D03*
X288614Y705750D02*
D03*
Y740750D02*
D03*
X189068Y705750D02*
D03*
Y740750D02*
D03*
X89523Y705750D02*
D03*
Y740750D02*
D03*
D42*
X165750Y854050D02*
D03*
X172250D02*
D03*
X178750D02*
D03*
X185250D02*
D03*
X191750D02*
D03*
X198250D02*
D03*
X204750D02*
D03*
X211250D02*
D03*
X217750D02*
D03*
X224250D02*
D03*
Y796450D02*
D03*
X217750D02*
D03*
X211250D02*
D03*
X204750D02*
D03*
X198250D02*
D03*
X191750D02*
D03*
X185250D02*
D03*
X178750D02*
D03*
X172250D02*
D03*
X165750D02*
D03*
X416000Y854050D02*
D03*
X422500D02*
D03*
X429000D02*
D03*
X435500D02*
D03*
X442000D02*
D03*
X448500D02*
D03*
X455000D02*
D03*
X461500D02*
D03*
X468000D02*
D03*
X474500D02*
D03*
Y796450D02*
D03*
X468000D02*
D03*
X461500D02*
D03*
X455000D02*
D03*
X448500D02*
D03*
X442000D02*
D03*
X435500D02*
D03*
X429000D02*
D03*
X422500D02*
D03*
X416000D02*
D03*
D43*
X417652Y1018750D02*
D03*
Y1041750D02*
D03*
X480701Y1018250D02*
D03*
Y1041250D02*
D03*
X607556Y148500D02*
D03*
Y125500D02*
D03*
D44*
X589250Y863500D02*
D03*
X554250D02*
D03*
X450750Y269250D02*
D03*
X485750D02*
D03*
X450750Y226750D02*
D03*
X485750D02*
D03*
X98250D02*
D03*
X133250D02*
D03*
X98250Y269250D02*
D03*
X133250D02*
D03*
X168000Y226750D02*
D03*
X203000D02*
D03*
X168750Y269250D02*
D03*
X203750D02*
D03*
X239250Y226750D02*
D03*
X274250D02*
D03*
X239250Y269250D02*
D03*
X274250D02*
D03*
X309750Y226750D02*
D03*
X344750D02*
D03*
X309750Y269250D02*
D03*
X344750D02*
D03*
X380250Y227000D02*
D03*
X415250D02*
D03*
X380250Y269250D02*
D03*
X415250D02*
D03*
D45*
X541000Y804000D02*
D03*
D46*
X599000Y827000D02*
D03*
Y804000D02*
D03*
Y781000D02*
D03*
D47*
X487750Y376735D02*
D03*
Y334035D02*
D03*
X287750Y384719D02*
D03*
Y342019D02*
D03*
X87000Y384719D02*
D03*
Y342019D02*
D03*
X54000Y464481D02*
D03*
Y421781D02*
D03*
X453500Y464481D02*
D03*
Y421781D02*
D03*
X253250Y464481D02*
D03*
Y421781D02*
D03*
D48*
X205750Y344750D02*
D03*
X122750D02*
D03*
X174750Y461750D02*
D03*
X91750D02*
D03*
X374000D02*
D03*
X291000D02*
D03*
X573250D02*
D03*
X490250D02*
D03*
X608250Y344750D02*
D03*
X525250D02*
D03*
X407000D02*
D03*
X324000D02*
D03*
D49*
X554250Y80250D02*
D03*
X519250D02*
D03*
X484250D02*
D03*
X449250D02*
D03*
X414250D02*
D03*
X379250D02*
D03*
X344250D02*
D03*
X309250D02*
D03*
X274250D02*
D03*
X239250D02*
D03*
X204250D02*
D03*
X169250D02*
D03*
X134250D02*
D03*
X99250D02*
D03*
X64250D02*
D03*
X29250D02*
D03*
D50*
X100000Y935400D02*
D03*
X231150Y940150D02*
D03*
X541000Y1037000D02*
D03*
D51*
X74600Y935400D02*
D03*
X100000Y960800D02*
D03*
X74600D02*
D03*
X100000Y986200D02*
D03*
X74600D02*
D03*
X100000Y1011600D02*
D03*
X74600D02*
D03*
Y1037000D02*
D03*
X100000D02*
D03*
X274200Y840000D02*
D03*
X299600D02*
D03*
X325000D02*
D03*
X350400D02*
D03*
X274450Y804500D02*
D03*
X299850D02*
D03*
X325250D02*
D03*
X350650D02*
D03*
X307350Y1016350D02*
D03*
X281950D02*
D03*
X256550D02*
D03*
X231150D02*
D03*
X307350Y940150D02*
D03*
X281950D02*
D03*
X256550D02*
D03*
X566400Y960800D02*
D03*
X541000D02*
D03*
X566400Y1037000D02*
D03*
X541000Y1011600D02*
D03*
X566400D02*
D03*
X541000Y986200D02*
D03*
X566400D02*
D03*
X541000Y935400D02*
D03*
X566400D02*
D03*
D52*
X375800Y840000D02*
D03*
X376050Y804500D02*
D03*
M02*
