G04*
G04 #@! TF.GenerationSoftware,Altium Limited,Altium Designer,20.0.13 (296)*
G04*
G04 Layer_Color=65535*
%FSLAX44Y44*%
%MOMM*%
G71*
G01*
G75*
%ADD10C,0.1500*%
%ADD11C,0.0000*%
%ADD12C,0.2000*%
%ADD13C,0.6000*%
%ADD14C,0.2500*%
%ADD15C,0.1270*%
%ADD16C,0.3000*%
%ADD17C,0.1524*%
%ADD18C,0.2540*%
D10*
X116046Y838012D02*
G03*
X116150Y822100I12168J-7877D01*
G01*
X147155Y821988D02*
G03*
X147050Y837900I-12168J7877D01*
G01*
X279046Y784512D02*
G03*
X279150Y768600I12168J-7877D01*
G01*
X310154Y768487D02*
G03*
X310050Y784400I-12168J7877D01*
G01*
X521204Y783737D02*
G03*
X521100Y799650I-12168J7877D01*
G01*
X490095Y799762D02*
G03*
X490200Y783850I12168J-7877D01*
G01*
X116046Y861513D02*
G03*
X116150Y845600I12168J-7877D01*
G01*
X147155Y845488D02*
G03*
X147050Y861400I-12168J7877D01*
G01*
X135763Y572454D02*
G03*
X119850Y572350I-7877J-12168D01*
G01*
X119738Y541345D02*
G03*
X135650Y541450I7877J12168D01*
G01*
X582012Y686205D02*
G03*
X566100Y686100I-7877J-12168D01*
G01*
X565988Y655095D02*
G03*
X581900Y655200I7877J12168D01*
G01*
X606512Y677455D02*
G03*
X590600Y677350I-7877J-12168D01*
G01*
X590487Y646345D02*
G03*
X606400Y646450I7877J12168D01*
G01*
X622762Y572454D02*
G03*
X606850Y572350I-7877J-12168D01*
G01*
X606737Y541345D02*
G03*
X622650Y541450I7877J12168D01*
G01*
X124012Y677455D02*
G03*
X108100Y677350I-7877J-12168D01*
G01*
X107987Y646345D02*
G03*
X123900Y646450I7877J12168D01*
G01*
X100262Y686454D02*
G03*
X84350Y686350I-7877J-12168D01*
G01*
X84237Y655345D02*
G03*
X100150Y655450I7877J12168D01*
G01*
X381704Y768487D02*
G03*
X381600Y784400I-12168J7877D01*
G01*
X350595Y784512D02*
G03*
X350700Y768600I12168J-7877D01*
G01*
X521204Y834238D02*
G03*
X521100Y850150I-12168J7877D01*
G01*
X490095Y850263D02*
G03*
X490200Y834350I12168J-7877D01*
G01*
X204487Y646345D02*
G03*
X220400Y646450I7877J12168D01*
G01*
X220513Y677455D02*
G03*
X204600Y677350I-7877J-12168D01*
G01*
X300987Y646345D02*
G03*
X316900Y646450I7877J12168D01*
G01*
X317013Y677455D02*
G03*
X301100Y677350I-7877J-12168D01*
G01*
X397487Y646345D02*
G03*
X413400Y646450I7877J12168D01*
G01*
X413512Y677455D02*
G03*
X397600Y677350I-7877J-12168D01*
G01*
X493987Y646345D02*
G03*
X509900Y646450I7877J12168D01*
G01*
X510013Y677455D02*
G03*
X494100Y677350I-7877J-12168D01*
G01*
X180588Y655346D02*
G03*
X196500Y655450I7877J12168D01*
G01*
X196612Y686454D02*
G03*
X180700Y686350I-7877J-12168D01*
G01*
X276938Y655345D02*
G03*
X292850Y655450I7877J12168D01*
G01*
X292962Y686454D02*
G03*
X277050Y686350I-7877J-12168D01*
G01*
X373288Y655346D02*
G03*
X389200Y655450I7877J12168D01*
G01*
X389313Y686454D02*
G03*
X373400Y686350I-7877J-12168D01*
G01*
X469637Y655345D02*
G03*
X485550Y655450I7877J12168D01*
G01*
X485662Y686454D02*
G03*
X469750Y686350I-7877J-12168D01*
G01*
X217138Y541345D02*
G03*
X233050Y541450I7877J12168D01*
G01*
X233162Y572454D02*
G03*
X217250Y572350I-7877J-12168D01*
G01*
X314537Y541345D02*
G03*
X330450Y541450I7877J12168D01*
G01*
X330563Y572454D02*
G03*
X314650Y572350I-7877J-12168D01*
G01*
X411937Y541345D02*
G03*
X427850Y541450I7877J12168D01*
G01*
X427962Y572454D02*
G03*
X412050Y572350I-7877J-12168D01*
G01*
X509337Y541345D02*
G03*
X525250Y541450I7877J12168D01*
G01*
X525363Y572454D02*
G03*
X509450Y572350I-7877J-12168D01*
G01*
X130350Y827300D02*
Y832600D01*
X133150Y827300D02*
Y832600D01*
X116250Y822000D02*
X147000D01*
X116250Y838000D02*
X147000D01*
X293350Y773800D02*
Y779100D01*
X296150Y773800D02*
Y779100D01*
X279250Y768500D02*
X310000D01*
X279250Y784500D02*
X310000D01*
X506900Y789150D02*
Y794450D01*
X504100Y789150D02*
Y794450D01*
X490250Y799750D02*
X521000D01*
X490250Y783750D02*
X521000D01*
X130350Y850800D02*
Y856100D01*
X133150Y850800D02*
Y856100D01*
X116250Y845500D02*
X147000D01*
X116250Y861500D02*
X147000D01*
X125050Y558150D02*
X130350D01*
X125050Y555350D02*
X130350D01*
X119750Y541500D02*
Y572250D01*
X135750Y541500D02*
Y572250D01*
X571300Y671900D02*
X576600D01*
X571300Y669100D02*
X576600D01*
X566000Y655250D02*
Y686000D01*
X582000Y655250D02*
Y686000D01*
X595800Y663150D02*
X601100D01*
X595800Y660350D02*
X601100D01*
X590500Y646500D02*
Y677250D01*
X606500Y646500D02*
Y677250D01*
X612050Y558150D02*
X617350D01*
X612050Y555350D02*
X617350D01*
X606750Y541500D02*
Y572250D01*
X622750Y541500D02*
Y572250D01*
X113300Y663150D02*
X118600D01*
X113300Y660350D02*
X118600D01*
X108000Y646500D02*
Y677250D01*
X124000Y646500D02*
Y677250D01*
X89550Y672150D02*
X94850D01*
X89550Y669350D02*
X94850D01*
X84250Y655500D02*
Y686250D01*
X100250Y655500D02*
Y686250D01*
X367400Y773900D02*
Y779200D01*
X364600Y773900D02*
Y779200D01*
X350750Y784500D02*
X381500D01*
X350750Y768500D02*
X381500D01*
X506900Y839650D02*
Y844950D01*
X504100Y839650D02*
Y844950D01*
X490250Y850250D02*
X521000D01*
X490250Y834250D02*
X521000D01*
X220500Y646500D02*
Y677250D01*
X204500Y646500D02*
Y677250D01*
X209800Y660350D02*
X215100D01*
X209800Y663150D02*
X215100D01*
X317000Y646500D02*
Y677250D01*
X301000Y646500D02*
Y677250D01*
X306300Y660350D02*
X311600D01*
X306300Y663150D02*
X311600D01*
X413500Y646500D02*
Y677250D01*
X397500Y646500D02*
Y677250D01*
X402800Y660350D02*
X408100D01*
X402800Y663150D02*
X408100D01*
X510000Y646500D02*
Y677250D01*
X494000Y646500D02*
Y677250D01*
X499300Y660350D02*
X504600D01*
X499300Y663150D02*
X504600D01*
X196600Y655500D02*
Y686250D01*
X180600Y655500D02*
Y686250D01*
X185900Y669350D02*
X191200D01*
X185900Y672150D02*
X191200D01*
X292950Y655500D02*
Y686250D01*
X276950Y655500D02*
Y686250D01*
X282250Y669350D02*
X287550D01*
X282250Y672150D02*
X287550D01*
X389300Y655500D02*
Y686250D01*
X373300Y655500D02*
Y686250D01*
X378600Y669350D02*
X383900D01*
X378600Y672150D02*
X383900D01*
X485650Y655500D02*
Y686250D01*
X469650Y655500D02*
Y686250D01*
X474950Y669350D02*
X480250D01*
X474950Y672150D02*
X480250D01*
X233150Y541500D02*
Y572250D01*
X217150Y541500D02*
Y572250D01*
X222450Y555350D02*
X227750D01*
X222450Y558150D02*
X227750D01*
X330550Y541500D02*
Y572250D01*
X314550Y541500D02*
Y572250D01*
X319850Y555350D02*
X325150D01*
X319850Y558150D02*
X325150D01*
X427950Y541500D02*
Y572250D01*
X411950Y541500D02*
Y572250D01*
X417250Y555350D02*
X422550D01*
X417250Y558150D02*
X422550D01*
X525350Y541500D02*
Y572250D01*
X509350Y541500D02*
Y572250D01*
X514650Y555350D02*
X519950D01*
X514650Y558150D02*
X519950D01*
D11*
X542166Y606150D02*
G03*
X542166Y612246I0J3048D01*
G01*
X61050Y604900D02*
G03*
X61050Y610996I0J3048D01*
G01*
X157273Y604900D02*
G03*
X157273Y610996I0J3048D01*
G01*
X253496Y604900D02*
G03*
X253496Y610996I0J3048D01*
G01*
X349720Y604900D02*
G03*
X349720Y610996I0J3048D01*
G01*
X445943Y604900D02*
G03*
X445943Y610996I0J3048D01*
G01*
D12*
X608250Y537750D02*
G03*
X608250Y537750I-1000J0D01*
G01*
X121750Y535500D02*
G03*
X121750Y535500I-1000J0D01*
G01*
X166000Y783250D02*
G03*
X166000Y783250I-1000J0D01*
G01*
X617000Y781000D02*
G03*
X617000Y781000I-1000J0D01*
G01*
X416250Y783250D02*
G03*
X416250Y783250I-1000J0D01*
G01*
X217750Y971900D02*
G03*
X217750Y984600I0J6350D01*
G01*
X488750Y395385D02*
G03*
X488750Y395385I-1000J0D01*
G01*
X288750Y403369D02*
G03*
X288750Y403369I-1000J0D01*
G01*
X88000D02*
G03*
X88000Y403369I-1000J0D01*
G01*
X55000Y483131D02*
G03*
X55000Y483131I-1000J0D01*
G01*
X454500D02*
G03*
X454500Y483131I-1000J0D01*
G01*
X254250D02*
G03*
X254250Y483131I-1000J0D01*
G01*
X219050Y536250D02*
G03*
X219050Y536250I-1000J0D01*
G01*
X316350Y537750D02*
G03*
X316350Y537750I-1000J0D01*
G01*
X413650D02*
G03*
X413650Y537750I-1000J0D01*
G01*
X510950D02*
G03*
X510950Y537750I-1000J0D01*
G01*
X394000Y805500D02*
X406750D01*
X402500Y809750D02*
X406750Y805500D01*
X402250Y801000D02*
X406750Y805500D01*
X245000Y843750D02*
X249250Y839500D01*
X245000Y843750D02*
X249500Y848250D01*
X245000Y843750D02*
X257750D01*
X399500Y956500D02*
Y976500D01*
Y956500D02*
X410500D01*
Y976500D01*
X399500D02*
X410500D01*
X385750Y956500D02*
Y976500D01*
Y956500D02*
X396750D01*
Y976500D01*
X385750D02*
X396750D01*
X352500Y956500D02*
Y976500D01*
Y956500D02*
X363500D01*
Y976500D01*
X352500D02*
X363500D01*
X338500Y956500D02*
Y976500D01*
Y956500D02*
X349500D01*
Y976500D01*
X338500D02*
X349500D01*
X597500Y628250D02*
Y639250D01*
X617500D01*
Y628250D02*
Y639250D01*
X597500Y628250D02*
X617500D01*
X404600D02*
Y639250D01*
X424600D01*
Y628250D02*
Y639250D01*
X404600Y628250D02*
X424600D01*
X501050D02*
Y639250D01*
X521050D01*
Y628250D02*
Y639250D01*
X501050Y628250D02*
X521050D01*
X308150D02*
Y639250D01*
X328150D01*
Y628250D02*
Y639250D01*
X308150Y628250D02*
X328150D01*
X211700D02*
Y639250D01*
X231700D01*
Y628250D02*
Y639250D01*
X211700Y628250D02*
X231700D01*
X115250D02*
Y639250D01*
X135250D01*
Y628250D02*
Y639250D01*
X115250Y628250D02*
X135250D01*
X317750Y1033750D02*
Y1044750D01*
X297750Y1033750D02*
X317750D01*
X297750D02*
Y1044750D01*
X317750D01*
X293833Y1033750D02*
Y1044750D01*
X273833Y1033750D02*
X293833D01*
X273833D02*
Y1044750D01*
X293833D01*
X246000Y1033750D02*
Y1044750D01*
X226000Y1033750D02*
X246000D01*
X226000D02*
Y1044750D01*
X246000D01*
X269917Y1033750D02*
Y1044750D01*
X249917Y1033750D02*
X269917D01*
X249917D02*
Y1044750D01*
X269917D01*
X151250Y980750D02*
Y991750D01*
X131250Y980750D02*
X151250D01*
X131250D02*
Y991750D01*
X151250D01*
X174500Y980750D02*
Y991750D01*
X154500Y980750D02*
X174500D01*
X154500D02*
Y991750D01*
X174500D01*
X151250Y965750D02*
Y976750D01*
X131250Y965750D02*
X151250D01*
X131250D02*
Y976750D01*
X151250D01*
X174500Y965750D02*
Y976750D01*
X154500Y965750D02*
X174500D01*
X154500D02*
Y976750D01*
X174500D01*
X-22766Y990434D02*
X31420D01*
X-27000Y986200D02*
X-22766Y981967D01*
X31420D01*
X-27000Y986200D02*
X-22766Y990434D01*
X61900Y922700D02*
Y1049700D01*
X31420Y922700D02*
X61900D01*
X-27000Y960800D02*
X-22766Y965034D01*
X-27000Y935400D02*
X-22766Y939634D01*
X-27000Y935400D02*
X-22766Y931167D01*
Y956567D02*
X31420D01*
X-27000Y960800D02*
X-22766Y956567D01*
Y965034D02*
X31420D01*
X-22766Y939634D02*
X31420D01*
X-22766Y931167D02*
X31420D01*
Y922700D02*
Y1049700D01*
X61900Y922700D02*
X112700D01*
Y1049700D01*
X-27000Y1011600D02*
X-22766Y1015834D01*
Y1007367D02*
X31420D01*
X-27000Y1011600D02*
X-22766Y1007367D01*
Y1015834D02*
X31420D01*
X-27000Y1037000D02*
X-22766Y1041234D01*
Y1032767D02*
X31420D01*
X-27000Y1037000D02*
X-22766Y1032767D01*
Y1041234D02*
X31420D01*
Y1049700D02*
X112700D01*
X552250Y665750D02*
X563250D01*
X552250D02*
Y685750D01*
X563250D01*
Y665750D02*
Y685750D01*
X71000Y665750D02*
X82000D01*
X71000D02*
Y685750D01*
X82000D01*
Y665750D02*
Y685750D01*
X56250Y720250D02*
Y726250D01*
X23250Y720250D02*
Y726250D01*
X603750Y720250D02*
Y726250D01*
X570750Y720250D02*
Y726250D01*
X430750Y770250D02*
Y781250D01*
X450750D01*
Y770250D02*
Y781250D01*
X430750Y770250D02*
X450750D01*
X388500Y827300D02*
Y852700D01*
X261500Y827300D02*
X388500D01*
X261500Y852700D02*
X388500D01*
X261500Y827300D02*
Y852700D01*
X388750Y791800D02*
Y817200D01*
X261750Y791800D02*
X388750D01*
X261750Y817200D02*
X388750D01*
X261750Y791800D02*
Y817200D01*
X179750Y771250D02*
Y782250D01*
X199750D01*
Y771250D02*
Y782250D01*
X179750Y771250D02*
X199750D01*
X155250Y795500D02*
Y806500D01*
X135250Y795500D02*
X155250D01*
X135250D02*
Y806500D01*
X155250D01*
X427250Y1032900D02*
X438250D01*
Y1012900D02*
Y1032900D01*
X427250Y1012900D02*
X438250D01*
X427250D02*
Y1032900D01*
X412652Y1032000D02*
X422652D01*
X490500Y1032400D02*
X501500D01*
Y1012400D02*
Y1032400D01*
X490500Y1012400D02*
X501500D01*
X490500D02*
Y1032400D01*
X475701Y1031500D02*
X485701D01*
X602000Y75750D02*
X613000D01*
X602000D02*
Y95750D01*
X613000D01*
Y75750D02*
Y95750D01*
X602556Y135250D02*
X612556D01*
X568750Y847000D02*
X574750D01*
X568750Y880000D02*
X574750D01*
X393500Y788500D02*
X404500D01*
Y768500D02*
Y788500D01*
X393500Y768500D02*
X404500D01*
X393500D02*
Y788500D01*
X320750Y951750D02*
Y1004750D01*
X217750Y984600D02*
Y1004750D01*
Y951750D02*
Y971900D01*
Y1004750D02*
X320750D01*
X217750Y951750D02*
X320750D01*
X528300Y922700D02*
X579100D01*
X528300Y1049700D02*
X579100D01*
Y922700D02*
Y1049700D01*
X528300Y922700D02*
Y1049700D01*
X579100Y922700D02*
X668000D01*
Y1049700D01*
X579100D02*
X668000D01*
X178250Y665750D02*
Y685750D01*
X167250D02*
X178250D01*
X167250Y665750D02*
Y685750D01*
Y665750D02*
X178250D01*
X274500D02*
Y685750D01*
X263500D02*
X274500D01*
X263500Y665750D02*
Y685750D01*
Y665750D02*
X274500D01*
X370750D02*
Y685750D01*
X359750D02*
X370750D01*
X359750Y665750D02*
Y685750D01*
Y665750D02*
X370750D01*
X467000D02*
Y685750D01*
X456000D02*
X467000D01*
X456000Y665750D02*
Y685750D01*
Y665750D02*
X467000D01*
X465250Y285750D02*
X471250D01*
X465250Y252750D02*
X471250D01*
X465250Y243250D02*
X471250D01*
X465250Y210250D02*
X471250D01*
X112750Y243250D02*
X118750D01*
X112750Y210250D02*
X118750D01*
X112750Y285750D02*
X118750D01*
X112750Y252750D02*
X118750D01*
X182500Y243250D02*
X188500D01*
X182500Y210250D02*
X188500D01*
X183250Y285750D02*
X189250D01*
X183250Y252750D02*
X189250D01*
X253750Y243250D02*
X259750D01*
X253750Y210250D02*
X259750D01*
X253750Y285750D02*
X259750D01*
X253750Y252750D02*
X259750D01*
X324250Y243250D02*
X330250D01*
X324250Y210250D02*
X330250D01*
X324250Y285750D02*
X330250D01*
X324250Y252750D02*
X330250D01*
X394750Y243500D02*
X400750D01*
X394750Y210500D02*
X400750D01*
X394750Y285750D02*
X400750D01*
X394750Y252750D02*
X400750D01*
X471204Y720250D02*
Y726250D01*
X504204Y720250D02*
Y726250D01*
X321886Y720250D02*
Y726250D01*
X354886Y720250D02*
Y726250D01*
X222341Y720250D02*
Y726250D01*
X255341Y720250D02*
Y726250D01*
X122795Y720250D02*
Y726250D01*
X155795Y720250D02*
Y726250D01*
X520977Y720250D02*
Y726250D01*
X553977Y720250D02*
Y726250D01*
X421432Y720250D02*
Y726250D01*
X454432Y720250D02*
Y726250D01*
X371659Y720250D02*
Y726250D01*
X404659Y720250D02*
Y726250D01*
X272114Y720250D02*
Y726250D01*
X305114Y720250D02*
Y726250D01*
X172568Y720250D02*
Y726250D01*
X205568Y720250D02*
Y726250D01*
X73023Y720250D02*
Y726250D01*
X106023Y720250D02*
Y726250D01*
X458003Y1021000D02*
X464667D01*
X466000Y1022333D01*
Y1024999D01*
X464667Y1026332D01*
X458003D01*
X466000Y1028997D02*
Y1031663D01*
Y1030330D01*
X458003D01*
X459336Y1028997D01*
X395753Y1017750D02*
X402417D01*
X403750Y1019083D01*
Y1021749D01*
X402417Y1023082D01*
X395753D01*
X403750Y1031079D02*
Y1025747D01*
X398418Y1031079D01*
X397085D01*
X395753Y1029746D01*
Y1027080D01*
X397085Y1025747D01*
X402500Y992247D02*
Y985583D01*
X403833Y984250D01*
X406499D01*
X407832Y985583D01*
Y992247D01*
X410497Y984250D02*
X413163D01*
X411830D01*
Y992247D01*
X410497Y990915D01*
X383000Y992247D02*
Y985583D01*
X384333Y984250D01*
X386999D01*
X388332Y985583D01*
Y992247D01*
X396329Y984250D02*
X390997D01*
X396329Y989582D01*
Y990915D01*
X394996Y992247D01*
X392330D01*
X390997Y990915D01*
X336250Y992247D02*
Y985583D01*
X337583Y984250D01*
X340249D01*
X341582Y985583D01*
Y992247D01*
X349579Y984250D02*
X344247D01*
X349579Y989582D01*
Y990915D01*
X348246Y992247D01*
X345580D01*
X344247Y990915D01*
X355750Y992247D02*
Y985583D01*
X357083Y984250D01*
X359749D01*
X361082Y985583D01*
Y992247D01*
X363747Y984250D02*
X366413D01*
X365080D01*
Y992247D01*
X363747Y990915D01*
X184750Y970997D02*
Y964333D01*
X186083Y963000D01*
X188749D01*
X190082Y964333D01*
Y970997D01*
X198079Y963000D02*
X192747D01*
X198079Y968332D01*
Y969665D01*
X196746Y970997D01*
X194080D01*
X192747Y969665D01*
X185250Y991747D02*
Y985083D01*
X186583Y983750D01*
X189249D01*
X190582Y985083D01*
Y991747D01*
X193247Y983750D02*
X195913D01*
X194580D01*
Y991747D01*
X193247Y990415D01*
X165750Y1004415D02*
X167083Y1005747D01*
X169749D01*
X171082Y1004415D01*
Y999083D01*
X169749Y997750D01*
X167083D01*
X165750Y999083D01*
Y1004415D01*
X141500Y997750D02*
X144166D01*
X142833D01*
Y1005747D01*
X141500Y1004415D01*
X553586Y30999D02*
Y24001D01*
X557085D01*
X558251Y25167D01*
Y29833D01*
X557085Y30999D01*
X553586D01*
X565249Y29833D02*
X564083Y30999D01*
X561750D01*
X560584Y29833D01*
Y25167D01*
X561750Y24001D01*
X564083D01*
X565249Y25167D01*
Y27500D01*
X562916D01*
X567581Y24001D02*
X569914D01*
X568748D01*
Y30999D01*
X567581Y29833D01*
X53418Y1063749D02*
X58084Y1056751D01*
Y1063749D02*
X53418Y1056751D01*
X63915D02*
Y1063749D01*
X60416Y1060250D01*
X65082D01*
X565168Y1068499D02*
X569834Y1061501D01*
Y1068499D02*
X565168Y1061501D01*
X572166Y1067333D02*
X573333Y1068499D01*
X575665D01*
X576832Y1067333D01*
Y1066166D01*
X575665Y1065000D01*
X574499D01*
X575665D01*
X576832Y1063834D01*
Y1062667D01*
X575665Y1061501D01*
X573333D01*
X572166Y1062667D01*
X237251Y820169D02*
X243083D01*
X244249Y821335D01*
Y823667D01*
X243083Y824834D01*
X237251D01*
X244249Y831832D02*
Y827166D01*
X239584Y831832D01*
X238417D01*
X237251Y830665D01*
Y828333D01*
X238417Y827166D01*
X488751Y820335D02*
X494583D01*
X495749Y821501D01*
Y823834D01*
X494583Y825000D01*
X488751D01*
X495749Y827333D02*
Y829665D01*
Y828499D01*
X488751D01*
X489917Y827333D01*
X44668Y591173D02*
X50499D01*
X51666Y592339D01*
Y594672D01*
X50499Y595838D01*
X44668D01*
X45834Y598171D02*
X44668Y599337D01*
Y601670D01*
X45834Y602836D01*
X47000D01*
X48167Y601670D01*
Y600503D01*
Y601670D01*
X49333Y602836D01*
X50499D01*
X51666Y601670D01*
Y599337D01*
X50499Y598171D01*
X52832Y605168D02*
Y609834D01*
X47000Y616832D02*
Y613333D01*
X48167Y612166D01*
X50499D01*
X51666Y613333D01*
Y616832D01*
X44668Y619164D02*
X51666D01*
X48167D01*
X47000Y620330D01*
Y622663D01*
X48167Y623829D01*
X51666D01*
X44668Y630827D02*
X45834Y628494D01*
X48167Y626162D01*
X50499D01*
X51666Y627328D01*
Y629661D01*
X50499Y630827D01*
X49333D01*
X48167Y629661D01*
Y626162D01*
X525918Y592339D02*
X531749D01*
X532916Y593506D01*
Y595838D01*
X531749Y597005D01*
X525918D01*
X527084Y599337D02*
X525918Y600503D01*
Y602836D01*
X527084Y604002D01*
X528251D01*
X529417Y602836D01*
Y601670D01*
Y602836D01*
X530583Y604002D01*
X531749D01*
X532916Y602836D01*
Y600503D01*
X531749Y599337D01*
X534082Y606335D02*
Y611000D01*
X528251Y617998D02*
Y614499D01*
X529417Y613333D01*
X531749D01*
X532916Y614499D01*
Y617998D01*
X525918Y620330D02*
X532916D01*
X529417D01*
X528251Y621497D01*
Y623829D01*
X529417Y624995D01*
X532916D01*
Y627328D02*
Y629661D01*
Y628494D01*
X525918D01*
X527084Y627328D01*
X207000Y1013833D02*
X205834Y1014999D01*
X203501D01*
X202335Y1013833D01*
Y1012666D01*
X203501Y1011500D01*
X205834D01*
X207000Y1010334D01*
Y1009167D01*
X205834Y1008001D01*
X203501D01*
X202335Y1009167D01*
X209333Y1008001D02*
X211665D01*
X210499D01*
Y1014999D01*
X209333Y1013833D01*
X43916Y648923D02*
X36918D01*
Y652422D01*
X38084Y653588D01*
X40417D01*
X41583Y652422D01*
Y648923D01*
Y651256D02*
X43916Y653588D01*
Y660586D02*
Y655921D01*
X39251Y660586D01*
X38084D01*
X36918Y659420D01*
Y657087D01*
X38084Y655921D01*
X45082Y662919D02*
Y667584D01*
X39251Y674582D02*
Y671083D01*
X40417Y669916D01*
X42749D01*
X43916Y671083D01*
Y674582D01*
X36918Y676914D02*
X43916D01*
X40417D01*
X39251Y678080D01*
Y680413D01*
X40417Y681579D01*
X43916D01*
X36918Y688577D02*
X38084Y686244D01*
X40417Y683912D01*
X42749D01*
X43916Y685078D01*
Y687411D01*
X42749Y688577D01*
X41583D01*
X40417Y687411D01*
Y683912D01*
X527916Y650839D02*
X520918D01*
Y654338D01*
X522084Y655505D01*
X524417D01*
X525583Y654338D01*
Y650839D01*
Y653172D02*
X527916Y655505D01*
Y662502D02*
Y657837D01*
X523251Y662502D01*
X522084D01*
X520918Y661336D01*
Y659003D01*
X522084Y657837D01*
X529082Y664835D02*
Y669500D01*
X523251Y676498D02*
Y672999D01*
X524417Y671833D01*
X526749D01*
X527916Y672999D01*
Y676498D01*
X520918Y678830D02*
X527916D01*
X524417D01*
X523251Y679997D01*
Y682329D01*
X524417Y683495D01*
X527916D01*
Y685828D02*
Y688161D01*
Y686994D01*
X520918D01*
X522084Y685828D01*
X114256Y503332D02*
Y496334D01*
X118921D01*
X121254D02*
X123587D01*
X122420D01*
Y503332D01*
X121254Y502166D01*
X127085Y495168D02*
X131751D01*
X138748Y500999D02*
X135249D01*
X134083Y499833D01*
Y497501D01*
X135249Y496334D01*
X138748D01*
X141081Y503332D02*
Y496334D01*
Y499833D01*
X142247Y500999D01*
X144580D01*
X145746Y499833D01*
Y496334D01*
X152744Y503332D02*
X150411Y502166D01*
X148079Y499833D01*
Y497501D01*
X149245Y496334D01*
X151578D01*
X152744Y497501D01*
Y498667D01*
X151578Y499833D01*
X148079D01*
X139506Y385832D02*
Y378834D01*
X144171D01*
X146504D02*
X148836D01*
X147670D01*
Y385832D01*
X146504Y384666D01*
X152335Y377668D02*
X157001D01*
X163998Y383499D02*
X160499D01*
X159333Y382333D01*
Y380001D01*
X160499Y378834D01*
X163998D01*
X166331Y385832D02*
Y378834D01*
Y382333D01*
X167497Y383499D01*
X169830D01*
X170996Y382333D01*
Y378834D01*
X177994Y385832D02*
X173329D01*
Y382333D01*
X175661Y383499D01*
X176828D01*
X177994Y382333D01*
Y380001D01*
X176828Y378834D01*
X174495D01*
X173329Y380001D01*
X302756Y501832D02*
Y494834D01*
X307421D01*
X309754D02*
X312087D01*
X310920D01*
Y501832D01*
X309754Y500666D01*
X315585Y493668D02*
X320251D01*
X327248Y499500D02*
X323749D01*
X322583Y498333D01*
Y496001D01*
X323749Y494834D01*
X327248D01*
X329581Y501832D02*
Y494834D01*
Y498333D01*
X330747Y499500D01*
X333080D01*
X334246Y498333D01*
Y494834D01*
X340078D02*
Y501832D01*
X336579Y498333D01*
X341244D01*
X345256Y381332D02*
Y374334D01*
X349921D01*
X352254D02*
X354586D01*
X353420D01*
Y381332D01*
X352254Y380166D01*
X358085Y373168D02*
X362751D01*
X369748Y378999D02*
X366250D01*
X365083Y377833D01*
Y375501D01*
X366250Y374334D01*
X369748D01*
X372081Y381332D02*
Y374334D01*
Y377833D01*
X373247Y378999D01*
X375580D01*
X376746Y377833D01*
Y374334D01*
X379079Y380166D02*
X380245Y381332D01*
X382578D01*
X383744Y380166D01*
Y378999D01*
X382578Y377833D01*
X381411D01*
X382578D01*
X383744Y376667D01*
Y375501D01*
X382578Y374334D01*
X380245D01*
X379079Y375501D01*
X509256Y501832D02*
Y494834D01*
X513921D01*
X516254D02*
X518587D01*
X517420D01*
Y501832D01*
X516254Y500666D01*
X522085Y493668D02*
X526751D01*
X533748Y499500D02*
X530249D01*
X529083Y498333D01*
Y496001D01*
X530249Y494834D01*
X533748D01*
X536081Y501832D02*
Y494834D01*
Y498333D01*
X537247Y499500D01*
X539580D01*
X540746Y498333D01*
Y494834D01*
X547744D02*
X543079D01*
X547744Y499500D01*
Y500666D01*
X546577Y501832D01*
X544245D01*
X543079Y500666D01*
X549422Y382332D02*
Y375334D01*
X554088D01*
X556420D02*
X558753D01*
X557587D01*
Y382332D01*
X556420Y381166D01*
X562252Y374168D02*
X566917D01*
X573915Y380000D02*
X570416D01*
X569249Y378833D01*
Y376501D01*
X570416Y375334D01*
X573915D01*
X576247Y382332D02*
Y375334D01*
Y378833D01*
X577413Y380000D01*
X579746D01*
X580912Y378833D01*
Y375334D01*
X583245D02*
X585578D01*
X584411D01*
Y382332D01*
X583245Y381166D01*
X31668Y516923D02*
X38666D01*
Y520422D01*
X37499Y521588D01*
X32834D01*
X31668Y520422D01*
Y516923D01*
X38666Y528586D02*
Y523921D01*
X34000Y528586D01*
X32834D01*
X31668Y527420D01*
Y525087D01*
X32834Y523921D01*
X39832Y530919D02*
Y535584D01*
X34000Y542581D02*
Y539083D01*
X35167Y537916D01*
X37499D01*
X38666Y539083D01*
Y542581D01*
X31668Y544914D02*
X38666D01*
X35167D01*
X34000Y546080D01*
Y548413D01*
X35167Y549579D01*
X38666D01*
X31668Y556577D02*
X32834Y554244D01*
X35167Y551912D01*
X37499D01*
X38666Y553078D01*
Y555411D01*
X37499Y556577D01*
X36333D01*
X35167Y555411D01*
Y551912D01*
X543339Y565082D02*
Y558084D01*
X546838D01*
X548004Y559251D01*
Y563916D01*
X546838Y565082D01*
X543339D01*
X555002Y558084D02*
X550337D01*
X555002Y562749D01*
Y563916D01*
X553836Y565082D01*
X551503D01*
X550337Y563916D01*
X557335Y556918D02*
X562000D01*
X568998Y562749D02*
X565499D01*
X564333Y561583D01*
Y559251D01*
X565499Y558084D01*
X568998D01*
X571330Y565082D02*
Y558084D01*
Y561583D01*
X572497Y562749D01*
X574829D01*
X575995Y561583D01*
Y558084D01*
X578328D02*
X580661D01*
X579494D01*
Y565082D01*
X578328Y563916D01*
X44918Y360756D02*
X51916D01*
Y364255D01*
X50749Y365421D01*
X46084D01*
X44918Y364255D01*
Y360756D01*
X51916Y367754D02*
Y370087D01*
Y368920D01*
X44918D01*
X46084Y367754D01*
X53082Y373585D02*
Y378251D01*
X47251Y385248D02*
Y381749D01*
X48417Y380583D01*
X50749D01*
X51916Y381749D01*
Y385248D01*
X44918Y387581D02*
X51916D01*
X48417D01*
X47251Y388747D01*
Y391080D01*
X48417Y392246D01*
X51916D01*
X44918Y399244D02*
X46084Y396911D01*
X48417Y394579D01*
X50749D01*
X51916Y395745D01*
Y398078D01*
X50749Y399244D01*
X49583D01*
X48417Y398078D01*
Y394579D01*
X55668Y316506D02*
X62666D01*
Y320005D01*
X61499Y321171D01*
X56834D01*
X55668Y320005D01*
Y316506D01*
X62666Y323504D02*
Y325836D01*
Y324670D01*
X55668D01*
X56834Y323504D01*
X63832Y329335D02*
Y334001D01*
X58000Y340998D02*
Y337500D01*
X59167Y336333D01*
X61499D01*
X62666Y337500D01*
Y340998D01*
X55668Y343331D02*
X62666D01*
X59167D01*
X58000Y344497D01*
Y346830D01*
X59167Y347996D01*
X62666D01*
X55668Y354994D02*
Y350329D01*
X59167D01*
X58000Y352661D01*
Y353828D01*
X59167Y354994D01*
X61499D01*
X62666Y353828D01*
Y351495D01*
X61499Y350329D01*
X220668Y421756D02*
X227666D01*
Y425255D01*
X226499Y426421D01*
X221834D01*
X220668Y425255D01*
Y421756D01*
X227666Y428754D02*
Y431087D01*
Y429920D01*
X220668D01*
X221834Y428754D01*
X228832Y434585D02*
Y439251D01*
X223001Y446248D02*
Y442749D01*
X224167Y441583D01*
X226499D01*
X227666Y442749D01*
Y446248D01*
X220668Y448581D02*
X227666D01*
X224167D01*
X223001Y449747D01*
Y452080D01*
X224167Y453246D01*
X227666D01*
Y459077D02*
X220668D01*
X224167Y455579D01*
Y460244D01*
X255918Y340756D02*
X262916D01*
Y344255D01*
X261749Y345421D01*
X257084D01*
X255918Y344255D01*
Y340756D01*
X262916Y347754D02*
Y350087D01*
Y348920D01*
X255918D01*
X257084Y347754D01*
X264082Y353585D02*
Y358251D01*
X258251Y365248D02*
Y361749D01*
X259417Y360583D01*
X261749D01*
X262916Y361749D01*
Y365248D01*
X255918Y367581D02*
X262916D01*
X259417D01*
X258251Y368747D01*
Y371080D01*
X259417Y372246D01*
X262916D01*
X257084Y374579D02*
X255918Y375745D01*
Y378078D01*
X257084Y379244D01*
X258251D01*
X259417Y378078D01*
Y376911D01*
Y378078D01*
X260583Y379244D01*
X261749D01*
X262916Y378078D01*
Y375745D01*
X261749Y374579D01*
X420418Y423006D02*
X427416D01*
Y426505D01*
X426249Y427671D01*
X421584D01*
X420418Y426505D01*
Y423006D01*
X427416Y430004D02*
Y432337D01*
Y431170D01*
X420418D01*
X421584Y430004D01*
X428582Y435835D02*
Y440501D01*
X422751Y447498D02*
Y443999D01*
X423917Y442833D01*
X426249D01*
X427416Y443999D01*
Y447498D01*
X420418Y449831D02*
X427416D01*
X423917D01*
X422751Y450997D01*
Y453330D01*
X423917Y454496D01*
X427416D01*
Y461494D02*
Y456829D01*
X422751Y461494D01*
X421584D01*
X420418Y460327D01*
Y457995D01*
X421584Y456829D01*
X457168Y336922D02*
X464166D01*
Y340421D01*
X462999Y341588D01*
X458334D01*
X457168Y340421D01*
Y336922D01*
X464166Y343920D02*
Y346253D01*
Y345087D01*
X457168D01*
X458334Y343920D01*
X465332Y349752D02*
Y354417D01*
X459501Y361415D02*
Y357916D01*
X460667Y356749D01*
X462999D01*
X464166Y357916D01*
Y361415D01*
X457168Y363747D02*
X464166D01*
X460667D01*
X459501Y364913D01*
Y367246D01*
X460667Y368412D01*
X464166D01*
Y370745D02*
Y373078D01*
Y371911D01*
X457168D01*
X458334Y370745D01*
X129834Y653338D02*
X128668Y652172D01*
Y649839D01*
X129834Y648673D01*
X134499D01*
X135666Y649839D01*
Y652172D01*
X134499Y653338D01*
X128668Y655671D02*
Y660336D01*
X129834D01*
X134499Y655671D01*
X135666D01*
X136832Y662669D02*
Y667334D01*
X131001Y674332D02*
Y670833D01*
X132167Y669666D01*
X134499D01*
X135666Y670833D01*
Y674332D01*
X128668Y676664D02*
X135666D01*
X132167D01*
X131001Y677830D01*
Y680163D01*
X132167Y681329D01*
X135666D01*
X128668Y688327D02*
X129834Y685994D01*
X132167Y683662D01*
X134499D01*
X135666Y684828D01*
Y687161D01*
X134499Y688327D01*
X133333D01*
X132167Y687161D01*
Y683662D01*
X614334Y652254D02*
X613168Y651088D01*
Y648756D01*
X614334Y647589D01*
X618999D01*
X620166Y648756D01*
Y651088D01*
X618999Y652254D01*
X613168Y654587D02*
Y659252D01*
X614334D01*
X618999Y654587D01*
X620166D01*
X621332Y661585D02*
Y666250D01*
X615500Y673248D02*
Y669749D01*
X616667Y668583D01*
X618999D01*
X620166Y669749D01*
Y673248D01*
X613168Y675580D02*
X620166D01*
X616667D01*
X615500Y676747D01*
Y679079D01*
X616667Y680246D01*
X620166D01*
Y682578D02*
Y684911D01*
Y683744D01*
X613168D01*
X614334Y682578D01*
X37338Y230166D02*
X36172Y231332D01*
X33839D01*
X32673Y230166D01*
Y225501D01*
X33839Y224334D01*
X36172D01*
X37338Y225501D01*
X44336Y231332D02*
X42003Y230166D01*
X39671Y227833D01*
Y225501D01*
X40837Y224334D01*
X43170D01*
X44336Y225501D01*
Y226667D01*
X43170Y227833D01*
X39671D01*
X46669Y223168D02*
X51334D01*
X58331Y228999D02*
X54833D01*
X53666Y227833D01*
Y225501D01*
X54833Y224334D01*
X58331D01*
X60664Y231332D02*
Y224334D01*
Y227833D01*
X61830Y228999D01*
X64163D01*
X65329Y227833D01*
Y224334D01*
X72327Y231332D02*
X69994Y230166D01*
X67662Y227833D01*
Y225501D01*
X68828Y224334D01*
X71161D01*
X72327Y225501D01*
Y226667D01*
X71161Y227833D01*
X67662D01*
X514005Y230666D02*
X512838Y231832D01*
X510506D01*
X509339Y230666D01*
Y226001D01*
X510506Y224834D01*
X512838D01*
X514005Y226001D01*
X521002Y231832D02*
X518670Y230666D01*
X516337Y228333D01*
Y226001D01*
X517503Y224834D01*
X519836D01*
X521002Y226001D01*
Y227167D01*
X519836Y228333D01*
X516337D01*
X523335Y223668D02*
X528000D01*
X534998Y229499D02*
X531499D01*
X530333Y228333D01*
Y226001D01*
X531499Y224834D01*
X534998D01*
X537330Y231832D02*
Y224834D01*
Y228333D01*
X538497Y229499D01*
X540829D01*
X541996Y228333D01*
Y224834D01*
X544328D02*
X546661D01*
X545494D01*
Y231832D01*
X544328Y230666D01*
X38088Y271916D02*
X36922Y273082D01*
X34589D01*
X33423Y271916D01*
Y267251D01*
X34589Y266084D01*
X36922D01*
X38088Y267251D01*
X45086Y273082D02*
X40421D01*
Y269583D01*
X42753Y270749D01*
X43920D01*
X45086Y269583D01*
Y267251D01*
X43920Y266084D01*
X41587D01*
X40421Y267251D01*
X47418Y264918D02*
X52084D01*
X59082Y270749D02*
X55583D01*
X54416Y269583D01*
Y267251D01*
X55583Y266084D01*
X59082D01*
X61414Y273082D02*
Y266084D01*
Y269583D01*
X62580Y270749D01*
X64913D01*
X66079Y269583D01*
Y266084D01*
X73077Y273082D02*
X70744Y271916D01*
X68412Y269583D01*
Y267251D01*
X69578Y266084D01*
X71911D01*
X73077Y267251D01*
Y268417D01*
X71911Y269583D01*
X68412D01*
X515005Y273916D02*
X513838Y275082D01*
X511506D01*
X510339Y273916D01*
Y269251D01*
X511506Y268084D01*
X513838D01*
X515005Y269251D01*
X522002Y275082D02*
X517337D01*
Y271583D01*
X519670Y272749D01*
X520836D01*
X522002Y271583D01*
Y269251D01*
X520836Y268084D01*
X518503D01*
X517337Y269251D01*
X524335Y266918D02*
X529000D01*
X535998Y272749D02*
X532499D01*
X531333Y271583D01*
Y269251D01*
X532499Y268084D01*
X535998D01*
X538330Y275082D02*
Y268084D01*
Y271583D01*
X539497Y272749D01*
X541829D01*
X542995Y271583D01*
Y268084D01*
X545328D02*
X547661D01*
X546494D01*
Y275082D01*
X545328Y273916D01*
X52084Y653088D02*
X50918Y651922D01*
Y649589D01*
X52084Y648423D01*
X56749D01*
X57916Y649589D01*
Y651922D01*
X56749Y653088D01*
X57916Y660086D02*
Y655421D01*
X53250Y660086D01*
X52084D01*
X50918Y658920D01*
Y656587D01*
X52084Y655421D01*
X59082Y662419D02*
Y667084D01*
X53250Y674081D02*
Y670583D01*
X54417Y669416D01*
X56749D01*
X57916Y670583D01*
Y674081D01*
X50918Y676414D02*
X57916D01*
X54417D01*
X53250Y677580D01*
Y679913D01*
X54417Y681079D01*
X57916D01*
X50918Y688077D02*
X52084Y685744D01*
X54417Y683412D01*
X56749D01*
X57916Y684578D01*
Y686911D01*
X56749Y688077D01*
X55583D01*
X54417Y686911D01*
Y683412D01*
X535584Y655255D02*
X534418Y654088D01*
Y651756D01*
X535584Y650589D01*
X540249D01*
X541416Y651756D01*
Y654088D01*
X540249Y655255D01*
X541416Y662252D02*
Y657587D01*
X536750Y662252D01*
X535584D01*
X534418Y661086D01*
Y658753D01*
X535584Y657587D01*
X542582Y664585D02*
Y669250D01*
X536750Y676248D02*
Y672749D01*
X537917Y671583D01*
X540249D01*
X541416Y672749D01*
Y676248D01*
X534418Y678580D02*
X541416D01*
X537917D01*
X536750Y679747D01*
Y682079D01*
X537917Y683245D01*
X541416D01*
Y685578D02*
Y687911D01*
Y686744D01*
X534418D01*
X535584Y685578D01*
X142084Y563171D02*
X140918Y562005D01*
Y559673D01*
X142084Y558506D01*
X146749D01*
X147916Y559673D01*
Y562005D01*
X146749Y563171D01*
X147916Y565504D02*
Y567836D01*
Y566670D01*
X140918D01*
X142084Y565504D01*
X149082Y571335D02*
Y576001D01*
X143251Y582998D02*
Y579500D01*
X144417Y578333D01*
X146749D01*
X147916Y579500D01*
Y582998D01*
X140918Y585331D02*
X147916D01*
X144417D01*
X143251Y586497D01*
Y588830D01*
X144417Y589996D01*
X147916D01*
X140918Y596994D02*
X142084Y594661D01*
X144417Y592329D01*
X146749D01*
X147916Y593495D01*
Y595827D01*
X146749Y596994D01*
X145583D01*
X144417Y595827D01*
Y592329D01*
X613084Y499088D02*
X611918Y497921D01*
Y495589D01*
X613084Y494422D01*
X617749D01*
X618916Y495589D01*
Y497921D01*
X617749Y499088D01*
X618916Y501420D02*
Y503753D01*
Y502587D01*
X611918D01*
X613084Y501420D01*
X620082Y507252D02*
Y511917D01*
X614251Y518915D02*
Y515416D01*
X615417Y514249D01*
X617749D01*
X618916Y515416D01*
Y518915D01*
X611918Y521247D02*
X618916D01*
X615417D01*
X614251Y522413D01*
Y524746D01*
X615417Y525912D01*
X618916D01*
Y528245D02*
Y530578D01*
Y529411D01*
X611918D01*
X613084Y528245D01*
X436499Y987670D02*
X429501D01*
Y991169D01*
X430667Y992335D01*
X433000D01*
X434166Y991169D01*
Y987670D01*
Y990002D02*
X436499Y992335D01*
Y998166D02*
X429501D01*
X433000Y994667D01*
Y999333D01*
X430667Y1001665D02*
X429501Y1002831D01*
Y1005164D01*
X430667Y1006330D01*
X435333D01*
X436499Y1005164D01*
Y1002831D01*
X435333Y1001665D01*
X430667D01*
X498999Y985920D02*
X492001D01*
Y989418D01*
X493167Y990585D01*
X495500D01*
X496666Y989418D01*
Y985920D01*
Y988252D02*
X498999Y990585D01*
Y997583D02*
Y992917D01*
X494334Y997583D01*
X493167D01*
X492001Y996416D01*
Y994084D01*
X493167Y992917D01*
X497833Y999915D02*
X498999Y1001081D01*
Y1003414D01*
X497833Y1004580D01*
X493167D01*
X492001Y1003414D01*
Y1001081D01*
X493167Y999915D01*
X494334D01*
X495500Y1001081D01*
Y1004580D01*
X560086Y766749D02*
Y762084D01*
X562419Y759751D01*
X564751Y762084D01*
Y766749D01*
X567084Y759751D02*
Y766749D01*
X570583D01*
X571749Y765583D01*
Y763250D01*
X570583Y762084D01*
X567084D01*
X569416D02*
X571749Y759751D01*
X574081D02*
X576414D01*
X575248D01*
Y766749D01*
X574081Y765583D01*
X179920Y758501D02*
Y765499D01*
X183419D01*
X184585Y764333D01*
Y762000D01*
X183419Y760834D01*
X179920D01*
X182252D02*
X184585Y758501D01*
X186917Y764333D02*
X188084Y765499D01*
X190416D01*
X191583Y764333D01*
Y763166D01*
X190416Y762000D01*
X189250D01*
X190416D01*
X191583Y760834D01*
Y759667D01*
X190416Y758501D01*
X188084D01*
X186917Y759667D01*
X197414Y758501D02*
Y765499D01*
X193915Y762000D01*
X198580D01*
X135670Y780001D02*
Y786999D01*
X139169D01*
X140335Y785833D01*
Y783500D01*
X139169Y782334D01*
X135670D01*
X138002D02*
X140335Y780001D01*
X142667Y785833D02*
X143834Y786999D01*
X146166D01*
X147333Y785833D01*
Y784666D01*
X146166Y783500D01*
X145000D01*
X146166D01*
X147333Y782334D01*
Y781167D01*
X146166Y780001D01*
X143834D01*
X142667Y781167D01*
X154330Y786999D02*
X149665D01*
Y783500D01*
X151998Y784666D01*
X153164D01*
X154330Y783500D01*
Y781167D01*
X153164Y780001D01*
X150831D01*
X149665Y781167D01*
X298920Y1051501D02*
Y1058499D01*
X302418D01*
X303585Y1057333D01*
Y1055000D01*
X302418Y1053834D01*
X298920D01*
X301252D02*
X303585Y1051501D01*
X310583D02*
X305917D01*
X310583Y1056166D01*
Y1057333D01*
X309416Y1058499D01*
X307084D01*
X305917Y1057333D01*
X312915D02*
X314081Y1058499D01*
X316414D01*
X317580Y1057333D01*
Y1056166D01*
X316414Y1055000D01*
X317580Y1053834D01*
Y1052667D01*
X316414Y1051501D01*
X314081D01*
X312915Y1052667D01*
Y1053834D01*
X314081Y1055000D01*
X312915Y1056166D01*
Y1057333D01*
X314081Y1055000D02*
X316414D01*
X275670Y1051501D02*
Y1058499D01*
X279168D01*
X280335Y1057333D01*
Y1055000D01*
X279168Y1053834D01*
X275670D01*
X278002D02*
X280335Y1051501D01*
X287333D02*
X282667D01*
X287333Y1056166D01*
Y1057333D01*
X286166Y1058499D01*
X283834D01*
X282667Y1057333D01*
X289665Y1058499D02*
X294330D01*
Y1057333D01*
X289665Y1052667D01*
Y1051501D01*
X225420D02*
Y1058499D01*
X228918D01*
X230085Y1057333D01*
Y1055000D01*
X228918Y1053834D01*
X225420D01*
X227752D02*
X230085Y1051501D01*
X237083D02*
X232417D01*
X237083Y1056166D01*
Y1057333D01*
X235916Y1058499D01*
X233584D01*
X232417Y1057333D01*
X244080Y1058499D02*
X239415D01*
Y1055000D01*
X241748Y1056166D01*
X242914D01*
X244080Y1055000D01*
Y1052667D01*
X242914Y1051501D01*
X240581D01*
X239415Y1052667D01*
X251170Y1051501D02*
Y1058499D01*
X254669D01*
X255835Y1057333D01*
Y1055000D01*
X254669Y1053834D01*
X251170D01*
X253502D02*
X255835Y1051501D01*
X262833D02*
X258167D01*
X262833Y1056166D01*
Y1057333D01*
X261666Y1058499D01*
X259334D01*
X258167Y1057333D01*
X269830Y1058499D02*
X267498Y1057333D01*
X265165Y1055000D01*
Y1052667D01*
X266331Y1051501D01*
X268664D01*
X269830Y1052667D01*
Y1053834D01*
X268664Y1055000D01*
X265165D01*
X568918Y892833D02*
X567752Y893999D01*
X565419D01*
X564253Y892833D01*
Y888167D01*
X565419Y887001D01*
X567752D01*
X568918Y888167D01*
X571251Y887001D02*
X573583D01*
X572417D01*
Y893999D01*
X571251Y892833D01*
X580581Y887001D02*
Y893999D01*
X577082Y890500D01*
X581747D01*
X91668Y856583D02*
X90502Y857749D01*
X88169D01*
X87003Y856583D01*
Y851917D01*
X88169Y850751D01*
X90502D01*
X91668Y851917D01*
X94001Y850751D02*
X96333D01*
X95167D01*
Y857749D01*
X94001Y856583D01*
X104497Y850751D02*
X99832D01*
X104497Y855416D01*
Y856583D01*
X103331Y857749D01*
X100998D01*
X99832Y856583D01*
X329668Y780083D02*
X328502Y781249D01*
X326169D01*
X325003Y780083D01*
Y775417D01*
X326169Y774251D01*
X328502D01*
X329668Y775417D01*
X332001Y774251D02*
X334333D01*
X333167D01*
Y781249D01*
X332001Y780083D01*
X337832D02*
X338998Y781249D01*
X341331D01*
X342497Y780083D01*
Y775417D01*
X341331Y774251D01*
X338998D01*
X337832Y775417D01*
Y780083D01*
X93084Y832583D02*
X91918Y833749D01*
X89585D01*
X88419Y832583D01*
Y827917D01*
X89585Y826751D01*
X91918D01*
X93084Y827917D01*
X95417Y826751D02*
X97750D01*
X96583D01*
Y833749D01*
X95417Y832583D01*
X101248Y826751D02*
X103581D01*
X102415D01*
Y833749D01*
X101248Y832583D01*
X259168Y779083D02*
X258002Y780249D01*
X255669D01*
X254503Y779083D01*
Y774417D01*
X255669Y773251D01*
X258002D01*
X259168Y774417D01*
X261501Y773251D02*
X263833D01*
X262667D01*
Y780249D01*
X261501Y779083D01*
X267332D02*
X268498Y780249D01*
X270831D01*
X271997Y779083D01*
Y777916D01*
X270831Y776750D01*
X269665D01*
X270831D01*
X271997Y775584D01*
Y774417D01*
X270831Y773251D01*
X268498D01*
X267332Y774417D01*
X600086Y111499D02*
Y106834D01*
X602419Y104501D01*
X604751Y106834D01*
Y111499D01*
X607084D02*
Y104501D01*
X610583D01*
X611749Y105667D01*
Y110333D01*
X610583Y111499D01*
X607084D01*
X614081Y104501D02*
X616414D01*
X615248D01*
Y111499D01*
X614081Y110333D01*
X433670Y758251D02*
Y765249D01*
X437169D01*
X438335Y764083D01*
Y761750D01*
X437169Y760584D01*
X433670D01*
X436002D02*
X438335Y758251D01*
X445333D02*
X440667D01*
X445333Y762916D01*
Y764083D01*
X444166Y765249D01*
X441834D01*
X440667Y764083D01*
X447665D02*
X448831Y765249D01*
X451164D01*
X452330Y764083D01*
Y762916D01*
X451164Y761750D01*
X449998D01*
X451164D01*
X452330Y760584D01*
Y759417D01*
X451164Y758251D01*
X448831D01*
X447665Y759417D01*
X390420Y756251D02*
Y763249D01*
X393918D01*
X395085Y762083D01*
Y759750D01*
X393918Y758584D01*
X390420D01*
X392752D02*
X395085Y756251D01*
X402083D02*
X397417D01*
X402083Y760916D01*
Y762083D01*
X400916Y763249D01*
X398584D01*
X397417Y762083D01*
X407914Y756251D02*
Y763249D01*
X404415Y759750D01*
X409080D01*
X603599Y64980D02*
X610597D01*
Y61481D01*
X609431Y60315D01*
X607098D01*
X605932Y61481D01*
Y64980D01*
Y62648D02*
X603599Y60315D01*
Y53317D02*
Y57983D01*
X608264Y53317D01*
X609431D01*
X610597Y54484D01*
Y56816D01*
X609431Y57983D01*
X603599Y46320D02*
Y50985D01*
X608264Y46320D01*
X609431D01*
X610597Y47486D01*
Y49819D01*
X609431Y50985D01*
X616166Y584589D02*
X609168D01*
Y588088D01*
X610334Y589254D01*
X612667D01*
X613833Y588088D01*
Y584589D01*
Y586922D02*
X616166Y589254D01*
X610334Y591587D02*
X609168Y592753D01*
Y595086D01*
X610334Y596252D01*
X611501D01*
X612667Y595086D01*
Y593920D01*
Y595086D01*
X613833Y596252D01*
X614999D01*
X616166Y595086D01*
Y592753D01*
X614999Y591587D01*
X617332Y598585D02*
Y603250D01*
X611501Y610248D02*
Y606749D01*
X612667Y605583D01*
X614999D01*
X616166Y606749D01*
Y610248D01*
X609168Y612580D02*
X616166D01*
X612667D01*
X611501Y613747D01*
Y616079D01*
X612667Y617245D01*
X616166D01*
Y619578D02*
Y621911D01*
Y620744D01*
X609168D01*
X610334Y619578D01*
X147416Y612923D02*
X140418D01*
Y616422D01*
X141584Y617588D01*
X143917D01*
X145083Y616422D01*
Y612923D01*
Y615256D02*
X147416Y617588D01*
X141584Y619921D02*
X140418Y621087D01*
Y623420D01*
X141584Y624586D01*
X142751D01*
X143917Y623420D01*
Y622253D01*
Y623420D01*
X145083Y624586D01*
X146249D01*
X147416Y623420D01*
Y621087D01*
X146249Y619921D01*
X148582Y626919D02*
Y631584D01*
X142751Y638582D02*
Y635083D01*
X143917Y633916D01*
X146249D01*
X147416Y635083D01*
Y638582D01*
X140418Y640914D02*
X147416D01*
X143917D01*
X142751Y642080D01*
Y644413D01*
X143917Y645579D01*
X147416D01*
X140418Y652577D02*
X141584Y650244D01*
X143917Y647912D01*
X146249D01*
X147416Y649078D01*
Y651411D01*
X146249Y652577D01*
X145083D01*
X143917Y651411D01*
Y647912D01*
X503084Y776083D02*
X501917Y777249D01*
X499585D01*
X498419Y776083D01*
Y771417D01*
X499585Y770251D01*
X501917D01*
X503084Y771417D01*
X505416D02*
X506583Y770251D01*
X508915D01*
X510081Y771417D01*
Y776083D01*
X508915Y777249D01*
X506583D01*
X505416Y776083D01*
Y774916D01*
X506583Y773750D01*
X510081D01*
X503584Y861583D02*
X502417Y862749D01*
X500085D01*
X498919Y861583D01*
Y856917D01*
X500085Y855751D01*
X502417D01*
X503584Y856917D01*
X505916Y861583D02*
X507083Y862749D01*
X509415D01*
X510582Y861583D01*
Y860416D01*
X509415Y859250D01*
X510582Y858084D01*
Y856917D01*
X509415Y855751D01*
X507083D01*
X505916Y856917D01*
Y858084D01*
X507083Y859250D01*
X505916Y860416D01*
Y861583D01*
X507083Y859250D02*
X509415D01*
X611834Y710005D02*
X610668Y708838D01*
Y706506D01*
X611834Y705339D01*
X616499D01*
X617666Y706506D01*
Y708838D01*
X616499Y710005D01*
X617666Y715836D02*
X610668D01*
X614167Y712337D01*
Y717002D01*
X618832Y719335D02*
Y724000D01*
X613000Y730998D02*
Y727499D01*
X614167Y726333D01*
X616499D01*
X617666Y727499D01*
Y730998D01*
X610668Y733330D02*
X617666D01*
X614167D01*
X613000Y734497D01*
Y736829D01*
X614167Y737996D01*
X617666D01*
Y740328D02*
Y742661D01*
Y741494D01*
X610668D01*
X611834Y740328D01*
X39834Y768838D02*
X38668Y767672D01*
Y765339D01*
X39834Y764173D01*
X44499D01*
X45666Y765339D01*
Y767672D01*
X44499Y768838D01*
X45666Y774670D02*
X38668D01*
X42167Y771171D01*
Y775836D01*
X46832Y778168D02*
Y782834D01*
X41001Y789831D02*
Y786333D01*
X42167Y785166D01*
X44499D01*
X45666Y786333D01*
Y789831D01*
X38668Y792164D02*
X45666D01*
X42167D01*
X41001Y793330D01*
Y795663D01*
X42167Y796829D01*
X45666D01*
X38668Y803827D02*
X39834Y801494D01*
X42167Y799162D01*
X44499D01*
X45666Y800328D01*
Y802661D01*
X44499Y803827D01*
X43333D01*
X42167Y802661D01*
Y799162D01*
D13*
X230750Y961750D02*
G03*
X230750Y961750I-3000J0D01*
G01*
D14*
X219400Y940150D02*
G03*
X219400Y940150I-1250J0D01*
G01*
D15*
X7750Y38340D02*
Y111300D01*
X575350D01*
Y38340D02*
Y111300D01*
X7750Y38340D02*
X575350Y38340D01*
X541250Y552350D02*
X593250D01*
X541250Y523150D02*
X593250D01*
X54750Y550100D02*
X106750D01*
X54750Y520900D02*
X106750D01*
X228000Y802750D02*
Y847750D01*
X162000Y802750D02*
Y847750D01*
X552500Y836500D02*
X587500D01*
X552500Y824100D02*
Y836500D01*
Y771500D02*
X587500D01*
X552500D02*
Y783900D01*
X478250Y802750D02*
Y847750D01*
X412250Y802750D02*
Y847750D01*
X502350Y329385D02*
Y381385D01*
X473150Y329385D02*
Y381385D01*
X302350Y337369D02*
Y389369D01*
X273150Y337369D02*
Y389369D01*
X101600Y337369D02*
Y389369D01*
X72400Y337369D02*
Y389369D01*
X112250Y292750D02*
X216250D01*
X112250Y396750D02*
X216250D01*
X112250Y292750D02*
Y323550D01*
Y365950D02*
Y396750D01*
X216250Y292750D02*
Y323550D01*
Y365950D02*
Y396750D01*
X81250Y409750D02*
X185250D01*
X81250Y513750D02*
X185250D01*
X81250Y409750D02*
Y440550D01*
Y482950D02*
Y513750D01*
X185250Y409750D02*
Y440550D01*
Y482950D02*
Y513750D01*
X68600Y417131D02*
Y469131D01*
X39400Y417131D02*
Y469131D01*
X468100Y417131D02*
Y469131D01*
X438900Y417131D02*
Y469131D01*
X267850Y417131D02*
Y469131D01*
X238650Y417131D02*
Y469131D01*
X280500Y409750D02*
X384500D01*
X280500Y513750D02*
X384500D01*
X280500Y409750D02*
Y440550D01*
Y482950D02*
Y513750D01*
X384500Y409750D02*
Y440550D01*
Y482950D02*
Y513750D01*
X479750Y409750D02*
X583750D01*
X479750Y513750D02*
X583750D01*
X479750Y409750D02*
Y440550D01*
Y482950D02*
Y513750D01*
X583750Y409750D02*
Y440550D01*
Y482950D02*
Y513750D01*
X514750Y292750D02*
X618750D01*
X514750Y396750D02*
X618750D01*
X514750Y292750D02*
Y323550D01*
Y365950D02*
Y396750D01*
X618750Y292750D02*
Y323550D01*
Y365950D02*
Y396750D01*
X313500Y292750D02*
X417500D01*
X313500Y396750D02*
X417500D01*
X313500Y292750D02*
Y323550D01*
Y365950D02*
Y396750D01*
X417500Y292750D02*
Y323550D01*
Y365950D02*
Y396750D01*
X152050Y521650D02*
X204050D01*
X152050Y550850D02*
X204050D01*
X249350Y523150D02*
X301350D01*
X249350Y552350D02*
X301350D01*
X346650Y523150D02*
X398650D01*
X346650Y552350D02*
X398650D01*
X443950Y523150D02*
X495950D01*
X443950Y552350D02*
X495950D01*
D16*
X0Y905000D02*
X630000D01*
X0Y175000D02*
X630000D01*
D17*
X542166Y587100D02*
Y606150D01*
Y612246D01*
Y631296D01*
X591950Y587100D02*
Y631296D01*
X61050Y585850D02*
Y604900D01*
Y610996D01*
Y630046D01*
X110834Y585850D02*
Y630046D01*
X207057Y585850D02*
Y630046D01*
X157273Y610996D02*
Y630046D01*
Y604900D02*
Y610996D01*
Y585850D02*
Y604900D01*
X303280Y585850D02*
Y630046D01*
X253496Y610996D02*
Y630046D01*
Y604900D02*
Y610996D01*
Y585850D02*
Y604900D01*
X399504Y585850D02*
Y630046D01*
X349720Y610996D02*
Y630046D01*
Y604900D02*
Y610996D01*
Y585850D02*
Y604900D01*
X495727Y585850D02*
Y630046D01*
X445943Y610996D02*
Y630046D01*
Y604900D02*
Y610996D01*
Y585850D02*
Y604900D01*
D18*
X69710Y116790D02*
X59713D01*
Y121788D01*
X61379Y123455D01*
X64712D01*
X66378Y121788D01*
Y116790D01*
X59713Y126787D02*
X69710D01*
X66378Y130119D01*
X69710Y133451D01*
X59713D01*
X69710Y136784D02*
X59713D01*
Y141782D01*
X61379Y143448D01*
X64712D01*
X66378Y141782D01*
Y136784D01*
Y140116D02*
X69710Y143448D01*
X96379Y123455D02*
X94713Y121788D01*
Y118456D01*
X96379Y116790D01*
X103044D01*
X104710Y118456D01*
Y121788D01*
X103044Y123455D01*
X94713Y126787D02*
X104710D01*
X99712D01*
Y133451D01*
X94713D01*
X104710D01*
X94713Y143448D02*
X96379Y140116D01*
X99712Y136784D01*
X103044D01*
X104710Y138450D01*
Y141782D01*
X103044Y143448D01*
X101378D01*
X99712Y141782D01*
Y136784D01*
Y156777D02*
Y163442D01*
X96379Y160109D02*
X103044D01*
X26379Y123455D02*
X24713Y121788D01*
Y118456D01*
X26379Y116790D01*
X33044D01*
X34710Y118456D01*
Y121788D01*
X33044Y123455D01*
X29712D01*
Y120122D01*
X34710Y126787D02*
X24713D01*
X34710Y133451D01*
X24713D01*
Y136784D02*
X34710D01*
Y141782D01*
X33044Y143448D01*
X26379D01*
X24713Y141782D01*
Y136784D01*
X559710Y116790D02*
X549713D01*
Y121788D01*
X551379Y123455D01*
X554712D01*
X556378Y121788D01*
Y116790D01*
X549713Y126787D02*
X559710D01*
X556378Y130119D01*
X559710Y133451D01*
X549713D01*
X559710Y136784D02*
X549713D01*
Y141782D01*
X551379Y143448D01*
X554712D01*
X556378Y141782D01*
Y136784D01*
Y140116D02*
X559710Y143448D01*
X516379Y123455D02*
X514713Y121788D01*
Y118456D01*
X516379Y116790D01*
X523044D01*
X524710Y118456D01*
Y121788D01*
X523044Y123455D01*
X519712D01*
Y120122D01*
X524710Y126787D02*
X514713D01*
X524710Y133451D01*
X514713D01*
Y136784D02*
X524710D01*
Y141782D01*
X523044Y143448D01*
X516379D01*
X514713Y141782D01*
Y136784D01*
X481379Y123455D02*
X479713Y121788D01*
Y118456D01*
X481379Y116790D01*
X488044D01*
X489710Y118456D01*
Y121788D01*
X488044Y123455D01*
X479713Y126787D02*
X489710D01*
X484712D01*
Y133451D01*
X479713D01*
X489710D01*
Y136784D02*
Y140116D01*
Y138450D01*
X479713D01*
X481379Y136784D01*
X484712Y155111D02*
Y161775D01*
X446379Y123455D02*
X444713Y121788D01*
Y118456D01*
X446379Y116790D01*
X453044D01*
X454710Y118456D01*
Y121788D01*
X453044Y123455D01*
X444713Y126787D02*
X454710D01*
X449712D01*
Y133451D01*
X444713D01*
X454710D01*
Y136784D02*
Y140116D01*
Y138450D01*
X444713D01*
X446379Y136784D01*
X449712Y155111D02*
Y161775D01*
X446379Y158443D02*
X453044D01*
X411379Y123455D02*
X409713Y121788D01*
Y118456D01*
X411379Y116790D01*
X418044D01*
X419710Y118456D01*
Y121788D01*
X418044Y123455D01*
X409713Y126787D02*
X419710D01*
X414712D01*
Y133451D01*
X409713D01*
X419710D01*
Y143448D02*
Y136784D01*
X413046Y143448D01*
X411379D01*
X409713Y141782D01*
Y138450D01*
X411379Y136784D01*
X414712Y156777D02*
Y163442D01*
X376379Y123455D02*
X374713Y121788D01*
Y118456D01*
X376379Y116790D01*
X383044D01*
X384710Y118456D01*
Y121788D01*
X383044Y123455D01*
X374713Y126787D02*
X384710D01*
X379712D01*
Y133451D01*
X374713D01*
X384710D01*
Y143448D02*
Y136784D01*
X378046Y143448D01*
X376379D01*
X374713Y141782D01*
Y138450D01*
X376379Y136784D01*
X379712Y156777D02*
Y163442D01*
X376379Y160109D02*
X383044D01*
X341379Y123455D02*
X339713Y121788D01*
Y118456D01*
X341379Y116790D01*
X348044D01*
X349710Y118456D01*
Y121788D01*
X348044Y123455D01*
X339713Y126787D02*
X349710D01*
X344712D01*
Y133451D01*
X339713D01*
X349710D01*
X341379Y136784D02*
X339713Y138450D01*
Y141782D01*
X341379Y143448D01*
X343046D01*
X344712Y141782D01*
Y140116D01*
Y141782D01*
X346378Y143448D01*
X348044D01*
X349710Y141782D01*
Y138450D01*
X348044Y136784D01*
X344712Y156777D02*
Y163442D01*
X306379Y123455D02*
X304713Y121788D01*
Y118456D01*
X306379Y116790D01*
X313044D01*
X314710Y118456D01*
Y121788D01*
X313044Y123455D01*
X304713Y126787D02*
X314710D01*
X309712D01*
Y133451D01*
X304713D01*
X314710D01*
X306379Y136784D02*
X304713Y138450D01*
Y141782D01*
X306379Y143448D01*
X308046D01*
X309712Y141782D01*
Y140116D01*
Y141782D01*
X311378Y143448D01*
X313044D01*
X314710Y141782D01*
Y138450D01*
X313044Y136784D01*
X309712Y156777D02*
Y163442D01*
X306379Y160109D02*
X313044D01*
X271379Y123455D02*
X269713Y121788D01*
Y118456D01*
X271379Y116790D01*
X278044D01*
X279710Y118456D01*
Y121788D01*
X278044Y123455D01*
X269713Y126787D02*
X279710D01*
X274712D01*
Y133451D01*
X269713D01*
X279710D01*
Y141782D02*
X269713D01*
X274712Y136784D01*
Y143448D01*
Y156777D02*
Y163442D01*
X236379Y123455D02*
X234713Y121788D01*
Y118456D01*
X236379Y116790D01*
X243044D01*
X244710Y118456D01*
Y121788D01*
X243044Y123455D01*
X234713Y126787D02*
X244710D01*
X239712D01*
Y133451D01*
X234713D01*
X244710D01*
Y141782D02*
X234713D01*
X239712Y136784D01*
Y143448D01*
Y156777D02*
Y163442D01*
X236379Y160109D02*
X243044D01*
X201379Y123455D02*
X199713Y121788D01*
Y118456D01*
X201379Y116790D01*
X208044D01*
X209710Y118456D01*
Y121788D01*
X208044Y123455D01*
X199713Y126787D02*
X209710D01*
X204712D01*
Y133451D01*
X199713D01*
X209710D01*
X199713Y143448D02*
Y136784D01*
X204712D01*
X203046Y140116D01*
Y141782D01*
X204712Y143448D01*
X208044D01*
X209710Y141782D01*
Y138450D01*
X208044Y136784D01*
X204712Y156777D02*
Y163442D01*
X166379Y123455D02*
X164713Y121788D01*
Y118456D01*
X166379Y116790D01*
X173044D01*
X174710Y118456D01*
Y121788D01*
X173044Y123455D01*
X164713Y126787D02*
X174710D01*
X169712D01*
Y133451D01*
X164713D01*
X174710D01*
X164713Y143448D02*
Y136784D01*
X169712D01*
X168046Y140116D01*
Y141782D01*
X169712Y143448D01*
X173044D01*
X174710Y141782D01*
Y138450D01*
X173044Y136784D01*
X169712Y156777D02*
Y163442D01*
X166379Y160109D02*
X173044D01*
X131379Y123455D02*
X129713Y121788D01*
Y118456D01*
X131379Y116790D01*
X138044D01*
X139710Y118456D01*
Y121788D01*
X138044Y123455D01*
X129713Y126787D02*
X139710D01*
X134712D01*
Y133451D01*
X129713D01*
X139710D01*
X129713Y143448D02*
X131379Y140116D01*
X134712Y136784D01*
X138044D01*
X139710Y138450D01*
Y141782D01*
X138044Y143448D01*
X136378D01*
X134712Y141782D01*
Y136784D01*
Y156777D02*
Y163442D01*
X320704Y869371D02*
X319038Y871037D01*
X315706D01*
X314040Y869371D01*
Y867704D01*
X315706Y866038D01*
X319038D01*
X320704Y864372D01*
Y862706D01*
X319038Y861040D01*
X315706D01*
X314040Y862706D01*
X324037Y871037D02*
Y861040D01*
X327369Y864372D01*
X330701Y861040D01*
Y871037D01*
X334034D02*
Y861040D01*
X339032D01*
X340698Y862706D01*
Y869371D01*
X339032Y871037D01*
X334034D01*
X223790Y915040D02*
Y921704D01*
X227122Y925037D01*
X230455Y921704D01*
Y915040D01*
Y920038D01*
X223790D01*
X233787Y915040D02*
X237119D01*
X235453D01*
Y925037D01*
X233787Y923371D01*
X250290Y915040D02*
Y921704D01*
X253622Y925037D01*
X256955Y921704D01*
Y915040D01*
Y920038D01*
X250290D01*
X266951Y915040D02*
X260287D01*
X266951Y921704D01*
Y923371D01*
X265285Y925037D01*
X261953D01*
X260287Y923371D01*
X276790Y915040D02*
Y921704D01*
X280122Y925037D01*
X283455Y921704D01*
Y915040D01*
Y920038D01*
X276790D01*
X286787Y923371D02*
X288453Y925037D01*
X291785D01*
X293451Y923371D01*
Y921704D01*
X291785Y920038D01*
X290119D01*
X291785D01*
X293451Y918372D01*
Y916706D01*
X291785Y915040D01*
X288453D01*
X286787Y916706D01*
X303290Y915040D02*
Y921704D01*
X306622Y925037D01*
X309954Y921704D01*
Y915040D01*
Y920038D01*
X303290D01*
X318285Y915040D02*
Y925037D01*
X313287Y920038D01*
X319951D01*
X383540Y943537D02*
Y933540D01*
X388538D01*
X390205Y935206D01*
Y936872D01*
X388538Y938538D01*
X383540D01*
X388538D01*
X390205Y940204D01*
Y941871D01*
X388538Y943537D01*
X383540D01*
X398535D02*
X395203D01*
X393537Y941871D01*
Y935206D01*
X395203Y933540D01*
X398535D01*
X400201Y935206D01*
Y941871D01*
X398535Y943537D01*
X408532D02*
X405200D01*
X403534Y941871D01*
Y935206D01*
X405200Y933540D01*
X408532D01*
X410198Y935206D01*
Y941871D01*
X408532Y943537D01*
X413530D02*
X420195D01*
X416863D01*
Y933540D01*
X334040D02*
Y943537D01*
X340704Y933540D01*
Y943537D01*
X344037Y933540D02*
Y943537D01*
X349035D01*
X350701Y941871D01*
Y938538D01*
X349035Y936872D01*
X344037D01*
X347369D02*
X350701Y933540D01*
X360698Y941871D02*
X359032Y943537D01*
X355700D01*
X354034Y941871D01*
Y940204D01*
X355700Y938538D01*
X359032D01*
X360698Y936872D01*
Y935206D01*
X359032Y933540D01*
X355700D01*
X354034Y935206D01*
X364030Y943537D02*
X370695D01*
X367363D01*
Y933540D01*
X145290Y942290D02*
Y948954D01*
X148622Y952287D01*
X151954Y948954D01*
Y942290D01*
Y947288D01*
X145290D01*
X155287Y950621D02*
X156953Y952287D01*
X160285D01*
X161951Y950621D01*
Y943956D01*
X160285Y942290D01*
X156953D01*
X155287Y943956D01*
Y950621D01*
X264790Y866038D02*
X271455D01*
X268122Y869371D02*
Y862706D01*
X274787Y869371D02*
X276453Y871037D01*
X279785D01*
X281451Y869371D01*
Y867704D01*
X279785Y866038D01*
X278119D01*
X279785D01*
X281451Y864372D01*
Y862706D01*
X279785Y861040D01*
X276453D01*
X274787Y862706D01*
X373790Y859540D02*
Y869537D01*
X378788D01*
X380454Y867871D01*
Y864538D01*
X378788Y862872D01*
X373790D01*
X377122D02*
X380454Y859540D01*
M02*
