G04*
G04 #@! TF.GenerationSoftware,Altium Limited,Altium Designer,20.0.13 (296)*
G04*
G04 Layer_Color=8421504*
%FSLAX44Y44*%
%MOMM*%
G71*
G01*
G75*
%ADD18R,0.8000X1.0000*%
%ADD19R,1.0000X0.8000*%
%ADD20R,0.6000X0.5000*%
%ADD21R,3.0988X2.9972*%
%ADD22R,0.3556X1.4224*%
G04:AMPARAMS|DCode=23|XSize=2.33mm|YSize=1.55mm|CornerRadius=0.3875mm|HoleSize=0mm|Usage=FLASHONLY|Rotation=180.000|XOffset=0mm|YOffset=0mm|HoleType=Round|Shape=RoundedRectangle|*
%AMROUNDEDRECTD23*
21,1,2.3300,0.7750,0,0,180.0*
21,1,1.5550,1.5500,0,0,180.0*
1,1,0.7750,-0.7775,0.3875*
1,1,0.7750,0.7775,0.3875*
1,1,0.7750,0.7775,-0.3875*
1,1,0.7750,-0.7775,-0.3875*
%
%ADD23ROUNDEDRECTD23*%
%ADD24R,3.5000X2.1500*%
%ADD25R,0.5000X0.6000*%
%ADD26R,0.4100X1.5600*%
%ADD27R,1.1000X1.2500*%
%ADD28R,2.1500X3.5000*%
%ADD29R,2.1500X3.2500*%
%ADD30R,2.1500X0.9500*%
G04:AMPARAMS|DCode=31|XSize=2.33mm|YSize=1.55mm|CornerRadius=0.3875mm|HoleSize=0mm|Usage=FLASHONLY|Rotation=270.000|XOffset=0mm|YOffset=0mm|HoleType=Round|Shape=RoundedRectangle|*
%AMROUNDEDRECTD31*
21,1,2.3300,0.7750,0,0,270.0*
21,1,1.5550,1.5500,0,0,270.0*
1,1,0.7750,-0.3875,-0.7775*
1,1,0.7750,-0.3875,0.7775*
1,1,0.7750,0.3875,0.7775*
1,1,0.7750,0.3875,-0.7775*
%
%ADD31ROUNDEDRECTD31*%
%ADD32R,2.7000X3.6000*%
D18*
X177750Y939000D02*
D03*
X193750D02*
D03*
X374000Y776500D02*
D03*
X358000D02*
D03*
Y867250D02*
D03*
X374000D02*
D03*
X492000Y823500D02*
D03*
X508000D02*
D03*
D19*
X127750Y564750D02*
D03*
Y548750D02*
D03*
X570250Y675000D02*
D03*
Y659000D02*
D03*
X603250Y618500D02*
D03*
Y634500D02*
D03*
X614750Y564750D02*
D03*
Y548750D02*
D03*
X121500Y618500D02*
D03*
Y634500D02*
D03*
X89250Y675000D02*
D03*
Y659000D02*
D03*
X433750Y941500D02*
D03*
Y925500D02*
D03*
X217850Y634500D02*
D03*
Y618500D02*
D03*
X314200Y634500D02*
D03*
Y618500D02*
D03*
X410550Y634500D02*
D03*
Y618500D02*
D03*
X506900Y634500D02*
D03*
Y618500D02*
D03*
X185450Y659000D02*
D03*
Y675000D02*
D03*
X281650Y659000D02*
D03*
Y675000D02*
D03*
X377850Y659000D02*
D03*
Y675000D02*
D03*
X474050Y659000D02*
D03*
Y675000D02*
D03*
X225150Y548750D02*
D03*
Y564750D02*
D03*
X322550Y548750D02*
D03*
Y564750D02*
D03*
X419950Y548750D02*
D03*
Y564750D02*
D03*
X517350Y548750D02*
D03*
Y564750D02*
D03*
X243500Y823250D02*
D03*
Y839250D02*
D03*
D20*
X586500Y678000D02*
D03*
Y668000D02*
D03*
X105500Y678000D02*
D03*
Y668000D02*
D03*
X150250Y811000D02*
D03*
Y801000D02*
D03*
X528250Y1033350D02*
D03*
Y1043350D02*
D03*
X497750Y1021500D02*
D03*
Y1031500D02*
D03*
X466848Y1033350D02*
D03*
Y1043350D02*
D03*
X400500Y804500D02*
D03*
Y794500D02*
D03*
X201700Y668000D02*
D03*
Y678000D02*
D03*
X297900Y668000D02*
D03*
Y678000D02*
D03*
X394100Y668000D02*
D03*
Y678000D02*
D03*
X490300Y668000D02*
D03*
Y678000D02*
D03*
D21*
X567058Y609198D02*
D03*
X85942Y607948D02*
D03*
X182165D02*
D03*
X278388D02*
D03*
X374612D02*
D03*
X470835D02*
D03*
D22*
X547500Y637646D02*
D03*
X554104D02*
D03*
X560454D02*
D03*
X567058D02*
D03*
X573662D02*
D03*
X580012D02*
D03*
X586616D02*
D03*
Y580750D02*
D03*
X580012D02*
D03*
X573662D02*
D03*
X567058D02*
D03*
X560454D02*
D03*
X554104D02*
D03*
X547500D02*
D03*
X66384Y636396D02*
D03*
X72988D02*
D03*
X79338D02*
D03*
X85942D02*
D03*
X92546D02*
D03*
X98896D02*
D03*
X105500D02*
D03*
Y579500D02*
D03*
X98896D02*
D03*
X92546D02*
D03*
X85942D02*
D03*
X79338D02*
D03*
X72988D02*
D03*
X66384D02*
D03*
X162607D02*
D03*
X169211D02*
D03*
X175561D02*
D03*
X182165D02*
D03*
X188769D02*
D03*
X195119D02*
D03*
X201723D02*
D03*
Y636396D02*
D03*
X195119D02*
D03*
X188769D02*
D03*
X182165D02*
D03*
X175561D02*
D03*
X169211D02*
D03*
X162607D02*
D03*
X258830Y579500D02*
D03*
X265434D02*
D03*
X271784D02*
D03*
X278388D02*
D03*
X284992D02*
D03*
X291342D02*
D03*
X297946D02*
D03*
Y636396D02*
D03*
X291342D02*
D03*
X284992D02*
D03*
X278388D02*
D03*
X271784D02*
D03*
X265434D02*
D03*
X258830D02*
D03*
X355053Y579500D02*
D03*
X361657D02*
D03*
X368008D02*
D03*
X374612D02*
D03*
X381216D02*
D03*
X387565D02*
D03*
X394170D02*
D03*
Y636396D02*
D03*
X387565D02*
D03*
X381216D02*
D03*
X374612D02*
D03*
X368008D02*
D03*
X361657D02*
D03*
X355053D02*
D03*
X451277Y579500D02*
D03*
X457881D02*
D03*
X464231D02*
D03*
X470835D02*
D03*
X477439D02*
D03*
X483789D02*
D03*
X490393D02*
D03*
Y636396D02*
D03*
X483789D02*
D03*
X477439D02*
D03*
X470835D02*
D03*
X464231D02*
D03*
X457881D02*
D03*
X451277D02*
D03*
D23*
X545900Y537750D02*
D03*
X588600D02*
D03*
X59400Y535500D02*
D03*
X102100D02*
D03*
X199400Y536250D02*
D03*
X156700D02*
D03*
X296700Y537750D02*
D03*
X254000D02*
D03*
X394000D02*
D03*
X351300D02*
D03*
X491300D02*
D03*
X448600D02*
D03*
D24*
X39750Y740750D02*
D03*
Y705750D02*
D03*
X587250Y740750D02*
D03*
Y705750D02*
D03*
X487705D02*
D03*
Y740750D02*
D03*
X338386Y705750D02*
D03*
Y740750D02*
D03*
X238841Y705750D02*
D03*
Y740750D02*
D03*
X139296Y705750D02*
D03*
Y740750D02*
D03*
X537477Y705750D02*
D03*
Y740750D02*
D03*
X437932Y705750D02*
D03*
Y740750D02*
D03*
X388159Y705750D02*
D03*
Y740750D02*
D03*
X288614Y705750D02*
D03*
Y740750D02*
D03*
X189068Y705750D02*
D03*
Y740750D02*
D03*
X89523Y705750D02*
D03*
Y740750D02*
D03*
D25*
X445750Y775750D02*
D03*
X435750D02*
D03*
X194750Y776750D02*
D03*
X184750D02*
D03*
X388750Y1046750D02*
D03*
X398750D02*
D03*
X388750Y1021000D02*
D03*
X398750D02*
D03*
X388750Y995250D02*
D03*
X398750D02*
D03*
X388750Y969500D02*
D03*
X398750D02*
D03*
X256000Y966750D02*
D03*
X266000D02*
D03*
X256000Y996250D02*
D03*
X266000D02*
D03*
X256000Y1026500D02*
D03*
X266000D02*
D03*
X256000Y1054500D02*
D03*
X266000D02*
D03*
D26*
X165750Y854050D02*
D03*
X172250D02*
D03*
X178750D02*
D03*
X185250D02*
D03*
X191750D02*
D03*
X198250D02*
D03*
X204750D02*
D03*
X211250D02*
D03*
X217750D02*
D03*
X224250D02*
D03*
Y796450D02*
D03*
X217750D02*
D03*
X211250D02*
D03*
X204750D02*
D03*
X198250D02*
D03*
X191750D02*
D03*
X185250D02*
D03*
X178750D02*
D03*
X172250D02*
D03*
X165750D02*
D03*
X416000Y854050D02*
D03*
X422500D02*
D03*
X429000D02*
D03*
X435500D02*
D03*
X442000D02*
D03*
X448500D02*
D03*
X455000D02*
D03*
X461500D02*
D03*
X468000D02*
D03*
X474500D02*
D03*
Y796450D02*
D03*
X468000D02*
D03*
X461500D02*
D03*
X455000D02*
D03*
X448500D02*
D03*
X442000D02*
D03*
X435500D02*
D03*
X429000D02*
D03*
X422500D02*
D03*
X416000D02*
D03*
D27*
X513152Y1019500D02*
D03*
Y1042500D02*
D03*
X482451Y1019500D02*
D03*
Y1042500D02*
D03*
X450305Y1042000D02*
D03*
Y1019000D02*
D03*
D28*
X485000Y974750D02*
D03*
X520000D02*
D03*
X450750Y269250D02*
D03*
X485750D02*
D03*
X450750Y226750D02*
D03*
X485750D02*
D03*
X98250D02*
D03*
X133250D02*
D03*
X98250Y269250D02*
D03*
X133250D02*
D03*
X168000Y226750D02*
D03*
X203000D02*
D03*
X168750Y269250D02*
D03*
X203750D02*
D03*
X239250Y226750D02*
D03*
X274250D02*
D03*
X239250Y269250D02*
D03*
X274250D02*
D03*
X309750Y226750D02*
D03*
X344750D02*
D03*
X309750Y269250D02*
D03*
X344750D02*
D03*
X380250Y227000D02*
D03*
X415250D02*
D03*
X380250Y269250D02*
D03*
X415250D02*
D03*
D29*
X541000Y817250D02*
D03*
D30*
X599000Y840250D02*
D03*
Y817250D02*
D03*
Y794250D02*
D03*
D31*
X487750Y376735D02*
D03*
Y334035D02*
D03*
X287750Y384719D02*
D03*
Y342019D02*
D03*
X87000Y384719D02*
D03*
Y342019D02*
D03*
X54000Y464481D02*
D03*
Y421781D02*
D03*
X453500Y464481D02*
D03*
Y421781D02*
D03*
X253250Y464481D02*
D03*
Y421781D02*
D03*
D32*
X205750Y344750D02*
D03*
X122750D02*
D03*
X174750Y461750D02*
D03*
X91750D02*
D03*
X374000D02*
D03*
X291000D02*
D03*
X573250D02*
D03*
X490250D02*
D03*
X608250Y344750D02*
D03*
X525250D02*
D03*
X407000D02*
D03*
X324000D02*
D03*
M02*
