G04*
G04 #@! TF.GenerationSoftware,Altium Limited,Altium Designer,20.0.13 (296)*
G04*
G04 Layer_Physical_Order=1*
G04 Layer_Color=255*
%FSLAX44Y44*%
%MOMM*%
G71*
G01*
G75*
%ADD12C,0.2000*%
%ADD13C,0.6000*%
%ADD14C,0.2500*%
%ADD15C,0.3000*%
%ADD18R,0.8000X1.0000*%
%ADD19R,1.0000X0.8000*%
%ADD20R,0.6000X0.5000*%
%ADD21R,3.0988X2.9972*%
%ADD22R,0.3556X1.4224*%
G04:AMPARAMS|DCode=23|XSize=2.33mm|YSize=1.55mm|CornerRadius=0.3875mm|HoleSize=0mm|Usage=FLASHONLY|Rotation=180.000|XOffset=0mm|YOffset=0mm|HoleType=Round|Shape=RoundedRectangle|*
%AMROUNDEDRECTD23*
21,1,2.3300,0.7750,0,0,180.0*
21,1,1.5550,1.5500,0,0,180.0*
1,1,0.7750,-0.7775,0.3875*
1,1,0.7750,0.7775,0.3875*
1,1,0.7750,0.7775,-0.3875*
1,1,0.7750,-0.7775,-0.3875*
%
%ADD23ROUNDEDRECTD23*%
%ADD24R,3.5000X2.1500*%
%ADD25R,0.5000X0.6000*%
%ADD26R,0.4100X1.5600*%
%ADD27R,1.1000X1.2500*%
%ADD28R,2.1500X3.5000*%
%ADD29R,2.1500X3.2500*%
%ADD30R,2.1500X0.9500*%
G04:AMPARAMS|DCode=31|XSize=2.33mm|YSize=1.55mm|CornerRadius=0.3875mm|HoleSize=0mm|Usage=FLASHONLY|Rotation=270.000|XOffset=0mm|YOffset=0mm|HoleType=Round|Shape=RoundedRectangle|*
%AMROUNDEDRECTD31*
21,1,2.3300,0.7750,0,0,270.0*
21,1,1.5550,1.5500,0,0,270.0*
1,1,0.7750,-0.3875,-0.7775*
1,1,0.7750,-0.3875,0.7775*
1,1,0.7750,0.3875,0.7775*
1,1,0.7750,0.3875,-0.7775*
%
%ADD31ROUNDEDRECTD31*%
%ADD32R,2.7000X3.6000*%
%ADD52C,1.7000*%
%ADD53C,2.0000*%
%ADD54C,2.5000*%
%ADD55C,1.5000*%
%ADD56C,1.0000*%
%ADD57C,0.4000*%
%ADD58C,1.5000*%
%ADD59R,1.5000X1.5000*%
%ADD60R,1.5000X1.5000*%
%ADD61O,1.9304X3.8608*%
%ADD62C,0.8000*%
%ADD63C,0.7000*%
G36*
X626432Y3569D02*
X3568D01*
X3569Y1076431D01*
X137584D01*
X138111Y1075161D01*
X129631Y1066682D01*
X83000D01*
X80520Y1066355D01*
X78209Y1065398D01*
X76224Y1063875D01*
X74702Y1061891D01*
X73745Y1059580D01*
X73418Y1057100D01*
X73745Y1054620D01*
X74702Y1052309D01*
X76224Y1050324D01*
X78209Y1048802D01*
X80520Y1047844D01*
X83000Y1047518D01*
X133600D01*
X136080Y1047844D01*
X138391Y1048802D01*
X140375Y1050324D01*
X149469Y1059418D01*
X251500D01*
Y1049500D01*
X250473Y1048914D01*
X246260D01*
X245648Y1050391D01*
X244125Y1052375D01*
X242141Y1053898D01*
X239830Y1054855D01*
X237350Y1055182D01*
X234870Y1054855D01*
X232559Y1053898D01*
X230574Y1052375D01*
X229052Y1050391D01*
X228095Y1048080D01*
X227768Y1045600D01*
X228095Y1043120D01*
X229052Y1040809D01*
X230574Y1038824D01*
X232559Y1037302D01*
X234870Y1036345D01*
X237350Y1036018D01*
X239830Y1036345D01*
X242141Y1037302D01*
X244125Y1038824D01*
X245648Y1040809D01*
X246260Y1042286D01*
X253850D01*
X255118Y1042539D01*
X256193Y1043257D01*
X258343Y1045407D01*
X259061Y1046482D01*
X259314Y1047750D01*
Y1049298D01*
X260500Y1049500D01*
X261500D01*
Y1049500D01*
X262941D01*
Y1032398D01*
X262129Y1031586D01*
X261671Y1031500D01*
X260500D01*
X260230Y1031500D01*
X251500D01*
Y1025686D01*
X249328Y1023514D01*
X246260D01*
X245648Y1024991D01*
X244125Y1026975D01*
X242141Y1028498D01*
X239830Y1029455D01*
X237350Y1029782D01*
X234870Y1029455D01*
X232559Y1028498D01*
X230574Y1026975D01*
X229052Y1024991D01*
X228095Y1022680D01*
X227768Y1020200D01*
X228095Y1017720D01*
X229052Y1015409D01*
X230574Y1013425D01*
X232559Y1011902D01*
X234870Y1010945D01*
X237350Y1010618D01*
X239830Y1010945D01*
X242141Y1011902D01*
X244125Y1013425D01*
X245648Y1015409D01*
X246260Y1016886D01*
X250700D01*
X251968Y1017139D01*
X253043Y1017857D01*
X256686Y1021500D01*
X260230D01*
X260500Y1021500D01*
X261500D01*
X261671Y1021500D01*
X262941Y1021262D01*
Y1002148D01*
X262129Y1001336D01*
X261671Y1001250D01*
X260500D01*
X260230Y1001250D01*
X251500D01*
Y998839D01*
X245960D01*
X245648Y999591D01*
X244125Y1001575D01*
X242141Y1003098D01*
X239830Y1004055D01*
X237350Y1004382D01*
X234870Y1004055D01*
X232559Y1003098D01*
X230574Y1001575D01*
X229052Y999591D01*
X228095Y997280D01*
X227768Y994800D01*
X228095Y992320D01*
X229052Y990009D01*
X230574Y988025D01*
X232559Y986502D01*
X234870Y985545D01*
X237350Y985218D01*
X239830Y985545D01*
X242141Y986502D01*
X244125Y988025D01*
X245648Y990009D01*
X246560Y992211D01*
X251500D01*
Y991250D01*
X260230D01*
X260500Y991250D01*
X261500D01*
X261671Y991250D01*
X262941Y991012D01*
Y972648D01*
X262129Y971836D01*
X261671Y971750D01*
X260500D01*
X260230Y971750D01*
X251500D01*
Y971389D01*
X246670D01*
X246605Y971880D01*
X245648Y974191D01*
X244125Y976175D01*
X242141Y977698D01*
X239830Y978655D01*
X237350Y978982D01*
X234870Y978655D01*
X232559Y977698D01*
X230574Y976175D01*
X229052Y974191D01*
X228095Y971880D01*
X227768Y969400D01*
X228095Y966920D01*
X229052Y964609D01*
X230574Y962625D01*
X232559Y961102D01*
X234870Y960145D01*
X237350Y959818D01*
X239830Y960145D01*
X242141Y961102D01*
X244125Y962625D01*
X245648Y964609D01*
X245711Y964761D01*
X251500D01*
Y961750D01*
X260230D01*
X260500Y961750D01*
X261500D01*
X261671Y961750D01*
X262941Y961512D01*
Y958000D01*
X262941Y958000D01*
X263174Y956830D01*
X263837Y955837D01*
X279095Y940580D01*
X269458Y930943D01*
X268336Y929480D01*
X267630Y927777D01*
X267390Y925950D01*
Y886800D01*
X267630Y884973D01*
X268336Y883270D01*
X269352Y881945D01*
Y848254D01*
X267425Y846775D01*
X265902Y844791D01*
X264945Y842480D01*
X264618Y840000D01*
X264945Y837520D01*
X265240Y836807D01*
X262491Y834059D01*
X251040D01*
Y837980D01*
X243500D01*
X235960D01*
Y834059D01*
X234267D01*
X231025Y837301D01*
X230032Y837964D01*
X228862Y838197D01*
X228862Y838197D01*
X195305D01*
X194135Y837964D01*
X193143Y837301D01*
X193143Y837301D01*
X183167Y827325D01*
X181996Y827951D01*
X182304Y829500D01*
X181976Y831150D01*
X187413Y836587D01*
X187413Y836587D01*
X188076Y837579D01*
X188309Y838750D01*
Y844250D01*
X193660D01*
Y843710D01*
X196980D01*
Y854050D01*
Y864390D01*
X194809D01*
Y900983D01*
X212663Y918837D01*
X213326Y919829D01*
X213559Y921000D01*
X213559Y921000D01*
Y936750D01*
X213559Y936750D01*
X213326Y937921D01*
X212663Y938913D01*
X212663Y938913D01*
X210413Y941163D01*
X209421Y941826D01*
X208250Y942059D01*
X208250Y942059D01*
X199750D01*
Y946000D01*
X187750D01*
Y932000D01*
X190691D01*
Y927767D01*
X155839Y892914D01*
X155832Y892914D01*
X154569Y893300D01*
Y957772D01*
X157448Y960651D01*
X158670Y960145D01*
X161150Y959818D01*
X163630Y960145D01*
X165941Y961102D01*
X167925Y962625D01*
X169448Y964609D01*
X170406Y966920D01*
X170732Y969400D01*
X170406Y971880D01*
X169448Y974191D01*
X167925Y976175D01*
X165941Y977698D01*
X163630Y978655D01*
X161150Y978982D01*
X158670Y978655D01*
X156359Y977698D01*
X154375Y976175D01*
X152852Y974191D01*
X151895Y971880D01*
X151568Y969400D01*
X151895Y966920D01*
X152401Y965698D01*
X148477Y961773D01*
X147703Y960616D01*
X147431Y959250D01*
Y832500D01*
X147703Y831134D01*
X148477Y829977D01*
X168682Y809772D01*
Y806250D01*
X161700D01*
Y804724D01*
X161200Y804314D01*
X156358D01*
X155596Y805584D01*
X155790Y805960D01*
X155790Y806546D01*
Y809730D01*
X150250D01*
Y811000D01*
D01*
Y809730D01*
X144710D01*
Y805960D01*
X145250Y804914D01*
X145250Y796500D01*
X155250D01*
Y797686D01*
X160336D01*
X161415Y797472D01*
X161700D01*
Y786650D01*
X175691D01*
Y782767D01*
X171569Y778645D01*
X170500Y778858D01*
X168354Y778431D01*
X166535Y777215D01*
X165319Y775396D01*
X164892Y773250D01*
X165319Y771104D01*
X166535Y769285D01*
X168354Y768069D01*
X170500Y767642D01*
X172646Y768069D01*
X174465Y769285D01*
X175681Y771104D01*
X176108Y773250D01*
X175895Y774319D01*
X179077Y777501D01*
X180250Y777015D01*
Y771750D01*
X182652D01*
X182849Y770762D01*
X183512Y769770D01*
X193694Y759587D01*
X194687Y758924D01*
X195857Y758691D01*
X195858Y758691D01*
X261750D01*
X261750Y758691D01*
X262920Y758924D01*
X263913Y759587D01*
X289413Y785087D01*
X289413Y785087D01*
X290076Y786079D01*
X290309Y787250D01*
Y799391D01*
X291464Y799687D01*
X291579Y799674D01*
X293075Y797725D01*
X295059Y796202D01*
X297370Y795245D01*
X299850Y794918D01*
X302330Y795245D01*
X304641Y796202D01*
X306625Y797725D01*
X308148Y799709D01*
X309105Y802020D01*
X309432Y804500D01*
X309105Y806980D01*
X308148Y809291D01*
X306625Y811275D01*
X304641Y812798D01*
X302330Y813755D01*
X299850Y814082D01*
X297370Y813755D01*
X295059Y812798D01*
X293075Y811275D01*
X291579Y809326D01*
X291464Y809313D01*
X290309Y809609D01*
Y818191D01*
X370500D01*
X370500Y818191D01*
X371670Y818424D01*
X372663Y819087D01*
X378413Y824837D01*
X379076Y825829D01*
X379309Y827000D01*
X379309Y827000D01*
Y830500D01*
X385300D01*
Y849500D01*
X378859D01*
Y860250D01*
X380000D01*
Y871628D01*
X381173Y872114D01*
X396681Y856606D01*
Y842250D01*
X396953Y840884D01*
X397727Y839727D01*
X418932Y818522D01*
Y806250D01*
X411950D01*
Y797559D01*
X406355D01*
X406264Y797650D01*
X405714Y798829D01*
X406040Y799460D01*
X406040Y800046D01*
Y803230D01*
X400500D01*
X394960D01*
Y799460D01*
X395500Y798414D01*
X395500Y790000D01*
X405500D01*
Y791441D01*
X411950D01*
Y786650D01*
X425941D01*
Y784767D01*
X423983Y782809D01*
X399780D01*
X398984Y783999D01*
X397165Y785215D01*
X395019Y785642D01*
X392873Y785215D01*
X391054Y783999D01*
X389838Y782180D01*
X389412Y780034D01*
X389838Y777888D01*
X391054Y776069D01*
X392873Y774853D01*
X395019Y774426D01*
X397165Y774853D01*
X398984Y776069D01*
X399400Y776691D01*
X424569D01*
X425095Y775421D01*
X420733Y771059D01*
X383767D01*
X380163Y774663D01*
X380000Y774772D01*
Y783500D01*
X379109D01*
Y795000D01*
X385550D01*
Y814000D01*
X366550D01*
Y795000D01*
X372991D01*
Y783500D01*
X368000D01*
Y769500D01*
X376674D01*
X380337Y765837D01*
X381329Y765174D01*
X382500Y764941D01*
X422000D01*
X422000Y764941D01*
X423171Y765174D01*
X424163Y765837D01*
X429980Y771654D01*
X431250Y771128D01*
Y770750D01*
X440250D01*
Y770750D01*
X441250D01*
Y770750D01*
X450250D01*
Y780750D01*
X449064D01*
Y781500D01*
X448811Y782768D01*
X448093Y783843D01*
X446556Y785380D01*
X447082Y786650D01*
X458186D01*
Y770750D01*
X458439Y769482D01*
X459157Y768407D01*
X461407Y766157D01*
X461545Y766064D01*
X463953Y763657D01*
X465028Y762939D01*
X466296Y762686D01*
X501750D01*
X503018Y762939D01*
X504093Y763657D01*
X522231Y781795D01*
X523000Y781642D01*
X525146Y782069D01*
X526965Y783285D01*
X528181Y785104D01*
X528608Y787250D01*
X528181Y789396D01*
X526965Y791215D01*
X525146Y792431D01*
X523000Y792858D01*
X520854Y792431D01*
X519035Y791215D01*
X517819Y789396D01*
X517392Y787250D01*
X517545Y786481D01*
X500378Y769314D01*
X470844D01*
X470646Y770569D01*
X472465Y771785D01*
X473681Y773604D01*
X474021Y775315D01*
X475105Y775884D01*
X475337Y775916D01*
X476604Y775069D01*
X478750Y774642D01*
X480896Y775069D01*
X482715Y776285D01*
X483931Y778104D01*
X484358Y780250D01*
X483931Y782396D01*
X482715Y784215D01*
X480896Y785431D01*
X479394Y785730D01*
X478637Y786555D01*
X478550Y787094D01*
Y806250D01*
X458314D01*
Y809628D01*
X466593Y817907D01*
X466948Y818438D01*
X468215Y819285D01*
X469431Y821104D01*
X469635Y822132D01*
X471013Y822550D01*
X472407Y821157D01*
X473482Y820439D01*
X474750Y820186D01*
X486000D01*
Y816500D01*
X498000D01*
Y830500D01*
X497596D01*
X497109Y831673D01*
X512343Y846907D01*
X513061Y847982D01*
X513314Y849250D01*
Y872750D01*
X513061Y874018D01*
X512343Y875093D01*
X507814Y879622D01*
Y955250D01*
X512418D01*
Y943750D01*
X512745Y941270D01*
X513702Y938959D01*
X515225Y936975D01*
X531418Y920781D01*
Y835500D01*
X528250D01*
Y799000D01*
X553750D01*
Y810190D01*
X599000D01*
X600827Y810430D01*
X600996Y810500D01*
X611750D01*
Y824000D01*
X600996D01*
X600827Y824070D01*
X599000Y824310D01*
X553750D01*
Y835500D01*
X550582D01*
Y924750D01*
X550256Y927230D01*
X549298Y929541D01*
X547775Y931525D01*
X531582Y947719D01*
Y955250D01*
X532750D01*
Y994250D01*
X526382D01*
X526320Y994719D01*
X525615Y996422D01*
X524492Y997885D01*
X514885Y1007492D01*
X513422Y1008615D01*
X511720Y1009320D01*
X509892Y1009560D01*
X462750D01*
X460923Y1009320D01*
X459220Y1008615D01*
X457758Y1007492D01*
X411170Y960905D01*
X403250Y968826D01*
Y974500D01*
X401809D01*
Y990250D01*
X403250D01*
Y1000250D01*
X401809D01*
Y1016000D01*
X403250D01*
Y1026000D01*
X401809D01*
Y1041750D01*
X403250D01*
Y1051750D01*
X394520D01*
X394250Y1051750D01*
X393250D01*
X392980Y1051750D01*
X384250D01*
Y1049489D01*
X378022D01*
X377648Y1050391D01*
X376125Y1052375D01*
X374141Y1053898D01*
X371830Y1054855D01*
X369350Y1055182D01*
X366870Y1054855D01*
X364559Y1053898D01*
X362575Y1052375D01*
X361052Y1050391D01*
X360095Y1048080D01*
X359768Y1045600D01*
X360095Y1043120D01*
X361052Y1040809D01*
X362575Y1038824D01*
X364559Y1037302D01*
X366870Y1036345D01*
X369350Y1036018D01*
X371830Y1036345D01*
X374141Y1037302D01*
X376125Y1038824D01*
X377648Y1040809D01*
X378498Y1042861D01*
X384250D01*
Y1041750D01*
X392980D01*
X393250Y1041750D01*
X394250D01*
X394421Y1041750D01*
X395691Y1041511D01*
Y1026898D01*
X394879Y1026086D01*
X394421Y1026000D01*
X393250D01*
X392980Y1026000D01*
X384250D01*
Y1023914D01*
X378094D01*
X377648Y1024991D01*
X376125Y1026975D01*
X374141Y1028498D01*
X371830Y1029455D01*
X369350Y1029782D01*
X366870Y1029455D01*
X364559Y1028498D01*
X362575Y1026975D01*
X361052Y1024991D01*
X360095Y1022680D01*
X359768Y1020200D01*
X360095Y1017720D01*
X361052Y1015409D01*
X362575Y1013425D01*
X364559Y1011902D01*
X366870Y1010945D01*
X369350Y1010618D01*
X371830Y1010945D01*
X374141Y1011902D01*
X376125Y1013425D01*
X377648Y1015409D01*
X378426Y1017286D01*
X384250D01*
Y1016000D01*
X392980D01*
X393250Y1016000D01*
X394250D01*
X394421Y1016000D01*
X395691Y1015761D01*
Y1001148D01*
X394879Y1000336D01*
X394421Y1000250D01*
X393250D01*
X392980Y1000250D01*
X384250D01*
Y998339D01*
X378167D01*
X377648Y999591D01*
X376125Y1001575D01*
X374141Y1003098D01*
X371830Y1004055D01*
X369350Y1004382D01*
X366870Y1004055D01*
X364559Y1003098D01*
X362575Y1001575D01*
X361052Y999591D01*
X360095Y997280D01*
X359768Y994800D01*
X360095Y992320D01*
X361052Y990009D01*
X362575Y988025D01*
X364559Y986502D01*
X366870Y985545D01*
X369350Y985218D01*
X371830Y985545D01*
X374141Y986502D01*
X376125Y988025D01*
X377648Y990009D01*
X378353Y991711D01*
X384250D01*
Y990250D01*
X392980D01*
X393250Y990250D01*
X394250D01*
X394421Y990250D01*
X395691Y990012D01*
Y975398D01*
X394879Y974586D01*
X394421Y974500D01*
X393250D01*
X392980Y974500D01*
X384250D01*
Y972764D01*
X378239D01*
X377648Y974191D01*
X376125Y976175D01*
X374141Y977698D01*
X371830Y978655D01*
X369350Y978982D01*
X366870Y978655D01*
X364559Y977698D01*
X362575Y976175D01*
X361052Y974191D01*
X360095Y971880D01*
X359768Y969400D01*
X360095Y966920D01*
X361052Y964609D01*
X362575Y962625D01*
X364559Y961102D01*
X366870Y960145D01*
X369350Y959818D01*
X371830Y960145D01*
X374141Y961102D01*
X376125Y962625D01*
X377648Y964609D01*
X378281Y966136D01*
X384250D01*
Y964500D01*
X392980D01*
X393250Y964500D01*
X394250D01*
X394520Y964500D01*
X398924D01*
X406845Y956580D01*
X395075Y944810D01*
X286250D01*
X284423Y944570D01*
X283951Y944374D01*
X269059Y959267D01*
Y961750D01*
X270500D01*
Y971750D01*
X269059D01*
Y991250D01*
X270500D01*
Y1001250D01*
X269059D01*
Y1021500D01*
X270500D01*
Y1031500D01*
X269059D01*
Y1049500D01*
X270500D01*
Y1059418D01*
X428691D01*
Y1038321D01*
X427785Y1037715D01*
X426569Y1035896D01*
X426142Y1033750D01*
X426569Y1031604D01*
X427785Y1029785D01*
X429604Y1028569D01*
X431750Y1028142D01*
X433896Y1028569D01*
X435715Y1029785D01*
X436931Y1031604D01*
X437358Y1033750D01*
X437145Y1034819D01*
X441535Y1039210D01*
X442805Y1038883D01*
Y1033750D01*
X457805D01*
Y1050250D01*
X442805D01*
Y1045559D01*
X440500D01*
X440500Y1045559D01*
X439329Y1045326D01*
X438337Y1044663D01*
X438337Y1044663D01*
X435982Y1042308D01*
X434809Y1042794D01*
Y1059418D01*
X545381D01*
X549466Y1055333D01*
X549659Y1053867D01*
X550868Y1050948D01*
X551850Y1049668D01*
Y1047500D01*
X554018D01*
X555298Y1046518D01*
X558217Y1045309D01*
X561350Y1044896D01*
X586750D01*
X589883Y1045309D01*
X592802Y1046518D01*
X595308Y1048441D01*
X597232Y1050948D01*
X598441Y1053867D01*
X598854Y1057000D01*
X598441Y1060133D01*
X597232Y1063052D01*
X595308Y1065558D01*
X592802Y1067482D01*
X589883Y1068691D01*
X586750Y1069104D01*
X562797D01*
X556740Y1075161D01*
X557266Y1076431D01*
X626431D01*
X626432Y3569D01*
D02*
G37*
G36*
X507268Y994294D02*
X507250Y994250D01*
X507250D01*
Y978064D01*
X505965D01*
X504697Y977811D01*
X503621Y977093D01*
X502157Y975629D01*
X501439Y974554D01*
X501186Y973286D01*
Y882814D01*
X489873D01*
X471843Y900843D01*
X471843Y900843D01*
X451988Y920698D01*
X452614Y921868D01*
X453750Y921642D01*
X455896Y922069D01*
X457715Y923285D01*
X458931Y925104D01*
X459358Y927250D01*
X458931Y929396D01*
X457715Y931215D01*
X455896Y932431D01*
X453750Y932858D01*
X451604Y932431D01*
X449785Y931215D01*
X448569Y929396D01*
X448142Y927250D01*
X448368Y926114D01*
X447198Y925488D01*
X444843Y927843D01*
X443768Y928561D01*
X442500Y928814D01*
X440750D01*
Y931500D01*
X426750D01*
Y919500D01*
X430436D01*
Y911500D01*
X430689Y910232D01*
X431407Y909157D01*
X437886Y902677D01*
Y885093D01*
X436616Y884708D01*
X436613Y884713D01*
X432395Y888931D01*
X432608Y890000D01*
X432181Y892146D01*
X430965Y893965D01*
X429146Y895181D01*
X427000Y895608D01*
X424854Y895181D01*
X423035Y893965D01*
X422650Y893389D01*
X421984D01*
X420164Y894605D01*
X418018Y895032D01*
X415872Y894605D01*
X414053Y893389D01*
X412838Y891570D01*
X412411Y889424D01*
X412838Y887278D01*
X414053Y885459D01*
X415872Y884243D01*
X417194Y883980D01*
X424891Y876283D01*
Y869045D01*
X423621Y868519D01*
X419173Y872967D01*
X418181Y873630D01*
X417010Y873863D01*
X417010Y873863D01*
X415213D01*
X412895Y876181D01*
X413108Y877250D01*
X412681Y879396D01*
X411465Y881215D01*
X409646Y882431D01*
X407500Y882858D01*
X405354Y882431D01*
X403535Y881215D01*
X402319Y879396D01*
X401892Y877250D01*
X402319Y875104D01*
X402873Y874275D01*
X402194Y873005D01*
X400570D01*
X394645Y878931D01*
X394858Y880000D01*
X394431Y882146D01*
X393215Y883965D01*
X391396Y885181D01*
X389250Y885608D01*
X387104Y885181D01*
X385339Y884001D01*
X385027Y884064D01*
X384069Y884431D01*
Y890520D01*
X384465Y890785D01*
X385681Y892604D01*
X386108Y894750D01*
X385681Y896896D01*
X384465Y898715D01*
X382646Y899931D01*
X380500Y900358D01*
X378354Y899931D01*
X376535Y898715D01*
X375319Y896896D01*
X374892Y894750D01*
X375319Y892604D01*
X376535Y890785D01*
X376931Y890520D01*
Y877834D01*
X377203Y876468D01*
X377837Y875520D01*
X377452Y874250D01*
X368000D01*
Y860250D01*
X372741D01*
Y849500D01*
X366300D01*
Y830500D01*
X373191D01*
Y828267D01*
X369233Y824309D01*
X288422D01*
X288422Y824309D01*
X287251Y824076D01*
X286259Y823413D01*
X286259Y823413D01*
X285087Y822241D01*
X284424Y821249D01*
X284191Y820078D01*
X284191Y820078D01*
Y809126D01*
X282921Y808873D01*
X282748Y809291D01*
X281225Y811275D01*
X279548Y812563D01*
Y832129D01*
X280975Y833224D01*
X282498Y835209D01*
X283456Y837520D01*
X283782Y840000D01*
X283456Y842480D01*
X282498Y844791D01*
X280975Y846775D01*
X279548Y847871D01*
Y881945D01*
X280564Y883270D01*
X281270Y884973D01*
X281510Y886800D01*
Y923026D01*
X289174Y930690D01*
X398000D01*
X399827Y930930D01*
X401530Y931636D01*
X402992Y932757D01*
X419117Y948883D01*
X465675Y995440D01*
X470709D01*
X471710Y994790D01*
X471710Y994170D01*
Y976020D01*
X485000D01*
X498290D01*
Y994170D01*
X498290Y994790D01*
X499291Y995440D01*
X506404D01*
X507268Y994294D01*
D02*
G37*
G36*
X467157Y896157D02*
X486157Y877157D01*
X487232Y876439D01*
X488500Y876186D01*
X501435D01*
X501797Y875694D01*
X501067Y874545D01*
X500750Y874608D01*
X498604Y874181D01*
X496785Y872965D01*
X495569Y871146D01*
X495142Y869000D01*
X495569Y866854D01*
X496785Y865035D01*
X497691Y864429D01*
Y850517D01*
X491233Y844059D01*
X479741D01*
X478550Y844250D01*
Y859524D01*
X482206Y863180D01*
X482206Y863180D01*
X482381Y863442D01*
X483146Y863594D01*
X484965Y864810D01*
X486181Y866629D01*
X486608Y868775D01*
X486181Y870921D01*
X484965Y872740D01*
X483146Y873956D01*
X481000Y874383D01*
X478854Y873956D01*
X477035Y872740D01*
X475819Y870921D01*
X475392Y868775D01*
X475819Y866629D01*
X476293Y865919D01*
X474224Y863850D01*
X464746D01*
Y872679D01*
X465840Y873410D01*
X467056Y875229D01*
X467483Y877375D01*
X467056Y879521D01*
X465840Y881340D01*
X464021Y882556D01*
X461875Y882983D01*
X459857Y882581D01*
X459524Y882857D01*
X459013Y883605D01*
X459681Y884604D01*
X460108Y886750D01*
X459681Y888896D01*
X458465Y890715D01*
X456646Y891931D01*
X454500Y892358D01*
X452354Y891931D01*
X450535Y890715D01*
X449319Y888896D01*
X448892Y886750D01*
X449319Y884604D01*
X450535Y882785D01*
X451691Y882012D01*
Y864390D01*
X449770D01*
Y854050D01*
Y843710D01*
X453090D01*
Y844250D01*
X465113D01*
Y842172D01*
X465113Y842172D01*
X465346Y841001D01*
X466009Y840009D01*
X467180Y838837D01*
X467180Y838837D01*
X468173Y838174D01*
X469343Y837941D01*
X469343Y837941D01*
X492209D01*
X492648Y837242D01*
X492762Y836699D01*
X489657Y833593D01*
X488939Y832518D01*
X488686Y831250D01*
Y830500D01*
X486000D01*
Y826814D01*
X476123D01*
X469593Y833343D01*
X468518Y834061D01*
X467250Y834314D01*
X432250D01*
X430982Y834061D01*
X429907Y833343D01*
X426907Y830343D01*
X426189Y829268D01*
X425936Y828000D01*
Y823385D01*
X424666Y822880D01*
X403819Y843728D01*
Y858084D01*
X403547Y859449D01*
X402773Y860607D01*
X397091Y866289D01*
X397901Y867276D01*
X398133Y867121D01*
X399303Y866888D01*
X404586D01*
X411950Y859524D01*
Y844250D01*
X443910D01*
Y843710D01*
X447230D01*
Y854050D01*
Y864390D01*
X444514D01*
Y904050D01*
X444261Y905318D01*
X443543Y906393D01*
X437064Y912873D01*
Y919500D01*
X440750D01*
Y920768D01*
X442020Y921294D01*
X467157Y896157D01*
D02*
G37*
%LPC*%
G36*
X472388Y1048390D02*
X468118D01*
Y1044620D01*
X472388D01*
Y1048390D01*
D02*
G37*
G36*
X465578D02*
X461308D01*
Y1044620D01*
X465578D01*
Y1048390D01*
D02*
G37*
G36*
X521192Y1051290D02*
X514422D01*
Y1043770D01*
X521192D01*
Y1051290D01*
D02*
G37*
G36*
X490491D02*
X483721D01*
Y1043770D01*
X490491D01*
Y1051290D01*
D02*
G37*
G36*
X511882D02*
X505112D01*
Y1043770D01*
X511882D01*
Y1051290D01*
D02*
G37*
G36*
X481181D02*
X474411D01*
Y1043770D01*
X481181D01*
Y1051290D01*
D02*
G37*
G36*
X533250Y1047850D02*
X523250D01*
Y1039120D01*
X523250Y1038850D01*
Y1037850D01*
X523250Y1037580D01*
Y1033536D01*
X517527Y1027814D01*
X517402D01*
X517082Y1027750D01*
X505652D01*
Y1011250D01*
X520652D01*
Y1021762D01*
X521243Y1022157D01*
X527936Y1028850D01*
X533250D01*
Y1037580D01*
X533250Y1037850D01*
Y1038916D01*
X533742Y1040186D01*
X537203D01*
X537319Y1039604D01*
X538535Y1037785D01*
X540354Y1036569D01*
X542500Y1036142D01*
X544646Y1036569D01*
X546465Y1037785D01*
X547681Y1039604D01*
X548108Y1041750D01*
X547681Y1043896D01*
X546465Y1045715D01*
X544646Y1046931D01*
X542500Y1047358D01*
X540354Y1046931D01*
X540030Y1046715D01*
X539532Y1046814D01*
X533250D01*
Y1047850D01*
D02*
G37*
G36*
X302650Y1055100D02*
X283650D01*
Y1036100D01*
X302650D01*
Y1055100D01*
D02*
G37*
G36*
X170650D02*
X151650D01*
Y1036100D01*
X170650D01*
Y1055100D01*
D02*
G37*
G36*
X521192Y1041230D02*
X514422D01*
Y1033710D01*
X521192D01*
Y1041230D01*
D02*
G37*
G36*
X511882D02*
X505112D01*
Y1033710D01*
X511882D01*
Y1041230D01*
D02*
G37*
G36*
X490491D02*
X483721D01*
Y1033710D01*
X490491D01*
Y1041230D01*
D02*
G37*
G36*
X481181D02*
X474411D01*
Y1033710D01*
X481181D01*
Y1041230D01*
D02*
G37*
G36*
X109670Y1041659D02*
Y1032970D01*
X118359D01*
X118182Y1034321D01*
X117170Y1036763D01*
X115561Y1038861D01*
X113463Y1040470D01*
X111021Y1041482D01*
X109670Y1041659D01*
D02*
G37*
G36*
X84270D02*
Y1032970D01*
X92959D01*
X92782Y1034321D01*
X91770Y1036763D01*
X90161Y1038861D01*
X88063Y1040470D01*
X85621Y1041482D01*
X84270Y1041659D01*
D02*
G37*
G36*
X81730Y1041659D02*
X80379Y1041482D01*
X77937Y1040470D01*
X75839Y1038861D01*
X74230Y1036763D01*
X73218Y1034321D01*
X73041Y1032970D01*
X81730D01*
Y1041659D01*
D02*
G37*
G36*
X107130D02*
X105779Y1041482D01*
X103337Y1040470D01*
X101239Y1038861D01*
X99630Y1036763D01*
X98618Y1034321D01*
X98441Y1032970D01*
X107130D01*
Y1041659D01*
D02*
G37*
G36*
X588020Y1041559D02*
Y1032870D01*
X596709D01*
X596532Y1034221D01*
X595520Y1036663D01*
X593911Y1038761D01*
X591813Y1040370D01*
X589371Y1041382D01*
X588020Y1041559D01*
D02*
G37*
G36*
X562620D02*
Y1032870D01*
X571309D01*
X571132Y1034221D01*
X570120Y1036663D01*
X568511Y1038761D01*
X566413Y1040370D01*
X563971Y1041382D01*
X562620Y1041559D01*
D02*
G37*
G36*
X585480Y1041559D02*
X584129Y1041382D01*
X581687Y1040370D01*
X579589Y1038761D01*
X577980Y1036663D01*
X576968Y1034221D01*
X576791Y1032870D01*
X585480D01*
Y1041559D01*
D02*
G37*
G36*
X560080D02*
X558729Y1041382D01*
X556287Y1040370D01*
X554189Y1038761D01*
X552580Y1036663D01*
X551568Y1034221D01*
X551391Y1032870D01*
X560080D01*
Y1041559D01*
D02*
G37*
G36*
X498201Y1051258D02*
X496055Y1050831D01*
X494236Y1049615D01*
X493020Y1047796D01*
X492593Y1045650D01*
X493020Y1043504D01*
X494236Y1041685D01*
X494662Y1041400D01*
Y1036000D01*
X492750D01*
Y1027270D01*
X492750Y1027000D01*
Y1026000D01*
X491896Y1024814D01*
X489951D01*
Y1027750D01*
X474951D01*
Y1011250D01*
X489951D01*
Y1018186D01*
X492750D01*
Y1017000D01*
X502750D01*
Y1025730D01*
X502750Y1026000D01*
Y1027000D01*
X502750Y1027270D01*
Y1036000D01*
X501289D01*
Y1041099D01*
X502166Y1041685D01*
X503382Y1043504D01*
X503809Y1045650D01*
X503382Y1047796D01*
X502166Y1049615D01*
X500347Y1050831D01*
X498201Y1051258D01*
D02*
G37*
G36*
X118359Y1030430D02*
X109670D01*
Y1021741D01*
X111021Y1021918D01*
X113463Y1022930D01*
X115561Y1024539D01*
X117170Y1026637D01*
X118182Y1029079D01*
X118359Y1030430D01*
D02*
G37*
G36*
X92959D02*
X84270D01*
Y1021741D01*
X85621Y1021918D01*
X88063Y1022930D01*
X90161Y1024539D01*
X91770Y1026637D01*
X92782Y1029079D01*
X92959Y1030430D01*
D02*
G37*
G36*
X107130D02*
X98441D01*
X98618Y1029079D01*
X99630Y1026637D01*
X101239Y1024539D01*
X103337Y1022930D01*
X105779Y1021918D01*
X107130Y1021741D01*
Y1030430D01*
D02*
G37*
G36*
X81730D02*
X73041D01*
X73218Y1029079D01*
X74230Y1026637D01*
X75839Y1024539D01*
X77937Y1022930D01*
X80379Y1021918D01*
X81730Y1021741D01*
Y1030430D01*
D02*
G37*
G36*
X585480Y1030330D02*
X576791D01*
X576968Y1028979D01*
X577980Y1026537D01*
X579589Y1024439D01*
X581687Y1022830D01*
X584129Y1021818D01*
X585480Y1021641D01*
Y1030330D01*
D02*
G37*
G36*
X560080D02*
X551391D01*
X551568Y1028979D01*
X552580Y1026537D01*
X554189Y1024439D01*
X556287Y1022830D01*
X558729Y1021818D01*
X560080Y1021641D01*
Y1030330D01*
D02*
G37*
G36*
X596709D02*
X588020D01*
Y1021641D01*
X589371Y1021818D01*
X591813Y1022830D01*
X593911Y1024439D01*
X595520Y1026537D01*
X596532Y1028979D01*
X596709Y1030330D01*
D02*
G37*
G36*
X571309D02*
X562620D01*
Y1021641D01*
X563971Y1021818D01*
X566413Y1022830D01*
X568511Y1024439D01*
X570120Y1026537D01*
X571132Y1028979D01*
X571309Y1030330D01*
D02*
G37*
G36*
X466848Y1043350D02*
D01*
Y1042080D01*
X461308D01*
Y1038310D01*
X461848Y1037264D01*
X461848Y1033536D01*
X456125Y1027814D01*
X456000D01*
X454732Y1027561D01*
X454266Y1027250D01*
X442805D01*
Y1010750D01*
X457805D01*
Y1021247D01*
X458766Y1021439D01*
X459841Y1022157D01*
X466534Y1028850D01*
X471848D01*
X471848Y1037264D01*
X472388Y1038310D01*
X472388Y1038896D01*
Y1042080D01*
X466848D01*
Y1043350D01*
D02*
G37*
G36*
X293150Y1029782D02*
X290670Y1029455D01*
X288359Y1028498D01*
X286375Y1026975D01*
X284852Y1024991D01*
X283895Y1022680D01*
X283568Y1020200D01*
X283895Y1017720D01*
X284852Y1015409D01*
X286375Y1013425D01*
X288359Y1011902D01*
X290670Y1010945D01*
X293150Y1010618D01*
X295630Y1010945D01*
X297941Y1011902D01*
X299925Y1013425D01*
X301448Y1015409D01*
X302405Y1017720D01*
X302732Y1020200D01*
X302405Y1022680D01*
X301448Y1024991D01*
X299925Y1026975D01*
X297941Y1028498D01*
X295630Y1029455D01*
X293150Y1029782D01*
D02*
G37*
G36*
X161150D02*
X158670Y1029455D01*
X156359Y1028498D01*
X154375Y1026975D01*
X152852Y1024991D01*
X151895Y1022680D01*
X151568Y1020200D01*
X151895Y1017720D01*
X152852Y1015409D01*
X154375Y1013425D01*
X156359Y1011902D01*
X158670Y1010945D01*
X161150Y1010618D01*
X163630Y1010945D01*
X165941Y1011902D01*
X167925Y1013425D01*
X169448Y1015409D01*
X170406Y1017720D01*
X170732Y1020200D01*
X170406Y1022680D01*
X169448Y1024991D01*
X167925Y1026975D01*
X165941Y1028498D01*
X163630Y1029455D01*
X161150Y1029782D01*
D02*
G37*
G36*
X108400Y1015882D02*
X105920Y1015555D01*
X103609Y1014598D01*
X101624Y1013075D01*
X100102Y1011091D01*
X99144Y1008780D01*
X98818Y1006300D01*
X99144Y1003820D01*
X100102Y1001509D01*
X101624Y999525D01*
X103609Y998002D01*
X105920Y997045D01*
X108400Y996718D01*
X110880Y997045D01*
X113191Y998002D01*
X115175Y999525D01*
X116698Y1001509D01*
X117655Y1003820D01*
X117982Y1006300D01*
X117655Y1008780D01*
X116698Y1011091D01*
X115175Y1013075D01*
X113191Y1014598D01*
X110880Y1015555D01*
X108400Y1015882D01*
D02*
G37*
G36*
X83000D02*
X80520Y1015555D01*
X78209Y1014598D01*
X76224Y1013075D01*
X74702Y1011091D01*
X73745Y1008780D01*
X73418Y1006300D01*
X73745Y1003820D01*
X74702Y1001509D01*
X76224Y999525D01*
X78209Y998002D01*
X80520Y997045D01*
X83000Y996718D01*
X85480Y997045D01*
X87791Y998002D01*
X89775Y999525D01*
X91298Y1001509D01*
X92255Y1003820D01*
X92582Y1006300D01*
X92255Y1008780D01*
X91298Y1011091D01*
X89775Y1013075D01*
X87791Y1014598D01*
X85480Y1015555D01*
X83000Y1015882D01*
D02*
G37*
G36*
X586750Y1015782D02*
X584270Y1015455D01*
X581959Y1014498D01*
X579975Y1012975D01*
X578452Y1010991D01*
X577495Y1008680D01*
X577168Y1006200D01*
X577495Y1003720D01*
X578452Y1001409D01*
X579975Y999425D01*
X581959Y997902D01*
X584270Y996945D01*
X586750Y996618D01*
X589230Y996945D01*
X591541Y997902D01*
X593526Y999425D01*
X595048Y1001409D01*
X596006Y1003720D01*
X596332Y1006200D01*
X596006Y1008680D01*
X595048Y1010991D01*
X593526Y1012975D01*
X591541Y1014498D01*
X589230Y1015455D01*
X586750Y1015782D01*
D02*
G37*
G36*
X561350D02*
X558870Y1015455D01*
X556559Y1014498D01*
X554575Y1012975D01*
X553052Y1010991D01*
X552095Y1008680D01*
X551768Y1006200D01*
X552095Y1003720D01*
X553052Y1001409D01*
X554575Y999425D01*
X556559Y997902D01*
X558870Y996945D01*
X561350Y996618D01*
X563830Y996945D01*
X566141Y997902D01*
X568125Y999425D01*
X569648Y1001409D01*
X570606Y1003720D01*
X570932Y1006200D01*
X570606Y1008680D01*
X569648Y1010991D01*
X568125Y1012975D01*
X566141Y1014498D01*
X563830Y1015455D01*
X561350Y1015782D01*
D02*
G37*
G36*
X293150Y1004382D02*
X290670Y1004055D01*
X288359Y1003098D01*
X286375Y1001575D01*
X284852Y999591D01*
X283895Y997280D01*
X283568Y994800D01*
X283895Y992320D01*
X284852Y990009D01*
X286375Y988025D01*
X288359Y986502D01*
X290670Y985545D01*
X293150Y985218D01*
X295630Y985545D01*
X297941Y986502D01*
X299925Y988025D01*
X301448Y990009D01*
X302405Y992320D01*
X302732Y994800D01*
X302405Y997280D01*
X301448Y999591D01*
X299925Y1001575D01*
X297941Y1003098D01*
X295630Y1004055D01*
X293150Y1004382D01*
D02*
G37*
G36*
X161150D02*
X158670Y1004055D01*
X156359Y1003098D01*
X154375Y1001575D01*
X152852Y999591D01*
X151895Y997280D01*
X151568Y994800D01*
X151895Y992320D01*
X152852Y990009D01*
X154375Y988025D01*
X156359Y986502D01*
X158670Y985545D01*
X161150Y985218D01*
X163630Y985545D01*
X165941Y986502D01*
X167925Y988025D01*
X169448Y990009D01*
X170406Y992320D01*
X170732Y994800D01*
X170406Y997280D01*
X169448Y999591D01*
X167925Y1001575D01*
X165941Y1003098D01*
X163630Y1004055D01*
X161150Y1004382D01*
D02*
G37*
G36*
X109670Y990859D02*
Y982170D01*
X118359D01*
X118182Y983521D01*
X117170Y985963D01*
X115561Y988061D01*
X113463Y989670D01*
X111021Y990682D01*
X109670Y990859D01*
D02*
G37*
G36*
X84270D02*
Y982170D01*
X92959D01*
X92782Y983521D01*
X91770Y985963D01*
X90161Y988061D01*
X88063Y989670D01*
X85621Y990682D01*
X84270Y990859D01*
D02*
G37*
G36*
X107130Y990859D02*
X105779Y990682D01*
X103337Y989670D01*
X101239Y988061D01*
X99630Y985963D01*
X98618Y983521D01*
X98441Y982170D01*
X107130D01*
Y990859D01*
D02*
G37*
G36*
X81730D02*
X80379Y990682D01*
X77937Y989670D01*
X75839Y988061D01*
X74230Y985963D01*
X73218Y983521D01*
X73041Y982170D01*
X81730D01*
Y990859D01*
D02*
G37*
G36*
X588020Y990759D02*
Y982070D01*
X596709D01*
X596532Y983421D01*
X595520Y985863D01*
X593911Y987961D01*
X591813Y989570D01*
X589371Y990582D01*
X588020Y990759D01*
D02*
G37*
G36*
X562620D02*
Y982070D01*
X571309D01*
X571132Y983421D01*
X570120Y985863D01*
X568511Y987961D01*
X566413Y989570D01*
X563971Y990582D01*
X562620Y990759D01*
D02*
G37*
G36*
X585480Y990759D02*
X584129Y990582D01*
X581687Y989570D01*
X579589Y987961D01*
X577980Y985863D01*
X576968Y983421D01*
X576791Y982070D01*
X585480D01*
Y990759D01*
D02*
G37*
G36*
X560080D02*
X558729Y990582D01*
X556287Y989570D01*
X554189Y987961D01*
X552580Y985863D01*
X551568Y983421D01*
X551391Y982070D01*
X560080D01*
Y990759D01*
D02*
G37*
G36*
X586750Y980800D02*
D01*
D01*
D01*
D02*
G37*
G36*
X118359Y979630D02*
X109670D01*
Y970941D01*
X111021Y971118D01*
X113463Y972130D01*
X115561Y973739D01*
X117170Y975837D01*
X118182Y978279D01*
X118359Y979630D01*
D02*
G37*
G36*
X92959D02*
X84270D01*
Y970941D01*
X85621Y971118D01*
X88063Y972130D01*
X90161Y973739D01*
X91770Y975837D01*
X92782Y978279D01*
X92959Y979630D01*
D02*
G37*
G36*
X107130D02*
X98441D01*
X98618Y978279D01*
X99630Y975837D01*
X101239Y973739D01*
X103337Y972130D01*
X105779Y971118D01*
X107130Y970941D01*
Y979630D01*
D02*
G37*
G36*
X81730D02*
X73041D01*
X73218Y978279D01*
X74230Y975837D01*
X75839Y973739D01*
X77937Y972130D01*
X80379Y971118D01*
X81730Y970941D01*
Y979630D01*
D02*
G37*
G36*
X585480Y979530D02*
X576791D01*
X576968Y978179D01*
X577980Y975737D01*
X579589Y973639D01*
X581687Y972030D01*
X584129Y971018D01*
X585480Y970841D01*
Y979530D01*
D02*
G37*
G36*
X560080D02*
X551391D01*
X551568Y978179D01*
X552580Y975737D01*
X554189Y973639D01*
X556287Y972030D01*
X558729Y971018D01*
X560080Y970841D01*
Y979530D01*
D02*
G37*
G36*
X596709D02*
X588020D01*
Y970841D01*
X589371Y971018D01*
X591813Y972030D01*
X593911Y973639D01*
X595520Y975737D01*
X596532Y978179D01*
X596709Y979530D01*
D02*
G37*
G36*
X571309D02*
X562620D01*
Y970841D01*
X563971Y971018D01*
X566413Y972030D01*
X568511Y973639D01*
X570120Y975737D01*
X571132Y978179D01*
X571309Y979530D01*
D02*
G37*
G36*
X586750Y964982D02*
X584270Y964655D01*
X581959Y963698D01*
X580346Y962460D01*
X567754D01*
X566141Y963698D01*
X563830Y964655D01*
X561350Y964982D01*
X558870Y964655D01*
X556559Y963698D01*
X554575Y962175D01*
X553052Y960191D01*
X552095Y957880D01*
X551768Y955400D01*
X552095Y952920D01*
X553052Y950609D01*
X554575Y948624D01*
X556559Y947102D01*
X558870Y946144D01*
X561350Y945818D01*
X563830Y946144D01*
X566141Y947102D01*
X567754Y948340D01*
X579690D01*
Y884097D01*
X579930Y882270D01*
X580635Y880567D01*
X581758Y879105D01*
X591940Y868923D01*
Y847000D01*
X586250D01*
Y833500D01*
X597004D01*
X597173Y833430D01*
X599000Y833190D01*
X600827Y833430D01*
X600996Y833500D01*
X611750D01*
Y847000D01*
X606060D01*
Y871847D01*
X605820Y873674D01*
X605115Y875377D01*
X603992Y876840D01*
X593810Y887021D01*
Y948996D01*
X595048Y950609D01*
X596006Y952920D01*
X596332Y955400D01*
X596006Y957880D01*
X595048Y960191D01*
X593526Y962175D01*
X591541Y963698D01*
X589230Y964655D01*
X586750Y964982D01*
D02*
G37*
G36*
X293150Y978982D02*
X290670Y978655D01*
X288359Y977698D01*
X286375Y976175D01*
X284852Y974191D01*
X283895Y971880D01*
X283568Y969400D01*
X283895Y966920D01*
X284852Y964609D01*
X286375Y962625D01*
X288359Y961102D01*
X290670Y960145D01*
X293150Y959818D01*
X295630Y960145D01*
X297941Y961102D01*
X299925Y962625D01*
X301448Y964609D01*
X302405Y966920D01*
X302732Y969400D01*
X302405Y971880D01*
X301448Y974191D01*
X299925Y976175D01*
X297941Y977698D01*
X295630Y978655D01*
X293150Y978982D01*
D02*
G37*
G36*
X117900Y965000D02*
X98900D01*
Y946000D01*
X117900D01*
Y965000D01*
D02*
G37*
G36*
X83000Y965082D02*
X80520Y964755D01*
X78209Y963798D01*
X76224Y962275D01*
X74702Y960291D01*
X73745Y957980D01*
X73418Y955500D01*
X73745Y953020D01*
X74702Y950709D01*
X76224Y948725D01*
X78209Y947202D01*
X80520Y946245D01*
X83000Y945918D01*
X85480Y946245D01*
X87791Y947202D01*
X89775Y948725D01*
X91298Y950709D01*
X92255Y953020D01*
X92582Y955500D01*
X92255Y957980D01*
X91298Y960291D01*
X89775Y962275D01*
X87791Y963798D01*
X85480Y964755D01*
X83000Y965082D01*
D02*
G37*
G36*
X184290Y946540D02*
X179020D01*
Y940270D01*
X184290D01*
Y946540D01*
D02*
G37*
G36*
X176480D02*
X171210D01*
Y940270D01*
X176480D01*
Y946540D01*
D02*
G37*
G36*
X184290Y937730D02*
X179020D01*
Y931460D01*
X184290D01*
Y937730D01*
D02*
G37*
G36*
X176480D02*
X171210D01*
Y931460D01*
X176480D01*
Y937730D01*
D02*
G37*
G36*
X230750Y888858D02*
X228604Y888431D01*
X226785Y887215D01*
X226180Y886311D01*
X224653D01*
X224215Y886965D01*
X222396Y888181D01*
X220250Y888608D01*
X218104Y888181D01*
X216285Y886965D01*
X215968Y886492D01*
X214699D01*
X214215Y887215D01*
X212396Y888431D01*
X210250Y888858D01*
X208104Y888431D01*
X206285Y887215D01*
X205069Y885396D01*
X204642Y883250D01*
X204787Y882520D01*
X202227Y879960D01*
X201453Y878802D01*
X201181Y877436D01*
Y864390D01*
X199520D01*
Y854050D01*
Y843710D01*
X202840D01*
Y844250D01*
X228300D01*
Y859164D01*
X243982Y874846D01*
X244700Y875921D01*
X244953Y877189D01*
Y877774D01*
X246465Y878785D01*
X247681Y880604D01*
X248108Y882750D01*
X247681Y884896D01*
X246465Y886715D01*
X244646Y887931D01*
X242500Y888358D01*
X240354Y887931D01*
X238535Y886715D01*
X237324Y884903D01*
X237289Y884896D01*
X236027Y884911D01*
X235931Y885396D01*
X234715Y887215D01*
X232896Y888431D01*
X230750Y888858D01*
D02*
G37*
G36*
X251040Y845790D02*
X244770D01*
Y840520D01*
X251040D01*
Y845790D01*
D02*
G37*
G36*
X242230D02*
X235960D01*
Y840520D01*
X242230D01*
Y845790D01*
D02*
G37*
G36*
X514540Y831040D02*
X509270D01*
Y824770D01*
X514540D01*
Y831040D01*
D02*
G37*
G36*
X506730D02*
X501460D01*
Y824770D01*
X506730D01*
Y831040D01*
D02*
G37*
G36*
X102500Y829358D02*
X100354Y828931D01*
X98535Y827715D01*
X97319Y825896D01*
X96892Y823750D01*
X97319Y821604D01*
X98535Y819785D01*
X100354Y818569D01*
X102500Y818142D01*
X104646Y818569D01*
X106465Y819785D01*
X107681Y821604D01*
X108108Y823750D01*
X107681Y825896D01*
X106465Y827715D01*
X104646Y828931D01*
X102500Y829358D01*
D02*
G37*
G36*
X88750D02*
X86604Y828931D01*
X84785Y827715D01*
X83569Y825896D01*
X83142Y823750D01*
X83569Y821604D01*
X84785Y819785D01*
X86604Y818569D01*
X88750Y818142D01*
X90896Y818569D01*
X92715Y819785D01*
X93931Y821604D01*
X94358Y823750D01*
X93931Y825896D01*
X92715Y827715D01*
X90896Y828931D01*
X88750Y829358D01*
D02*
G37*
G36*
X74750D02*
X72604Y828931D01*
X70785Y827715D01*
X69569Y825896D01*
X69142Y823750D01*
X69569Y821604D01*
X70785Y819785D01*
X72604Y818569D01*
X74750Y818142D01*
X76896Y818569D01*
X78715Y819785D01*
X79931Y821604D01*
X80358Y823750D01*
X79931Y825896D01*
X78715Y827715D01*
X76896Y828931D01*
X74750Y829358D01*
D02*
G37*
G36*
X514540Y822230D02*
X509270D01*
Y815960D01*
X514540D01*
Y822230D01*
D02*
G37*
G36*
X506730D02*
X501460D01*
Y815960D01*
X506730D01*
Y822230D01*
D02*
G37*
G36*
X155790Y816040D02*
X151520D01*
Y812270D01*
X155790D01*
Y816040D01*
D02*
G37*
G36*
X148980D02*
X144710D01*
Y812270D01*
X148980D01*
Y816040D01*
D02*
G37*
G36*
X406040Y809540D02*
X401770D01*
Y805770D01*
X406040D01*
Y809540D01*
D02*
G37*
G36*
X399230D02*
X394960D01*
Y805770D01*
X399230D01*
Y809540D01*
D02*
G37*
G36*
X326520Y814459D02*
Y805770D01*
X335210D01*
X335032Y807121D01*
X334020Y809563D01*
X332411Y811661D01*
X330313Y813270D01*
X327871Y814282D01*
X326520Y814459D01*
D02*
G37*
G36*
X323980Y814459D02*
X322629Y814282D01*
X320187Y813270D01*
X318089Y811661D01*
X316480Y809563D01*
X315469Y807121D01*
X315291Y805770D01*
X323980D01*
Y814459D01*
D02*
G37*
G36*
X612290Y801540D02*
X600270D01*
Y795520D01*
X612290D01*
Y801540D01*
D02*
G37*
G36*
X597730D02*
X585710D01*
Y795520D01*
X597730D01*
Y801540D01*
D02*
G37*
G36*
X350650Y814082D02*
X348170Y813755D01*
X345859Y812798D01*
X343875Y811275D01*
X342352Y809291D01*
X341395Y806980D01*
X341068Y804500D01*
X341395Y802020D01*
X342352Y799709D01*
X343875Y797725D01*
X345859Y796202D01*
X348170Y795245D01*
X350650Y794918D01*
X353130Y795245D01*
X355441Y796202D01*
X357425Y797725D01*
X358948Y799709D01*
X359906Y802020D01*
X360232Y804500D01*
X359906Y806980D01*
X358948Y809291D01*
X357425Y811275D01*
X355441Y812798D01*
X353130Y813755D01*
X350650Y814082D01*
D02*
G37*
G36*
X335209Y803230D02*
X326520D01*
Y794541D01*
X327871Y794718D01*
X330313Y795730D01*
X332411Y797339D01*
X334020Y799437D01*
X335032Y801879D01*
X335209Y803230D01*
D02*
G37*
G36*
X323980D02*
X315291D01*
X315469Y801879D01*
X316480Y799437D01*
X318089Y797339D01*
X320187Y795730D01*
X322629Y794718D01*
X323980Y794540D01*
Y803230D01*
D02*
G37*
G36*
X612290Y792980D02*
X600270D01*
Y786960D01*
X612290D01*
Y792980D01*
D02*
G37*
G36*
X597730D02*
X585710D01*
Y786960D01*
X597730D01*
Y792980D01*
D02*
G37*
G36*
X151750Y794358D02*
X149604Y793931D01*
X147785Y792715D01*
X146569Y790896D01*
X146142Y788750D01*
X146569Y786604D01*
X147785Y784785D01*
X149604Y783569D01*
X151750Y783142D01*
X153896Y783569D01*
X155715Y784785D01*
X156931Y786604D01*
X157358Y788750D01*
X156931Y790896D01*
X155715Y792715D01*
X153896Y793931D01*
X151750Y794358D01*
D02*
G37*
G36*
X364540Y784040D02*
X359270D01*
Y777770D01*
X364540D01*
Y784040D01*
D02*
G37*
G36*
X356730D02*
X351460D01*
Y777770D01*
X356730D01*
Y784040D01*
D02*
G37*
G36*
X115500Y783108D02*
X113354Y782681D01*
X111535Y781465D01*
X110319Y779646D01*
X109892Y777500D01*
X110319Y775354D01*
X111535Y773535D01*
X113354Y772319D01*
X115500Y771892D01*
X117646Y772319D01*
X119465Y773535D01*
X120681Y775354D01*
X121108Y777500D01*
X120681Y779646D01*
X119465Y781465D01*
X117646Y782681D01*
X115500Y783108D01*
D02*
G37*
G36*
X364540Y775230D02*
X359270D01*
Y768960D01*
X364540D01*
Y775230D01*
D02*
G37*
G36*
X356730D02*
X351460D01*
Y768960D01*
X356730D01*
Y775230D01*
D02*
G37*
G36*
X525000Y772108D02*
X522854Y771681D01*
X521035Y770465D01*
X519819Y768646D01*
X519392Y766500D01*
X519819Y764354D01*
X521035Y762535D01*
X522854Y761319D01*
X525000Y760892D01*
X527146Y761319D01*
X528965Y762535D01*
X530181Y764354D01*
X530608Y766500D01*
X530181Y768646D01*
X528965Y770465D01*
X527146Y771681D01*
X525000Y772108D01*
D02*
G37*
G36*
X155500D02*
X153354Y771681D01*
X151535Y770465D01*
X150319Y768646D01*
X149892Y766500D01*
X150319Y764354D01*
X151535Y762535D01*
X153354Y761319D01*
X155500Y760892D01*
X157646Y761319D01*
X159465Y762535D01*
X160681Y764354D01*
X161108Y766500D01*
X160681Y768646D01*
X159465Y770465D01*
X157646Y771681D01*
X155500Y772108D01*
D02*
G37*
G36*
X447765Y768123D02*
X445619Y767696D01*
X443800Y766481D01*
X442584Y764661D01*
X442158Y762515D01*
X442584Y760369D01*
X443800Y758550D01*
X445619Y757335D01*
X447765Y756908D01*
X449911Y757335D01*
X451731Y758550D01*
X452946Y760369D01*
X453373Y762515D01*
X452946Y764661D01*
X451731Y766481D01*
X449911Y767696D01*
X447765Y768123D01*
D02*
G37*
G36*
X587250Y720375D02*
X544227D01*
X540852Y719931D01*
X537477Y720375D01*
X444682D01*
X441307Y719931D01*
X437932Y720375D01*
X345136D01*
X341761Y719931D01*
X338386Y720375D01*
X288650D01*
X288632Y720373D01*
X288614Y720375D01*
X192450D01*
X190759Y720153D01*
X189068Y720375D01*
X146046D01*
X142670Y719931D01*
X139296Y720375D01*
X46500D01*
X43125Y719931D01*
X39750Y720375D01*
X36500D01*
X32715Y719877D01*
X29391Y718500D01*
X20250D01*
Y706933D01*
X9409Y696092D01*
X7084Y693063D01*
X5623Y689535D01*
X5125Y685750D01*
Y495000D01*
Y281750D01*
X5623Y277965D01*
X7084Y274437D01*
X9409Y271409D01*
X49625Y231192D01*
Y40250D01*
X50123Y36465D01*
X51584Y32937D01*
X52498Y31747D01*
Y30598D01*
X52898Y27556D01*
X54072Y24722D01*
X55940Y22288D01*
X58374Y20420D01*
X61208Y19246D01*
X64250Y18845D01*
X67292Y19246D01*
X70126Y20420D01*
X72560Y22288D01*
X74428Y24722D01*
X75602Y27556D01*
X76002Y30598D01*
Y31747D01*
X76916Y32937D01*
X78377Y36465D01*
X78875Y40250D01*
Y237250D01*
X78377Y241035D01*
X76916Y244563D01*
X74591Y247591D01*
X34375Y287808D01*
Y474146D01*
X36336D01*
Y461625D01*
X36336Y461625D01*
X36491Y460845D01*
X36933Y460183D01*
X39058Y458058D01*
X39720Y457616D01*
X40500Y457461D01*
X44135D01*
Y456706D01*
X44591Y454414D01*
X45889Y452470D01*
X47833Y451172D01*
X50125Y450716D01*
X57875D01*
X60167Y451172D01*
X62111Y452470D01*
X63409Y454414D01*
X63865Y456706D01*
Y457461D01*
X69375D01*
X70155Y457616D01*
X70817Y458058D01*
X71259Y458720D01*
X71414Y459500D01*
Y499250D01*
X71414Y499250D01*
X71259Y500030D01*
X70817Y500692D01*
X70817Y500692D01*
X69567Y501942D01*
X68905Y502384D01*
X68125Y502539D01*
X38375D01*
X37595Y502384D01*
X36933Y501942D01*
X36491Y501280D01*
X36336Y500500D01*
Y498354D01*
X34375D01*
Y679692D01*
X36986Y682303D01*
X38159Y681817D01*
Y673750D01*
X38159Y673750D01*
X38520Y671009D01*
X39578Y668455D01*
X41261Y666261D01*
X62397Y645125D01*
Y636396D01*
X62606Y634812D01*
Y627284D01*
X67615D01*
X67693Y627224D01*
X70247Y626166D01*
X72988Y625805D01*
X75729Y626166D01*
X78283Y627224D01*
X78361Y627284D01*
X109278D01*
Y641182D01*
X111915Y643819D01*
X112804Y643642D01*
X114950Y644069D01*
X116725Y645255D01*
X116989Y645204D01*
X117995Y644834D01*
Y640500D01*
X114500D01*
Y628500D01*
X128500D01*
Y640500D01*
X124112D01*
Y658578D01*
X124113Y658578D01*
X123880Y659749D01*
X123216Y660741D01*
X123216Y660741D01*
X122045Y661913D01*
X122059Y663431D01*
X122215Y663535D01*
X123431Y665354D01*
X123858Y667500D01*
X123431Y669646D01*
X122215Y671465D01*
X120396Y672681D01*
X118250Y673108D01*
X116104Y672681D01*
X114285Y671465D01*
X113846Y670809D01*
X110500D01*
Y672500D01*
X110500D01*
Y673500D01*
X110500D01*
Y682500D01*
X109069D01*
Y691125D01*
X126408D01*
X126711Y689855D01*
X125569Y688146D01*
X125142Y686000D01*
X125569Y683854D01*
X126785Y682035D01*
X128604Y680819D01*
X130750Y680392D01*
X132896Y680819D01*
X133039Y680915D01*
X134159Y680316D01*
Y668750D01*
X134159Y668750D01*
X134520Y666009D01*
X135578Y663455D01*
X137261Y661261D01*
X158621Y639902D01*
Y636396D01*
X158829Y634812D01*
Y627284D01*
X163838D01*
X163916Y627224D01*
X166470Y626166D01*
X169211Y625805D01*
X171952Y626166D01*
X174506Y627224D01*
X174584Y627284D01*
X205501D01*
Y641182D01*
X208138Y643819D01*
X209027Y643642D01*
X211173Y644069D01*
X212948Y645255D01*
X213212Y645204D01*
X214218Y644834D01*
Y640500D01*
X210850D01*
Y628500D01*
X224850D01*
Y640500D01*
X220336D01*
Y658578D01*
X220336Y658578D01*
X220103Y659749D01*
X219440Y660741D01*
X219440Y660741D01*
X218471Y661710D01*
X218343Y663152D01*
X218915Y663535D01*
X220131Y665354D01*
X220558Y667500D01*
X220131Y669646D01*
X218915Y671465D01*
X217096Y672681D01*
X214950Y673108D01*
X212804Y672681D01*
X210985Y671465D01*
X210546Y670809D01*
X206700D01*
Y672500D01*
X206700D01*
Y673500D01*
X206700D01*
Y682500D01*
X205269D01*
Y691125D01*
X229201D01*
Y682779D01*
X227931Y682394D01*
X227215Y683465D01*
X225396Y684681D01*
X223250Y685108D01*
X221104Y684681D01*
X219285Y683465D01*
X218069Y681646D01*
X217642Y679500D01*
X218069Y677354D01*
X219285Y675535D01*
X221104Y674319D01*
X223250Y673892D01*
X225396Y674319D01*
X227215Y675535D01*
X228236Y677062D01*
X229524Y676905D01*
X229538Y676899D01*
X229562Y676717D01*
X230620Y674163D01*
X232303Y671970D01*
X254844Y649429D01*
Y636396D01*
X255052Y634812D01*
Y627284D01*
X260061D01*
X260139Y627224D01*
X262693Y626166D01*
X265434Y625805D01*
X268175Y626166D01*
X270730Y627224D01*
X270807Y627284D01*
X301724D01*
Y641182D01*
X304361Y643819D01*
X305250Y643642D01*
X307396Y644069D01*
X309171Y645255D01*
X309435Y645204D01*
X310441Y644834D01*
Y640500D01*
X307200D01*
Y628500D01*
X321200D01*
Y640500D01*
X316559D01*
Y658578D01*
X316559Y658578D01*
X316326Y659749D01*
X315663Y660741D01*
X315663Y660741D01*
X314685Y661720D01*
X314551Y663158D01*
X315115Y663535D01*
X316331Y665354D01*
X316758Y667500D01*
X316331Y669646D01*
X315115Y671465D01*
X313296Y672681D01*
X311150Y673108D01*
X309004Y672681D01*
X307185Y671465D01*
X306746Y670809D01*
X302900D01*
Y672500D01*
X302900D01*
Y673500D01*
X302900D01*
Y682500D01*
X301469D01*
Y691125D01*
X336796D01*
Y669500D01*
X336796Y669500D01*
X337157Y666759D01*
X338215Y664205D01*
X339898Y662011D01*
X351067Y650842D01*
Y637072D01*
X351275Y635488D01*
Y627284D01*
X357850D01*
X358917Y626842D01*
X361657Y626481D01*
X364398Y626842D01*
X365465Y627284D01*
X397948D01*
Y641182D01*
X402111Y645346D01*
X403000Y645169D01*
X405146Y645596D01*
X405544Y645862D01*
X406664Y645264D01*
Y640500D01*
X403550D01*
Y628500D01*
X417550D01*
Y640500D01*
X412782D01*
Y658578D01*
X412782Y658578D01*
X412549Y659749D01*
X411886Y660741D01*
X411886Y660741D01*
X410899Y661729D01*
X410760Y663164D01*
X411315Y663535D01*
X412531Y665354D01*
X412958Y667500D01*
X412531Y669646D01*
X411315Y671465D01*
X409496Y672681D01*
X407350Y673108D01*
X405204Y672681D01*
X403385Y671465D01*
X402946Y670809D01*
X399100D01*
Y672500D01*
X399100D01*
Y673500D01*
X399100D01*
Y682500D01*
X397668D01*
Y691125D01*
X436341D01*
Y669500D01*
X436341Y669500D01*
X436702Y666759D01*
X437760Y664205D01*
X439443Y662011D01*
X447290Y654164D01*
Y637072D01*
X447290Y637072D01*
X447499Y635488D01*
Y627284D01*
X453184D01*
X453261Y627224D01*
X455816Y626166D01*
X458557Y625805D01*
X461298Y626166D01*
X463852Y627224D01*
X463930Y627284D01*
X494171D01*
Y641182D01*
X496808Y643819D01*
X497696Y643642D01*
X499842Y644069D01*
X501618Y645255D01*
X501881Y645204D01*
X502888Y644834D01*
Y640500D01*
X499900D01*
Y628500D01*
X513900D01*
Y640500D01*
X509005D01*
Y658578D01*
X509005Y658578D01*
X508772Y659749D01*
X508109Y660741D01*
X508109Y660741D01*
X507112Y661738D01*
X506969Y663170D01*
X507515Y663535D01*
X508731Y665354D01*
X509158Y667500D01*
X508731Y669646D01*
X507515Y671465D01*
X505696Y672681D01*
X503550Y673108D01*
X501404Y672681D01*
X499585Y671465D01*
X499146Y670809D01*
X495300D01*
Y672500D01*
X495300D01*
Y673500D01*
X495300D01*
Y682500D01*
X493868D01*
Y691125D01*
X535887D01*
Y649669D01*
X535887Y649669D01*
X536247Y646928D01*
X537305Y644374D01*
X538989Y642180D01*
X543513Y637656D01*
Y637646D01*
X543722Y636062D01*
Y628534D01*
X548731D01*
X548809Y628474D01*
X551363Y627416D01*
X554104Y627055D01*
X556845Y627416D01*
X559399Y628474D01*
X559477Y628534D01*
X590394D01*
Y642432D01*
X593031Y645069D01*
X593919Y644892D01*
X596065Y645319D01*
X597841Y646505D01*
X598105Y646454D01*
X599111Y646084D01*
Y640500D01*
X596250D01*
Y628500D01*
X610250D01*
Y640500D01*
X605228D01*
Y659828D01*
X605228Y659828D01*
X604995Y660999D01*
X604332Y661991D01*
X604332Y661991D01*
X604076Y662248D01*
X603715Y663535D01*
X604019Y663990D01*
X604931Y665354D01*
X605358Y667500D01*
X604931Y669646D01*
X603715Y671465D01*
X601896Y672681D01*
X599750Y673108D01*
X597604Y672681D01*
X595785Y671465D01*
X595346Y670809D01*
X591500D01*
Y672500D01*
X591500D01*
Y673500D01*
X591500D01*
Y682500D01*
X590069D01*
Y691496D01*
X591035Y691623D01*
X594359Y693000D01*
X606750D01*
Y718500D01*
X594359D01*
X591035Y719877D01*
X587250Y720375D01*
D02*
G37*
G36*
X513500Y686608D02*
X511354Y686181D01*
X509535Y684965D01*
X508319Y683146D01*
X507892Y681000D01*
X508319Y678854D01*
X509535Y677035D01*
X511354Y675819D01*
X513500Y675392D01*
X515646Y675819D01*
X517465Y677035D01*
X518681Y678854D01*
X519108Y681000D01*
X518681Y683146D01*
X517465Y684965D01*
X515646Y686181D01*
X513500Y686608D01*
D02*
G37*
G36*
X514440Y625040D02*
X508170D01*
Y619770D01*
X514440D01*
Y625040D01*
D02*
G37*
G36*
X129040D02*
X122770D01*
Y619770D01*
X129040D01*
Y625040D01*
D02*
G37*
G36*
X505630D02*
X499360D01*
Y619770D01*
X505630D01*
Y625040D01*
D02*
G37*
G36*
X120230D02*
X113960D01*
Y619770D01*
X120230D01*
Y625040D01*
D02*
G37*
G36*
X610790Y625040D02*
X604520D01*
Y619770D01*
X610790D01*
Y625040D01*
D02*
G37*
G36*
X601980D02*
X595710D01*
Y619770D01*
X601980D01*
Y625040D01*
D02*
G37*
G36*
X321740Y625040D02*
X315470D01*
Y619770D01*
X321740D01*
Y625040D01*
D02*
G37*
G36*
X312930D02*
X306660D01*
Y619770D01*
X312930D01*
Y625040D01*
D02*
G37*
G36*
X418090Y625040D02*
X411820D01*
Y619770D01*
X418090D01*
Y625040D01*
D02*
G37*
G36*
X409280D02*
X403010D01*
Y619770D01*
X409280D01*
Y625040D01*
D02*
G37*
G36*
X225390D02*
X219120D01*
Y619770D01*
X225390D01*
Y625040D01*
D02*
G37*
G36*
X216580D02*
X210310D01*
Y619770D01*
X216580D01*
Y625040D01*
D02*
G37*
G36*
X514440Y617230D02*
X508170D01*
Y611960D01*
X514440D01*
Y617230D01*
D02*
G37*
G36*
X505630D02*
X499360D01*
Y611960D01*
X505630D01*
Y617230D01*
D02*
G37*
G36*
X321740Y617230D02*
X315470D01*
Y611960D01*
X321740D01*
Y617230D01*
D02*
G37*
G36*
X312930D02*
X306660D01*
Y611960D01*
X312930D01*
Y617230D01*
D02*
G37*
G36*
X129040Y617230D02*
X122770D01*
Y611960D01*
X129040D01*
Y617230D01*
D02*
G37*
G36*
X120230D02*
X113960D01*
Y611960D01*
X120230D01*
Y617230D01*
D02*
G37*
G36*
X610790Y617230D02*
X604520D01*
Y611960D01*
X610790D01*
Y617230D01*
D02*
G37*
G36*
X601980D02*
X595710D01*
Y611960D01*
X601980D01*
Y617230D01*
D02*
G37*
G36*
X418090Y617230D02*
X411820D01*
Y611960D01*
X418090D01*
Y617230D01*
D02*
G37*
G36*
X409280D02*
X403010D01*
Y611960D01*
X409280D01*
Y617230D01*
D02*
G37*
G36*
X225390Y617230D02*
X219120D01*
Y611960D01*
X225390D01*
Y617230D01*
D02*
G37*
G36*
X216580D02*
X210310D01*
Y611960D01*
X216580D01*
Y617230D01*
D02*
G37*
G36*
X590934Y590402D02*
X587886D01*
Y582020D01*
X590934D01*
Y590402D01*
D02*
G37*
G36*
X494711Y589152D02*
X491663D01*
Y580770D01*
X494711D01*
Y589152D01*
D02*
G37*
G36*
X302264D02*
X299216D01*
Y580770D01*
X302264D01*
Y589152D01*
D02*
G37*
G36*
X109818D02*
X106770D01*
Y580770D01*
X109818D01*
Y589152D01*
D02*
G37*
G36*
X398488D02*
X395439D01*
Y580770D01*
X398488D01*
Y589152D01*
D02*
G37*
G36*
X206041D02*
X202993D01*
Y580770D01*
X206041D01*
Y589152D01*
D02*
G37*
G36*
X585346Y590402D02*
X582298D01*
Y589862D01*
X543722D01*
Y586674D01*
X542507Y585742D01*
X541385Y584280D01*
X540680Y582577D01*
X540439Y580750D01*
X540680Y578923D01*
X541385Y577220D01*
X542507Y575758D01*
X543661Y574872D01*
Y567028D01*
X543902Y565201D01*
X544607Y563498D01*
X545729Y562036D01*
X572258Y535508D01*
X573720Y534385D01*
X574835Y533924D01*
Y533875D01*
X575291Y531583D01*
X576589Y529639D01*
X578533Y528341D01*
X580825Y527885D01*
X585888D01*
X597659Y516113D01*
Y364750D01*
X592750D01*
Y324750D01*
X623750D01*
Y364750D01*
X618840D01*
Y520500D01*
X618480Y523241D01*
X617422Y525795D01*
X615739Y527989D01*
X615738Y527989D01*
X611002Y532726D01*
X611025Y532861D01*
X611412Y534112D01*
X612541Y534866D01*
X617634Y539959D01*
X618518Y541282D01*
X618810Y542750D01*
X621750D01*
Y554750D01*
X607750D01*
Y542750D01*
X606909Y541828D01*
X602325D01*
X601909Y543917D01*
X600611Y545861D01*
X598667Y547159D01*
X596375Y547615D01*
X594621D01*
X593741Y547980D01*
X591000Y548341D01*
X588259Y547980D01*
X587379Y547615D01*
X580825D01*
X580550Y547560D01*
X580174D01*
X578857Y548878D01*
X579383Y550148D01*
X595073D01*
X595073Y550148D01*
X596243Y550381D01*
X597236Y551044D01*
X606577Y560385D01*
X607750Y559899D01*
Y558750D01*
X621750D01*
Y570750D01*
X607750D01*
Y569415D01*
X607712D01*
X606347Y569143D01*
X605189Y568370D01*
X604415Y567212D01*
X604332Y566791D01*
X593806Y556266D01*
X579340D01*
X576240Y559366D01*
X576608Y560581D01*
X576815Y560622D01*
X578634Y561838D01*
X579602Y563286D01*
X580839Y563381D01*
X581039Y563325D01*
X581901Y562035D01*
X583720Y560819D01*
X585866Y560392D01*
X588012Y560819D01*
X589831Y562035D01*
X591047Y563854D01*
X591474Y566000D01*
X591047Y568146D01*
X589923Y569828D01*
X590248Y571098D01*
X590934D01*
Y579480D01*
X586616D01*
Y580750D01*
X585346D01*
Y590402D01*
D02*
G37*
G36*
X456375Y548166D02*
X449870D01*
Y539020D01*
X462916D01*
Y541625D01*
X462418Y544128D01*
X461000Y546250D01*
X458878Y547668D01*
X456375Y548166D01*
D02*
G37*
G36*
X261775D02*
X255270D01*
Y539020D01*
X268316D01*
Y541625D01*
X267818Y544128D01*
X266400Y546250D01*
X264278Y547668D01*
X261775Y548166D01*
D02*
G37*
G36*
X359075D02*
X352570D01*
Y539020D01*
X365616D01*
Y541625D01*
X365118Y544128D01*
X363700Y546250D01*
X361578Y547668D01*
X359075Y548166D01*
D02*
G37*
G36*
X553675D02*
X547170D01*
Y539020D01*
X560216D01*
Y541625D01*
X559718Y544128D01*
X558300Y546250D01*
X556178Y547668D01*
X553675Y548166D01*
D02*
G37*
G36*
X544630D02*
X538125D01*
X535622Y547668D01*
X533500Y546250D01*
X532082Y544128D01*
X531584Y541625D01*
Y539020D01*
X544630D01*
Y548166D01*
D02*
G37*
G36*
X350030D02*
X343525D01*
X341022Y547668D01*
X338900Y546250D01*
X337482Y544128D01*
X336984Y541625D01*
Y539020D01*
X350030D01*
Y548166D01*
D02*
G37*
G36*
X447330D02*
X440825D01*
X438322Y547668D01*
X436200Y546250D01*
X434782Y544128D01*
X434284Y541625D01*
Y539020D01*
X447330D01*
Y548166D01*
D02*
G37*
G36*
X252730D02*
X246225D01*
X243722Y547668D01*
X241600Y546250D01*
X240182Y544128D01*
X239684Y541625D01*
Y539020D01*
X252730D01*
Y548166D01*
D02*
G37*
G36*
X164475Y546666D02*
X157970D01*
Y537520D01*
X171016D01*
Y540125D01*
X170518Y542628D01*
X169100Y544750D01*
X166978Y546168D01*
X164475Y546666D01*
D02*
G37*
G36*
X155430D02*
X148925D01*
X146422Y546168D01*
X144300Y544750D01*
X142882Y542628D01*
X142384Y540125D01*
Y537520D01*
X155430D01*
Y546666D01*
D02*
G37*
G36*
X67175Y545916D02*
X60670D01*
Y536770D01*
X73716D01*
Y539375D01*
X73218Y541878D01*
X71800Y544000D01*
X69678Y545418D01*
X67175Y545916D01*
D02*
G37*
G36*
X58130D02*
X51625D01*
X49122Y545418D01*
X47000Y544000D01*
X45582Y541878D01*
X45084Y539375D01*
Y536770D01*
X58130D01*
Y545916D01*
D02*
G37*
G36*
X200453Y589152D02*
X197405D01*
Y588612D01*
X158829D01*
Y585424D01*
X157615Y584492D01*
X156493Y583030D01*
X155787Y581327D01*
X155547Y579500D01*
X155787Y577673D01*
X156493Y575970D01*
X157615Y574508D01*
X158769Y573622D01*
Y565921D01*
X159009Y564094D01*
X159715Y562391D01*
X160837Y560928D01*
X183643Y538122D01*
X183396Y536250D01*
X183809Y533117D01*
X185018Y530198D01*
X186942Y527691D01*
X193646Y520987D01*
Y364750D01*
X190250D01*
Y324750D01*
X221250D01*
Y364750D01*
X217854D01*
Y526000D01*
X217441Y529133D01*
X216232Y532052D01*
X214308Y534558D01*
X213373Y535494D01*
X213667Y536764D01*
X216242D01*
X216243Y536764D01*
X217803Y537075D01*
X219126Y537959D01*
X223918Y542750D01*
X232150D01*
Y554750D01*
X219095D01*
X218569Y556020D01*
X221299Y558750D01*
X232150D01*
Y570750D01*
X218150D01*
Y564253D01*
X208913Y555016D01*
X194447D01*
X191347Y558116D01*
X191716Y559331D01*
X191922Y559372D01*
X193741Y560588D01*
X194709Y562036D01*
X195946Y562131D01*
X196146Y562075D01*
X197008Y560785D01*
X198827Y559569D01*
X200973Y559142D01*
X203119Y559569D01*
X204939Y560785D01*
X206154Y562604D01*
X206581Y564750D01*
X206154Y566896D01*
X205030Y568578D01*
X205355Y569848D01*
X206041D01*
Y578230D01*
X201723D01*
Y579500D01*
X200453D01*
Y589152D01*
D02*
G37*
G36*
X560216Y536480D02*
X547170D01*
Y527334D01*
X553675D01*
X556178Y527832D01*
X558300Y529250D01*
X559718Y531372D01*
X560216Y533875D01*
Y536480D01*
D02*
G37*
G36*
X544630D02*
X531584D01*
Y533875D01*
X532082Y531372D01*
X533500Y529250D01*
X535622Y527832D01*
X538125Y527334D01*
X544630D01*
Y536480D01*
D02*
G37*
G36*
X462916D02*
X449870D01*
Y527334D01*
X456375D01*
X458878Y527832D01*
X461000Y529250D01*
X462418Y531372D01*
X462916Y533875D01*
Y536480D01*
D02*
G37*
G36*
X447330D02*
X434284D01*
Y533875D01*
X434782Y531372D01*
X436200Y529250D01*
X438322Y527832D01*
X440825Y527334D01*
X447330D01*
Y536480D01*
D02*
G37*
G36*
X365616D02*
X352570D01*
Y527334D01*
X359075D01*
X361578Y527832D01*
X363700Y529250D01*
X365118Y531372D01*
X365616Y533875D01*
Y536480D01*
D02*
G37*
G36*
X350030D02*
X336984D01*
Y533875D01*
X337482Y531372D01*
X338900Y529250D01*
X341022Y527832D01*
X343525Y527334D01*
X350030D01*
Y536480D01*
D02*
G37*
G36*
X268316D02*
X255270D01*
Y527334D01*
X261775D01*
X264278Y527832D01*
X266400Y529250D01*
X267818Y531372D01*
X268316Y533875D01*
Y536480D01*
D02*
G37*
G36*
X252730D02*
X239684D01*
Y533875D01*
X240182Y531372D01*
X241600Y529250D01*
X243722Y527832D01*
X246225Y527334D01*
X252730D01*
Y536480D01*
D02*
G37*
G36*
X229450Y537358D02*
X227304Y536931D01*
X225485Y535715D01*
X224269Y533896D01*
X223842Y531750D01*
X224269Y529604D01*
X225485Y527785D01*
X227304Y526569D01*
X229450Y526142D01*
X231596Y526569D01*
X233415Y527785D01*
X234631Y529604D01*
X235058Y531750D01*
X234631Y533896D01*
X233415Y535715D01*
X231596Y536931D01*
X229450Y537358D01*
D02*
G37*
G36*
X104230Y589152D02*
X101182D01*
Y588612D01*
X62606D01*
Y585424D01*
X61392Y584492D01*
X60269Y583030D01*
X59564Y581327D01*
X59324Y579500D01*
X59564Y577673D01*
X60269Y575970D01*
X61392Y574508D01*
X62546Y573622D01*
Y567994D01*
X62786Y566167D01*
X63492Y564464D01*
X64613Y563002D01*
X87233Y540382D01*
X86509Y538633D01*
X86096Y535500D01*
X86509Y532367D01*
X87718Y529448D01*
X89642Y526941D01*
X92148Y525018D01*
X95067Y523809D01*
X98200Y523396D01*
X100487D01*
X159250Y464633D01*
Y441750D01*
X190250D01*
Y481750D01*
X176367D01*
X133026Y525091D01*
X133652Y526261D01*
X134250Y526142D01*
X136396Y526569D01*
X138215Y527785D01*
X139431Y529604D01*
X139858Y531750D01*
X139431Y533896D01*
X138215Y535715D01*
X136396Y536931D01*
X134250Y537358D01*
X132104Y536931D01*
X130285Y535715D01*
X129069Y533896D01*
X128642Y531750D01*
X128761Y531152D01*
X127591Y530526D01*
X120970Y537147D01*
X120976Y537209D01*
X126518Y542750D01*
X134750D01*
Y554750D01*
X122735D01*
X122249Y555923D01*
X125076Y558750D01*
X134750D01*
Y570750D01*
X120750D01*
Y563076D01*
X112690Y555016D01*
X98224D01*
X95124Y558116D01*
X95492Y559331D01*
X95699Y559372D01*
X97518Y560588D01*
X98486Y562036D01*
X99723Y562131D01*
X99923Y562075D01*
X100785Y560785D01*
X102604Y559569D01*
X104750Y559142D01*
X106896Y559569D01*
X108715Y560785D01*
X109931Y562604D01*
X110358Y564750D01*
X109931Y566896D01*
X108807Y568578D01*
X109132Y569848D01*
X109818D01*
Y578230D01*
X105500D01*
Y579500D01*
X104230D01*
Y589152D01*
D02*
G37*
G36*
X171016Y534980D02*
X157970D01*
Y525834D01*
X164475D01*
X166978Y526332D01*
X169100Y527750D01*
X170518Y529872D01*
X171016Y532375D01*
Y534980D01*
D02*
G37*
G36*
X155430D02*
X142384D01*
Y532375D01*
X142882Y529872D01*
X144300Y527750D01*
X146422Y526332D01*
X148925Y525834D01*
X155430D01*
Y534980D01*
D02*
G37*
G36*
X392900Y589152D02*
X389851D01*
Y588612D01*
X351275D01*
Y585424D01*
X350061Y584492D01*
X348939Y583030D01*
X348234Y581327D01*
X347993Y579500D01*
X348234Y577673D01*
X348939Y575970D01*
X350061Y574508D01*
X351215Y573622D01*
Y565725D01*
X351456Y563897D01*
X352161Y562195D01*
X353283Y560732D01*
X378259Y535756D01*
X378409Y534617D01*
X379618Y531698D01*
X381541Y529192D01*
X404396Y506337D01*
Y386263D01*
X401941Y383809D01*
X400018Y381302D01*
X398809Y378383D01*
X398396Y375250D01*
Y364750D01*
X391500D01*
Y324750D01*
X422500D01*
Y347463D01*
X422603Y348250D01*
Y370237D01*
X425059Y372691D01*
X426982Y375198D01*
X428191Y378117D01*
X428604Y381250D01*
Y480310D01*
X429005Y480454D01*
X429874Y480521D01*
X430183Y480058D01*
X443635Y466606D01*
Y456706D01*
X444091Y454414D01*
X445389Y452470D01*
X447333Y451172D01*
X449625Y450716D01*
X457375D01*
X459667Y451172D01*
X461611Y452470D01*
X461771Y452711D01*
X462625D01*
X463405Y452866D01*
X464067Y453308D01*
X464509Y453970D01*
X464664Y454750D01*
X464664Y498000D01*
X464664Y498000D01*
X464509Y498780D01*
X464067Y499442D01*
X464067Y499442D01*
X462817Y500692D01*
X462155Y501134D01*
X461375Y501289D01*
X431625D01*
X430845Y501134D01*
X430183Y500692D01*
X429874Y500229D01*
X429005Y500295D01*
X428604Y500440D01*
Y511350D01*
X428191Y514483D01*
X426982Y517402D01*
X425059Y519908D01*
X420963Y524004D01*
X421589Y525174D01*
X421750Y525142D01*
X423896Y525569D01*
X425715Y526785D01*
X426931Y528604D01*
X427358Y530750D01*
X426931Y532896D01*
X425715Y534715D01*
X423896Y535931D01*
X421750Y536358D01*
X419604Y535931D01*
X417785Y534715D01*
X416569Y532896D01*
X416142Y530750D01*
X416174Y530589D01*
X415004Y529963D01*
X412518Y532449D01*
X412936Y533827D01*
X413718Y533982D01*
X415041Y534866D01*
X422634Y542459D01*
X422634Y542459D01*
X422828Y542750D01*
X426950D01*
Y554750D01*
X412950D01*
Y544311D01*
X410468Y541828D01*
X407725D01*
X407309Y543917D01*
X406011Y545861D01*
X404067Y547159D01*
X401775Y547615D01*
X398275D01*
X398266Y547628D01*
X398919Y548898D01*
X402626D01*
X402626Y548898D01*
X403797Y549131D01*
X404789Y549794D01*
X413745Y558750D01*
X426950D01*
Y570750D01*
X412950D01*
Y566606D01*
X401359Y555016D01*
X386893D01*
X383793Y558116D01*
X384162Y559331D01*
X384369Y559372D01*
X386188Y560588D01*
X387155Y562036D01*
X388392Y562131D01*
X388592Y562075D01*
X389454Y560785D01*
X391273Y559569D01*
X393419Y559142D01*
X395565Y559569D01*
X397385Y560785D01*
X398600Y562604D01*
X399027Y564750D01*
X398600Y566896D01*
X397477Y568578D01*
X397802Y569848D01*
X398488D01*
Y578230D01*
X394170D01*
Y579500D01*
X392900D01*
Y589152D01*
D02*
G37*
G36*
X73716Y534230D02*
X60670D01*
Y525084D01*
X67175D01*
X69678Y525582D01*
X71800Y527000D01*
X73218Y529122D01*
X73716Y531625D01*
Y534230D01*
D02*
G37*
G36*
X58130D02*
X45084D01*
Y531625D01*
X45582Y529122D01*
X47000Y527000D01*
X49122Y525582D01*
X51625Y525084D01*
X58130D01*
Y534230D01*
D02*
G37*
G36*
X296676Y589152D02*
X293628D01*
Y588612D01*
X255052D01*
Y585424D01*
X253838Y584492D01*
X252716Y583030D01*
X252010Y581327D01*
X251770Y579500D01*
X252010Y577673D01*
X252716Y575970D01*
X253838Y574508D01*
X254992Y573622D01*
Y564198D01*
X255233Y562370D01*
X255938Y560668D01*
X257060Y559205D01*
X280758Y535508D01*
X282220Y534385D01*
X282935Y534089D01*
Y533875D01*
X283391Y531583D01*
X284689Y529639D01*
X286246Y528599D01*
Y519900D01*
X286659Y516767D01*
X287868Y513848D01*
X289792Y511342D01*
X303442Y497691D01*
X305948Y495768D01*
X308867Y494559D01*
X312000Y494146D01*
X328987D01*
X358500Y464633D01*
Y441750D01*
X389500D01*
Y481750D01*
X375617D01*
X342559Y514809D01*
X340052Y516732D01*
X337133Y517941D01*
X334000Y518354D01*
X317013D01*
X310453Y524913D01*
Y533172D01*
X320207D01*
X320207Y533172D01*
X320881Y533306D01*
X321379Y532475D01*
X321477Y532130D01*
X320319Y530396D01*
X319892Y528250D01*
X320319Y526104D01*
X321535Y524285D01*
X323354Y523069D01*
X325500Y522642D01*
X327646Y523069D01*
X329465Y524285D01*
X330681Y526104D01*
X331108Y528250D01*
X330681Y530396D01*
X329465Y532215D01*
X327646Y533431D01*
X325500Y533858D01*
X324100Y533579D01*
X323474Y534750D01*
X325434Y536709D01*
X325434Y536709D01*
X326318Y538032D01*
X326628Y539593D01*
Y542750D01*
X329550D01*
Y554750D01*
X315550D01*
Y542750D01*
X318472D01*
Y541328D01*
X310465D01*
Y541625D01*
X310009Y543917D01*
X308711Y545861D01*
X306767Y547159D01*
X304475Y547615D01*
X304461Y547628D01*
X304958Y548898D01*
X306403D01*
X306403Y548898D01*
X307574Y549131D01*
X308566Y549794D01*
X317522Y558750D01*
X329550D01*
Y570750D01*
X315550D01*
Y565429D01*
X305136Y555016D01*
X290670D01*
X287570Y558116D01*
X287939Y559331D01*
X288145Y559372D01*
X289965Y560588D01*
X290932Y562036D01*
X292169Y562131D01*
X292369Y562075D01*
X293231Y560785D01*
X295050Y559569D01*
X297196Y559142D01*
X299342Y559569D01*
X301162Y560785D01*
X302377Y562604D01*
X302804Y564750D01*
X302377Y566896D01*
X301253Y568578D01*
X301578Y569848D01*
X302264D01*
Y578230D01*
X297946D01*
Y579500D01*
X296676D01*
Y589152D01*
D02*
G37*
G36*
X558500Y523608D02*
X556354Y523181D01*
X554535Y521965D01*
X553319Y520146D01*
X552892Y518000D01*
X553319Y515854D01*
X554535Y514035D01*
X556354Y512819D01*
X558500Y512392D01*
X560646Y512819D01*
X562465Y514035D01*
X563681Y515854D01*
X564108Y518000D01*
X563681Y520146D01*
X562465Y521965D01*
X560646Y523181D01*
X558500Y523608D01*
D02*
G37*
G36*
X365500Y523358D02*
X363354Y522931D01*
X361535Y521715D01*
X360319Y519896D01*
X359892Y517750D01*
X360319Y515604D01*
X361535Y513785D01*
X363354Y512569D01*
X365500Y512142D01*
X367646Y512569D01*
X369465Y513785D01*
X370681Y515604D01*
X371108Y517750D01*
X370681Y519896D01*
X369465Y521715D01*
X367646Y522931D01*
X365500Y523358D01*
D02*
G37*
G36*
X578750Y522608D02*
X576604Y522181D01*
X574785Y520965D01*
X573569Y519146D01*
X573142Y517000D01*
X573569Y514854D01*
X574785Y513035D01*
X576604Y511819D01*
X578750Y511392D01*
X580896Y511819D01*
X582715Y513035D01*
X583931Y514854D01*
X584358Y517000D01*
X583931Y519146D01*
X582715Y520965D01*
X580896Y522181D01*
X578750Y522608D01*
D02*
G37*
G36*
X272500Y518108D02*
X270354Y517681D01*
X268535Y516465D01*
X267319Y514646D01*
X266892Y512500D01*
X267319Y510354D01*
X268535Y508535D01*
X270354Y507319D01*
X272500Y506892D01*
X274646Y507319D01*
X276465Y508535D01*
X277681Y510354D01*
X278108Y512500D01*
X277681Y514646D01*
X276465Y516465D01*
X274646Y517681D01*
X272500Y518108D01*
D02*
G37*
G36*
X457500Y517108D02*
X455354Y516681D01*
X453535Y515465D01*
X452319Y513646D01*
X451892Y511500D01*
X452319Y509354D01*
X453535Y507535D01*
X455354Y506319D01*
X457500Y505892D01*
X459646Y506319D01*
X461465Y507535D01*
X462681Y509354D01*
X463108Y511500D01*
X462681Y513646D01*
X461465Y515465D01*
X459646Y516681D01*
X457500Y517108D01*
D02*
G37*
G36*
X92000Y516108D02*
X89854Y515681D01*
X88035Y514465D01*
X86819Y512646D01*
X86392Y510500D01*
X86819Y508354D01*
X88035Y506535D01*
X89854Y505319D01*
X92000Y504892D01*
X94146Y505319D01*
X95965Y506535D01*
X97181Y508354D01*
X97608Y510500D01*
X97181Y512646D01*
X95965Y514465D01*
X94146Y515681D01*
X92000Y516108D01*
D02*
G37*
G36*
X176500Y511358D02*
X174354Y510931D01*
X172535Y509715D01*
X171319Y507896D01*
X170892Y505750D01*
X171319Y503604D01*
X172535Y501785D01*
X174354Y500569D01*
X176500Y500142D01*
X178646Y500569D01*
X180465Y501785D01*
X181681Y503604D01*
X182108Y505750D01*
X181681Y507896D01*
X180465Y509715D01*
X178646Y510931D01*
X176500Y511358D01*
D02*
G37*
G36*
X251875Y499039D02*
X222125D01*
X221345Y498884D01*
X220683Y498442D01*
X220241Y497780D01*
X220086Y497000D01*
Y479250D01*
X220086Y479250D01*
X220241Y478470D01*
X220683Y477808D01*
X241933Y456558D01*
X242595Y456116D01*
X243375Y455961D01*
X243533D01*
X243841Y454414D01*
X245139Y452470D01*
X247083Y451172D01*
X249375Y450716D01*
X257125D01*
X259417Y451172D01*
X261361Y452470D01*
X262659Y454414D01*
X263115Y456706D01*
Y472256D01*
X262789Y473894D01*
Y488125D01*
X262634Y488905D01*
X262192Y489567D01*
X262192Y489567D01*
X253317Y498442D01*
X252655Y498884D01*
X251875Y499039D01*
D02*
G37*
G36*
X489123Y589152D02*
X486075D01*
Y588612D01*
X447499D01*
Y585424D01*
X446284Y584492D01*
X445162Y583030D01*
X444457Y581327D01*
X444216Y579500D01*
X444457Y577673D01*
X445162Y575970D01*
X446284Y574508D01*
X447438Y573622D01*
Y567001D01*
X447679Y565174D01*
X448384Y563471D01*
X449506Y562009D01*
X476008Y535508D01*
X477470Y534385D01*
X477535Y534359D01*
Y533875D01*
X477991Y531583D01*
X479196Y529779D01*
Y523466D01*
X479609Y520333D01*
X480818Y517414D01*
X482741Y514907D01*
X494457Y503191D01*
X496964Y501268D01*
X499883Y500059D01*
X503016Y499646D01*
X522737D01*
X557750Y464633D01*
Y441750D01*
X588750D01*
Y481750D01*
X574867D01*
X536309Y520308D01*
X533802Y522232D01*
X530883Y523441D01*
X527750Y523853D01*
X523538D01*
X523413Y525123D01*
X524396Y525319D01*
X526215Y526535D01*
X527431Y528354D01*
X527858Y530500D01*
X527431Y532646D01*
X526215Y534465D01*
X524396Y535681D01*
X522250Y536108D01*
X520104Y535681D01*
X518285Y534465D01*
X517069Y532646D01*
X516642Y530500D01*
X517069Y528354D01*
X518285Y526535D01*
X520104Y525319D01*
X521087Y525123D01*
X520962Y523853D01*
X508029D01*
X503404Y528479D01*
Y529779D01*
X504609Y531583D01*
X505025Y533672D01*
X512157D01*
X512157Y533672D01*
X513718Y533982D01*
X515041Y534866D01*
X520134Y539959D01*
X521018Y541282D01*
X521310Y542750D01*
X524350D01*
Y554750D01*
X510350D01*
Y542750D01*
X509509Y541828D01*
X505025D01*
X504609Y543917D01*
X503311Y545861D01*
X501367Y547159D01*
X499450Y547540D01*
X499322Y547697D01*
X499815Y549074D01*
X499849Y549097D01*
X500020Y549131D01*
X501012Y549794D01*
X509351Y558132D01*
X510350Y558750D01*
Y558750D01*
X510350Y558750D01*
X524350D01*
Y570750D01*
X510350D01*
Y567494D01*
X509480Y566913D01*
X509480Y566913D01*
X497583Y555016D01*
X483117D01*
X480016Y558116D01*
X480385Y559331D01*
X480592Y559372D01*
X482411Y560588D01*
X483378Y562036D01*
X484616Y562131D01*
X484816Y562075D01*
X485677Y560785D01*
X487497Y559569D01*
X489643Y559142D01*
X491789Y559569D01*
X493608Y560785D01*
X494824Y562604D01*
X495250Y564750D01*
X494824Y566896D01*
X493700Y568578D01*
X494025Y569848D01*
X494711D01*
Y578230D01*
X490393D01*
Y579500D01*
X489123D01*
Y589152D01*
D02*
G37*
G36*
X107250Y481750D02*
X76250D01*
Y459037D01*
X76146Y458250D01*
Y438910D01*
X72771Y435535D01*
X57933D01*
X57875Y435546D01*
X50125D01*
X47833Y435090D01*
X45889Y433792D01*
X44591Y431848D01*
X44135Y429556D01*
Y428637D01*
X43518Y427833D01*
X42309Y424914D01*
X41896Y421781D01*
Y320250D01*
X42309Y317117D01*
X43518Y314198D01*
X45441Y311691D01*
X85500Y271633D01*
Y249750D01*
X87147D01*
Y246250D01*
X85500D01*
Y207250D01*
X87147D01*
Y40250D01*
X87498Y37584D01*
Y30598D01*
X87898Y27556D01*
X89072Y24722D01*
X90940Y22288D01*
X93374Y20420D01*
X96208Y19246D01*
X99250Y18845D01*
X102292Y19246D01*
X105126Y20420D01*
X107560Y22288D01*
X109428Y24722D01*
X110602Y27556D01*
X111003Y30598D01*
Y37584D01*
X111354Y40250D01*
Y261500D01*
X111000Y264186D01*
Y288750D01*
X102617D01*
X66104Y325263D01*
Y411328D01*
X77784D01*
X80917Y411740D01*
X83836Y412949D01*
X86343Y414873D01*
X96809Y425338D01*
X98732Y427845D01*
X99941Y430764D01*
X100353Y433897D01*
Y441750D01*
X107250D01*
Y481750D01*
D02*
G37*
G36*
X472750Y403608D02*
X470604Y403181D01*
X468785Y401965D01*
X467569Y400146D01*
X467142Y398000D01*
X467569Y395854D01*
X468785Y394035D01*
X470604Y392819D01*
X472750Y392392D01*
X474896Y392819D01*
X476715Y394035D01*
X477931Y395854D01*
X478358Y398000D01*
X477931Y400146D01*
X476715Y401965D01*
X474896Y403181D01*
X472750Y403608D01*
D02*
G37*
G36*
X291625Y398484D02*
X283875D01*
X281583Y398028D01*
X279639Y396730D01*
X278341Y394786D01*
X277885Y392494D01*
Y376944D01*
X278341Y374652D01*
X279639Y372708D01*
X281583Y371410D01*
X283875Y370954D01*
X291625D01*
X293917Y371410D01*
X295861Y372708D01*
X297031Y374461D01*
X334875Y374461D01*
X335655Y374616D01*
X336317Y375058D01*
X336759Y375720D01*
X336914Y376500D01*
Y393750D01*
X336914Y393750D01*
X336759Y394530D01*
X336317Y395192D01*
X336317Y395192D01*
X335067Y396442D01*
X334405Y396884D01*
X333625Y397039D01*
X295397D01*
X293917Y398028D01*
X291625Y398484D01*
D02*
G37*
G36*
X128875Y403039D02*
X79250Y403039D01*
X78470Y402884D01*
X77808Y402442D01*
X77366Y401780D01*
X77211Y401000D01*
X77211Y394000D01*
X77323Y393438D01*
X77135Y392494D01*
Y376944D01*
X77591Y374652D01*
X78889Y372708D01*
X80833Y371410D01*
X83125Y370954D01*
X90875D01*
X93167Y371410D01*
X95111Y372708D01*
X96409Y374652D01*
X96865Y376944D01*
Y380461D01*
X130125Y380461D01*
X130905Y380616D01*
X131567Y381058D01*
X132009Y381720D01*
X132164Y382500D01*
Y399750D01*
X132164Y399750D01*
X132009Y400530D01*
X131567Y401192D01*
X131567Y401192D01*
X130317Y402442D01*
X129655Y402884D01*
X128875Y403039D01*
D02*
G37*
G36*
X535625Y395039D02*
X480250Y395039D01*
X479470Y394884D01*
X478808Y394442D01*
X478366Y393780D01*
X478211Y393000D01*
Y386148D01*
X477885Y384510D01*
Y368960D01*
X478341Y366668D01*
X479639Y364724D01*
X481583Y363426D01*
X483875Y362970D01*
X491625D01*
X493917Y363426D01*
X495861Y364724D01*
X497159Y366668D01*
X497615Y368960D01*
Y372461D01*
X536875Y372461D01*
X537655Y372616D01*
X538317Y373058D01*
X538759Y373720D01*
X538914Y374500D01*
Y391750D01*
X538914Y391750D01*
X538759Y392530D01*
X538317Y393192D01*
X538317Y393192D01*
X537067Y394442D01*
X536405Y394884D01*
X535625Y395039D01*
D02*
G37*
G36*
X339500Y364750D02*
X308500D01*
Y355488D01*
X293113D01*
X291625Y355784D01*
X283875D01*
X281583Y355328D01*
X279639Y354030D01*
X278341Y352086D01*
X277885Y349794D01*
Y348875D01*
X277268Y348071D01*
X276059Y345152D01*
X275646Y342019D01*
X275896Y340120D01*
Y316500D01*
X276309Y313367D01*
X277518Y310448D01*
X279442Y307941D01*
X296896Y290487D01*
Y270000D01*
X297000Y269213D01*
Y249750D01*
X297396D01*
Y246250D01*
X297000D01*
Y207250D01*
X297396D01*
Y162149D01*
X297146Y160250D01*
Y40250D01*
X297498Y37584D01*
Y30598D01*
X297898Y27556D01*
X299072Y24722D01*
X300940Y22288D01*
X303374Y20420D01*
X306208Y19246D01*
X309250Y18845D01*
X312292Y19246D01*
X315126Y20420D01*
X317560Y22288D01*
X319428Y24722D01*
X320602Y27556D01*
X321003Y30598D01*
Y37584D01*
X321354Y40250D01*
Y158601D01*
X321604Y160500D01*
Y207250D01*
X322500D01*
Y246250D01*
X321604D01*
Y249750D01*
X322500D01*
Y288750D01*
X321104D01*
Y295500D01*
X320691Y298633D01*
X319482Y301552D01*
X317558Y304059D01*
X300104Y321513D01*
Y331281D01*
X308500D01*
Y324750D01*
X339500D01*
Y364750D01*
D02*
G37*
G36*
X138250D02*
X107250D01*
Y355488D01*
X92363D01*
X90875Y355784D01*
X83125D01*
X80833Y355328D01*
X78889Y354030D01*
X77591Y352086D01*
X77135Y349794D01*
Y348875D01*
X76518Y348071D01*
X75309Y345152D01*
X74896Y342019D01*
X75309Y338886D01*
X76518Y335967D01*
X77135Y335163D01*
Y334244D01*
X77146Y334186D01*
Y324000D01*
X77559Y320867D01*
X78768Y317948D01*
X80691Y315441D01*
X97442Y298692D01*
X99948Y296768D01*
X102867Y295559D01*
X106000Y295146D01*
X150986D01*
X155896Y290237D01*
Y270000D01*
X156000Y269213D01*
Y249750D01*
X156896D01*
Y246250D01*
X155250D01*
Y207250D01*
X156896D01*
Y40500D01*
X157309Y37367D01*
X157498Y36912D01*
Y30598D01*
X157898Y27556D01*
X159072Y24722D01*
X160940Y22288D01*
X163374Y20420D01*
X166208Y19246D01*
X169250Y18845D01*
X172292Y19246D01*
X175126Y20420D01*
X177560Y22288D01*
X179428Y24722D01*
X180602Y27556D01*
X181003Y30598D01*
Y37584D01*
X181354Y40250D01*
X181103Y42149D01*
Y249750D01*
X181500D01*
Y288750D01*
X180103D01*
Y295250D01*
X179691Y298383D01*
X178482Y301302D01*
X176558Y303808D01*
X164559Y315809D01*
X162052Y317732D01*
X159133Y318941D01*
X156000Y319354D01*
X111013D01*
X107142Y323225D01*
X107135Y323595D01*
X108236Y324750D01*
X108453Y324750D01*
X138250D01*
Y364750D01*
D02*
G37*
G36*
X177750Y362608D02*
X175604Y362181D01*
X173785Y360965D01*
X172569Y359146D01*
X172142Y357000D01*
X172569Y354854D01*
X173785Y353035D01*
X175604Y351819D01*
X177750Y351392D01*
X179896Y351819D01*
X181715Y353035D01*
X182931Y354854D01*
X183358Y357000D01*
X182931Y359146D01*
X181715Y360965D01*
X179896Y362181D01*
X177750Y362608D01*
D02*
G37*
G36*
X380500Y361358D02*
X378354Y360931D01*
X376535Y359715D01*
X375319Y357896D01*
X374892Y355750D01*
X375319Y353604D01*
X376535Y351785D01*
X378354Y350569D01*
X380500Y350142D01*
X382646Y350569D01*
X384465Y351785D01*
X385681Y353604D01*
X386108Y355750D01*
X385681Y357896D01*
X384465Y359715D01*
X382646Y360931D01*
X380500Y361358D01*
D02*
G37*
G36*
X351750D02*
X349604Y360931D01*
X347785Y359715D01*
X346569Y357896D01*
X346142Y355750D01*
X346569Y353604D01*
X347785Y351785D01*
X349604Y350569D01*
X351750Y350142D01*
X353896Y350569D01*
X355715Y351785D01*
X356931Y353604D01*
X357358Y355750D01*
X356931Y357896D01*
X355715Y359715D01*
X353896Y360931D01*
X351750Y361358D01*
D02*
G37*
G36*
X259000Y360358D02*
X256854Y359931D01*
X255035Y358715D01*
X253819Y356896D01*
X253392Y354750D01*
X253819Y352604D01*
X255035Y350785D01*
X256854Y349569D01*
X259000Y349142D01*
X261146Y349569D01*
X262965Y350785D01*
X264181Y352604D01*
X264608Y354750D01*
X264181Y356896D01*
X262965Y358715D01*
X261146Y359931D01*
X259000Y360358D01*
D02*
G37*
G36*
X540750Y364750D02*
X509750D01*
Y347776D01*
X491748D01*
X491625Y347800D01*
X483875D01*
X481583Y347344D01*
X479639Y346046D01*
X478341Y344102D01*
X477885Y341810D01*
Y340056D01*
X477520Y339176D01*
X477159Y336435D01*
X477159Y336435D01*
Y333137D01*
X445511Y301489D01*
X443828Y299295D01*
X442770Y296741D01*
X442409Y294000D01*
X442409Y294000D01*
Y288750D01*
X438000D01*
Y249750D01*
X440159D01*
Y246250D01*
X438000D01*
Y207250D01*
X439100D01*
Y163184D01*
X439020Y162991D01*
X438659Y160250D01*
X438659Y160250D01*
Y54782D01*
X437898Y52944D01*
X437497Y49902D01*
Y30598D01*
X437898Y27556D01*
X439072Y24722D01*
X440940Y22288D01*
X443374Y20420D01*
X446208Y19246D01*
X449250Y18845D01*
X452292Y19246D01*
X455126Y20420D01*
X457560Y22288D01*
X459428Y24722D01*
X460602Y27556D01*
X461003Y30598D01*
Y49902D01*
X460602Y52944D01*
X459841Y54782D01*
Y157757D01*
X459921Y157950D01*
X460281Y160691D01*
X460281Y160691D01*
Y207250D01*
X463500D01*
Y246250D01*
X461340D01*
Y249750D01*
X463500D01*
Y270812D01*
X463591Y271500D01*
Y289613D01*
X495239Y321261D01*
X495786Y321974D01*
X495861Y322024D01*
X496106Y322392D01*
X496922Y323455D01*
X497094Y323870D01*
X497159Y323968D01*
X497182Y324083D01*
X497980Y326009D01*
X498057Y326595D01*
X509750D01*
Y324750D01*
X540750D01*
Y364750D01*
D02*
G37*
G36*
X147750Y352108D02*
X145604Y351681D01*
X143785Y350465D01*
X142569Y348646D01*
X142142Y346500D01*
X142569Y344354D01*
X143785Y342535D01*
X145604Y341319D01*
X147750Y340892D01*
X149896Y341319D01*
X151715Y342535D01*
X152931Y344354D01*
X153358Y346500D01*
X152931Y348646D01*
X151715Y350465D01*
X149896Y351681D01*
X147750Y352108D01*
D02*
G37*
G36*
X30520Y62032D02*
Y41520D01*
X41547D01*
Y49902D01*
X41128Y53085D01*
X39900Y56051D01*
X37945Y58597D01*
X35399Y60552D01*
X32433Y61780D01*
X30520Y62032D01*
D02*
G37*
G36*
X27980D02*
X26067Y61780D01*
X23101Y60552D01*
X20555Y58597D01*
X18600Y56051D01*
X17372Y53085D01*
X16953Y49902D01*
Y41520D01*
X27980D01*
Y62032D01*
D02*
G37*
G36*
X520520D02*
Y41520D01*
X531547D01*
Y49902D01*
X531128Y53085D01*
X529900Y56051D01*
X527945Y58597D01*
X525399Y60552D01*
X522433Y61780D01*
X520520Y62032D01*
D02*
G37*
G36*
X517980D02*
X516067Y61780D01*
X513101Y60552D01*
X510555Y58597D01*
X508600Y56051D01*
X507372Y53085D01*
X506953Y49902D01*
Y41520D01*
X517980D01*
Y62032D01*
D02*
G37*
G36*
X554250Y61655D02*
X551208Y61254D01*
X548374Y60080D01*
X545940Y58212D01*
X544072Y55778D01*
X542898Y52944D01*
X542497Y49902D01*
Y30598D01*
X542898Y27556D01*
X544072Y24722D01*
X545940Y22288D01*
X548374Y20420D01*
X551208Y19246D01*
X554250Y18845D01*
X557292Y19246D01*
X560126Y20420D01*
X562560Y22288D01*
X564428Y24722D01*
X565602Y27556D01*
X566003Y30598D01*
Y49902D01*
X565602Y52944D01*
X564428Y55778D01*
X562560Y58212D01*
X560126Y60080D01*
X557292Y61254D01*
X554250Y61655D01*
D02*
G37*
G36*
X498500Y288750D02*
X473000D01*
Y265198D01*
X472559Y264133D01*
X472146Y261000D01*
Y40250D01*
X472497Y37584D01*
Y30598D01*
X472898Y27556D01*
X474072Y24722D01*
X475940Y22288D01*
X478374Y20420D01*
X481208Y19246D01*
X484250Y18845D01*
X487292Y19246D01*
X490126Y20420D01*
X492560Y22288D01*
X494428Y24722D01*
X495602Y27556D01*
X496003Y30598D01*
Y37584D01*
X496353Y40250D01*
Y207250D01*
X498500D01*
Y246250D01*
X496353D01*
Y249750D01*
X498500D01*
Y288750D01*
D02*
G37*
G36*
X428000D02*
X402500D01*
Y264185D01*
X402146Y261500D01*
Y40250D01*
X402497Y37584D01*
Y30598D01*
X402898Y27556D01*
X404072Y24722D01*
X405940Y22288D01*
X408374Y20420D01*
X411208Y19246D01*
X414250Y18845D01*
X417292Y19246D01*
X420126Y20420D01*
X422560Y22288D01*
X424428Y24722D01*
X425602Y27556D01*
X426003Y30598D01*
Y37584D01*
X426354Y40250D01*
Y207500D01*
X428000D01*
Y246500D01*
X426354D01*
Y249750D01*
X428000D01*
Y288750D01*
D02*
G37*
G36*
X505750Y481750D02*
X474750D01*
Y459548D01*
X450748Y435546D01*
X449625D01*
X447333Y435090D01*
X445389Y433792D01*
X444091Y431848D01*
X443635Y429556D01*
Y428637D01*
X443018Y427833D01*
X441809Y424914D01*
X441396Y421781D01*
Y337763D01*
X424236Y320603D01*
X392716D01*
X389583Y320191D01*
X386664Y318982D01*
X384157Y317059D01*
X372441Y305343D01*
X370518Y302836D01*
X369309Y299917D01*
X368896Y296784D01*
Y288750D01*
X367500D01*
Y264185D01*
X367146Y261500D01*
Y40250D01*
X367497Y37584D01*
Y30598D01*
X367898Y27556D01*
X369072Y24722D01*
X370940Y22288D01*
X373374Y20420D01*
X376208Y19246D01*
X379250Y18845D01*
X382292Y19246D01*
X385126Y20420D01*
X387560Y22288D01*
X389428Y24722D01*
X390602Y27556D01*
X391003Y30598D01*
Y37584D01*
X391353Y40250D01*
Y207500D01*
X393000D01*
Y246500D01*
X391353D01*
Y249750D01*
X393000D01*
Y269213D01*
X393103Y270000D01*
Y291771D01*
X397729Y296396D01*
X429250D01*
X432383Y296809D01*
X435302Y298018D01*
X437808Y299942D01*
X462058Y324192D01*
X463982Y326698D01*
X465191Y329617D01*
X465603Y332750D01*
Y416168D01*
X491186Y441750D01*
X505750D01*
Y481750D01*
D02*
G37*
G36*
X357500Y288750D02*
X332000D01*
Y249750D01*
X332396D01*
Y246250D01*
X332000D01*
Y207250D01*
X332396D01*
Y162149D01*
X332146Y160250D01*
Y40250D01*
X332497Y37584D01*
Y30598D01*
X332898Y27556D01*
X334072Y24722D01*
X335940Y22288D01*
X338374Y20420D01*
X341208Y19246D01*
X344250Y18845D01*
X347292Y19246D01*
X350126Y20420D01*
X352560Y22288D01*
X354428Y24722D01*
X355602Y27556D01*
X356003Y30598D01*
Y37584D01*
X356354Y40250D01*
Y158601D01*
X356604Y160500D01*
Y207250D01*
X357500D01*
Y246250D01*
X356604D01*
Y249750D01*
X357500D01*
Y288750D01*
D02*
G37*
G36*
X287000D02*
X261500D01*
Y249750D01*
X262146D01*
Y246250D01*
X261500D01*
Y207250D01*
X262146D01*
Y40250D01*
X262498Y37584D01*
Y30598D01*
X262898Y27556D01*
X264072Y24722D01*
X265940Y22288D01*
X268374Y20420D01*
X271208Y19246D01*
X274250Y18845D01*
X277292Y19246D01*
X280126Y20420D01*
X282560Y22288D01*
X284428Y24722D01*
X285602Y27556D01*
X286003Y30598D01*
Y37584D01*
X286354Y40250D01*
Y207250D01*
X287000D01*
Y246250D01*
X286354D01*
Y249750D01*
X287000D01*
Y288750D01*
D02*
G37*
G36*
X306500Y481750D02*
X275500D01*
Y460548D01*
X250498Y435546D01*
X249375D01*
X247083Y435090D01*
X245139Y433792D01*
X243841Y431848D01*
X243404Y429652D01*
X230692Y416940D01*
X228768Y414433D01*
X227559Y411514D01*
X227146Y408381D01*
Y288750D01*
X226500D01*
Y249750D01*
X227146D01*
Y246250D01*
X226500D01*
Y207250D01*
X227146D01*
Y160250D01*
X227146Y160250D01*
Y40250D01*
X227498Y37584D01*
Y30598D01*
X227898Y27556D01*
X229072Y24722D01*
X230940Y22288D01*
X233374Y20420D01*
X236208Y19246D01*
X239250Y18845D01*
X242292Y19246D01*
X245126Y20420D01*
X247560Y22288D01*
X249428Y24722D01*
X250602Y27556D01*
X251003Y30598D01*
Y37584D01*
X251354Y40250D01*
Y160250D01*
X251353Y160250D01*
Y207250D01*
X252000D01*
Y246250D01*
X251353D01*
Y249750D01*
X252000D01*
Y288750D01*
X251353D01*
Y403368D01*
X256002Y408016D01*
X257125D01*
X259417Y408472D01*
X261361Y409770D01*
X262659Y411714D01*
X263096Y413910D01*
X290936Y441750D01*
X306500D01*
Y481750D01*
D02*
G37*
G36*
X216500Y288750D02*
X191000D01*
Y249750D01*
X191896D01*
Y246250D01*
X190250D01*
Y207250D01*
X191146D01*
Y161500D01*
X191559Y158367D01*
X192768Y155448D01*
X192909Y155264D01*
Y52972D01*
X192898Y52944D01*
X192498Y49902D01*
Y30598D01*
X192898Y27556D01*
X194072Y24722D01*
X195940Y22288D01*
X198374Y20420D01*
X201208Y19246D01*
X204250Y18845D01*
X207292Y19246D01*
X210126Y20420D01*
X212560Y22288D01*
X214428Y24722D01*
X215602Y27556D01*
X216003Y30598D01*
Y49902D01*
X215602Y52944D01*
X214428Y55778D01*
X214091Y56218D01*
Y156314D01*
X214941Y158367D01*
X215354Y161500D01*
Y207250D01*
X215750D01*
Y224064D01*
X216104Y226750D01*
Y249750D01*
X216500D01*
Y288750D01*
D02*
G37*
G36*
X146000D02*
X120500D01*
Y249750D01*
X122147D01*
Y246250D01*
X120500D01*
Y207250D01*
X122147D01*
Y40250D01*
X122498Y37584D01*
Y30598D01*
X122898Y27556D01*
X124072Y24722D01*
X125940Y22288D01*
X128374Y20420D01*
X131208Y19246D01*
X134250Y18845D01*
X137292Y19246D01*
X140126Y20420D01*
X142560Y22288D01*
X144428Y24722D01*
X145602Y27556D01*
X146003Y30598D01*
Y37584D01*
X146354Y40250D01*
Y261500D01*
X146000Y264186D01*
Y288750D01*
D02*
G37*
G36*
X41547Y38980D02*
X30520D01*
Y18468D01*
X32433Y18720D01*
X35399Y19948D01*
X37945Y21903D01*
X39900Y24449D01*
X41128Y27415D01*
X41547Y30598D01*
Y38980D01*
D02*
G37*
G36*
X531547Y38980D02*
X520520D01*
Y18468D01*
X522433Y18720D01*
X525399Y19948D01*
X527945Y21903D01*
X529900Y24449D01*
X531128Y27415D01*
X531547Y30598D01*
Y38980D01*
D02*
G37*
G36*
X517980D02*
X506953D01*
Y30598D01*
X507372Y27415D01*
X508600Y24449D01*
X510555Y21903D01*
X513101Y19948D01*
X516067Y18720D01*
X517980Y18468D01*
Y38980D01*
D02*
G37*
G36*
X27980Y38980D02*
X16953D01*
Y30598D01*
X17372Y27415D01*
X18600Y24449D01*
X20555Y21903D01*
X23101Y19948D01*
X26067Y18720D01*
X27980Y18468D01*
Y38980D01*
D02*
G37*
%LPD*%
G36*
X101931Y682500D02*
X100500D01*
Y673500D01*
X100500D01*
Y672500D01*
X100500D01*
Y663500D01*
X101814D01*
X102154Y662230D01*
X97423Y657499D01*
X96250Y657985D01*
Y665000D01*
X82250D01*
Y656776D01*
X80980Y656345D01*
X80477Y657001D01*
X80477Y657001D01*
X59341Y678137D01*
Y691125D01*
X101931D01*
Y682500D01*
D02*
G37*
G36*
X582931D02*
X581500D01*
Y673500D01*
X581500D01*
Y672500D01*
X581500D01*
Y663500D01*
X582814D01*
X583154Y662230D01*
X578423Y657499D01*
X577250Y657985D01*
Y665000D01*
X563250D01*
Y653000D01*
X563999D01*
Y650689D01*
X562729Y650257D01*
X561592Y651739D01*
X559399Y653422D01*
X557068Y654387D01*
Y691125D01*
X582931D01*
Y682500D01*
D02*
G37*
G36*
X486731D02*
X485300D01*
Y673500D01*
X485300D01*
Y672500D01*
X485300D01*
Y663500D01*
X486614D01*
X486954Y662230D01*
X482223Y657499D01*
X481050Y657985D01*
Y665000D01*
X467050D01*
X467050Y665000D01*
Y665000D01*
X465892Y665358D01*
X465369Y666040D01*
X457522Y673887D01*
Y691125D01*
X486731D01*
Y682500D01*
D02*
G37*
G36*
X390531D02*
X389100D01*
Y673500D01*
X389100D01*
Y672500D01*
X389100D01*
Y663500D01*
X390414D01*
X390754Y662230D01*
X386023Y657499D01*
X384850Y657985D01*
Y665000D01*
X370850D01*
Y662583D01*
X369580Y662152D01*
X369146Y662718D01*
X369146Y662718D01*
X357977Y673887D01*
Y691125D01*
X390531D01*
Y682500D01*
D02*
G37*
G36*
X288650Y691125D02*
X294331D01*
Y682500D01*
X292900D01*
Y673500D01*
X292900D01*
Y672500D01*
X292900D01*
Y663500D01*
X294214D01*
X294554Y662230D01*
X289823Y657499D01*
X288650Y657985D01*
Y665000D01*
X274650D01*
Y661140D01*
X273380Y660709D01*
X272923Y661304D01*
X272923Y661304D01*
X250382Y683845D01*
Y691125D01*
X288614D01*
X288632Y691127D01*
X288650Y691125D01*
D02*
G37*
G36*
X192450D02*
X198131D01*
Y682500D01*
X196700D01*
Y673500D01*
X196700D01*
Y672500D01*
X196700D01*
Y663500D01*
X198014D01*
X198354Y662230D01*
X193623Y657499D01*
X192450Y657985D01*
Y665000D01*
X178450D01*
Y653000D01*
X179106D01*
Y650727D01*
X177836Y650296D01*
X176700Y651778D01*
X176700Y651778D01*
X155341Y673137D01*
Y691125D01*
X189068D01*
X190759Y691348D01*
X192450Y691125D01*
D02*
G37*
G36*
X69375Y499250D02*
Y459500D01*
X40500Y459500D01*
X38375Y461625D01*
X38375Y500500D01*
X68125D01*
X69375Y499250D01*
D02*
G37*
G36*
X462625Y498000D02*
X462625Y454750D01*
X458375D01*
X431625Y481500D01*
Y499250D01*
X461375D01*
X462625Y498000D01*
D02*
G37*
G36*
X260750Y488125D02*
Y458000D01*
X243375D01*
X222125Y479250D01*
Y497000D01*
X251875D01*
X260750Y488125D01*
D02*
G37*
G36*
X334875Y393750D02*
Y376500D01*
X284750Y376500D01*
X281250Y380000D01*
X281250Y395000D01*
X333625D01*
X334875Y393750D01*
D02*
G37*
G36*
X130125Y399750D02*
Y382500D01*
X90750Y382500D01*
X79250Y394000D01*
X79250Y401000D01*
X128875Y401000D01*
X130125Y399750D01*
D02*
G37*
G36*
X536875Y391750D02*
Y374500D01*
X480250Y374500D01*
X480250Y393000D01*
X535625Y393000D01*
X536875Y391750D01*
D02*
G37*
%LPC*%
G36*
X498290Y973480D02*
X486270D01*
Y954710D01*
X498290D01*
Y973480D01*
D02*
G37*
G36*
X483730D02*
X471710D01*
Y954710D01*
X483730D01*
Y973480D01*
D02*
G37*
G36*
X441290Y948040D02*
X435020D01*
Y942770D01*
X441290D01*
Y948040D01*
D02*
G37*
G36*
X432480D02*
X426210D01*
Y942770D01*
X432480D01*
Y948040D01*
D02*
G37*
G36*
X452154Y958762D02*
X450008Y958335D01*
X448189Y957119D01*
X446973Y955300D01*
X446546Y953154D01*
X446973Y951008D01*
X448189Y949189D01*
X450008Y947973D01*
X450390Y947897D01*
X450658Y946549D01*
X449785Y945965D01*
X448569Y944146D01*
X448142Y942000D01*
X448569Y939854D01*
X449785Y938035D01*
X451604Y936819D01*
X453750Y936392D01*
X455896Y936819D01*
X457715Y938035D01*
X458931Y939854D01*
X459358Y942000D01*
X458931Y944146D01*
X457715Y945965D01*
X455896Y947181D01*
X455514Y947257D01*
X455246Y948605D01*
X456119Y949189D01*
X457335Y951008D01*
X457761Y953154D01*
X457335Y955300D01*
X456119Y957119D01*
X454300Y958335D01*
X452154Y958762D01*
D02*
G37*
G36*
X441290Y940230D02*
X435020D01*
Y934960D01*
X441290D01*
Y940230D01*
D02*
G37*
G36*
X432480D02*
X426210D01*
Y934960D01*
X432480D01*
Y940230D01*
D02*
G37*
G36*
X414250Y928858D02*
X412104Y928431D01*
X410285Y927215D01*
X409069Y925396D01*
X408642Y923250D01*
X408900Y921954D01*
X408658Y921626D01*
X407795Y921001D01*
X406000Y921358D01*
X403854Y920931D01*
X402035Y919715D01*
X400819Y917896D01*
X400392Y915750D01*
X400819Y913604D01*
X402035Y911785D01*
X403854Y910569D01*
X406000Y910142D01*
X408146Y910569D01*
X409965Y911785D01*
X411181Y913604D01*
X411608Y915750D01*
X411350Y917046D01*
X411592Y917374D01*
X412455Y917999D01*
X414250Y917642D01*
X416396Y918069D01*
X418215Y919285D01*
X419431Y921104D01*
X419858Y923250D01*
X419431Y925396D01*
X418215Y927215D01*
X416396Y928431D01*
X414250Y928858D01*
D02*
G37*
G36*
X313000Y898858D02*
X310854Y898431D01*
X309035Y897215D01*
X307819Y895396D01*
X307392Y893250D01*
X307819Y891104D01*
X309035Y889285D01*
X310854Y888069D01*
X313000Y887642D01*
X315146Y888069D01*
X316965Y889285D01*
X318181Y891104D01*
X318608Y893250D01*
X318181Y895396D01*
X316965Y897215D01*
X315146Y898431D01*
X313000Y898858D01*
D02*
G37*
G36*
X364540Y874790D02*
X359270D01*
Y868520D01*
X364540D01*
Y874790D01*
D02*
G37*
G36*
X356730D02*
X351460D01*
Y868520D01*
X356730D01*
Y874790D01*
D02*
G37*
G36*
X364540Y865980D02*
X359270D01*
Y859710D01*
X364540D01*
Y865980D01*
D02*
G37*
G36*
X356730D02*
X351460D01*
Y859710D01*
X356730D01*
Y865980D01*
D02*
G37*
G36*
X326270Y849959D02*
Y841270D01*
X334959D01*
X334782Y842621D01*
X333770Y845063D01*
X332161Y847161D01*
X330063Y848770D01*
X327621Y849782D01*
X326270Y849959D01*
D02*
G37*
G36*
X323730D02*
X322379Y849782D01*
X319937Y848770D01*
X317839Y847161D01*
X316230Y845063D01*
X315219Y842621D01*
X315041Y841270D01*
X323730D01*
Y849959D01*
D02*
G37*
G36*
X350400Y849582D02*
X347920Y849256D01*
X345609Y848298D01*
X343625Y846775D01*
X342102Y844791D01*
X341145Y842480D01*
X340818Y840000D01*
X341145Y837520D01*
X342102Y835209D01*
X343625Y833224D01*
X345609Y831702D01*
X347920Y830744D01*
X350400Y830418D01*
X352880Y830744D01*
X355191Y831702D01*
X357175Y833224D01*
X358698Y835209D01*
X359655Y837520D01*
X359982Y840000D01*
X359655Y842480D01*
X358698Y844791D01*
X357175Y846775D01*
X355191Y848298D01*
X352880Y849256D01*
X350400Y849582D01*
D02*
G37*
G36*
X299600D02*
X297120Y849256D01*
X294809Y848298D01*
X292825Y846775D01*
X291302Y844791D01*
X290345Y842480D01*
X290018Y840000D01*
X290345Y837520D01*
X291302Y835209D01*
X292825Y833224D01*
X294809Y831702D01*
X297120Y830744D01*
X299600Y830418D01*
X302080Y830744D01*
X304391Y831702D01*
X306376Y833224D01*
X307898Y835209D01*
X308855Y837520D01*
X309182Y840000D01*
X308855Y842480D01*
X307898Y844791D01*
X306376Y846775D01*
X304391Y848298D01*
X302080Y849256D01*
X299600Y849582D01*
D02*
G37*
G36*
X334959Y838730D02*
X326270D01*
Y830041D01*
X327621Y830218D01*
X330063Y831230D01*
X332161Y832839D01*
X333770Y834937D01*
X334782Y837379D01*
X334959Y838730D01*
D02*
G37*
G36*
X323730D02*
X315041D01*
X315219Y837379D01*
X316230Y834937D01*
X317839Y832839D01*
X319937Y831230D01*
X322379Y830218D01*
X323730Y830041D01*
Y838730D01*
D02*
G37*
%LPD*%
D12*
X567058Y637646D02*
Y657250D01*
X431750Y1033750D02*
Y1067000D01*
X429750Y1069000D02*
X431750Y1067000D01*
X389250Y880000D02*
X399303Y869947D01*
X405853D01*
X416000Y859800D01*
X417010Y870804D02*
X422500Y865314D01*
X413946Y870804D02*
X417010D01*
X407500Y877250D02*
X413946Y870804D01*
X266000Y958000D02*
X286250Y937750D01*
X431750Y1033750D02*
X440500Y1042500D01*
X451750D01*
X451750Y1042500D01*
X394170Y641730D02*
X403000Y650561D01*
Y650777D01*
X118000Y667750D02*
X118250Y667500D01*
X105750Y667750D02*
X118000D01*
X480043Y867818D02*
X481000Y868775D01*
X474500Y859800D02*
X480043Y865343D01*
Y867818D01*
X228862Y835138D02*
X233000Y831000D01*
X265200D01*
X158000Y835500D02*
Y890750D01*
X193750Y926500D01*
X398750Y969000D02*
Y969500D01*
Y969000D02*
X413875Y953875D01*
X414125D01*
X266000Y958000D02*
Y966750D01*
X398750Y1021000D02*
Y1046750D01*
Y995250D02*
Y1021000D01*
Y969500D02*
Y995250D01*
X266000Y1026500D02*
Y1054500D01*
Y996250D02*
Y1026500D01*
Y966750D02*
Y996250D01*
X418000Y887500D02*
X418018Y887518D01*
Y889424D01*
X418000Y887500D02*
X427950Y877550D01*
X418000Y887500D02*
Y887500D01*
X422500Y854050D02*
Y865314D01*
X427000Y890000D02*
X434450Y882550D01*
X427000Y890000D02*
Y890000D01*
X164500Y876500D02*
X165125Y875875D01*
Y854675D02*
Y875875D01*
X158000Y835500D02*
X170500Y823000D01*
X195305Y835138D02*
X228862D01*
X170500Y823000D02*
X183167D01*
X193750Y926500D02*
Y939000D01*
X208250D02*
X210500Y936750D01*
X193750Y939000D02*
X208250D01*
X210500Y921000D02*
Y936750D01*
X191750Y854050D02*
Y902250D01*
X210500Y921000D01*
X183167Y823000D02*
X195305Y835138D01*
X416000Y854050D02*
Y859800D01*
X454500Y886750D02*
X454750Y886500D01*
Y854300D02*
Y886500D01*
Y854300D02*
X455000Y854050D01*
X461688Y877188D02*
X461875Y877375D01*
X461688Y854237D02*
Y877188D01*
X461500Y854050D02*
X461688Y854237D01*
X474500Y854050D02*
Y859800D01*
X427950Y855100D02*
Y877550D01*
X434450Y855100D02*
Y882550D01*
X427950Y855100D02*
X429000Y854050D01*
X434450Y855100D02*
X435500Y854050D01*
X595073Y553207D02*
X607712Y565846D01*
X578073Y553207D02*
X595073D01*
X79338Y569576D02*
Y579500D01*
X126750Y564750D02*
X127750D01*
X113957Y551957D02*
X126750Y564750D01*
X96957Y551957D02*
X113957D01*
X86457Y562457D02*
X96957Y551957D01*
X86457Y562457D02*
X86457D01*
X79338Y569576D02*
X86457Y562457D01*
X469343Y841000D02*
X492500D01*
X468172Y842172D02*
Y853878D01*
Y842172D02*
X469343Y841000D01*
X492500D02*
X500750Y849250D01*
X468000Y854050D02*
X468172Y853878D01*
X429750Y775750D02*
X435750D01*
X382500Y768000D02*
X422000D01*
X429750Y775750D01*
X185675Y771932D02*
Y775825D01*
X184750Y776750D02*
X185675Y775825D01*
Y771932D02*
X195857Y761750D01*
X261750D01*
X169250Y836500D02*
X169859D01*
X178033Y853333D02*
X178750Y854050D01*
X178033Y844674D02*
Y853333D01*
X169859Y836500D02*
X178033Y844674D01*
X176697Y829500D02*
Y830197D01*
X185250Y838750D01*
Y854050D01*
X261750Y761750D02*
X287250Y787250D01*
X375800Y840000D02*
X376250Y839550D01*
Y827000D02*
Y839550D01*
X287250Y787250D02*
Y820078D01*
X288422Y821250D01*
X370500D01*
X376250Y827000D01*
X395303Y779750D02*
X425250D01*
X395019Y780034D02*
X395303Y779750D01*
X500750Y849250D02*
Y869000D01*
X374000Y775500D02*
Y776500D01*
Y775500D02*
X377000Y772500D01*
X378000D01*
X382500Y768000D01*
X435500Y796450D02*
X435625Y796325D01*
Y775875D02*
Y796325D01*
Y775875D02*
X435750Y775750D01*
X429000Y783500D02*
Y796450D01*
X425250Y779750D02*
X429000Y783500D01*
X400500Y794500D02*
X414950D01*
X416000Y795550D01*
Y796450D01*
X376050Y778550D02*
Y804500D01*
X374000Y776500D02*
X376050Y778550D01*
X375800Y840000D02*
Y865450D01*
X374000Y867250D02*
X375800Y865450D01*
X105454Y661204D02*
Y668000D01*
X201654Y661204D02*
Y668000D01*
X394054Y661204D02*
Y668000D01*
X586454Y661204D02*
Y668000D01*
X573554Y636404D02*
Y648304D01*
X174000Y870147D02*
Y871500D01*
X172250Y868397D02*
X174000Y870147D01*
X172250Y854050D02*
Y868397D01*
X165125Y854675D02*
X165750Y854050D01*
X178750Y781500D02*
Y796450D01*
X170500Y773250D02*
X178750Y781500D01*
X185000Y796200D02*
X185250Y796450D01*
X185000Y777000D02*
Y796200D01*
X184750Y776750D02*
X185000Y777000D01*
X573546Y636396D02*
X573554Y636404D01*
Y648304D02*
X586454Y661204D01*
X599500Y667750D02*
X599750Y667500D01*
X586750Y667750D02*
X599500D01*
X586500Y668000D02*
X586750Y667750D01*
X477346Y636396D02*
X477354Y636404D01*
Y648304D02*
X490254Y661204D01*
X477354Y636404D02*
Y648304D01*
X503300Y667750D02*
X503550Y667500D01*
X490550Y667750D02*
X503300D01*
X490300Y668000D02*
X490550Y667750D01*
X490254Y661204D02*
Y668000D01*
X381146Y636396D02*
X381154Y636404D01*
Y648304D02*
X394054Y661204D01*
X381154Y636404D02*
Y648304D01*
X407100Y667750D02*
X407350Y667500D01*
X394350Y667750D02*
X407100D01*
X394100Y668000D02*
X394350Y667750D01*
X284946Y636396D02*
X284954Y636404D01*
Y648304D02*
X297854Y661204D01*
X284954Y636404D02*
Y648304D01*
X310900Y667750D02*
X311150Y667500D01*
X298150Y667750D02*
X310900D01*
X297900Y668000D02*
X298150Y667750D01*
X297854Y661204D02*
Y668000D01*
X188746Y636396D02*
X188754Y636404D01*
Y648304D02*
X201654Y661204D01*
X188754Y636404D02*
Y648304D01*
X214700Y667750D02*
X214950Y667500D01*
X201950Y667750D02*
X214700D01*
X201700Y668000D02*
X201950Y667750D01*
X105500Y668000D02*
X105750Y667750D01*
X92554Y636404D02*
Y648304D01*
X105454Y661204D01*
X570058Y660250D02*
X570320D01*
X567058Y657250D02*
X570058Y660250D01*
X593919Y650284D02*
Y650500D01*
X586616Y642980D02*
X593919Y650284D01*
X586616Y637646D02*
Y642980D01*
X580012Y637646D02*
Y648092D01*
X592920Y661000D01*
X600998D02*
X602169Y659828D01*
Y636450D02*
Y659828D01*
Y636450D02*
X602869Y635750D01*
X592920Y661000D02*
X600998D01*
X473835Y659000D02*
X474096D01*
X470835Y656000D02*
X473835Y659000D01*
X470835Y636396D02*
Y656000D01*
X497696Y649034D02*
Y649250D01*
X490393Y641730D02*
X497696Y649034D01*
X490393Y636396D02*
Y641730D01*
X483789Y636396D02*
Y646842D01*
X496696Y659750D01*
X504775D02*
X505946Y658578D01*
Y635200D02*
Y658578D01*
Y635200D02*
X506646Y634500D01*
X496696Y659750D02*
X504775D01*
X377612Y659000D02*
X377873D01*
X374612Y656000D02*
X377612Y659000D01*
X374612Y636396D02*
Y656000D01*
X394170Y636396D02*
Y641730D01*
X387565Y636396D02*
Y646842D01*
X400473Y659750D01*
X408552D02*
X409723Y658578D01*
Y635200D02*
Y658578D01*
Y635200D02*
X410423Y634500D01*
X400473Y659750D02*
X408552D01*
X185165Y659000D02*
X185427D01*
X182165Y656000D02*
X185165Y659000D01*
X182165Y636396D02*
Y656000D01*
X209027Y649034D02*
Y649250D01*
X201723Y641730D02*
X209027Y649034D01*
X201723Y636396D02*
Y641730D01*
X195119Y636396D02*
Y646842D01*
X208027Y659750D01*
X216105D02*
X217277Y658578D01*
Y635200D02*
Y658578D01*
Y635200D02*
X217977Y634500D01*
X208027Y659750D02*
X216105D01*
X88942Y659000D02*
X89204D01*
X85942Y656000D02*
X88942Y659000D01*
X85942Y636396D02*
Y656000D01*
X112804Y649034D02*
Y649250D01*
X105500Y641730D02*
X112804Y649034D01*
X105500Y636396D02*
Y641730D01*
X98896Y636396D02*
Y646842D01*
X111804Y659750D01*
X119882D02*
X121054Y658578D01*
Y635200D02*
Y658578D01*
Y635200D02*
X121754Y634500D01*
X111804Y659750D02*
X119882D01*
X92546Y636396D02*
X92554Y636404D01*
X304250Y659750D02*
X312328D01*
X313500Y635200D02*
X314200Y634500D01*
X313500Y635200D02*
Y658578D01*
X312328Y659750D02*
X313500Y658578D01*
X291342Y646842D02*
X304250Y659750D01*
X291342Y636396D02*
Y646842D01*
X297946Y636396D02*
Y641730D01*
X305250Y649034D01*
Y649250D01*
X278388Y636396D02*
Y656000D01*
X281388Y659000D01*
X281650D01*
X560454Y570826D02*
Y580750D01*
X567573Y563707D02*
X578073Y553207D01*
X567573Y563707D02*
X567573D01*
X560454Y570826D02*
X567573Y563707D01*
X574165Y566307D02*
X574669Y565803D01*
X574165Y566307D02*
Y580247D01*
X573662Y580750D02*
X574165Y580247D01*
X580790Y571076D02*
X585866Y566000D01*
X580790Y571076D02*
Y579972D01*
X580012Y580750D02*
X580790Y579972D01*
X464231Y569576D02*
Y579500D01*
X471350Y562457D02*
X481850Y551957D01*
X471349Y562457D02*
X471350D01*
X464231Y569576D02*
X471349Y562457D01*
X481850Y551957D02*
X498850D01*
X511643Y564750D01*
X512643D01*
X477942Y565057D02*
X478446Y564553D01*
X477942Y565057D02*
Y578997D01*
X477439Y579500D02*
X477942Y578997D01*
X484567Y569826D02*
X489643Y564750D01*
X484567Y569826D02*
Y578722D01*
X483789Y579500D02*
X484567Y578722D01*
X368008Y569576D02*
Y579500D01*
X375126Y562457D02*
X385626Y551957D01*
X375126Y562457D02*
X375126D01*
X368008Y569576D02*
X375126Y562457D01*
X385626Y551957D02*
X402626D01*
X415420Y564750D01*
X416419D01*
X381719Y565057D02*
X382223Y564553D01*
X381719Y565057D02*
Y578997D01*
X381216Y579500D02*
X381719Y578997D01*
X388344Y569826D02*
X393419Y564750D01*
X388344Y569826D02*
Y578722D01*
X387565Y579500D02*
X388344Y578722D01*
X271784Y569576D02*
Y579500D01*
X278903Y562457D02*
X289403Y551957D01*
X278903Y562457D02*
X278903D01*
X271784Y569576D02*
X278903Y562457D01*
X289403Y551957D02*
X306403D01*
X319196Y564750D01*
X320196D01*
X285496Y565057D02*
X285999Y564553D01*
X285496Y565057D02*
Y578997D01*
X284992Y579500D02*
X285496Y578997D01*
X292120Y569826D02*
X297196Y564750D01*
X292120Y569826D02*
Y578722D01*
X291342Y579500D02*
X292120Y578722D01*
X175561Y569576D02*
Y579500D01*
X182680Y562457D02*
X193180Y551957D01*
X182680Y562457D02*
X182680D01*
X175561Y569576D02*
X182680Y562457D01*
X193180Y551957D02*
X210180D01*
X222973Y564750D01*
X223973D01*
X189273Y565057D02*
X189776Y564553D01*
X189273Y565057D02*
Y578997D01*
X188769Y579500D02*
X189273Y578997D01*
X195897Y569826D02*
X200973Y564750D01*
X195897Y569826D02*
Y578722D01*
X195119Y579500D02*
X195897Y578722D01*
X98896Y579500D02*
X99674Y578722D01*
Y569826D02*
Y578722D01*
Y569826D02*
X104750Y564750D01*
X92546Y579500D02*
X93049Y578997D01*
Y565057D02*
Y578997D01*
Y565057D02*
X93553Y564553D01*
D13*
X274450Y840000D02*
Y886800D01*
Y804500D02*
Y840000D01*
X521250Y943750D02*
X521500D01*
X518750Y946250D02*
Y946500D01*
Y946250D02*
X521250Y943750D01*
D14*
X539532Y1043500D02*
X541282Y1041750D01*
X542500D01*
X484451Y1021500D02*
X497750D01*
X482451Y1019500D02*
X484451Y1021500D01*
X224868Y786250D02*
Y795832D01*
X224250Y796450D02*
X224868Y795832D01*
X224750Y778250D02*
X242266D01*
X243266Y779250D01*
X262000D01*
X528250Y1043350D02*
X528400Y1043500D01*
X539532D01*
X469500Y898500D02*
Y898500D01*
X488500Y879500D02*
X503250D01*
X469500Y898500D02*
X488500Y879500D01*
X442500Y925500D02*
X469500Y898500D01*
X224868Y786250D02*
X249750D01*
X217750Y785250D02*
X224750Y778250D01*
X497976Y1031725D02*
Y1045424D01*
X497750Y1031500D02*
X497976Y1031725D01*
Y1045424D02*
X498201Y1045650D01*
X191852Y786398D02*
X195000Y783250D01*
X191852Y786398D02*
Y796348D01*
X195000Y777000D02*
Y783250D01*
X198250Y786364D02*
Y796450D01*
X205139Y777611D02*
Y779475D01*
X198250Y786364D02*
X205139Y779475D01*
X191250Y796950D02*
X191852Y796348D01*
X194750Y776750D02*
X195000Y777000D01*
X217750Y785250D02*
Y796450D01*
X504500Y973286D02*
X505965Y974750D01*
X520000D01*
X504500Y878250D02*
Y973286D01*
Y878250D02*
X510000Y872750D01*
X503250Y879500D02*
X504500Y878250D01*
X520000Y971375D02*
Y974750D01*
X441200Y854850D02*
Y904050D01*
X433750Y911500D02*
X441200Y904050D01*
X433750Y911500D02*
Y925500D01*
X442500D01*
X441200Y854850D02*
X442000Y854050D01*
X255775Y995525D02*
X256500Y996250D01*
X238075Y995525D02*
X255775D01*
X237350Y994800D02*
X238075Y995525D01*
X256500Y1026000D02*
Y1026500D01*
X250700Y1020200D02*
X256500Y1026000D01*
X237350Y1020200D02*
X250700D01*
X256000Y1054250D02*
X256250Y1054500D01*
X256000Y1047750D02*
Y1054250D01*
X253850Y1045600D02*
X256000Y1047750D01*
X237350Y1045600D02*
X253850D01*
X256000Y966750D02*
Y966825D01*
X254750Y968075D02*
X256000Y966825D01*
X238675Y968075D02*
X254750D01*
X237350Y969400D02*
X238675Y968075D01*
X369400Y969450D02*
X388700D01*
X369575Y995025D02*
X388525D01*
X388750Y995250D01*
X369925Y1046175D02*
X388175D01*
X388750Y1046750D01*
X369750Y1020600D02*
X388350D01*
X388750Y1021000D01*
X369350Y969400D02*
X369400Y969450D01*
X369350Y1020200D02*
X369750Y1020600D01*
X369350Y1045600D02*
X369925Y1046175D01*
X369350Y994800D02*
X369575Y995025D01*
X388700Y969450D02*
X388750Y969500D01*
X510000Y849250D02*
Y872750D01*
X461500Y770750D02*
X463750Y768500D01*
X463796D02*
X466296Y766000D01*
X501750D01*
X461500Y770750D02*
Y796450D01*
X463750Y768500D02*
X463796D01*
X230250Y823250D02*
X243500D01*
X257450D01*
X204750Y796450D02*
Y818773D01*
X199862Y823662D02*
X204750Y818773D01*
X199862Y823662D02*
Y824138D01*
X274325Y804625D02*
X274450Y804500D01*
X274200Y840000D02*
X274325Y839875D01*
Y804625D02*
Y839875D01*
X478750Y780250D02*
Y780650D01*
X474500Y784900D02*
X478750Y780650D01*
X474500Y784900D02*
Y796450D01*
X492000Y823500D02*
Y831250D01*
X510000Y849250D01*
X197066Y830888D02*
X222612D01*
X230250Y823250D01*
X257450D02*
X265200Y831000D01*
X191250Y825072D02*
X197066Y830888D01*
X191250Y796950D02*
Y825072D01*
X150250Y801000D02*
X161200D01*
X161415Y800785D02*
X164950D01*
X165750Y796450D02*
Y799985D01*
X164950Y800785D02*
X165750Y799985D01*
X161200Y801000D02*
X161415Y800785D01*
X219000Y821500D02*
Y823250D01*
X211250Y813750D02*
X219000Y821500D01*
X464250Y820250D02*
Y823250D01*
X455000Y811000D02*
X464250Y820250D01*
X437000Y810250D02*
X440536D01*
X442000Y796450D02*
Y808785D01*
X440536Y810250D02*
X442000Y808785D01*
X429250Y818000D02*
X437000Y810250D01*
X429250Y828000D02*
X432250Y831000D01*
X429250Y818000D02*
Y828000D01*
X432250Y831000D02*
X467250D01*
X474750Y823500D01*
X492000D01*
X448500Y796450D02*
Y810500D01*
X439750Y819250D02*
X448500Y810500D01*
X455000Y796450D02*
Y811000D01*
X501750Y766000D02*
X523000Y787250D01*
X468000Y796450D02*
X468250Y796200D01*
Y776000D02*
Y796200D01*
Y776000D02*
X468500Y775750D01*
X527750Y1033350D02*
X528250D01*
X518900Y1024500D02*
X527750Y1033350D01*
X517402Y1024500D02*
X518900D01*
X513152Y1020250D02*
X517402Y1024500D01*
X513152Y1019500D02*
Y1020250D01*
X466348Y1033350D02*
X466848D01*
X457498Y1024500D02*
X466348Y1033350D01*
X456000Y1024500D02*
X457498D01*
X451750Y1020250D02*
X456000Y1024500D01*
X451750Y1019500D02*
Y1020250D01*
X445750Y775750D02*
Y781500D01*
X442000Y785250D02*
X445750Y781500D01*
X442000Y785250D02*
Y796450D01*
X205139Y777611D02*
X206000Y776750D01*
X211250Y796450D02*
Y813750D01*
X224250Y854050D02*
Y859800D01*
X241639Y877189D01*
Y881889D01*
X242500Y882750D01*
X217750Y854050D02*
Y865600D01*
X229889Y877739D01*
Y882389D01*
X230750Y883250D01*
X211250Y854050D02*
Y866691D01*
X220250Y875691D01*
Y883000D01*
D15*
X380500Y877834D02*
Y894750D01*
Y877834D02*
X400250Y858084D01*
Y842250D02*
Y858084D01*
X422500Y796450D02*
Y820000D01*
X400250Y842250D02*
X422500Y820000D01*
X151000Y959250D02*
X161150Y969400D01*
X151000Y832500D02*
Y959250D01*
Y832500D02*
X172250Y811250D01*
Y796450D02*
Y811250D01*
X204750Y854050D02*
Y877436D01*
X210250Y882936D01*
Y883250D01*
X607712Y565846D02*
X613654D01*
X614750Y564750D01*
X105500Y678000D02*
Y704250D01*
X107000Y705750D01*
X201700Y678000D02*
Y696500D01*
X192450Y705750D02*
X201700Y696500D01*
X189068Y705750D02*
X192450D01*
X297900Y678000D02*
Y696500D01*
X288650Y705750D02*
X297900Y696500D01*
X288614Y705750D02*
X288650D01*
X394100Y678000D02*
Y699809D01*
X388159Y705750D02*
X394100Y699809D01*
X490300Y678000D02*
Y703155D01*
X487705Y705750D02*
X490300Y703155D01*
X586500Y678000D02*
Y705000D01*
X587250Y705750D01*
D18*
X177750Y939000D02*
D03*
X193750D02*
D03*
X374000Y776500D02*
D03*
X358000D02*
D03*
Y867250D02*
D03*
X374000D02*
D03*
X492000Y823500D02*
D03*
X508000D02*
D03*
D19*
X127750Y564750D02*
D03*
Y548750D02*
D03*
X570250Y675000D02*
D03*
Y659000D02*
D03*
X603250Y618500D02*
D03*
Y634500D02*
D03*
X614750Y564750D02*
D03*
Y548750D02*
D03*
X121500Y618500D02*
D03*
Y634500D02*
D03*
X89250Y675000D02*
D03*
Y659000D02*
D03*
X433750Y941500D02*
D03*
Y925500D02*
D03*
X217850Y634500D02*
D03*
Y618500D02*
D03*
X314200Y634500D02*
D03*
Y618500D02*
D03*
X410550Y634500D02*
D03*
Y618500D02*
D03*
X506900Y634500D02*
D03*
Y618500D02*
D03*
X185450Y659000D02*
D03*
Y675000D02*
D03*
X281650Y659000D02*
D03*
Y675000D02*
D03*
X377850Y659000D02*
D03*
Y675000D02*
D03*
X474050Y659000D02*
D03*
Y675000D02*
D03*
X225150Y548750D02*
D03*
Y564750D02*
D03*
X322550Y548750D02*
D03*
Y564750D02*
D03*
X419950Y548750D02*
D03*
Y564750D02*
D03*
X517350Y548750D02*
D03*
Y564750D02*
D03*
X243500Y823250D02*
D03*
Y839250D02*
D03*
D20*
X586500Y678000D02*
D03*
Y668000D02*
D03*
X105500Y678000D02*
D03*
Y668000D02*
D03*
X150250Y811000D02*
D03*
Y801000D02*
D03*
X528250Y1033350D02*
D03*
Y1043350D02*
D03*
X497750Y1021500D02*
D03*
Y1031500D02*
D03*
X466848Y1033350D02*
D03*
Y1043350D02*
D03*
X400500Y804500D02*
D03*
Y794500D02*
D03*
X201700Y668000D02*
D03*
Y678000D02*
D03*
X297900Y668000D02*
D03*
Y678000D02*
D03*
X394100Y668000D02*
D03*
Y678000D02*
D03*
X490300Y668000D02*
D03*
Y678000D02*
D03*
D21*
X567058Y609198D02*
D03*
X85942Y607948D02*
D03*
X182165D02*
D03*
X278388D02*
D03*
X374612D02*
D03*
X470835D02*
D03*
D22*
X547500Y637646D02*
D03*
X554104D02*
D03*
X560454D02*
D03*
X567058D02*
D03*
X573662D02*
D03*
X580012D02*
D03*
X586616D02*
D03*
Y580750D02*
D03*
X580012D02*
D03*
X573662D02*
D03*
X567058D02*
D03*
X560454D02*
D03*
X554104D02*
D03*
X547500D02*
D03*
X66384Y636396D02*
D03*
X72988D02*
D03*
X79338D02*
D03*
X85942D02*
D03*
X92546D02*
D03*
X98896D02*
D03*
X105500D02*
D03*
Y579500D02*
D03*
X98896D02*
D03*
X92546D02*
D03*
X85942D02*
D03*
X79338D02*
D03*
X72988D02*
D03*
X66384D02*
D03*
X162607D02*
D03*
X169211D02*
D03*
X175561D02*
D03*
X182165D02*
D03*
X188769D02*
D03*
X195119D02*
D03*
X201723D02*
D03*
Y636396D02*
D03*
X195119D02*
D03*
X188769D02*
D03*
X182165D02*
D03*
X175561D02*
D03*
X169211D02*
D03*
X162607D02*
D03*
X258830Y579500D02*
D03*
X265434D02*
D03*
X271784D02*
D03*
X278388D02*
D03*
X284992D02*
D03*
X291342D02*
D03*
X297946D02*
D03*
Y636396D02*
D03*
X291342D02*
D03*
X284992D02*
D03*
X278388D02*
D03*
X271784D02*
D03*
X265434D02*
D03*
X258830D02*
D03*
X355053Y579500D02*
D03*
X361657D02*
D03*
X368008D02*
D03*
X374612D02*
D03*
X381216D02*
D03*
X387565D02*
D03*
X394170D02*
D03*
Y636396D02*
D03*
X387565D02*
D03*
X381216D02*
D03*
X374612D02*
D03*
X368008D02*
D03*
X361657D02*
D03*
X355053D02*
D03*
X451277Y579500D02*
D03*
X457881D02*
D03*
X464231D02*
D03*
X470835D02*
D03*
X477439D02*
D03*
X483789D02*
D03*
X490393D02*
D03*
Y636396D02*
D03*
X483789D02*
D03*
X477439D02*
D03*
X470835D02*
D03*
X464231D02*
D03*
X457881D02*
D03*
X451277D02*
D03*
D23*
X545900Y537750D02*
D03*
X588600D02*
D03*
X59400Y535500D02*
D03*
X102100D02*
D03*
X199400Y536250D02*
D03*
X156700D02*
D03*
X296700Y537750D02*
D03*
X254000D02*
D03*
X394000D02*
D03*
X351300D02*
D03*
X491300D02*
D03*
X448600D02*
D03*
D24*
X39750Y740750D02*
D03*
Y705750D02*
D03*
X587250Y740750D02*
D03*
Y705750D02*
D03*
X487705D02*
D03*
Y740750D02*
D03*
X338386Y705750D02*
D03*
Y740750D02*
D03*
X238841Y705750D02*
D03*
Y740750D02*
D03*
X139296Y705750D02*
D03*
Y740750D02*
D03*
X537477Y705750D02*
D03*
Y740750D02*
D03*
X437932Y705750D02*
D03*
Y740750D02*
D03*
X388159Y705750D02*
D03*
Y740750D02*
D03*
X288614Y705750D02*
D03*
Y740750D02*
D03*
X189068Y705750D02*
D03*
Y740750D02*
D03*
X89523Y705750D02*
D03*
Y740750D02*
D03*
D25*
X445750Y775750D02*
D03*
X435750D02*
D03*
X194750Y776750D02*
D03*
X184750D02*
D03*
X388750Y1046750D02*
D03*
X398750D02*
D03*
X388750Y1021000D02*
D03*
X398750D02*
D03*
X388750Y995250D02*
D03*
X398750D02*
D03*
X388750Y969500D02*
D03*
X398750D02*
D03*
X256000Y966750D02*
D03*
X266000D02*
D03*
X256000Y996250D02*
D03*
X266000D02*
D03*
X256000Y1026500D02*
D03*
X266000D02*
D03*
X256000Y1054500D02*
D03*
X266000D02*
D03*
D26*
X165750Y854050D02*
D03*
X172250D02*
D03*
X178750D02*
D03*
X185250D02*
D03*
X191750D02*
D03*
X198250D02*
D03*
X204750D02*
D03*
X211250D02*
D03*
X217750D02*
D03*
X224250D02*
D03*
Y796450D02*
D03*
X217750D02*
D03*
X211250D02*
D03*
X204750D02*
D03*
X198250D02*
D03*
X191750D02*
D03*
X185250D02*
D03*
X178750D02*
D03*
X172250D02*
D03*
X165750D02*
D03*
X416000Y854050D02*
D03*
X422500D02*
D03*
X429000D02*
D03*
X435500D02*
D03*
X442000D02*
D03*
X448500D02*
D03*
X455000D02*
D03*
X461500D02*
D03*
X468000D02*
D03*
X474500D02*
D03*
Y796450D02*
D03*
X468000D02*
D03*
X461500D02*
D03*
X455000D02*
D03*
X448500D02*
D03*
X442000D02*
D03*
X435500D02*
D03*
X429000D02*
D03*
X422500D02*
D03*
X416000D02*
D03*
D27*
X513152Y1019500D02*
D03*
Y1042500D02*
D03*
X482451Y1019500D02*
D03*
Y1042500D02*
D03*
X450305Y1042000D02*
D03*
Y1019000D02*
D03*
D28*
X485000Y974750D02*
D03*
X520000D02*
D03*
X450750Y269250D02*
D03*
X485750D02*
D03*
X450750Y226750D02*
D03*
X485750D02*
D03*
X98250D02*
D03*
X133250D02*
D03*
X98250Y269250D02*
D03*
X133250D02*
D03*
X168000Y226750D02*
D03*
X203000D02*
D03*
X168750Y269250D02*
D03*
X203750D02*
D03*
X239250Y226750D02*
D03*
X274250D02*
D03*
X239250Y269250D02*
D03*
X274250D02*
D03*
X309750Y226750D02*
D03*
X344750D02*
D03*
X309750Y269250D02*
D03*
X344750D02*
D03*
X380250Y227000D02*
D03*
X415250D02*
D03*
X380250Y269250D02*
D03*
X415250D02*
D03*
D29*
X541000Y817250D02*
D03*
D30*
X599000Y840250D02*
D03*
Y817250D02*
D03*
Y794250D02*
D03*
D31*
X487750Y376735D02*
D03*
Y334035D02*
D03*
X287750Y384719D02*
D03*
Y342019D02*
D03*
X87000Y384719D02*
D03*
Y342019D02*
D03*
X54000Y464481D02*
D03*
Y421781D02*
D03*
X453500Y464481D02*
D03*
Y421781D02*
D03*
X253250Y464481D02*
D03*
Y421781D02*
D03*
D32*
X205750Y344750D02*
D03*
X122750D02*
D03*
X174750Y461750D02*
D03*
X91750D02*
D03*
X374000D02*
D03*
X291000D02*
D03*
X573250D02*
D03*
X490250D02*
D03*
X608250Y344750D02*
D03*
X525250D02*
D03*
X407000D02*
D03*
X324000D02*
D03*
D52*
X546477Y649669D02*
X553000Y643146D01*
X554104Y644250D01*
Y637646D02*
Y644250D01*
X457881Y637072D02*
X458557Y636396D01*
X265434D02*
Y653816D01*
X169211Y636396D02*
Y644289D01*
X72988Y636396D02*
Y649512D01*
X144750Y668750D02*
X169211Y644289D01*
X144750Y668750D02*
Y704454D01*
X546477Y649669D02*
Y703500D01*
X144750Y704454D02*
X146046Y705750D01*
X361657Y637072D02*
Y655229D01*
X457881Y637072D02*
Y658551D01*
X48750Y673750D02*
Y703500D01*
Y673750D02*
X72988Y649512D01*
X239792Y679458D02*
X265434Y653816D01*
X239792Y679458D02*
Y704799D01*
X238841Y705750D02*
X239792Y704799D01*
X449691Y160691D02*
Y226750D01*
X203250Y161500D02*
X203500Y161250D01*
X203809Y40691D02*
X204250Y40250D01*
X203809Y40691D02*
Y51972D01*
X203500Y52281D02*
X203809Y51972D01*
X203500Y52281D02*
Y161250D01*
X449250Y40250D02*
Y160250D01*
X591000Y537750D02*
X608250Y520500D01*
Y344750D02*
Y520500D01*
X449691Y268191D02*
X453000Y271500D01*
X449691Y226750D02*
X450750Y227809D01*
X453000Y271500D02*
Y294000D01*
X450750Y227809D02*
Y267132D01*
X453000Y294000D02*
X487750Y328750D01*
X449691Y268191D02*
X450750Y267132D01*
X487750Y328750D02*
Y336435D01*
X488500Y337185D01*
X544227Y705750D02*
X546477Y703500D01*
X537477Y705750D02*
X544227D01*
X446932Y669500D02*
X457881Y658551D01*
X446932Y669500D02*
Y703500D01*
X444682Y705750D02*
X446932Y703500D01*
X437932Y705750D02*
X444682D01*
X347386Y669500D02*
X361657Y655229D01*
X347386Y669500D02*
Y703500D01*
X345136Y705750D02*
X347386Y703500D01*
X338386Y705750D02*
X345136D01*
X139296D02*
X146046D01*
X46500D02*
X48750Y703500D01*
X39750Y705750D02*
X46500D01*
X488500Y337185D02*
X520250D01*
X525250Y342185D01*
Y344750D01*
X449250Y160250D02*
X449691Y160691D01*
D53*
X28500Y486250D02*
X43250D01*
X561350Y1057000D02*
X586750D01*
X19750Y495000D02*
X28500Y486250D01*
X379250Y40250D02*
Y261500D01*
X309500Y160500D02*
Y269000D01*
X239250Y160250D02*
Y269250D01*
X169000Y40500D02*
Y269000D01*
X99250Y40250D02*
Y261500D01*
X204000Y226750D02*
Y269000D01*
X203000Y226750D02*
X203250Y226500D01*
Y161500D02*
Y226500D01*
X484250Y40250D02*
Y261000D01*
X414250Y40250D02*
Y261500D01*
X344500Y160500D02*
Y269000D01*
X344250Y40250D02*
Y160250D01*
X274250Y40250D02*
Y269250D01*
X309250Y40250D02*
Y160250D01*
X239250Y40250D02*
Y160250D01*
X239250Y160250D02*
X239250Y160250D01*
X169000Y40500D02*
X169250Y40250D01*
X133250Y262500D02*
X134250Y261500D01*
X133250Y262500D02*
Y269250D01*
X134250Y40250D02*
Y261500D01*
X390100Y537750D02*
X416500Y511350D01*
X297200Y537250D02*
X298350Y536100D01*
X195500Y536250D02*
X205750Y526000D01*
X414250Y261500D02*
X415250Y262500D01*
Y269250D01*
X453500Y421781D02*
X454100D01*
X486069Y453750D01*
X486750D01*
X490250Y457250D01*
Y461750D01*
X453500Y332750D02*
Y421781D01*
X429250Y308500D02*
X453500Y332750D01*
X392716Y308500D02*
X429250D01*
X381000Y270000D02*
Y296784D01*
X392716Y308500D01*
X380250Y269250D02*
X381000Y270000D01*
X379250Y261500D02*
X380250Y262500D01*
Y269250D01*
X312000Y506250D02*
X334000D01*
X298350Y519900D02*
Y536100D01*
Y519900D02*
X312000Y506250D01*
X503016Y511750D02*
X527750D01*
X491300Y523466D02*
Y537750D01*
Y523466D02*
X503016Y511750D01*
X573250Y461750D02*
Y466250D01*
X527750Y511750D02*
X573250Y466250D01*
X416500Y381250D02*
Y511350D01*
X410500Y375250D02*
X416500Y381250D01*
X407000Y344750D02*
X410500Y348250D01*
Y375250D01*
X374000Y461750D02*
Y466250D01*
X334000Y506250D02*
X374000Y466250D01*
X205750Y344750D02*
Y526000D01*
X102100Y535500D02*
X105500D01*
X98200D02*
X102100D01*
X174750Y461750D02*
Y466250D01*
X105500Y535500D02*
X174750Y466250D01*
X287750Y342019D02*
X289116Y343385D01*
X322635D01*
X324000Y344750D01*
X287750Y342019D02*
X288000Y341769D01*
Y316500D02*
Y341769D01*
X309000Y270000D02*
X309750Y269250D01*
X309000Y270000D02*
Y295500D01*
X288000Y316500D02*
X309000Y295500D01*
X253250Y421781D02*
X253850D01*
X285819Y453750D01*
X287500D01*
X291000Y457250D01*
Y461750D01*
X239250Y269250D02*
Y408381D01*
X252650Y421781D01*
X253250D01*
X87000Y342019D02*
X88365Y343385D01*
X121384D01*
X122750Y344750D01*
X87000Y342019D02*
X87600D01*
X89250Y340369D01*
Y324000D02*
Y340369D01*
Y324000D02*
X106000Y307250D01*
X156000D01*
X168000Y270000D02*
Y295250D01*
X156000Y307250D02*
X168000Y295250D01*
Y270000D02*
X168750Y269250D01*
X484250Y261000D02*
X485750Y262500D01*
Y269250D01*
X344250Y160250D02*
X344500Y160500D01*
Y269000D02*
X344750Y269250D01*
X309250Y160250D02*
X309500Y160500D01*
Y269000D02*
X309750Y269250D01*
X274250D02*
X274250Y269250D01*
X239250Y269250D02*
X239250Y269250D01*
X203750Y269250D02*
X204000Y269000D01*
X168750Y269250D02*
X169000Y269000D01*
X55650Y423431D02*
X77784D01*
X88250Y458250D02*
X91750Y461750D01*
X88250Y433897D02*
Y458250D01*
X77784Y423431D02*
X88250Y433897D01*
X54000Y421781D02*
X55650Y423431D01*
X98250Y269250D02*
Y276000D01*
X54000Y320250D02*
X98250Y276000D01*
X54000Y320250D02*
Y421781D01*
X98250Y262500D02*
X99250Y261500D01*
X98250Y262500D02*
Y269250D01*
D54*
X192450Y705750D02*
X238841D01*
X288650D02*
X338386D01*
X64250Y40250D02*
Y237250D01*
X107000Y705750D02*
X139296D01*
X89523D02*
X107000D01*
X19750Y495000D02*
Y685750D01*
Y281750D02*
Y495000D01*
X544227Y705750D02*
X587250D01*
X444682D02*
X487705D01*
X345136D02*
X388159D01*
X146046D02*
X189068D01*
X46500D02*
X89523D01*
X487705D02*
X537477D01*
X388159D02*
X437932D01*
X238841D02*
X288614D01*
X36500D02*
X39750D01*
X34750Y704000D02*
X36500Y705750D01*
X34750Y700750D02*
Y704000D01*
X19750Y685750D02*
X34750Y700750D01*
X19750Y281750D02*
X64250Y237250D01*
D55*
X429750Y1069000D02*
X549350D01*
X145500D02*
X429750D01*
X83000Y1057100D02*
X108400D01*
X133600D01*
X145500Y1069000D01*
X549350D02*
X561350Y1057000D01*
X522000Y943750D02*
X541000Y924750D01*
Y817250D02*
Y924750D01*
X522000Y943750D02*
Y969375D01*
X520000Y971375D02*
X522000Y969375D01*
D56*
X274450Y886800D02*
Y925950D01*
X286250Y937750D01*
X398000D01*
X414125Y953875D01*
X462750Y1002500D01*
X561350Y955400D02*
X586750D01*
Y884097D02*
Y955400D01*
Y884097D02*
X599000Y871847D01*
X519500Y975250D02*
Y992892D01*
X509892Y1002500D02*
X519500Y992892D01*
X462750Y1002500D02*
X509892D01*
X519500Y975250D02*
X520000Y974750D01*
X95450Y538250D02*
Y542150D01*
X69606Y567994D02*
X95450Y542150D01*
Y538250D02*
X98200Y535500D01*
X69606Y567994D02*
Y577388D01*
X599000Y840250D02*
Y871847D01*
X541000Y817250D02*
X599000D01*
X550722Y567028D02*
X577250Y540500D01*
X550722Y567028D02*
Y578638D01*
X577250Y540500D02*
X585850D01*
X481000D02*
X488550D01*
X454499Y567001D02*
X481000Y540500D01*
X358275Y565725D02*
Y577388D01*
X383500Y540500D02*
X391250D01*
X358275Y565725D02*
X383500Y540500D01*
X285750D02*
X293950D01*
X262052Y564198D02*
Y577388D01*
Y564198D02*
X285750Y540500D01*
X293950D02*
X296700Y537750D01*
X165829Y565921D02*
Y577388D01*
Y565921D02*
X195500Y536250D01*
X66384Y579500D02*
X67494D01*
X69606Y577388D01*
X162607Y579500D02*
X163717D01*
X165829Y577388D01*
X258830Y579500D02*
X259940D01*
X262052Y577388D01*
X355053Y579500D02*
X356163D01*
X358275Y577388D01*
X454499Y567001D02*
Y577388D01*
X451277Y579500D02*
X452387D01*
X454499Y577388D01*
X547500Y580750D02*
X548610D01*
X550722Y578638D01*
D57*
X98200Y535500D02*
X102793Y540093D01*
X118092D01*
X126750Y548750D01*
X127750D01*
X265200Y831000D02*
X274200Y840000D01*
X512157Y537750D02*
X517250Y542843D01*
X491300Y537750D02*
X512157D01*
X609657D02*
X614750Y542843D01*
X591000Y537750D02*
X609657D01*
X588600D02*
X591000D01*
X614750Y542843D02*
Y548750D01*
X585850Y540500D02*
X588600Y537750D01*
X614750Y548750D02*
X614750Y548750D01*
X517250Y542843D02*
Y548650D01*
X488550Y540500D02*
X491300Y537750D01*
X517250Y548650D02*
X517350Y548750D01*
X419750Y545343D02*
Y548550D01*
X391250Y540500D02*
X394000Y537750D01*
X412157D01*
X419750Y545343D01*
Y548550D02*
X419950Y548750D01*
X322550Y539593D02*
Y548750D01*
X296700Y537750D02*
X297200Y537250D01*
X320207D01*
X322550Y539593D01*
X224150Y548750D02*
X225150D01*
X216243Y540843D02*
X224150Y548750D01*
X203993Y540843D02*
X216243D01*
X199400Y536250D02*
X203993Y540843D01*
D58*
X274200Y840000D02*
D03*
X299600D02*
D03*
X325000D02*
D03*
X350400D02*
D03*
X274450Y804500D02*
D03*
X299850D02*
D03*
X325250D02*
D03*
X350650D02*
D03*
X369350Y969400D02*
D03*
Y994800D02*
D03*
Y1020200D02*
D03*
Y1045600D02*
D03*
X293150Y969400D02*
D03*
Y994800D02*
D03*
Y1020200D02*
D03*
X237350Y969400D02*
D03*
Y994800D02*
D03*
Y1020200D02*
D03*
Y1045600D02*
D03*
X161150Y969400D02*
D03*
Y994800D02*
D03*
Y1020200D02*
D03*
X586750Y980800D02*
D03*
X561350D02*
D03*
X586750Y1057000D02*
D03*
X561350Y1031600D02*
D03*
X586750D02*
D03*
X561350Y1006200D02*
D03*
X586750D02*
D03*
X561350Y955400D02*
D03*
X586750D02*
D03*
X83000Y1031700D02*
D03*
X108400D02*
D03*
X83000Y955500D02*
D03*
X108400Y980900D02*
D03*
X83000D02*
D03*
X108400Y1006300D02*
D03*
X83000D02*
D03*
X108400Y1057100D02*
D03*
X83000D02*
D03*
D59*
X375800Y840000D02*
D03*
X376050Y804500D02*
D03*
X293150Y1045600D02*
D03*
X161150D02*
D03*
D60*
X561350Y1057000D02*
D03*
X108400Y955500D02*
D03*
D61*
X554250Y40250D02*
D03*
X519250D02*
D03*
X484250D02*
D03*
X449250D02*
D03*
X414250D02*
D03*
X379250D02*
D03*
X344250D02*
D03*
X309250D02*
D03*
X274250D02*
D03*
X239250D02*
D03*
X204250D02*
D03*
X169250D02*
D03*
X134250D02*
D03*
X99250D02*
D03*
X64250D02*
D03*
X29250D02*
D03*
D62*
X482250Y947500D02*
D03*
X495000Y932500D02*
D03*
X315250Y912750D02*
D03*
X302250D02*
D03*
X290000D02*
D03*
X315250Y924250D02*
D03*
X302250D02*
D03*
X290000D02*
D03*
X73500Y678750D02*
D03*
X64750Y685750D02*
D03*
X170500Y678250D02*
D03*
X162250Y685000D02*
D03*
X266750Y677750D02*
D03*
X258750Y685750D02*
D03*
X328250Y682500D02*
D03*
X313250Y682000D02*
D03*
X379750Y686250D02*
D03*
X363750Y685000D02*
D03*
X476250Y686250D02*
D03*
X462250Y684750D02*
D03*
X562750Y685500D02*
D03*
X575750Y685250D02*
D03*
X521125Y387750D02*
D03*
X458500Y896500D02*
D03*
X247750Y482750D02*
D03*
X43250Y495250D02*
D03*
X510750Y387750D02*
D03*
X531500D02*
D03*
X510750Y378750D02*
D03*
X521125D02*
D03*
X531500D02*
D03*
X436500Y494000D02*
D03*
X446875D02*
D03*
X457250D02*
D03*
X436500Y485000D02*
D03*
X446875D02*
D03*
X457250D02*
D03*
X53625Y495250D02*
D03*
X64000D02*
D03*
X43250Y486250D02*
D03*
X53625D02*
D03*
X64000D02*
D03*
X308750Y389750D02*
D03*
X319125D02*
D03*
X329500D02*
D03*
X308750Y380750D02*
D03*
X319125D02*
D03*
X329500D02*
D03*
X227000Y491750D02*
D03*
X237375D02*
D03*
X247750D02*
D03*
X227000Y482750D02*
D03*
X237375D02*
D03*
X104000Y395750D02*
D03*
X114375D02*
D03*
X124750D02*
D03*
X104000Y386750D02*
D03*
X114375D02*
D03*
X124750D02*
D03*
D63*
X452154Y953154D02*
D03*
X542500Y1041750D02*
D03*
X431750Y1033750D02*
D03*
X313000Y893250D02*
D03*
X403000Y650777D02*
D03*
X130750Y686000D02*
D03*
X118250Y667500D02*
D03*
X223250Y679500D02*
D03*
X249750Y786250D02*
D03*
X262000Y779250D02*
D03*
X481000Y868775D02*
D03*
X498201Y1045650D02*
D03*
X380500Y894750D02*
D03*
X389250Y880000D02*
D03*
X406000Y915750D02*
D03*
X414250Y923250D02*
D03*
X418018Y889424D02*
D03*
X407500Y877250D02*
D03*
X427000Y890000D02*
D03*
X453750Y942000D02*
D03*
Y927250D02*
D03*
X164500Y876500D02*
D03*
X461875Y877375D02*
D03*
X454500Y886750D02*
D03*
X272500Y512500D02*
D03*
X147750Y346500D02*
D03*
X447765Y762515D02*
D03*
X478750Y780250D02*
D03*
X199862Y824138D02*
D03*
X151750Y788750D02*
D03*
X176697Y829500D02*
D03*
X169250Y836500D02*
D03*
X219000Y823250D02*
D03*
X464250D02*
D03*
X213000Y768250D02*
D03*
X525000Y766500D02*
D03*
X115500Y777500D02*
D03*
X155500Y766500D02*
D03*
X439750Y819250D02*
D03*
X523000Y787250D02*
D03*
X468500Y775750D02*
D03*
X513500Y681000D02*
D03*
X395019Y780034D02*
D03*
X500750Y869000D02*
D03*
X102500Y823750D02*
D03*
X88750D02*
D03*
X74750D02*
D03*
X174000Y871500D02*
D03*
X206000Y776750D02*
D03*
X242500Y882750D02*
D03*
X230750Y883250D02*
D03*
X220250Y883000D02*
D03*
X210250Y883250D02*
D03*
X170500Y773250D02*
D03*
X599750Y667500D02*
D03*
X503550D02*
D03*
X407350D02*
D03*
X311150D02*
D03*
X214950D02*
D03*
X472750Y398000D02*
D03*
X380500Y355750D02*
D03*
X351750D02*
D03*
X259000Y354750D02*
D03*
X177750Y357000D02*
D03*
X578750Y517000D02*
D03*
X325500Y528250D02*
D03*
X421750Y530750D02*
D03*
X522250Y530500D02*
D03*
X229450Y531750D02*
D03*
X134250D02*
D03*
X92000Y510500D02*
D03*
X176500Y505750D02*
D03*
X365500Y517750D02*
D03*
X457500Y511500D02*
D03*
X558500Y518000D02*
D03*
X593919Y650500D02*
D03*
X497696Y649250D02*
D03*
X209027D02*
D03*
X112804D02*
D03*
X305250D02*
D03*
X574669Y565803D02*
D03*
X585866Y566000D02*
D03*
X478446Y564553D02*
D03*
X489643Y564750D02*
D03*
X382223Y564553D02*
D03*
X393419Y564750D02*
D03*
X285999Y564553D02*
D03*
X297196Y564750D02*
D03*
X189776Y564553D02*
D03*
X200973Y564750D02*
D03*
X104750D02*
D03*
X93553Y564553D02*
D03*
M02*
