G04*
G04 #@! TF.GenerationSoftware,Altium Limited,Altium Designer,20.0.13 (296)*
G04*
G04 Layer_Color=128*
%FSLAX44Y44*%
%MOMM*%
G71*
G01*
G75*
%ADD19R,0.6000X0.5000*%
%ADD20R,0.5000X0.6000*%
%ADD66R,0.5900X1.2100*%
%ADD67R,1.6000X1.6000*%
D19*
X130750Y779750D02*
D03*
Y769750D02*
D03*
X182625Y779000D02*
D03*
Y769000D02*
D03*
X229750Y779500D02*
D03*
Y769500D02*
D03*
X412500Y782250D02*
D03*
Y772250D02*
D03*
X455250Y780500D02*
D03*
Y770500D02*
D03*
X509500Y792000D02*
D03*
Y782000D02*
D03*
X187250Y551250D02*
D03*
Y541250D02*
D03*
X203200Y551500D02*
D03*
Y541500D02*
D03*
X282250Y551250D02*
D03*
Y541250D02*
D03*
X298400Y551500D02*
D03*
Y541500D02*
D03*
X377250Y551250D02*
D03*
Y541250D02*
D03*
X393600Y551500D02*
D03*
Y541500D02*
D03*
X472250Y551250D02*
D03*
Y541250D02*
D03*
X488800Y551500D02*
D03*
Y541500D02*
D03*
X92250Y551250D02*
D03*
Y541250D02*
D03*
X108000Y551500D02*
D03*
Y541500D02*
D03*
X567250Y551250D02*
D03*
Y541250D02*
D03*
X584000Y551500D02*
D03*
Y541500D02*
D03*
D20*
X110500Y853750D02*
D03*
X120500D02*
D03*
X135450D02*
D03*
X145450D02*
D03*
X160400D02*
D03*
X170400D02*
D03*
X185350D02*
D03*
X195350D02*
D03*
X210300D02*
D03*
X220300D02*
D03*
X235250D02*
D03*
X245250D02*
D03*
X397875Y854750D02*
D03*
X407875D02*
D03*
X420800D02*
D03*
X430800D02*
D03*
X443725D02*
D03*
X453725D02*
D03*
X466650D02*
D03*
X476650D02*
D03*
X489575D02*
D03*
X499575D02*
D03*
X512500D02*
D03*
X522500D02*
D03*
D66*
X152500Y833800D02*
D03*
X133500D02*
D03*
Y808700D02*
D03*
X143000D02*
D03*
X152500D02*
D03*
X208000Y833300D02*
D03*
X189000D02*
D03*
Y808200D02*
D03*
X198500D02*
D03*
X208000D02*
D03*
X248500Y833300D02*
D03*
X229500D02*
D03*
Y808200D02*
D03*
X239000D02*
D03*
X248500D02*
D03*
X528500Y832550D02*
D03*
X509500D02*
D03*
Y807450D02*
D03*
X519000D02*
D03*
X528500D02*
D03*
X473750Y833300D02*
D03*
X454750D02*
D03*
Y808200D02*
D03*
X464250D02*
D03*
X473750D02*
D03*
X425875Y833550D02*
D03*
X406875D02*
D03*
Y808450D02*
D03*
X416375D02*
D03*
X425875D02*
D03*
D67*
X412947Y238750D02*
D03*
X380947D02*
D03*
X272932D02*
D03*
X240932D02*
D03*
X132917D02*
D03*
X100917D02*
D03*
X482955D02*
D03*
X450955D02*
D03*
X482955Y260750D02*
D03*
X450955D02*
D03*
X482955Y282750D02*
D03*
X450955D02*
D03*
X482955Y304750D02*
D03*
X450955D02*
D03*
X482955Y326750D02*
D03*
X450955D02*
D03*
X412947Y260750D02*
D03*
X380947D02*
D03*
X412947Y282750D02*
D03*
X380947D02*
D03*
X412947Y304750D02*
D03*
X380947D02*
D03*
X412947Y326750D02*
D03*
X380947D02*
D03*
X342940Y238750D02*
D03*
X310940D02*
D03*
X342940Y260750D02*
D03*
X310940D02*
D03*
X342940Y282750D02*
D03*
X310940D02*
D03*
X342940Y304750D02*
D03*
X310940D02*
D03*
X342940Y326750D02*
D03*
X310940D02*
D03*
X272932Y260750D02*
D03*
X240932D02*
D03*
X272932Y282750D02*
D03*
X240932D02*
D03*
X272932Y304750D02*
D03*
X240932D02*
D03*
X272932Y326750D02*
D03*
X240932D02*
D03*
X202925Y238750D02*
D03*
X170925D02*
D03*
X202925Y260750D02*
D03*
X170925D02*
D03*
X202925Y282750D02*
D03*
X170925D02*
D03*
X202925Y304750D02*
D03*
X170925D02*
D03*
X202925Y326750D02*
D03*
X170925D02*
D03*
X132917Y260750D02*
D03*
X100917D02*
D03*
X132917Y282750D02*
D03*
X100917D02*
D03*
X132917Y304750D02*
D03*
X100917D02*
D03*
X132917Y326750D02*
D03*
X100917D02*
D03*
M02*
