G04*
G04 #@! TF.GenerationSoftware,Altium Limited,Altium Designer,20.0.13 (296)*
G04*
G04 Layer_Color=16711935*
%FSLAX44Y44*%
%MOMM*%
G71*
G01*
G75*
%ADD35R,0.8032X0.7032*%
%ADD40R,0.7032X0.8032*%
%ADD48C,1.7032*%
%ADD49R,1.7032X1.7032*%
%ADD50R,1.7032X1.7032*%
%ADD51O,2.1336X4.0640*%
%ADD68R,1.2200X0.9200*%
G04:AMPARAMS|DCode=69|XSize=1.4332mm|YSize=0.8032mm|CornerRadius=0.1766mm|HoleSize=0mm|Usage=FLASHONLY|Rotation=0.000|XOffset=0mm|YOffset=0mm|HoleType=Round|Shape=RoundedRectangle|*
%AMROUNDEDRECTD69*
21,1,1.4332,0.4500,0,0,0.0*
21,1,1.0800,0.8032,0,0,0.0*
1,1,0.3532,0.5400,-0.2250*
1,1,0.3532,-0.5400,-0.2250*
1,1,0.3532,-0.5400,0.2250*
1,1,0.3532,0.5400,0.2250*
%
%ADD69ROUNDEDRECTD69*%
%ADD70R,0.7932X1.4132*%
%ADD71R,1.8032X1.8032*%
D35*
X89000Y636750D02*
D03*
Y646750D02*
D03*
X75000Y795000D02*
D03*
Y805000D02*
D03*
X88750Y795000D02*
D03*
Y805000D02*
D03*
X102500Y795000D02*
D03*
Y805000D02*
D03*
X130750Y779750D02*
D03*
Y769750D02*
D03*
X182625Y779000D02*
D03*
Y769000D02*
D03*
X229750Y779500D02*
D03*
Y769500D02*
D03*
X412500Y782250D02*
D03*
Y772250D02*
D03*
X455250Y780500D02*
D03*
Y770500D02*
D03*
X511000Y779750D02*
D03*
Y769750D02*
D03*
X536250Y604500D02*
D03*
Y614500D02*
D03*
X547250D02*
D03*
Y604500D02*
D03*
X575500Y636500D02*
D03*
Y646500D02*
D03*
X52000Y604500D02*
D03*
Y614500D02*
D03*
X65500Y614500D02*
D03*
Y604500D02*
D03*
X187250Y551250D02*
D03*
Y541250D02*
D03*
X203200Y551500D02*
D03*
Y541500D02*
D03*
X282250Y551250D02*
D03*
Y541250D02*
D03*
X298400Y551500D02*
D03*
Y541500D02*
D03*
X377250Y551250D02*
D03*
Y541250D02*
D03*
X393600Y551500D02*
D03*
Y541500D02*
D03*
X472250Y551250D02*
D03*
Y541250D02*
D03*
X488800Y551500D02*
D03*
Y541500D02*
D03*
X92250Y551250D02*
D03*
Y541250D02*
D03*
X108000Y551500D02*
D03*
Y541500D02*
D03*
X567250Y551250D02*
D03*
Y541250D02*
D03*
X584000Y551500D02*
D03*
Y541500D02*
D03*
X452900Y604500D02*
D03*
Y614500D02*
D03*
X381750Y646750D02*
D03*
Y636750D02*
D03*
X162350Y604500D02*
D03*
Y614500D02*
D03*
X356050Y604500D02*
D03*
Y614500D02*
D03*
X148850Y614500D02*
D03*
Y604500D02*
D03*
X245700Y614500D02*
D03*
Y604500D02*
D03*
X439400Y614500D02*
D03*
Y604500D02*
D03*
X188000Y647000D02*
D03*
Y637000D02*
D03*
X285000Y646750D02*
D03*
Y636750D02*
D03*
X481000Y646750D02*
D03*
Y636750D02*
D03*
X259200Y604500D02*
D03*
Y614500D02*
D03*
X342550Y614500D02*
D03*
Y604500D02*
D03*
D40*
X493000Y969000D02*
D03*
X503000D02*
D03*
X525750D02*
D03*
X515750D02*
D03*
X74200Y664750D02*
D03*
X64200D02*
D03*
X319250Y1046250D02*
D03*
X329250D02*
D03*
X319250Y1021000D02*
D03*
X329250D02*
D03*
X319250Y995750D02*
D03*
X329250D02*
D03*
X436750Y955000D02*
D03*
X426750D02*
D03*
X479250Y969000D02*
D03*
X469250D02*
D03*
X436750Y940875D02*
D03*
X426750D02*
D03*
X436750Y926750D02*
D03*
X426750D02*
D03*
X319250Y970500D02*
D03*
X329250D02*
D03*
X186250Y1047000D02*
D03*
X196250D02*
D03*
X186250Y1021667D02*
D03*
X196250D02*
D03*
X186250Y996333D02*
D03*
X196250D02*
D03*
X186250Y971000D02*
D03*
X196250D02*
D03*
X110500Y853750D02*
D03*
X120500D02*
D03*
X135450D02*
D03*
X145450D02*
D03*
X160400D02*
D03*
X170400D02*
D03*
X185350D02*
D03*
X195350D02*
D03*
X210300D02*
D03*
X220300D02*
D03*
X235250D02*
D03*
X245250D02*
D03*
X397875Y854750D02*
D03*
X407875D02*
D03*
X420800D02*
D03*
X430800D02*
D03*
X443725D02*
D03*
X453725D02*
D03*
X466650D02*
D03*
X476650D02*
D03*
X489575D02*
D03*
X499575D02*
D03*
X512500D02*
D03*
X522500D02*
D03*
X528250Y665000D02*
D03*
X538250D02*
D03*
X560850Y664750D02*
D03*
X550850D02*
D03*
X41000Y665000D02*
D03*
X51000D02*
D03*
X469250Y982500D02*
D03*
X479250D02*
D03*
X343350Y665000D02*
D03*
X333350D02*
D03*
X440800D02*
D03*
X430800D02*
D03*
X161530Y664750D02*
D03*
X171530D02*
D03*
X148450Y665000D02*
D03*
X138450D02*
D03*
X258860Y664750D02*
D03*
X268860D02*
D03*
X356190D02*
D03*
X366190D02*
D03*
X453520D02*
D03*
X463520D02*
D03*
X245900Y665000D02*
D03*
X235900D02*
D03*
D48*
X274200Y840000D02*
D03*
X299600D02*
D03*
X325000D02*
D03*
X350400D02*
D03*
X274450Y804500D02*
D03*
X299850D02*
D03*
X325250D02*
D03*
X350650D02*
D03*
X369350Y969400D02*
D03*
Y994800D02*
D03*
Y1020200D02*
D03*
Y1045600D02*
D03*
X293150Y969400D02*
D03*
Y994800D02*
D03*
Y1020200D02*
D03*
X237350Y969400D02*
D03*
Y994800D02*
D03*
Y1020200D02*
D03*
Y1045600D02*
D03*
X161150Y969400D02*
D03*
Y994800D02*
D03*
Y1020200D02*
D03*
X586750Y980800D02*
D03*
X561350D02*
D03*
X586750Y1057000D02*
D03*
X561350Y1031600D02*
D03*
X586750D02*
D03*
X561350Y1006200D02*
D03*
X586750D02*
D03*
X561350Y955400D02*
D03*
X586750D02*
D03*
X83000Y1031700D02*
D03*
X108400D02*
D03*
X83000Y955500D02*
D03*
X108400Y980900D02*
D03*
X83000D02*
D03*
X108400Y1006300D02*
D03*
X83000D02*
D03*
X108400Y1057100D02*
D03*
X83000D02*
D03*
D49*
X375800Y840000D02*
D03*
X376050Y804500D02*
D03*
X293150Y1045600D02*
D03*
X161150D02*
D03*
D50*
X561350Y1057000D02*
D03*
X108400Y955500D02*
D03*
D51*
X554250Y40250D02*
D03*
X519250D02*
D03*
X484250D02*
D03*
X449250D02*
D03*
X414250D02*
D03*
X379250D02*
D03*
X344250D02*
D03*
X309250D02*
D03*
X274250D02*
D03*
X239250D02*
D03*
X204250D02*
D03*
X169250D02*
D03*
X134250D02*
D03*
X99250D02*
D03*
X64250D02*
D03*
X29250D02*
D03*
D68*
X74100Y652250D02*
D03*
Y633250D02*
D03*
X51600Y642750D02*
D03*
X560750Y652250D02*
D03*
Y633250D02*
D03*
X538250Y642750D02*
D03*
X343590D02*
D03*
X366090Y633250D02*
D03*
Y652250D02*
D03*
X148930Y642750D02*
D03*
X171430Y633250D02*
D03*
Y652250D02*
D03*
X440920Y642750D02*
D03*
X463420Y633250D02*
D03*
Y652250D02*
D03*
X246260Y642750D02*
D03*
X268760Y633250D02*
D03*
Y652250D02*
D03*
D69*
X101350Y609250D02*
D03*
X80150Y618750D02*
D03*
Y599750D02*
D03*
X585100Y609250D02*
D03*
X563900Y618750D02*
D03*
Y599750D02*
D03*
X467150D02*
D03*
Y618750D02*
D03*
X488350Y609250D02*
D03*
X273650Y599750D02*
D03*
Y618750D02*
D03*
X294850Y609250D02*
D03*
X370400Y599750D02*
D03*
Y618750D02*
D03*
X391600Y609250D02*
D03*
X176900Y599750D02*
D03*
Y618750D02*
D03*
X198100Y609250D02*
D03*
D70*
X152500Y833800D02*
D03*
X133500D02*
D03*
Y808700D02*
D03*
X143000D02*
D03*
X152500D02*
D03*
X208000Y833300D02*
D03*
X189000D02*
D03*
Y808200D02*
D03*
X198500D02*
D03*
X208000D02*
D03*
X248500Y833300D02*
D03*
X229500D02*
D03*
Y808200D02*
D03*
X239000D02*
D03*
X248500D02*
D03*
X528500Y832550D02*
D03*
X509500D02*
D03*
Y807450D02*
D03*
X519000D02*
D03*
X528500D02*
D03*
X473750Y833300D02*
D03*
X454750D02*
D03*
Y808200D02*
D03*
X464250D02*
D03*
X473750D02*
D03*
X425875Y833550D02*
D03*
X406875D02*
D03*
Y808450D02*
D03*
X416375D02*
D03*
X425875D02*
D03*
D71*
X412947Y238750D02*
D03*
X380947D02*
D03*
X272932D02*
D03*
X240932D02*
D03*
X132917D02*
D03*
X100917D02*
D03*
X482955D02*
D03*
X450955D02*
D03*
X482955Y260750D02*
D03*
X450955D02*
D03*
X482955Y282750D02*
D03*
X450955D02*
D03*
X482955Y304750D02*
D03*
X450955D02*
D03*
X482955Y326750D02*
D03*
X450955D02*
D03*
X412947Y260750D02*
D03*
X380947D02*
D03*
X412947Y282750D02*
D03*
X380947D02*
D03*
X412947Y304750D02*
D03*
X380947D02*
D03*
X412947Y326750D02*
D03*
X380947D02*
D03*
X342940Y238750D02*
D03*
X310940D02*
D03*
X342940Y260750D02*
D03*
X310940D02*
D03*
X342940Y282750D02*
D03*
X310940D02*
D03*
X342940Y304750D02*
D03*
X310940D02*
D03*
X342940Y326750D02*
D03*
X310940D02*
D03*
X272932Y260750D02*
D03*
X240932D02*
D03*
X272932Y282750D02*
D03*
X240932D02*
D03*
X272932Y304750D02*
D03*
X240932D02*
D03*
X272932Y326750D02*
D03*
X240932D02*
D03*
X202925Y238750D02*
D03*
X170925D02*
D03*
X202925Y260750D02*
D03*
X170925D02*
D03*
X202925Y282750D02*
D03*
X170925D02*
D03*
X202925Y304750D02*
D03*
X170925D02*
D03*
X202925Y326750D02*
D03*
X170925D02*
D03*
X132917Y260750D02*
D03*
X100917D02*
D03*
X132917Y282750D02*
D03*
X100917D02*
D03*
X132917Y304750D02*
D03*
X100917D02*
D03*
X132917Y326750D02*
D03*
X100917D02*
D03*
M02*
