M48
;Layer_Color=9474304
;FILE_FORMAT=4:4
METRIC,LZ
;TYPE=PLATED
T1F00S00C0.3000
T2F00S00C0.8000
T3F00S00C0.9000
T4F00S00C1.0160
T5F00S00C1.4000
%
T01
X0013575Y00035
Y0004575
X00147625
Y00035
X001595
Y0004575
X0060225Y0051075
X00603Y00527
X0075125Y00548
X0083075Y0054625
X0081975Y0053075
X0083375Y00491
X0072525Y0047925
X00148Y004815
Y0049225
X00136125
Y004815
X0012425
Y0049225
X000955Y00244
Y0023325
X00083625
Y00244
X0007175
Y0023325
X0007475Y0064425
Y00655
X00062875
Y0064425
X00051
Y00655
X0016825Y0065025
Y0063975
Y0062925
Y0061875
X00203657Y00659907
X002125Y0065875
X002235
X00193907Y00669657
X00176Y00706
X002725Y0073725
X0025225Y0078425
Y00795
X00240375
Y0078425
X002285
Y00795
X0023475Y008485
Y0085925
X00246625
Y008485
X002585
Y0085925
X0031075Y0090875
X00394Y00914
Y0090325
X00405875
Y00914
X0041775
Y0090325
X00372Y009405
X0015125Y0086675
Y00856
X00139375
Y0086675
X001275
Y00856
X00311042Y0067125
X00321334
X00331626
X00341918
X0030075Y0064475
Y00633667
Y00622583
Y006115
X004245Y00568
Y0055725
X00436375
Y00568
X0044825
Y0055725
X0047925Y0066675
Y006775
X00491125
Y0066675
X00503
Y006775
X0050775Y0075425
Y00765
X00495875
Y0075425
X00484
Y00765
X006005Y0077575
X00601Y0079175
X0060075Y0082575
X00594441Y00881692
X0060575Y0089925
X006165Y0089125
X006275
X0062475Y0092125
X006105Y0094475
X0059725Y00947
X0063875Y0094875
X0068875Y0093975
X00684727Y00892023
X00707534Y00887043
X0071725Y0089825
X007255Y00892
X00738
X0074725Y0090125
X00759Y0089175
X00773Y0091425
X007625Y0085375
X0073525Y0086375
X007505Y0081175
X008115Y00807
X008305Y0081125
X00814Y0086725
X0081425Y007525
X0082Y0073
X0077775Y00743
X0072525Y007435
X00753803Y00682803
X00819Y0066825
X0083075Y0067825
X0083025Y006075
X0081475Y0060175
X007505Y005925
X0072525Y0061
X00635Y00614
Y0060325
X00623125
Y00614
X0061125
Y0060325
X00603Y0064225
X0060275Y0065875
X0060325Y00693
X0061Y0073625
Y00747
X00621875
Y0073625
X0063375
Y00747
X006025Y0056125
X0056275Y00894
X0056425Y0090375
X00573278Y00904544
X0054Y00925
X00496Y00929
X0046675Y0094175
X004535Y0099775
X0059125Y0099625
X006175Y0099575
X006525Y00960593
X0057275Y0095725
X005645Y00965
X007065Y00998
X0073625Y0099625
X004105Y009735
X003975Y0098625
X00361Y0097375
T02
X0005225Y0020975
X0010225
X0010425Y00436
X0005425
X0007275Y00834
Y00884
X00444Y006225
X00494
T03
X00093Y009354
X001184
X0077435
X0079975
Y009608
X0077435
Y009862
Y010116
Y01037
X0079975
Y010116
Y009862
X0071345Y0104075
X0068805
X0066265
X0063725
X0061185
X005773
X005519
X005265
X005011
X004757
X002781Y0103635
Y0101095
Y0098555
Y0096015
X002019
Y0098555
Y0101095
Y0103635
X001184Y01037
Y010116
X00093
Y009862
Y009608
X001184
Y009862
X00093Y01037
T04
X004449Y0035425
X004703
X0053745
X0056285
X0058825
X006554
X006808
X007062
X0077335
X0079875
X0082415
X004195
X0035235
X0032695
X0030155
X002344
X00209
X001836
T05
X0005825Y0008025
X0009325
X0024925
X0028425
X0031925
X0035425
X0038925
X0042425
X0045925
X0049425
X0052925
X0056425
X0059925
X0063425
X0066925
X0070425
X0073925
X0077425
M30
