M48
;Layer_Color=9474304
;FILE_FORMAT=4:4
METRIC,LZ
;TYPE=PLATED
T1F00S00C0.3000
T2F00S00C0.8000
T3F00S00C0.9000
T4F00S00C1.0160
T5F00S00C1.4000
%
T01
X0090575Y0045625
X00915
Y004685
X0090575
Y004815
X00915
X0079625Y0048275
X0078475
Y0046975
X0079625
Y004575
X0078475
X0067175
X0066025
Y0046975
X0067175
Y0048275
X0066025
X005475
X00536
Y0046975
X005475
Y004575
X00536
X00423
X004115
Y0046975
X00423
Y0048275
X004115
X0029875
X0028725
Y0046975
X0029875
Y004575
X0028725
X00196Y0022375
X0018125Y00223
X00165Y00237
X0015075Y0023725
X0003925Y0088925
X00054Y008995
X0007325Y008805
X00064Y0087025
X0012175Y0087
X0013225Y0088025
X001245Y0089
X001165Y00899
X002475Y00863
Y0085225
X0025975
Y00863
X0027275
Y0085225
X00252Y00722
Y0071275
X00239
Y00722
X0022675
Y0071275
X001335Y0070825
X001075Y0071425
Y00725
X000945
Y0071425
X0008225
Y00725
X0008275Y005775
Y0056675
X00095
Y005775
X00108
Y0056675
X001525Y00567
Y0057775
X0016475
Y00567
X0017775
Y0057775
X00356Y0063925
Y0065
X0036825
Y0063925
X0038125
Y0065
X0043275Y008605
Y0087125
X004125Y0092525
X00445Y0087125
Y008605
X00458
Y0087125
X0048675Y00909
X0049775Y009165
X0051125Y0092425
X0052175Y0093175
X0053975Y0094025
X0055275Y009405
X0056675Y0094075
X0058475
X0060075Y008975
X00619Y0089075
X006225Y0087375
X00635
X006475
X006095Y00866
X0063Y0081175
X00591Y008075
X0059375Y0076125
X0065575Y007505
X0063625Y006955
Y0068475
X0062325
Y006955
X00611
Y0068475
X007225Y0076125
X0078775Y007505
X00816Y00809
X007515Y0081725
X0068375Y0081525
X007155Y0086975
X00710625Y009095
X007235Y0091625
X00732595Y00924008
X00746Y00932
X0076375Y0089275
Y008835
X00776
Y0089275
X00789
Y008835
X0084075Y00876
X00531707Y00866793
X00868Y0088575
Y00895
X0088025
Y0088575
X0089325
Y00895
X0088Y00818
X0088975Y0075029
X0085075Y00761
X00889Y00982
Y0099275
X0090125
Y00982
X0091425
Y0099275
X0081375Y010195
X0079Y010535
X007645Y010355
X007115Y0102225
X00715583Y0097525
X00725917
X0073625
X0070525
X0068705Y009825
X0067305Y00989
X00646Y00976
X0061425Y0097025
Y00961
X0060125
Y0097025
X00589
Y00961
X00583Y0099825
X0059575Y010125
X0059875Y0102675
X0058625
X0061125
X00616Y0100625
X0062525Y010135
X0056125Y0103725
X0054875
X0053625
X00487Y0102175
X00491333Y00976
X00501167
X00511
X004815
X00463Y0098175
X00449Y0098825
X007885Y009735
X004215Y00974
X0038875Y01006
X00367Y0099825
X0036525Y01014
X00375Y01023
X0038425Y0105
X00336Y0104225
Y01014
X0024125Y01006
X0019125Y0097225
Y00963
X0017825
Y0097225
X00166
Y00963
T02
X0005875Y0025575
X0010875
Y00415
X0005875
X004395Y0067175
X0044025Y0078825
X0049025
X004895Y0067175
T03
X000746Y009354
X001
X0013815Y009449
X0016355
X0018895
X0021435
X00841Y009354
X008664
Y009608
Y009862
Y010116
Y01037
X00841
Y010116
Y009862
Y009608
X0073685Y0104075
X0071145
X0068605
X0066065
X0063525
X005133
X004879
X004625
X004371
X004117
X0021435Y010211
X0018895
X0016355
X0013815
X001Y010116
Y009862
Y009608
X000746
Y009862
Y010116
Y01037
X001
T04
X0085325Y0047775
X0087865
X0082785
X0075445
X0072905
X0070365
X0063025
X0060485
X0057945
X0050605
X0048065
X0045525
X0038185
X0035645
X0033105
X0025765
X0023225
X0020685
T05
X00054674Y00079174
X00089674
X0030975Y0008
X0034475
X0037975
X0041475
X0044975
X0048475
X0051975
X0055475
X0058975
X0062475
X0065975
X0069475
X0072975
X0076475
X0079975
X0083475
M30
