G04*
G04 #@! TF.GenerationSoftware,Altium Limited,Altium Designer,20.0.13 (296)*
G04*
G04 Layer_Color=8388736*
%FSLAX44Y44*%
%MOMM*%
G71*
G01*
G75*
%ADD58R,1.0200X0.8200*%
%ADD59R,0.8200X1.0200*%
G04:AMPARAMS|DCode=60|XSize=2.5332mm|YSize=1.7532mm|CornerRadius=0.4891mm|HoleSize=0mm|Usage=FLASHONLY|Rotation=270.000|XOffset=0mm|YOffset=0mm|HoleType=Round|Shape=RoundedRectangle|*
%AMROUNDEDRECTD60*
21,1,2.5332,0.7750,0,0,270.0*
21,1,1.5550,1.7532,0,0,270.0*
1,1,0.9782,-0.3875,-0.7775*
1,1,0.9782,-0.3875,0.7775*
1,1,0.9782,0.3875,0.7775*
1,1,0.9782,0.3875,-0.7775*
%
%ADD60ROUNDEDRECTD60*%
G04:AMPARAMS|DCode=61|XSize=0.4832mm|YSize=0.8932mm|CornerRadius=0.1716mm|HoleSize=0mm|Usage=FLASHONLY|Rotation=270.000|XOffset=0mm|YOffset=0mm|HoleType=Round|Shape=RoundedRectangle|*
%AMROUNDEDRECTD61*
21,1,0.4832,0.5500,0,0,270.0*
21,1,0.1400,0.8932,0,0,270.0*
1,1,0.3432,-0.2750,-0.0700*
1,1,0.3432,-0.2750,0.0700*
1,1,0.3432,0.2750,0.0700*
1,1,0.3432,0.2750,-0.0700*
%
%ADD61ROUNDEDRECTD61*%
G04:AMPARAMS|DCode=62|XSize=0.4832mm|YSize=0.8932mm|CornerRadius=0.1716mm|HoleSize=0mm|Usage=FLASHONLY|Rotation=0.000|XOffset=0mm|YOffset=0mm|HoleType=Round|Shape=RoundedRectangle|*
%AMROUNDEDRECTD62*
21,1,0.4832,0.5500,0,0,0.0*
21,1,0.1400,0.8932,0,0,0.0*
1,1,0.3432,0.0700,-0.2750*
1,1,0.3432,-0.0700,-0.2750*
1,1,0.3432,-0.0700,0.2750*
1,1,0.3432,0.0700,0.2750*
%
%ADD62ROUNDEDRECTD62*%
%ADD63R,2.4892X2.4892*%
%ADD64R,1.2200X0.9200*%
G04:AMPARAMS|DCode=65|XSize=1.7632mm|YSize=0.4832mm|CornerRadius=0.1366mm|HoleSize=0mm|Usage=FLASHONLY|Rotation=270.000|XOffset=0mm|YOffset=0mm|HoleType=Round|Shape=RoundedRectangle|*
%AMROUNDEDRECTD65*
21,1,1.7632,0.2100,0,0,270.0*
21,1,1.4900,0.4832,0,0,270.0*
1,1,0.2732,-0.1050,-0.7450*
1,1,0.2732,-0.1050,0.7450*
1,1,0.2732,0.1050,0.7450*
1,1,0.2732,0.1050,-0.7450*
%
%ADD65ROUNDEDRECTD65*%
G04:AMPARAMS|DCode=66|XSize=1.7632mm|YSize=0.4832mm|CornerRadius=0.1366mm|HoleSize=0mm|Usage=FLASHONLY|Rotation=0.000|XOffset=0mm|YOffset=0mm|HoleType=Round|Shape=RoundedRectangle|*
%AMROUNDEDRECTD66*
21,1,1.7632,0.2100,0,0,0.0*
21,1,1.4900,0.4832,0,0,0.0*
1,1,0.2732,0.7450,-0.1050*
1,1,0.2732,-0.7450,-0.1050*
1,1,0.2732,-0.7450,0.1050*
1,1,0.2732,0.7450,0.1050*
%
%ADD66ROUNDEDRECTD66*%
%ADD67R,3.6200X2.2700*%
%ADD68R,1.9200X1.4700*%
%ADD69R,1.2200X1.3700*%
%ADD70R,0.7032X0.8032*%
%ADD71R,2.3200X0.7200*%
%ADD72R,4.3200X0.7200*%
%ADD73R,1.2032X1.0032*%
%ADD74R,1.0032X1.2032*%
%ADD75R,1.8032X1.8032*%
%ADD76R,2.5200X1.6200*%
%ADD77R,0.8432X2.1082*%
%ADD78R,1.5200X1.2200*%
%ADD79R,0.8032X2.2632*%
%ADD80R,0.7200X2.3200*%
%ADD81R,0.7200X4.3200*%
%ADD82R,1.1700X3.3200*%
%ADD83R,10.5700X8.4200*%
%ADD84R,3.4532X2.3532*%
%ADD85R,1.1532X2.3532*%
%ADD86R,2.9972X4.0132*%
%ADD87R,1.5032X1.3032*%
%ADD88R,1.2032X1.6032*%
%ADD89R,1.6200X2.5200*%
%ADD90R,1.3700X1.2200*%
%ADD91R,4.2032X7.2032*%
%ADD92R,1.6032X1.2032*%
%ADD93O,2.1336X4.0640*%
%ADD94R,1.7032X1.7032*%
%ADD95C,1.7032*%
%ADD96C,1.7200*%
%ADD97R,1.7200X1.7200*%
%ADD98C,1.8032*%
%ADD99R,1.6012X1.6012*%
%ADD100C,3.4532*%
%ADD101C,1.6012*%
%ADD102C,1.5200*%
%ADD103R,1.5200X1.5200*%
%ADD104R,1.5200X1.5200*%
G36*
X473250Y386750D02*
Y398750D01*
X500250D01*
Y386750D01*
X511250D01*
Y371750D01*
X500250D01*
Y352750D01*
X473250D01*
Y371750D01*
X462250D01*
Y386750D01*
X473250D01*
D02*
G37*
G36*
Y462750D02*
Y481750D01*
X500250D01*
Y462750D01*
X511250D01*
Y447750D01*
X500250D01*
Y435750D01*
X473250D01*
Y447750D01*
X462250D01*
Y462750D01*
X473250D01*
D02*
G37*
G36*
X475500Y680250D02*
X456500D01*
Y707250D01*
X475500D01*
Y718250D01*
X490500D01*
Y707250D01*
X502500D01*
Y680250D01*
X490500D01*
Y669250D01*
X475500D01*
Y680250D01*
D02*
G37*
G36*
X551500D02*
X539500D01*
Y707250D01*
X551500D01*
Y718250D01*
X566500D01*
Y707250D01*
X585500D01*
Y680250D01*
X566500D01*
Y669250D01*
X551500D01*
Y680250D01*
D02*
G37*
D58*
X402250Y749000D02*
D03*
Y733000D02*
D03*
X357000Y749500D02*
D03*
Y733500D02*
D03*
X641250Y808500D02*
D03*
Y824500D02*
D03*
X657322Y808500D02*
D03*
Y824500D02*
D03*
X434500Y543750D02*
D03*
Y527750D02*
D03*
X418250Y543750D02*
D03*
Y527750D02*
D03*
X368000Y543750D02*
D03*
Y527750D02*
D03*
X351500Y543750D02*
D03*
Y527750D02*
D03*
X623250Y809000D02*
D03*
Y825000D02*
D03*
X45500Y716500D02*
D03*
Y700500D02*
D03*
X54750Y817750D02*
D03*
Y833750D02*
D03*
X89000Y717000D02*
D03*
Y701000D02*
D03*
X606250Y825250D02*
D03*
Y809250D02*
D03*
X373250Y821950D02*
D03*
Y837950D02*
D03*
X163000Y745500D02*
D03*
Y729500D02*
D03*
X389500Y867700D02*
D03*
Y851700D02*
D03*
X389500Y821950D02*
D03*
Y837950D02*
D03*
X373250Y867700D02*
D03*
Y851700D02*
D03*
X88498Y106500D02*
D03*
Y90500D02*
D03*
X56747Y106500D02*
D03*
Y90500D02*
D03*
X23498Y106500D02*
D03*
Y90500D02*
D03*
X178750Y660750D02*
D03*
Y644750D02*
D03*
X149000Y660250D02*
D03*
Y644250D02*
D03*
X61500Y701000D02*
D03*
Y717000D02*
D03*
X163000Y701250D02*
D03*
Y717250D02*
D03*
Y804250D02*
D03*
Y788250D02*
D03*
Y760000D02*
D03*
Y776000D02*
D03*
D59*
X339250Y691000D02*
D03*
X323250D02*
D03*
X399500Y568250D02*
D03*
X383500D02*
D03*
X420000Y114750D02*
D03*
X404000D02*
D03*
X420000Y140500D02*
D03*
X404000D02*
D03*
X278000Y141500D02*
D03*
X262000D02*
D03*
X277750Y126500D02*
D03*
X261750D02*
D03*
X384250Y691250D02*
D03*
X368250D02*
D03*
X61750Y766000D02*
D03*
X45750D02*
D03*
X117000Y838250D02*
D03*
X133000D02*
D03*
X224500Y725500D02*
D03*
X208500D02*
D03*
X194500Y808250D02*
D03*
X178500D02*
D03*
X224500Y709500D02*
D03*
X208500D02*
D03*
X246250Y578250D02*
D03*
X230250D02*
D03*
X266000Y523750D02*
D03*
X250000D02*
D03*
X46000Y781500D02*
D03*
X62000D02*
D03*
X611750Y148502D02*
D03*
X595750D02*
D03*
D60*
X524500Y70150D02*
D03*
Y112850D02*
D03*
D61*
X129750Y767750D02*
D03*
Y772750D02*
D03*
Y792750D02*
D03*
Y787750D02*
D03*
Y777750D02*
D03*
Y782750D02*
D03*
X91850D02*
D03*
Y777750D02*
D03*
Y787750D02*
D03*
Y792750D02*
D03*
Y772750D02*
D03*
Y767750D02*
D03*
D62*
X123300Y761300D02*
D03*
X118300D02*
D03*
X98300D02*
D03*
X103300D02*
D03*
X113300D02*
D03*
X108300D02*
D03*
X123300Y799200D02*
D03*
X118300D02*
D03*
X98300D02*
D03*
X103300D02*
D03*
X113300D02*
D03*
X108300D02*
D03*
D63*
X110800Y780250D02*
D03*
D64*
X220750Y132000D02*
D03*
X198250Y122500D02*
D03*
Y141500D02*
D03*
D65*
X206250Y403700D02*
D03*
X201250D02*
D03*
X196250D02*
D03*
X191250D02*
D03*
X186250D02*
D03*
X181250D02*
D03*
X176250D02*
D03*
X171250D02*
D03*
X166250D02*
D03*
X161250D02*
D03*
X156250D02*
D03*
X151250D02*
D03*
X146250D02*
D03*
X141250D02*
D03*
X136250D02*
D03*
X131250D02*
D03*
X126250D02*
D03*
X121250D02*
D03*
X116250D02*
D03*
X111250D02*
D03*
X106250D02*
D03*
X101250D02*
D03*
X96250D02*
D03*
X91250D02*
D03*
X86250D02*
D03*
Y557300D02*
D03*
X91250D02*
D03*
X96250D02*
D03*
X101250D02*
D03*
X106250D02*
D03*
X111250D02*
D03*
X116250D02*
D03*
X121250D02*
D03*
X126250D02*
D03*
X131250D02*
D03*
X136250D02*
D03*
X141250D02*
D03*
X146250D02*
D03*
X151250D02*
D03*
X156250D02*
D03*
X161250D02*
D03*
X166250D02*
D03*
X171250D02*
D03*
X176250D02*
D03*
X181250D02*
D03*
X186250D02*
D03*
X191250D02*
D03*
X196250D02*
D03*
X201250D02*
D03*
X206250D02*
D03*
D66*
X223050Y540500D02*
D03*
Y535500D02*
D03*
Y530500D02*
D03*
Y525500D02*
D03*
Y520500D02*
D03*
Y515500D02*
D03*
Y510500D02*
D03*
Y505500D02*
D03*
Y500500D02*
D03*
Y495500D02*
D03*
Y490500D02*
D03*
Y485500D02*
D03*
Y480500D02*
D03*
Y475500D02*
D03*
Y470500D02*
D03*
Y465500D02*
D03*
Y460500D02*
D03*
Y455500D02*
D03*
Y450500D02*
D03*
Y445500D02*
D03*
Y440500D02*
D03*
Y435500D02*
D03*
Y430500D02*
D03*
Y425500D02*
D03*
Y420500D02*
D03*
X69450D02*
D03*
Y425500D02*
D03*
Y430500D02*
D03*
Y435500D02*
D03*
Y440500D02*
D03*
Y445500D02*
D03*
Y450500D02*
D03*
Y455500D02*
D03*
Y460500D02*
D03*
Y465500D02*
D03*
Y470500D02*
D03*
Y475500D02*
D03*
Y480500D02*
D03*
Y485500D02*
D03*
Y490500D02*
D03*
Y495500D02*
D03*
Y500500D02*
D03*
Y505500D02*
D03*
Y510500D02*
D03*
Y515500D02*
D03*
Y520500D02*
D03*
Y525500D02*
D03*
Y530500D02*
D03*
Y535500D02*
D03*
Y540500D02*
D03*
D67*
X317750Y203750D02*
D03*
Y238750D02*
D03*
X490500Y827250D02*
D03*
Y792250D02*
D03*
D68*
X680500Y857000D02*
D03*
Y827500D02*
D03*
D69*
X382748Y709750D02*
D03*
Y732750D02*
D03*
X339250D02*
D03*
Y709750D02*
D03*
X22750Y66750D02*
D03*
Y43750D02*
D03*
X56000Y66750D02*
D03*
Y43750D02*
D03*
X89250Y66750D02*
D03*
Y43750D02*
D03*
D70*
X533000Y1042000D02*
D03*
X523000D02*
D03*
X477500D02*
D03*
X467500D02*
D03*
X422000D02*
D03*
X412000D02*
D03*
X560750D02*
D03*
X550750D02*
D03*
X505250D02*
D03*
X495250D02*
D03*
X449750D02*
D03*
X439750D02*
D03*
X394250D02*
D03*
X384250D02*
D03*
X366500D02*
D03*
X356500D02*
D03*
D71*
X377750Y115550D02*
D03*
Y128250D02*
D03*
Y140950D02*
D03*
Y153650D02*
D03*
D72*
X319750Y115550D02*
D03*
Y128250D02*
D03*
Y140950D02*
D03*
Y153650D02*
D03*
D73*
X286500Y211500D02*
D03*
Y227500D02*
D03*
X681750Y401250D02*
D03*
Y385250D02*
D03*
X203250Y791250D02*
D03*
Y775250D02*
D03*
X285000Y328750D02*
D03*
Y312750D02*
D03*
X681750Y420749D02*
D03*
Y436750D02*
D03*
X229000Y629250D02*
D03*
Y613250D02*
D03*
X197250Y627250D02*
D03*
Y611250D02*
D03*
X341500Y438500D02*
D03*
Y454500D02*
D03*
X245750Y390250D02*
D03*
Y374250D02*
D03*
X67000Y598500D02*
D03*
Y614500D02*
D03*
X108000Y623000D02*
D03*
Y607000D02*
D03*
X91000Y622750D02*
D03*
Y606750D02*
D03*
X149500Y845000D02*
D03*
Y829000D02*
D03*
D74*
X382682Y89318D02*
D03*
X398682D02*
D03*
X121575Y707675D02*
D03*
X137575D02*
D03*
X26750Y798500D02*
D03*
X42750D02*
D03*
X387500Y793250D02*
D03*
X371500D02*
D03*
X19000Y818000D02*
D03*
X35000D02*
D03*
X249250Y540500D02*
D03*
X265250D02*
D03*
X59000Y379500D02*
D03*
X43000D02*
D03*
X60750Y749750D02*
D03*
X44750D02*
D03*
D75*
X429750Y860950D02*
D03*
Y828950D02*
D03*
X392750Y376850D02*
D03*
D76*
X116250Y680500D02*
D03*
Y651500D02*
D03*
D77*
X325200Y866325D02*
D03*
X312500D02*
D03*
X299800D02*
D03*
X287100D02*
D03*
X274400D02*
D03*
X261700D02*
D03*
X249000D02*
D03*
X236300D02*
D03*
X325200Y778670D02*
D03*
X312500D02*
D03*
X299800D02*
D03*
X287100D02*
D03*
X274400D02*
D03*
X261700Y778675D02*
D03*
X249000D02*
D03*
X236300D02*
D03*
D78*
X443250Y58500D02*
D03*
Y39500D02*
D03*
D79*
X263950Y310650D02*
D03*
X251250D02*
D03*
X238550D02*
D03*
X225850D02*
D03*
X213150D02*
D03*
X200450D02*
D03*
X187750D02*
D03*
X175050D02*
D03*
Y217850D02*
D03*
X187750D02*
D03*
X200450D02*
D03*
X213150D02*
D03*
X225850D02*
D03*
X238550D02*
D03*
X251250D02*
D03*
X263950D02*
D03*
D80*
X318800Y480750D02*
D03*
X306100D02*
D03*
X293400D02*
D03*
X280700D02*
D03*
D81*
X318800Y422750D02*
D03*
X306100D02*
D03*
X293400D02*
D03*
X280700D02*
D03*
D82*
X643500Y400750D02*
D03*
X626500D02*
D03*
X609500D02*
D03*
X592500D02*
D03*
X575500D02*
D03*
D83*
X609500Y306250D02*
D03*
D84*
X552250Y829000D02*
D03*
D85*
X575250Y771000D02*
D03*
X552250D02*
D03*
X529250D02*
D03*
D86*
X640435Y460750D02*
D03*
X569065D02*
D03*
D87*
X151250Y626000D02*
D03*
X174250D02*
D03*
Y608000D02*
D03*
X151250D02*
D03*
X75000Y837000D02*
D03*
X98000D02*
D03*
Y819000D02*
D03*
X75000D02*
D03*
D88*
X220500Y379000D02*
D03*
X200500D02*
D03*
D89*
X200500Y840750D02*
D03*
X171500D02*
D03*
D90*
X655250Y149250D02*
D03*
X632250D02*
D03*
D91*
X655000Y566000D02*
D03*
X555000D02*
D03*
D92*
X42000Y403750D02*
D03*
Y423750D02*
D03*
D93*
X610250Y65370D02*
D03*
X645250D02*
D03*
X202000Y65735D02*
D03*
X237000D02*
D03*
X272000D02*
D03*
D94*
X100000Y935400D02*
D03*
X613500Y1037000D02*
D03*
X298750Y675300D02*
D03*
X362200Y947400D02*
D03*
X478400D02*
D03*
D95*
X74600Y935400D02*
D03*
X100000Y960800D02*
D03*
X74600D02*
D03*
X100000Y986200D02*
D03*
X74600D02*
D03*
X100000Y1011600D02*
D03*
X74600D02*
D03*
Y1037000D02*
D03*
X100000D02*
D03*
X638900Y935400D02*
D03*
X613500D02*
D03*
X638900Y986200D02*
D03*
X613500D02*
D03*
X638900Y1011600D02*
D03*
X613500D02*
D03*
X638900Y1037000D02*
D03*
X613500Y960800D02*
D03*
X638900D02*
D03*
X298750Y573700D02*
D03*
Y599100D02*
D03*
Y624500D02*
D03*
Y649900D02*
D03*
X387600Y947400D02*
D03*
X413000D02*
D03*
X438400D02*
D03*
X362200Y1023600D02*
D03*
X387600D02*
D03*
X413000D02*
D03*
X438400D02*
D03*
X503800Y947400D02*
D03*
X529200D02*
D03*
X554600D02*
D03*
X478400Y1023600D02*
D03*
X503800D02*
D03*
X529200D02*
D03*
X554600D02*
D03*
D96*
X377250Y598000D02*
D03*
X351850D02*
D03*
X377250Y648500D02*
D03*
X351850D02*
D03*
X93750Y314250D02*
D03*
X68350D02*
D03*
X381850Y46250D02*
D03*
X356450D02*
D03*
D97*
X402650Y598000D02*
D03*
Y648500D02*
D03*
X119150Y314250D02*
D03*
X407250Y46250D02*
D03*
D98*
X392750Y224450D02*
D03*
Y249850D02*
D03*
Y275250D02*
D03*
Y300650D02*
D03*
Y351450D02*
D03*
D99*
X285700Y940250D02*
D03*
D100*
X298400Y1003750D02*
D03*
X184100D02*
D03*
D101*
X273000Y914850D02*
D03*
X260300Y940250D02*
D03*
X247600Y914850D02*
D03*
X234900Y940250D02*
D03*
X222200Y914850D02*
D03*
X209500Y940250D02*
D03*
X196800Y914850D02*
D03*
D102*
X462000Y297250D02*
D03*
X643000Y670000D02*
D03*
D103*
X512000Y297250D02*
D03*
D104*
X643000Y720000D02*
D03*
M02*
