G04*
G04 #@! TF.GenerationSoftware,Altium Limited,Altium Designer,20.0.13 (296)*
G04*
G04 Layer_Color=8421504*
%FSLAX44Y44*%
%MOMM*%
G71*
G01*
G75*
%ADD23R,0.9000X0.7000*%
%ADD24R,0.7000X0.9000*%
G04:AMPARAMS|DCode=25|XSize=2.33mm|YSize=1.55mm|CornerRadius=0.3875mm|HoleSize=0mm|Usage=FLASHONLY|Rotation=270.000|XOffset=0mm|YOffset=0mm|HoleType=Round|Shape=RoundedRectangle|*
%AMROUNDEDRECTD25*
21,1,2.3300,0.7750,0,0,270.0*
21,1,1.5550,1.5500,0,0,270.0*
1,1,0.7750,-0.3875,-0.7775*
1,1,0.7750,-0.3875,0.7775*
1,1,0.7750,0.3875,0.7775*
1,1,0.7750,0.3875,-0.7775*
%
%ADD25ROUNDEDRECTD25*%
G04:AMPARAMS|DCode=26|XSize=0.28mm|YSize=0.69mm|CornerRadius=0.07mm|HoleSize=0mm|Usage=FLASHONLY|Rotation=270.000|XOffset=0mm|YOffset=0mm|HoleType=Round|Shape=RoundedRectangle|*
%AMROUNDEDRECTD26*
21,1,0.2800,0.5500,0,0,270.0*
21,1,0.1400,0.6900,0,0,270.0*
1,1,0.1400,-0.2750,-0.0700*
1,1,0.1400,-0.2750,0.0700*
1,1,0.1400,0.2750,0.0700*
1,1,0.1400,0.2750,-0.0700*
%
%ADD26ROUNDEDRECTD26*%
G04:AMPARAMS|DCode=27|XSize=0.28mm|YSize=0.69mm|CornerRadius=0.07mm|HoleSize=0mm|Usage=FLASHONLY|Rotation=0.000|XOffset=0mm|YOffset=0mm|HoleType=Round|Shape=RoundedRectangle|*
%AMROUNDEDRECTD27*
21,1,0.2800,0.5500,0,0,0.0*
21,1,0.1400,0.6900,0,0,0.0*
1,1,0.1400,0.0700,-0.2750*
1,1,0.1400,-0.0700,-0.2750*
1,1,0.1400,-0.0700,0.2750*
1,1,0.1400,0.0700,0.2750*
%
%ADD27ROUNDEDRECTD27*%
%ADD28R,2.2860X2.2860*%
%ADD29R,1.1000X0.8000*%
G04:AMPARAMS|DCode=30|XSize=1.56mm|YSize=0.28mm|CornerRadius=0.035mm|HoleSize=0mm|Usage=FLASHONLY|Rotation=270.000|XOffset=0mm|YOffset=0mm|HoleType=Round|Shape=RoundedRectangle|*
%AMROUNDEDRECTD30*
21,1,1.5600,0.2100,0,0,270.0*
21,1,1.4900,0.2800,0,0,270.0*
1,1,0.0700,-0.1050,-0.7450*
1,1,0.0700,-0.1050,0.7450*
1,1,0.0700,0.1050,0.7450*
1,1,0.0700,0.1050,-0.7450*
%
%ADD30ROUNDEDRECTD30*%
G04:AMPARAMS|DCode=31|XSize=1.56mm|YSize=0.28mm|CornerRadius=0.035mm|HoleSize=0mm|Usage=FLASHONLY|Rotation=0.000|XOffset=0mm|YOffset=0mm|HoleType=Round|Shape=RoundedRectangle|*
%AMROUNDEDRECTD31*
21,1,1.5600,0.2100,0,0,0.0*
21,1,1.4900,0.2800,0,0,0.0*
1,1,0.0700,0.7450,-0.1050*
1,1,0.0700,-0.7450,-0.1050*
1,1,0.0700,-0.7450,0.1050*
1,1,0.0700,0.7450,0.1050*
%
%ADD31ROUNDEDRECTD31*%
%ADD32R,3.5000X2.1500*%
%ADD33R,1.8000X1.3500*%
%ADD34R,1.1000X1.2500*%
%ADD35R,0.5000X0.6000*%
%ADD36R,2.2000X0.6000*%
%ADD37R,4.2000X0.6000*%
%ADD38R,1.0000X0.8000*%
%ADD39R,0.8000X1.0000*%
%ADD40R,1.6000X1.6000*%
%ADD41R,2.4000X1.5000*%
%ADD42R,0.6400X1.9050*%
%ADD43R,1.4000X1.1000*%
%ADD44R,0.6000X2.0600*%
%ADD45R,0.6000X2.2000*%
%ADD46R,0.6000X4.2000*%
%ADD47R,1.0500X3.2000*%
%ADD48R,10.4500X8.3000*%
%ADD49R,3.2500X2.1500*%
%ADD50R,0.9500X2.1500*%
%ADD51R,2.7940X3.8100*%
%ADD52R,1.3000X1.1000*%
%ADD53R,1.0000X1.4000*%
%ADD54R,1.5000X2.4000*%
%ADD55R,1.2500X1.1000*%
%ADD56R,4.0000X7.0000*%
%ADD57R,1.4000X1.0000*%
G36*
X474250Y385750D02*
Y397750D01*
X499250D01*
Y385750D01*
X510250D01*
Y372750D01*
X499250D01*
Y353750D01*
X474250D01*
Y372750D01*
X463250D01*
Y385750D01*
X474250D01*
D02*
G37*
G36*
Y461750D02*
Y480750D01*
X499250D01*
Y461750D01*
X510250D01*
Y448750D01*
X499250D01*
Y436750D01*
X474250D01*
Y448750D01*
X463250D01*
Y461750D01*
X474250D01*
D02*
G37*
G36*
X476500Y681250D02*
X457500D01*
Y706250D01*
X476500D01*
Y717250D01*
X489500D01*
Y706250D01*
X501500D01*
Y681250D01*
X489500D01*
Y670250D01*
X476500D01*
Y681250D01*
D02*
G37*
G36*
X552500D02*
X540500D01*
Y706250D01*
X552500D01*
Y717250D01*
X565500D01*
Y706250D01*
X584500D01*
Y681250D01*
X565500D01*
Y670250D01*
X552500D01*
Y681250D01*
D02*
G37*
D23*
X402250Y749000D02*
D03*
Y733000D02*
D03*
X357000Y749500D02*
D03*
Y733500D02*
D03*
X641250Y808500D02*
D03*
Y824500D02*
D03*
X657322Y808500D02*
D03*
Y824500D02*
D03*
X434500Y543750D02*
D03*
Y527750D02*
D03*
X418250Y543750D02*
D03*
Y527750D02*
D03*
X368000Y543750D02*
D03*
Y527750D02*
D03*
X351500Y543750D02*
D03*
Y527750D02*
D03*
X623250Y809000D02*
D03*
Y825000D02*
D03*
X45500Y716500D02*
D03*
Y700500D02*
D03*
X54750Y817750D02*
D03*
Y833750D02*
D03*
X89000Y717000D02*
D03*
Y701000D02*
D03*
X606250Y825250D02*
D03*
Y809250D02*
D03*
X373250Y821950D02*
D03*
Y837950D02*
D03*
X163000Y745500D02*
D03*
Y729500D02*
D03*
X389500Y867700D02*
D03*
Y851700D02*
D03*
X389500Y821950D02*
D03*
Y837950D02*
D03*
X373250Y867700D02*
D03*
Y851700D02*
D03*
X88498Y106500D02*
D03*
Y90500D02*
D03*
X56747Y106500D02*
D03*
Y90500D02*
D03*
X23498Y106500D02*
D03*
Y90500D02*
D03*
X178750Y660750D02*
D03*
Y644750D02*
D03*
X149000Y660250D02*
D03*
Y644250D02*
D03*
X61500Y701000D02*
D03*
Y717000D02*
D03*
X163000Y701250D02*
D03*
Y717250D02*
D03*
Y804250D02*
D03*
Y788250D02*
D03*
Y760000D02*
D03*
Y776000D02*
D03*
D24*
X339250Y691000D02*
D03*
X323250D02*
D03*
X399500Y568250D02*
D03*
X383500D02*
D03*
X420000Y114750D02*
D03*
X404000D02*
D03*
X420000Y140500D02*
D03*
X404000D02*
D03*
X278000Y141500D02*
D03*
X262000D02*
D03*
X277750Y126500D02*
D03*
X261750D02*
D03*
X384250Y691250D02*
D03*
X368250D02*
D03*
X61750Y766000D02*
D03*
X45750D02*
D03*
X117000Y838250D02*
D03*
X133000D02*
D03*
X224500Y725500D02*
D03*
X208500D02*
D03*
X194500Y808250D02*
D03*
X178500D02*
D03*
X224500Y709500D02*
D03*
X208500D02*
D03*
X246250Y578250D02*
D03*
X230250D02*
D03*
X266000Y523750D02*
D03*
X250000D02*
D03*
X46000Y781500D02*
D03*
X62000D02*
D03*
X611750Y148502D02*
D03*
X595750D02*
D03*
D25*
X524500Y70150D02*
D03*
Y112850D02*
D03*
D26*
X129750Y767750D02*
D03*
Y772750D02*
D03*
Y792750D02*
D03*
Y787750D02*
D03*
Y777750D02*
D03*
Y782750D02*
D03*
X91850D02*
D03*
Y777750D02*
D03*
Y787750D02*
D03*
Y792750D02*
D03*
Y772750D02*
D03*
Y767750D02*
D03*
D27*
X123300Y761300D02*
D03*
X118300D02*
D03*
X98300D02*
D03*
X103300D02*
D03*
X113300D02*
D03*
X108300D02*
D03*
X123300Y799200D02*
D03*
X118300D02*
D03*
X98300D02*
D03*
X103300D02*
D03*
X113300D02*
D03*
X108300D02*
D03*
D28*
X110800Y780250D02*
D03*
D29*
X220750Y132000D02*
D03*
X198250Y122500D02*
D03*
Y141500D02*
D03*
D30*
X206250Y403700D02*
D03*
X201250D02*
D03*
X196250D02*
D03*
X191250D02*
D03*
X186250D02*
D03*
X181250D02*
D03*
X176250D02*
D03*
X171250D02*
D03*
X166250D02*
D03*
X161250D02*
D03*
X156250D02*
D03*
X151250D02*
D03*
X146250D02*
D03*
X141250D02*
D03*
X136250D02*
D03*
X131250D02*
D03*
X126250D02*
D03*
X121250D02*
D03*
X116250D02*
D03*
X111250D02*
D03*
X106250D02*
D03*
X101250D02*
D03*
X96250D02*
D03*
X91250D02*
D03*
X86250D02*
D03*
Y557300D02*
D03*
X91250D02*
D03*
X96250D02*
D03*
X101250D02*
D03*
X106250D02*
D03*
X111250D02*
D03*
X116250D02*
D03*
X121250D02*
D03*
X126250D02*
D03*
X131250D02*
D03*
X136250D02*
D03*
X141250D02*
D03*
X146250D02*
D03*
X151250D02*
D03*
X156250D02*
D03*
X161250D02*
D03*
X166250D02*
D03*
X171250D02*
D03*
X176250D02*
D03*
X181250D02*
D03*
X186250D02*
D03*
X191250D02*
D03*
X196250D02*
D03*
X201250D02*
D03*
X206250D02*
D03*
D31*
X223050Y540500D02*
D03*
Y535500D02*
D03*
Y530500D02*
D03*
Y525500D02*
D03*
Y520500D02*
D03*
Y515500D02*
D03*
Y510500D02*
D03*
Y505500D02*
D03*
Y500500D02*
D03*
Y495500D02*
D03*
Y490500D02*
D03*
Y485500D02*
D03*
Y480500D02*
D03*
Y475500D02*
D03*
Y470500D02*
D03*
Y465500D02*
D03*
Y460500D02*
D03*
Y455500D02*
D03*
Y450500D02*
D03*
Y445500D02*
D03*
Y440500D02*
D03*
Y435500D02*
D03*
Y430500D02*
D03*
Y425500D02*
D03*
Y420500D02*
D03*
X69450D02*
D03*
Y425500D02*
D03*
Y430500D02*
D03*
Y435500D02*
D03*
Y440500D02*
D03*
Y445500D02*
D03*
Y450500D02*
D03*
Y455500D02*
D03*
Y460500D02*
D03*
Y465500D02*
D03*
Y470500D02*
D03*
Y475500D02*
D03*
Y480500D02*
D03*
Y485500D02*
D03*
Y490500D02*
D03*
Y495500D02*
D03*
Y500500D02*
D03*
Y505500D02*
D03*
Y510500D02*
D03*
Y515500D02*
D03*
Y520500D02*
D03*
Y525500D02*
D03*
Y530500D02*
D03*
Y535500D02*
D03*
Y540500D02*
D03*
D32*
X317750Y203750D02*
D03*
Y238750D02*
D03*
X490500Y827250D02*
D03*
Y792250D02*
D03*
D33*
X680500Y857000D02*
D03*
Y827500D02*
D03*
D34*
X382748Y709750D02*
D03*
Y732750D02*
D03*
X339250D02*
D03*
Y709750D02*
D03*
X22750Y66750D02*
D03*
Y43750D02*
D03*
X56000Y66750D02*
D03*
Y43750D02*
D03*
X89250Y66750D02*
D03*
Y43750D02*
D03*
D35*
X533000Y1042000D02*
D03*
X523000D02*
D03*
X477500D02*
D03*
X467500D02*
D03*
X422000D02*
D03*
X412000D02*
D03*
X560750D02*
D03*
X550750D02*
D03*
X505250D02*
D03*
X495250D02*
D03*
X449750D02*
D03*
X439750D02*
D03*
X394250D02*
D03*
X384250D02*
D03*
X366500D02*
D03*
X356500D02*
D03*
D36*
X377750Y115550D02*
D03*
Y128250D02*
D03*
Y140950D02*
D03*
Y153650D02*
D03*
D37*
X319750Y115550D02*
D03*
Y128250D02*
D03*
Y140950D02*
D03*
Y153650D02*
D03*
D38*
X286500Y211500D02*
D03*
Y227500D02*
D03*
X681750Y401250D02*
D03*
Y385250D02*
D03*
X203250Y791250D02*
D03*
Y775250D02*
D03*
X285000Y328750D02*
D03*
Y312750D02*
D03*
X681750Y420749D02*
D03*
Y436750D02*
D03*
X229000Y629250D02*
D03*
Y613250D02*
D03*
X197250Y627250D02*
D03*
Y611250D02*
D03*
X341500Y438500D02*
D03*
Y454500D02*
D03*
X245750Y390250D02*
D03*
Y374250D02*
D03*
X67000Y598500D02*
D03*
Y614500D02*
D03*
X108000Y623000D02*
D03*
Y607000D02*
D03*
X91000Y622750D02*
D03*
Y606750D02*
D03*
X149500Y845000D02*
D03*
Y829000D02*
D03*
D39*
X382682Y89318D02*
D03*
X398682D02*
D03*
X121575Y707675D02*
D03*
X137575D02*
D03*
X26750Y798500D02*
D03*
X42750D02*
D03*
X387500Y793250D02*
D03*
X371500D02*
D03*
X19000Y818000D02*
D03*
X35000D02*
D03*
X249250Y540500D02*
D03*
X265250D02*
D03*
X59000Y379500D02*
D03*
X43000D02*
D03*
X60750Y749750D02*
D03*
X44750D02*
D03*
D40*
X429750Y860950D02*
D03*
Y828950D02*
D03*
D41*
X116250Y680500D02*
D03*
Y651500D02*
D03*
D42*
X325200Y866325D02*
D03*
X312500D02*
D03*
X299800D02*
D03*
X287100D02*
D03*
X274400D02*
D03*
X261700D02*
D03*
X249000D02*
D03*
X236300D02*
D03*
X325200Y778670D02*
D03*
X312500D02*
D03*
X299800D02*
D03*
X287100D02*
D03*
X274400D02*
D03*
X261700Y778675D02*
D03*
X249000D02*
D03*
X236300D02*
D03*
D43*
X443250Y58500D02*
D03*
Y39500D02*
D03*
D44*
X263950Y310650D02*
D03*
X251250D02*
D03*
X238550D02*
D03*
X225850D02*
D03*
X213150D02*
D03*
X200450D02*
D03*
X187750D02*
D03*
X175050D02*
D03*
Y217850D02*
D03*
X187750D02*
D03*
X200450D02*
D03*
X213150D02*
D03*
X225850D02*
D03*
X238550D02*
D03*
X251250D02*
D03*
X263950D02*
D03*
D45*
X318800Y480750D02*
D03*
X306100D02*
D03*
X293400D02*
D03*
X280700D02*
D03*
D46*
X318800Y422750D02*
D03*
X306100D02*
D03*
X293400D02*
D03*
X280700D02*
D03*
D47*
X643500Y400750D02*
D03*
X626500D02*
D03*
X609500D02*
D03*
X592500D02*
D03*
X575500D02*
D03*
D48*
X609500Y306250D02*
D03*
D49*
X552250Y829000D02*
D03*
D50*
X575250Y771000D02*
D03*
X552250D02*
D03*
X529250D02*
D03*
D51*
X640435Y460750D02*
D03*
X569065D02*
D03*
D52*
X151250Y626000D02*
D03*
X174250D02*
D03*
Y608000D02*
D03*
X151250D02*
D03*
X75000Y837000D02*
D03*
X98000D02*
D03*
Y819000D02*
D03*
X75000D02*
D03*
D53*
X220500Y379000D02*
D03*
X200500D02*
D03*
D54*
X200500Y840750D02*
D03*
X171500D02*
D03*
D55*
X655250Y149250D02*
D03*
X632250D02*
D03*
D56*
X655000Y566000D02*
D03*
X555000D02*
D03*
D57*
X42000Y403750D02*
D03*
Y423750D02*
D03*
M02*
