G04*
G04 #@! TF.GenerationSoftware,Altium Limited,Altium Designer,20.0.13 (296)*
G04*
G04 Layer_Color=65535*
%FSLAX44Y44*%
%MOMM*%
G71*
G01*
G75*
%ADD10C,0.2000*%
%ADD11C,0.2540*%
%ADD12C,0.2500*%
%ADD13C,0.1500*%
%ADD14C,0.1270*%
%ADD15C,0.4000*%
%ADD16C,0.6096*%
%ADD17C,0.6000*%
%ADD18C,0.3000*%
%ADD19C,0.1520*%
%ADD20C,0.1524*%
%ADD21R,2.8000X0.5500*%
%ADD22R,0.5500X2.8000*%
D10*
X525500Y131500D02*
G03*
X525500Y131500I-1000J0D01*
G01*
X207250Y574900D02*
G03*
X207250Y574900I-1000J0D01*
G01*
X466750Y354250D02*
G03*
X466750Y354250I-1000J0D01*
G01*
X585000Y672750D02*
G03*
X585000Y672750I-1000J0D01*
G01*
X268950Y327250D02*
G03*
X268950Y327250I-1000J0D01*
G01*
X530250Y754000D02*
G03*
X530250Y754000I-1000J0D01*
G01*
X537000Y297250D02*
G03*
X537000Y297250I-50000J0D01*
G01*
X693000Y695000D02*
G03*
X693000Y695000I-50000J0D01*
G01*
X348800Y979150D02*
G03*
X348800Y991850I0J6350D01*
G01*
X465000Y979150D02*
G03*
X465000Y991850I0J6350D01*
G01*
X406750Y739500D02*
Y742500D01*
X397750Y739500D02*
Y742500D01*
X361500Y740000D02*
Y743000D01*
X352500Y740000D02*
Y743000D01*
X329750Y686500D02*
X332750D01*
X329750Y695500D02*
X332750D01*
X180500Y23825D02*
Y96785D01*
Y23825D02*
X292170D01*
X292880Y24535D01*
Y96785D01*
X180500D02*
X292880D01*
X636750Y815000D02*
Y818000D01*
X645750Y815000D02*
Y818000D01*
X652822Y815000D02*
Y818000D01*
X661822Y815000D02*
Y818000D01*
X439000Y534250D02*
Y537250D01*
X430000Y534250D02*
Y537250D01*
X422750Y534250D02*
Y537250D01*
X413750Y534250D02*
Y537250D01*
X372500Y534250D02*
Y537250D01*
X363500Y534250D02*
Y537250D01*
X356000Y534250D02*
Y537250D01*
X347000Y534250D02*
Y537250D01*
X216500Y117000D02*
Y125000D01*
X207500Y117000D02*
X216500D01*
Y139000D02*
Y147000D01*
X207500D02*
X216500D01*
X-22766Y990434D02*
X31420D01*
X-27000Y986200D02*
X-22766Y981967D01*
X31420D01*
X-27000Y986200D02*
X-22766Y990434D01*
X61900Y922700D02*
Y1049700D01*
X31420Y922700D02*
X61900D01*
X-27000Y960800D02*
X-22766Y965034D01*
X-27000Y935400D02*
X-22766Y939634D01*
X-27000Y935400D02*
X-22766Y931167D01*
Y956567D02*
X31420D01*
X-27000Y960800D02*
X-22766Y956567D01*
Y965034D02*
X31420D01*
X-22766Y939634D02*
X31420D01*
X-22766Y931167D02*
X31420D01*
Y922700D02*
Y1049700D01*
X61900Y922700D02*
X112700D01*
Y1049700D01*
X-27000Y1011600D02*
X-22766Y1015834D01*
Y1007367D02*
X31420D01*
X-27000Y1011600D02*
X-22766Y1007367D01*
Y1015834D02*
X31420D01*
X-27000Y1037000D02*
X-22766Y1041234D01*
Y1032767D02*
X31420D01*
X-27000Y1037000D02*
X-22766Y1032767D01*
Y1041234D02*
X31420D01*
Y1049700D02*
X112700D01*
X301250Y218250D02*
Y224250D01*
X334250Y218250D02*
Y224250D01*
X339150Y585300D02*
X415350D01*
X339150Y610700D02*
X415350D01*
X339150Y585300D02*
Y610700D01*
X415350Y585300D02*
Y610700D01*
X688500Y838250D02*
Y846250D01*
X672500Y838250D02*
Y846250D01*
X377748Y719500D02*
X387748D01*
X518000Y1036500D02*
Y1047500D01*
X538000D01*
Y1036500D02*
Y1047500D01*
X518000Y1036500D02*
X538000D01*
X462500D02*
Y1047500D01*
X482500D01*
Y1036500D02*
Y1047500D01*
X462500Y1036500D02*
X482500D01*
X407000D02*
Y1047500D01*
X427000D01*
Y1036500D02*
Y1047500D01*
X407000Y1036500D02*
X427000D01*
X545750D02*
Y1047500D01*
X565750D01*
Y1036500D02*
Y1047500D01*
X545750Y1036500D02*
X565750D01*
X490250D02*
Y1047500D01*
X510250D01*
Y1036500D02*
Y1047500D01*
X490250Y1036500D02*
X510250D01*
X434750D02*
Y1047500D01*
X454751D01*
Y1036500D02*
Y1047500D01*
X434750Y1036500D02*
X454751D01*
X379250D02*
Y1047500D01*
X399250D01*
Y1036500D02*
Y1047500D01*
X379250Y1036500D02*
X399250D01*
X351500D02*
Y1047500D01*
X371500D01*
Y1036500D02*
Y1047500D01*
X351500Y1036500D02*
X371500D01*
X390000Y563750D02*
X393000D01*
X390000Y572750D02*
X393000D01*
X362750Y109600D02*
Y159600D01*
X344750Y109600D02*
Y159600D01*
Y109600D02*
X362750D01*
X344750Y159600D02*
X362750D01*
X476250Y0D02*
Y194500D01*
X418250Y252500D02*
X476250Y194500D01*
X418250Y252500D02*
Y328250D01*
X359750D02*
X418250D01*
X302750Y271250D02*
X359750Y328250D01*
X156000Y271250D02*
X302750D01*
X145500Y260750D02*
X156000Y271250D01*
X145500Y0D02*
Y260750D01*
X339150Y635800D02*
X415350D01*
X339150Y661200D02*
X415350D01*
X339150Y635800D02*
Y661200D01*
X415350Y635800D02*
Y661200D01*
X55650Y301550D02*
X131850D01*
X55650Y326950D02*
X131850D01*
X55650Y301550D02*
Y326950D01*
X131850Y301550D02*
Y326950D01*
X410500Y110250D02*
X413500D01*
X410500Y119250D02*
X413500D01*
X410500Y136000D02*
X413500D01*
X410500Y145000D02*
X413500D01*
X343750Y33550D02*
X419950D01*
X343750Y58950D02*
X419950D01*
X343750Y33550D02*
Y58950D01*
X419950Y33550D02*
Y58950D01*
X268500Y137000D02*
X271500D01*
X268500Y146000D02*
X271500D01*
X268250Y122000D02*
X271250D01*
X268250Y131000D02*
X271250D01*
X374750Y686750D02*
X377750D01*
X374750Y695750D02*
X377750D01*
X334250Y719500D02*
X344250D01*
X618750Y815500D02*
Y818500D01*
X627750Y815500D02*
Y818500D01*
X50000Y707000D02*
Y710000D01*
X41000Y707000D02*
Y710000D01*
X52250Y761500D02*
X55250D01*
X52250Y770500D02*
X55250D01*
X123500Y842750D02*
X126500D01*
X123500Y833750D02*
X126500D01*
X50250Y824250D02*
Y827250D01*
X59250Y824250D02*
Y827250D01*
X215000Y721000D02*
X218000D01*
X215000Y730000D02*
X218000D01*
X185000Y803750D02*
X188000D01*
X185000Y812750D02*
X188000D01*
X93500Y707500D02*
Y710500D01*
X84500Y707500D02*
Y710500D01*
X610750Y815750D02*
Y818750D01*
X601750Y815750D02*
Y818750D01*
X368750Y828450D02*
Y831450D01*
X377750Y828450D02*
Y831450D01*
X167500Y736000D02*
Y739000D01*
X158500Y736000D02*
Y739000D01*
X394000Y858200D02*
Y861200D01*
X385000Y858200D02*
Y861200D01*
X215000Y705000D02*
X218000D01*
X215000Y714000D02*
X218000D01*
X130250Y663000D02*
Y669000D01*
X102250Y663000D02*
Y669000D01*
X130250D01*
X385000Y828450D02*
Y831450D01*
X394000Y828450D02*
Y831450D01*
X377749Y858200D02*
Y861200D01*
X368750Y858200D02*
Y861200D01*
X344250Y792200D02*
Y852800D01*
X217250Y792200D02*
X344250D01*
X217250D02*
Y852800D01*
X344250D01*
X450250Y48000D02*
Y50000D01*
X436250Y48000D02*
Y50000D01*
X236750Y573750D02*
X239750D01*
X236750Y582750D02*
X239750D01*
X256500Y519250D02*
X259500D01*
X256500Y528250D02*
X259500D01*
X274750Y465750D02*
X324750D01*
X274750Y447750D02*
X324750D01*
Y465750D01*
X274750Y447750D02*
Y465750D01*
X661500Y351750D02*
Y374250D01*
X557500D02*
X661500D01*
X557500Y351750D02*
Y374250D01*
X17750Y57000D02*
X27750D01*
X51000D02*
X61000D01*
X84250D02*
X94250D01*
X92998Y97000D02*
Y100000D01*
X83998Y97000D02*
Y100000D01*
X61248Y97000D02*
Y100000D01*
X52247Y97000D02*
Y100000D01*
X27998Y97000D02*
Y100000D01*
X18997Y97000D02*
Y100000D01*
X52500Y786000D02*
X55500D01*
X52500Y777000D02*
X55500D01*
X183250Y651250D02*
Y654250D01*
X174250Y651250D02*
Y654250D01*
X153500Y650750D02*
Y653750D01*
X144500Y650750D02*
Y653750D01*
X183000Y826750D02*
Y854750D01*
Y826750D02*
X189000D01*
X183000Y854750D02*
X189000D01*
X57000Y707500D02*
Y710500D01*
X66000Y707500D02*
Y710500D01*
X602250Y144003D02*
X605250D01*
X602250Y153002D02*
X605250D01*
X651600Y1049700D02*
X740500D01*
Y922700D02*
Y1049700D01*
X651600Y922700D02*
X740500D01*
X600800D02*
Y1049700D01*
X651600Y922700D02*
Y1049700D01*
X600800D02*
X651600D01*
X600800Y922700D02*
X651600D01*
X645500Y144250D02*
Y154250D01*
X286050Y688000D02*
X311450D01*
Y561000D02*
Y688000D01*
X286050Y561000D02*
Y688000D01*
Y561000D02*
X311450D01*
X507000Y806750D02*
Y812750D01*
X474000Y806750D02*
Y812750D01*
X545750Y293750D02*
Y300750D01*
X542250Y297250D02*
X549250D01*
X639500Y753750D02*
X646500D01*
X643000Y750250D02*
Y757250D01*
X348800Y959000D02*
X451800D01*
X348800Y1012000D02*
X451800D01*
X348800Y959000D02*
Y979150D01*
Y991850D02*
Y1012000D01*
X451800Y959000D02*
Y1012000D01*
X465000Y959000D02*
X568000D01*
X465000Y1012000D02*
X568000D01*
X465000Y959000D02*
Y979150D01*
Y991850D02*
Y1012000D01*
X568000Y959000D02*
Y1012000D01*
X158500Y707750D02*
Y710750D01*
X167500Y707750D02*
Y710750D01*
Y794750D02*
Y797750D01*
X158500Y794750D02*
Y797750D01*
Y766500D02*
Y769500D01*
X167500Y766500D02*
Y769500D01*
X396640Y762551D02*
Y770548D01*
X400638D01*
X401971Y769215D01*
Y766550D01*
X400638Y765217D01*
X396640D01*
X399305D02*
X401971Y762551D01*
X408636D02*
Y770548D01*
X404637Y766550D01*
X409968D01*
X416633Y762551D02*
Y770548D01*
X412634Y766550D01*
X417966D01*
X351538Y763206D02*
Y771203D01*
X355537D01*
X356870Y769871D01*
Y767205D01*
X355537Y765872D01*
X351538D01*
X354204D02*
X356870Y763206D01*
X363534D02*
Y771203D01*
X359535Y767205D01*
X364867D01*
X367533Y769871D02*
X368866Y771203D01*
X371531D01*
X372864Y769871D01*
Y768538D01*
X371531Y767205D01*
X370199D01*
X371531D01*
X372864Y765872D01*
Y764539D01*
X371531Y763206D01*
X368866D01*
X367533Y764539D01*
X297837Y703251D02*
Y711249D01*
X301835D01*
X303168Y709916D01*
Y707250D01*
X301835Y705917D01*
X297837D01*
X300503D02*
X303168Y703251D01*
X305834Y709916D02*
X307167Y711249D01*
X309833D01*
X311166Y709916D01*
Y708583D01*
X309833Y707250D01*
X308500D01*
X309833D01*
X311166Y705917D01*
Y704584D01*
X309833Y703251D01*
X307167D01*
X305834Y704584D01*
X319163Y711249D02*
X313832D01*
Y707250D01*
X316497Y708583D01*
X317830D01*
X319163Y707250D01*
Y704584D01*
X317830Y703251D01*
X315165D01*
X313832Y704584D01*
X674670Y92999D02*
Y85001D01*
X678668D01*
X680001Y86334D01*
Y91666D01*
X678668Y92999D01*
X674670D01*
X687999Y91666D02*
X686666Y92999D01*
X684000D01*
X682667Y91666D01*
Y86334D01*
X684000Y85001D01*
X686666D01*
X687999Y86334D01*
Y89000D01*
X685333D01*
X690665Y85001D02*
X693330D01*
X691997D01*
Y92999D01*
X690665Y91666D01*
X301337Y93999D02*
Y86001D01*
X305336D01*
X306668Y87334D01*
Y92666D01*
X305336Y93999D01*
X301337D01*
X314666Y92666D02*
X313333Y93999D01*
X310667D01*
X309334Y92666D01*
Y87334D01*
X310667Y86001D01*
X313333D01*
X314666Y87334D01*
Y90000D01*
X312000D01*
X322663Y86001D02*
X317332D01*
X322663Y91333D01*
Y92666D01*
X321330Y93999D01*
X318664D01*
X317332Y92666D01*
X644249Y835587D02*
X636251D01*
Y839585D01*
X637584Y840918D01*
X640250D01*
X641583Y839585D01*
Y835587D01*
Y838253D02*
X644249Y840918D01*
X636251Y848916D02*
Y843584D01*
X640250D01*
X638917Y846250D01*
Y847583D01*
X640250Y848916D01*
X642916D01*
X644249Y847583D01*
Y844917D01*
X642916Y843584D01*
X644249Y856913D02*
Y851582D01*
X638917Y856913D01*
X637584D01*
X636251Y855580D01*
Y852915D01*
X637584Y851582D01*
X661499Y837920D02*
X653501D01*
Y841918D01*
X654834Y843251D01*
X657500D01*
X658833Y841918D01*
Y837920D01*
Y840585D02*
X661499Y843251D01*
X653501Y851249D02*
Y845917D01*
X657500D01*
X656167Y848583D01*
Y849916D01*
X657500Y851249D01*
X660166D01*
X661499Y849916D01*
Y847250D01*
X660166Y845917D01*
X661499Y853914D02*
Y856580D01*
Y855247D01*
X653501D01*
X654834Y853914D01*
X495001Y85085D02*
X502999D01*
Y89084D01*
X501666Y90417D01*
X496334D01*
X495001Y89084D01*
Y85085D01*
X502999Y97082D02*
X495001D01*
X499000Y93083D01*
Y98414D01*
X99503Y748249D02*
X102169D01*
X100836D01*
Y740251D01*
X99503D01*
X102169D01*
X111499Y746916D02*
X110167Y748249D01*
X107501D01*
X106168Y746916D01*
Y741584D01*
X107501Y740251D01*
X110167D01*
X111499Y741584D01*
X119497Y740251D02*
X114165D01*
X119497Y745583D01*
Y746916D01*
X118164Y748249D01*
X115498D01*
X114165Y746916D01*
X453749Y524837D02*
X445751D01*
Y528835D01*
X447084Y530168D01*
X449750D01*
X451083Y528835D01*
Y524837D01*
Y527503D02*
X453749Y530168D01*
Y536833D02*
X445751D01*
X449750Y532834D01*
Y538166D01*
X447084Y540832D02*
X445751Y542164D01*
Y544830D01*
X447084Y546163D01*
X448417D01*
X449750Y544830D01*
X451083Y546163D01*
X452416D01*
X453749Y544830D01*
Y542164D01*
X452416Y540832D01*
X451083D01*
X449750Y542164D01*
X448417Y540832D01*
X447084D01*
X449750Y542164D02*
Y544830D01*
X406249Y524837D02*
X398251D01*
Y528835D01*
X399584Y530168D01*
X402250D01*
X403583Y528835D01*
Y524837D01*
Y527503D02*
X406249Y530168D01*
Y536833D02*
X398251D01*
X402250Y532834D01*
Y538166D01*
X398251Y540832D02*
Y546163D01*
X399584D01*
X404916Y540832D01*
X406249D01*
X387249Y524837D02*
X379251D01*
Y528835D01*
X380584Y530168D01*
X383250D01*
X384583Y528835D01*
Y524837D01*
Y527503D02*
X387249Y530168D01*
Y536833D02*
X379251D01*
X383250Y532834D01*
Y538166D01*
X379251Y546163D02*
X380584Y543497D01*
X383250Y540832D01*
X385916D01*
X387249Y542164D01*
Y544830D01*
X385916Y546163D01*
X384583D01*
X383250Y544830D01*
Y540832D01*
X338249Y524837D02*
X330251D01*
Y528835D01*
X331584Y530168D01*
X334250D01*
X335583Y528835D01*
Y524837D01*
Y527503D02*
X338249Y530168D01*
Y536833D02*
X330251D01*
X334250Y532834D01*
Y538166D01*
X330251Y546163D02*
Y540832D01*
X334250D01*
X332917Y543497D01*
Y544830D01*
X334250Y546163D01*
X336916D01*
X338249Y544830D01*
Y542164D01*
X336916Y540832D01*
X511168Y665166D02*
X509836Y666499D01*
X507170D01*
X505837Y665166D01*
Y659834D01*
X507170Y658501D01*
X509836D01*
X511168Y659834D01*
X513834Y665166D02*
X515167Y666499D01*
X517833D01*
X519166Y665166D01*
Y663833D01*
X517833Y662500D01*
X516500D01*
X517833D01*
X519166Y661167D01*
Y659834D01*
X517833Y658501D01*
X515167D01*
X513834Y659834D01*
X527163Y666499D02*
X524497Y665166D01*
X521832Y662500D01*
Y659834D01*
X523164Y658501D01*
X525830D01*
X527163Y659834D01*
Y661167D01*
X525830Y662500D01*
X521832D01*
X444418Y492166D02*
X443086Y493499D01*
X440420D01*
X439087Y492166D01*
Y486834D01*
X440420Y485501D01*
X443086D01*
X444418Y486834D01*
X447084Y492166D02*
X448417Y493499D01*
X451083D01*
X452416Y492166D01*
Y490833D01*
X451083Y489500D01*
X449750D01*
X451083D01*
X452416Y488167D01*
Y486834D01*
X451083Y485501D01*
X448417D01*
X447084Y486834D01*
X460413Y493499D02*
X455082D01*
Y489500D01*
X457747Y490833D01*
X459080D01*
X460413Y489500D01*
Y486834D01*
X459080Y485501D01*
X456414D01*
X455082Y486834D01*
X379749Y745837D02*
X385081D01*
X387747Y748503D01*
X385081Y751168D01*
X379749D01*
Y753834D02*
X387747D01*
Y757833D01*
X386414Y759166D01*
X381082D01*
X379749Y757833D01*
Y753834D01*
Y767163D02*
X381082Y764498D01*
X383748Y761832D01*
X386414D01*
X387747Y763165D01*
Y765830D01*
X386414Y767163D01*
X385081D01*
X383748Y765830D01*
Y761832D01*
X337001Y745587D02*
X342333D01*
X344999Y748253D01*
X342333Y750918D01*
X337001D01*
Y753584D02*
X344999D01*
Y757583D01*
X343666Y758916D01*
X338334D01*
X337001Y757583D01*
Y753584D01*
Y766913D02*
Y761582D01*
X341000D01*
X339667Y764248D01*
Y765580D01*
X341000Y766913D01*
X343666D01*
X344999Y765580D01*
Y762915D01*
X343666Y761582D01*
X272418Y825999D02*
X277750D01*
X275084D01*
Y818001D01*
X280416D02*
X283082D01*
X281749D01*
Y825999D01*
X280416Y824666D01*
X397337Y690001D02*
Y697999D01*
X401335D01*
X402668Y696666D01*
Y694000D01*
X401335Y692667D01*
X397337D01*
X400003D02*
X402668Y690001D01*
X409333D02*
Y697999D01*
X405334Y694000D01*
X410666D01*
X418663Y690001D02*
X413332D01*
X418663Y695333D01*
Y696666D01*
X417330Y697999D01*
X414664D01*
X413332Y696666D01*
X92499Y671420D02*
X84501D01*
Y675418D01*
X85834Y676751D01*
X88500D01*
X89833Y675418D01*
Y671420D01*
Y674085D02*
X92499Y676751D01*
Y683416D02*
X84501D01*
X88500Y679417D01*
Y684749D01*
X92499Y687414D02*
Y690080D01*
Y688747D01*
X84501D01*
X85834Y687414D01*
X410499Y850537D02*
X402501D01*
Y854535D01*
X403834Y855868D01*
X406500D01*
X407833Y854535D01*
Y850537D01*
Y853202D02*
X410499Y855868D01*
Y862533D02*
X402501D01*
X406500Y858534D01*
Y863866D01*
X403834Y866531D02*
X402501Y867864D01*
Y870530D01*
X403834Y871863D01*
X409166D01*
X410499Y870530D01*
Y867864D01*
X409166Y866531D01*
X403834D01*
X626499Y836503D02*
X618501D01*
Y840502D01*
X619834Y841835D01*
X622500D01*
X623833Y840502D01*
Y836503D01*
Y839169D02*
X626499Y841835D01*
Y844501D02*
Y847167D01*
Y845834D01*
X618501D01*
X619834Y844501D01*
Y851165D02*
X618501Y852498D01*
Y855164D01*
X619834Y856497D01*
X621167D01*
X622500Y855164D01*
X623833Y856497D01*
X625166D01*
X626499Y855164D01*
Y852498D01*
X625166Y851165D01*
X623833D01*
X622500Y852498D01*
X621167Y851165D01*
X619834D01*
X622500Y852498D02*
Y855164D01*
X683749Y877503D02*
X675751D01*
Y881502D01*
X677084Y882835D01*
X679750D01*
X681083Y881502D01*
Y877503D01*
Y880169D02*
X683749Y882835D01*
Y885501D02*
Y888167D01*
Y886834D01*
X675751D01*
X677084Y885501D01*
X675751Y892165D02*
Y897497D01*
X677084D01*
X682416Y892165D01*
X683749D01*
X51834Y852168D02*
X50501Y850835D01*
Y848170D01*
X51834Y846837D01*
X57166D01*
X58499Y848170D01*
Y850835D01*
X57166Y852168D01*
X51834Y854834D02*
X50501Y856167D01*
Y858833D01*
X51834Y860166D01*
X53167D01*
X54500Y858833D01*
Y857500D01*
Y858833D01*
X55833Y860166D01*
X57166D01*
X58499Y858833D01*
Y856167D01*
X57166Y854834D01*
X58499Y866830D02*
X50501D01*
X54500Y862832D01*
Y868163D01*
X368337Y25749D02*
X373668Y17751D01*
Y25749D02*
X368337Y17751D01*
X376334D02*
Y25749D01*
X380333D01*
X381666Y24416D01*
Y21750D01*
X380333Y20417D01*
X376334D01*
X388330Y17751D02*
Y25749D01*
X384332Y21750D01*
X389663D01*
X433753Y137751D02*
Y145749D01*
X437752D01*
X439085Y144416D01*
Y141750D01*
X437752Y140417D01*
X433753D01*
X436419D02*
X439085Y137751D01*
X441751D02*
X444417D01*
X443084D01*
Y145749D01*
X441751Y144416D01*
X453747Y145749D02*
X451081Y144416D01*
X448415Y141750D01*
Y139084D01*
X449748Y137751D01*
X452414D01*
X453747Y139084D01*
Y140417D01*
X452414Y141750D01*
X448415D01*
X432253Y110501D02*
Y118499D01*
X436252D01*
X437585Y117166D01*
Y114500D01*
X436252Y113167D01*
X432253D01*
X434919D02*
X437585Y110501D01*
X440251D02*
X442916D01*
X441584D01*
Y118499D01*
X440251Y117166D01*
X452247Y118499D02*
X446915D01*
Y114500D01*
X449581Y115833D01*
X450914D01*
X452247Y114500D01*
Y111834D01*
X450914Y110501D01*
X448248D01*
X446915Y111834D01*
X232753Y135501D02*
Y143499D01*
X236752D01*
X238085Y142166D01*
Y139500D01*
X236752Y138167D01*
X232753D01*
X235419D02*
X238085Y135501D01*
X240751D02*
X243416D01*
X242083D01*
Y143499D01*
X240751Y142166D01*
X247415D02*
X248748Y143499D01*
X251414D01*
X252747Y142166D01*
Y140833D01*
X251414Y139500D01*
X250081D01*
X251414D01*
X252747Y138167D01*
Y136834D01*
X251414Y135501D01*
X248748D01*
X247415Y136834D01*
X466249Y38253D02*
X458251D01*
Y42252D01*
X459584Y43585D01*
X462250D01*
X463583Y42252D01*
Y38253D01*
Y40919D02*
X466249Y43585D01*
Y46251D02*
Y48917D01*
Y47584D01*
X458251D01*
X459584Y46251D01*
X466249Y58247D02*
Y52915D01*
X460917Y58247D01*
X459584D01*
X458251Y56914D01*
Y54248D01*
X459584Y52915D01*
X232753Y120751D02*
Y128749D01*
X236752D01*
X238085Y127416D01*
Y124750D01*
X236752Y123417D01*
X232753D01*
X235419D02*
X238085Y120751D01*
X240751D02*
X243416D01*
X242083D01*
Y128749D01*
X240751Y127416D01*
X247415Y120751D02*
X250081D01*
X248748D01*
Y128749D01*
X247415Y127416D01*
X167302Y344207D02*
X169968D01*
X168635D01*
Y336210D01*
X167302D01*
X169968D01*
X179298Y342874D02*
X177965Y344207D01*
X175299D01*
X173967Y342874D01*
Y341542D01*
X175299Y340209D01*
X177965D01*
X179298Y338876D01*
Y337543D01*
X177965Y336210D01*
X175299D01*
X173967Y337543D01*
X185963Y344207D02*
X183297D01*
X181964Y342874D01*
Y337543D01*
X183297Y336210D01*
X185963D01*
X187296Y337543D01*
Y342874D01*
X185963Y344207D01*
X189961Y336210D02*
X192627D01*
X191294D01*
Y344207D01*
X189961Y342874D01*
X341587Y100499D02*
Y92501D01*
X345586D01*
X346918Y93834D01*
Y99166D01*
X345586Y100499D01*
X341587D01*
X349584D02*
Y92501D01*
X353583D01*
X354916Y93834D01*
Y99166D01*
X353583Y100499D01*
X349584D01*
X362913Y92501D02*
X357582D01*
X362913Y97833D01*
Y99166D01*
X361580Y100499D01*
X358914D01*
X357582Y99166D01*
X167586Y129249D02*
Y121251D01*
X171584D01*
X172917Y122584D01*
Y127916D01*
X171584Y129249D01*
X167586D01*
X175583Y127916D02*
X176916Y129249D01*
X179582D01*
X180914Y127916D01*
Y126583D01*
X179582Y125250D01*
X178249D01*
X179582D01*
X180914Y123917D01*
Y122584D01*
X179582Y121251D01*
X176916D01*
X175583Y122584D01*
X368086Y414249D02*
Y406251D01*
X372084D01*
X373417Y407584D01*
Y412916D01*
X372084Y414249D01*
X368086D01*
X381414Y406251D02*
X376083D01*
X381414Y411583D01*
Y412916D01*
X380082Y414249D01*
X377416D01*
X376083Y412916D01*
X419668Y92166D02*
X418335Y93499D01*
X415670D01*
X414337Y92166D01*
Y86834D01*
X415670Y85501D01*
X418335D01*
X419668Y86834D01*
X422334Y92166D02*
X423667Y93499D01*
X426333D01*
X427666Y92166D01*
Y90833D01*
X426333Y89500D01*
X425000D01*
X426333D01*
X427666Y88167D01*
Y86834D01*
X426333Y85501D01*
X423667D01*
X422334Y86834D01*
X430332Y92166D02*
X431665Y93499D01*
X434330D01*
X435663Y92166D01*
Y90833D01*
X434330Y89500D01*
X432997D01*
X434330D01*
X435663Y88167D01*
Y86834D01*
X434330Y85501D01*
X431665D01*
X430332Y86834D01*
X283334Y248418D02*
X282001Y247085D01*
Y244420D01*
X283334Y243087D01*
X288666D01*
X289999Y244420D01*
Y247085D01*
X288666Y248418D01*
X283334Y251084D02*
X282001Y252417D01*
Y255083D01*
X283334Y256416D01*
X284667D01*
X286000Y255083D01*
Y253750D01*
Y255083D01*
X287333Y256416D01*
X288666D01*
X289999Y255083D01*
Y252417D01*
X288666Y251084D01*
X289999Y264413D02*
Y259082D01*
X284667Y264413D01*
X283334D01*
X282001Y263080D01*
Y260415D01*
X283334Y259082D01*
X283446Y353302D02*
X282113Y354635D01*
X279447D01*
X278114Y353302D01*
Y347971D01*
X279447Y346638D01*
X282113D01*
X283446Y347971D01*
X286111Y353302D02*
X287444Y354635D01*
X290110D01*
X291443Y353302D01*
Y351970D01*
X290110Y350637D01*
X288777D01*
X290110D01*
X291443Y349304D01*
Y347971D01*
X290110Y346638D01*
X287444D01*
X286111Y347971D01*
X294109Y346638D02*
X296775D01*
X295442D01*
Y354635D01*
X294109Y353302D01*
X313834Y263417D02*
X312501Y262084D01*
Y259418D01*
X313834Y258085D01*
X319166D01*
X320499Y259418D01*
Y262084D01*
X319166Y263417D01*
X313834Y266083D02*
X312501Y267416D01*
Y270082D01*
X313834Y271415D01*
X315167D01*
X316500Y270082D01*
Y268749D01*
Y270082D01*
X317833Y271415D01*
X319166D01*
X320499Y270082D01*
Y267416D01*
X319166Y266083D01*
X229087Y588501D02*
Y596499D01*
X233085D01*
X234418Y595166D01*
Y592500D01*
X233085Y591167D01*
X229087D01*
X231753D02*
X234418Y588501D01*
X237084Y595166D02*
X238417Y596499D01*
X241083D01*
X242416Y595166D01*
Y593833D01*
X241083Y592500D01*
X239750D01*
X241083D01*
X242416Y591167D01*
Y589834D01*
X241083Y588501D01*
X238417D01*
X237084Y589834D01*
X245082D02*
X246415Y588501D01*
X249080D01*
X250413Y589834D01*
Y595166D01*
X249080Y596499D01*
X246415D01*
X245082Y595166D01*
Y593833D01*
X246415Y592500D01*
X250413D01*
X81086Y859249D02*
X86417Y851251D01*
Y859249D02*
X81086Y851251D01*
X94415Y859249D02*
X89083D01*
Y855250D01*
X91749Y856583D01*
X93082D01*
X94415Y855250D01*
Y852584D01*
X93082Y851251D01*
X90416D01*
X89083Y852584D01*
X156586Y593999D02*
X161917Y586001D01*
Y593999D02*
X156586Y586001D01*
X168582D02*
Y593999D01*
X164583Y590000D01*
X169914D01*
X686249Y350503D02*
X678251D01*
Y354502D01*
X679584Y355835D01*
X682250D01*
X683583Y354502D01*
Y350503D01*
Y353169D02*
X686249Y355835D01*
Y358501D02*
Y361166D01*
Y359833D01*
X678251D01*
X679584Y358501D01*
Y365165D02*
X678251Y366498D01*
Y369164D01*
X679584Y370497D01*
X684916D01*
X686249Y369164D01*
Y366498D01*
X684916Y365165D01*
X679584D01*
X679001Y464664D02*
X686999D01*
Y460665D01*
X685666Y459333D01*
X683000D01*
X681667Y460665D01*
Y464664D01*
Y461998D02*
X679001Y459333D01*
X680334Y456667D02*
X679001Y455334D01*
Y452668D01*
X680334Y451335D01*
X685666D01*
X686999Y452668D01*
Y455334D01*
X685666Y456667D01*
X684333D01*
X683000Y455334D01*
Y451335D01*
X487000Y282666D02*
X485667Y283999D01*
X483001D01*
X481668Y282666D01*
Y277334D01*
X483001Y276001D01*
X485667D01*
X487000Y277334D01*
X489666Y276001D02*
X492332D01*
X490999D01*
Y283999D01*
X489666Y282666D01*
X83587Y342749D02*
X88918Y334751D01*
Y342749D02*
X83587Y334751D01*
X91584D02*
Y342749D01*
X95583D01*
X96916Y341416D01*
Y338750D01*
X95583Y337417D01*
X91584D01*
X99582Y341416D02*
X100914Y342749D01*
X103580D01*
X104913Y341416D01*
Y340083D01*
X103580Y338750D01*
X102247D01*
X103580D01*
X104913Y337417D01*
Y336084D01*
X103580Y334751D01*
X100914D01*
X99582Y336084D01*
X13918Y752666D02*
X12586Y753999D01*
X9920D01*
X8587Y752666D01*
Y747334D01*
X9920Y746001D01*
X12586D01*
X13918Y747334D01*
X21916Y746001D02*
X16584D01*
X21916Y751333D01*
Y752666D01*
X20583Y753999D01*
X17917D01*
X16584Y752666D01*
X24582D02*
X25915Y753999D01*
X28580D01*
X29913Y752666D01*
Y747334D01*
X28580Y746001D01*
X25915D01*
X24582Y747334D01*
Y752666D01*
X70335Y1064499D02*
X75667Y1056501D01*
Y1064499D02*
X70335Y1056501D01*
X83665D02*
X78333D01*
X83665Y1061833D01*
Y1063166D01*
X82332Y1064499D01*
X79666D01*
X78333Y1063166D01*
X423337Y652249D02*
X428668Y644251D01*
Y652249D02*
X423337Y644251D01*
X431334D02*
Y652249D01*
X435333D01*
X436666Y650916D01*
Y648250D01*
X435333Y646917D01*
X431334D01*
X444663Y644251D02*
X439332D01*
X444663Y649583D01*
Y650916D01*
X443330Y652249D01*
X440664D01*
X439332Y650916D01*
X424170Y601249D02*
X429501Y593251D01*
Y601249D02*
X424170Y593251D01*
X432167D02*
Y601249D01*
X436166D01*
X437499Y599916D01*
Y597250D01*
X436166Y595917D01*
X432167D01*
X440165Y593251D02*
X442830D01*
X441497D01*
Y601249D01*
X440165Y599916D01*
X637168Y1066499D02*
X642500Y1058501D01*
Y1066499D02*
X637168Y1058501D01*
X645166D02*
X647832D01*
X646499D01*
Y1066499D01*
X645166Y1065166D01*
X543670Y857499D02*
Y852167D01*
X546335Y849501D01*
X549001Y852167D01*
Y857499D01*
X551667Y849501D02*
Y857499D01*
X555666D01*
X556999Y856166D01*
Y853500D01*
X555666Y852167D01*
X551667D01*
X554333D02*
X556999Y849501D01*
X559664D02*
X562330D01*
X560998D01*
Y857499D01*
X559664Y856166D01*
X41999Y67913D02*
X36667D01*
X34001Y65247D01*
X36667Y62582D01*
X41999D01*
Y59916D02*
X34001D01*
Y55917D01*
X35334Y54584D01*
X40666D01*
X41999Y55917D01*
Y59916D01*
X34001Y47920D02*
X41999D01*
X38000Y51918D01*
Y46587D01*
X109499Y67663D02*
X104167D01*
X101501Y64997D01*
X104167Y62332D01*
X109499D01*
Y59666D02*
X101501D01*
Y55667D01*
X102834Y54334D01*
X108166D01*
X109499Y55667D01*
Y59666D01*
X108166Y51668D02*
X109499Y50335D01*
Y47670D01*
X108166Y46337D01*
X106833D01*
X105500Y47670D01*
Y49002D01*
Y47670D01*
X104167Y46337D01*
X102834D01*
X101501Y47670D01*
Y50335D01*
X102834Y51668D01*
X77499Y67663D02*
X72167D01*
X69501Y64997D01*
X72167Y62332D01*
X77499D01*
Y59666D02*
X69501D01*
Y55667D01*
X70834Y54334D01*
X76166D01*
X77499Y55667D01*
Y59666D01*
X69501Y46337D02*
Y51668D01*
X74833Y46337D01*
X76166D01*
X77499Y47670D01*
Y50335D01*
X76166Y51668D01*
X137918Y487999D02*
Y481334D01*
X139251Y480001D01*
X141917D01*
X143250Y481334D01*
Y487999D01*
X145916Y480001D02*
X148582D01*
X147249D01*
Y487999D01*
X145916Y486666D01*
X579917Y988916D02*
X578584Y990249D01*
X575918D01*
X574585Y988916D01*
Y987583D01*
X575918Y986250D01*
X578584D01*
X579917Y984917D01*
Y983584D01*
X578584Y982251D01*
X575918D01*
X574585Y983584D01*
X587915Y982251D02*
X582583D01*
X587915Y987583D01*
Y988916D01*
X586582Y990249D01*
X583916D01*
X582583Y988916D01*
X337584Y986250D02*
X336251Y984917D01*
Y982251D01*
X337584Y980918D01*
X338917D01*
X340250Y982251D01*
Y984917D01*
X341583Y986250D01*
X342916D01*
X344249Y984917D01*
Y982251D01*
X342916Y980918D01*
X344249Y988916D02*
Y991582D01*
Y990249D01*
X336251D01*
X337584Y988916D01*
X360998Y849787D02*
X353001D01*
Y853785D01*
X354334Y855118D01*
X357000D01*
X358333Y853785D01*
Y849787D01*
Y852452D02*
X360998Y855118D01*
X354334Y857784D02*
X353001Y859117D01*
Y861783D01*
X354334Y863116D01*
X355667D01*
X357000Y861783D01*
Y860450D01*
Y861783D01*
X358333Y863116D01*
X359665D01*
X360998Y861783D01*
Y859117D01*
X359665Y857784D01*
X354334Y865782D02*
X353001Y867114D01*
Y869780D01*
X354334Y871113D01*
X355667D01*
X357000Y869780D01*
X358333Y871113D01*
X359665D01*
X360998Y869780D01*
Y867114D01*
X359665Y865782D01*
X358333D01*
X357000Y867114D01*
X355667Y865782D01*
X354334D01*
X357000Y867114D02*
Y869780D01*
X408749Y819287D02*
X400751D01*
Y823286D01*
X402084Y824618D01*
X404750D01*
X406083Y823286D01*
Y819287D01*
Y821953D02*
X408749Y824618D01*
X402084Y827284D02*
X400751Y828617D01*
Y831283D01*
X402084Y832616D01*
X403417D01*
X404750Y831283D01*
Y829950D01*
Y831283D01*
X406083Y832616D01*
X407416D01*
X408749Y831283D01*
Y828617D01*
X407416Y827284D01*
X400751Y835282D02*
Y840613D01*
X402084D01*
X407416Y835282D01*
X408749D01*
X360499Y820037D02*
X352501D01*
Y824035D01*
X353834Y825368D01*
X356500D01*
X357833Y824035D01*
Y820037D01*
Y822703D02*
X360499Y825368D01*
X353834Y828034D02*
X352501Y829367D01*
Y832033D01*
X353834Y833366D01*
X355167D01*
X356500Y832033D01*
Y830700D01*
Y832033D01*
X357833Y833366D01*
X359166D01*
X360499Y832033D01*
Y829367D01*
X359166Y828034D01*
X352501Y841363D02*
X353834Y838697D01*
X356500Y836032D01*
X359166D01*
X360499Y837365D01*
Y840030D01*
X359166Y841363D01*
X357833D01*
X356500Y840030D01*
Y836032D01*
X235837Y721001D02*
Y728999D01*
X239835D01*
X241168Y727666D01*
Y725000D01*
X239835Y723667D01*
X235837D01*
X238503D02*
X241168Y721001D01*
X243834Y727666D02*
X245167Y728999D01*
X247833D01*
X249166Y727666D01*
Y726333D01*
X247833Y725000D01*
X246500D01*
X247833D01*
X249166Y723667D01*
Y722334D01*
X247833Y721001D01*
X245167D01*
X243834Y722334D01*
X255830Y721001D02*
Y728999D01*
X251832Y725000D01*
X257163D01*
X65249Y668337D02*
X57251D01*
Y672336D01*
X58584Y673668D01*
X61250D01*
X62583Y672336D01*
Y668337D01*
Y671003D02*
X65249Y673668D01*
X58584Y676334D02*
X57251Y677667D01*
Y680333D01*
X58584Y681666D01*
X59917D01*
X61250Y680333D01*
Y679000D01*
Y680333D01*
X62583Y681666D01*
X63916D01*
X65249Y680333D01*
Y677667D01*
X63916Y676334D01*
X58584Y684332D02*
X57251Y685665D01*
Y688330D01*
X58584Y689663D01*
X59917D01*
X61250Y688330D01*
Y686998D01*
Y688330D01*
X62583Y689663D01*
X63916D01*
X65249Y688330D01*
Y685665D01*
X63916Y684332D01*
X49999Y668337D02*
X42001D01*
Y672336D01*
X43334Y673668D01*
X46000D01*
X47333Y672336D01*
Y668337D01*
Y671003D02*
X49999Y673668D01*
X43334Y676334D02*
X42001Y677667D01*
Y680333D01*
X43334Y681666D01*
X44667D01*
X46000Y680333D01*
Y679000D01*
Y680333D01*
X47333Y681666D01*
X48666D01*
X49999Y680333D01*
Y677667D01*
X48666Y676334D01*
X49999Y689663D02*
Y684332D01*
X44667Y689663D01*
X43334D01*
X42001Y688330D01*
Y685665D01*
X43334Y684332D01*
X13420Y777251D02*
Y785249D01*
X17418D01*
X18751Y783916D01*
Y781250D01*
X17418Y779917D01*
X13420D01*
X16085D02*
X18751Y777251D01*
X21417Y783916D02*
X22750Y785249D01*
X25416D01*
X26749Y783916D01*
Y782583D01*
X25416Y781250D01*
X24083D01*
X25416D01*
X26749Y779917D01*
Y778584D01*
X25416Y777251D01*
X22750D01*
X21417Y778584D01*
X29415Y777251D02*
X32080D01*
X30747D01*
Y785249D01*
X29415Y783916D01*
X13337Y761501D02*
Y769499D01*
X17335D01*
X18668Y768166D01*
Y765500D01*
X17335Y764167D01*
X13337D01*
X16003D02*
X18668Y761501D01*
X21334Y768166D02*
X22667Y769499D01*
X25333D01*
X26666Y768166D01*
Y766833D01*
X25333Y765500D01*
X24000D01*
X25333D01*
X26666Y764167D01*
Y762834D01*
X25333Y761501D01*
X22667D01*
X21334Y762834D01*
X29332Y768166D02*
X30665Y769499D01*
X33330D01*
X34663Y768166D01*
Y762834D01*
X33330Y761501D01*
X30665D01*
X29332Y762834D01*
Y768166D01*
X609749Y835837D02*
X601751D01*
Y839836D01*
X603084Y841168D01*
X605750D01*
X607083Y839836D01*
Y835837D01*
Y838503D02*
X609749Y841168D01*
Y849166D02*
Y843834D01*
X604417Y849166D01*
X603084D01*
X601751Y847833D01*
Y845167D01*
X603084Y843834D01*
X601751Y857163D02*
Y851832D01*
X605750D01*
X604417Y854498D01*
Y855830D01*
X605750Y857163D01*
X608416D01*
X609749Y855830D01*
Y853165D01*
X608416Y851832D01*
X34001Y109163D02*
X41999D01*
Y105164D01*
X40666Y103832D01*
X38000D01*
X36667Y105164D01*
Y109163D01*
Y106497D02*
X34001Y103832D01*
Y95834D02*
Y101166D01*
X39333Y95834D01*
X40666D01*
X41999Y97167D01*
Y99833D01*
X40666Y101166D01*
X34001Y89170D02*
X41999D01*
X38000Y93168D01*
Y87837D01*
X411837Y564001D02*
Y571999D01*
X415835D01*
X417168Y570666D01*
Y568000D01*
X415835Y566667D01*
X411837D01*
X414503D02*
X417168Y564001D01*
X425166D02*
X419834D01*
X425166Y569333D01*
Y570666D01*
X423833Y571999D01*
X421167D01*
X419834Y570666D01*
X427832D02*
X429165Y571999D01*
X431830D01*
X433163Y570666D01*
Y569333D01*
X431830Y568000D01*
X430497D01*
X431830D01*
X433163Y566667D01*
Y565334D01*
X431830Y564001D01*
X429165D01*
X427832Y565334D01*
X100501Y108663D02*
X108499D01*
Y104664D01*
X107166Y103332D01*
X104500D01*
X103167Y104664D01*
Y108663D01*
Y105997D02*
X100501Y103332D01*
Y95334D02*
Y100666D01*
X105833Y95334D01*
X107166D01*
X108499Y96667D01*
Y99333D01*
X107166Y100666D01*
X100501Y87337D02*
Y92668D01*
X105833Y87337D01*
X107166D01*
X108499Y88670D01*
Y91335D01*
X107166Y92668D01*
X68501Y108330D02*
X76499D01*
Y104332D01*
X75166Y102999D01*
X72500D01*
X71167Y104332D01*
Y108330D01*
Y105665D02*
X68501Y102999D01*
Y95001D02*
Y100333D01*
X73833Y95001D01*
X75166D01*
X76499Y96334D01*
Y99000D01*
X75166Y100333D01*
X68501Y92336D02*
Y89670D01*
Y91003D01*
X76499D01*
X75166Y92336D01*
X248087Y503251D02*
Y511249D01*
X252085D01*
X253418Y509916D01*
Y507250D01*
X252085Y505917D01*
X248087D01*
X250753D02*
X253418Y503251D01*
X261416D02*
X256084D01*
X261416Y508583D01*
Y509916D01*
X260083Y511249D01*
X257417D01*
X256084Y509916D01*
X264082D02*
X265415Y511249D01*
X268080D01*
X269413Y509916D01*
Y504584D01*
X268080Y503251D01*
X265415D01*
X264082Y504584D01*
Y509916D01*
X562253Y144004D02*
Y152001D01*
X566252D01*
X567585Y150668D01*
Y148002D01*
X566252Y146670D01*
X562253D01*
X564919D02*
X567585Y144004D01*
X570251D02*
X572916D01*
X571584D01*
Y152001D01*
X570251Y150668D01*
X576915Y145337D02*
X578248Y144004D01*
X580914D01*
X582247Y145337D01*
Y150668D01*
X580914Y152001D01*
X578248D01*
X576915Y150668D01*
Y149335D01*
X578248Y148002D01*
X582247D01*
X547836Y1054751D02*
Y1062749D01*
X551834D01*
X553167Y1061416D01*
Y1058750D01*
X551834Y1057417D01*
X547836D01*
X550501D02*
X553167Y1054751D01*
X555833Y1061416D02*
X557166Y1062749D01*
X559832D01*
X561165Y1061416D01*
Y1060083D01*
X559832Y1058750D01*
X561165Y1057417D01*
Y1056084D01*
X559832Y1054751D01*
X557166D01*
X555833Y1056084D01*
Y1057417D01*
X557166Y1058750D01*
X555833Y1060083D01*
Y1061416D01*
X557166Y1058750D02*
X559832D01*
X520085Y1054751D02*
Y1062749D01*
X524084D01*
X525417Y1061416D01*
Y1058750D01*
X524084Y1057417D01*
X520085D01*
X522751D02*
X525417Y1054751D01*
X528083Y1062749D02*
X533414D01*
Y1061416D01*
X528083Y1056084D01*
Y1054751D01*
X493086D02*
Y1062749D01*
X497084D01*
X498417Y1061416D01*
Y1058750D01*
X497084Y1057417D01*
X493086D01*
X495751D02*
X498417Y1054751D01*
X506414Y1062749D02*
X503749Y1061416D01*
X501083Y1058750D01*
Y1056084D01*
X502416Y1054751D01*
X505082D01*
X506414Y1056084D01*
Y1057417D01*
X505082Y1058750D01*
X501083D01*
X465336Y1054751D02*
Y1062749D01*
X469334D01*
X470667Y1061416D01*
Y1058750D01*
X469334Y1057417D01*
X465336D01*
X468001D02*
X470667Y1054751D01*
X478665Y1062749D02*
X473333D01*
Y1058750D01*
X475999Y1060083D01*
X477332D01*
X478665Y1058750D01*
Y1056084D01*
X477332Y1054751D01*
X474666D01*
X473333Y1056084D01*
X438086Y1054751D02*
Y1062749D01*
X442084D01*
X443417Y1061416D01*
Y1058750D01*
X442084Y1057417D01*
X438086D01*
X440751D02*
X443417Y1054751D01*
X450082D02*
Y1062749D01*
X446083Y1058750D01*
X451414D01*
X409836Y1054751D02*
Y1062749D01*
X413834D01*
X415167Y1061416D01*
Y1058750D01*
X413834Y1057417D01*
X409836D01*
X412501D02*
X415167Y1054751D01*
X417833Y1061416D02*
X419166Y1062749D01*
X421832D01*
X423164Y1061416D01*
Y1060083D01*
X421832Y1058750D01*
X420499D01*
X421832D01*
X423164Y1057417D01*
Y1056084D01*
X421832Y1054751D01*
X419166D01*
X417833Y1056084D01*
X382836Y1054751D02*
Y1062749D01*
X386834D01*
X388167Y1061416D01*
Y1058750D01*
X386834Y1057417D01*
X382836D01*
X385501D02*
X388167Y1054751D01*
X396165D02*
X390833D01*
X396165Y1060083D01*
Y1061416D01*
X394832Y1062749D01*
X392166D01*
X390833Y1061416D01*
X357168Y1054751D02*
Y1062749D01*
X361167D01*
X362500Y1061416D01*
Y1058750D01*
X361167Y1057417D01*
X357168D01*
X359834D02*
X362500Y1054751D01*
X365166D02*
X367832D01*
X366499D01*
Y1062749D01*
X365166Y1061416D01*
X608249Y567832D02*
X600251D01*
Y562500D01*
Y559834D02*
Y557168D01*
Y558501D01*
X608249D01*
X606916Y559834D01*
X140250Y1067499D02*
X137584D01*
X138917D01*
Y1060834D01*
X137584Y1059501D01*
X136251D01*
X134918Y1060834D01*
X142916Y1059501D02*
X145582D01*
X144249D01*
Y1067499D01*
X142916Y1066166D01*
X345999Y493664D02*
Y490998D01*
Y492331D01*
X338001D01*
Y493664D01*
Y490998D01*
X344666Y481668D02*
X345999Y483001D01*
Y485666D01*
X344666Y486999D01*
X339334D01*
X338001Y485666D01*
Y483001D01*
X339334Y481668D01*
X338001Y479002D02*
Y476336D01*
Y477669D01*
X345999D01*
X344666Y479002D01*
X673001Y271920D02*
X680999D01*
Y275918D01*
X679666Y277251D01*
X674334D01*
X673001Y275918D01*
Y271920D01*
Y279917D02*
X680999D01*
Y283916D01*
X679666Y285249D01*
X674334D01*
X673001Y283916D01*
Y279917D01*
X680999Y287915D02*
Y290580D01*
Y289247D01*
X673001D01*
X674334Y287915D01*
X599251Y456168D02*
X607249D01*
Y460167D01*
X605916Y461500D01*
X600584D01*
X599251Y460167D01*
Y456168D01*
X607249Y464166D02*
Y466832D01*
Y465499D01*
X599251D01*
X600584Y464166D01*
X38566Y449418D02*
X37233Y450751D01*
X34567D01*
X33234Y449418D01*
Y444087D01*
X34567Y442754D01*
X37233D01*
X38566Y444087D01*
X41231Y449418D02*
X42564Y450751D01*
X45230D01*
X46563Y449418D01*
Y448086D01*
X45230Y446753D01*
X43897D01*
X45230D01*
X46563Y445420D01*
Y444087D01*
X45230Y442754D01*
X42564D01*
X41231Y444087D01*
X49229Y449418D02*
X50562Y450751D01*
X53228D01*
X54560Y449418D01*
Y444087D01*
X53228Y442754D01*
X50562D01*
X49229Y444087D01*
Y449418D01*
X118168Y857916D02*
X116835Y859249D01*
X114170D01*
X112837Y857916D01*
Y852584D01*
X114170Y851251D01*
X116835D01*
X118168Y852584D01*
X126166Y851251D02*
X120834D01*
X126166Y856583D01*
Y857916D01*
X124833Y859249D01*
X122167D01*
X120834Y857916D01*
X128832Y852584D02*
X130164Y851251D01*
X132830D01*
X134163Y852584D01*
Y857916D01*
X132830Y859249D01*
X130164D01*
X128832Y857916D01*
Y856583D01*
X130164Y855250D01*
X134163D01*
X63834Y635418D02*
X62501Y634086D01*
Y631420D01*
X63834Y630087D01*
X69166D01*
X70499Y631420D01*
Y634086D01*
X69166Y635418D01*
X70499Y643416D02*
Y638084D01*
X65167Y643416D01*
X63834D01*
X62501Y642083D01*
Y639417D01*
X63834Y638084D01*
Y646082D02*
X62501Y647415D01*
Y650080D01*
X63834Y651413D01*
X65167D01*
X66500Y650080D01*
X67833Y651413D01*
X69166D01*
X70499Y650080D01*
Y647415D01*
X69166Y646082D01*
X67833D01*
X66500Y647415D01*
X65167Y646082D01*
X63834D01*
X66500Y647415D02*
Y650080D01*
X44918Y363416D02*
X43586Y364749D01*
X40920D01*
X39587Y363416D01*
Y358084D01*
X40920Y356751D01*
X43586D01*
X44918Y358084D01*
X52916Y356751D02*
X47584D01*
X52916Y362083D01*
Y363416D01*
X51583Y364749D01*
X48917D01*
X47584Y363416D01*
X55582Y364749D02*
X60913D01*
Y363416D01*
X55582Y358084D01*
Y356751D01*
X144168Y683666D02*
X142836Y684999D01*
X140170D01*
X138837Y683666D01*
Y678334D01*
X140170Y677001D01*
X142836D01*
X144168Y678334D01*
X152166Y677001D02*
X146834D01*
X152166Y682333D01*
Y683666D01*
X150833Y684999D01*
X148167D01*
X146834Y683666D01*
X160163Y684999D02*
X157497Y683666D01*
X154832Y681000D01*
Y678334D01*
X156165Y677001D01*
X158830D01*
X160163Y678334D01*
Y679667D01*
X158830Y681000D01*
X154832D01*
X16418Y855666D02*
X15086Y856999D01*
X12420D01*
X11087Y855666D01*
Y850334D01*
X12420Y849001D01*
X15086D01*
X16418Y850334D01*
X24416Y849001D02*
X19084D01*
X24416Y854333D01*
Y855666D01*
X23083Y856999D01*
X20417D01*
X19084Y855666D01*
X32413Y856999D02*
X27082D01*
Y853000D01*
X29747Y854333D01*
X31080D01*
X32413Y853000D01*
Y850334D01*
X31080Y849001D01*
X28414D01*
X27082Y850334D01*
X25418Y841416D02*
X24086Y842749D01*
X21420D01*
X20087Y841416D01*
Y836084D01*
X21420Y834751D01*
X24086D01*
X25418Y836084D01*
X33416Y834751D02*
X28084D01*
X33416Y840083D01*
Y841416D01*
X32083Y842749D01*
X29417D01*
X28084Y841416D01*
X40080Y834751D02*
Y842749D01*
X36082Y838750D01*
X41413D01*
X126168Y728166D02*
X124836Y729499D01*
X122170D01*
X120837Y728166D01*
Y722834D01*
X122170Y721501D01*
X124836D01*
X126168Y722834D01*
X134166Y721501D02*
X128834D01*
X134166Y726833D01*
Y728166D01*
X132833Y729499D01*
X130167D01*
X128834Y728166D01*
X142163Y721501D02*
X136832D01*
X142163Y726833D01*
Y728166D01*
X140830Y729499D01*
X138165D01*
X136832Y728166D01*
X146584Y865251D02*
X145251Y863918D01*
Y861253D01*
X146584Y859920D01*
X151916D01*
X153249Y861253D01*
Y863918D01*
X151916Y865251D01*
X153249Y873249D02*
Y867917D01*
X147917Y873249D01*
X146584D01*
X145251Y871916D01*
Y869250D01*
X146584Y867917D01*
X153249Y875915D02*
Y878580D01*
Y877247D01*
X145251D01*
X146584Y875915D01*
X122084Y611335D02*
X120751Y610002D01*
Y607336D01*
X122084Y606003D01*
X127416D01*
X128749Y607336D01*
Y610002D01*
X127416Y611335D01*
X128749Y614001D02*
Y616666D01*
Y615334D01*
X120751D01*
X122084Y614001D01*
X127416Y620665D02*
X128749Y621998D01*
Y624664D01*
X127416Y625997D01*
X122084D01*
X120751Y624664D01*
Y621998D01*
X122084Y620665D01*
X123417D01*
X124750Y621998D01*
Y625997D01*
X86834Y644835D02*
X85501Y643502D01*
Y640836D01*
X86834Y639503D01*
X92166D01*
X93499Y640836D01*
Y643502D01*
X92166Y644835D01*
X93499Y647501D02*
Y650166D01*
Y648834D01*
X85501D01*
X86834Y647501D01*
Y654165D02*
X85501Y655498D01*
Y658164D01*
X86834Y659497D01*
X88167D01*
X89500Y658164D01*
X90833Y659497D01*
X92166D01*
X93499Y658164D01*
Y655498D01*
X92166Y654165D01*
X90833D01*
X89500Y655498D01*
X88167Y654165D01*
X86834D01*
X89500Y655498D02*
Y658164D01*
X160834Y648085D02*
X159501Y646752D01*
Y644086D01*
X160834Y642753D01*
X166166D01*
X167499Y644086D01*
Y646752D01*
X166166Y648085D01*
X167499Y650751D02*
Y653416D01*
Y652084D01*
X159501D01*
X160834Y650751D01*
X159501Y657415D02*
Y662747D01*
X160834D01*
X166166Y657415D01*
X167499D01*
X197834Y648835D02*
X196501Y647502D01*
Y644836D01*
X197834Y643503D01*
X203166D01*
X204499Y644836D01*
Y647502D01*
X203166Y648835D01*
X204499Y651501D02*
Y654166D01*
Y652833D01*
X196501D01*
X197834Y651501D01*
X196501Y663497D02*
X197834Y660831D01*
X200500Y658165D01*
X203166D01*
X204499Y659498D01*
Y662164D01*
X203166Y663497D01*
X201833D01*
X200500Y662164D01*
Y658165D01*
X175584Y676085D02*
X174251Y674752D01*
Y672086D01*
X175584Y670753D01*
X180916D01*
X182249Y672086D01*
Y674752D01*
X180916Y676085D01*
X182249Y678751D02*
Y681416D01*
Y680084D01*
X174251D01*
X175584Y678751D01*
X174251Y690747D02*
Y685415D01*
X178250D01*
X176917Y688081D01*
Y689414D01*
X178250Y690747D01*
X180916D01*
X182249Y689414D01*
Y686748D01*
X180916Y685415D01*
X225584Y650335D02*
X224251Y649002D01*
Y646336D01*
X225584Y645003D01*
X230916D01*
X232249Y646336D01*
Y649002D01*
X230916Y650335D01*
X232249Y653001D02*
Y655667D01*
Y654334D01*
X224251D01*
X225584Y653001D01*
X232249Y663664D02*
X224251D01*
X228250Y659665D01*
Y664997D01*
X242835Y712166D02*
X241502Y713499D01*
X238836D01*
X237503Y712166D01*
Y706834D01*
X238836Y705501D01*
X241502D01*
X242835Y706834D01*
X245501Y705501D02*
X248167D01*
X246834D01*
Y713499D01*
X245501Y712166D01*
X252165D02*
X253498Y713499D01*
X256164D01*
X257497Y712166D01*
Y710833D01*
X256164Y709500D01*
X254831D01*
X256164D01*
X257497Y708167D01*
Y706834D01*
X256164Y705501D01*
X253498D01*
X252165Y706834D01*
X201335Y754916D02*
X200002Y756249D01*
X197336D01*
X196003Y754916D01*
Y749584D01*
X197336Y748251D01*
X200002D01*
X201335Y749584D01*
X204001Y748251D02*
X206666D01*
X205333D01*
Y756249D01*
X204001Y754916D01*
X215997Y748251D02*
X210665D01*
X215997Y753583D01*
Y754916D01*
X214664Y756249D01*
X211998D01*
X210665Y754916D01*
X207168Y361916D02*
X205835Y363249D01*
X203169D01*
X201836Y361916D01*
Y356584D01*
X203169Y355251D01*
X205835D01*
X207168Y356584D01*
X209834Y355251D02*
X212499D01*
X211166D01*
Y363249D01*
X209834Y361916D01*
X216498Y355251D02*
X219164D01*
X217831D01*
Y363249D01*
X216498Y361916D01*
X262084Y376585D02*
X260751Y375252D01*
Y372586D01*
X262084Y371253D01*
X267416D01*
X268749Y372586D01*
Y375252D01*
X267416Y376585D01*
X268749Y379251D02*
Y381917D01*
Y380584D01*
X260751D01*
X262084Y379251D01*
Y385915D02*
X260751Y387248D01*
Y389914D01*
X262084Y391247D01*
X267416D01*
X268749Y389914D01*
Y387248D01*
X267416Y385915D01*
X262084D01*
X183417Y870166D02*
X182084Y871499D01*
X179418D01*
X178085Y870166D01*
Y864834D01*
X179418Y863501D01*
X182084D01*
X183417Y864834D01*
X186083D02*
X187416Y863501D01*
X190082D01*
X191415Y864834D01*
Y870166D01*
X190082Y871499D01*
X187416D01*
X186083Y870166D01*
Y868833D01*
X187416Y867500D01*
X191415D01*
X185916Y793083D02*
X187249Y794416D01*
Y797082D01*
X185916Y798415D01*
X180584D01*
X179251Y797082D01*
Y794416D01*
X180584Y793083D01*
X185916Y790417D02*
X187249Y789084D01*
Y786418D01*
X185916Y785086D01*
X184583D01*
X183250Y786418D01*
X181917Y785086D01*
X180584D01*
X179251Y786418D01*
Y789084D01*
X180584Y790417D01*
X181917D01*
X183250Y789084D01*
X184583Y790417D01*
X185916D01*
X183250Y789084D02*
Y786418D01*
X261667Y561916D02*
X260334Y563249D01*
X257668D01*
X256336Y561916D01*
Y556584D01*
X257668Y555251D01*
X260334D01*
X261667Y556584D01*
X264333Y563249D02*
X269664D01*
Y561916D01*
X264333Y556584D01*
Y555251D01*
X411917Y795416D02*
X410584Y796749D01*
X407918D01*
X406586Y795416D01*
Y790084D01*
X407918Y788751D01*
X410584D01*
X411917Y790084D01*
X419915Y796749D02*
X417249Y795416D01*
X414583Y792750D01*
Y790084D01*
X415916Y788751D01*
X418582D01*
X419915Y790084D01*
Y791417D01*
X418582Y792750D01*
X414583D01*
X355834Y445667D02*
X354501Y444334D01*
Y441668D01*
X355834Y440336D01*
X361166D01*
X362499Y441668D01*
Y444334D01*
X361166Y445667D01*
X354501Y453665D02*
Y448333D01*
X358500D01*
X357167Y450999D01*
Y452332D01*
X358500Y453665D01*
X361166D01*
X362499Y452332D01*
Y449666D01*
X361166Y448333D01*
X656584Y692167D02*
X655251Y690834D01*
Y688168D01*
X656584Y686835D01*
X661916D01*
X663249Y688168D01*
Y690834D01*
X661916Y692167D01*
X663249Y698832D02*
X655251D01*
X659250Y694833D01*
Y700164D01*
X457834Y807667D02*
X456501Y806334D01*
Y803668D01*
X457834Y802336D01*
X463166D01*
X464499Y803668D01*
Y806334D01*
X463166Y807667D01*
X464499Y815665D02*
Y810333D01*
X459167Y815665D01*
X457834D01*
X456501Y814332D01*
Y811666D01*
X457834Y810333D01*
D11*
X132085Y805400D02*
G03*
X132085Y805400I-995J0D01*
G01*
X160648Y599364D02*
X183762D01*
Y634416D01*
X141852D02*
X183762D01*
X141852Y617144D02*
Y634416D01*
Y599364D02*
X148710D01*
X141852D02*
Y606730D01*
X84398Y810364D02*
X107512D01*
Y845416D01*
X65602D02*
X107512D01*
X65602Y828144D02*
Y845416D01*
Y810364D02*
X72460D01*
X65602D02*
Y817730D01*
X169460Y38790D02*
X159463D01*
Y43788D01*
X161129Y45455D01*
X164462D01*
X166128Y43788D01*
Y38790D01*
Y42122D02*
X169460Y45455D01*
X161129Y55451D02*
X159463Y53785D01*
Y50453D01*
X161129Y48787D01*
X162796D01*
X164462Y50453D01*
Y53785D01*
X166128Y55451D01*
X167794D01*
X169460Y53785D01*
Y50453D01*
X167794Y48787D01*
X169460Y63782D02*
X159463D01*
X164462Y58784D01*
Y65448D01*
X161129Y68780D02*
X159463Y70447D01*
Y73779D01*
X161129Y75445D01*
X162796D01*
X164462Y73779D01*
X166128Y75445D01*
X167794D01*
X169460Y73779D01*
Y70447D01*
X167794Y68780D01*
X166128D01*
X164462Y70447D01*
X162796Y68780D01*
X161129D01*
X164462Y70447D02*
Y73779D01*
X159463Y85442D02*
Y78777D01*
X164462D01*
X162796Y82109D01*
Y83776D01*
X164462Y85442D01*
X167794D01*
X169460Y83776D01*
Y80443D01*
X167794Y78777D01*
X270129Y620205D02*
X268463Y618538D01*
Y615206D01*
X270129Y613540D01*
X271795D01*
X273462Y615206D01*
Y618538D01*
X275128Y620205D01*
X276794D01*
X278460Y618538D01*
Y615206D01*
X276794Y613540D01*
X268463Y623537D02*
X278460D01*
X275128Y626869D01*
X278460Y630201D01*
X268463D01*
Y633534D02*
X278460D01*
Y638532D01*
X276794Y640198D01*
X270129D01*
X268463Y638532D01*
Y633534D01*
X425790Y515287D02*
X432454D01*
X429122D01*
Y505290D01*
X435787Y515287D02*
X442451Y505290D01*
Y515287D02*
X435787Y505290D01*
X359040D02*
Y515287D01*
X364038D01*
X365704Y513621D01*
Y510288D01*
X364038Y508622D01*
X359040D01*
X362372D02*
X365704Y505290D01*
X369037Y515287D02*
X375701Y505290D01*
Y515287D02*
X369037Y505290D01*
X297962Y527290D02*
Y533955D01*
X294629Y530622D02*
X301294D01*
X294629Y537287D02*
X292963Y538953D01*
Y542285D01*
X294629Y543951D01*
X296296D01*
X297962Y542285D01*
Y540619D01*
Y542285D01*
X299628Y543951D01*
X301294D01*
X302960Y542285D01*
Y538953D01*
X301294Y537287D01*
X296296Y547284D02*
X302960Y550616D01*
X296296Y553948D01*
X278210Y677790D02*
X268213D01*
Y682788D01*
X269879Y684454D01*
X273212D01*
X274878Y682788D01*
Y677790D01*
Y681122D02*
X278210Y684454D01*
X553790Y928537D02*
X560454D01*
Y926871D01*
X553790Y920206D01*
Y918540D01*
X532954Y928537D02*
X529622Y926871D01*
X526290Y923538D01*
Y920206D01*
X527956Y918540D01*
X531288D01*
X532954Y920206D01*
Y921872D01*
X531288Y923538D01*
X526290D01*
X505038Y918540D02*
Y928537D01*
X500040Y923538D01*
X506704D01*
X480704Y928537D02*
X474040D01*
Y923538D01*
X477372Y925204D01*
X479038D01*
X480704Y923538D01*
Y920206D01*
X479038Y918540D01*
X475706D01*
X474040Y920206D01*
X435540Y926871D02*
X437206Y928537D01*
X440538D01*
X442205Y926871D01*
Y925204D01*
X440538Y923538D01*
X438872D01*
X440538D01*
X442205Y921872D01*
Y920206D01*
X440538Y918540D01*
X437206D01*
X435540Y920206D01*
X416455Y918540D02*
X409790D01*
X416455Y925204D01*
Y926871D01*
X414788Y928537D01*
X411456D01*
X409790Y926871D01*
X386040Y918540D02*
X389372D01*
X387706D01*
Y928537D01*
X386040Y926871D01*
X358790D02*
X360456Y928537D01*
X363788D01*
X365454Y926871D01*
Y920206D01*
X363788Y918540D01*
X360456D01*
X358790Y920206D01*
Y926871D01*
X348955Y677871D02*
X347288Y679537D01*
X343956D01*
X342290Y677871D01*
Y671206D01*
X343956Y669540D01*
X347288D01*
X348955Y671206D01*
Y674538D01*
X345622D01*
X378945Y677871D02*
X377279Y679537D01*
X373946D01*
X372280Y677871D01*
Y676205D01*
X373946Y674538D01*
X377279D01*
X378945Y672872D01*
Y671206D01*
X377279Y669540D01*
X373946D01*
X372280Y671206D01*
X392274Y674538D02*
X398938D01*
X395606Y677871D02*
Y671206D01*
X402271Y677871D02*
X403937Y679537D01*
X407269D01*
X408935Y677871D01*
Y676205D01*
X407269Y674538D01*
X405603D01*
X407269D01*
X408935Y672872D01*
Y671206D01*
X407269Y669540D01*
X403937D01*
X402271Y671206D01*
X412267Y669540D02*
Y671206D01*
X413934D01*
Y669540D01*
X412267D01*
X420598Y677871D02*
X422264Y679537D01*
X425597D01*
X427263Y677871D01*
Y676205D01*
X425597Y674538D01*
X423930D01*
X425597D01*
X427263Y672872D01*
Y671206D01*
X425597Y669540D01*
X422264D01*
X420598Y671206D01*
X51290Y292787D02*
X57955D01*
X54622D01*
Y282790D01*
X61287Y292787D02*
X67951Y282790D01*
Y292787D02*
X61287Y282790D01*
X97942Y291121D02*
X96276Y292787D01*
X92943D01*
X91277Y291121D01*
Y284456D01*
X92943Y282790D01*
X96276D01*
X97942Y284456D01*
Y287788D01*
X94609D01*
X121267Y282790D02*
Y292787D01*
X126266D01*
X127932Y291121D01*
Y287788D01*
X126266Y286122D01*
X121267D01*
X124600D02*
X127932Y282790D01*
X131264Y292787D02*
X137929Y282790D01*
Y292787D02*
X131264Y282790D01*
X368040Y627037D02*
Y617040D01*
X373038D01*
X374705Y618706D01*
Y620372D01*
Y622038D01*
X373038Y623704D01*
X368040D01*
X379703D02*
X383035D01*
X384701Y622038D01*
Y617040D01*
X379703D01*
X378037Y618706D01*
X379703Y620372D01*
X384701D01*
X389700Y625371D02*
Y623704D01*
X388034D01*
X391366D01*
X389700D01*
Y618706D01*
X391366Y617040D01*
X406361Y622038D02*
X413026D01*
X409693Y625371D02*
Y618706D01*
X605454Y132621D02*
X603788Y134287D01*
X600456D01*
X598790Y132621D01*
Y125956D01*
X600456Y124290D01*
X603788D01*
X605454Y125956D01*
Y129288D01*
X602122D01*
X628780D02*
X635445D01*
X632113Y132621D02*
Y125956D01*
X645442Y124290D02*
X638777D01*
X645442Y130955D01*
Y132621D01*
X643775Y134287D01*
X640443D01*
X638777Y132621D01*
X653772Y124290D02*
Y134287D01*
X648774Y129288D01*
X655438D01*
X181790Y156206D02*
Y162871D01*
X185122Y166203D01*
X188454Y162871D01*
Y156206D01*
Y161204D01*
X181790D01*
X211780Y166203D02*
Y156206D01*
X216779D01*
X218445Y157872D01*
Y159538D01*
X216779Y161204D01*
X211780D01*
X216779D01*
X218445Y162871D01*
Y164537D01*
X216779Y166203D01*
X211780D01*
X248435Y164537D02*
X246769Y166203D01*
X243437D01*
X241771Y164537D01*
Y157872D01*
X243437Y156206D01*
X246769D01*
X248435Y157872D01*
Y161204D01*
X245103D01*
X251768Y154540D02*
X258432D01*
X261764Y156206D02*
X265096D01*
X263430D01*
Y162871D01*
X261764D01*
X270095Y156206D02*
X275093D01*
X276759Y157872D01*
X275093Y159538D01*
X271761D01*
X270095Y161204D01*
X271761Y162871D01*
X276759D01*
X281758Y156206D02*
X285090D01*
X286756Y157872D01*
Y161204D01*
X285090Y162871D01*
X281758D01*
X280092Y161204D01*
Y157872D01*
X281758Y156206D01*
X335290Y75287D02*
X341954D01*
X338622D01*
Y65290D01*
X350285D02*
X346953D01*
X345287Y66956D01*
Y70288D01*
X346953Y71954D01*
X350285D01*
X351951Y70288D01*
Y68622D01*
X345287D01*
X355284Y71954D02*
Y65290D01*
Y68622D01*
X356950Y70288D01*
X358616Y71954D01*
X360282D01*
X365280Y65290D02*
Y71954D01*
X366946D01*
X368613Y70288D01*
Y65290D01*
Y70288D01*
X370279Y71954D01*
X371945Y70288D01*
Y65290D01*
X375277D02*
X378609D01*
X376943D01*
Y71954D01*
X375277D01*
X383608Y65290D02*
Y71954D01*
X388606D01*
X390272Y70288D01*
Y65290D01*
X395271Y71954D02*
X398603D01*
X400269Y70288D01*
Y65290D01*
X395271D01*
X393605Y66956D01*
X395271Y68622D01*
X400269D01*
X405267Y73621D02*
Y71954D01*
X403601D01*
X406934D01*
X405267D01*
Y66956D01*
X406934Y65290D01*
X413598D02*
X416930D01*
X418596Y66956D01*
Y70288D01*
X416930Y71954D01*
X413598D01*
X411932Y70288D01*
Y66956D01*
X413598Y65290D01*
X421929Y71954D02*
Y65290D01*
Y68622D01*
X423595Y70288D01*
X425261Y71954D01*
X426927D01*
D12*
X379000Y107050D02*
G03*
X379000Y107050I-1250J0D01*
G01*
X237550Y763650D02*
G03*
X237550Y763650I-1250J0D01*
G01*
X328550Y480750D02*
G03*
X328550Y480750I-1250J0D01*
G01*
X655500Y400750D02*
G03*
X655500Y400750I-1250J0D01*
G01*
X350450Y947400D02*
G03*
X350450Y947400I-1250J0D01*
G01*
X466650D02*
G03*
X466650Y947400I-1250J0D01*
G01*
D13*
X278487Y204095D02*
G03*
X294400Y204200I7877J12168D01*
G01*
X294513Y235205D02*
G03*
X278600Y235100I-7877J-12168D01*
G01*
X375277Y97331D02*
G03*
X375382Y81418I12168J-7877D01*
G01*
X406386Y81305D02*
G03*
X406282Y97218I-12168J7877D01*
G01*
X211262Y798954D02*
G03*
X195350Y798850I-7877J-12168D01*
G01*
X195237Y767845D02*
G03*
X211150Y767950I7877J12168D01*
G01*
X113870Y715688D02*
G03*
X113975Y699775I12168J-7877D01*
G01*
X144979Y699663D02*
G03*
X144875Y715575I-12168J7877D01*
G01*
X19046Y806512D02*
G03*
X19150Y790600I12168J-7877D01*
G01*
X50155Y790487D02*
G03*
X50050Y806400I-12168J7877D01*
G01*
X395205Y785238D02*
G03*
X395100Y801150I-12168J7877D01*
G01*
X364095Y801263D02*
G03*
X364200Y785350I12168J-7877D01*
G01*
X11295Y826012D02*
G03*
X11400Y810100I12168J-7877D01*
G01*
X42405Y809987D02*
G03*
X42300Y825900I-12168J7877D01*
G01*
X293013Y336455D02*
G03*
X277100Y336350I-7877J-12168D01*
G01*
X276987Y305345D02*
G03*
X292900Y305450I7877J12168D01*
G01*
X237013Y636655D02*
G03*
X221100Y636550I-7877J-12168D01*
G01*
X220988Y605546D02*
G03*
X236900Y605650I7877J12168D01*
G01*
X205263Y634655D02*
G03*
X189350Y634550I-7877J-12168D01*
G01*
X189237Y603545D02*
G03*
X205150Y603650I7877J12168D01*
G01*
X241845Y548512D02*
G03*
X241950Y532600I12168J-7877D01*
G01*
X272955Y532487D02*
G03*
X272850Y548400I-12168J7877D01*
G01*
X333487Y431096D02*
G03*
X349400Y431200I7877J12168D01*
G01*
X349512Y462205D02*
G03*
X333600Y462100I-7877J-12168D01*
G01*
X253762Y397655D02*
G03*
X237850Y397550I-7877J-12168D01*
G01*
X237738Y366545D02*
G03*
X253650Y366650I7877J12168D01*
G01*
X66405Y371487D02*
G03*
X66300Y387400I-12168J7877D01*
G01*
X35296Y387513D02*
G03*
X35400Y371600I12168J-7877D01*
G01*
X58987Y591095D02*
G03*
X74900Y591200I7877J12168D01*
G01*
X75012Y622205D02*
G03*
X59100Y622100I-7877J-12168D01*
G01*
X116012Y630405D02*
G03*
X100100Y630300I-7877J-12168D01*
G01*
X99987Y599296D02*
G03*
X115900Y599400I7877J12168D01*
G01*
X99012Y630154D02*
G03*
X83100Y630050I-7877J-12168D01*
G01*
X82987Y599045D02*
G03*
X98900Y599150I7877J12168D01*
G01*
X192500Y389000D02*
G03*
X192423Y369016I14270J-10047D01*
G01*
X228500Y369000D02*
G03*
X228576Y388984I-14270J10047D01*
G01*
X157513Y852405D02*
G03*
X141600Y852300I-7877J-12168D01*
G01*
X141488Y821295D02*
G03*
X157400Y821400I7877J12168D01*
G01*
X68155Y741737D02*
G03*
X68050Y757650I-12168J7877D01*
G01*
X37046Y757762D02*
G03*
X37150Y741850I12168J-7877D01*
G01*
X52000Y431750D02*
G03*
X32016Y431826I-10047J-14270D01*
G01*
X32000Y395750D02*
G03*
X51984Y395673I10047J14270D01*
G01*
X294500Y204250D02*
Y235000D01*
X278500Y204250D02*
Y235000D01*
X283800Y218100D02*
X289100D01*
X283800Y220900D02*
X289100D01*
X375432Y81318D02*
X406182D01*
X375432Y97318D02*
X406182D01*
X389282Y86718D02*
Y92018D01*
X392082Y86718D02*
Y92018D01*
X673750Y377750D02*
Y408500D01*
Y377750D02*
X689750D01*
Y408500D01*
X673750D02*
X689750D01*
X679750Y395250D02*
X684000D01*
Y391250D02*
Y395250D01*
X679750Y391250D02*
X684000D01*
X679750D02*
Y395250D01*
X200550Y784650D02*
X205850D01*
X200550Y781850D02*
X205850D01*
X195250Y768000D02*
Y798750D01*
X211250Y768000D02*
Y798750D01*
X128175Y704975D02*
Y710275D01*
X130975Y704975D02*
Y710275D01*
X114075Y699675D02*
X144825D01*
X114075Y715675D02*
X144825D01*
X33351Y795800D02*
Y801100D01*
X36150Y795800D02*
Y801100D01*
X19250Y790500D02*
X50000D01*
X19250Y806500D02*
X50000D01*
X419500Y871200D02*
X440000D01*
X419500Y818700D02*
X440000D01*
Y871200D01*
X419500Y818700D02*
Y871200D01*
X424750Y846950D02*
X434750D01*
X424750Y843250D02*
X434750D01*
X380900Y790650D02*
Y795950D01*
X378100Y790650D02*
Y795950D01*
X364250Y801250D02*
X395000D01*
X364250Y785250D02*
X395000D01*
X25600Y815300D02*
Y820600D01*
X28400Y815300D02*
Y820600D01*
X11500Y810000D02*
X42250D01*
X11500Y826000D02*
X42250D01*
X282300Y322150D02*
X287600D01*
X282300Y319350D02*
X287600D01*
X277000Y305500D02*
Y336250D01*
X293000Y305500D02*
Y336250D01*
X689750Y413500D02*
Y444249D01*
X673750D02*
X689750D01*
X673750Y413500D02*
Y444249D01*
Y413500D02*
X689750D01*
X679500Y426749D02*
X683750D01*
X679500D02*
Y430749D01*
X683750D01*
Y426749D02*
Y430749D01*
X221000Y605750D02*
Y636500D01*
X237000Y605750D02*
Y636500D01*
X226400Y622650D02*
X231700D01*
X226400Y619850D02*
X231700D01*
X189250Y603750D02*
Y634500D01*
X205250Y603750D02*
Y634500D01*
X194650Y620650D02*
X199950D01*
X194650Y617850D02*
X199950D01*
X242000Y532500D02*
X272750D01*
X242000Y548500D02*
X272750D01*
X255850Y537900D02*
Y543200D01*
X258650Y537900D02*
Y543200D01*
X349500Y431250D02*
Y462000D01*
X333500Y431250D02*
Y462000D01*
X338800Y445100D02*
X344100D01*
X338800Y447900D02*
X344100D01*
X237750Y366750D02*
Y397500D01*
X253750Y366750D02*
Y397500D01*
X243150Y383650D02*
X248450D01*
X243150Y380850D02*
X248450D01*
X35500Y387500D02*
X66250D01*
X35500Y371500D02*
X66250D01*
X52400Y376800D02*
Y382100D01*
X49600Y376800D02*
Y382100D01*
X75000Y591250D02*
Y622000D01*
X59000Y591250D02*
Y622000D01*
X64300Y605100D02*
X69600D01*
X64300Y607900D02*
X69600D01*
X100000Y599500D02*
Y630250D01*
X116000Y599500D02*
Y630250D01*
X105400Y616400D02*
X110700D01*
X105400Y613600D02*
X110700D01*
X83000Y599250D02*
Y630000D01*
X99000Y599250D02*
Y630000D01*
X88400Y616150D02*
X93700D01*
X88400Y613350D02*
X93700D01*
X192500Y389000D02*
X228500D01*
X192500Y369000D02*
X228500D01*
X212500Y374900D02*
Y383000D01*
X208500Y375000D02*
Y383000D01*
X141500Y821500D02*
Y852250D01*
X157500Y821500D02*
Y852250D01*
X146900Y838400D02*
X152200D01*
X146900Y835600D02*
X152200D01*
X37250Y757750D02*
X68000D01*
X37250Y741750D02*
X68000D01*
X54150Y747050D02*
Y752350D01*
X51350Y747050D02*
Y752350D01*
X38000Y411750D02*
X46000D01*
X38000Y415750D02*
X46100D01*
X52000Y395750D02*
Y431750D01*
X32000Y395750D02*
Y431750D01*
D14*
X385164Y391850D02*
G03*
X385164Y391850I-1414J0D01*
G01*
X588750Y23460D02*
X666130D01*
Y96420D01*
X588750D02*
X666130D01*
X588750Y23460D02*
Y96420D01*
X509900Y65500D02*
Y117500D01*
X539100Y65500D02*
Y117500D01*
X130950Y760220D02*
Y764240D01*
X130890Y760160D02*
X130950Y760220D01*
X126930Y760160D02*
X130890D01*
X130980Y796240D02*
Y800200D01*
X126900Y800260D02*
X130920D01*
X90900Y760230D02*
Y764190D01*
X90960Y760170D02*
X94980D01*
X90970Y800280D02*
X94930D01*
X90910Y796200D02*
Y800220D01*
X210850Y550500D02*
X216250D01*
X76250D02*
X81650D01*
X210850Y410500D02*
X216250D01*
X76250D02*
X81650D01*
X216250Y545100D02*
Y550500D01*
X76250Y545100D02*
Y550500D01*
X216250Y410500D02*
Y415900D01*
X76250Y410500D02*
Y415900D01*
X520250Y365750D02*
X538250Y383750D01*
Y468750D01*
X435250Y383750D02*
Y468750D01*
Y383750D02*
X453250Y365750D01*
X471050D01*
X502450D02*
X520250D01*
X435250Y468750D02*
X471050D01*
X502450D02*
X538250D01*
X345250Y201850D02*
Y398350D01*
Y201850D02*
X405250D01*
Y398350D01*
X345250D02*
X405250D01*
X554500Y745250D02*
X572500Y727250D01*
X469500Y745250D02*
X554500D01*
X469500Y642250D02*
X554500D01*
X572500Y660250D01*
Y678050D01*
Y709450D02*
Y727250D01*
X469500Y642250D02*
Y678050D01*
Y709450D02*
Y745250D01*
X161850Y1069850D02*
X320650D01*
X161850Y1049850D02*
Y1069850D01*
Y920750D02*
Y1049850D01*
Y900750D02*
Y920750D01*
X320650Y900750D02*
Y920750D01*
Y1049850D01*
Y1069850D01*
Y920750D02*
X332050D01*
Y1049850D01*
X320650D02*
X332050D01*
X150450Y920750D02*
X161850D01*
X150450D02*
Y1049850D01*
X161850D01*
X292050Y900750D02*
X320650D01*
X161850D02*
X190450D01*
X190210Y900740D02*
X291910D01*
X190210D02*
Y900760D01*
X271000Y226750D02*
Y301750D01*
X168000Y226750D02*
Y301750D01*
X584750Y782500D02*
Y817500D01*
X572350D02*
X584750D01*
X519750Y782500D02*
Y817500D01*
X532150D01*
X570450Y431550D02*
X639050D01*
X570450Y489950D02*
X639050D01*
D15*
X342700Y940250D02*
G03*
X342700Y940250I-2000J0D01*
G01*
D16*
X649430Y434080D02*
G03*
X649430Y434080I-1500J0D01*
G01*
D17*
X361800Y969000D02*
G03*
X361800Y969000I-3000J0D01*
G01*
X478000D02*
G03*
X478000Y969000I-3000J0D01*
G01*
D18*
X337250Y905000D02*
X702500Y905000D01*
X0D02*
X150250D01*
X0Y175000D02*
X702500D01*
D19*
X669770Y501000D02*
Y527900D01*
Y501000D02*
X670000D01*
X669770Y604100D02*
Y631000D01*
X670000D01*
X540230Y501000D02*
Y527900D01*
X540000Y501000D02*
X540230D01*
Y604100D02*
Y631000D01*
X540000D02*
X540230D01*
X540000D02*
X540230D01*
D20*
X540000Y501000D02*
X670000D01*
X540000Y631000D02*
X670000D01*
D21*
X116250Y666248D02*
D03*
D22*
X185752Y840750D02*
D03*
M02*
